<?xml version="1.0" standalone="no"?>
<!DOCTYPE svg PUBLIC "-//W3C//DTD SVG 1.1//EN" "http://www.w3.org/Graphics/SVG/1.1/DTD/svg11.dtd" >
<svg xmlns="http://www.w3.org/2000/svg">
<metadata></metadata>
<defs>
<font id="bedtime_storiesregular" horiz-adv-x="1139" >
<font-face units-per-em="2048" ascent="1638" descent="-410" />
<missing-glyph horiz-adv-x="569" />
<glyph horiz-adv-x="0" />
<glyph unicode="&#xd;" horiz-adv-x="569" />
<glyph unicode=" "  horiz-adv-x="569" />
<glyph unicode="&#x09;" horiz-adv-x="569" />
<glyph unicode="&#xa0;" horiz-adv-x="569" />
<glyph unicode="!" horiz-adv-x="924" d="M-301 543l12 12h12l18 -18v-6h-30zM-135 543l17 12h18l18 -18l-12 -12q-41 6 -41 18zM-74 62v6h55q6 0 6 16h15l9 6l12 -9h6l10 6l12 -6l9 3q0 -6 15 -10v-6q24 0 76 34l-3 9l-3 -3h-9v6l27 27q-45 7 -45 13l24 9h40l15 3l-6 9l3 3l21 -12h15l12 30l22 -12q21 16 21 30h9 q6 0 6 -9q6 0 6 18h6q3 -18 9 -18h4q9 0 9 25h9v-19h3l3 16v12h3q10 0 21 -9h3l-3 15l3 3h3q6 0 6 -15l9 3v9q0 19 13 24l-3 9l9 6l6 -6h18q0 9 6 9l3 -3l-3 -9v-3h3q0 22 25 31q0 15 9 15l6 -6l-3 -12q12 0 12 -13h3v3l-6 22l3 3l15 -3l21 15q0 -9 37 -12l-6 9v3l18 6h3 l6 -6v-3l3 3h9v-21h3v9h13q6 0 12 -34q18 0 18 12l-3 10h9q17 0 43 -31l18 15h3q0 -18 36 -18l10 3l6 -24v-6h3q6 0 6 18h3l30 -18v3l-3 12v3h3q6 0 6 -12h6l3 3h4l3 -3v-3q0 -9 -13 -9v-3l19 -10q4 22 9 22l3 -3v-3l-3 -3v-3h3l30 18l3 -15h6l-3 15v6h3l13 -9l3 3 q0 -8 15 -15q0 12 6 12h12l6 -6l-6 -9h6l12 9h3l3 -3h3l-3 -9l6 -55q22 3 22 9h-3l-12 -3l-4 9l4 33l-4 10l7 6q12 -5 12 -9v-22q0 -22 9 -24v6l-3 9l3 3h6q6 0 6 -18h3l3 3h3l3 -3v-3l-12 -6q3 -25 9 -25h3v4l-3 9l3 3h3l3 -16l19 4l12 -7v3l-3 13l3 3h3q0 -6 27 -25l-9 -9 h-9l-12 3l-9 -3v-6l27 -6l9 3l3 -3v-6l-3 -3v-3l-3 3h-27q-9 -3 -9 -18v-12l21 6l3 -3v-7q0 -9 -18 -9v-9h6l33 12h3v-3q0 -6 -9 -6v-3q64 -2 64 -12l-3 -3q-954 6 -1223 18zM19 37h12l12 12v4q-24 -8 -24 -16zM41 153l6 6h18l12 -11l-6 -6v-6l6 -6l-6 -6h-12q-10 0 -18 29z M53 537v6l6 6v6q36 -8 36 -18l-12 -12h-18zM163 149l12 4v16h-12v-20zM201 189v6h35q11 53 24 53l12 -30q-18 0 -18 -35l-30 -6h-11zM375 269h4v12h-4v-12zM396 307h11q18 -6 18 -35l-6 -6h-6q-14 0 -17 41zM419 390l6 70h18v-5l-12 -59h12v17h12v-23l-12 -12zM567 614v12 q23 20 23 41h12l-6 -29l6 -6h6l6 17h18v-23l-12 -12h-53zM603 329l20 4v12h-8l-12 -12v-4zM626 785v6l35 35l6 -5v-12l-35 -30zM720 720v12l18 18h18v-6q0 -31 -18 -36h-6zM739 261l32 -16v8q-4 24 -12 24zM750 791v6q6 18 35 18h24v-6q-6 -18 -36 -18h-23zM767 891l6 6 l77 -29l6 17l30 -5v-12q-36 -6 -36 -18v-6q18 0 18 -18l29 6q0 -53 65 -53v-6l-12 -17v-6l6 -6v-6l-6 -6h-5q-12 0 -12 35l-53 -11l-18 17l18 6v12l-71 -18q19 48 41 48q-25 41 -35 41l-18 -18zM791 261l12 -4l4 24v4h-4q0 -11 -12 -24zM886 720v12l11 12h6v-6l-6 -6v-6 l6 -6h6l24 18l6 -18l-18 -23q-35 13 -35 23zM927 1021v6q7 30 18 30l17 -53l-6 -6h-11v17l5 6v6h-5zM1009 891q4 36 18 36l12 -12v-6l-18 -18h-12zM1091 177h16v4l-16 4v-8zM1191 89l12 -12h4v12l-4 12h12v8l-24 -8v-12zM1198 47q18 0 18 36h6q18 0 18 -24q-8 -59 -24 -59 q-18 25 -18 47zM1346 525l6 6h41l12 -12v-5h-47z" />
<glyph unicode="&#x22;" horiz-adv-x="727" />
<glyph unicode="#" />
<glyph unicode="$" />
<glyph unicode="%" horiz-adv-x="1821" />
<glyph unicode="&#x26;" horiz-adv-x="1366" />
<glyph unicode="'" horiz-adv-x="391" />
<glyph unicode="(" horiz-adv-x="682" />
<glyph unicode=")" horiz-adv-x="682" />
<glyph unicode="*" horiz-adv-x="797" />
<glyph unicode="+" horiz-adv-x="1196" />
<glyph unicode="," horiz-adv-x="569" />
<glyph unicode="-" horiz-adv-x="682" />
<glyph unicode="." horiz-adv-x="569" d="M-10 -32v70l28 28h42l14 -14h14q-48 -112 -70 -112zM144 304q55 28 154 28l28 -42q0 -28 -42 -28v-14q98 -77 98 -126l-14 -14h14l42 28l14 -14v-14q-28 0 -28 -42l-14 -14h-14l-98 28v-14l-14 -14v-14h14l56 14v-28l-42 -42l-70 84q0 35 56 42l-70 84l-14 -84h-28v14z " />
<glyph unicode="/" horiz-adv-x="569" />
<glyph unicode="0" />
<glyph unicode="1" />
<glyph unicode="2" />
<glyph unicode="3" />
<glyph unicode="4" />
<glyph unicode="5" />
<glyph unicode="6" />
<glyph unicode="7" />
<glyph unicode="8" />
<glyph unicode="9" />
<glyph unicode=":" horiz-adv-x="569" />
<glyph unicode=";" horiz-adv-x="569" />
<glyph unicode="&#x3c;" horiz-adv-x="1196" />
<glyph unicode="=" horiz-adv-x="748" d="M-264 944v12l31 6l12 -12l-6 -6v-7zM19 179l6 6q24 -12 66 -12h73v-12l-97 -13q-32 0 -48 31zM25 462q16 38 30 42h12l12 -12v-6q0 -12 -24 -12v-18h-18l-6 6h-6zM31 937v13q0 12 66 18l67 -6h66l36 -12v18q-18 0 -18 12l12 12h36l12 -12v-6l-6 -6v-6h78l115 -6l36 6 l6 -6v-12q-6 -19 -36 -19l-115 12q-6 -48 -18 -48l-12 12l12 12q-30 18 -60 18l-18 -6l-72 12l-12 -24l12 -48v-12l24 -6l-6 6v12l12 12q10 0 24 -42q30 0 30 -12v-18l-30 -36l-30 36l18 6v6q-96 16 -96 30v6l6 30h12v-30h12v18q0 60 -12 60l-30 -6l-6 6l-19 -18l-6 6h-6 l-18 -6l-12 31h-12zM97 853v6l49 42h6l12 -12q-24 -36 -67 -36zM109 1202v13l18 6l25 -19l-12 -12h-19zM115 407v13q4 36 19 36h12v-6q0 -33 -25 -49zM115 648v6l55 103h24l12 -12v-18l-6 -6v-6h30v6q-18 0 -18 12v12l18 18h18l6 -36h-12v-6h6l48 24h6l12 -73h-12l-24 7 l-60 -19l-54 43v-12q18 0 18 -12v-7q0 -15 -61 -30zM140 564v6l24 24h12q0 -36 24 -36l-18 -24h-6q0 30 -36 30zM146 1046v12l6 30h12l6 -24h12v12l30 -6h30l12 -42l-6 -6l-42 6h-6l-48 -12zM164 486v6q36 27 36 60h18q-12 27 -24 30q0 33 54 36l-6 6v6l12 24h12l108 -36v-6 q0 -12 -24 -12v-12l-54 12l-30 -6v-6l30 -12l-24 -48v-30l6 -6v-6l6 6h18l48 -36q0 30 12 30t12 -18l19 12h6l6 -6h6q0 24 36 24l12 -24l6 6h12v-12l-6 -6v-6h12l30 12l12 -18v-6q0 -12 -30 -12q0 -19 -18 -19l-24 13q-32 0 -54 -127l-25 -12h-6q-112 48 -114 60l12 12 l36 -12l-6 36l-36 -12l-6 6v6l30 30h6q-10 35 -66 61l-18 -18h-12zM194 420v12l12 12h6q14 0 18 -31l-6 -6h-18zM218 155v12l12 12q36 -15 36 -24l-6 -7h-6l-12 13l-6 -6h-18zM374 155v6l12 12h37q0 18 12 18q34 -24 54 -24h18v6q-42 0 -42 36l6 6h18l72 -48l42 6h24 q33 0 43 -25q-92 -9 -109 -30h-6q0 36 -36 49q-6 -19 -36 -19zM405 269v6l42 24l6 -36h12l-6 30l18 18l24 -48l-48 -12zM405 745l12 12l6 -6h36v-18h-36l18 -30l-6 -6q-30 6 -30 48zM417 1166v12l12 12h6l12 -12q-9 -24 -18 -24zM423 841v12h18l54 -12l-6 -36l6 -18h-6 q-33 0 -42 24q30 8 30 18h-6l-36 -6zM435 359v36l12 12l12 -24l-6 -54h-12zM441 715q25 0 36 60h12l12 -12q0 -39 -36 -66q-24 9 -24 18zM513 263v12l12 12h42q42 0 42 -24q0 -18 12 -18v6l-6 18l30 12l6 -6v-36q-26 -48 -54 -48v12l6 6v6h-6l-12 -12l-42 42v-12h-6z M519 1172q0 45 18 49l6 -6v-6q-6 -37 -18 -37h-6zM537 853v12q12 30 42 42q12 0 12 -18l-6 -6v-6l6 -24h-12l-18 12l-12 -12h-12zM549 956v6l18 18h6l12 -12q0 -11 -30 -18zM579 516v6l12 12h6l18 -18v-24l-12 -12l-6 18l6 18h-24zM621 498v6q0 16 67 24l12 -36l-12 -12 l-24 18l-37 -6zM621 931v6q0 11 30 19q67 -5 67 -19v-18q-18 0 -18 -18l-6 -6h-6q-46 36 -67 36zM639 323v24l12 12l19 -18q-6 -36 -19 -36zM645 76v24l19 18l6 -18l-19 -24h-6zM676 34q0 12 36 24l6 -6v-18l-12 -12h-18zM676 161q24 31 24 60l6 6h6q24 -28 24 -60l30 -6 l24 6h12l12 -12l-48 -13h-72zM700 528v6q14 36 24 36l12 -12v-18q0 -10 -30 -18zM814 787v12l12 12h18v-6l-24 -24zM892 161l6 6h6l73 -6v-13h-73zM941 931v13l42 6h36l30 -6v-7l-12 -12h-66z" />
<glyph unicode="&#x3e;" horiz-adv-x="1196" />
<glyph unicode="?" />
<glyph unicode="@" horiz-adv-x="807" d="M-132 956l9 5q82 -3 134 -86l123 -208l44 -51l8 5q-20 32 -4 43l40 -9l8 5l3 14q16 10 -36 91l3 14l24 15l56 2l-5 8q-64 28 -112 -3l-32 48l25 16l43 39l30 8l14 67q115 54 132 27l44 -86l16 10l30 -153l24 15q-21 33 -4 43l110 25l29 -27q21 -32 -7 -96l-53 46 q-13 -8 -7 -96l27 -6l21 -32l-1 -35l5 -8q41 26 57 1l19 24l54 23l-45 52l8 5q24 16 56 -33l16 11l10 -17l-43 -39l5 -8l8 5l44 39l27 -5q10 -17 -66 -77l-6 -27q-16 -10 -61 42l-16 -11l-35 -34l32 -14l10 -16l46 -143l13 -3l5 -8l144 -206q24 -65 -4 -83q-74 -34 -382 76 l-31 49l16 10q21 14 336 -94l8 6l-5 8q-124 193 -568 312l-42 30q-97 -82 -74 -117q24 16 34 0l6 -8q-4 -71 -42 -96l-13 3l-32 49q-15 24 25 50l-5 8q-57 -36 -115 18l-61 7l63 98l-5 8q-35 -17 -48 3l-5 8q34 23 53 149l32 21l13 -3l9 6q-43 66 -36 91l-14 3l-7 -5 l-28 -29l-13 3l-10 16q-11 16 38 48l-21 32l-74 79zM-119 562q-11 16 14 32q68 36 80 17l-17 -45l-24 -16zM115 1000l3 13l24 16l27 -6l8 -30l32 21l11 -16q-25 -16 -4 -48l-27 -29zM130 780q37 -34 51 -25q12 -61 -2 -70l-16 -10l-26 40q-26 52 -7 65zM142 225 q57 37 141 -93l-3 -14l-41 -26q-41 -7 -69 36q-47 84 -28 97zM203 310l127 70l5 -8l-16 -10q15 -25 -1 -35l-16 -11q-83 -32 -94 -14zM217 1145l8 5q41 8 69 -36l42 -65l-6 -26q-41 -9 -48 3l-36 92zM244 531l500 -206l-18 46q-24 -16 -35 0l3 14l-5 8l-29 27l8 40l-16 -10 l-30 -43q-194 95 -378 124zM285 592q84 -46 301 -93l-10 16l-14 3l-5 8l-7 30l-9 -5q-51 -33 -133 29l-5 8l32 21l14 -3l27 29l-5 8q-22 34 -186 -51zM360 779l21 -33l27 -6l1 70l-15 24l-25 -15zM479 1004l3 14l8 5l40 -9l37 -57l-6 -26z" />
<glyph unicode="A" horiz-adv-x="1366" />
<glyph unicode="B" horiz-adv-x="1366" />
<glyph unicode="C" horiz-adv-x="1479" />
<glyph unicode="D" horiz-adv-x="1479" />
<glyph unicode="E" horiz-adv-x="1366" />
<glyph unicode="F" horiz-adv-x="1251" />
<glyph unicode="G" horiz-adv-x="1593" />
<glyph unicode="H" horiz-adv-x="1479" />
<glyph unicode="I" horiz-adv-x="569" />
<glyph unicode="J" horiz-adv-x="1024" />
<glyph unicode="K" horiz-adv-x="1366" />
<glyph unicode="L" />
<glyph unicode="M" horiz-adv-x="1706" />
<glyph unicode="N" horiz-adv-x="1479" />
<glyph unicode="O" horiz-adv-x="1593" />
<glyph unicode="P" horiz-adv-x="1366" />
<glyph unicode="Q" horiz-adv-x="1593" />
<glyph unicode="R" horiz-adv-x="1479" />
<glyph unicode="S" horiz-adv-x="1366" />
<glyph unicode="T" horiz-adv-x="1251" />
<glyph unicode="U" horiz-adv-x="1479" />
<glyph unicode="V" horiz-adv-x="1366" />
<glyph unicode="W" horiz-adv-x="1933" />
<glyph unicode="X" horiz-adv-x="1366" />
<glyph unicode="Y" horiz-adv-x="1366" />
<glyph unicode="Z" horiz-adv-x="1251" />
<glyph unicode="[" horiz-adv-x="569" />
<glyph unicode="\" horiz-adv-x="569" />
<glyph unicode="]" horiz-adv-x="569" />
<glyph unicode="^" horiz-adv-x="961" />
<glyph unicode="_" />
<glyph unicode="`" horiz-adv-x="682" />
<glyph unicode="a" d="M30 83v20q332 380 620 380h32q161 0 184 -72v-20q0 -28 -28 -112h12q21 0 136 88l44 12h12l8 -8q0 -74 -184 -180q-68 -63 -68 -88h4l60 -4q234 0 652 224l-196 -188q-345 -120 -504 -120q-128 7 -128 64v24l8 36h-4q-441 -108 -552 -108q-108 5 -108 52zM150 119h4 q511 12 632 252l8 20q-66 16 -132 16q-256 0 -512 -288z" />
<glyph unicode="b" horiz-adv-x="1040" d="M-1066 363v24q0 115 140 220q176 133 640 184q73 11 256 16q508 0 848 -148q0 -9 36 -12q96 0 408 276q630 490 1204 612q0 -24 92 -28q12 0 20 -40q-175 -375 -836 -656q-199 -88 -752 -312l-4 -4v-4q16 -57 24 -188q0 -438 -472 -712q-286 -142 -476 -152 q-72 0 -72 132v44q0 180 320 464q55 56 100 120h-8q-311 -45 -688 -308q-199 -151 -460 -372q-102 39 -104 48q120 30 412 300q239 217 388 260l532 204q165 67 344 224q-308 188 -748 188h-36q-591 0 -984 -260q-36 -29 -36 -64l24 -88v-8q0 -22 -16 -32h-8q-88 7 -88 72z M26 -469h20q311 0 616 228q292 256 292 596l-4 80l-4 4h-4q-163 -41 -256 -88q-292 -153 -292 -332v-16l4 -40q-372 -164 -372 -432zM954 587h4q901 304 1224 548q234 185 292 328h-4q-56 0 -472 -164q-285 -124 -668 -400q-204 -159 -376 -312z" />
<glyph unicode="c" horiz-adv-x="1086" d="M40 130v19q0 111 293 308q191 99 393 99h26q241 -14 256 -57q0 -107 -157 -133l-41 -4h-27q-72 0 -72 23q57 79 57 103h-4q-193 0 -438 -122q-145 -91 -217 -210q72 -84 217 -84q150 0 453 111q48 72 267 129q32 12 95 16q72 0 80 -19q0 -104 -450 -210 q-285 -99 -453 -99q-278 27 -278 130z" />
<glyph unicode="d" d="M0 65q320 408 660 408h47l220 -63q55 0 455 314h47v-15q-94 -153 -518 -597l-78 -126h15q126 0 833 236h173l31 -32q-215 -125 -1005 -314h-32q-85 0 -125 79v62q0 82 172 267h-15q-566 -267 -817 -267h-16zM204 143h16q543 142 565 236l-47 15q-211 0 -534 -235v-16z " />
<glyph unicode="e" horiz-adv-x="1064" d="M-475 87v2q0 8 98 49q83 -32 162 -32q119 0 360 65q65 39 100 94q167 179 260 214q166 97 324 97h29q119 -6 130 -23q-48 -144 -273 -263q-210 -90 -308 -152q174 -29 354 -29l395 6v-3q-92 -97 -350 -97q-202 0 -509 68l-84 6q-58 0 -337 -45q-25 -6 -120 -10 q-127 0 -231 53zM306 212h4q177 27 298 95q113 61 279 197h-3q-67 0 -318 -80q-199 -91 -260 -212z" />
<glyph unicode="f" horiz-adv-x="670" d="M-1031 -1097q36 144 119 204q57 46 100 59l4 -11q0 -67 -100 -141q-22 -33 -22 -56v-11q96 0 330 89q190 75 612 423q208 144 360 294q152 161 152 204v33q-8 115 -37 115q-26 -12 -26 -30l18 -52v-7q-9 -16 -26 -22q-19 4 -70 48l-15 3h-18q-32 0 -445 -330 q-488 -418 -702 -541h-7q188 209 367 360q345 278 694 511q-33 30 -97 37h-7l-204 -26h-33q-73 0 -119 63q25 99 249 238l63 59v-3l-186 -271h26q461 0 965 438q744 567 857 567l211 45h75l7 -7q-36 -128 -137 -216q-83 -80 -323 -215q-74 -37 -201 -145l-248 -137 q-131 -103 -601 -282q0 -38 66 -52q12 -13 12 -37q-5 -96 -242 -408q-174 -193 -359 -352q-543 -461 -906 -461h-18q-132 5 -138 23zM739 368h4q303 114 631 308q252 152 612 434v8h-26q-87 0 -286 -130q-44 -25 -126 -52q-181 -107 -237 -163q-189 -163 -512 -360z" />
<glyph unicode="g" horiz-adv-x="1089" d="M-1232 -1719q0 93 216 364q101 156 384 444q317 276 560 384q98 52 252 108q179 172 320 364l92 100v4l-56 4l-280 -8q-228 0 -228 88v4q36 182 68 236q31 61 172 112q12 -22 12 -64q0 -29 -80 -84q-79 -96 -84 -132q0 -32 148 -32q0 -5 32 -8q295 372 560 372h28 q105 0 184 -48q-38 -103 -240 -320q-363 -339 -388 -400l-48 -68v-4q271 75 728 440q321 238 644 544q243 262 288 384q40 108 40 192v12q0 220 -220 288l-76 8h-36q-350 0 -760 -412l-24 -24h-4l-4 16q0 157 392 364q171 108 348 108h36q252 0 396 -136q48 -66 48 -148v-4 q0 -292 -500 -780q-559 -489 -908 -692q-160 -105 -424 -248q-194 -134 -384 -392q-252 -375 -608 -768q-186 -182 -304 -228q-82 -48 -156 -48q-136 20 -136 88v20zM-1156 -1735l60 -16q168 0 460 472q24 52 324 336q273 264 312 352l28 44q-249 -141 -552 -380 q-264 -225 -396 -400q-208 -291 -208 -344q-28 -46 -28 -64zM440 165q38 -12 92 -12q217 0 416 292q-51 12 -96 12q-166 0 -372 -252z" />
<glyph unicode="h" d="M-230 104v4q0 82 76 104q278 0 804 248q162 79 452 332q563 548 708 632q171 116 484 252q174 104 292 104h28q70 0 128 -56q-76 -257 -292 -412q-373 -256 -928 -516q-136 -103 -392 -184q-341 -116 -448 -292v-4q217 116 328 116h36q63 0 72 -20v-4q0 -111 -156 -192 q-76 -67 -76 -104v-112h-4q-60 52 -60 112q0 85 204 252v8q-86 0 -432 -176q-319 -180 -524 -180v4q139 129 312 224l116 68h-4q-105 0 -444 -156q-156 -56 -276 -56zM910 568q543 236 1152 596q243 118 436 268q132 137 152 228l4 20h-4q-223 -12 -520 -156 q-229 -92 -772 -556q-114 -107 -308 -240q-140 -113 -140 -160z" />
<glyph unicode="i" horiz-adv-x="785" d="M-110 24q37 40 296 156q158 86 404 312q136 100 220 100h20l8 -8q-55 -168 -416 -392q-81 -56 -180 -168v-4l136 -36v-8h-4l-124 -16q-58 0 -88 36v16q0 50 216 212v8q-46 -22 -260 -160q-109 -60 -184 -60q-44 4 -44 12zM394 -20h8q50 0 64 -24h-8l-64 16v8zM1126 836 q23 120 88 120h24q36 -8 36 -20q-17 -10 -48 -116q-26 -32 -48 -32h-32q-13 0 -20 48z" />
<glyph unicode="j" horiz-adv-x="455" d="M-1039 -887q0 75 177 296q89 134 296 346q316 284 616 394q65 18 65 35q136 73 306 134q193 85 750 538q251 214 381 385q118 154 118 296v10q0 179 -180 235l-61 6h-30q-285 0 -619 -336l-20 -19l-6 16q0 118 280 271q164 111 323 111h29q206 0 323 -111q39 -54 39 -121 v-3q0 -238 -407 -636q-456 -398 -740 -564q-131 -85 -346 -202q-161 -112 -312 -319q-144 -220 -395 -492q-31 -48 -195 -212q-164 -147 -281 -147q-111 16 -111 72v17zM-977 -901l49 -13q137 0 375 385q19 42 264 274q206 197 268 303l9 19q-203 -115 -450 -309 q-215 -184 -322 -326q-170 -238 -170 -280q-23 -38 -23 -53z" />
<glyph unicode="k" horiz-adv-x="1229" d="M-1122 -170q0 72 146 133q32 9 54 9h9q7 0 9 -37q0 -53 -57 -99v-3q90 -15 151 -15h42q285 0 755 262q112 60 248 124v3q-49 57 -49 136v30q0 165 151 363q52 51 97 51h9q85 0 139 -190q12 -49 12 -106v-15l-3 -36q279 105 710 465q7 1 278 266q180 163 281 163h9l3 -3h3 q-130 -304 -659 -617q-218 -135 -380 -277q-133 -131 -166 -194q108 -30 471 -30q183 -15 275 -48q118 -51 166 -133l-3 -3h-3l-532 133q-162 30 -272 30q-177 0 -281 -73q179 -84 565 -235q196 -84 360 -208q213 -173 284 -405q-69 -49 -127 -49h-18q-75 0 -142 85v3 q34 51 93 51l46 -6q-165 321 -716 529q-259 100 -354 151l-33 54q-101 -94 -172 -217q-197 -329 -374 -329h-28l-3 3h-3q39 116 257 317q223 190 272 293v6l-9 12q-173 -58 -586 -284q-347 -175 -592 -175h-45q-180 0 -272 66q-16 22 -16 34v15zM259 301q38 -16 72 -16 q138 0 194 194l6 54q0 126 -118 178q0 -22 -121 -220q-33 -81 -33 -139v-51zM395 174l3 -3h9l3 12q-15 -4 -15 -9zM537 273q6 -28 15 -30q133 112 133 136h-3q-145 -43 -145 -94v-12z" />
<glyph unicode="l" horiz-adv-x="1585" d="M-1101 -176l120 44l168 -12q632 0 1440 724q532 480 812 652q377 224 640 224h32q192 -11 192 -40q-37 -145 -140 -236q-60 -78 -492 -272q-99 -55 -192 -132q-100 0 -544 -268l-460 -224q-368 -218 -368 -544q31 -84 196 -84q214 0 788 164q552 194 552 416 q0 84 -104 200q16 8 44 8h12q100 -18 100 -140v-52q0 -160 -116 -276q-200 -135 -464 -224q-465 -156 -792 -156q-214 0 -268 104q-12 31 -12 56v36q0 92 108 296q-72 0 -604 -248q-217 -88 -384 -88q-123 0 -264 60v12zM555 416h4q283 168 916 444q309 141 604 384 q110 105 144 148v4h-4q-301 -71 -512 -160q-327 -144 -584 -336q-156 -90 -568 -484z" />
<glyph unicode="m" horiz-adv-x="2069" d="M-95 -6q195 318 792 536q20 -31 20 -80q0 -112 -188 -264v-4q72 1 488 192q157 60 276 60h40q12 -4 12 -24q0 -82 -108 -160q-28 -36 -28 -48h4q213 55 476 200q208 88 272 88v-4q0 -110 -276 -340l-48 -60v-4l80 -8q122 0 456 136l40 8v-8q-55 -107 -220 -172 q-157 -40 -264 -40h-16q-164 10 -164 68v8q0 69 236 272l12 16v4q-103 -40 -432 -196q-122 -69 -420 -140l-68 -8l-4 4q48 97 196 176q112 65 168 132h-4q-267 -23 -752 -280q-66 -24 -120 -24h-16q-56 4 -56 16q18 73 172 192q130 83 176 172h-8q-174 -15 -476 -252 q-163 -135 -248 -168v4z" />
<glyph unicode="n" d="M-182 38q41 87 197 198q132 83 174 189q12 65 39 66l75 22l4 -3q-100 -248 -173 -322h4q299 183 551 265q112 31 226 36q17 1 33 0q167 0 167 -78q0 -90 -203 -222l-55 -59q64 -36 125 -36h9l242 40q79 -1 80 -16q-106 -99 -273 -106l-38 -1q-20 -1 -38 -1 q-182 0 -219 81v4q-3 69 233 249l40 43l-1 4q-54 6 -94 6h-20l-26 -1q-192 -7 -490 -175q-303 -175 -493 -183l-68 -3l-4 4z" />
<glyph unicode="o" horiz-adv-x="1005" d="M50 35q40 115 257 286q291 219 449 227h25q69 -7 69 -59v-54l444 -84v-10q-230 29 -306 29q-256 0 -415 -182q-228 -188 -370 -188h-44q-109 8 -109 35zM178 54h5q70 0 341 178q143 128 143 198v29q-80 -64 -350 -197q-139 -93 -139 -203v-5zM1309 336v10h10v-10h-10z " />
<glyph unicode="p" horiz-adv-x="1486" d="M-947 -1338q256 249 615 648q321 375 790 851l244 228h-4q-483 -281 -715 -375l-191 -55l-4 3v4q0 191 236 378q77 50 153 83l4 -4v-4q-15 -75 -142 -180q-120 -91 -120 -150q186 102 614 289q201 80 438 292q228 220 338 300q11 0 539 532q295 246 517 288l42 8l7 -26 q0 -332 -723 -780q-208 -151 -540 -326q-382 -233 -382 -359h4q418 247 596 247h30q37 0 52 -30v-26q0 -76 -300 -394l-11 -15v-3q225 45 408 71v-8q-66 -97 -89 -97q-227 -56 -334 -56q-116 0 -116 71q0 118 251 258q68 51 94 98v4l-83 7h-30q-373 0 -1026 -700 q-220 -213 -311 -341q-580 -735 -813 -735h-38v4zM1290 801q515 381 678 510q288 258 364 382v4q-474 -153 -1042 -896z" />
<glyph unicode="q" d="M-514 87l128 81q125 -47 275 -47q280 0 816 288q227 100 335 100v-6q-142 -126 -294 -175l73 -114q202 178 309 349h26q36 0 188 -87q-20 -47 -60 -47h-34l-80 20q-266 -280 -308 -288v-14q35 -60 80 -60l107 27h7l20 -20v-20q0 -74 -87 -74q-106 0 -215 101 q-143 -101 -328 -101h-53q-41 23 -41 107v27q-380 -121 -562 -121q-171 0 -302 74zM444 107l67 -6h40q64 0 181 53l-73 127q-96 -34 -215 -160v-14z" />
<glyph unicode="r" horiz-adv-x="946" d="M-168 4v4q103 113 258 191q30 0 220 139l55 72q-16 38 -43 38h-4l-80 -30q-20 9 -21 17v5l181 46q28 0 55 -80q133 29 300 29l482 -4l72 4v-4q-59 -89 -241 -89l-207 9h-17q-319 0 -469 -127q-320 -224 -536 -224z" />
<glyph unicode="s" horiz-adv-x="1034" d="M-147 35v15q37 48 98 70l10 3l-73 138l-6 32q0 89 258 186q49 15 91 15h28q78 0 129 -63q-188 -20 -255 -34q-172 -46 -172 -164q0 -36 56 -44h25q305 28 816 384q419 312 434 312q114 66 205 66h19l3 -3h3q-62 -173 -324 -306q-206 -94 -340 -214q-139 -145 -139 -337 q-29 -91 -189 -91q-85 0 -406 60l-60 3q-103 0 -198 -57q-13 17 -13 29zM203 104h3q27 13 66 13q30 0 211 -35l22 -3q93 0 129 66q22 36 50 192v3q-3 10 -19 10q-31 0 -185 -85q-150 -45 -221 -95q-40 -38 -56 -66z" />
<glyph unicode="t" horiz-adv-x="1560" d="M-608 20v12l80 34q94 -46 199 -46q217 0 718 226l158 53v7l-23 61v22q5 8 170 75q214 117 353 204q0 6 -214 67q-94 25 -94 60l-15 19v4h4q32 0 387 -105l188 139l-22 60q71 6 71 34l-11 41h7l12 -7h11l64 15l4 -4v-71q16 0 30 18l-15 53h3l49 -11q38 14 94 49v7 q-728 259 -959 444l-19 90v34l8 8q460 -84 684 -177q182 -70 362 -173q138 -84 308 -248q48 -68 102 -68l658 -196l41 -7l15 4v3l-7 30q0 12 15 23q79 0 79 -117l-4 -3q-415 82 -775 199q0 6 -34 11l4 -11l4 -60q0 -349 -606 -534q-442 -164 -602 -211q-202 -49 -316 -49 q-139 0 -139 45v38q0 25 26 64v3q-76 0 -481 -165q-189 -64 -319 -64q-128 0 -253 71zM509 88h4q206 64 388 64q188 18 316 72q612 226 737 398q83 127 83 237q-75 99 -350 155q-159 -200 -369 -358q-11 0 -11 -7l165 -42l15 4l-7 30v12l15 15q79 0 79 -117h-4 q-44 0 -316 64q-221 -157 -526 -324q-219 -94 -219 -203zM649 321q99 79 395 230q68 45 116 90h-7q-293 -136 -440 -248q-56 -50 -64 -68v-4zM705 1552q215 -211 561 -339q260 -98 669 -199q-145 126 -353 237q-166 85 -471 188q-157 52 -406 113zM1281 1032q25 61 79 61 l15 -38v-4q-5 -37 -38 -37h-11q-24 0 -45 18z" />
<glyph unicode="u" horiz-adv-x="1020" d="M-72 35q39 34 239 166q122 99 154 233q-1 17 97 118h4q-6 -129 -175 -358q-56 -64 -56 -72h4q156 18 464 292q111 87 139 92v-6q0 -96 -186 -233q-61 -63 -59 -99l1 -8q4 -75 245 -78q249 14 422 241q71 110 71 221q0 10 -1 20l-6 39l4 1q68 -62 72 -140q0 -6 1 -12 q0 -197 -374 -387q-157 -69 -292 -77q-15 -1 -30 -1q-195 0 -204 163h-4q-322 -131 -413 -137h-4q-10 -1 -19 -1q-60 0 -94 23z" />
<glyph unicode="v" horiz-adv-x="1108" d="M-198 400q115 100 296 100h40q264 -15 264 -104v-4q-10 -73 -264 -248l-40 -44q71 -12 120 -12h40q212 0 648 228q233 108 396 108h76v-8q-301 -113 -624 -284q-292 -140 -548 -140q-208 0 -208 88q0 94 224 228l60 60q-61 40 -124 40h-24l-244 -28h-8q-80 6 -80 20z" />
<glyph unicode="w" horiz-adv-x="1937" d="M-242 283q23 86 216 180q136 52 252 52q196 -18 196 -84v-4q0 -73 -236 -272l-16 -20v-4l508 232q269 108 380 108l36 4v-4q-49 -101 -252 -208q-72 -50 -112 -96h4q81 0 576 236q177 72 296 72q72 -8 72 -20q-2 -76 -272 -268q-57 -61 -72 -96h8q182 16 484 260 q207 160 240 160q-23 -53 -144 -176q-241 -213 -548 -324q-88 -40 -104 -40q-16 36 -16 76q0 112 188 272q-187 -46 -448 -176q-186 -76 -300 -76h-60l-8 8v20q0 73 108 156l28 48h-4q-213 -56 -472 -196q-223 -96 -276 -96l-4 4q9 88 136 216q147 124 192 188v4l-80 8 q-122 0 -456 -136z" />
<glyph unicode="x" horiz-adv-x="1005" d="M0 46v9q0 81 114 120q10 5 29 5h23q37 0 80 -34h4q217 148 446 341q-58 39 -116 39h-9q-66 0 -230 -80q-72 -32 -123 -32h-25l-52 7v4q50 0 289 121q96 36 150 36h18q96 0 160 -93q103 73 193 73q53 0 91 -25v-9q0 -84 -118 -123l-34 -5q-51 0 -94 37h-2 q-234 -159 -448 -341q60 -39 109 -39h14q75 0 250 89q68 22 109 22h21l52 -6v-5q-48 0 -289 -121q-94 -36 -150 -36h-18q-94 0 -162 93q-96 -73 -193 -73q-52 0 -89 26zM61 68q6 -11 23 -11h2l-2 2v7q0 11 27 34v18h-9q-27 0 -41 -36v-14zM931 464l9 -2q41 14 41 41v11 q0 7 -21 12h-4l2 -3v-7q0 -12 -27 -34v-18z" />
<glyph unicode="y" horiz-adv-x="867" d="M-1386 -771q0 119 240 232q524 375 964 444q479 62 576 116q55 18 100 60l-60 12h-24q-28 0 -252 -60h-20q-84 16 -84 60q0 77 192 176l132 152l64 68l8 -52q0 -145 -208 -248l-48 -36h8q290 0 744 192h4q0 -83 -256 -240l-68 -72v-8q76 -12 76 -48v-4l-4 -4v-4l-48 4 q-149 0 -384 -164q-259 -234 -476 -348q-181 -102 -488 -196q-224 -39 -224 -56q-134 -56 -276 -56h-52q-136 0 -136 48v32zM-1318 -751q30 -68 96 -68q49 0 284 92q21 0 556 264q372 187 592 324l60 20v4h-20q-451 0 -1060 -276q-194 -95 -396 -252q-112 -94 -112 -108z M518 -107q14 32 44 32q39 0 168 -56v-4q-12 -32 -48 -32q-34 0 -164 56v4z" />
<glyph unicode="z" horiz-adv-x="675" d="M-103 22q87 125 208 125h94q76 0 323 344l52 167l-104 10q-107 0 -323 -188q-57 0 -83 42q252 219 437 219h73l42 -42v-62q0 -237 -313 -511q63 -52 167 -52h73l10 -10h11q-15 -52 -73 -52h-31q-80 0 -209 52l-260 -94q-88 26 -94 52zM12 43h20q79 0 115 52l-10 10h-11 q-55 0 -114 -62z" />
<glyph unicode="{" horiz-adv-x="684" />
<glyph unicode="|" horiz-adv-x="532" />
<glyph unicode="}" horiz-adv-x="684" />
<glyph unicode="~" horiz-adv-x="1196" />
<glyph unicode="&#xa1;" horiz-adv-x="682" />
<glyph unicode="&#xa2;" />
<glyph unicode="&#xa3;" />
<glyph unicode="&#xa4;" />
<glyph unicode="&#xa5;" />
<glyph unicode="&#xa6;" horiz-adv-x="532" />
<glyph unicode="&#xa7;" />
<glyph unicode="&#xa8;" horiz-adv-x="682" />
<glyph unicode="&#xa9;" horiz-adv-x="1509" />
<glyph unicode="&#xaa;" horiz-adv-x="758" />
<glyph unicode="&#xab;" />
<glyph unicode="&#xac;" horiz-adv-x="1196" />
<glyph unicode="&#xad;" horiz-adv-x="682" />
<glyph unicode="&#xae;" horiz-adv-x="1509" />
<glyph unicode="&#xaf;" horiz-adv-x="1131" />
<glyph unicode="&#xb0;" horiz-adv-x="819" />
<glyph unicode="&#xb1;" horiz-adv-x="1124" />
<glyph unicode="&#xb2;" horiz-adv-x="682" />
<glyph unicode="&#xb3;" horiz-adv-x="682" />
<glyph unicode="&#xb4;" horiz-adv-x="682" />
<glyph unicode="&#xb5;" horiz-adv-x="1180" />
<glyph unicode="&#xb6;" horiz-adv-x="1100" />
<glyph unicode="&#xb7;" horiz-adv-x="569" />
<glyph unicode="&#xb8;" horiz-adv-x="682" />
<glyph unicode="&#xb9;" horiz-adv-x="682" />
<glyph unicode="&#xba;" horiz-adv-x="748" />
<glyph unicode="&#xbb;" />
<glyph unicode="&#xbc;" horiz-adv-x="1708" />
<glyph unicode="&#xbd;" horiz-adv-x="1708" />
<glyph unicode="&#xbe;" horiz-adv-x="1708" />
<glyph unicode="&#xbf;" horiz-adv-x="1251" />
<glyph unicode="&#xc0;" horiz-adv-x="1366" />
<glyph unicode="&#xc1;" horiz-adv-x="1366" />
<glyph unicode="&#xc2;" horiz-adv-x="1366" />
<glyph unicode="&#xc3;" horiz-adv-x="1366" />
<glyph unicode="&#xc4;" horiz-adv-x="1366" />
<glyph unicode="&#xc5;" horiz-adv-x="1366" />
<glyph unicode="&#xc6;" horiz-adv-x="2048" />
<glyph unicode="&#xc7;" horiz-adv-x="1479" />
<glyph unicode="&#xc8;" horiz-adv-x="1366" />
<glyph unicode="&#xc9;" horiz-adv-x="1366" />
<glyph unicode="&#xca;" horiz-adv-x="1366" />
<glyph unicode="&#xcb;" horiz-adv-x="1366" />
<glyph unicode="&#xcc;" horiz-adv-x="569" />
<glyph unicode="&#xcd;" horiz-adv-x="569" />
<glyph unicode="&#xce;" horiz-adv-x="569" />
<glyph unicode="&#xcf;" horiz-adv-x="569" />
<glyph unicode="&#xd0;" horiz-adv-x="1479" />
<glyph unicode="&#xd1;" horiz-adv-x="1479" />
<glyph unicode="&#xd2;" horiz-adv-x="1593" />
<glyph unicode="&#xd3;" horiz-adv-x="1593" />
<glyph unicode="&#xd4;" horiz-adv-x="1593" />
<glyph unicode="&#xd5;" horiz-adv-x="1593" />
<glyph unicode="&#xd6;" horiz-adv-x="1593" />
<glyph unicode="&#xd7;" horiz-adv-x="1196" />
<glyph unicode="&#xd8;" horiz-adv-x="1593" />
<glyph unicode="&#xd9;" horiz-adv-x="1479" />
<glyph unicode="&#xda;" horiz-adv-x="1479" />
<glyph unicode="&#xdb;" horiz-adv-x="1479" />
<glyph unicode="&#xdc;" horiz-adv-x="1479" />
<glyph unicode="&#xdd;" horiz-adv-x="1366" />
<glyph unicode="&#xde;" horiz-adv-x="1366" />
<glyph unicode="&#xdf;" horiz-adv-x="1251" />
<glyph unicode="&#xe0;" />
<glyph unicode="&#xe1;" />
<glyph unicode="&#xe2;" />
<glyph unicode="&#xe3;" />
<glyph unicode="&#xe4;" />
<glyph unicode="&#xe5;" />
<glyph unicode="&#xe6;" horiz-adv-x="1821" />
<glyph unicode="&#xe7;" horiz-adv-x="1024" />
<glyph unicode="&#xe8;" />
<glyph unicode="&#xe9;" />
<glyph unicode="&#xea;" />
<glyph unicode="&#xeb;" />
<glyph unicode="&#xec;" horiz-adv-x="569" />
<glyph unicode="&#xed;" horiz-adv-x="569" />
<glyph unicode="&#xee;" horiz-adv-x="569" />
<glyph unicode="&#xef;" horiz-adv-x="569" />
<glyph unicode="&#xf0;" />
<glyph unicode="&#xf1;" />
<glyph unicode="&#xf2;" />
<glyph unicode="&#xf3;" />
<glyph unicode="&#xf4;" />
<glyph unicode="&#xf5;" />
<glyph unicode="&#xf6;" />
<glyph unicode="&#xf7;" horiz-adv-x="1124" />
<glyph unicode="&#xf8;" horiz-adv-x="1251" />
<glyph unicode="&#xf9;" />
<glyph unicode="&#xfa;" />
<glyph unicode="&#xfb;" />
<glyph unicode="&#xfc;" />
<glyph unicode="&#xfd;" horiz-adv-x="1024" />
<glyph unicode="&#xfe;" />
<glyph unicode="&#xff;" horiz-adv-x="1024" />
<glyph unicode="&#x152;" horiz-adv-x="2048" />
<glyph unicode="&#x153;" horiz-adv-x="1933" />
<glyph unicode="&#x178;" horiz-adv-x="1366" />
<glyph unicode="&#x2c6;" horiz-adv-x="682" />
<glyph unicode="&#x2dc;" horiz-adv-x="682" />
<glyph unicode="&#x2000;" horiz-adv-x="915" />
<glyph unicode="&#x2001;" horiz-adv-x="1831" />
<glyph unicode="&#x2002;" horiz-adv-x="915" />
<glyph unicode="&#x2003;" horiz-adv-x="1831" />
<glyph unicode="&#x2004;" horiz-adv-x="610" />
<glyph unicode="&#x2005;" horiz-adv-x="457" />
<glyph unicode="&#x2006;" horiz-adv-x="305" />
<glyph unicode="&#x2007;" horiz-adv-x="305" />
<glyph unicode="&#x2008;" horiz-adv-x="228" />
<glyph unicode="&#x2009;" horiz-adv-x="366" />
<glyph unicode="&#x200a;" horiz-adv-x="101" />
<glyph unicode="&#x2010;" horiz-adv-x="682" />
<glyph unicode="&#x2011;" horiz-adv-x="682" />
<glyph unicode="&#x2012;" horiz-adv-x="682" />
<glyph unicode="&#x2013;" />
<glyph unicode="&#x2014;" horiz-adv-x="2048" />
<glyph unicode="&#x2018;" horiz-adv-x="455" />
<glyph unicode="&#x2019;" horiz-adv-x="455" />
<glyph unicode="&#x201a;" horiz-adv-x="455" />
<glyph unicode="&#x201c;" horiz-adv-x="682" />
<glyph unicode="&#x201d;" horiz-adv-x="682" />
<glyph unicode="&#x201e;" horiz-adv-x="682" />
<glyph unicode="&#x2022;" horiz-adv-x="717" />
<glyph unicode="&#x2026;" horiz-adv-x="2048" />
<glyph unicode="&#x202f;" horiz-adv-x="366" />
<glyph unicode="&#x2039;" horiz-adv-x="682" />
<glyph unicode="&#x203a;" horiz-adv-x="682" />
<glyph unicode="&#x205f;" horiz-adv-x="457" />
<glyph unicode="&#x20ac;" />
<glyph unicode="&#x2122;" horiz-adv-x="2048" />
<glyph unicode="&#x25fc;" horiz-adv-x="580" d="M0 0v580h580v-580h-580z" />
</font>
</defs>
</svg>
