<?xml version="1.0" standalone="no"?>
<!DOCTYPE svg PUBLIC "-//W3C//DTD SVG 1.1//EN" "http://www.w3.org/Graphics/SVG/1.1/DTD/svg11.dtd" >
<svg xmlns="http://www.w3.org/2000/svg">
<metadata></metadata>
<defs>
<font id="bloodlust_3dregular" horiz-adv-x="307" >
<font-face units-per-em="2048" ascent="1638" descent="-410" />
<missing-glyph horiz-adv-x="501" />
<glyph horiz-adv-x="0" />
<glyph unicode="&#xd;" horiz-adv-x="1024" />
<glyph unicode=" "  horiz-adv-x="501" />
<glyph unicode="&#x09;" horiz-adv-x="501" />
<glyph unicode="&#xa0;" horiz-adv-x="501" />
<glyph unicode="!" horiz-adv-x="311" d="M29 199q16 -25 21 -46.5t9 -39.5q4 -29 11.5 -51.5t31.5 -28.5l25 -23q12 -12 33 -12l123 10v37q2 23 4 26t8 11q4 4 9 12t13 21l5 10v256l-35 35v12h-258v-229zM29 631q27 -27 52 -59.5t34 -73.5h12l35 -35h26q31 0 39.5 19.5t12.5 45.5q2 12 5 25.5t11 24t23.5 18.5 t42.5 10v645l-35 35v12h-258v-667zM55 207v194h205v-235q-12 -18 -19.5 -26.5t-10.5 -13.5t-5 -12.5t-4 -25.5v-10v-10l-102 -9q-18 0 -23.5 14.5t-8.5 36t-8 47t-24 50.5zM55 641v631h205v-606q-43 -4 -58.5 -27t-20.5 -48.5t-9 -46t-25 -20.5h-10q-6 31 -30.5 61.5 t-51.5 55.5z" />
<glyph unicode="&#x22;" horiz-adv-x="583" d="M33 1294l14 -153q10 -23 22.5 -32t22.5 -13l4 -2q-2 -2 -2 -9q-10 -23 -19 -50t-9 -38l71 -157h10l35 -35q31 0 49.5 10t33 37t25.5 71t27 111q23 -41 42.5 -89t25.5 -101l14 -2l33 -33l25 -4q35 0 43 30.5t12 73.5q2 23 5 46.5t11.5 44t23.5 36t40 21.5v190l-35 35v12 h-256v-22l-10 10v12h-258zM61 1268h203v-154q-16 -74 -27.5 -122t-22.5 -75.5t-25.5 -39t-34.5 -11.5l-62 138q0 6 6 22t14.5 34.5t14.5 34t6 17.5q0 8 -6 9t-14.5 2t-19.5 6.5t-19 21.5zM328 1073v195h202v-154q-43 -10 -57 -49t-19 -84t-9.5 -80t-24.5 -35l-10 2 q-6 53 -31 107.5t-51 97.5z" />
<glyph unicode="#" horiz-adv-x="980" d="M12 569h191v101q-8 -2 -17 -2q-6 0 -12 -2q-10 -2 -16 -3t-19 -1q-20 0 -33 12l-24 22q-14 4 -24.5 16.5t-17.5 39t-12 70.5t-10 110h185v356h258v-12l35 -35v-303h10l22 356h234v-12l35 -35v-309h145v-12l35 -35v-262q-10 -16 -21.5 -29.5t-29.5 -24.5h12v-12l35 -35 v-280h-99q-14 0 -26 1t-23 1h-24q-12 0 -13 -17q0 -10 2.5 -30.5t10.5 -57.5q-29 -4 -45.5 -18t-24.5 -35.5t-11 -46.5t-5 -47q-4 -43 -10.5 -73.5t-45.5 -30.5l-24 4l-33 32l-14 2q-6 29 -7 48.5t-1 37.5v31q-4 49 -8.5 102.5t-14.5 86.5h-43q-4 -10 -8 -20.5t-10 -18.5 v-62q-25 -4 -39.5 -15t-22.5 -25.5t-10 -31t-2 -30.5q-2 -33 -9 -54.5t-42 -21.5l-25 4l-33 33l-14 2q-8 41 -18.5 57.5t-22.5 26.5l-6 6q-12 12 -25.5 26.5t-23.5 30.5v117q-18 -6 -37 -6q-29 0 -51 23l-17 14q-29 8 -55 51zM43 543l27 -185q14 -23 26.5 -32t28.5 -9 q20 0 45 9.5t57 9.5h2v-180q12 -23 27.5 -36.5t29 -25.5t23.5 -28.5t15 -42.5l10 -3q20 0 22 25t5.5 55.5t16.5 59t56 37.5v51h2q4 0 8.5 8t7.5 17.5t4 17.5l1 8h18h31q12 0 24 4l45 -41q12 -23 18.5 -63.5t9.5 -84.5t4 -87t5 -70l11 -2q20 0 24 37t8 81t19.5 84t60.5 46 q-4 25 -6 42t-2 29q0 23 8 30t25 7q12 0 30.5 -1t43.5 -1h77v240h-176v156q20 4 24.5 8t8.5 4q6 0 13 -9.5t13.5 -19.5t10.5 -19.5t8 -9.5l-6 -41q49 0 72.5 15.5t35.5 40.5v237h-180v357h-182l-23 -357h-96v351h-205v-357h-182q4 -57 8 -93t10.5 -55.5t13.5 -26.5t19 -7 q16 0 38 6t54 6l39 -2v-190h-186zM264 84l1 -1t1 -3l6 -4q-4 2 -5 4t-3 4zM274 70v2v-2h2h-2zM434 549v149q20 4 24.5 8.5t8.5 4.5q6 0 13 -9.5t13.5 -19.5t10.5 -19.5t8 -9.5l-6 -41h24v-63h-96zM496 575h2l-2 3v-3zM797 575h8l-8 9v-9z" />
<glyph unicode="$" horiz-adv-x="614" d="M25 115v391h182v96q-63 10 -92 41l-23 21q-41 23 -47 69q-2 16 -6 57t-7 87.5t-5 87.5t-2 57q0 43 4 91t21.5 88t50 66.5t92.5 26.5h12v265h207v-13l34 -35v-225q43 -2 81 -3t53 -3v-14l34 -33l11 -86q4 -37 5 -64.5t1 -52.5v-31q0 -12 -2 -28q-2 -12 -3 -28.5t-1 -57.5 q-37 18 -43 18q-10 0 -20.5 -6t-16.5 -10q-31 -20 -37 -15l-12 11q-8 -8 -15.5 -14.5t-11.5 -10.5q-8 -2 -18 -2h-2v-4l8 -4l114 -70v-10l35 -35v-57q0 -31 -2 -53v-2q-2 -35 -3 -69t-1 -67q0 -47 1 -95t3 -103v-49l-31 -45h-124l2 -312q-29 -16 -38.5 -58t-15.5 -83 q-6 -47 -15 -81t-38 -34l-25 8l-30 31l-17 6q-8 61 -26.5 117.5t-36.5 99.5v50h-33l-35 34h-12q-4 27 -10 54.5t-21 50.5q-16 4 -26 4l-35 33q-4 0 -6 1t-6 1zM51 141q31 0 49.5 -13t28.5 -34.5t15.5 -46t9.5 -49.5h20v184l41 41l18 -14l3 -315q18 -43 37.5 -97.5 t23.5 -107.5l6 -2q16 0 22.5 33.5t12.5 77.5t16.5 84t34.5 52l-2 320h135l21 31q-2 70 -3 128t-1 113t2 111.5t4 124.5l-113 69q-10 4 -21.5 7.5t-23.5 7.5v78q8 -6 23 -6q2 0 6 1l4 1q6 4 21.5 19t19.5 22q4 0 12 -8.5t8 -12.5t7.5 2t18.5 12.5t25.5 9.5t30.5 -6q2 37 4 63 t2 50q0 25 -1 51.5t-5 63.5l-8 69q-20 2 -68.5 4.5t-101.5 4.5v268h-154v-264h-16h-22q-49 0 -78 -23.5t-42.5 -60.5t-17.5 -80t-4 -82q0 -16 2 -57t5 -86t7.5 -86t6.5 -58q4 -43 53 -57t108 -19v-180h-182v-338zM186 885q0 31 12.5 47t34.5 24v-102q-14 2 -25.5 4t-19.5 6 q0 2 -1 9.5t-1 11.5zM387 479v154q45 -20 45 -64q0 -10 -1 -24.5t-5 -29.5t-13.5 -25.5t-23.5 -10.5h-2z" />
<glyph unicode="%" horiz-adv-x="876" d="M23 1049l12 -199q2 -20 10 -34.5t18 -24.5l19 -19q14 -14 14 -22q4 -12 5 -34t1 -32v-6l15 -70q6 0 10 2l35 -35q41 10 50 31t13 43q2 4 2 17q2 0 4 -1t5 -1l18 -19q-10 -12 -18.5 -25.5t-8.5 -23.5v-2q0 -16 -3 -48t-8 -72t-11 -84t-12 -87q-2 -12 -4.5 -25.5 t-4.5 -25.5q-6 -39 -9 -68.5t-5 -46.5q0 -23 18 -55l4.5 -9t6.5 -10q2 -4 3 -7t3 -7q12 -25 25.5 -57.5t29.5 -81.5q23 -23 37 -29l10 -10q29 -29 45 -29q20 0 31.5 2t18 17.5t8.5 47.5t6 91l-6 4v59l43 -47v9l34 -35l11 319v4l6 -112q2 -20 10 -34.5t18 -25.5l17 -16 l9 -13.5t7 -19.5q2 -6 3 -19.5t3 -27.5t3 -27.5t1 -17.5l7 -14l22 -23q2 2 6 2l37 -37q29 8 38 28.5t13 43.5q0 4 1 7t1 7l27 -22q10 -10 14 -11t15 -1q25 0 48 38.5t39.5 89t27 97.5t10.5 61v19q0 6 -1 13t-1 13v29q0 14 -3.5 54t-6.5 84t-7 83t-6 55l-33 33q-2 6 -2 15 h-207q35 76 58.5 143t23.5 137q0 10 19.5 56.5t42.5 95.5q23 43 36 78.5t13 46.5v20l-35 35v12l-67 6h-199l-86 -352q-4 -6 -6 -11t-6 -11v8v28q0 14 -3.5 54.5t-6.5 84.5t-7 83t-6 55l-33 33q-2 6 -2 14h-266l-21 -41q-2 -10 -6 -32.5t-8 -49.5t-9 -50.5t-7 -31.5 q0 -4 -3 -13t-7 -13zM49 1038q4 4 7 15.5t3 15.5q2 8 7.5 31.5t9.5 50.5t8 49.5t6 32.5l10 20h226q2 -14 6 -51t7 -77t5 -76.5t2 -51.5v-12q0 -8 1 -19.5t1 -23.5v-18q0 -14 -8 -52t-22.5 -78t-33 -72t-38.5 -32q-8 0 -10 2l-31 51l-3 1q-3 1 -5 1q-16 0 -22.5 -15 t-9.5 -33.5t-8 -35t-20 -20.5l-8 43q0 10 -1 33.5t-5 36.5q-2 14 -11.5 25.5t-19.5 22.5t-19.5 23.5t-11.5 30.5zM141 1026q0 -16 2 -36.5t8.5 -39t18.5 -32t35 -13.5t35 8.5t17 22.5t6 30.5t1 32.5v15v35v8q0 18 -4 40.5t-6 22.5h-92q-6 0 -10.5 -12t-6.5 -27.5t-3 -31 t-1 -23.5zM197 137q2 27 11 91.5t19.5 136t18.5 136t8 93.5q-2 2 3 10t13.5 18.5t14.5 18.5t6 12q0 2 10 21.5t45 82t98 169.5l84 342h174l43 -4q6 0 -11 -38t-38.5 -87t-41 -94.5t-19.5 -59.5q0 -66 -24.5 -133.5t-56.5 -143t-65.5 -162.5t-52.5 -192l-8 -272l-39 43l10 41 q0 -4 -10 26.5t-24 71.5q-4 -29 -8.5 -67.5t-6.5 -75.5t-1 -63.5t5 -28.5l-2 -27q-2 -27 -9 -53.5t-20.5 -39.5t-35.5 11q-25 84 -57.5 140.5t-32.5 76.5zM203 961v24v74h35v-2v-58q0 -23 -4.5 -45t-26.5 -22q-4 14 -4 29zM520 422q4 4 7 15.5t3 15.5q2 8 7.5 31.5t9.5 50 t8 49t6 32.5l10 21h226q2 -14 6 -51t7 -77t5 -77t2 -51v-12q0 -8 1 -19.5t1 -23.5v-19q0 -14 -8 -57t-22.5 -89t-34 -83t-39.5 -37q-8 0 -10 2l-31 51l-3 1t-5 1q-16 0 -21.5 -15t-7.5 -33.5t-6 -35t-19 -20.5l-10 10q0 6 -1 20.5t-3 31t-3 30.5t-3 20q-2 14 -11.5 25.5 t-19.5 23t-19.5 23.5t-11.5 31zM610 377q0 -16 2 -37t8.5 -39t18.5 -31.5t35 -13.5t35 13.5t18 34t7 42t1 37.5v14v35v8q0 18 -4 41t-6 23h-92q-6 0 -10.5 -17.5t-7.5 -39t-4 -42t-1 -28.5zM672 311v25v22v37q0 18 1 33l1 14h35v-2v-57q0 -27 -5.5 -62.5t-27.5 -37.5 q-4 14 -4 28z" />
<glyph unicode="&#x26;" horiz-adv-x="647" d="M16 498q0 51 8.5 99t28.5 83l33 65q-18 35 -27.5 65t-9.5 48l4 367l70 69h356l35 -37v-6l4 -4l31 -33v-251q-35 -4 -55.5 -5.5t-34.5 -1.5q-27 0 -37 1t-14 6h-109q-2 -14 -3 -26.5t-1 -25.5q-2 -16 -3 -30.5t-1 -24.5v-16h2h53l186 24l93 -10l-2 -12l36 -35l-14 -240 l-86 8l19 -192l20 -25l35 -43q-2 -37 -3 -69.5t-3 -48.5q-4 -10 -10.5 -40t-8.5 -40q-4 -49 -17 -70.5t-34 -21.5q-14 0 -27 12l-24 22q-18 6 -35.5 34t-24.5 71q-20 4 -38 14q-16 -20 -36 -44.5t-24 -24.5q-14 0 -29 14l-22 22q-12 2 -29 19q-2 -29 -9 -49.5t-28 -22.5h-2 t-6 -2q-2 -4 -4 -7t-2 -5q-8 -8 -12 -11.5t-15 -3.5q-10 0 -22 13l-23 22q-18 4 -40.5 42t-42 94.5t-33 126t-13.5 137.5zM46 438.5q5 -63.5 18.5 -126t31 -107.5t34.5 -66.5t30 -7.5q2 4 8 11.5t10 9.5l4 1q4 1 6 1q12 0 15.5 23.5t3.5 49.5q0 27 -2 46.5t0 13.5 q14 10 26.5 -7.5t24.5 -42t24.5 -46t26.5 -21.5q2 0 11.5 12.5t19.5 25.5t18 26l9 12q39 -23 63.5 -22t42.5 -3q-2 -47 8 -82t23.5 -47t27 2.5t17.5 65.5q2 10 8 40.5t10 41.5q2 33 6 108l-53 66l-22 225l90 -10l10 198l-64 9l-184 -25h-55q-35 6 -48.5 25.5t-15.5 48 t3.5 64.5t5.5 73h139l6 -3t30.5 -4t73.5 5v225l-18 21h-336l-53 -54l-4 -356q0 -16 11 -46t30 -64l-41 -82q-23 -43 -29 -103.5t-1 -124zM240 549q0 31 16 49t37 -4q10 8 21.5 18.5t11.5 14.5q0 10 12 8l47 -8q-14 -25 -21.5 -54.5t-10.5 -54t-5 -41t-8 -16.5 q-57 0 -78.5 28.5t-21.5 59.5zM300 500q-1 -4 1 -8q12 -4 21 -5v2q0 2 1 4.5t1 6.5q0 2 1 3t1 5v18l-17 17q-8 -8 -8 -35q0 -4 -1 -8zM358 211l4 4z" />
<glyph unicode="'" d="M23 1294l2 -231q27 -43 51 -97.5t30 -107.5q10 -12 15.5 -15t11.5 -3l21 -21q10 -10 13 -12t11 -2h6q33 0 40 29.5t12 72.5q2 23 5 46.5t11 45t23.5 37t41.5 21.5l-2 190l-34 35v12h-258zM49 1268h205l2 -154q-43 -10 -58.5 -49t-20.5 -84t-9 -80t-25 -35q-2 0 -5 1t-5 1 q-6 53 -30.5 107.5t-51.5 97.5z" />
<glyph unicode="(" horiz-adv-x="526" d="M27 688l90 -686q0 -16 11 -48t27.5 -63.5t36 -57.5t37.5 -32l19 -18q18 -18 33 -19l24 5q2 25 3 51t3 55l21 -20q41 14 58.5 48t21.5 68l9 -9t11 -9l25 -25q14 -14 35 -20l8 395l-35 35v12l-148 31q4 53 9.5 163.5t3.5 246.5v141v61q0 33 2 66h143q16 0 28.5 42t20.5 97 t12.5 109.5t4.5 78.5l-35 35v13h-291q-33 -55 -65.5 -155.5t-60.5 -211.5t-45 -214t-17 -165zM53 690q0 41 7.5 99.5t20.5 127t30.5 140t37 137.5t41 122t41.5 91h248q0 -20 -3 -67.5t-8 -96.5t-13.5 -86t-20.5 -37h-162q-2 -37 -3 -73.5t-1 -73.5v-142q0 -98 2 -184 t3 -149.5t3 -99.5l3 -36l159 -34l-8 -351q-12 4 -19.5 19.5t-11.5 34t-5 35t-1 20.5h-41v-2v-8v-8q0 -14 -1 -37t-5 -44.5t-15.5 -40t-29.5 -24.5q-6 12 -10 37t-7 47.5t-6.5 39.5t-5.5 17q-4 0 -8 -23.5t-7 -59t-6 -76.5t-5 -76l-10 -2q-14 0 -31 22.5t-30 52t-22.5 59.5 t-9.5 44z" />
<glyph unicode=")" horiz-adv-x="526" d="M27 1434h290q4 -6 6.5 -11.5t6.5 -11.5l24 -25q33 -55 66 -154t59.5 -208t44 -212t17.5 -165l-90 -686q0 -16 -12.5 -49t-30 -65.5t-37 -57.5t-37.5 -25l-27 5l-33 32l-14 2q0 4 -1 12.5t-1 12.5q-2 10 -2 20t-2 21q-4 2 -12 10l-17 17q-33 18 -53 53q-16 -29 -49 -41 l-37 37q-4 -2 -6 -2l-4 -2l-8 409l186 39q-2 14 -5 50t-5 87.5t-4 116t-2 135.5v195q0 18 -1 40.5t-1 45.5h-97q-6 0 -10 4l-31 31q-18 0 -31.5 44t-22.5 101t-13 113.5t-4 81.5zM53 1407q0 -20 3 -67.5t8.5 -96.5t13.5 -86t20 -37h162q2 -37 3 -73.5t1 -73.5v-142 q0 -98 -2 -184t-3 -149.5t-3 -99.5l-2 -36l-160 -34l8 -351q12 4 19.5 19.5t11.5 34t5 35t1 20.5h41v-2v-8v-8q0 -14 1 -37t5 -44.5t15.5 -40t29.5 -24.5q6 12 10.5 37t7.5 47.5t5 39.5t6 17t8 -23.5t7.5 -59t6.5 -76.5t5 -76l10 -2q14 0 30.5 22.5t30 52t22.5 59.5t9 44 l90 686q0 41 -7 99.5t-20.5 127t-31 140t-36.5 137.5t-40.5 122t-42.5 91h-248z" />
<glyph unicode="*" horiz-adv-x="505" d="M-14 1024l112 121v2l-5 5t-3 7l-18 19q-12 10 -21.5 24.5t-9.5 36.5q0 6 1 17.5t7 29.5l135 139l23 -30l18 -19l39 -55l103 109l26 -35l15 -15l112 -149l-104 -111l73 -100l-167 -156l-37 37l-6 -6l-31 45l-66 -68l-14 15q-16 12 -25 20l-2 -2l-26 27q-10 10 -21.5 20.5 t-19.5 20.5q-8 4 -16.5 7t-20.5 7l-31 31q-12 4 -20 6zM35 1040q25 -8 43 -30.5t63 -67.5l64 68q4 -2 9 14t5 14l66 -102l137 127l-74 100l105 111l-88 117l-105 -111l-78 106l-110 -114q-6 -25 -5 -37t8 -21.5t17 -18.5t23 -26q2 -2 7 -12t9 -12v-2z" />
<glyph unicode="+" horiz-adv-x="692" d="M39 522l2 314h186l2 217h258v-13l35 -34l-2 -170h139v-13l35 -35l-8 -280l-106 -109q-12 0 -27 15l-23 20l-12 6v-121q-27 -6 -42 -21t-23.5 -36.5t-11.5 -45t-5 -46.5q-4 -43 -11 -72.5t-40 -29.5h-6q-8 0 -11 2t-14 12l-20 20q-6 0 -11.5 3.5t-15.5 15.5 q-6 53 -30.5 107.5t-51.5 97.5v151q-10 -4 -18 -9t-14 -9q-12 -8 -21.5 -14.5t-26.5 -6.5q-20 0 -36 17l-21 20q-29 6 -49 47zM66 532q16 -29 30.5 -30.5t29.5 7.5t34.5 21.5t48.5 12.5q4 0 20.5 -1t20.5 -1l2 -2v-203q27 -43 51.5 -97.5t30.5 -107.5q2 0 5 -1t5 -1 q20 0 24.5 35t9.5 80t20.5 84t58.5 49v129l15 6l5 2q8 8 15.5 1t14.5 -19.5t13 -23.5t10 -11l95 96l8 252h-174l2 217h-205l-2 -217h-186z" />
<glyph unicode="," d="M27 387l2 -231q27 -43 51 -97.5t31 -107.5q18 -18 26 -19l21 -20q10 -10 13 -12t11 -2h6q33 0 40.5 29.5t11.5 72.5q2 23 5 46.5t11 45t23.5 36.5t42.5 22l-3 190l-34 35v12h-258zM53 360h205l2 -153q-43 -10 -58.5 -49t-20.5 -84t-9 -80t-25 -35q-2 0 -5 1t-5 1 q-6 53 -30.5 107.5t-51.5 97.5z" />
<glyph unicode="-" horiz-adv-x="692" d="M41 426q14 -31 37 -39l24 -22q12 -12 27 -13q23 0 35 18.5t26.5 43t28.5 46t31 21.5q2 0 8 -1t12 -1h17l106 -51q4 0 41 6t68 15l-4 -91h12l35 -34q70 0 100.5 8t48.5 43v413l-35 35v13h-618v-410zM68 432v377h565v-389q-12 -25 -35 -30t-72 -5l4 76q-4 0 -10 11 t-13 23.5t-14.5 19.5t-15.5 -1q-2 -2 -20.5 -6t-40 -8t-40 -7.5t-20.5 -3.5l-106 52q-4 0 -20.5 1t-20.5 1q-27 0 -46.5 -28t-34.5 -55.5t-29.5 -42t-30.5 14.5z" />
<glyph unicode="." d="M29 199v229h258v-12l35 -35v-260q-8 -12 -15.5 -23.5t-11.5 -15.5q-6 -8 -8 -11t-4 -24v-39l-123 -10q-20 0 -33 12l-25 23q-25 6 -32 28.5t-11 51.5q-4 18 -9 39.5t-21 46.5zM55 207q18 -25 23.5 -50.5t8.5 -47t8 -36t24 -14.5l102 9v10v10q2 18 4 25.5t5 12.5t10.5 13 t19.5 27v235h-205v-194z" />
<glyph unicode="/" horiz-adv-x="669" d="M45 137q2 16 5 46t9 69q2 12 4.5 25.5t4.5 25.5q6 43 12 87t11 84t8 72t3 48v2q0 10 8.5 23.5t18.5 25.5q6 6 12 14l-2 -2q12 29 20.5 48.5t24 46t40 69.5t71.5 121l86 352h199l67 -6v-12l35 -35v-20q0 -10 -13.5 -46t-35.5 -79q-23 -49 -42.5 -95.5t-19.5 -56.5 q0 -72 -25.5 -142.5t-60.5 -148.5q-33 -74 -63.5 -156.5t-48.5 -187.5l-11 -319l-34 35v-9l-43 47v-59l6 -4q-4 -59 -6 -91t-8.5 -47.5t-17.5 -17.5t-32 -2q-16 0 -45 29l-10 10q-14 6 -37 29q-16 49 -29.5 82t-25.5 57q-2 4 -3 7t-3 7q-4 4 -6 9.5t-5 9.5q-18 33 -18 55z M72 137q0 -20 32.5 -76.5t57.5 -140.5q23 -25 36 -11.5t20 40t9 53.5l2 27q-4 2 -5 28.5t1 63.5t6.5 76t8.5 67q14 -41 24 -71.5t10 -26.5l-10 -41l39 -43l8 272q18 104 52 191.5t66 163t56.5 143.5t24.5 133q0 14 19.5 59.5t41 94.5t39 87t11.5 38l-43 4h-175l-84 -342 q-63 -106 -98 -169t-45 -82.5t-10 -21.5q0 -4 -6 -12t-14.5 -18.5t-13.5 -18.5t-3 -10q0 -29 -8 -93.5t-18.5 -136t-19.5 -136t-11 -91.5z" />
<glyph unicode="0" horiz-adv-x="706" d="M29 502q0 -10 1 -21.5t1 -21.5v-60q18 -41 26.5 -80.5t14.5 -78.5q6 -45 17 -96.5t52 -135.5l4 12l37 -36q2 10 8.5 34.5t11.5 52t10 54.5t7 43q14 -16 37 -31l6 -4q8 -8 18.5 -15t22.5 -18v15q16 -35 45 -43l19 -19q20 -20 49 -20q20 0 35 8v-72h12l35 -35h67v39 q0 6 -1 13.5t-1 15.5l8 -4t9 -4l24 -25q14 -14 37 -16q4 8 12.5 53t16.5 109.5t16 140.5t14.5 143.5t10.5 119.5t4 69q0 147 -17.5 288.5t-40.5 284.5q-2 10 -4 30.5t-4 31.5l-35 34v13q-80 14 -140 19t-126 5h-115q-6 0 -11 -1t-11 -1h-111q-47 -121 -59 -235.5t-12 -227.5 v-327zM55 627v55v147q0 111 11.5 221.5t52.5 215.5h26q20 0 44 1t44 1h29h86q59 0 113.5 -5.5t128.5 -17.5q23 -156 43 -308.5t20 -307.5q0 -16 -3 -66.5t-9 -116t-13 -138t-13.5 -135t-13.5 -106.5t-11 -51q-12 2 -17.5 13.5t-5.5 23.5q0 14 1 26.5t1 18.5t-3 23.5t-6 38 t-6 38t-5 23.5q-23 -6 -32 -36.5t-12 -67.5t-2 -72t1 -49h-27v143q0 4 -12 4q-16 0 -25.5 -8t-18.5 -17t-19.5 -16.5t-26.5 -7.5q-20 0 -33.5 13.5t-21 34t-11.5 42t-6 37.5q-2 0 -9 1t-11 1q-18 0 -30.5 -8t-10.5 -35q-35 25 -37 54.5t0 56t-6.5 44t-55.5 17.5 q0 -29 8.5 -54.5t8.5 -53.5v-23q0 -6 -2 -27.5t-5 -45t-7.5 -44t-6.5 -26.5q-18 39 -26.5 80t-14.5 83t-14 83t-27 82v53q0 41 -1 85t-1 83zM240 709q0 -16 1 -37t1 -39v-23q10 -27 17 -46t18.5 -32.5t28 -19.5t42.5 -6q45 0 70.5 24.5t36 60.5t12.5 77t2 73q0 41 3 87 t-3 84t-29.5 63.5t-74.5 25.5q-39 0 -64 -15t-38 -40.5t-18 -58.5t-5 -66v-88v-24zM301 631v149q0 31 4 59.5t15.5 51t32 36t53.5 13.5q8 0 14 -1t12 -1q10 -16 12 -37.5t2 -44.5v-29q0 -8 -1 -15t-1 -15t-1 -15.5t-1 -13.5v-35q0 -29 -2 -63.5t-11 -65.5t-27.5 -51.5 t-53.5 -20.5q-23 0 -35 7q-8 14 -10 32v21q0 10 -1 19.5t-1 19.5zM528 55v2l13 -12v-2z" />
<glyph unicode="1" horiz-adv-x="448" d="M29 1294l4 -374h12l35 -35q41 0 52 7t24 17l6 6q0 -59 3 -133.5t7 -150.5q2 -59 4 -116.5t4 -107t3 -86t1 -57.5v-33q0 -27 8.5 -55.5t38.5 -42.5l25 -22q12 -18 41 -19v-115q4 0 5 1.5t5 1.5l37 -37q31 0 50.5 20.5t29.5 53t13 73.5t5 80q2 37 4.5 68.5t8.5 48.5l2 960 l-35 35v12h-393zM55 1268h340l-2 -940q-8 -25 -10 -78t-6 -108.5t-15.5 -96.5t-37.5 -41v219q0 2 -12.5 9.5t-18.5 11.5l-4 1t-6 1q-12 0 -19.5 -12.5t-10.5 -28t-4 -30.5t-1 -21q-18 0 -25.5 14t-10.5 33.5t-2 38t1 24.5q0 27 -2 84.5t-4 130t-5 153.5t-5 153.5t-4.5 130 t-2.5 83.5q-4 0 -20 2.5t-21 -0.5q-20 -12 -31.5 -21t-19.5 -17.5t-16 -12.5t-21 -4z" />
<glyph unicode="2" horiz-adv-x="614" d="M27 1040q0 -12 2 -28q2 -12 3 -30.5t1 -66.5q4 2 4 3q2 0 6 2l37 -35q37 18 43 18q10 0 19.5 -6t15.5 -10h2q4 -4 15 -7t28 -3v14l18 -21l-4 4q2 -2 2 -4q-27 -4 -43 -14l-125 -78v-61q0 -33 2 -55q2 -35 3 -69t1 -67q0 -41 -1 -83t-3 -89v-78l35 -49h8l35 -34h166 q0 -12 2 -17q2 -12 6 -43t7 -66.5t5 -68.5t2 -47h13l35 -35h71v51l31 -30h59q4 25 9.5 49t15.5 45.5t29.5 35t50.5 13.5v379l-35 35v12h-233v22q0 39 31.5 50.5t72.5 17.5q25 2 48.5 7t44 14.5t33.5 27t17 47.5q2 16 6.5 57.5t7.5 87.5t5 87t2 57q0 59 -9.5 122.5 t-50.5 104.5l-8 6q-16 35 -49 57.5t-86 22.5h-22q-20 0 -71.5 -1t-110 -3t-111 -5t-72.5 -5l-10 -92q-4 -37 -5 -64.5t-1 -52.5v-31zM53 1071q0 25 1 51.5t5 63.5l9 69q18 2 66 4.5t102.5 4.5t102.5 3t69 1h22q49 0 78 -23.5t42 -60.5t17 -80t4 -82q0 -16 -2 -57t-5 -86 t-7 -86t-6 -58q-4 -33 -23.5 -47t-47 -21.5t-59.5 -10.5t-57.5 -10t-43 -24.5t-17.5 -52.5q0 -10 1 -24.5t5 -29.5t12.5 -25.5t24.5 -10.5h225v-338q-31 0 -49 -13t-28.5 -34.5t-15.5 -46t-9 -49.5h-20v184l-41 41l-31 -20v-226h-31q0 12 -2 41t-5 62t-7 61.5t-6 40.5 q-4 16 -11.5 44t-9.5 28h-205l-20 31q2 70 3 128t1 113t-2 111.5t-4 124.5l112 69q20 12 46 14.5t53 2.5h53q25 0 45 10q0 2 1 9t1 12q0 55 -40 69.5t-87 14.5q-12 0 -17 -7.5t-8.5 -15.5t-7.5 -15t-16 -7q-2 0 -6 1l-4 1q-6 4 -21.5 19t-19.5 22q-4 0 -12.5 -8.5 t-8.5 -12.5t-7 2t-18.5 12.5t-26.5 9.5t-30 -6q-2 37 -4 63t-2 50zM211 883l6 -9q-4 4 -6 9zM287 874q4 8 8 15q4 12 8 12q29 0 57 -6q0 -4 1 -8t1 -8v-2q-8 -3 -20 -3h-53h-2z" />
<glyph unicode="3" horiz-adv-x="634" d="M12 346l41 156h45q2 -6 33 -9.5t69 -4.5t70.5 -2t38.5 -1q35 0 49.5 13.5t18.5 29.5q-16 12 -25 27l-4 4l-2 -2q-12 8 -20 16l-168 2l-35 35h-10l-39 125l2 131l211 -26h53q23 4 31 21.5t8 41.5q0 10 -1 23.5t-3 27.5q0 2 -1 3t-1 6h-74q-18 -2 -30.5 -3.5t-24 -2.5 t-25.5 -1h-39q-23 0 -49.5 1t-60.5 6l-33 32q-8 0 -14 2v260l34 37h455l70 -69v-8l34 -35l5 -365q0 -41 -39 -112l34 -68l2 -2q16 -31 23.5 -68t7.5 -75q0 -55 -13 -107.5t-33.5 -94.5t-44 -67.5t-42.5 -25.5q-10 0 -17 5t-14 11l-14 14q-8 -4 -11 -17t-7 -24 q-4 -12 -10.5 -30.5t-8.5 -22.5q-6 4 -10 6t-8 6q-4 -16 -15.5 -26t-31.5 -10l-2 1t-5 3l-30 30h-6q-4 0 -11 7l-28 -93q-6 -6 -15 -11l-10 -5q-8 0 -16 8l-15 14q-2 -55 -14 -79.5t-31 -24.5q-10 0 -22 12l-23 23q-29 4 -51 52t-29 112q-2 10 -8 37.5t-10 40.5 q-2 14 -3 39.5t-3 56.5zM45 360l18 -10q4 -76 7 -108q4 -10 10 -41t8 -41q4 -51 20.5 -92t33 -46.5t25.5 37.5t-3 162q8 2 17 -19.5t16.5 -46t14.5 -42t13 -7.5l45 140l8 -12q9 -13 19 -26t19.5 -25.5t11.5 -12.5q14 0 19 9t9 18.5t9.5 13.5t19.5 -6q2 6 5 20.5t8 28.5 t13.5 24.5t20.5 10.5q2 0 6 -1l4 -1q4 -2 10.5 -9.5t8.5 -11.5q12 -14 30.5 -2t37 42t34 74t22.5 93t2 99.5t-28 93.5l-41 82q18 35 29.5 64.5t11.5 45.5l-4 356l-53 54h-434l-19 -21v-225q49 -6 99.5 -5t78 4t31.5 3h139q0 -37 4.5 -73t3 -64.5t-14.5 -48t-48 -25.5h-55 l-185 25l-2 -95l33 -106l164 -2q12 0 12 -8q0 -4 11.5 -14.5t21.5 -18.5q20 23 38.5 4.5t22 -49.5t-16 -60.5t-77.5 -29.5q-6 0 -43 1t-79 4t-75.5 7t-35.5 12z" />
<glyph unicode="4" horiz-adv-x="669" d="M27 1018l20 43v49q0 10 1 19.5t1 19.5t-1 19.5t-1 19.5v63l37 37h201v-12l34 -35v-424h76v471h199l37 -37v-8l35 -35v-32q0 -27 2 -60q2 -57 4 -124.5t2 -102.5v-70q0 -41 -1 -88t-2 -97t-1 -93q0 -47 -1 -81t-1 -44q-2 -47 -9.5 -116t-16.5 -134.5t-18.5 -111.5 t-17.5 -46h-55q-6 -29 -27 -28q-12 0 -24 12l-4 4q-2 -4 -7.5 -30.5t-15.5 -104.5l-37 37v-9q-25 25 -40 49.5t-15 47.5q0 18 2 36.5t6 38.5l6 33q6 31 10.5 60.5t4.5 52.5q0 14 -4 31q-6 2 -7 10v2q-8 8 -12 22q8 45 10 78t2 60q0 45 -1 66.5t-9 51.5l-295 21l-35 33l-12 2 v381q-8 12 -14 28.5t-6 24.5zM53 1012q0 -6 8.5 -21.5t12.5 -19.5v-363l346 -22q0 -18 -8 -21l7 -43q7 -43 7 -112q0 -31 -2 -65t-8 -71q4 -4 6 -9t6 -9q8 -14 8 -49q0 -51 -14 -114.5t-14 -106.5q0 -31 10 -41q10 70 20.5 91t18.5 21t15 -8t11 -8t7.5 17.5t7.5 70.5 q2 0 6 -1l4 -1l20 -21l4 -1q5 -1 7 -1h4l-8 -34h30q4 0 10.5 44t12.5 106.5t11 129t7 109.5q0 12 1 71.5t2 134t2 149.5t1 116q0 27 -1 76t-3 98t-3 89t-1 48l-20 21h-162v-471h-164v471h-164l-20 -21q0 -10 1 -36.5t1 -55.5t-1 -57.5t-1 -38.5zM541 104v2l2 3v-5h-2z" />
<glyph unicode="5" horiz-adv-x="626" d="M20 1294h265h80t88 -1t78.5 -3t54.5 -4v-14l35 -33l4 -94q0 -10 1 -18.5t1 -16.5q2 -23 2 -43v-37v-35q0 -18 -2 -41q0 -10 -1 -34.5t-1 -34.5q-37 18 -43 18q-10 0 -20.5 -6t-16.5 -10q-31 -20 -37 -15l-12 11q-8 -8 -15.5 -14.5t-11.5 -10.5q-8 -2 -18 -2h-7l9 -8 l32 -43l4 -2l115 -144q10 -45 13.5 -79.5t3.5 -69.5q0 -29 -2.5 -52.5t-6.5 -47.5q-4 -29 -6 -60t-2 -69v-43l-31 -45h-215q2 0 3 -20.5t-3 -35.5q-2 -12 -6 -43t-7 -65.5t-5 -66.5t-2 -46h-72l-30 31v-10h-60l-35 34h-12q-4 27 -10 54.5t-21 50.5q-16 4 -26 4l-35 33 q-4 0 -6 1t-6 1v391h251q10 0 13.5 25.5t3.5 37.5q0 4 -1 8.5t-1 8.5q-14 4 -27.5 5t-27.5 5q-35 4 -65 11t-52 28l-17 16q-23 10 -38 28.5t-19 53.5q-2 16 -6 57t-7 87.5t-5 87.5t-2 57zM47 1268l4 -246q0 -16 2 -57t5 -86t7.5 -86t6.5 -58q4 -33 23.5 -47t47 -21.5 t59 -10.5t57.5 -10t43 -24.5t17 -52.5q0 -10 -1 -24.5t-5 -29.5t-13 -25.5t-24 -10.5h-225v-338q31 0 49.5 -13t28.5 -34.5t15.5 -46t9.5 -49.5h20v184l41 41l31 -20v-226h30q0 12 2.5 41t5.5 62t7 61.5t6 40.5l11 44t9 28h205l21 31q-2 70 3 114.5t9 85.5t3 88.5t-15 118.5 l-111 139q-14 18 -39.5 21.5t-54.5 1.5t-56.5 -4t-45.5 8q0 2 -1.5 9t-1.5 12q0 55 40 69.5t87 14.5q12 0 17.5 -7.5t8.5 -15.5t7 -15t17 -7q2 0 6 1l4 1q6 4 21.5 19t19.5 22q4 0 12 -8.5t8 -12.5t7.5 2t18.5 12.5t25.5 9.5t30.5 -6q2 37 3 63t1 50q0 25 -1 51.5t-3 63.5 l-4 76q-14 2 -46 3t-71 2t-82 1h-75h-70h-168zM309 877q2 0 4 1t6 1q10 2 23 2h25q25 0 47 -7l-19 17q-10 2 -18 10q-47 -4 -68 -24z" />
<glyph unicode="6" horiz-adv-x="643" d="M16 686q0 39 5.5 99.5t12.5 128t17 135t20.5 123t19.5 89t15 33.5h431v-12l34 -35l-2 -293q6 -10 6 -16q0 -12 -13 -20.5t-32.5 -12.5t-42 -6t-41.5 -2h-28q-16 0 -21 4h-2v2l-28 29q-10 0 -19 10q-8 6 -10 23q-12 -39 -18.5 -89.5t-8.5 -91.5q43 6 121 7q12 0 34.5 -8.5 t47.5 -23t48.5 -34.5t37.5 -45l10 -8q18 -18 29.5 -40t11.5 -46q0 -10 -2 -19v-28q0 -45 -5 -84t-9 -78q-6 -41 -10 -79t-4 -75v-10q0 -16 -1.5 -32.5t-5.5 -35t-15 -43t-30 -57.5l-37 35l-6 -12q-4 10 -5 17t-3 13q-10 -12 -22.5 -34.5t-22.5 -46t-17 -41.5l-7 -17 q-27 16 -39 29l-7 6q-41 25 -51 42t-14 40q-2 4 -2 6t-2 6q-4 12 -7 25.5t-10 25.5q-4 -16 -14 -64t-20 -98q-10 -47 -20.5 -82.5t-29.5 -54.5q-4 2 -14 13l-24 24q0 -2 -2 -2v-2q-27 14 -45.5 53t-31 88t-21.5 105.5t-17 107.5q-4 35 -9.5 62.5t-9.5 50.5q-16 86 -29.5 170 t-13.5 176zM43 686q0 -86 13.5 -170t29.5 -170q8 -41 17.5 -110.5t21.5 -138t28.5 -123t36.5 -66.5q8 8 17.5 56t22 102.5t24.5 98.5t27 44q4 0 15 -2t15 -4q20 -20 30.5 -46t17 -50.5t11.5 -44t17 -25.5l13 21q12 22 28 46.5t32.5 46t26.5 21.5q8 0 14.5 5t12.5 7t11 -7 t12 -36q18 33 20 60.5t2 62.5q0 86 16.5 172t12.5 172q8 33 -9.5 61.5t-45 49t-57.5 33t-44 12.5q-47 0 -78.5 -2t-52 -6t-33 -13.5t-20.5 -23.5v10v29q0 4 1 29.5t4 61.5t9 76t16.5 73.5t25.5 55t36 19.5q-2 -6 0 -23.5t7 -36t10 -34.5t10 -18q2 -2 10 -3h29q18 0 40.5 1.5 t40 5.5t24.5 9t-3 15l2 279h-404q-4 0 -11 -33t-13 -85t-13.5 -117.5t-13.5 -130t-9 -122t-3 -94.5zM250 592v12q92 25 133 10.5t51 -45t1 -65.5t-17 -49q-41 -35 -74 -32t-56.5 26.5t-33.5 62.5t-4 80zM309 522q0 -31 10 -65q12 -6 27 -6q25 0 51 20q6 10 11.5 28.5 t5.5 37.5q0 12 -2 16q-16 4 -27 4q-23 0 -74 -10q-2 -11 -2 -25z" />
<glyph unicode="7" horiz-adv-x="737" d="M20 1294h691l-2 -12l36 -35l-16 -291q0 -25 -15.5 -63.5t-40 -87.5t-54 -105.5t-60.5 -114t-60.5 -112.5t-53 -102t-37 -83t-13.5 -55v-32q0 -29 -9 -58.5t-48 -38.5q-6 -6 -16.5 -11t-38.5 -7v-133q-31 0 -54 22l-20 21q-23 10 -38 33.5t-24.5 53.5t-15.5 63.5t-10 66.5 q0 4 -1 9t-1 9q-2 10 -2 15q0 4 -2 12q-2 37 -15 78l273 598l6 -2l4 8h-8q-2 -2 -2 -4q0 2 2 4q-39 4 -81 11t-73 14v-232q-43 0 -71 29l-19 16q-39 20 -56.5 60.5t-27.5 76.5q0 2 -1 6.5t-1 8.5q-4 12 -2 10q-2 4 -4 11t-8 18zM47 1268l10 -293q6 -12 13.5 -42t19.5 -60.5 t28.5 -54t41.5 -23.5v221l30 -3q31 -3 71 -6t78 -5.5t54 -2.5h8l3 1q4 1 8 1q2 0 6 -1l4 -1q2 -2 -1 -13t-8 -25.5t-10.5 -25.5t-5.5 -13l-268 -586q8 -25 13 -78t14.5 -107.5t24 -95.5t40.5 -41v219q0 2 12.5 9.5t18.5 11.5q0 -4 -1 -27.5t-1 -52.5v-27q25 0 36 14.5 t11 2.5q18 0 25.5 14.5t10.5 33.5t2 37.5t-1 24.5q0 27 24.5 84.5t61.5 128t81 150.5t80.5 150.5t61.5 128t25 83.5l14 269h-635zM190 1004h3l24 -7q-10 2 -27 7z" />
<glyph unicode="8" horiz-adv-x="634" d="M12 346l19 74q-10 51 -11 108q0 39 6.5 77t26.5 75l33 65q-33 59 -33 105v373l51 71h408l74 -69v-8l35 -35v-365q0 -41 -39 -112l34 -68l2 -2q18 -35 24.5 -71t6.5 -75q0 -55 -13 -107t-32.5 -93t-43 -65.5t-42.5 -24.5q-18 0 -33 14l-14 14q-8 -4 -11 -17t-7 -24 q-4 -12 -10.5 -30.5t-8.5 -22.5q-6 4 -10 6t-8 6q-4 -16 -15.5 -26t-31.5 -10q-4 0 -5.5 1t-5.5 1l-2 -2q-27 0 -41 14l-6 6l-22 -72q-10 -10 -13.5 -12t-11.5 -2q-10 0 -18 8l-11 10q-2 -55 -13 -78.5t-32 -23.5q-10 0 -22 12l-25 23q-23 6 -48 54t-32 110q-2 10 -8 37.5 t-10 40.5q-2 14 -3 39.5t-3 56.5zM45 360l18 -10q4 -76 7 -108q4 -10 10 -41t8 -41q4 -53 23.5 -96.5t35.5 -43.5q10 0 17.5 19.5t7.5 66.5q0 23 -2 51.5t-6 63.5h2q8 0 15 -18.5t14.5 -40t13.5 -40t12 -18.5q2 0 4 2l33 103l6 2q6 0 9 -6t7.5 -14.5t10.5 -14.5t16 -6l10 10 q6 -10 11 -10q12 0 17 6t8 14.5t7.5 14.5t10.5 6q4 0 14 -6q2 6 5 20.5t8 28.5t13.5 24.5t20.5 10.5q2 0 6 -1l4 -1q4 -2 10.5 -9.5t8.5 -11.5q6 -6 16 -6q16 0 35.5 23.5t36 61.5t28 86t11.5 99q0 35 -6.5 70t-22.5 66l-41 82q18 35 29.5 64.5t11.5 45.5v356l-57 54h-385 l-37 -54v-356v-8q0 -18 10 -45t27 -57l-41 -82q-16 -31 -22.5 -67t-6.5 -71q0 -57 12 -106zM229 899q0 29 4.5 59.5t4.5 65.5h159q0 -35 4.5 -65.5t4.5 -59.5q0 -35 -12.5 -57.5t-51.5 -28.5h-49q-39 6 -51.5 28.5t-12.5 57.5zM231 539q0 27 12.5 46t28.5 19q10 0 21 -10 l24 20q4 -4 10.5 -9t14.5 -11q10 10 20 10q16 0 28.5 -20.5t12.5 -46.5q0 -27 -17 -50.5t-60 -27.5h-13q-47 4 -64.5 27.5t-17.5 52.5zM290 849q-1 -5 1 -9h6h43q23 4 31 19t8 40q0 12 -1 26.5t-3 28.5q0 2 -1 3t-1 6h-74q-2 -14 -3 -26.5t-1 -23.5q-2 -14 -3 -28.5 t-1 -26.5q0 -4 -1 -9zM293 489q12 -4 22 -4h9q27 2 38 14.5t15 28.5q-4 4 -7 6.5t-5 6.5q-2 2 -5 2q-2 0 -4 2l-24 -19q-16 16 -19 17q-10 0 -15 -13.5t-5 -31.5v-9zM371 190q-2 0 2 -4z" />
<glyph unicode="9" horiz-adv-x="659" d="M16 797l11 8q-2 35 -2 67v62v323l36 37h551v-12l35 -35l17 -430q0 -4 1 -8t1 -8q2 -10 2 -37q0 -14 -2 -28.5t-13 -33.5l11 -75v-2q2 -10 3 -19.5t1 -21.5v-41q0 -63 -10.5 -125t-27 -111t-37 -79.5t-40.5 -30.5q-16 0 -33 16l-4 2q-2 -4 -2 -18v-80h-22q-2 0 -11.5 -30 t-19.5 -64q-14 -47 -29.5 -85t-44.5 -38q-10 0 -14 4l-31 30q-8 0 -14 6.5t-13.5 28t-16.5 65.5t-26 120q-10 -16 -19 -38t-9 -44q0 -59 -12.5 -86t-32.5 -27q-12 0 -27 14l-22 23q-25 6 -51.5 53t-30.5 109q-2 8 -9.5 35.5t-11.5 42.5q-2 12 -3 37.5t-1 56.5l-4 4l-19 10 v229q51 -4 101.5 -9t90.5 -13t67.5 -19.5t35.5 -27.5q0 -4 4 -8l9 -11h4q29 0 45 7.5t26 23.5v23q0 18 -2 77q-16 -8 -29.5 -19t-17.5 -22q-16 12 -42.5 17.5t-49.5 7.5q-23 4 -39 14l-16 11q0 -8 -9.5 -6t-19.5 6q-20 6 -38.5 11t-28.5 15l-23 21q-27 10 -33 30zM47 360 l21 -10q4 -76 6 -108q4 -10 11 -41t9 -41q4 -53 24.5 -96.5t39.5 -43.5q10 0 17 21.5t7 71.5q0 35 19.5 67.5t36.5 48.5l57 -45l7 -34q7 -35 16.5 -77t17.5 -77t10 -35q14 0 27.5 35t26 76t24.5 74.5t29 31.5v60q0 33 22 49q4 -2 11.5 -9.5t9.5 -11.5q8 -8 16 -8 q16 0 33.5 28.5t31 75t21.5 104.5t8 118v41q0 10 -1 20t-3 21l-10 82q10 16 12 29.5t2 27.5q0 16 -2 29.5t-2 23.5l-16 410h-514l-21 -21v-225v-88v-64t2 -73l-4 -4l33 -82q0 -4 16.5 -10.5t36 -13.5t35.5 -13t16 -8t16.5 -3t37 -3.5t39 -4.5t24.5 -6q4 14 38 26.5t60 12.5 q2 0 7 -1l4 -1q2 0 5 -16.5t6 -36t5 -35.5t2 -18q13 12 19 16q-2 -61 -22.5 -99t-94.5 -38q-25 0 -41 35q0 10 -20.5 18t-54.5 14t-78 10.5t-91 8.5v-185zM274 893v22q2 10 2 27v29v53h152q0 -35 4 -65.5t4 -59.5q0 -35 -13 -57.5t-54 -28.5h-62q-25 6 -29 26.5t-4 53.5z M336 840h31q27 4 35 19t8 40q0 12 -1 26.5t-3 28.5q0 2 -1.5 3t-1.5 6h-65v-62q0 -20 -2 -31v-30z" />
<glyph unicode=":" d="M29 199v229h258v-12l35 -35v-260q-8 -12 -15.5 -23.5t-11.5 -15.5q-6 -8 -8 -11t-4 -24v-39l-123 -10q-20 0 -33 12l-25 23q-25 6 -32 28.5t-11 51.5q-4 18 -9 39.5t-21 46.5zM29 684v229h258v-12l35 -35v-262q-10 -20 -21.5 -26.5t-21.5 -6.5h-9v-22l-123 -10 q-29 0 -38 10l-27 24q-20 4 -24.5 15.5t-4.5 32.5q0 10 -3 24t-21 39zM55 207q18 -25 23.5 -50.5t8.5 -47t8 -36t24 -14.5l102 9v10v10q2 18 4 25.5t5 12.5t10.5 13t19.5 27v235h-205v-194zM55 692q18 -25 21.5 -42t3.5 -29q0 -10 4 -15.5t22 -5.5l103 8v10v11q2 16 6 15 t10 -5t14.5 -5t20.5 17v236h-205v-195z" />
<glyph unicode=";" d="M23 670q18 -25 21 -39.5t3 -24.5q0 -20 4 -31.5t25 -15.5l26 -24q10 -10 39 -11l123 11v22h8q10 0 20.5 6t20.5 23l2 10v256l-34 35v12h-258v-229zM27 387l2 -231q27 -43 51 -97.5t31 -107.5q18 -18 26 -19l21 -20q10 -10 13 -12t11 -2h6q33 0 40.5 29.5t11.5 72.5 q2 23 5 46.5t11 45t23.5 36.5t42.5 22l-3 190l-34 35v12h-258zM49 678v194h205v-235q-12 -18 -20.5 -17t-14.5 5t-10 5t-6 -16v-10v-10l-103 -8q-18 0 -22 5t-4 15q0 12 -3 29.5t-22 42.5zM53 360h205l2 -153q-43 -10 -58.5 -49t-20.5 -84t-9 -80t-25 -35q-2 0 -5 1t-5 1 q-6 53 -30.5 107.5t-51.5 97.5z" />
<glyph unicode="&#x3c;" horiz-adv-x="555" d="M20 659l76 -133l119 -182l10 -328l8 11l39 -37l25 28q2 -41 4 -67.5t6 -41.5t11.5 -21.5t17.5 -8.5l29 -29q6 -6 16 -7t27 -1q16 0 45 29q16 57 32.5 92t28.5 62q12 25 20.5 40t8.5 31q-2 29 -21.5 87.5t-46.5 123.5q-29 70 -50.5 134.5t-21.5 95.5v2q0 10 -7 22t-17 23 l-2 2q-4 2 -4 4t-2 4l-4 4q-2 4 -6.5 13.5t-8.5 19.5q-10 16 -10 24l-12 39q10 20 35.5 68.5t56.5 105.5q20 39 40.5 79t38 73t28 57.5t10.5 36.5q0 35 14 74q4 12 7 21.5t3 37.5l-35 35v12h-264l-108 -364zM51 662l131 262l103 344h217q0 -10 -12.5 -47t-12.5 -66 q0 -14 -29.5 -72.5t-66.5 -128t-71 -133t-42 -88.5l13 -43q0 -2 4 -10t9 -17.5t8 -17.5l3 -8q0 -4 6 -12.5t14.5 -18.5t13.5 -18t3 -10q0 -31 20.5 -92.5t46 -129t48 -129t24.5 -90.5q0 -20 -32.5 -76.5t-57.5 -140.5q-23 -25 -36 -11.5t-20 40t-9 53.5l-2 27q4 2 5 28.5 t-1 63.5t-6.5 76t-8.5 67q-14 -41 -24 -71.5t-10 -26.5l10 -41l-39 -43l-8 272l-121 187z" />
<glyph unicode="=" horiz-adv-x="692" d="M25 575l30 -225q27 -43 56 -51l16 -14q23 -23 49 -23q14 0 25.5 2t21.5 6q14 4 28.5 7.5t29.5 3.5q2 0 8 -1t12 -1h16l66 -33l6 -4q20 -18 53 -31q14 -6 26.5 -9t14.5 -1l21 -19q16 0 33.5 15.5t33.5 31.5l12.5 12.5t2.5 6.5l98 2l-2 278l-35 35v12h-10q18 10 29.5 23.5 t21.5 30.5l-2 262l-35 35v12h-618l2 -313q14 -31 37 -39l12 -11h-59zM55 549h566l2 -238l-78 -2q-4 0 -14.5 -10t-22.5 -22.5t-24.5 -22.5t-20.5 -10q6 0 -20.5 11t-53.5 23.5t-36 17.5t34 -7l-106 51q-4 0 -20.5 1t-20.5 1q-29 0 -50.5 -7t-40 -10t-35 4t-32.5 36zM59 911 h566l2 -237q-12 -25 -36 -40.5t-73 -15.5l6 41q-4 0 -10 11.5t-13 24t-14.5 19.5t-15.5 -1q-2 -2 -20.5 -6.5t-40 -8.5t-40 -7t-20.5 -3l-106 51q-4 0 -20.5 1t-20.5 1q-27 0 -46.5 -27.5t-35 -55t-29.5 -42t-31 14.5zM162 575q4 8 10 17.5t12 19.5q14 25 28.5 46.5 t31.5 21.5q2 0 8 -1t12 -1h17l106 -51q2 0 13.5 2t26.5 5t33.5 6t33.5 7l-7 -55h13l16 -17h-354z" />
<glyph unicode="&#x3e;" horiz-adv-x="555" d="M25 1294h264l4 -14l33 -33l106 -358l-2 2l135 -273l-76 -129l-116 -180l-11 -319l-34 35v-9l-43 47v-59l6 -4q-4 -59 -6 -91t-8.5 -47.5t-17.5 -17.5t-32 -2q-16 0 -45 29l-10 10q-14 6 -37 29q-16 49 -29.5 82t-25.5 57q-2 4 -3 7t-3 7q-4 4 -6 9.5t-5 9.5 q-18 33 -18 55q2 31 21.5 89.5t46.5 123.5q27 70 49 134.5t22 93.5v2q0 10 8.5 23t18.5 26q2 2 3 4t3 4l6 6q4 8 10.5 23.5t12.5 27.5v2l10 39q-10 23 -35.5 70t-54.5 102q-8 16 -16.5 31.5t-16.5 32.5q-35 63 -59.5 113.5t-24.5 70.5q0 14 -5 33.5t-11 38.5q0 2 -1 4t-1 4 q-2 6 -4 14t-2 45zM51 1268q0 -10 12.5 -47t12.5 -66q0 -14 29.5 -72.5t66.5 -128t70.5 -133t42.5 -88.5l-13 -43q-4 -4 -14 -27.5t-10 -25.5q0 -4 -6 -12.5t-14.5 -18.5t-13.5 -18t-3 -10q0 -31 -20.5 -92.5t-46 -129t-48 -129t-24.5 -90.5q0 -20 32.5 -76.5t57.5 -140.5 q23 -25 36 -11.5t20 40t9 53.5l2 27q-4 2 -5 28.5t1 63.5t6.5 76t8.5 67q14 -41 24 -71.5t10 -26.5l-10 -41l39 -43l8 272l121 187l70 121l-131 262l-103 344h-217z" />
<glyph unicode="?" horiz-adv-x="614" d="M25 520q2 39 4 63.5t4 39t4 21.5t6 13.5t6 17.5t2 42v61l135 84v-2q18 8 35 10l-18 21q-2 -23 -11.5 -21t-29.5 17q-6 4 -16.5 10t-22.5 6q-6 0 -43 -18l-37 35q-4 -2 -6 -2l-4 -3q0 47 -1 71t-3 38q-2 18 -2 33v35q0 37 6 96l10 92q20 2 72.5 5t111 5t109.5 3t72 1h22 q53 0 86 -22.5t49 -57.5l8 -6q41 -41 50.5 -104.5t9.5 -122.5q0 -16 -2 -57t-5 -87t-7.5 -87t-6.5 -58q-6 -43 -32.5 -57t-65.5 -14l-111 8q-23 0 -37 -8.5t-14 -34.5l-6 -152l-244 2l-34 35h-9zM51 528l21 -30l213 -2l6 131q0 39 20.5 51t50.5 12l113 -8q29 0 50.5 10 t25.5 43q2 16 6 57.5t7 86.5t5 86t2 57q0 39 -4 82t-17 80t-42 60.5t-78 23.5h-22q-20 0 -68.5 -1t-103 -3t-102.5 -4.5t-66 -4.5l-9 -69q-6 -59 -6 -94q0 -31 2 -59.5t4 -74.5q12 6 23 7q25 0 42 -14.5t17 -10.5t8.5 12.5t12.5 8.5q4 -6 19.5 -21.5t21.5 -19.5l4 -1t6 -1 q12 0 16 7t7.5 15t8.5 15.5t17 7.5q47 0 87 -14.5t40 -69.5q0 -4 -1 -11.5t-1 -9.5q-14 -6 -31.5 -8t-38.5 -2h-38q-25 0 -48.5 -3t-40.5 -14l-112 -69v-45q0 -41 -3 -52.5t-8.5 -20.5t-9.5 -31.5t-6 -84.5zM55 197v229h258v-12l35 -35v-260q-8 -12 -15 -23.5t-11 -15.5 q-6 -8 -8.5 -11t-4.5 -24v-39l-123 -10q-20 0 -32 12l-25 23q-25 6 -32 28.5t-11 51.5q-4 18 -9 39.5t-22 46.5zM82 205q18 -25 23.5 -50.5t8.5 -47t8 -36t23 -14.5l103 9v20q2 18 4 25.5t5 12.5t10 13t20 27v235h-205v-194zM211 883q2 -4 8 -11zM287 874h30h21q12 0 24 5 q0 4 -4 16q-25 6 -55 6q-4 0 -8 -12q-4 -6 -8 -15z" />
<glyph unicode="@" horiz-adv-x="884" d="M27 684q0 63 17 166.5t45 214.5t60.5 212t65.5 157h459q4 -6 6 -11.5t6 -11.5l25 -25q20 -37 42.5 -94t42 -125.5t37 -142.5t31 -144.5t20.5 -131t7 -101.5l-82 -151q-2 -18 -14.5 -51t-28.5 -65t-35.5 -54.5t-38.5 -22.5l-24 4l-15 15q-4 -23 -10 -44.5t-14 -39.5 q-27 10 -41 24l-17 17q-18 10 -29.5 21t-21.5 28q-16 -27 -49 -35l-39 35h-2q-8 -10 -29 -15l-36 37q-2 -2 -7 -2l-28 29q0 6 -1 20.5t-3 29.5t-3 29.5t-4 20.5q-2 12 -7 19.5l-9 13.5l-16 16q-6 2 -8 9q2 -68 5 -119t5 -80l229 -60v-10l35 -35v-323q-20 6 -35 20l-24 25 q-6 4 -11.5 9t-9.5 9q-4 -35 -21.5 -68.5t-58.5 -47.5l-20 20q-2 -29 -3 -55.5t-3 -50.5l-25 -5q-8 0 -20 13l-23 22q-18 2 -47 46t-56.5 99.5t-49 108.5t-25.5 76zM53 690l94 -555q0 -14 17.5 -64.5t42 -104.5t49.5 -97t41 -43l10 2q2 35 5 76t6.5 76.5t7.5 59t8 23.5 q2 0 5 -17t6 -39.5t7 -47.5t10 -37q18 6 29.5 24.5t16 40t5.5 44t1 37.5v18h41q0 -4 1 -20.5t5 -35t11 -33.5t20 -20v279l-220 57l-9 34q-9 34 -19.5 95.5t-19.5 145.5t-9 182q0 35 8 80t18.5 93t19.5 94t11 83h336q4 -59 10.5 -108t6.5 -101v-24q0 -16 -2 -27 q-4 -25 -5.5 -54.5t-1.5 -55.5v-50v-28l-47 -8q2 10 3 17t1 11v19q0 12 -1 23t-1 20v12q0 14 -2 51t-5 77t-7 77t-6 51h-225l-11 -21q-2 -10 -6 -32.5t-8 -49t-9 -50t-7 -31.5q0 -4 -3 -15.5t-8 -15.5l11 -215q2 -18 11 -30.5t19.5 -24t19.5 -22.5t11 -26q2 -6 3 -20 t3 -30.5t3 -31t1 -20.5l11 -10q14 4 18 20.5t6 35t7 33.5t22 15q2 0 5 -1l3 -1l14 -24l7 -95q14 4 21 26t11 44q16 10 31 39h14v-18q0 -14 1 -37t5.5 -44.5t15.5 -40t30 -24.5q6 12 10 37t7 47.5t5 39.5t6 17t10.5 1.5t11.5 -5t10 -24t7 -51.5l10 -2q14 0 30.5 22.5t30 52 t23 59t9.5 44.5l81 151q0 59 -15 158.5t-39.5 205t-55.5 201t-62 148.5h-426q-20 -35 -41.5 -91t-41 -122t-37 -137.5t-30.5 -140t-20.5 -127t-7.5 -99.5zM244 455q0 -51 1 -80t1 -27l4 -2q0 10 -2 39t-4 70zM332 1049h243q0 -8 3 -15l14 -16v10q0 4 -1 5t-1 5t-1 9.5 t-1 11.5h-256v-10zM367 741q0 8 1 29t4 42.5t7 38.5t10 17h92q2 0 6.5 -22.5t4.5 -40.5v-57q0 -23 -2.5 -50.5t-14.5 -50.5l-45 -6v-20q-23 0 -35 13t-18 31.5t-8 39t-2 36.5zM428 668l27 4q8 20 9 39.5t1 36.5v57v2h-35l-1 -15q-1 -14 -1 -32v-37v-23v-32z" />
<glyph unicode="A" horiz-adv-x="716" d="M14 94q0 -10 1 -18t1 -19v-37l39 -43q2 0 3 1.5t3 1.5l37 -37q31 4 41.5 19t10.5 36v18t-2.5 16.5t-2.5 20.5v8q8 -4 11 -4l24 -22q10 -10 27.5 -16.5t50.5 -6.5l31 367l221 -10q6 -18 6 -37q0 -12 -8 -25q-20 -12 -21 -45q0 -25 10.5 -64.5t20.5 -74.5q2 -10 5 -21.5 t7.5 -19.5t8.5 -20.5t2 -8.5h10l35 -35h57q0 8 2 29t6 43h2l21 -18q16 -16 26 -17q10 0 11 27q2 14 5 36.5t5 45t3 39t1 20.5v111q0 16 1 34.5t1 34.5v215q0 78 -4 161t-17.5 162t-39 150.5t-68.5 127.5l-16 16q-4 8 -10.5 14t-10.5 15l-10 10q-16 14 -19.5 16t-7.5 4h-229 q-23 0 -52.5 -55t-59 -139t-58.5 -186.5t-52.5 -196.5t-36.5 -167t-13 -101v-31q0 -33 6 -66q2 -16 4 -33.5t4 -31.5l-23 -76v-117zM41 160v43l22 73q0 35 -7 76t-7 66v31q0 27 12.5 98t33 162.5t46 189.5t53 180t54 135.5t47.5 53.5h225q2 0 9.5 -8.5t11.5 -12.5 q55 -72 81 -167q26 -94 36 -198q10 -94 9 -189v-17q-1 -102 -1 -187v-45q0 -33 -1 -68.5t-1 -68.5v-43q0 -4 -1 -25.5t-3.5 -46t-5.5 -46t-5 -23.5q0 -2 -7 7t-16.5 21.5t-16.5 22.5t-7 8q-4 -6 -7 -20.5t-6 -30.5t-5 -30.5t-2 -20.5h-21q-2 12 -13 43t-20.5 64.5 t-13.5 62.5t6 35q18 12 22 35.5t-5 47t-23 42t-29 20.5l-256 12l-30 -368q-27 0 -37 9t-15.5 19.5t-10.5 19.5t-19 9q-27 0 -30 -18.5t0 -41t2 -42t-23 -23.5l-23 25q0 31 -1 64.5t-1 64.5zM315 735h174q0 47 -23.5 98.5t-47.5 86.5q-2 0 -5 1t-5 1q-23 0 -38.5 -22.5 t-25.5 -53.5t-16 -61.5t-13 -49.5zM395 762q6 27 13.5 50.5t19.5 37.5q10 -20 18.5 -43t12.5 -45h-64z" />
<glyph unicode="B" horiz-adv-x="688" d="M20 344l3 459l4 2q-2 35 -2 67v62v323l36 37h537v-14l35 -33l31 -430v-4q0 -20 -12.5 -48t-28.5 -60l39 -72q32 -61 32 -136q0 -59 -14 -112t-35.5 -94t-46.5 -66.5t-45 -25.5q-18 0 -33 14l-14 14h-2q-10 -4 -15.5 -22.5t-9.5 -32.5q-2 -4 -3 -21.5t-1 -35.5l-22 22 q0 -12 -4.5 -36.5t-8.5 -53.5q-4 -53 -15 -100t-38 -47l-37 37q-2 -2 -6 -3l-2 9q-8 8 -17.5 29.5t-16.5 50t-14 62.5t-13 65q-4 12 -5.5 21t-3.5 15q-18 -14 -32 -20q6 -61 6 -98q0 -59 -14.5 -84t-32.5 -25q-12 0 -27 14l-22 23q-25 6 -51.5 53t-30.5 109q-2 8 -9.5 36 t-11.5 42q-2 12 -3 37.5t-1 56.5l-4 4zM47 360l21 -10q4 -76 6 -108q4 -10 11 -41t9 -41q4 -51 22.5 -92t37 -46.5t27.5 37.5q4 17 4 45q0 44 -9 117q39 8 64 47l51 -22l8 -44t17.5 -98.5t18.5 -98.5t11 -44q14 0 21.5 42t12.5 90t12 85t22 27q2 6 5 20.5t9 28.5t15.5 24.5 t21.5 10.5q2 0 6 -1l4 -1q4 -2 11.5 -9.5t9.5 -11.5q20 -20 53 14.5t55.5 99t27.5 142.5q1 10 1 19q0 67 -31 125l-45 82q20 35 33.5 64.5t11.5 45.5l-29 410h-501l-21 -21v-225v-88v-64t2 -73l-4 -4zM268 922v22q4 37 5 58.5t3 21.5l132 2q0 -37 4 -67.5t1 -54t-18.5 -39 t-52.5 -21.5l-41 -2q-25 6 -29 26.5t-4 53.5zM291 494q3 38 3 65v13q-1 32 3 61l22 2q12 0 13 -8q0 -4 12 -14.5t23 -18.5q2 6 3 22.5t4 32t9 27.5t18 12q2 0 7 -1l4 -1q2 0 5 -16.5t6 -36t5 -35.5t2 -18q13 12 19 16q-2 -61 -22.5 -99t-94.5 -38q-25 0 -41 35zM330 870h4 q33 6 43 19.5t10 32.5v18q0 10 -2 23h-49q-2 -10 -2 -27q0 -16 -4 -37v-29zM353 551q1 -10 1 -21v-45q31 6 49 31v14q-10 6 -17 13.5t-13 13.5q-12 8 -19 14q-1 -7 -1 -13v-7z" />
<glyph unicode="C" horiz-adv-x="595" d="M23 684q0 -160 17 -306.5t50 -303.5h12l35 -35h37q8 0 23 10h2v-121l10 6l37 -36l67 45q4 12 6.5 21t4.5 20q4 18 9 42.5t10 48t9 41t6 23.5q0 2 1 5t1 6q2 12 15 14q59 -156 59 -316v-24q18 -18 27 -19l20 -20q10 -10 13.5 -12t11.5 -2h6h6t14 4l13 12q6 6 12 17l6 10 v616l-35 35v12q-47 -6 -82 -6q-76 0 -116 41q-20 39 -26.5 91t-6.5 112q0 25 2 57.5t11 61t27.5 48t49.5 19.5q12 0 25 -6q18 -27 29.5 -61.5t15.5 -69.5q2 0 10 4l37 -37q20 4 38.5 48t33 100.5t22.5 108.5t8 75q0 53 -4 92t-27 62l-18 16q-12 29 -43 45t-92 16h-23 q-16 0 -57 -3t-85 -6t-85 -7t-57 -6q-66 -129 -79 -269.5t-13 -271.5v-47zM49 684q0 70 1 142.5t8.5 144t24.5 142.5t50 134q14 2 52 6t80 7.5t80 5.5t54 2h23q45 0 70.5 -11.5t37 -32t13.5 -51t2 -69.5q0 -20 -5 -69.5t-14.5 -101.5t-20.5 -93t-24 -43q-4 29 -13 58.5 t-26.5 53t-41 39t-54.5 15.5q-39 0 -60.5 -21.5t-32.5 -53.5t-14 -68t-3 -64q0 -68 10 -129.5t38 -105.5q30 -45 82 -65q32 -13 76 -12q28 0 60 5v-594q0 -2 -8.5 -9.5t-12.5 -11.5l-4 -1q-4 -1 -6 -1t-5 1t-5 1v18q-1 90 -19 180q-20 98 -63 191q-4 2 -15.5 3t-15.5 1 q-29 0 -35 -6t-16 -39q-4 -10 -10 -35.5t-12.5 -55.5t-11.5 -56.5t-7 -36.5l-31 -21v138l-19 5q-20 5 -32 1q-4 0 -20.5 -9.5t-20.5 -11.5h-10h-10q-31 147 -47.5 288.5t-16.5 295.5z" />
<glyph unicode="D" horiz-adv-x="718" d="M23 1298h552l11 -20l26 -27l29 -57q4 -16 11 -59t18 -93q10 -55 19 -106t13 -70q2 -8 8.5 -28.5t10.5 -30.5h2l-21 -438q-4 -43 -19 -65.5t-38 -41.5q-16 -14 -27.5 -28.5t-15.5 -43.5q-2 -12 -9 -57t-15.5 -96t-14.5 -96t-6 -58l-37 -37q-14 6 -26 19l-15 14 q-47 20 -59 67.5t-17 104.5q0 4 -1 6t-1 6q-4 18 -5 36t-5 32q-18 4 -43.5 6t-46.5 6l41 -116v-21q0 -16 -7 -26.5t-18 -10.5q-53 0 -100 47l-6 7q-33 18 -58.5 53t-44 72.5t-28.5 75.5t-12 65l-29 354q-2 6 -2 16v21q0 27 2 37q2 2 2 8v12zM49 1272l19 -535 q0 -16 -2.5 -39.5t0.5 -46.5l28 -360q2 -29 15.5 -73t36 -86t55 -71.5t75.5 -29.5q4 0 5 16v21l-50 139l21 -2q22 -2 48 -5t48.5 -6.5t24.5 -3.5q31 0 41 -39.5t14 -89t12.5 -94.5t34.5 -55l21 20q0 12 6 56.5t14 96.5t15.5 96t9.5 57q4 31 19 49t32.5 34.5t32 36t16.5 54.5 l21 430q-4 6 -11.5 29.5t-9.5 31.5q-4 18 -12 64.5t-18.5 98.5t-18.5 99t-12 66l-21 41h-510zM229 754q0 20 1 38.5t1 32.5v17q0 18 3.5 45.5t6.5 54.5t6 45.5t5 18.5h184q12 0 21.5 -40t13.5 -90.5t6 -98.5t2 -62q10 -22 10 -46q0 -15 -4 -31q-10 -42 -36.5 -80t-60.5 -70 q-34 -30 -66 -44q-21 -9 -39 -9q-9 0 -17 2q-22 7 -24 46zM291 713l10 -250q25 6 52.5 27.5t52 50t41 62.5t16.5 67q0 14 -8 35l-2 8v39t-1 63.5t-3.5 69.5t-4.5 59h-151v-188q0 -10 -1 -21.5t-1 -21.5z" />
<glyph unicode="E" horiz-adv-x="614" d="M20 154q0 -16 10.5 -48t27 -65t36 -58.5t37.5 -31.5l21 -21q16 -16 28 -16h4q2 0 12.5 1t12.5 1q10 61 18.5 92t18.5 66q4 18 9 37.5t11 42.5q2 -2 2 -4t2 -7v2q10 -27 25.5 -50t44.5 -36l16 -14q12 -12 28.5 -19.5t41.5 -7.5h12q33 10 44.5 47t15.5 72q12 -14 28 -24 l21 -19q14 -14 33 -20v426l-35 35v6h35v245l-35 35v13h-211v86h225q16 0 28.5 42t20.5 97t12 109.5t5 78.5l-35 35v12h-549q0 -37 -1 -118.5t-3 -182.5q-2 -61 -3 -126.5t-3 -131.5q-2 -86 -4 -169t-3 -153.5t-2.5 -126t-1.5 -83.5v-49zM47 154v49q0 39 1 123t4 188t5 221 t5.5 221.5t4.5 188.5t1 123h495q0 -20 -3 -67.5t-8 -96.5t-13.5 -86t-20.5 -37h-246v-174h246v-205h-225q-12 0 -16.5 -13.5t-4.5 -29.5q0 -14 4 -27l3 -12h239v-379q-12 4 -19 19.5t-12.5 32t-7.5 32t-2 19.5h-41q0 -2 1 -24.5t-2 -50.5t-12 -54.5t-28 -34.5h-10 q-39 0 -56.5 22.5t-30.5 49t-28.5 49t-48.5 22.5h-10q-14 -63 -32.5 -121.5t-28.5 -124.5q-2 0 -5.5 -1t-5.5 -1q-14 0 -30.5 22.5t-29.5 52.5t-22.5 59.5t-9.5 44.5z" />
<glyph unicode="F" horiz-adv-x="614" d="M39 190q0 -12 6 -44.5t16.5 -74.5t24.5 -85t31 -74l4 -4q4 -8 8 -12q2 -4 8 -11l13 -12q8 -4 14 -4l31 139q4 29 12 44.5t18 25.5q14 16 26.5 37.5t20.5 60.5l-8 45q10 -10 23 -10q35 0 35 59l-17 260l-35 -2q-12 -8 -12 -6l41 -41h2l14 -211q0 -51 -22 -53v4 q0 4 -4 16.5t-8 16.5l-41 41q-2 2 -4 2q-16 0 -9.5 -8t13.5 -19l2 -2q4 -6 5 -11t5 -11l14 -70q-8 -37 -20.5 -57.5t-24.5 -36.5q-10 -10 -19 -26.5t-14 -45.5l-30 -135q-16 29 -28.5 71t-23 83t-15.5 74.5t-5 46.5v1097h496q-2 -35 -7.5 -80t-14.5 -86t-20.5 -69.5 t-25.5 -28.5h-205l-20 21l-21 -21l21 -20v-136h-21l62 -61v20h209v-204h-246v-17q0 -10 -12 -26q18 10 18 26v10h246v246l-6 6h-209v7h-35v143h219q18 0 31.5 37t23 86t15.5 100t6 82l-6 6h-539v-1098q0 -12 5 -46.5t15.5 -76.5t22.5 -84t29 -71l4 -4q4 -8 8 -12 q10 -18 21 -23l28 -29q10 -10 21 -10l30 135q4 29 13.5 45.5t19.5 26.5q12 16 24.5 36.5t20.5 57.5l-12 66l14 -15q10 -10 19 -10q29 0 28 53l-16 254l-18 17q12 12 12 24v17h246v245l-35 35v13h-215v108h225q18 0 30.5 39t21.5 90t13.5 101.5t4.5 74.5l-35 35v12h-551 v-1104zM66 190v1078h497q0 -20 -3 -64.5t-9 -88.5t-15.5 -77.5t-21.5 -33.5h-246v-197h250v-205h-225q-12 0 -16.5 -11t-4.5 -26q0 -16 3.5 -31.5t3.5 -13.5l16 -250q0 -33 -8 -32q-4 0 -11.5 12t-15.5 27.5t-15 27.5t-9 12t-3.5 -24.5t-1.5 -30.5v-12l15 -74 q-6 -31 -16.5 -48t-22.5 -31.5t-22.5 -32t-16.5 -50.5l-27 -118q-14 0 -27.5 40.5t-24.5 92t-17 99.5t-6 62zM254 528q10 0 27 11q-4 -4 -6.5 -5.5t-4.5 -5.5h-16z" />
<glyph unicode="G" horiz-adv-x="614" d="M16 686q0 -92 13.5 -176t29.5 -170q8 -43 22.5 -95t35 -102.5t45 -90.5t53.5 -58q0 2 2 2l19 -19q8 -8 20 -16q23 23 28 44.5t13 49.5q4 16 6 31.5t6 30.5q12 -39 27.5 -83t33 -82t34 -65.5t30.5 -33.5v4l29 -29h2l6 -6q14 82 23.5 135t15.5 84t8 45t4 18q4 -6 7 -11 t8 -9q2 2 2 4t2 4l37 -35q33 55 38 88t5 68v10q0 49 -7.5 93t-15.5 87q-6 37 -12 75t-8 73l-64 190l-33 31l-4 16q-90 0 -121.5 -43t-31.5 -98q0 -41 1 -61.5t13 -50.5q-16 8 -25 14q0 2 -1 3t-1 5v21q0 10 -1 20t-1 23v86q0 10 -1 29.5t-1 41.5q0 41 2 85t13 71q2 0 3 -1 t5 -1l28 -27l2 -2q6 -6 23 -6h14v-8q0 -23 3 -33t22 -12l29 -29q6 -6 18 -6l25 8q4 2 12 5t31 7v418l-35 35v12h-396q-6 0 -15 -33.5t-19.5 -89t-20.5 -123t-17 -135t-12.5 -128t-5.5 -99.5zM43 686q0 37 3 94.5t9 122t13.5 130t13.5 117.5t13 85t11 33h369v-381 q-39 -10 -45 -15.5t-6 17.5q0 25 -5 45t-26 27h-12q-8 0 -19.5 -1.5t-19.5 -1.5t-10 3q-8 4 -16.5 27.5t-4.5 33.5q-23 2 -35 -16.5t-19 -49t-9 -67.5t-2 -70q0 -31 1 -55.5t1 -28.5v-28q0 -20 1 -44t1 -45v-26q14 -43 51 -68.5t82 -25.5q0 2 -10.5 27.5t-17.5 65.5 q-5 28 -5 55q0 12 1 23q3 38 27.5 65.5t80.5 27.5l57 -170q4 -86 23.5 -164t19.5 -164q0 -35 -2 -62.5t-20 -60.5q-4 6 -14.5 31t-16.5 29l-8 -15q-9 -14 -11 -14q-10 0 -22 -43t-23.5 -95t-19.5 -95l-8 -43q-12 6 -28.5 49t-32 95t-28 99.5t-14.5 63.5q-4 2 -15 4t-15 2 q-14 0 -23.5 -25.5t-17 -57.5t-13.5 -60.5t-14 -36.5q-20 12 -39.5 48t-36 82t-30 96t-21.5 91q-16 86 -29.5 170t-13.5 170zM358 905q0 -2 2 -2q-2 0 -2 2z" />
<glyph unicode="H" horiz-adv-x="651" d="M27 133q4 49 6 132t2 181v207v191q0 92 -2 164q0 27 -1 49t-1 43v49q0 10 -1 19.5t-1 19.5v63l37 37h210v-12l35 -35l-10 -424h76v471h198l37 -37v-8l35 -35v-32q0 -27 2 -60q2 -57 4 -124.5t2 -102.5v-70q0 -41 -1 -88t-2 -97t-1 -93q0 -47 -1 -81t-1 -44 q-2 -47 -9 -116t-16.5 -134.5t-18.5 -111.5t-17 -46h-51l-31 29q-2 0 -2 -2h-2q-4 -2 -8.5 -7t-10.5 -22.5t-13 -51.5t-15 -93l-37 37v-9q-35 35 -45.5 56.5t-10.5 40.5q0 41 11 98v-2q0 2 1 4t1 4q6 31 11 62.5t5 54.5q0 20 -2 29q-8 6 -8 12v2q-8 8 -12 22q8 41 10 74 t2 62q0 45 -1 66.5t-7 49.5h-78l-6 -270v-10q-2 -10 -3 -24.5t-1 -31.5q0 -14 2 -20l12 -12q-2 -4 -5 -17.5t-7 -21.5h-2q-6 -16 -18.5 -54t-27 -84.5t-29.5 -95.5t-26 -88l-37 37q-2 -4 -2 -10t-2 -10q-16 57 -28.5 96t-21.5 64.5t-16 41t-14 27.5l-4 8l-4 8v-2 q-4 4 -6 12.5t-6 12.5q-6 14 -11 25.5t-5 27.5zM53 131q0 -20 33 -76.5t57 -140.5q12 47 28.5 95t30 86t22.5 63l9 24q-6 2 -8 19.5t-1 38t2 37t1 18.5l6 291h168q0 -18 -8 -21q2 -4 7 -40q6 -37 8 -105v-18q0 -60 -11 -128q4 -4 6.5 -9t6.5 -9q8 -20 8 -50q0 -12 -1 -26 q-5 -47 -14.5 -94t-13.5 -87t10 -54q10 63 19.5 93t16.5 41t12.5 13t10.5 10.5t8 32t5 78.5q2 0 6 -1l4 -1l21 -21l4 -1q4 -1 6 -1h4v-118h31q4 0 10 44t12 106.5t11.5 129t7.5 109.5q0 12 1 71.5t2 134t2 149.5t1 116q0 27 -1 76t-3 98t-3 89t-1 48l-21 21h-162v-471h-163 l10 471h-174l-21 -21q0 -10 1 -36.5t1 -55.5q0 -31 1 -82t1 -117t1 -141.5t1 -155.5v-207q0 -100 -2 -183t-6 -132zM516 188q-2 0 -2 1t2 4v-5z" />
<glyph unicode="I" d="M29 156q27 -43 51 -97.5t31 -107.5q18 -18 26 -19l21 -20q10 -10 13 -12t11 -2h6q33 0 43.5 33.5t18.5 78.5q8 41 21.5 83t50.5 59v1099l-35 35v12h-258v-1142zM55 166v1106h205v-1065q-33 -12 -46 -52t-21.5 -84t-16.5 -78t-29 -34q-2 0 -5 1t-5 1q-6 53 -30.5 107.5 t-51.5 97.5z" />
<glyph unicode="J" horiz-adv-x="677" d="M27 672q0 -35 5 -77t9 -77q6 -37 6 -51q2 -31 8 -84t13.5 -114.5t16.5 -125t18.5 -115t17.5 -84t12 -32.5h4l35 -35h51l21 221h4h12l25 -147q2 6 8 8l37 -37q45 45 57 84t23 82q6 29 13 57.5t17 49.5q10 23 28.5 29.5t41 13t45.5 13.5t41 26.5t32.5 54.5t18.5 94 q2 29 5 98.5t6.5 149.5t6.5 151.5t3 106.5q6 10 13 25.5t7 23.5l-5 11q-5 12 -9 22l-2 2q-2 2 -3 4l-1 2v25q0 14 -1 31.5t-1 35.5t1 35.5t1 32.5v32l-35 35v8l-37 37h-244l33 -741l-13 -6q-12 -6 -22 -10h-2q-6 2 -6 4l-49 164l-33 32l-4 15l-188 -7q-29 0 -35 -19t-6 -54z M52 684q1 35 16 35l168 6l53 -172q2 -4 21.5 -19.5t29.5 -21.5l4 -1q4 -1 6 -1t6 1l4 1q12 6 32 21.5t20 19.5l-33 715h207l20 -21q0 -10 -1 -36.5t-1 -55.5t1 -55.5t1 -36.5q0 -4 10.5 -20.5t10.5 -20.5q0 -6 -8.5 -21.5t-12.5 -19.5q0 -31 -2 -103.5t-5 -153.5t-7 -153.5 t-6 -101.5q-6 -88 -33 -120t-59.5 -42t-64.5 -17t-48 -46q-12 -29 -20.5 -64t-16.5 -68.5t-17.5 -62.5t-23.5 -43l-24 156q0 4 -8.5 11t-12.5 9l-4 1q-4 1 -6 1t-6 -1l-4 -1l-21 -20l-4 -1t-6 -1t-6 1l-4 1q-6 2 -7 16q0 10 -4 19l-22 -258h-31q-2 0 -7 30.5t-11 80.5 t-12.5 110.5t-12.5 119t-10 109.5t-6 80q0 12 -6.5 52t-11.5 84q-4 37 -4 67v12z" />
<glyph unicode="K" horiz-adv-x="655" d="M33 866q0 -41 1 -88t2 -97t1 -93q0 -33 1 -59.5t1 -43.5v-22q2 -47 9 -118t17.5 -136.5t20.5 -112.5t20 -47h7l34 -35h52v49q6 -12 14 -46.5t23 -120.5q2 6 8 8l37 -37q29 29 37 48t8 36q0 23 -4.5 48.5t-8.5 53.5q-6 31 -11 62.5t-5 56.5q0 27 4 37q4 4 6 10q4 4 6 7 t6 7q-8 41 -10 76t-2 64v73q0 23 8 58l84 -209v-4q4 -16 4 -45q0 -12 -2 -23.5t-12 -15.5v-8t2 -9l10 -30q6 -18 19.5 -60.5t30 -92.5t33 -101t26.5 -88q2 6 2 12q0 4 2 8l37 -37q16 59 29.5 97.5t22.5 62t16.5 37.5t13.5 27q12 25 20.5 40t8.5 31q-2 23 -8.5 68t-14.5 98 q-6 43 -12 87t-11.5 84t-8.5 72t-3 48v2q0 14 -24 39l-15 12q-4 10 -15 22.5t-24 24.5l-14 15q-2 0 -6 4q-2 4 -2 6t-2 6q-2 0 -2 2q-2 2 -3 4l-1 2q0 4 14 41t37 88q18 43 37.5 90t36 88t26.5 73t10 42q0 18 1 35.5t1 32.5v32l-34 35v8l-37 37h-207l-70 -336v289l-35 35v12 h-198l-37 -37v-34q0 -27 -2 -60q0 -18 -1 -38.5t-1 -43.5q-2 -43 -3 -83t-1 -62v-70zM59 936q0 27 1 76t3.5 98t3.5 89t1 48l20 21h162v-471l55 -2l98 473h175l20 -21q0 -10 -1 -36.5t-1 -55.5q0 -10 -12.5 -44t-29.5 -80t-38.5 -96t-39 -94t-30 -74t-12.5 -34t10.5 -20.5 t10.5 -20.5t14 -18.5t31.5 -31.5t31 -31.5t11.5 -16.5q0 -29 8 -93.5t18.5 -136t19.5 -136t11 -91.5q0 -20 -32.5 -76.5t-57.5 -140.5q-12 47 -28.5 95t-30 86t-22.5 63l-9 24q6 2 8 19.5t2 38.5q0 20 -2 36.5t-2 18.5l-117 293l-57 -2q0 -18 8 -21q-2 -4 -7 -39.5 t-7 -104.5v-20q0 -60 10 -126q-4 -4 -6 -9.5t-6 -9.5q-8 -20 -8 -50q0 -12 1 -26q5 -47 14 -94t13 -87t-10 -54q-10 63 -19.5 93t-16.5 41t-12 13t-10.5 10.5t-8.5 32t-5 78.5q-2 0 -6 -1l-4 -1l-20 -20l-4 -1q-5 -1 -7 -1h-4v-119h-31q-4 0 -10 44t-12 106.5t-11 129 t-7 109.5q0 12 -1.5 71.5t-2.5 134t-2 149.5t-1 116zM137 195q4 0 0 4v-4zM143 18l2 -2q-2 0 -2 2zM518 651q4 -2 7 -5l7 -7q-6 4 -14 12z" />
<glyph unicode="L" horiz-adv-x="526" d="M33 164h12l35 -35q53 0 73.5 16.5t36.5 32.5l7 6v-112l73 -74v8l35 -35q0 18 5 43t14.5 48.5t21.5 40t25 20.5q6 -14 12 -29.5t12 -32.5v-2q10 -31 26.5 -63.5t39.5 -67.5q0 4 1 7.5t1 7.5l37 -37q4 18 9 56t10 79t8 76t3 47q4 49 5.5 122.5t1.5 137.5v139l-35 35v12 h-176v639l-35 35v12h-258v-1132zM59 190v1080h205v-686h211v-43v-76q0 -63 -1 -137t-5 -123q0 -12 -2 -41t-5 -61.5t-7 -61.5t-6 -41q-10 14 -19.5 45t-22 62.5t-29.5 55t-42 23.5q-18 0 -34.5 -13t-29 -33.5t-20.5 -42t-8 -36.5l-21 21v164q0 2 -8 10t-12 10l-4 1t-6 1 q-20 0 -34 -12t-27 -26.5t-29.5 -27t-43.5 -12.5z" />
<glyph unicode="M" horiz-adv-x="952" d="M25 1294h233q16 0 29.5 -13t23.5 -32l17 -14q-2 0 -3 1l-1 1l6 -4q16 -16 26.5 -44t16.5 -46h-2v-6l6 -7v-6q0 -8 3 -29.5t7 -37.5q2 -16 4 -30.5t4 -27.5l6 -4q14 -14 23 -30h-2q18 -18 27 -35l10 -8q6 -8 12 -15.5t10 -17.5q10 -4 21.5 -9.5t23.5 -9.5q29 29 58 52 q2 16 6 52t8 73q4 41 7 77.5t7 53.5v2q4 14 10.5 33.5t16.5 38t23.5 30.5t29.5 12h236v-12l35 -35l-11 -1075v-33q0 -14 -1 -25.5t-7 -21.5l-6 -6q-4 -4 -7 -5l-3 -1q-2 -8 -5 -29.5t-7 -46t-5.5 -48.5t-1.5 -36h-82l-34 35h-13v47v27q0 16 2 28q0 4 1 8.5t1 8.5v10 q0 6 -1 27.5t-5 50.5q-4 16 -4 28q-4 -2 -6 -1t-6 1t-7 1.5t-7 1.5h-17l-35 34h-10q-6 16 -14 43t-13 47q-4 -35 -8 -68.5t-6 -62.5q-4 -39 -7 -65.5t-3 -34.5q0 -43 -9.5 -77t-52.5 -34h-4h-2q0 -2 -2 -2h-4q-29 0 -43 15l-24 22q-33 10 -38 42t-5 73q0 31 -5.5 58.5 t-35.5 39.5l-19 160q-12 29 -14 51q0 4 -1 7t-1 8q-4 20 -8 30q-18 6 -25 17l-6 4q0 -29 -1 -61.5t-2 -63.5t-2 -54.5t-3 -35.5q0 -6 -3 -18.5t-7.5 -28t-8.5 -30.5t-8 -24h-16q-4 0 -7.5 -1t-7.5 -1q4 -4 4 -14q0 -29 -5 -69t-9 -62l31 -31l-8 -8q-31 0 -45 14l-15 13 q2 -6 2 -11q0 -4 1 -10t1 -16q2 -12 2 -29v-27v-41h-82l-34 35h-13q0 10 -2 29.5t-4 43.5t-6 45.5t-6 33.5h-4l-35 35h-12zM51 1268l6 -1129q0 -2 10.5 -6t20.5 -16q2 -2 10 -10.5t8 -10.5q2 -8 6.5 -27.5t7.5 -43t5 -44t2 -28.5h41v20q0 20 -2 46t-2 36q0 6 -2 23.5t-4 38 t-4 39t-2 24.5t12 -14.5t27.5 -45t28.5 -45t16 -14.5q2 -10 -2.5 3.5t-8.5 38t-8 54t-4 52.5q0 35 16 35q4 0 10.5 1t8.5 1q4 10 10 40.5t8 41.5q2 16 4 57t3 85t2 85t1 57q4 -2 11.5 -9t9.5 -11t8 -21.5t10 -19.5q2 -2 11.5 -5t18.5 -6t17.5 -5.5t10.5 -4.5 q12 -16 18 -32.5t9 -32.5t6.5 -34.5t11.5 -39.5l16 -149q33 -12 38 -46t5 -71q0 -35 6 -62.5t37 -27.5q2 0 4 1t4 1h4q29 0 35 27.5t6 62.5q0 12 5.5 57t12.5 105.5t13 127t8 124.5q16 2 25 10q2 0 11 18.5t18.5 42t17.5 43t8 21.5q2 4 8.5 11t10.5 9q0 -16 -5.5 -68.5 t-10.5 -111.5q-5 -60 -9 -112q-3 -35 -3 -53q0 -9 1 -15q2 -10 8 -41t10 -41q2 0 8.5 -1t10.5 -1q31 0 42 27.5t15 56.5q4 -10 12 -41t7 -41q0 -6 2 -31.5t5 -54.5t5 -53.5t2 -30.5q0 -10 -2 -35.5t-2 -46.5v-20h41q0 8 2 28.5t5 44t6 43t5 27.5q0 2 9.5 10t11.5 10 q8 12 6 39t-2 29l10 1055h-209q-12 0 -21 -13.5t-15.5 -32t-11.5 -35t-7 -22.5q-2 -12 -5 -46t-7 -71.5t-7.5 -72.5t-5.5 -47q-2 2 -12 -8.5t-23.5 -25.5t-26.5 -31.5t-20 -26.5q-25 14 -52 26t-29 -4q0 12 -5.5 27.5t-12.5 31t-17.5 27.5t-22.5 17q-4 0 -12 12t-16.5 25.5 t-16.5 23.5t-10 8q-4 27 -10.5 69t-10.5 66q-2 6 -7 22.5t-12 35t-16.5 32t-21.5 13.5h-207zM217 84q0 -4 1 -5t1 -3q0 6 1 15t3 20q-2 -10 -6 -27z" />
<glyph unicode="N" horiz-adv-x="716" d="M27 182q0 -2 5 -12t12 -22.5t15.5 -25.5t14.5 -20l6 -4l2 -4q2 0 6 -4q2 -8 6 -30.5t7 -47t5.5 -48t2.5 -34.5h12l35 -34h86v41v26t-2 29q0 8 -1 14t-1 10l-2 2q-2 6 -4.5 30t-4.5 46q-4 29 -7 54.5t-3 33.5v8l12 -12q18 -18 50 -18q4 0 7 1t7 1h18q4 8 8.5 22.5 t9.5 29.5t8 28.5t3 19.5q2 12 4 40t5 61.5t5 71.5t4 69l9 -8q6 -6 17 -10.5t22 -8.5q33 -47 55 -103.5t37.5 -115.5t24.5 -118.5t16 -110.5q10 -12 15 -15.5t11 -3.5l21 -20q10 -10 13 -12.5t11 -2.5h6q47 0 56.5 34t9.5 77q0 33 6 61.5t41 40.5v1059l-35 35v12h-196 q0 -20 -2 -68t-5.5 -100.5t-7.5 -99.5t-6 -63q0 -2 -1 -6.5t-1 -8.5q-25 31 -45 39h-4q-8 41 -14 83t-11 58l-2 2l-4 13l2 -2q-6 16 -17 44.5t-28 45.5l-16 14q-10 20 -24.5 34.5t-32.5 14.5h-252v-1112zM53 182v1086h226q12 0 22 -13.5t18.5 -32t13.5 -35t7 -22.5 q2 -12 8 -43.5t12.5 -67.5t12.5 -69t8 -45q4 6 19.5 14.5t21.5 6.5q12 -4 23.5 -16.5t19.5 -28t13 -31t5 -27.5q2 6 5.5 20.5t6.5 31t6 30.5t3 21q2 16 6 60t7 93t5 93t2 61h144v-1024q-35 -12 -41 -46t-6 -71q0 -35 -6.5 -62.5t-39.5 -27.5q-2 0 -5 1t-5 1q-6 59 -17 125.5 t-29.5 132t-47.5 126t-70 107.5q-2 2 -10 4.5t-19.5 5.5t-20.5 6t-11 5q-4 2 -11 19.5t-9.5 21.5t-9.5 11t-11 9q0 -16 -2 -60t-5 -93t-7 -93t-6 -61q-2 -10 -9.5 -41t-11.5 -41q-2 0 -9 -1t-11 -1q-33 0 -45.5 27.5t-16.5 56.5q-4 -14 -12 -41.5t-8 -40.5q0 -6 3 -30.5 t7 -52t7 -51t3 -30.5q0 -10 2 -35.5t2 -46.5v-20h-45q0 8 -2 28.5t-5 44t-7 43t-6 27.5q0 2 -9.5 10.5t-11.5 10.5q-10 12 -25.5 35.5t-15.5 25.5zM190 59v39q2 -14 3.5 -25.5t1.5 -13.5h-5z" />
<glyph unicode="O" horiz-adv-x="696" d="M18 852l21 -442q4 -43 23.5 -72t48.5 -57l8 -9q16 -16 27.5 -32.5t15.5 -38.5q2 -12 6 -41t7 -60.5t5 -59.5t2 -40l6 -14l35 -35q2 2 6 2l35 -35q43 16 56.5 52t17.5 75q4 23 7 44.5t13 31.5l23 -37q8 -18 29 -25l28 -28q12 -12 35 -13q31 0 59.5 36t54 91.5t47 122 t37 128t23.5 110.5t8 67v37q0 12 -1 24.5t-1 24.5v62q-4 29 -9 101.5t-11 154.5q-4 41 -7 83t-6 80t-5.5 67.5t-2.5 43.5l-34 33v14h-494l-31 -61q-2 -10 -5 -25.5t-7 -33.5q-4 -20 -8 -44t-8 -48.5t-9.5 -50t-9.5 -48.5q-4 -27 -7 -47t-7 -31q-2 -6 -9 -27.5t-12 -29.5z M45 842q4 6 11 29.5t10 31.5q4 18 12 64.5t18 98.5t18.5 99t12.5 66l20 41h451q2 -29 8 -101.5t12.5 -154.5t12.5 -155t8 -101v-23q0 -16 1 -39.5t1 -46.5v-37q0 -18 -7 -65t-21.5 -106.5t-34 -123t-42 -116.5t-49 -88t-55.5 -35q-14 0 -18 4l-62 102q0 2 -7 3t-11 1 q-31 0 -41 -28.5t-15.5 -65.5t-13.5 -70.5t-35 -43.5l-20 20q0 12 -2 41t-5 61.5t-7.5 61.5t-6.5 41q-4 31 -22.5 53.5t-40 45t-39.5 47t-20 59.5zM225 754q0 -31 3 -73t15.5 -80t37 -64.5t69.5 -26.5t70.5 27.5t38 67.5t14.5 84t2 75v29q0 20 -1 38.5t-1 32.5v17 q0 18 -2 39.5t-5 41t-6 32t-5 12.5h-185q-12 0 -21 -34t-14.5 -77t-7.5 -85t-2 -56zM287 713q0 14 1 52t4 78t8 70.5t11 30.5h135q-2 -18 -1 -29.5t1 -33.5v-66q0 -6 1.5 -11t1.5 -11v-29q0 -29 -2.5 -68t-11.5 -74.5t-28.5 -60t-56.5 -24.5q-25 0 -43 12q-16 37 -18 83 t-2 81zM436 33l2 -2q-2 0 -2 2z" />
<glyph unicode="P" horiz-adv-x="655" d="M25 1022q0 -31 1 -93.5t2 -142t4 -167t5 -167t4 -142t4 -91.5l2 -6q4 -10 10 -36.5t9 -37.5q2 -16 6 -57t7 -88t5 -90t2 -62h12l35 -35l39 -4q23 88 39 172t22 168q41 10 65 34t36 55.5t15 68.5t5 74v16t2 19h2q25 0 53.5 -16.5t69.5 -45.5q0 14 1 28.5t3 18.5 q2 10 6.5 24.5t10.5 24.5l30 -30q20 16 44 40.5t43.5 51t33 54.5t13.5 52v635l-35 35v12h-570l-36 -37v-235zM51 1022v137v88l21 21h532v-615q0 -45 -34.5 -91t-67.5 -73q-2 4 -9.5 11.5t-11.5 9.5l-4 1q-4 1 -6 1q-12 0 -21.5 -10t-15.5 -24.5t-9 -29t-5 -20.5 q-29 20 -51.5 31.5t-51.5 11.5q-4 0 -11 -1t-9 -1q-4 -41 -5 -84t-11.5 -81t-34 -65.5t-72.5 -35.5q-6 -88 -22.5 -175t-38.5 -173q0 16 -2 57t-5.5 87t-7.5 86t-6 56q-2 10 -9 41t-11 41q-2 29 -4 91.5t-4.5 141.5t-5.5 166t-4 165.5t-2 142t-1 92.5zM276 815 q0 -37 7.5 -59.5t48.5 -22.5q55 0 79.5 26.5t32.5 66.5q7 32 7 70v18q-2 48 -2 87h-152l-3 -18t-6 -45t-6 -54.5t-6 -45.5v-23zM338 760v35q2 16 2 41v47v41t-2 16h86v-12q0 -6 1 -12.5t1 -12.5q0 -53 -16.5 -97t-71.5 -46z" />
<glyph unicode="Q" horiz-adv-x="655" d="M20 629q0 -84 13.5 -149.5t29.5 -129.5l7 -18q10 -41 20 -85t14 -95q10 -12 15.5 -15.5t11.5 -3.5l21 -20q10 -10 13 -12.5t11 -2.5h6h6t15 4l2 2q2 -16 2 -30v-15v-53q0 -10 1 -19.5t1 -19.5t-1 -19t-1 -20v-135q4 4 5 7t5 7l37 -36q29 39 46 66.5t25.5 47t11.5 36 t5 32.5q2 14 4 30.5t10 45.5q2 16 7.5 38.5t9.5 38.5v-14q2 -4 2 -10q0 -4 1 -7t1 -7q4 -18 14 -37t45 -39l15 -15q8 -8 17 -15t26 -13q10 47 22 74.5t27 52.5h-2q12 18 21 36.5t18 43.5q8 31 22 83t27.5 105t24 95t10.5 50v46q0 10 1 19t1 19v64q0 10 -1 21.5t-1 21.5v55 q-4 57 -15.5 144.5t-26 169t-25.5 140t-15 58.5l-35 35l-4 8l-2 4h-430q-14 0 -25.5 -45t-22 -112.5t-18.5 -149.5t-13 -155.5t-8.5 -130t-3.5 -72.5zM47 629q0 16 2 69.5t6 125t10.5 149.5t12.5 143.5t15 108.5t18 43h430q2 0 10 -56.5t18.5 -134.5t19.5 -162t13 -139v-20 q0 -16 1 -37t1 -41v-33v-31q0 -18 -1 -36.5t-1 -32.5v-15q0 -8 -9 -49t-22.5 -93t-28 -104.5t-22.5 -80.5q-8 -27 -19.5 -47.5t-23.5 -41t-22.5 -43t-16.5 -53.5q-23 10 -27.5 37t-13.5 45q-4 8 -10 22.5t-13 28t-12 22.5l-6 9h-20l-6 -11q-6 -11 -13.5 -27.5t-13.5 -34 t-8 -29.5q-10 -39 -12 -64.5t-6.5 -46t-12.5 -42t-31 -52.5q0 10 1.5 37t1.5 55q0 31 -1.5 56.5t-1.5 35.5q0 2 -1 21.5t-6 43t-15.5 42t-28.5 18.5q-2 0 -6 -1l-4 -1l-20 -20l-4 -1q-5 -1 -7 -1t-5 1t-5 1q-6 61 -20.5 117.5t-27.5 111.5t-24.5 113.5t-11.5 124.5zM211 792 q2 -61 2 -100q0 -35 9 -80t20.5 -77.5t22.5 -42.5q2 -1 4 -1q8 0 12 33l14 174q14 0 38.5 -25.5t48.5 -52t40 -40t16 11.5v348q0 51 -30.5 77.5t-71.5 26.5q-55 0 -82 -39.5t-36 -96.5q-7 -46 -7 -95v-21zM274 725v29q0 39 3.5 79.5t13.5 73.5t30.5 54.5t55.5 21.5 q6 0 12 -1t14 -3q8 -20 9 -39v-315q-7 4 -11 10v2h2q-27 29 -57.5 57.5t-71.5 30.5z" />
<glyph unicode="R" horiz-adv-x="675" d="M33 244q0 -23 9 -33t24 -14l24 -23q10 -10 26.5 -12t26.5 -2q25 0 37 6q6 -12 17.5 -31.5t31.5 -48.5q0 2 1 3t1 3l37 -35q41 113 55.5 201t18.5 174q23 -43 36 -91t25 -95q2 -4 3 -10q0 -6 2 -11q10 -47 23 -91t34 -85q6 -14 20.5 -34.5t27.5 -39t24.5 -32t13.5 -13.5h4 l35 -34h63q0 12 3 41.5t6.5 61.5t6.5 59.5t5 37.5q0 6 10 21q4 6 7 12t3 12v9q0 117 -25.5 217t-76.5 204q14 20 32.5 43t34 48.5t15.5 52.5v532l-35 35v12h-606v-1050zM59 244v1024h553v-512q0 -18 -10 -37t-24.5 -37t-27.5 -35.5t-20 -34.5q51 -104 77 -204.5t26 -217.5 v-8q-2 -4 -11.5 -20.5t-9.5 -20.5q-2 -10 -5 -35.5t-6 -55.5t-6 -56.5t-3 -36.5h-41l-8 11q-8 12 -17.5 28t-19.5 33.5t-17 29.5q-29 57 -44 126t-32.5 136.5t-45 127t-82.5 102.5q-4 -111 -13.5 -209t-48.5 -201q-25 35 -31 80t-30 84q-6 -43 -17.5 -63.5t-42.5 -20.5 q-10 0 -26.5 3t-16.5 20zM285 776q55 0 86.5 17.5t47 48t19.5 71.5t4 88h-157v-225zM346 815v125h68q-4 -43 -18.5 -76t-49.5 -49z" />
<glyph unicode="S" horiz-adv-x="622" d="M25 115q4 0 6 -1t6 -1l35 -33q10 0 26 -4q14 -23 20.5 -50.5t10.5 -54.5h12l35 -34h60v10l30 -31h72q0 14 2 46t4.5 66.5t7 65.5t6.5 43h-2q2 4 4 9.5t5 9.5q4 12 -1 24l-6 13h215l31 45v49q-2 55 -3 103t-1 95q0 33 1 67t3 69q2 23 2 53v59l-35 35v10l-125 78h5 q10 0 18 2q4 4 11 10t16 15l12 -11q6 -6 37 15q6 4 16 10t21 6q2 0 39 -16q4 29 5 41t1 22v125q0 16 -1 32.5t-1 37.5v80l-35 35v12q-23 2 -76 6t-112.5 7t-112.5 6t-74 3h-22q-59 0 -92 -26.5t-50.5 -66.5t-21.5 -88t-4 -91q0 -16 2 -57t5 -87.5t7 -87t6 -57.5 q4 -35 19.5 -54.5t37.5 -29.5l17 -14q20 -20 51 -27.5t66 -11.5q14 -4 27 -5t28 -5q0 -4 1 -8.5t1 -8.5q0 -12 -3 -37.5t-14 -25.5h-251v-391zM51 141v338h225q14 0 23.5 10.5t13.5 25.5t5 29.5t1 24.5q0 35 -17 51.5t-43 24.5t-57.5 11t-59 9.5t-47 21.5t-23.5 48 q-2 16 -6.5 57.5t-7.5 86.5t-5 86t-2 57q0 39 4 82t17.5 80t42 60.5t78.5 23.5h22q20 0 69.5 -2t104.5 -5.5t104.5 -7.5t69.5 -6v-61q0 -37 1 -63.5t1 -51.5v-51v-29v-16q0 -6 -2 -17q-16 8 -30.5 6t-25.5 -9t-18.5 -13t-7.5 -2t-8 12.5t-12 8.5q-4 -6 -19.5 -21.5 t-21.5 -19.5l-4 -1q-4 -1 -6 -1q-12 0 -16.5 7t-7.5 15t-8 15.5t-18 7.5q-47 0 -87 -14.5t-40 -69.5q0 -4 1.5 -11.5t1.5 -9.5q25 -10 43 -10h53q29 0 54.5 -2t45.5 -15l113 -69q-2 -68 -4 -124t-2 -112q0 -55 1 -113.5t3 -127.5l-21 -31h-205l-3 -8t-6 -19.5t-6 -24 t-5 -20.5q-2 -12 -6 -40.5t-7 -61.5t-5.5 -61.5t-2.5 -41.5h-30v226l-31 20l-41 -41v-184h-20q-4 25 -9.5 49.5t-15.5 46t-28.5 34.5t-49.5 13zM305 874q10 12 29.5 18.5t42.5 8.5q8 -8 18 -10l25 -25q-18 6 -41 7t-47 1h-27z" />
<glyph unicode="T" horiz-adv-x="737" d="M20 864h13l35 -35q29 0 45 10.5t28 26.5q10 12 24.5 28.5t39.5 23.5q0 -59 3 -137.5t7 -157.5q2 -47 3 -92.5t3 -86.5q2 -61 3 -109t1 -71v-33q0 -27 8.5 -55.5t38.5 -42.5l25 -22q12 -18 41 -19v-115q4 0 5 1.5t5 1.5l37 -37q33 0 53.5 22.5t32.5 57t18.5 76.5t12.5 81 q4 29 7 52.5t9 46.5v639l1 -2q1 -1 3 2l2 2h2v2h2l2 2q4 -2 23 -2v-250h12l35 -35q33 0 54.5 15.5t36 38t23.5 50t15 50.5h-2q4 10 5 17t11 26v413l-34 35v12h-689v-430zM47 891v377h635v-389q-6 -12 -13 -42t-19.5 -61t-29 -54.5t-40.5 -23.5v222l-12 8q-11 8 -26.5 19 t-28.5 21.5t-15 12.5l-3 1q-3 1 -8 1q-2 0 -6 -1l-4 -1q-4 -4 -12 -10t-8 -10v-635q-8 -25 -13.5 -78t-14.5 -107.5t-23.5 -95.5t-40.5 -41v219q0 2 -12.5 9.5t-18.5 11.5l-4 1q-4 1 -6 1q-12 0 -19.5 -12.5t-10.5 -28t-4 -30.5t-1 -21q-18 0 -25.5 14t-10.5 33.5t-2 38 t1 24.5q0 27 -1 83t-4 127t-5 148.5t-5.5 148.5t-4.5 127t-1 83q-4 0 -20 1t-21 1q-35 0 -57 -14.5t-36.5 -31.5t-26 -31.5t-23.5 -14.5zM545 965q4 2 8 6v-4q-2 0 -4 -1t-4 -1z" />
<glyph unicode="U" horiz-adv-x="677" d="M41 870q0 -41 1 -88t2 -97t1 -93q0 -33 1 -59.5t1 -43.5v-22q2 -47 9 -117.5t17.5 -136.5t20.5 -113t21 -47h6l35 -35h51v103q8 -8 12 -10l2 -2q2 -2 10 -7l2 -2q8 -2 15 -2h12l41 -237q2 6 8 8l37 -37q39 39 52.5 93.5t17.5 113.5q4 47 9 90t15.5 65.5t28.5 29.5 t40.5 13.5t45.5 13.5t41 26.5t32.5 54.5t18.5 94q2 29 5 98.5t6.5 149.5t6.5 151.5t3 106.5q6 10 13 25.5t7 23.5l-5 11q-5 12 -9 22q-4 4 -5 6l-1 2v25q0 14 -1 31.5t-1 35.5t1 35.5t1 32.5v32l-35 35v8l-37 37h-211v-661l-13 -6l-22 -11v631l-35 35v12h-231l-37 -37v-18 q0 -12 -1 -30.5t-1 -41.5q-2 -57 -3 -124.5t-1 -102.5v-70zM68 940q0 27 1 75t2 97t2 88t1 47l20 21h195v-635q0 -4 20.5 -19.5t30.5 -21.5l4 -1q4 -1 6 -1t6 1l4 1q12 6 32 21.5t20 19.5v635h174l20 -21q0 -10 -1 -36.5t-1 -55.5t1 -55.5t1 -36.5q0 -4 10.5 -20.5 t10.5 -20.5q0 -6 -8.5 -21.5t-12.5 -19.5q0 -31 -2 -103.5t-5 -153.5t-7 -153.5t-6 -101.5q-6 -88 -33 -120t-59.5 -42t-64.5 -17t-48 -46q-12 -29 -18.5 -78t-10.5 -100.5t-11 -93.5t-22 -56l-40 246q0 4 -8.5 11t-12.5 9l-4 1q-4 1 -6 1t-6 -1l-4 -1l-21 -20l-4 -1t-6 -1 t-6 1l-4 1q-6 4 -26.5 19.5t-25.5 21.5v-123h-30q-4 0 -10.5 44t-12.5 106.5t-11 129t-7 109.5q0 12 -1 71.5t-2 134.5t-2 149.5t-1 115.5z" />
<glyph unicode="V" horiz-adv-x="860" d="M18 1294l172 -710q12 -8 17 -9q2 -12 9 -37.5t15.5 -55t16.5 -57.5t14 -44l-8 4l-6 -8q12 -12 20 -12l27 -27q18 -20 28.5 2t20.5 57q35 -86 51.5 -185t26.5 -185v-52v-28q0 -14 2 -31q0 -4 1 -11t1 -11q6 0 10 2l37 -37q27 0 43 26.5t25.5 62.5t12.5 72.5t3 55.5 q0 33 5 61.5t36 40.5l276 1073l-36 35l4 12l-277 -4q0 -35 -17.5 -92t-35.5 -112q-16 -47 -28.5 -85t-14.5 -55q0 -4 -1 -12t-3 -18q-10 10 -21.5 19t-23.5 13q-2 14 -2 29v33q-4 41 -5 77.5t-3 49.5q-4 6 -13.5 20.5t-25.5 30.5q-6 10 -21.5 27.5t-33 34t-36 28.5t-30.5 12 h-232zM53 1268h197q12 0 27.5 -11.5t31 -27t26.5 -29.5t13 -20q2 -12 4 -48t5 -76t5.5 -76t4.5 -48q4 6 23.5 2t25.5 -6q23 -8 42 -34t19 -48q2 6 5 20.5t6.5 30.5t5.5 30.5t2 20.5q2 16 17 62.5t32.5 97.5t32 97t14.5 63l215 4l-268 -1039q-33 -12 -38 -45.5t-5 -70.5 q0 -18 -2 -51t-7.5 -65t-13.5 -56.5t-22 -24.5l-1 18q-1 17 -1 37v35v19q-6 59 -15.5 125.5t-26 132t-41 126t-61.5 107.5q-2 2 -7 -18.5t-11 -45t-11.5 -45t-7.5 -18.5q-2 0 -7 29t-11 63.5t-11.5 64.5t-5.5 32q-2 4 -8 11t-10 9zM254 379l4 -4q-4 0 -4 4zM346 1214 q2 0 2 -2z" />
<glyph unicode="W" horiz-adv-x="1163" d="M23 1298l260 -4v-12l34 -35q0 -29 16.5 -88t35.5 -119q14 -41 23 -78.5t14 -54.5l6 -12v-2l-4 4l4 -4q0 -4 4 -4v-2h2h2l4 -4q4 -4 4 -6h2q0 -2 1 -3l1 -2q10 -14 10 -16l4 -2l7 -14v-2l8 -7h-4l-6 5l-13 10l-8 8l-18 20q-4 2 0 7q-2 2 -2 6l-9 8v-45l-41 41l39 6 q-6 12 -10 16l12 -10l-2 2q0 2 -2 4l4 -4v-2l11 -10q0 -2 2 -2l2 -2q2 4 4 5t4 5q6 10 10 20.5t10 18.5v16t2 19q0 6 1.5 13t1.5 13l159 326l10 -10l97 -340q0 -2 1 -4t1 -4v2q0 -2 1 -3t1 -3l-10 10l10 -12v-11v-4v-10q0 -4 2 -12q4 4 9 8t9 8l4 -4h2l-6 4q4 4 6 4l3 -6 l8 4l8 4h2v2q4 2 9 3t18 3q2 18 3 45t3 56q4 37 7 73.5t3 47.5q4 0 4 4h-6q4 8 16.5 26.5t29.5 37t34.5 31.5t32.5 13h208l5 -6l-156 -700q-16 -8 -19 -9q-2 -12 -7 -35.5t-12 -51t-14 -54t-14 -45.5q6 16 12.5 43t11.5 54.5t10 52t7 34.5v2l2 7l2 -2q8 4 15 8l147 661h-157 q-14 0 -32 -13t-34 -30.5t-29.5 -36t-17.5 -26.5h2l-1 -13q-1 -12 -2 -30.5t-3 -41t-4 -42.5q-2 -23 -2 -43t-2 -37l30 -31l-35 -12l-18 18q-2 0 -2 -2h-2h2q-2 0 -3 -1t-3 -1q-23 -8 -47 -37q4 -16 7 -34.5t5 -24.5l-41 -6l-41 41q0 16 8.5 32.5t20.5 32.5q-4 12 -4 23v14 v4q0 10 -1 13.5t-3 9.5l-78 272l-142 -287q0 -6 -1 -14t-1 -14h-2v-2l21 -19l-21 -20l-4 2l-16 -33q-4 -4 -7 -9t-5 -9l8 -9q-6 0 -8 3l-2 2v-2l-13 12l-8 8l-29 -4l-41 41v55l13 -12q-8 8 -8 14l-13.5 54t-23.5 79q-14 43 -26.5 87t-20.5 79l-209 4l229 -1085v2l39 -39 q-2 0 -3 1l-1 1l6 -4q23 -23 23 -55q0 -29 7 -82t25 -94q4 -2 11 -2v75v25q0 4 2 26q2 51 9 109.5t19.5 117t30.5 114t43 102.5v4q-2 4 -2 8q0 6 -2 10l10 -12l25 37l26 -27l-10 43l41 2l41 -41q-4 -23 -9 -47t-11 -47l51 -211l20 -20q16 -16 18.5 -40t2.5 -50q0 -25 4 -74 t14 -90q18 -4 41 24q10 12 14.5 17.5t14.5 15.5q6 106 17 154.5t56 48.5q14 0 25 -2q20 0 23.5 12t3.5 39q0 16 -1 33.5t-1 36.5q-2 16 -2 30v33l-19 19h2q0 -2 4 10l6 2l3 2q10 0 10 -29v-32t2 -35q0 -10 1 -19.5t1 -19.5v-31q0 -29 -4 -43t-31 -14q-10 2 -23 2 q-41 0 -51 -47t-16 -152l-14 -14l-17 -21q-12 -16 -23.5 -21t-19.5 -5l15 -15q-16 0 -35 19l-4 4v2q-8 12 -11 18q-8 18 -13 44t-8 52.5t-4 49t-1 37.5q0 18 -1 36.5t-7 32.5l-31 33l-29 115h-2l-4 -2l-20 86q-4 -10 -6.5 -18.5t-6.5 -16.5l4 2l6 -8q-6 -6 -12 -6h-4 q0 -2 -2 -2l-2 4h2q0 2 2 4l-4 4q-8 8 -12 16l-2 2q-2 -2 -2 -4t-2 -4q-18 29 -27 59q-47 -92 -67.5 -208.5t-26.5 -217.5v-6q-2 -16 -2 -22v-23v-82q-14 0 -23 7l-14 14q-16 14 -26.5 43t-16.5 59.5t-8 58t-2 44.5q0 20 -7 32l-10 5q-6 8 -12 15t-16 13l-15 15l-233 1099 l245 -4l7 -6q4 -35 19 -90t32 -109q14 -41 23.5 -78.5t13.5 -54.5q0 -6 14 -20l2 -2q2 0 4 -2h-2q6 -4 12 -13q2 -2 2 -4l3 -2q0 -6 6 -14l4 4q4 6 7 12t5 13q4 10 10 20q0 20 2 31v12q0 4 1 8t1 8l168 342l8 -28l31 -31l96 -340q4 4 17 8h4v2q2 0 3 1t3 1q-2 0 14 5 q2 23 3.5 47t3.5 47q2 16 3 35.5t3 36t3 30.5t1 21v4h-2q2 8 16 26.5t31.5 38t37 33.5t34.5 14h217l-4 -12l36 -35l-157 -702q-4 -4 -9.5 -6t-7.5 -4l-7 -35t-11 -54.5t-13.5 -58.5t-13.5 -45l11 -8q2 -2 2 -21v-32t2 -35q0 -18 1 -35.5t1 -34.5q0 -27 -3 -39t-24 -12 q-10 2 -25 2q-45 0 -56 -48t-17 -155q-10 -10 -14.5 -15t-14.5 -18q-20 -25 -37 -24q-14 0 -20 4l18 -18q-10 0 -18 8l-41 41q-10 10 -17 28q-10 20 -16 46t-10 51.5t-5 48t-1 37.5q0 31 -5.5 58.5t-33.5 39.5l-29 117h-2l-39 37q-2 -2 -4 -3l-2 11l-7 7l-7 7 q-43 -92 -61.5 -201.5t-24.5 -205.5q-2 -23 -2 -27v-25v-75q-16 0 -31 14l-27 27q-23 10 -37 37.5t-22 61.5t-11.5 67.5t-3.5 52.5q0 20 -10 37l-2 2l-26 26q-4 4 -10.5 5t-10.5 5zM57 1272l226 -1065q29 -12 45 -34.5t16 -59.5q0 -18 2 -52t6 -66t13.5 -56.5t21.5 -24.5v18 v37q0 18 1 36l1 18q4 59 12.5 126.5t23.5 133t38.5 126t58.5 107.5q0 2 4 -18.5t10.5 -45t11.5 -45t7 -18.5l3 15q3 14 7 35.5t7 46t8 44.5l71 -301q31 -12 36 -45.5t5 -70.5q0 -18 2 -52t6.5 -66t12.5 -56.5t20 -24.5l7 9q8 9 17 21.5t16 21.5l7 9q4 61 9.5 104.5t17.5 69 t34.5 35t61.5 2.5q2 0 2 31t-2 69t-2 68q0 33 2 35q2 0 7 28.5t10.5 64.5t9.5 66t4 32q2 4 8 11t10 9l150 668h-182q-10 0 -24.5 -11.5t-29 -27t-25 -29.5t-12.5 -20q-2 -12 -4 -48t-5 -76t-5 -77t-4 -49q-4 6 -21.5 2t-23.5 -6q-20 -8 -38.5 -34t-18.5 -48q-2 6 -4.5 20.5 t-5.5 30.5t-5 30.5t-2 20.5q0 2 -1 7t-3 16l-86 299l-133 -273q-2 -23 -3 -40t-1 -25q-2 2 -8 -9.5t-13.5 -26.5t-14.5 -28.5t-9 -13.5q-10 -4 -17.5 6t-11.5 20.5t-7 16.5t-3 -4q-4 10 -20.5 27.5t-16.5 27.5q-2 16 -16.5 62.5t-29.5 98.5t-28.5 98t-13.5 63zM381 924v2 l2 -2h-2zM385 922l4 -4q-4 0 -4 4zM520 463q5 10 17 26q0 -82 -2 -81l-5 15q-4 15 -10 40zM719 961l20 -21l-20 23v-2zM803 1182l6 -6v2l-2 2zM909 379q0 2 1 3t1 5q0 -4 -1 -5t-1 -3z" />
<glyph unicode="X" horiz-adv-x="669" d="M25 1294h268l2 -14l33 -33l14 -108l39 155h199l67 -6v-12l35 -35v-20q0 -10 -13.5 -46t-35.5 -79q-23 -49 -42.5 -95.5t-19.5 -56.5q0 -25 -14 -78t-29 -102q-10 -31 -15 -51.5t-5 -22.5l4 -16q0 -4 1 -5t1 -3l12 -13q12 -12 23.5 -24.5t15.5 -22.5l15 -12q25 -25 24 -39 v-2q0 -16 3 -48t8.5 -72t11.5 -84t12 -87q8 -53 14 -98t9 -68q0 -14 -8.5 -24.5t-20.5 -26.5q-16 -20 -41 -62t-53 -143l-37 37q-2 -4 -2 -8q0 -6 -2 -10q-25 84 -38.5 131t-23.5 79.5t-21.5 61.5t-29.5 76q10 4 14 15t4 24q0 29 -4 45l-18 65l-8 -47l-11 -319l-34 35v-9 l-43 47v-59l6 -4q-4 -59 -6 -91t-8.5 -47.5t-17.5 -17.5t-32 -2q-16 0 -45 29l-10 10q-14 6 -37 29q-16 49 -29.5 82t-25.5 57q-2 4 -3 7t-3 7q-4 4 -6 9.5t-5 9.5q-18 33 -18 55q2 16 5 46t9 69q2 12 4.5 25.5t4.5 25.5q6 43 12 87t11 84t8 72t3 48v2q0 10 8.5 23.5 t18.5 25.5q2 2 3 4t3 4l6 6q4 8 10.5 23.5t12.5 28.5v2l10 37q-2 4 -2 6q0 4 -2 8q-4 16 -11 36.5t-16 45.5q-14 43 -30.5 93t-30.5 94t-23.5 77t-9.5 45q0 14 -5 33.5t-11 38.5q0 2 -1 4t-1 4q-2 6 -4 15.5t-2 43.5zM51 1268q0 -10 12.5 -47t12.5 -66q0 -16 16.5 -71.5 t38 -122t43 -127t29.5 -84.5l-13 -43q-4 -4 -14 -28t-10 -26q0 -4 -6 -12t-14.5 -18.5t-13.5 -18.5t-3 -10q0 -29 -8 -93.5t-18.5 -136t-19.5 -136t-11 -91.5q0 -20 32.5 -76.5t57.5 -140.5q15 -16 26 -16q6 0 10 4q13 14 20 40.5t9 53.5l2 27q-4 2 -5 28.5t1 63.5t6.5 76 t8.5 67q14 -41 24 -71.5t10 -26.5l-10 -41l39 -43l8 272l39 203h4l72 -256q0 -2 2 -18.5t2 -36.5t-2 -38t-8 -20l7 -18t18.5 -50t25.5 -74t27 -89q12 41 29.5 70.5t34 51t27.5 35t11 23.5q-2 27 -11 91.5t-19.5 136t-18.5 136t-8 93.5q2 2 -11.5 16.5t-31 31.5t-31.5 31.5 t-14 18.5t-4.5 19.5t-4.5 19.5q0 6 10.5 41t21.5 77t21.5 81t10.5 55q0 14 19.5 59.5t41 94.5t39.5 87q13 28 13 36q0 2 -2 2l-43 4h-175l-84 -342l-51 342h-217z" />
<glyph unicode="Y" horiz-adv-x="661" d="M14 1260q0 -8 5.5 -27t13.5 -43.5t17 -51t20 -51.5q4 -10 7 -19t7 -19q12 -23 14 -43q29 -90 66 -173t84 -178v-178l-15 -53v-350l11 12l37 -37v-45q0 -33 6 -54.5t28 -25.5l27 -26q8 -8 23 -9q20 0 41 27q18 59 33.5 92t27.5 60q12 25 20.5 40t8.5 31v2l-2 33q0 35 6 76 q4 23 6 46t2 52h-2q2 12 6 32.5t6 39t4 33t2 18.5t-5 14.5t-9 20.5q-10 16 -10 24l-11 37q10 35 21.5 59.5t28.5 57.5q29 61 53 117.5t24 79.5q0 6 4.5 30.5t9.5 57t12 70.5t13 73q8 43 13.5 80t5.5 55l-35 35v12h-268l-25 -168l-29 121l-30 31l-4 16h-199l-43 -4 q-20 -2 -23.5 -11t-3.5 -19zM41 1260q0 4 2 4l43 4h174l84 -342l51 342h217q0 -6 -9 -55.5t-19.5 -109t-19.5 -113.5t-9 -68t-17.5 -56.5t-39 -91.5t-43 -95t-29.5 -71l12 -43q0 -2 4 -10t9.5 -17.5t8.5 -17.5l3 -8q0 -4 -2 -22.5t-4 -40t-5 -40t-6 -20.5q0 -51 -7 -91 t-7 -85l2 -31v-2q0 -20 -32.5 -76.5t-57.5 -138.5q-12 -14 -20 -14q-10 0 -13.5 15.5t-3.5 37.5q0 29 3 56l3 26q10 8 27.5 44t17.5 67q0 35 -28 43q-10 -29 -23 -29l-8 -25l-39 -43v273l14 51v197q-45 92 -81.5 175t-67.5 177q-4 12 -18.5 48t-29 76t-25.5 74.5t-11 45.5z " />
<glyph unicode="Z" horiz-adv-x="729" d="M16 166l76 336h25l264 428q-43 -4 -92 -6t-76 -4v-222q-43 0 -72 29l-18 16q-39 20 -56.5 60.5t-27.5 77.5q0 2 -1 6t-1 8q-4 12 -2 10q-2 4 -4 11.5t-8 17.5l-3 360h691l-2 -12l36 -35l-16 -291q0 -23 -14.5 -61.5t-38 -88.5t-54 -109.5t-63.5 -121.5l-37 -67l133 4v-12 l35 -35v-211v-45q0 -23 -2 -45q0 -16 -5 -50t-10 -72t-11.5 -71.5t-8.5 -48.5l-37 37v-6q-37 33 -54 57.5t-27 48.5q-10 16 -18.5 33t-18.5 33q-4 0 -8.5 1t-8.5 1q-20 0 -40.5 -15.5t-36 -38t-24.5 -46t-9 -41.5l-41 28q-6 -14 -21.5 -23t-44.5 -9l-26 24l-15 -145 q-25 0 -43 20l-24 25q-35 23 -59.5 81t-28.5 144h-2l-35 35h-15zM47 1268l2 -328q6 -12 13.5 -42t19.5 -60.5t28.5 -54t41.5 -23.5v221l38 2q37 2 84.5 5t86 6t40.5 5l3 1q4 1 8 1q2 0 6 -1l4 -1q4 -4 12 -10t8 -10l-307 -504h-20l-64 -282q12 0 18.5 -1.5t8.5 -1.5 q4 0 6 1.5t10 5.5q-1 -16 -1 -32q0 -39 4 -75q5 -50 14.5 -87.5t22.5 -59t30 -21.5l14 137l2 11q2 12 5 25.5t6.5 24.5t7.5 13l4 1q4 1 6 1q12 0 19.5 -12t10.5 -27.5t4 -31t1 -21.5q18 0 25 15.5t12 35.5v-8l28 -20q0 14 11.5 35.5t30 41t41.5 32.5t48 13q35 0 58.5 -23.5 t40 -54t30 -61.5t29.5 -45q2 12 7 41t9 60.5t8.5 60.5t4.5 41q3 53 3 99v22q-1 55 -1 114v43l-205 -4q41 80 84 162t79 152.5t58.5 125t22.5 78.5l14 269h-635z" />
<glyph unicode="[" horiz-adv-x="526" d="M20 -4q0 -16 10.5 -48t27 -65t36 -58.5t37.5 -31.5l21 -20q16 -16 28 -17h4q2 0 12.5 1t12.5 1q4 31 8 52.5t9 39t9.5 33t8.5 31.5q8 -8 22 -12l25 -25q16 -16 51 -16h12q33 14 44.5 50t15.5 71q14 -16 28 -25l21 -20q14 -14 33 -21v426l-35 35v12h-156q6 53 15.5 157.5 t9.5 244.5v131q0 68 2 137h143q16 0 28.5 42t20.5 97t12.5 109.5t4.5 78.5l-35 35v13h-465q0 -35 -1 -123t-3 -205q-2 -88 -3 -185.5t-3 -195.5q-2 -113 -4 -222.5t-3 -200.5t-2.5 -158.5t-1.5 -98.5v-49zM47 -4v49q0 31 1 98.5t2 159.5t3 200.5t4 222.5t4 222.5t3.5 200.5 t2.5 159.5t1 98.5h411q0 -20 -3 -67.5t-8 -96.5t-13.5 -86t-20.5 -37h-162q-6 -141 -5 -278t3 -243.5t6 -171.5l3 -65h155v-378q-12 4 -19 19t-12.5 31.5t-7.5 32t-2 19.5h-41q0 -2 1 -24.5t-2 -50t-12 -54.5t-28 -35h-10q-39 0 -44 22.5t-2 49t1 49.5t-35 23h-10 q-14 -63 -32.5 -122t-28.5 -124q-2 0 -5.5 -1t-5.5 -1q-14 0 -30.5 22.5t-29.5 52t-22.5 59.5t-9.5 44zM252 389q0 -2 6 31t16 92q-4 -47 -9 -80t-7 -43h-6z" />
<glyph unicode="\" horiz-adv-x="669" d="M45 1262q0 -10 13.5 -47t35.5 -80q23 -49 42.5 -94.5t19.5 -55.5q0 -72 25.5 -143.5t60.5 -149.5q33 -74 63.5 -157.5t48.5 -188.5l11 -330l8 11l39 -37l24 28q2 -41 4 -67.5t6.5 -41.5t11.5 -21.5t17 -8.5l29 -29q6 -6 16 -7t27 -1q16 0 45 29q16 57 32.5 92t28.5 62 q12 25 20.5 40t8.5 31q-2 23 -8 68t-15 98q-6 43 -12 87t-11 84t-8 72t-3 48v2q0 10 -7.5 22.5t-17.5 22.5q-12 16 -12 14q-10 25 -17.5 41.5t-21.5 43t-41 70.5t-76 124l-86 354l-31 31l-4 16h-198l-68 -6v-26zM72 1264l43 4h174l84 -342q63 -106 98 -169t45 -82.5 t10 -21.5q0 -4 6.5 -12t14.5 -18.5t13 -18.5t3 -10q0 -29 8.5 -93.5t18.5 -136t19 -136t12 -91.5q0 -20 -33 -76.5t-58 -140.5q-23 -25 -36 -11.5t-20 40t-9 53.5l-2 27q4 2 5 28.5t-1 63.5t-6 76t-8 67q-14 -41 -24.5 -71.5t-10.5 -26.5l10 -41l-39 -43l-8 272 q-18 104 -52 191.5t-66 163t-56.5 143.5t-24.5 133q0 14 -19.5 59.5t-41 94.5t-38.5 87t-11 38z" />
<glyph unicode="]" horiz-adv-x="526" d="M18 1434h465v-13l35 -35q0 -31 1 -101.5t2 -166.5t3 -208.5t4 -225.5t3 -222.5t3.5 -200.5t3.5 -158.5t1 -98.5v-49q0 -16 -11.5 -49t-28 -67t-36 -58.5t-37.5 -24.5h-6q-8 0 -11 2t-14 13l-20 20q-8 0 -27 19q-10 57 -20 92q-4 -16 -18.5 -28.5t-45.5 -12.5h-12 q-16 8 -23 14l-20 21q-37 14 -51 59q-10 -12 -20.5 -22.5t-26.5 -16.5l-37 37q-4 -2 -6 -2t-5 -2v440h201q-2 10 -6 44t-8 83q-10 59 -15.5 137t-5.5 178v111q0 57 -2 117h-96q-6 0 -10 4l-31 31q-18 0 -31.5 44t-22.5 101t-13.5 113.5t-4.5 81.5zM45 1407q0 -20 3 -67.5 t8 -96.5t13.5 -86t20.5 -37h162q6 -141 5 -278t-3 -243.5t-5 -171.5l-3 -65h-156v-378q12 4 19.5 19t12.5 31.5t7 32t2 19.5h41q0 -2 -1 -24.5t2 -50t12.5 -54.5t27.5 -35h10q39 0 44 22.5t2 49t-1 49.5t35 23h10q14 -63 33 -122t29 -124q2 0 5 -1t5 -1q14 0 30.5 22.5 t30 52t22.5 59.5t9 44v49q0 31 -1 98.5t-2 159.5t-3 200.5t-4 222.5t-4 222.5t-3 200.5t-2 159.5t-1 98.5h-412z" />
<glyph unicode="^" horiz-adv-x="495" d="M25 1296l108 164l154 6l71 -14l17 -27l22 -20l105 -156q-23 -23 -26 -36t-3 -23l-14 -14q-16 0 -33 16l-6 6v-2l-21 18h-4l-14 -18q-8 -8 -10 -9t-11 -1q-14 0 -22 10l-25 25q-14 2 -30 24l-7 6l-28 -37q-16 -20 -37 -20h-4v-18l-60 -9q-33 0 -38 7l-31 28 q-16 4 -19.5 12.5t-3.5 30.5q0 6 -4 16.5t-26 34.5zM59 1298q16 -18 19.5 -30.5t3.5 -22.5t3 -13t19 -3l41 6v16q2 12 7 13q4 0 7 -4.5t11 -4.5q10 0 20 13l54 63l59 -69q14 -18 21 -13l28 35q8 0 18.5 -9t19.5 -18.5t15.5 -15.5t6.5 -2q0 10 3 22.5t19 30.5l-90 135l-63 13 l-131 -6z" />
<glyph unicode="_" horiz-adv-x="679" d="M35 547l2 -393q0 -16 1 -36t5 -37.5t13.5 -31.5t25.5 -20l24 -23q14 -14 37 -14l131 47q8 39 9 59v19q0 4 -1 6t-1 6q0 2 -1 8t3 17q2 -2 2 -4t2 -7v2q10 -27 25.5 -50t43.5 -36l17 -14q12 -12 28.5 -19.5t40.5 -7.5h13q14 6 33.5 20.5t39 33t38 40t28.5 40.5 q8 -10 17.5 -20.5t21.5 -18.5l20 -19q14 -14 33 -20v426l-35 35v12h-616zM61 520h564v-379q-12 4 -19.5 19.5t-12.5 32t-7 32t-2 19.5h-41v-2v-9v-8q0 -14 -14.5 -36.5t-36 -44t-44 -40t-36.5 -24.5h-11q-39 0 -56 22.5t-30.5 49t-29 49t-47.5 22.5h-11q-4 -23 -6 -35 t-2 -20q0 -6 1 -12t1 -17q0 -12 -6 -45l-113 -41q-14 0 -22 10.5t-11 25.5t-4.5 32.5t-1.5 32.5z" />
<glyph unicode="`" horiz-adv-x="374" d="M-2 1483h246l18 -27l21 -20l106 -158q-23 -23 -26 -33t-3 -18q0 -25 -5 -31t-40 -6l-59 8l-25 25q-8 4 -10 8h-2l-10 2v10l-10 8q-18 4 -29 23zM53 1456l137 -166q8 -12 21 -12q8 0 11 4t7 4q2 0 7 -12v-17l40 -6q16 0 19.5 3t3.5 14q0 10 3 22.5t20 30.5l-91 135h-178z " />
<glyph unicode="a" horiz-adv-x="733" d="M14 94v117l23 76q-2 14 -4 31.5t-4 33.5q-6 33 -6 66v31q0 27 13 100.5t36.5 167.5t52.5 196.5t58.5 186.5t59 139t52.5 55h229q4 -2 7.5 -4t19.5 -16l10 -10q4 -8 10.5 -15.5t10.5 -15.5l16 -14q55 -72 85 -164t43 -192.5t16 -200t3 -183.5v-63q0 -23 -3 -41.5t-7 -38.5 q-10 -45 -10 -70v-43q0 -4 -1 -20.5t-3 -39t-5 -45t-5 -36.5q0 -27 -11 -27q-10 0 -26 17l-21 18h-2q-4 -23 -6 -43t-2 -29h-57l-35 35h-10q-2 4 -6.5 17.5l-8.5 25.5q-2 6 -4 16.5t-4 14.5q-10 33 -20.5 72t-10.5 63q0 27 17 43q14 12 14 39q0 20 -6 39l-213 10l-41 -381 q-33 0 -50.5 6.5t-27.5 16.5l-24 22q-2 0 -10 4v-8q0 -12 2 -20t2 -17v-18q0 -20 -10.5 -35.5t-41.5 -19.5l-37 37q-2 0 -3 -1.5t-3 -1.5l-39 43v37q0 10 -1 18.5t-1 18.5zM41 160q0 -31 1 -65t1 -64l23 -25q23 4 23.5 23.5t-2.5 42t0 41t30 18.5q14 0 19 -9t10.5 -19.5 t15.5 -19.5t37 -9l41 383l256 -13q14 -2 27.5 -22.5t18.5 -47t1 -52t-23 -37.5q-10 -6 -6 -35t13.5 -62.5t20.5 -64.5t13 -43h21q0 6 2 20.5t5 30.5t6 30.5t7 20.5q0 2 7 -8t16.5 -22.5t16.5 -21.5t7 -7q2 2 5 23.5t5.5 46t3.5 46t1 25.5v43q0 33 10 75t10 75v45 q0 84 -2 184t-15.5 201.5t-42 195t-83.5 164.5q-4 4 -11.5 12.5t-9.5 8.5h-225q-20 0 -47 -53.5t-54.5 -135.5t-53 -180t-46 -189.5t-33 -163t-12.5 -97.5v-31q0 -25 7 -66t7 -76l-22 -73v-43zM315 735q6 18 12.5 49t16.5 62t25.5 53.5t38.5 22.5q2 0 5 -1t5 -1 q25 -35 48 -86.5t23 -98.5h-174zM395 762h64q-4 23 -12.5 45.5t-18.5 42.5q-12 -14 -19.5 -38t-13.5 -50z" />
<glyph unicode="b" horiz-adv-x="681" d="M20 344l3 459l4 2q-2 35 -2 67v62v323l36 37h523v-14l34 -33l46 -428v-6q0 -20 -12.5 -48t-28.5 -60l39 -72q32 -61 32 -136q0 -59 -14 -112t-35.5 -94t-46.5 -66.5t-45 -25.5q-18 0 -33 14l-14 14h-2q-10 -4 -15.5 -22.5t-9.5 -32.5q-2 -4 -3 -21.5t-1 -35.5l-22 22 q0 -12 -4.5 -36.5t-8.5 -53.5q-4 -53 -15 -100t-38 -47l-37 37q-2 -2 -6 -3l-2 9q-8 8 -17.5 29.5t-16.5 50t-14 62.5t-13 65q-4 12 -5.5 21t-3.5 15q-18 -14 -32 -20q6 -61 6 -98q0 -59 -14.5 -84t-32.5 -25q-12 0 -27 14l-22 23q-25 6 -51.5 53t-30.5 109q-2 8 -9.5 36 t-11.5 42q-2 12 -3 37.5t-1 56.5l-4 4zM47 360l21 -10q4 -76 6 -108q4 -10 11 -41t9 -41q4 -51 22.5 -92t37 -46.5t27.5 37.5q4 17 4 45q0 44 -9 117q39 8 64 47l51 -22l8 -44t17.5 -98.5t18.5 -98.5t11 -44q14 0 21.5 42t12.5 90t12 85t22 27q2 6 5 20.5t9 28.5t15.5 24.5 t21.5 10.5q2 0 6 -1l4 -1q4 -2 11.5 -9.5t9.5 -11.5q20 -20 53 14.5t55.5 99t27.5 142.5q1 10 1 19q0 67 -31 125l-45 82q20 35 33.5 64.5t11.5 45.5l-43 410h-487l-21 -21v-225v-88v-64t2 -73l-4 -4zM270 913v23q2 18 3 33.5t1 27.5q0 27 2 27l127 6q0 -37 4.5 -69.5 t2.5 -57t-17.5 -41t-52.5 -22.5l-37 -6q-25 6 -29 26.5t-4 52.5zM291 494q3 38 3 65v13q-1 32 3 61l22 2q12 0 13 -8q0 -4 12 -14.5t23 -18.5q2 6 3 22.5t4 32t9 27.5t18 12q2 0 7 -1l4 -1q2 0 5 -16.5t6 -36t5 -35.5t2 -18q13 12 19 16q-2 -61 -22.5 -99t-94.5 -38 q-25 0 -41 35zM332 864l4 2q29 4 38 17.5t9 36.5v20q0 12 -2 25l-49 -2l4 -2v-5v-24q0 -12 -2 -27q-2 -4 -2 -10v-31zM353 551q1 -10 1 -21v-45q31 6 49 31v14q-10 6 -17 13.5t-13 13.5q-12 8 -19 14q-1 -7 -1 -13v-7z" />
<glyph unicode="c" horiz-adv-x="595" d="M23 684q0 -160 17 -306.5t50 -303.5h12l35 -35h37q8 0 23 10h2v-121l10 6l37 -36l67 45q4 12 6.5 21t4.5 20q4 18 9 42.5t10 48t9 41t6 23.5q0 2 1 5t1 6q2 12 15 14q59 -156 59 -316v-24q18 -18 27 -19l20 -20q10 -10 13.5 -12t11.5 -2h6h6t14 4l13 12q6 6 12 17l6 10 v616l-35 35v12q-47 -6 -82 -6q-76 0 -116 41q-20 39 -26.5 91t-6.5 112q0 25 2 57.5t11 61t27.5 48t49.5 19.5q12 0 25 -6q18 -27 29.5 -61.5t15.5 -69.5q2 0 10 4l37 -37q20 4 38.5 48t33 100.5t22.5 108.5t8 75q0 53 -4 92t-27 62l-18 16q-12 29 -43 45t-92 16h-23 q-16 0 -57 -3t-85 -6t-85 -7t-57 -6q-66 -129 -79 -269.5t-13 -271.5v-47zM49 684q0 70 1 142.5t8.5 144t24.5 142.5t50 134q14 2 52 6t80 7.5t80 5.5t54 2h23q45 0 70.5 -11.5t37 -32t13.5 -51t2 -69.5q0 -20 -5 -69.5t-14.5 -101.5t-20.5 -93t-24 -43q-4 29 -13 58.5 t-26.5 53t-41 39t-54.5 15.5q-39 0 -60.5 -21.5t-32.5 -53.5t-14 -68t-3 -64q0 -68 10 -129.5t38 -105.5q30 -45 82 -65q32 -13 76 -12q28 0 60 5v-594q0 -2 -8.5 -9.5t-12.5 -11.5l-4 -1q-4 -1 -6 -1t-5 1t-5 1v18q-1 90 -19 180q-20 98 -63 191q-4 2 -15.5 3t-15.5 1 q-29 0 -35 -6t-16 -39q-4 -10 -10 -35.5t-12.5 -55.5t-11.5 -56.5t-7 -36.5l-31 -21v138l-19 5q-20 5 -32 1q-4 0 -20.5 -9.5t-20.5 -11.5h-10h-10q-31 147 -47.5 288.5t-16.5 295.5z" />
<glyph unicode="d" horiz-adv-x="718" d="M23 1298h552l11 -20l26 -27l29 -57q4 -16 11 -59t18 -93q10 -55 19 -106t13 -70q2 -8 8.5 -28.5t10.5 -30.5h2l-21 -438q-4 -43 -19 -65.5t-38 -41.5q-16 -14 -27.5 -28.5t-15.5 -43.5q-2 -12 -9 -57t-15.5 -96t-14.5 -96t-6 -58l-37 -37q-14 6 -26 19l-15 14 q-47 20 -59 67.5t-17 104.5q0 4 -1 6t-1 6q-4 18 -5 36t-5 32q-18 4 -43.5 6t-46.5 6l41 -116v-21q0 -16 -7 -26.5t-18 -10.5q-57 0 -106 49l-10 9q-31 20 -56.5 54t-44 70.5t-29 71.5t-12.5 60l-14 327v17q0 4 -1 11t-1 13q-2 16 -2 31v31v24zM49 1272l19 -535v-24 q0 -25 2 -55.5t2 -47.5l14 -325q2 -29 16.5 -72t39 -83t58 -69.5t76.5 -29.5q4 0 5 16v21l-50 139l21 -2q22 -2 48 -5t48.5 -6.5t24.5 -3.5q31 0 41 -39.5t14 -89t12.5 -94.5t34.5 -55l21 20q0 12 6 56.5t14 96.5t15.5 96t9.5 57q4 31 19 49t32.5 34.5t32 36t16.5 54.5 l21 430q-4 6 -11.5 29.5t-9.5 31.5q-4 18 -12 64.5t-18.5 98.5t-18.5 99t-12 66l-21 41h-510zM229 754q0 20 1 38.5t1 32.5v17q0 18 3.5 45.5t6.5 54.5t6 45.5t5 18.5h184q12 0 21.5 -40t13.5 -90.5t6 -98.5t2 -62q10 -23 10 -43q0 -13 -4 -25q-10 -31 -36.5 -56.5 t-61.5 -43t-67 -25.5q-26 -6 -44 -6h-8q-22 2 -22 16zM291 715l12 -172q25 4 52.5 16t51 29.5t40 39t16.5 46.5q0 10 -8 31l-2 8v39t-1 63.5t-3.5 69.5t-4.5 59h-151v-188q0 -10 -1 -20.5t-1 -20.5z" />
<glyph unicode="e" horiz-adv-x="614" d="M20 154q0 -16 10.5 -48t27 -65t36 -58.5t37.5 -31.5l21 -21q16 -16 28 -16h4q2 0 12.5 1t12.5 1q10 61 18.5 92t18.5 66q4 18 9 37.5t11 42.5q2 -2 2 -4t2 -7v2q10 -27 25.5 -50t44.5 -36l16 -14q12 -12 28.5 -19.5t41.5 -7.5h12q33 10 44.5 47t15.5 72q12 -14 28 -24 l21 -19q14 -14 33 -20v426l-35 35v6h35v245l-35 35v13h-211v86h225q16 0 28.5 42t20.5 97t12 109.5t5 78.5l-35 35v12h-549q0 -37 -1 -118.5t-3 -182.5q-2 -61 -3 -126.5t-3 -131.5q-2 -86 -4 -169t-3 -153.5t-2.5 -126t-1.5 -83.5v-49zM47 154v49q0 39 1 123t4 188t5 221 t5.5 221.5t4.5 188.5t1 123h495q0 -20 -3 -67.5t-8 -96.5t-13.5 -86t-20.5 -37h-246v-174h246v-205h-225q-12 0 -16.5 -13.5t-4.5 -29.5q0 -14 4 -27l3 -12h239v-379q-12 4 -19 19.5t-12.5 32t-7.5 32t-2 19.5h-41q0 -2 1 -24.5t-2 -50.5t-12 -54.5t-28 -34.5h-10 q-39 0 -56.5 22.5t-30.5 49t-28.5 49t-48.5 22.5h-10q-14 -63 -32.5 -121.5t-28.5 -124.5q-2 0 -5.5 -1t-5.5 -1q-14 0 -30.5 22.5t-29.5 52.5t-22.5 59.5t-9.5 44.5z" />
<glyph unicode="f" horiz-adv-x="614" d="M39 190q0 -12 6 -44.5t16.5 -74.5t24.5 -85t31 -74l4 -4q4 -8 8 -12q2 -4 8 -11l13 -12q8 -4 14 -4l31 139q4 29 12 44.5t18 25.5q14 16 26.5 37.5t20.5 60.5l-8 45q10 -10 23 -10q35 0 35 59l-17 260l-35 -2q-12 -8 -12 -6l41 -41h2l14 -211q0 -51 -22 -53v4 q0 4 -4 16.5t-8 16.5l-41 41q-2 2 -4 2q-16 0 -9.5 -8t13.5 -19l2 -2q4 -6 5 -11t5 -11l14 -70q-8 -37 -20.5 -57.5t-24.5 -36.5q-10 -10 -19 -26.5t-14 -45.5l-30 -135q-16 29 -28.5 71t-23 83t-15.5 74.5t-5 46.5v1097h496q-2 -35 -7.5 -80t-14.5 -86t-20.5 -69.5 t-25.5 -28.5h-205l-20 21l-21 -21l21 -20v-136h-21l62 -61v20h209v-204h-246v-17q0 -10 -12 -26q18 10 18 26v10h246v246l-6 6h-209v7h-35v143h219q18 0 31.5 37t23 86t15.5 100t6 82l-6 6h-539v-1098q0 -12 5 -46.5t15.5 -76.5t22.5 -84t29 -71l4 -4q4 -8 8 -12 q10 -18 21 -23l28 -29q10 -10 21 -10l30 135q4 29 13.5 45.5t19.5 26.5q12 16 24.5 36.5t20.5 57.5l-12 66l14 -15q10 -10 19 -10q29 0 28 53l-16 254l-18 17q12 12 12 24v17h246v245l-35 35v13h-215v108h225q18 0 30.5 39t21.5 90t13.5 101.5t4.5 74.5l-35 35v12h-551 v-1104zM66 190v1078h497q0 -20 -3 -64.5t-9 -88.5t-15.5 -77.5t-21.5 -33.5h-246v-197h250v-205h-225q-12 0 -16.5 -11t-4.5 -26q0 -16 3.5 -31.5t3.5 -13.5l16 -250q0 -33 -8 -32q-4 0 -11.5 12t-15.5 27.5t-15 27.5t-9 12t-3.5 -24.5t-1.5 -30.5v-12l15 -74 q-6 -31 -16.5 -48t-22.5 -31.5t-22.5 -32t-16.5 -50.5l-27 -118q-14 0 -27.5 40.5t-24.5 92t-17 99.5t-6 62zM254 528q10 0 27 11q-4 -4 -6.5 -5.5t-4.5 -5.5h-16z" />
<glyph unicode="g" horiz-adv-x="622" d="M16 686q0 39 5.5 99.5t12.5 128t17 135t20.5 123t19.5 89t15 33.5h396v-12l35 -35v-418q-23 -4 -31 -7t-12 -5l-25 -8q-12 0 -18 6l-29 29q-18 2 -21.5 12t-3.5 33v8h-14q-16 0 -23 6l-2 2l-28 27q-4 0 -5 1t-3 1q-10 -25 -12.5 -70t-2.5 -86v-45q31 23 76 39t86 16 l125 -133v-8l35 -35q2 -16 2 -34v-37q0 -41 -2 -82t-4 -84q-2 -41 -3 -79t-1 -73v-10q0 -35 -5.5 -67.5t-37.5 -88.5l-37 35q-2 -2 -2 -4t-2 -4l-13 18q-2 -10 -7 -36.5t-11 -59.5t-13.5 -65.5t-11.5 -57.5q-4 -16 -6 -33.5t-4 -27.5l-6 6h-2l-27 27v-2q-14 6 -31.5 33.5 t-34 65.5t-32.5 82t-29 83q-4 -14 -6 -29.5t-6 -32.5q-8 -29 -13 -50t-28 -44q-12 8 -20 16l-19 19q-2 0 -2 -2q-29 18 -53.5 58t-45 90.5t-34.5 102.5t-23 95q-16 86 -29.5 170t-13.5 176zM43 686q0 -86 13.5 -170t29.5 -170q8 -41 21.5 -91t30 -96t36 -82t39.5 -48 q8 8 14 36.5t13.5 60.5t16.5 57.5t24 25.5q4 0 15 -2t15 -4q2 -16 14.5 -63.5t28 -99.5t31.5 -95t29 -49l8 43t19.5 95t23.5 95t22 43q2 0 11 14l8 15q6 -4 16 -29t15 -31q18 33 20 60.5t2 62.5q0 86 6 190q4 63 4 119q0 38 -2 72l-108 117q-27 0 -55.5 -8.5t-53 -20.5 t-41 -27.5t-16.5 -29.5q0 -6 20.5 -20.5t26.5 -20.5q41 -39 49 -72t2 -48t-8 -17q-45 0 -82 25.5t-51 68.5v26q0 20 -1 44t-1 45v28q0 4 -1 28.5t-1 55.5q0 33 2 70t9 67.5t19.5 49t34.5 16.5q-4 -10 4.5 -33.5t16.5 -27.5q2 -2 10 -3q8 0 19.5 1.5t19.5 1.5h12 q20 -6 25.5 -27t5.5 -45q0 -23 6 -17.5t45 15.5v381h-369q-4 0 -11 -33t-13 -85t-13.5 -117.5t-13.5 -130t-9 -122t-3 -94.5zM309 621q0 -12 1 -22.5t1 -20.5v-21q0 -4 1 -5t1 -5q23 -16 54 -23v11q0 27 -31 65q-6 4 -10 10l-7 6q-6 0 -10 5zM358 905q0 -2 2 -2q-2 0 -2 2z " />
<glyph unicode="h" horiz-adv-x="686" d="M33 997q0 -20 6 -34v-299q0 -27 1 -55.5t1 -57.5t-1 -55.5t-1 -53.5v-229v-49q0 -23 -2 -29q0 -18 5 -28.5t11 -24.5l4 -8t9 -17l4 -8l4 -8q6 -12 13 -27.5t16.5 -41t21.5 -64.5t29 -96q2 2 2 10t2 10l37 -37q10 39 24 88t29.5 95.5l28 84t18.5 54.5h2q4 8 7 21.5t5 17.5 l-12 12q-2 4 -2 20t1 30.5t3 25.5v10l6 270h78q6 -29 7 -50t1 -66q0 -29 -2 -62t-10 -74q2 -12 12 -22v-2q0 -6 8 -12q2 -6 2 -29t-5 -54.5t-11 -62.5q0 -2 -1 -3t-1 -3q-4 -29 -7 -53.5t-3 -44.5q0 -18 10 -40t45 -57v9l37 -37q8 59 15 93t13.5 51.5t10.5 22.5t8 7h2 q0 2 2 2l31 -29h51q8 0 17.5 46t18.5 111.5t16 134.5t9 116q0 10 1.5 44t1.5 81q0 66 2 142.5t2 135.5v70q0 18 -1 45t-2 57.5t-2.5 63t-1.5 61.5q-2 16 -2 31v29v32l-34 35v8l-37 37h-199v-471h-76l11 424l-35 35v12h-211l-37 -37v-63q0 -10 1 -19.5t1 -19.5t-1 -19.5 t-1 -19.5v-57q0 -16 -3 -26.5t-3 -29.5zM61 1014q5 20 5 39q0 10 1 38.5t1 57.5t-1 55.5t-1 36.5l20 21h174l-10 -471h164v471h161l21 -21q0 -8 1 -48t3 -89t3 -98.5t1 -75.5q0 -41 -1 -116t-2 -149.5t-2 -134t-1 -71.5q-2 -43 -7 -109.5t-11.5 -129t-12.5 -106.5t-10 -44 h-31v118h-4q-2 0 -6 1l-4 1l-20 21l-4 1q-5 1 -7 1q-2 -55 -5 -78.5t-8 -32t-10 -10.5t-12.5 -13t-16.5 -41t-19 -93q-14 14 -11 54t13 87t15 94q1 14 1 26q0 29 -8 50q-4 4 -6 9t-6 9q10 67 10 127v19q-2 68 -7 104.5t-8 40.5q8 2 9 21h-168l-6 -291q0 -2 -1 -18.5 t-2.5 -37t1 -38t8.5 -19.5l-10 -24q-9 -25 -22 -63t-29.5 -86t-28.5 -95q-25 86 -58 141.5t-33 75.5q2 6 3 29v53q0 66 1 153t1 185t-1 185t-1 151v84q-7 15 -7 29q0 7 2 14zM526 188v5q-2 -2 -2 -3.5t2 -1.5z" />
<glyph unicode="i" horiz-adv-x="333" d="M33 158q29 -43 56.5 -97.5t35.5 -111.5q16 -16 25 -17l22 -22q10 -10 12 -11t13 -1h6q35 0 43 30.5t12 73.5q2 20 5 45t12.5 45.5t26.5 35.5t46 19v1104l-35 35v12h-280v-1140zM59 166v1106h228v-1065q-49 -8 -65.5 -48t-21.5 -84t-9.5 -80t-28.5 -36q-2 0 -5 1t-5 1 q-8 53 -36 107.5t-57 97.5z" />
<glyph unicode="j" horiz-adv-x="679" d="M31 688q0 -39 11 -97.5t21 -109.5q0 -4 1.5 -6t1.5 -4q0 -4 1 -7t1 -7q4 -16 6 -31.5t4 -22.5q-6 -23 -7 -55.5t-1 -68.5q0 -59 8 -124t18 -119t20.5 -89t16.5 -35h4l35 -35h51l21 221h4h12l25 -147q2 6 8 8l37 -37q45 45 57 84t23 82q6 29 13 57.5t17 49.5 q10 23 28.5 29.5t41 13t45.5 13.5t41 26.5t32.5 54.5t18.5 94q2 29 6 101.5t7.5 154.5t5.5 154.5t2 103.5v107q0 14 -1 31.5t-1 35.5t1 35.5t1 32.5v32l-35 35v8l-37 37h-244l29 -725l-13 -6q-12 -6 -22 -10l-8 4l-45 148l-33 30l-4 17l-188 -7q-23 0 -30 -15t-7 -42z M57 673q-1 10 -1 17q0 29 12 29l168 6l49 -156q2 -4 21.5 -19t29.5 -22l4 -1q4 -1 6 -1t6 1l4 1q12 6 32 21.5t20 19.5l-29 699h207l20 -21q0 -10 -1 -36.5t-1 -55.5t1 -55.5t1 -36.5q0 -16 -1 -34.5t1 -47.5q0 -31 -2 -103.5t-5 -153.5t-7 -153.5t-6 -101.5 q-6 -88 -33 -120t-59.5 -42t-64.5 -17t-48 -46q-12 -29 -20.5 -64t-16.5 -68.5t-17.5 -62.5t-23.5 -43l-24 156q0 4 -8.5 11t-12.5 9l-4 1q-4 1 -6 1t-6 -1l-4 -1l-21 -20l-4 -1t-6 -1t-6 1l-4 1q-6 2 -7 16q0 10 -4 19l-22 -258h-31q-4 0 -13 54t-16.5 129t-8.5 152v12 q0 70 11 113q0 10 -11 61.5t-22.5 109t-15.5 103.5zM303 575l2 -4q-2 2 -2 4z" />
<glyph unicode="k" horiz-adv-x="655" d="M33 866q0 -41 1 -88t2 -97t1 -93q0 -33 1 -59.5t1 -43.5v-22q2 -47 9 -118t17.5 -136.5t20.5 -112.5t20 -47h7l34 -35h52v49q6 -12 14 -46.5t23 -120.5q2 6 8 8l37 -37q29 29 37 48t8 36q0 23 -4.5 48.5t-8.5 53.5q-6 31 -11 62.5t-5 56.5q0 27 4 37q4 4 6 10q4 4 6 7 t6 7q-8 41 -10 76t-2 64v73q0 23 8 58l84 -209v-4q4 -16 4 -45q0 -12 -2 -23.5t-12 -15.5v-8t2 -9l10 -30q6 -18 19.5 -60.5t30 -92.5t33 -101t26.5 -88q2 6 2 12q0 4 2 8l37 -37q16 59 29.5 97.5t22.5 62t16.5 37.5t13.5 27q12 25 20.5 40t8.5 31q-2 23 -8.5 68t-14.5 98 q-6 43 -12 87t-11.5 84t-8.5 72t-3 48v2q0 14 -24 39l-15 12q-4 10 -15 22.5t-24 24.5l-14 15q-2 0 -6 4q-2 4 -2 6t-2 6q-2 0 -2 2q-2 2 -3 4l-1 2q0 4 14 41t37 88q18 43 37.5 90t36 88t26.5 73t10 42q0 18 1 35.5t1 32.5v32l-34 35v8l-37 37h-207l-70 -336v289l-35 35v12 h-198l-37 -37v-34q0 -27 -2 -60q0 -18 -1 -38.5t-1 -43.5q-2 -43 -3 -83t-1 -62v-70zM59 936q0 27 1 76t3.5 98t3.5 89t1 48l20 21h162v-471l55 -2l98 473h175l20 -21q0 -10 -1 -36.5t-1 -55.5q0 -10 -12.5 -44t-29.5 -80t-38.5 -96t-39 -94t-30 -74t-12.5 -34t10.5 -20.5 t10.5 -20.5t14 -18.5t31.5 -31.5t31 -31.5t11.5 -16.5q0 -29 8 -93.5t18.5 -136t19.5 -136t11 -91.5q0 -20 -32.5 -76.5t-57.5 -140.5q-12 47 -28.5 95t-30 86t-22.5 63l-9 24q6 2 8 19.5t2 38.5q0 20 -2 36.5t-2 18.5l-117 293l-57 -2q0 -18 8 -21q-2 -4 -7 -39.5 t-7 -104.5v-20q0 -60 10 -126q-4 -4 -6 -9.5t-6 -9.5q-8 -20 -8 -50q0 -12 1 -26q5 -47 14 -94t13 -87t-10 -54q-10 63 -19.5 93t-16.5 41t-12 13t-10.5 10.5t-8.5 32t-5 78.5q-2 0 -6 -1l-4 -1l-20 -20l-4 -1q-5 -1 -7 -1h-4v-119h-31q-4 0 -10 44t-12 106.5t-11 129 t-7 109.5q0 12 -1.5 71.5t-2.5 134t-2 149.5t-1 116zM137 195q4 0 0 4v-4zM143 18l2 -2q-2 0 -2 2zM518 651q4 -2 7 -5l7 -7q-6 4 -14 12z" />
<glyph unicode="l" horiz-adv-x="540" d="M31 1083q0 -233 4 -460.5t16 -475.5h12l33 -34q4 -16 11.5 -30.5t25.5 -19.5l27 -24q10 -10 30 -10q10 0 15 2v-6h12l35 -35h80l16 164q0 -6 2 -11q4 -29 13.5 -61.5t44.5 -89.5q0 6 4 10l37 -37q29 59 40 105.5t17 83.5h43v358l-35 35v12h-180l2 692l-35 35v12h-231 l-37 -36v-101q0 -8 -1 -16t-1 -19v-43zM57 1083v43q0 29 1 56.5t1 46.5v22l21 21h194l-2 -740h215v-317h-41q-6 -39 -15 -83t-25 -81q-16 29 -22.5 65t-14 70.5t-22.5 62t-50 40.5l-25 -238h-42v144q0 8 -11 8q-20 0 -26.5 -17.5t-9.5 -39t-9 -39t-24 -17.5t-21.5 13.5 t-6.5 28.5t-10.5 28.5t-33.5 13.5q-6 125 -10.5 238.5t-6.5 224.5t-3 220.5t-1 225.5z" />
<glyph unicode="m" horiz-adv-x="952" d="M25 1294h233q16 0 29.5 -13t23.5 -32l17 -14q-2 0 -3 1l-1 1l6 -4q16 -16 26.5 -44t16.5 -46h-2v-6l6 -7v-6q0 -8 3 -29.5t7 -37.5q2 -16 4 -30.5t4 -27.5l6 -4q14 -14 23 -30h-2q18 -18 27 -35l10 -8q6 -8 12 -15.5t10 -17.5q10 -4 21.5 -9.5t23.5 -9.5q29 29 58 52 q2 16 6 52t8 73q4 41 7 77.5t7 53.5v2q4 14 10.5 33.5t16.5 38t23.5 30.5t29.5 12h236v-12l35 -35l-11 -1075v-33q0 -14 -1 -25.5t-7 -21.5l-6 -6q-4 -4 -7 -5l-3 -1q-2 -8 -5 -29.5t-7 -46t-5.5 -48.5t-1.5 -36h-82l-34 35h-13v47v27q0 16 2 28q0 4 1 8.5t1 8.5v10 q0 6 -1 27.5t-5 50.5q-4 16 -4 28q-4 -2 -6 -1t-6 1t-7 1.5t-7 1.5h-17l-35 34h-10q-6 16 -14 43t-13 47q-4 -35 -8 -68.5t-6 -62.5q-4 -39 -7 -65.5t-3 -34.5q0 -43 -9.5 -77t-52.5 -34h-4h-2q0 -2 -2 -2h-4q-29 0 -43 15l-24 22q-33 10 -38 42t-5 73q0 31 -5.5 58.5 t-35.5 39.5l-19 160q-12 29 -14 51q0 4 -1 7t-1 8q-4 20 -8 30q-18 6 -25 17l-6 4q0 -29 -1 -61.5t-2 -63.5t-2 -54.5t-3 -35.5q0 -6 -3 -18.5t-7.5 -28t-8.5 -30.5t-8 -24h-16q-4 0 -7.5 -1t-7.5 -1q4 -4 4 -14q0 -29 -5 -69t-9 -62l31 -31l-8 -8q-31 0 -45 14l-15 13 q2 -6 2 -11q0 -4 1 -10t1 -16q2 -12 2 -29v-27v-41h-82l-34 35h-13q0 10 -2 29.5t-4 43.5t-6 45.5t-6 33.5h-4l-35 35h-12zM51 1268l6 -1129q0 -2 10.5 -6t20.5 -16q2 -2 10 -10.5t8 -10.5q2 -8 6.5 -27.5t7.5 -43t5 -44t2 -28.5h41v20q0 20 -2 46t-2 36q0 6 -2 23.5t-4 38 t-4 39t-2 24.5t12 -14.5t27.5 -45t28.5 -45t16 -14.5q2 -10 -2.5 3.5t-8.5 38t-8 54t-4 52.5q0 35 16 35q4 0 10.5 1t8.5 1q4 10 10 40.5t8 41.5q2 16 4 57t3 85t2 85t1 57q4 -2 11.5 -9t9.5 -11t8 -21.5t10 -19.5q2 -2 11.5 -5t18.5 -6t17.5 -5.5t10.5 -4.5 q12 -16 18 -32.5t9 -32.5t6.5 -34.5t11.5 -39.5l16 -149q33 -12 38 -46t5 -71q0 -35 6 -62.5t37 -27.5q2 0 4 1t4 1h4q29 0 35 27.5t6 62.5q0 12 5.5 57t12.5 105.5t13 127t8 124.5q16 2 25 10q2 0 11 18.5t18.5 42t17.5 43t8 21.5q2 4 8.5 11t10.5 9q0 -16 -5.5 -68.5 t-10.5 -111.5q-5 -60 -9 -112q-3 -35 -3 -53q0 -9 1 -15q2 -10 8 -41t10 -41q2 0 8.5 -1t10.5 -1q31 0 42 27.5t15 56.5q4 -10 12 -41t7 -41q0 -6 2 -31.5t5 -54.5t5 -53.5t2 -30.5q0 -10 -2 -35.5t-2 -46.5v-20h41q0 8 2 28.5t5 44t6 43t5 27.5q0 2 9.5 10t11.5 10 q8 12 6 39t-2 29l10 1055h-209q-12 0 -21 -13.5t-15.5 -32t-11.5 -35t-7 -22.5q-2 -12 -5 -46t-7 -71.5t-7.5 -72.5t-5.5 -47q-2 2 -12 -8.5t-23.5 -25.5t-26.5 -31.5t-20 -26.5q-25 14 -52 26t-29 -4q0 12 -5.5 27.5t-12.5 31t-17.5 27.5t-22.5 17q-4 0 -12 12t-16.5 25.5 t-16.5 23.5t-10 8q-4 27 -10.5 69t-10.5 66q-2 6 -7 22.5t-12 35t-16.5 32t-21.5 13.5h-207zM217 84q0 -4 1 -5t1 -3q0 6 1 15t3 20q-2 -10 -6 -27z" />
<glyph unicode="n" horiz-adv-x="716" d="M27 182q0 -2 5 -12t12 -22.5t15.5 -25.5t14.5 -20l6 -4l2 -4q2 0 6 -4q2 -8 6 -30.5t7 -47t5.5 -48t2.5 -34.5h12l35 -34h86v41v26t-2 29q0 8 -1 14t-1 10l-2 2q-2 6 -4.5 30t-4.5 46q-4 29 -7 54.5t-3 33.5v8l12 -12q18 -18 50 -18q4 0 7 1t7 1h18q4 8 8.5 22.5 t9.5 29.5t8 28.5t3 19.5q2 12 4 40t5 61.5t5 71.5t4 69l9 -8q6 -6 17 -10.5t22 -8.5q33 -47 55 -103.5t37.5 -115.5t24.5 -118.5t16 -110.5q10 -12 15 -15.5t11 -3.5l21 -20q10 -10 13 -12.5t11 -2.5h6q47 0 56.5 34t9.5 77q0 33 6 61.5t41 40.5v1059l-35 35v12h-196 q0 -20 -2 -68t-5.5 -100.5t-7.5 -99.5t-6 -63q0 -2 -1 -6.5t-1 -8.5q-25 31 -45 39h-4q-8 41 -14 83t-11 58l-2 2l-4 13l2 -2q-6 16 -17 44.5t-28 45.5l-16 14q-10 20 -24.5 34.5t-32.5 14.5h-252v-1112zM53 182v1086h226q12 0 22 -13.5t18.5 -32t13.5 -35t7 -22.5 q2 -12 8 -43.5t12.5 -67.5t12.5 -69t8 -45q4 6 19.5 14.5t21.5 6.5q12 -4 23.5 -16.5t19.5 -28t13 -31t5 -27.5q2 6 5.5 20.5t6.5 31t6 30.5t3 21q2 16 6 60t7 93t5 93t2 61h144v-1024q-35 -12 -41 -46t-6 -71q0 -35 -6.5 -62.5t-39.5 -27.5q-2 0 -5 1t-5 1q-6 59 -17 125.5 t-29.5 132t-47.5 126t-70 107.5q-2 2 -10 4.5t-19.5 5.5t-20.5 6t-11 5q-4 2 -11 19.5t-9.5 21.5t-9.5 11t-11 9q0 -16 -2 -60t-5 -93t-7 -93t-6 -61q-2 -10 -9.5 -41t-11.5 -41q-2 0 -9 -1t-11 -1q-33 0 -45.5 27.5t-16.5 56.5q-4 -14 -12 -41.5t-8 -40.5q0 -6 3 -30.5 t7 -52t7 -51t3 -30.5q0 -10 2 -35.5t2 -46.5v-20h-45q0 8 -2 28.5t-5 44t-7 43t-6 27.5q0 2 -9.5 10.5t-11.5 10.5q-10 12 -25.5 35.5t-15.5 25.5zM190 59v39q2 -14 3.5 -25.5t1.5 -13.5h-5z" />
<glyph unicode="o" horiz-adv-x="696" d="M18 852q4 8 11.5 29.5t9.5 27.5q4 10 7 31t7 47q4 23 9.5 48.5t9.5 49.5q4 29 10 56.5t10 50.5q4 16 6 30.5t4 22.5l72 53l383 2q10 -12 22.5 -26t18.5 -23q10 -12 20.5 -24.5t16.5 -20.5q16 -20 24.5 -34.5t16.5 -43.5l24 -428q2 -8 2 -20v-25v-82q0 -18 -8 -67 t-23.5 -110.5t-37 -128t-47 -122t-54 -91.5t-59.5 -36q-23 0 -35 13l-28 28q-20 6 -29 25l-23 37q-10 -10 -13 -31.5t-7 -44.5q-4 -39 -17.5 -75t-56.5 -52l-35 35q-4 0 -6 -2l-41 41q0 12 -2 41.5t-5 62.5t-7 62.5t-6 42.5q-4 23 -15.5 39t-27.5 32l-8 9q-29 29 -48.5 57.5 t-23.5 71.5zM45 842l21 -430q2 -35 20 -59.5t39.5 -47t40 -45t22.5 -53.5q2 -12 6.5 -41t7.5 -61.5t5 -61.5t2 -41l20 -20q27 10 35 43.5t13.5 70.5t15.5 65.5t41 28.5q4 0 11 -1t7 -3l62 -102q4 -4 18 -4q29 0 55.5 35t49 88t42 116.5t34 123t21.5 106.5t7 65v37v45v23 q0 10 -2 18l-25 428q-4 20 -9 31.5t-12 22t-19.5 21.5t-28.5 34l-363 -2l-55 -41q-4 -18 -12.5 -65.5t-18.5 -99.5t-18 -98t-12 -65q-2 -8 -9.5 -31.5t-11.5 -29.5zM125 272l14 -14l2 -2zM225 754q0 14 2 56t7.5 85t14.5 77t21 34h185q2 0 5 -12.5t6 -32t5 -41t2 -39.5v-17 q0 -14 1 -32.5t1 -38.5v-29q0 -31 -2 -75t-14.5 -84t-38 -67.5t-70.5 -27.5t-69.5 26.5t-37 64.5t-15.5 80t-3 73zM287 713q0 -35 2 -81t18 -83q18 -12 43 -12q37 0 56.5 24.5t28.5 60t11.5 74.5t2.5 68v29q0 6 -1.5 11t-1.5 11v66q0 23 -1 34t1 29h-135q-6 0 -11 -30.5 t-8 -70.5t-4 -78t-1 -52zM436 33q0 -2 2 -2z" />
<glyph unicode="p" horiz-adv-x="655" d="M25 1022q0 -31 1 -93.5t2 -142t4 -167t5 -167t4 -142t4 -91.5l2 -6q4 -10 10 -36.5t9 -37.5q2 -16 6 -57t7 -88t5 -90t2 -62h12l35 -35l39 -4q23 88 39 172t22 168q37 10 59.5 35t35 58.5t16.5 72.5t4 78v39q0 18 2 35h2q25 0 53.5 -16.5t69.5 -45.5q0 14 1 28.5t3 18.5 q2 10 6 25.5t11 24.5l30 -29q10 8 25.5 18.5t28.5 18.5h2q31 18 57.5 42.5t26.5 65.5v635l-35 35v12h-570l-36 -37v-235zM51 1022v137v88l21 21h532v-615q0 -23 -11 -38t-27.5 -27.5t-35 -23.5t-34.5 -23q-2 4 -9.5 11t-11.5 9l-4 1q-4 1 -6 1q-12 0 -21.5 -10t-15.5 -24.5 t-9 -29t-5 -20.5q-29 20 -51.5 31.5t-51.5 11.5q-4 0 -11 -1t-9 -1q-2 -20 -3 -42.5t-1 -49.5q0 -37 -4 -75t-16.5 -68.5t-35 -53t-57.5 -28.5q-6 -88 -22.5 -175t-38.5 -173q0 16 -2 57t-5.5 87t-7.5 86t-6 56q-2 10 -9 41t-11 41q-2 29 -4 91.5t-4.5 141.5t-5.5 166 t-4 165.5t-2 142t-1 92.5zM276 815q0 -37 7.5 -59.5t48.5 -22.5q55 0 79.5 26.5t32.5 66.5q7 32 7 70v18q-2 47 -2 87h-152l-3 -18t-6 -45t-6 -54.5t-6 -45.5v-23zM338 760v35q2 16 2 41v47v41t-2 16h86v-12q0 -6 1 -12.5t1 -12.5q0 -53 -16.5 -97t-71.5 -46z" />
<glyph unicode="q" horiz-adv-x="655" d="M20 629q0 -84 13.5 -149.5t29.5 -129.5l7 -18q10 -41 20 -85t14 -95q10 -12 15.5 -15.5t11.5 -3.5l21 -20q10 -10 13 -12.5t11 -2.5h6h6t15 4l2 2q2 -16 2 -30v-15v-53q0 -10 1 -19.5t1 -19.5t-1 -19t-1 -20v-135q4 4 5 7t5 7l37 -36q29 39 46 66.5t25.5 47t11.5 36 t5 32.5q2 14 4 30.5t10 45.5q2 16 7.5 38.5t9.5 38.5v-14q2 -4 2 -10q0 -4 1 -7t1 -7q4 -18 14 -37t45 -39l15 -15q8 -8 17 -15t26 -13q10 47 22 74.5t27 52.5h-2q12 18 21 36.5t18 43.5q8 31 22 83t27.5 105t24 95t10.5 50v46q0 10 1 19t1 19v64q0 10 -1 21.5t-1 21.5v55 q-4 57 -15.5 144.5t-26 169t-25.5 140t-15 58.5l-35 35l-4 8l-2 4h-430q-14 0 -25.5 -45t-22 -112.5t-18.5 -149.5t-13 -155.5t-8.5 -130t-3.5 -72.5zM47 629q0 16 2 69.5t6 125t10.5 149.5t12.5 143.5t15 108.5t18 43h430q2 0 10 -56.5t18.5 -134.5t19.5 -162t13 -139v-20 q0 -16 1 -37t1 -41v-33v-31q0 -18 -1 -36.5t-1 -32.5v-15q0 -8 -9 -49t-22.5 -93t-28 -104.5t-22.5 -80.5q-8 -27 -19.5 -47.5t-23.5 -41t-22.5 -43t-16.5 -53.5q-23 10 -27.5 37t-13.5 45q-4 8 -10 22.5t-13 28t-12 22.5l-6 9h-20l-6 -11q-6 -11 -13.5 -27.5t-13.5 -34 t-8 -29.5q-10 -39 -12 -64.5t-6.5 -46t-12.5 -42t-31 -52.5q0 10 1.5 37t1.5 55q0 31 -1.5 56.5t-1.5 35.5q0 2 -1 21.5t-6 43t-15.5 42t-28.5 18.5q-2 0 -6 -1l-4 -1l-20 -20l-4 -1q-5 -1 -7 -1t-5 1t-5 1q-6 61 -20.5 117.5t-27.5 111.5t-24.5 113.5t-11.5 124.5zM211 792 q2 -61 2 -100q0 -35 9 -80t20.5 -77.5t22.5 -42.5q2 -1 4 -1q8 0 12 33l14 174q14 0 38.5 -25.5t48.5 -52t40 -40t16 11.5v348q0 51 -30.5 77.5t-71.5 26.5q-55 0 -82 -39.5t-36 -96.5q-7 -46 -7 -95v-21zM274 725v29q0 39 3.5 79.5t13.5 73.5t30.5 54.5t55.5 21.5 q6 0 12 -1t14 -3q8 -20 9 -39v-315q-7 4 -11 10v2h2q-27 29 -57.5 57.5t-71.5 30.5z" />
<glyph unicode="r" horiz-adv-x="634" d="M27 592q0 -16 1 -32.5t1 -33.5v-108q0 -23 1 -41.5t1 -34.5v-57q0 -12 2 -43t5 -65t7 -64.5t6 -42.5q12 -16 27 -19l20 -20q16 -16 31 -17q29 0 33 15.5t8 36.5q6 -10 18 -13l25 -22q14 -14 39 -15h4q2 0 10 1t10 1q27 68 41.5 145t20.5 154q10 -47 17.5 -92t15.5 -90 q6 -45 14 -101.5t18 -103.5h13l35 -34h22q4 0 7 -1t7 -1q41 0 54.5 21.5t13.5 53.5q0 14 -1 26.5t-3 23t-2 16.5v16v8q2 4 10 7.5t19 7.5q27 10 51 28.5t24 63.5q0 102 -36.5 204.5t-96.5 190.5q37 16 60.5 48t37 71t18.5 84t5 90q0 29 -1 58.5t-3 54.5q-2 18 -2 32v29v45 q0 29 -1 62.5t-3 54.5v24l-35 35v8l-37 37h-498l-30 -61v-43q0 -12 -1 -28.5t-1 -35.5v-84q0 -12 -1 -25t-1 -26v-399zM53 653v113v88v94q0 43 1 91t1 87q0 41 1 69t1 32l21 41h471l20 -21q0 -6 2 -49t2 -84v-45q-1 -41 5 -111q2 -29 3 -59q-1 -41 -5 -82q-8 -72 -35 -130 t-95 -75q66 -86 106 -192.5t40 -212.5q0 -31 -15.5 -45.5t-35 -22.5t-36 -15t-18.5 -24v-8q0 -16 3.5 -37.5t3.5 -44.5t-9.5 -39t-38.5 -16q-4 0 -11 1t-9 1q-16 78 -25.5 153.5t-22.5 149.5t-34.5 146.5t-60.5 144.5q0 -53 -2 -113.5t-8.5 -123t-18.5 -123t-33 -111.5 q-2 0 -5 -1t-5 -1q-16 0 -23.5 10t-12.5 23.5t-12 23.5t-24 10q-18 0 -23 -11t-6 -23.5t-4.5 -23.5t-17.5 -11q-6 0 -10 4q-2 12 -6 41t-7.5 61.5t-5.5 61t-2 41.5q0 8 -1 45t-1 88t-1 113.5t-1 121.5zM283 784q8 0 24.5 2t33.5 8.5t30.5 16.5t13.5 27v143h-102v-197z M344 821v99h14v-82q0 -10 -14 -17z" />
<glyph unicode="s" horiz-adv-x="618" d="M25 115q4 0 6 -1t6 -1l35 -33q10 0 26 -4q14 -23 20.5 -50.5t10.5 -54.5h12l35 -34h60v10l30 -31h72q0 14 2 46t5 66.5t7 65.5t6 43h-2q2 4 4 9.5t5 11.5q2 12 -3 24l-4 11h215l31 45v49q-2 55 -3 103t-1 95q0 35 1 69t3 69q2 23 2 53v57l-35 35v10l-125 78h5h6t14 4 q8 8 18 31l19 -19q6 -6 37 15q6 4 16 10t21 6q6 0 43 -18q0 41 1 57t3 29q2 16 2 28v31q0 25 -1 52.5t-5 64.5l-11 86l-34 33v14q-23 2 -74 5t-109.5 5t-109.5 3t-72 1h-22q-59 0 -92 -26.5t-50.5 -66.5t-21.5 -88t-4 -91q0 -16 2 -57t5 -87.5t7 -87t6 -57.5 q4 -35 19.5 -54.5t37.5 -29.5l17 -14q20 -20 51 -27.5t66 -11.5q14 -4 27 -5t28 -5q0 -4 1 -8.5t1 -8.5q0 -12 -3 -37.5t-14 -25.5h-251v-391zM51 141v338h225q14 0 23.5 10.5t13.5 25.5t5 29.5t1 24.5q0 35 -17 51.5t-43 24.5t-57.5 11t-59 9.5t-47 21.5t-23.5 48 q-2 16 -6.5 57.5t-7.5 86.5t-5 86t-2 57q0 39 4 82t17.5 80t42 60.5t78.5 23.5h22q20 0 68.5 -1t102.5 -3t102.5 -4.5t66.5 -4.5l8 -69q4 -37 5 -63.5t1 -51.5t-2 -50.5t-4 -62.5q-16 8 -30.5 6t-25.5 -9t-18.5 -13t-7.5 -2q0 2 -4 11.5t-10 18.5t-12 16t-9 7q-2 -4 -5 -14 t-7 -22.5t-8 -23.5t-6 -13l-4 -1q-4 -1 -6 -1q-12 0 -15.5 12t-5.5 27.5t-6 28.5t-16 13q-35 0 -64 7.5t-45 7.5q-12 0 -18.5 -29t-6.5 -106q0 -4 1.5 -11.5t1.5 -9.5q25 -10 43 -10h53q29 0 54.5 -2t45.5 -15l113 -69q-2 -68 -4 -124t-2 -112q0 -55 1 -113.5t3 -127.5 l-21 -31h-205l-3 -8t-6 -19.5t-6 -24t-5 -20.5q-2 -12 -6 -40.5t-7 -61.5t-5.5 -61.5t-2.5 -41.5h-30v226l-31 20l-41 -41v-184h-20q-4 25 -9.5 49.5t-15.5 46t-28.5 34.5t-49.5 13zM295 874q0 74 2 76q4 -2 12 -2q10 0 19 -2h2q8 -2 15 -3t17 -3q4 -18 11.5 -32.5 t27.5 -16.5l25 -25v-2q-20 8 -44 9t-50 1h-37z" />
<glyph unicode="t" horiz-adv-x="757" d="M33 864v430h688v-12l35 -35v-413q-10 -18 -11.5 -25.5t-5.5 -17.5h2q-6 -23 -15 -50.5t-23.5 -50t-36 -38t-54.5 -15.5l-34 35h-13v235q-8 4 -15 12.5t-15 16.5h-3q-2 -2 -3 -1l-1 1l2 -657q-6 -23 -9 -46.5t-7 -52.5q-6 -39 -12 -81t-18.5 -76.5t-33 -57t-53.5 -22.5 l-37 37q-4 0 -5 -1.5t-5 -1.5v115q-29 0 -41 19l-24 22q-31 14 -39 43t-8 55v33q0 20 -1 57t-3.5 86.5t-4.5 106.5t-4 117q-4 84 -7 165t-3 140q-23 -8 -37 -25.5t-24 -33.5h2q-12 -20 -28.5 -34t-47.5 -14l-35 35h-12zM59 891q12 0 23.5 17.5t26 38t36 37.5t56.5 17 q4 0 20.5 -1t20.5 -1q0 -27 2 -84t4 -129.5t5 -153.5t5 -153.5t4 -130t2 -84.5q0 -6 -1 -24.5t2 -38t10.5 -33.5t25.5 -14q0 6 1 21t4 30.5t10.5 28t19.5 12.5q2 0 6 -1l4 -1q6 -4 18.5 -11.5t12.5 -9.5v-219q27 0 41 41t23.5 95.5t14.5 107.5t13 78l-2 653q0 4 8 10t12 10 l5 1q4 1 6 1q4 0 7 -1l3 -1q2 -2 15.5 -14t28.5 -27.5t28 -26.5l12 -11v-222q25 0 41 23.5t28.5 54.5t19.5 60.5t13 42.5v389h-635v-377z" />
<glyph unicode="u" horiz-adv-x="665" d="M41 870q0 -41 1 -88t2 -97t1 -93q0 -33 1 -59.5t1 -43.5v-22q2 -47 9 -117.5t17.5 -136.5t20.5 -113t21 -47h6l35 -35h51v103q6 -6 10 -8q0 -2 2 -2l2 -2q2 -2 10 -7l2 -2q8 -2 15 -2h12l41 -237q2 6 8 8l37 -37q39 39 52.5 93.5t17.5 113.5q4 47 9 90t15.5 65.5 t28.5 29.5t40.5 13.5t45.5 13.5t41 26.5t32.5 54.5t18.5 94q2 29 5 98.5t6.5 149.5t6.5 152.5t3 107.5q6 20 6 41q0 4 -2 12t-4 19v41q0 14 -1 31.5t-1 35.5t1 35.5t1 32.5v32l-35 35v8l-37 37h-211v-661l-13 -6l-22 -11v631l-35 35v12h-231l-37 -37v-18q0 -12 -1 -30.5 t-1 -41.5q-2 -57 -3 -124.5t-1 -102.5v-70zM68 940q0 27 1 75t2 97t2 88t1 47l20 21h195v-635q0 -4 20.5 -19.5t30.5 -21.5l4 -1q4 -1 6 -1t6 1l4 1q12 6 32 21.5t20 19.5v635h174l20 -21q0 -10 -1 -36.5t-1 -55.5t1 -55.5t1 -36.5q0 -17 5 -33q2 -6 2 -12q0 -15 -7 -37 q0 -31 -2 -103.5t-5 -153.5t-7 -153.5t-6 -101.5q-6 -88 -33 -120t-59.5 -42t-64.5 -17t-48 -46q-12 -29 -18.5 -78t-10.5 -100.5t-11 -93.5t-22 -56l-40 246q0 4 -8.5 11t-12.5 9l-4 1q-4 1 -6 1t-6 -1l-4 -1l-21 -20l-4 -1t-6 -1t-6 1l-4 1q-6 4 -26.5 19.5t-25.5 21.5 v-123h-30q-4 0 -10.5 44t-12.5 106.5t-11 129t-7 109.5q0 12 -1 71.5t-2 134.5t-2 149.5t-1 115.5z" />
<glyph unicode="v" horiz-adv-x="860" d="M18 1294l175 -719q4 0 8 -10t4 -14q0 -2 7 -30.5t17.5 -67.5t20.5 -78t16 -60l-8 4l-6 -8q20 -20 29 -22l18 -17q20 -23 30.5 -18.5t14.5 23t4 47.5t2 55q31 -84 46.5 -177t25.5 -175v-52v-28q0 -14 2 -31q0 -4 1 -11t1 -11q6 0 10 2l37 -37q27 0 43 26.5t25.5 62.5 t12.5 72.5t3 55.5q0 33 5 61.5t36 40.5l276 1073l-36 35l4 12l-277 -4q0 -14 -4 -41.5t-10 -62.5t-13.5 -72t-15.5 -69q-10 -37 -16 -69t-8 -50q0 -4 -10.5 -28.5t-22.5 -49.5q-20 27 -43 47.5t-39 26.5h-2v59q-4 41 -5 78t-3 49q-4 10 -24.5 46t-47.5 63l-4 2 q-16 27 -37.5 47t-38.5 20zM53 1268l168 -4q12 0 26.5 -15.5t28 -35t23.5 -38t12 -24.5q2 -12 4 -48t5.5 -76t5.5 -76t4 -48q4 6 23.5 2t25.5 -6q10 -4 25.5 -16.5t30 -27.5t24.5 -31.5t10 -26.5q2 6 10 24.5t18.5 41t18.5 41t8 24.5q2 16 13.5 65t23.5 104.5t21.5 104.5 t9.5 66l215 4l-268 -1039q-33 -12 -38 -45.5t-5 -70.5q0 -18 -2 -51t-7.5 -65t-13.5 -56.5t-22 -24.5l-1 18q-1 17 -1 37v35v19q-6 59 -15.5 125.5t-26 132t-41 126t-61.5 107.5q-2 2 -6 -28.5t-9 -67.5t-10.5 -67.5t-7.5 -28.5q-2 0 -8 33.5t-13 75.5t-13.5 77t-6.5 37 t-2 10t-4 17.5t-5 16.5t-5 7z" />
<glyph unicode="w" horiz-adv-x="1163" d="M10 1300h297v-12l35 -35q0 -16 4 -42.5t10 -58.5t13.5 -66.5t13.5 -67.5q8 -35 15 -73l8 -38l6 -12v-2l4 4q4 6 7 12t5 13q4 10 10 20q0 20 2 31v12q0 4 1 8t1 8l168 342l8 -28l31 -31l96 -340q4 4 17 8h4v2q2 0 3 1t3 1q-2 0 14 5q2 23 3.5 47t3.5 47q2 16 3 35.5t3 36 t3 30.5t1 21v4h-2q2 8 16 26.5t31.5 38t37 33.5t34.5 14h217l-4 -12l36 -35l-157 -702q-4 -4 -9.5 -6t-7.5 -4l-7 -35t-11 -54.5t-13.5 -58.5t-13.5 -45l11 -8q2 -2 2 -21v-32t2 -35q0 -18 1 -35.5t1 -34.5q0 -27 -3 -39t-24 -12q-10 2 -25 2q-45 0 -56 -48t-17 -155 q-10 -10 -14.5 -15t-14.5 -18q-20 -25 -37 -24q-14 0 -20 4l18 -18q-10 0 -18 8l-41 41q-10 10 -17 28q-10 20 -16 46t-10 51.5t-5 48t-1 37.5q0 31 -5.5 58.5t-33.5 39.5l-29 117h-2l-39 37q-2 -2 -4 -3l-2 11l-7 7l-7 7q-43 -92 -61.5 -201.5t-24.5 -205.5q-2 -23 -2 -27 v-25v-75q-16 0 -31 14l-27 27q-23 10 -37 37.5t-22 61.5t-11.5 67.5t-3.5 52.5q0 20 -10 37l-2 2l-26 26q-4 4 -10.5 5t-10.5 5zM45 1274l238 -1067q29 -12 45 -34.5t16 -59.5q0 -18 2 -52t6 -66t13.5 -56.5t21.5 -24.5v18v37q0 18 1 36l1 18q4 59 12.5 126.5t23.5 133 t38.5 126t58.5 107.5q0 2 4 -18.5t10.5 -45t11.5 -45t7 -18.5l3 15q3 14 7 35.5t7 46t8 44.5l71 -301q31 -12 36 -45.5t5 -70.5q0 -18 2 -52t6 -66t12.5 -56.5t20.5 -24.5l7 9q8 9 17 21.5t16 21.5l7 9q4 61 9.5 104.5t17.5 69t34.5 35t61.5 2.5q2 0 2 31t-2 69t-2 68 q0 33 2 35q2 0 7 28.5t10.5 64.5t9.5 66t4 32q2 4 8 11t10 9l150 668h-182q-10 0 -24.5 -11.5t-29 -27t-25 -29.5t-12.5 -20q-2 -12 -4 -48t-5 -76t-5 -77t-4 -49q-4 6 -21.5 2t-23.5 -6q-20 -8 -38.5 -34t-19.5 -48q-2 6 -4 20.5t-5 30.5t-5 30.5t-2 20.5q0 2 -1 7t-3 16 l-86 299l-133 -273q-2 -23 -3 -40t-1 -25q-2 2 -8 -9.5t-13.5 -26.5t-14.5 -28.5t-9 -13.5q-10 -4 -17.5 6t-11.5 20.5t-7 16.5t-3 -4q-4 10 -20.5 27.5t-16.5 27.5q-2 16 -12 63.5t-21.5 100.5t-20.5 100t-9 64h-236zM719 961l20 -21l-20 23v-2zM803 1182l6 -6v2l-2 2z M909 379q0 2 1 3t1 5q0 -4 -1 -5t-1 -3z" />
<glyph unicode="x" horiz-adv-x="679" d="M25 1294h268l2 -14l33 -33l14 -108l39 155h199l41 -4q16 0 21 -3t7 -13l33 -33q2 -2 2 -20q0 -12 -14.5 -48t-36.5 -79q-23 -47 -42.5 -92.5t-19.5 -57.5q0 -25 -14 -78t-29 -102q-10 -31 -15 -51.5t-5 -22.5l4 -16q0 -4 1 -5t1 -3l12 -13q12 -12 23.5 -24.5t15.5 -22.5 l15 -12q25 -25 24 -39v-2q0 -16 3 -48t8.5 -72t11.5 -84t12 -87q8 -53 14 -98t9 -68q0 -14 -8.5 -24.5t-20.5 -26.5q-16 -20 -41 -62t-53 -143l-37 37q-2 -4 -2 -8q0 -6 -2 -10q-25 84 -38.5 131t-23.5 79.5t-21.5 61.5t-29.5 76q10 4 14 15t4 24q0 29 -4 45l-18 65l-8 -47 l-11 -319l-34 35v-9l-43 47v-59l6 -4q-4 -59 -6 -91t-8.5 -47.5t-17.5 -17.5t-32 -2q-16 0 -45 29l-10 10q-14 6 -37 29q-16 49 -29.5 82t-25.5 57q-2 4 -3 7t-3 7q-4 4 -6 9.5t-5 9.5q-18 33 -18 55q2 16 5 46t9 69q2 12 4.5 25.5t4.5 25.5q6 43 12 87t11 84t8 72t3 48v2 q0 10 8.5 23.5t18.5 25.5q2 2 3 4t3 4l6 6q4 8 10.5 23.5t12.5 28.5v2l10 37q-2 4 -2 6q0 4 -2 8q-4 16 -11 36.5t-16 45.5q-14 43 -30.5 93t-30.5 94t-23.5 77t-9.5 45q0 14 -5 33.5t-11 38.5q0 2 -1 4t-1 4q-2 6 -4 14t-2 45zM51 1268q0 -10 12.5 -47t12.5 -66 q0 -16 16.5 -71.5t38 -122t43 -127t29.5 -84.5l-13 -43q-4 -4 -14 -28t-10 -26q0 -4 -6 -12t-14.5 -18.5t-13.5 -18.5t-3 -10q0 -29 -8 -93.5t-18.5 -136t-19.5 -136t-11 -91.5q0 -20 32.5 -76.5t57.5 -140.5q15 -16 26 -16q6 0 10 4q13 14 20 40.5t9 53.5l2 27 q-4 2 -5 28.5t1 63.5t6.5 76t8.5 67q14 -41 24 -71.5t10 -26.5l-10 -41l39 -43l8 272l39 203h4l72 -256q0 -2 2 -18.5t2 -36.5t-2 -38t-8 -20l7 -18t18.5 -50t25.5 -74t27 -89q12 41 29.5 70.5t34 51t27.5 35t11 23.5q-2 27 -11 91.5t-19.5 136t-18.5 136t-8 93.5 q2 2 -11.5 16.5t-31 31.5t-31.5 31.5t-14 18.5t-4.5 19.5t-4.5 19.5q0 6 10.5 41t21.5 77t21.5 81t10.5 55q0 14 17.5 55t39 87.5t39 85t17.5 49.5q0 2 -2 2l-43 4h-175l-84 -342l-51 342h-217zM518 651q8 -8 14 -12l-7 7t-7 5z" />
<glyph unicode="y" horiz-adv-x="661" d="M14 1260q0 -29 9.5 -54.5t21.5 -54.5q6 -16 13.5 -31.5t13.5 -34.5q10 -23 16 -41t10 -28h-2q33 -98 69 -182t77 -177l6 -186l-23 -49l11 -344l10 10l37 -37q-2 -16 -2 -26v-25q0 -29 6 -50.5t28 -25.5l27 -26q6 -8 20 -9q16 0 44 27q16 57 32.5 92t28.5 62 q12 25 20.5 40t8.5 31q0 8 -1 15.5t-1 13.5q0 23 2 41t6 41q6 43 6 96h-2q2 12 6 32.5t6 39t4 33t2 18.5t-5 14.5t-9 20.5q-10 16 -10 24l-11 37q10 35 21.5 59.5t28.5 57.5q29 61 53 117.5t24 79.5q0 6 4.5 30.5t9.5 57t12 70.5t13 73q8 43 13.5 80t5.5 55l-35 35v12h-268 l-25 -168l-29 121l-30 31l-4 16h-199l-43 -4q-20 -2 -23.5 -11t-3.5 -19zM43 1264l43 4h174l84 -342l51 342h217q0 -6 -9 -55.5t-19.5 -109t-19.5 -113.5t-9 -68t-17.5 -56.5t-39 -91.5t-43 -95t-29.5 -71l12 -43q0 -2 4 -10t9.5 -17.5t8.5 -17.5l3 -8q0 -4 -2 -22.5t-4 -40 t-5 -40t-6 -20.5q0 -59 -8 -104q-5 -30 -5 -66q0 -18 1 -37q0 -20 -32.5 -76.5t-57.5 -140.5q-14 -15 -22 -15q-5 0 -8 6q-7 15 -7 44t3 58l3 28q8 6 16.5 42t10.5 77v16q0 32 -6 59q-8 35 -31 42q-10 -29 -10 -52q0 -11 2 -20q6 -31 6 -27l-2 -37l-39 -43l-8 273l22 51 l-6 197q-41 92 -76.5 175t-66.5 177q-4 14 -19.5 54t-31 83t-26.5 77q-7 22 -7 30q0 4 2 4zM285 229q10 4 20 11l-12 -13z" />
<glyph unicode="z" horiz-adv-x="729" d="M16 166l76 336h25l264 428q-45 -4 -94 -6t-76 -4l-18 -175q-27 0 -43.5 7.5t-28.5 19.5l-19 16q-35 16 -48 46t-19 59q-4 10 -6 18.5t-4 14.5q0 4 -1 6t-1 4l-3 358h691l-2 -12l36 -35l-16 -291q0 -23 -14.5 -61.5t-38 -88.5t-54 -109.5t-63.5 -121.5l-37 -67l133 4v-12 l35 -35v-211v-43t-2 -45v-2q0 -16 -5 -50t-10 -72t-11.5 -71.5t-8.5 -48.5l-37 37v-6q-37 33 -54 57.5t-27 48.5q-10 16 -18.5 33t-18.5 33q-4 0 -8.5 1t-8.5 1q-20 0 -40.5 -15.5t-36 -38t-24.5 -46t-9 -41.5l-41 28q-6 -14 -21.5 -23t-44.5 -9l-26 24l-15 -145 q-25 0 -43 20l-24 25q-35 23 -59.5 81t-28.5 144h-2l-35 35h-15zM47 1268l2 -328q6 -12 11.5 -34.5t12.5 -44t21.5 -38t38.5 -16.5l19 174l38 2q37 2 84.5 5t86 6t40.5 5l3 1q4 1 8 1q2 0 6 -1l4 -1q4 -4 12 -10t8 -10l-307 -504h-20l-64 -282q12 0 18.5 -1.5t8.5 -1.5 q4 0 6 1.5t10 5.5q-1 -16 -1 -32q0 -39 4 -75q5 -50 14.5 -87.5t22.5 -59t30 -21.5l14 137l2 11q2 12 5 25.5t6.5 24.5t7.5 13l4 1q4 1 6 1q12 0 19.5 -12t10.5 -27.5t4 -31t1 -21.5q18 0 25 15.5t12 35.5v-8l28 -20q0 14 11.5 35.5t30 41t41.5 32.5t48 13q35 0 58.5 -23.5 t40 -54t30 -61.5t29.5 -45q2 12 7 41t9 60.5t8.5 60.5t4.5 41q3 53 3 99v22q-1 55 -1 114v43l-205 -4q41 80 84 162t79 152.5t58.5 125t22.5 78.5l14 269h-635z" />
<glyph unicode="{" horiz-adv-x="704" d="M20 469v391h201q12 76 30.5 159t41 162t49.5 145.5t51 107.5h291v-13l35 -35q0 -25 -4 -79t-12.5 -109t-20.5 -97t-29 -42h-143q-2 -33 -2 -66v-61v-141q2 -135 -3 -246t-9 -164l147 -31v-12l35 -35l-8 -395q-20 6 -35 20l-25 25q-6 4 -11 9l-9 9q-4 -35 -21.5 -68.5 t-58.5 -47.5l-21 20q-2 -29 -3 -55.5t-3 -50.5l-24 -5q-14 0 -33 19l-18 18q-18 6 -38 32t-36.5 57.5t-27.5 63.5t-11 48l-64 485l-6 7l-2 -2q-8 -8 -16 -11.5t-12 -3.5q-10 0 -20.5 -14t-21 -30.5t-20.5 -30t-27 -13.5q-12 0 -20 8l-27 27q-25 2 -39 45zM47 473 q12 -29 22.5 -21.5t22.5 27t26.5 40t35.5 20.5q4 0 16 10t16 10l45 -31l21 2l70 -526q0 -14 9 -44t22.5 -59.5t29.5 -52t31 -22.5l10 2q2 35 5 76t6 76.5t7 59t9 23.5q2 0 5 -17t6 -39.5t7 -47.5t10 -37q18 6 29.5 24.5t15.5 40t5 44t1 37.5v18h41q0 -4 1 -20.5t5.5 -35 t11.5 -33.5t19 -20l8 351l-159 34l-2 36t-3 99.5t-3.5 149.5t-2.5 184v142q0 37 1.5 73.5t3.5 73.5h161q12 0 20.5 37t13.5 86t8 96t3 68h-247q-25 -41 -49.5 -108.5t-47 -146.5t-40 -163t-27.5 -155h-199v-361z" />
<glyph unicode="|" d="M18 1565l5 -1676q27 -43 51 -97t30 -107q18 -18 27 -19l21 -20q10 -10 13 -12.5t11 -2.5h6q33 0 43.5 34t18.5 79q8 41 21.5 83t49.5 58l-4 1633l-35 34v13h-258zM45 1538h205l4 -1597q-33 -12 -46 -52.5t-21.5 -84.5t-16.5 -77.5t-29 -33.5q-2 0 -5 1t-5 1 q-6 53 -30.5 107.5t-51.5 97.5z" />
<glyph unicode="}" horiz-adv-x="704" d="M20 1434q0 -25 4.5 -81.5t13.5 -113.5t22.5 -101t31.5 -44l31 -31q4 -4 10 -4h96q0 -23 1 -45.5t1 -40.5v-195q0 -72 2.5 -136t4.5 -115.5t5 -87.5t5 -50l-187 -39l9 -409l4 2q2 0 6 2l37 -37q33 12 49 41q20 -35 53 -53l17 -17q8 -8 12 -10q2 -10 2 -21q0 -10 2 -20 q0 -4 1 -12.5t1 -12.5l14 -2l33 -32l27 -5q18 0 37.5 25t37 57.5t29.5 65.5t12 49v2l66 502h2q20 0 23 10l24 19l4 -2q4 -4 15 -13q2 -4 3 -5t3 -5v2q4 -8 8 -10q8 -14 15 -23.5t20 -13.5l26 -25q10 -10 27 -10q23 0 39 41v383l-35 35v12h-176q-12 70 -29.5 146.5t-39 148.5 t-45 132.5t-46.5 98.5l-24 23l-13 25h-291zM47 1407h248q25 -41 49.5 -108.5t47 -146.5t40 -163t27.5 -155h198v-361q-12 -29 -22 -21.5t-22.5 27t-27 40t-34.5 20.5q-4 0 -16.5 10t-16.5 10l-45 -31l-20 2l-70 -526q0 -14 -9 -44t-22.5 -59.5t-30 -52t-30.5 -22.5l-10 2 q-2 35 -5.5 76t-6.5 76.5t-7 59t-8 23.5t-6 -17t-5 -39.5t-7.5 -47.5t-10.5 -37q-18 6 -29.5 24.5t-15.5 40t-5 44t-1 37.5v18h-41q0 -4 -1 -20.5t-5 -35t-11 -33.5t-20 -20l-8 351l160 34l2 36t3 99.5t3 149.5t2 184v142q0 37 -1 73.5t-3 73.5h-162q-12 0 -20.5 37 t-13.5 86t-8 96t-3 68z" />
<glyph unicode="~" horiz-adv-x="692" d="M37 584l115 229l53 10q14 14 37 15q6 0 12 -2q8 -4 16 -5h21l117 -26l8 -19l28 -28v-2l15 20q4 10 15 13.5t22 7.5q2 0 3 1t3 1h2q0 2 4 2v35l65 14q33 0 44.5 -6t13.5 -23l28 -26q6 -4 7.5 -14.5t1.5 -22.5t3 -29.5t23 -50.5l-112 -232h-203l-10 11l-33 8l-33 31l-12 4 l-6 8l-9 -14q-4 -37 -15 -44.5t-38 -11.5q-10 -2 -24.5 -5t-34.5 -13q-37 0 -45 8l-29 29q-18 4 -21 15t-3 34q0 10 -3.5 26.5t-25.5 51.5zM68 586q18 -29 21 -47.5t3 -32.5t3 -19.5t24 -5.5q27 12 44 15.5t28.5 5.5t16.5 9t7 28l49 77l45 -92l47 -12q2 -2 2 -4h2h168 l103 211q-18 29 -21.5 47t-3.5 33q0 14 -3 19t-23 5l-45 -10v-25q-2 -10 -26 -15t-26 -9l-49 -76l-45 92l-104 25q-8 0 -20.5 3t-22.5 3q-16 0 -17 -10v-2l-55 -11z" />
<glyph horiz-adv-x="366" />
<glyph unicode="&#xa1;" horiz-adv-x="311" d="M29 33h12l35 -35h246v659q-10 6 -17 17l-18 18v8q-6 6 -13.5 12.5t-13.5 14.5q-18 27 -24 59l-31 31q-4 8 -4 17h-33q-35 0 -43 -17.5t-12 -44.5q0 -4 -1 -5t-1 -3q-4 -23 -16.5 -46.5t-65.5 -27.5v-657zM29 903h12l35 -35h246v222q-16 23 -21.5 45t-9.5 42.5t-7 36 t-14 25.5l-22 23q-6 16 -18.5 26t-34.5 10l-127 -10v-43q-2 -16 -3.5 -21t-5.5 -10l-2 -2q-2 -2 -2 -4t-2 -4q-4 -4 -9 -8t-9 -12l-6 -17v-264zM55 59v607q43 4 58.5 26.5t20.5 48t8 46t26 20.5h10q6 -31 30.5 -61.5t51.5 -55.5v-631h-205zM55 930v235q12 18 19.5 26.5 t10.5 13.5t5 12.5t4 25.5v10v11l103 8q18 0 23 -14.5t8 -36t8.5 -47t23.5 -50.5v-194h-205z" />
<glyph unicode="&#xa2;" horiz-adv-x="595" d="M23 684v47q0 131 13 270.5t81 272.5h18q6 0 12.5 1t10.5 1t8 1t8 1t12.5 1t18.5 3v277h207v-13l34 -35v-219q47 -4 74 -18t37 -41l18 -16q23 -23 27 -62t4 -92q0 -20 -9 -73.5t-23.5 -110t-33 -100.5t-38.5 -48l-37 37q-8 -4 -10 -4q0 66 -6 106v-405q37 6 79 18v-14 l35 -35l-10 -457l-6 -10t-12 -16l-13 -12q-12 -4 -14 -5h-6h-6q-8 0 -11.5 2.5t-13.5 12.5l-20 20v-88q-29 -16 -38.5 -58t-15.5 -83q-6 -47 -15 -81t-38 -34l-25 8l-30 31l-17 6q-8 61 -26.5 117.5t-36.5 99.5v43l-10 -8v127h-2q-14 -10 -23 -10h-37l-35 35h-12 q-33 158 -50 304t-17 306zM49 684q0 -154 16.5 -295t47.5 -289h20q4 2 20.5 11.5t20.5 9.5q12 4 32 -1l19 -5v-138l11 9v-92q18 -43 37.5 -97.5t23.5 -107.5l6 -2q16 0 22.5 33.5t12.5 77.5t16.5 84t34.5 52l-2 269q18 -37 30.5 -56.5t19.5 -37t10.5 -41t3.5 -70.5q2 0 5 -1 t5 -1t6 1l4 1q4 4 12.5 11t8.5 9l10 431q-66 -16 -115 -19v574q18 0 35.5 -9.5t31 -32t20.5 -62.5t7 -103q12 2 23.5 43t21 93t14.5 101t5 70q0 39 -2 69.5t-13.5 51t-37 32t-70.5 11.5h-23h-14v264h-154v-275q-33 -4 -60.5 -6t-37.5 -4q-33 -63 -50 -134t-24.5 -142.5 t-8.5 -144t-1 -142.5zM143 778q0 27 2 59.5t11.5 63.5t28 53.5t48.5 28.5v-522q-37 23 -55 58.5t-25.5 78.5t-8.5 90t-1 90zM205 666q0 -25 2 -52v189q-2 -16 -2 -35v-31v-20v-51z" />
<glyph unicode="&#xa3;" horiz-adv-x="770" d="M27 778q0 31 3 45.5t25 14.5h131q-2 8 -2 20l4 367l70 69l330 2l35 -36v-7l4 -4l30 -32v-252q-35 -4 -61.5 -5.5t-48.5 -1.5h-39h-25q-10 0 -21 1.5t-28 3.5q-2 -14 -3 -26.5t-1 -25.5q-2 -16 -3 -30.5t-1 -24.5v-16h6h49l213 26v-12l35 -35l2 -123l-37 -121l-178 -2 q-8 -10 -22.5 -24t-28.5 -25l-21 19q-6 -4 -11 -16.5t-5 -28.5v-9q8 -4 33 -4q6 0 38.5 1t70.5 2t69 4.5t33 9.5h45l4 -15l33 -32l37 -146l-23 -12q-4 -72 -6 -100q-4 -10 -10.5 -40t-8.5 -40q-6 -61 -30.5 -109.5t-46.5 -48.5q-12 0 -23 10l-25 25q-29 6 -40 49 q-6 6 -13 14l-20 21q-6 0 -11.5 3t-15.5 15l-12 35q-10 -10 -15.5 -16t-7.5 -6q-20 0 -32 12l-21 20q-2 -2 -4 -2l-2 -2l-10 10q-4 4 -6 5.5t-5 5.5l-8 8l-262 -27q-2 0 -4 2l-33 33h-4q-8 0 -15 22.5t-13.5 53.5t-9.5 65.5t-3 59.5q0 29 3 43t24 16l84 4q-4 23 -6 45.5 t-2 44.5v17l-48 -2q-2 0 -4 2l-32 33h-4q-8 0 -15.5 22.5t-12.5 53t-8 65.5t-3 59zM53 778q0 -23 1 -52.5t3 -56t4 -46t5 -19.5l124 4q-12 -47 -9 -97t16 -97l-117 -6q-2 0 -2 -33q0 -23 1 -52.5t3 -56t4 -46t4 -19.5l275 26l8 25q4 -14 6 -27.5t6 -19.5q14 10 19.5 6 t9.5 -13.5t9 -18.5t19 -9q2 0 11.5 12.5t19.5 25.5t19 26l8 12l45 -140q6 -10 13 7.5t14.5 42t15.5 46t18 19.5q-12 -119 -3 -162t25.5 -37.5t33 46.5t20.5 92q2 10 8 40.5t10 41.5q2 33 7 108l18 10l-31 123q-2 -8 -35.5 -12t-75.5 -7t-79 -4t-43 -1q-57 0 -76.5 29.5 t-16.5 60.5t21.5 49t38.5 -4q10 8 21.5 18.5t11.5 14.5q0 8 12 8l164 2l33 106l-2 95l-185 -25h-55q-35 6 -48 25.5t-15.5 48t3 64.5t5.5 73l14 2q4 0 31.5 -3t78 -4t99.5 5v225l-18 21l-310 -2l-53 -54l-4 -356q0 -10 10 -45l-166 -2q-2 0 -2 -33z" />
<glyph unicode="&#xa4;" horiz-adv-x="679" d="M25 1294q0 -37 2 -45t4 -14q0 -2 1 -4t1 -4q6 -18 11 -38t5 -34q0 -25 19.5 -90.5t42.5 -138.5q-4 -8 -7.5 -17.5t-5.5 -17.5q-4 -10 -6 -20.5t-4 -18.5q-4 -14 -7 -27.5t-7 -26t-6 -21.5t-5 -13q0 -2 -6 -9t-12 -12l18 -241q0 -18 23 -45q-2 -18 -4 -39t-4 -37 q-4 -23 -5 -43.5t-5 -40.5v2q-4 -27 -7.5 -51.5t-7.5 -45t-5 -35.5t-3 -26q0 -18 5 -28.5t11 -24.5l5 -8q4 -8 8 -17q2 -4 3 -7t3 -7q12 -25 25.5 -57.5t29.5 -81.5q23 -23 37 -29l10 -10q29 -29 45 -29q20 0 31.5 2t18 17.5t8.5 47.5t6 91l-6 4v59l43 -47v9l34 -35l11 319 q4 -4 6 -4t6 -2l14 -14q4 -16 4 -43q0 -12 -4 -23.5t-14 -15.5q18 -47 29.5 -76t21.5 -61.5t23.5 -79.5t38.5 -131q2 4 2 10q0 4 2 8l37 -37q29 100 53 142.5t41 62.5q12 16 20.5 26.5t8.5 26.5q-4 25 -10.5 77t-16.5 114q-6 45 -13.5 88t-11.5 82q16 37 24.5 67.5t8.5 40.5 v21q0 4 -2 12t-4 18v29q0 18 -4 59.5t-10.5 86.5t-12.5 86t-8 57l-27 27q6 23 22.5 58.5t35.5 72.5q23 43 37 78.5t14 48.5q0 18 -2 20l-33 33q-2 10 -6 13t-20 3h-2l-41 4h-199l-39 -153l-14 106l-33 33l-2 14h-268zM51 1268h217l47 -312h11l77 312h175l43 -4q2 0 2 -2 q0 -10 -17.5 -49t-39 -85.5t-39 -87.5t-17.5 -55q0 -4 -1 -11t-3 -18h37q2 -16 7 -54t11 -81t10 -81t4 -52v-12q0 -10 3.5 -21.5t3.5 -25.5v-21q0 -10 -8.5 -39.5t-24.5 -64.5q6 -45 14 -100.5t15.5 -107.5t13.5 -95t8 -64q0 -10 -11 -23.5t-27.5 -35t-34 -51t-29.5 -70.5 q-12 47 -26.5 89t-26 74t-18.5 50l-7 18q6 2 8 19.5t2 38.5q0 20 -2 36.5t-2 18.5l-8 31q-4 -2 -15 -2q-14 0 -16 2l-53 53l-5 1q-5 1 -7 1h-5l-6 -33l-8 -272l-39 43l10 41q0 -4 -10 26.5t-24 71.5q-4 -29 -8.5 -67.5t-6.5 -75.5t-1 -63.5t5 -28.5l-2 -27t-9 -53.5 t-20.5 -39.5t-35.5 11q-25 84 -57.5 140.5t-32.5 76.5q2 18 7 55t11 82t13.5 95.5t13.5 95.5q-23 14 -27 39l-18 227q6 4 12 15.5t6 15.5q2 8 9 30.5t15.5 48t15.5 49t11 38.5q-12 37 -24.5 74.5t-21.5 68.5t-14 53.5t-5 30.5q0 29 -12.5 65.5t-12.5 47.5zM242 682 q0 -16 2 -38.5t10 -42t26.5 -34t49.5 -14.5q33 0 51 14.5t27.5 36t10.5 45t1 39.5v14v37v9q0 20 -7 42.5t-10 22.5h-131q-10 0 -15 -17.5t-9 -40t-5 -44t-1 -29.5zM303 612v29v25q0 18 2 37.5t3 34t5 14.5h80v-4v-60q0 -14 -1 -32.5t-7 -36t-18.5 -28.5t-36.5 -11 q-10 0 -23 4q-4 14 -4 28z" />
<glyph unicode="&#xa5;" horiz-adv-x="669" d="M12 561h25q-4 2 -5 4t-5 6l-2 195h165q-25 57 -48 117.5t-46 132.5h2q-4 10 -10 28.5t-16 40.5q-6 18 -13.5 34t-13.5 32q-12 29 -21.5 54.5t-9.5 54.5q0 10 3 19t24 11l43 4h199l4 -16l30 -31l29 -121l25 168h268v-12l35 -35q0 -18 -5 -55t-14 -80q-6 -35 -13 -73 t-12 -70.5t-9.5 -57t-4.5 -30.5q0 -14 -11 -45t-30 -70h64v-12l35 -35l2 -162q-6 -6 -12.5 -12t-16.5 -10l23 -21l2 -174l-99 -2q2 0 -4 -4t-16 -8q-12 -6 -24.5 -12.5t-22.5 -10.5q-2 -10 -3 -18.5t-1 -16.5q-4 -23 -6 -44t-2 -44v-18t2 -19q0 -18 -8.5 -33.5t-20.5 -39.5 q-12 -27 -28.5 -62t-32.5 -92q-27 -27 -44 -27q-14 0 -20 9l-27 26q-23 4 -28.5 25.5t-5.5 50.5v25q0 10 2 26l-37 37l-10 -10l-11 274q-4 -2 -14 -2q-10 -2 -20.5 -3t-20.5 -1q-20 0 -36.5 6t-37.5 27l-10 10q-16 6 -37 29zM43 1264q-6 0 5 -34t26.5 -77t31 -83t19.5 -54 q23 -74 51.5 -141.5t56.5 -135.5h-182l2 -157q16 -16 30.5 -8t30 23t35 30.5t44.5 15.5h40l35 -10l4 -98h-225l27 -105q16 -16 32.5 -20t35 -2t40 6t47.5 4h23v-2l8 -273l39 43l2 37q0 -4 -6 27t8 72q23 -6 31 -41t6 -76t-10 -77t-17 -42l-3 -28q-3 -29 -3 -58t7.5 -44 t29.5 9q25 84 57.5 140.5t32.5 76.5q-4 51 2 92t10 91q2 -2 7 -3q6 0 18 6.5t24.5 12.5t22.5 12t14 6l78 2l-2 134h-155q-4 10 -8.5 19t-6.5 11l-12 43q0 -2 4 15q8 2 21 2q8 0 10 2q6 4 14 0t14.5 -10.5l12.5 -12.5t10 -6l-6 -25q49 0 72.5 9.5t35.5 23.5l-2 133h-129 q12 29 25.5 57.5t24 53t16.5 44t6 28.5q0 14 9 68t19.5 113.5t19.5 109t9 55.5h-217l-51 -342l-84 342h-174zM188 561h56l-2 21h-9q-12 0 -23 -6.5t-22 -14.5zM285 229l8 -2l12 13q-10 -6 -20 -11zM432 350q0 -4 4 -4z" />
<glyph unicode="&#xa6;" d="M18 -78l5 1643h258v-13l34 -34l-4 -1665q-27 -43 -51 -99.5t-33 -120.5q-2 0 -12 -1t-12 -1h-4q-18 0 -31 13l-25 24q-29 6 -39 40t-16 75q-8 43 -20.5 84t-49.5 55zM45 -59q33 -12 46 -52.5t20.5 -84.5t15.5 -77.5t31 -33.5q2 0 5 1t5 1q6 53 30.5 107.5t51.5 97.5 l4 1638h-205z" />
<glyph unicode="&#xa7;" horiz-adv-x="669" d="M45 141q0 -18 5 -28.5t11 -24.5l5 -8q4 -8 8 -17q2 -4 3 -7t3 -7q12 -25 25.5 -57.5t29.5 -81.5q23 -23 37 -29l10 -10q29 -29 45 -29q20 0 31.5 2t18 17.5t8.5 47.5t6 91l-6 4v59l43 -47v9l34 -35l11 319l2 17q10 0 42 -1t111 -6l80 134q23 39 29 70.5t6 43.5v21 q0 4 -2 12t-4 18v29q0 18 -4 59.5t-10.5 86.5t-12.5 86t-8 57l-27 27q6 23 22.5 58.5t35.5 74.5q23 43 36 78.5t13 46.5v20l-35 35v12l-67 6h-199l-78 -313l-170 -29v2l-12 2l-15 -45q-4 -16 -9 -31.5t-9 -27.5q-4 -14 -7 -27.5t-7 -26t-6 -21.5t-5 -13q0 -2 -6 -9t-12 -12 l18 -241q0 -18 23 -45q-2 -18 -4 -39t-4 -37q-4 -23 -5 -43.5t-5 -40.5v2q-4 -27 -7.5 -51.5t-7.5 -45t-5 -35.5t-3 -26zM72 137q2 18 7 55t11 82t13.5 95.5t13.5 95.5q-23 14 -27 39l-18 227q6 4 12 15.5t6 15.5q2 8 9 30.5t15.5 48t15.5 49t11 38.5l174 28h11l77 312h175 l43 -4q6 0 -11.5 -38t-39 -87t-41 -94.5t-19.5 -59.5q0 -4 -1 -11t-3 -18h37q2 -16 7 -54t11 -81t10 -81t4 -52v-12q0 -10 3.5 -21.5t3.5 -25.5v-21q0 -10 -6.5 -39.5t-26.5 -64.5l-74 -123l-23 1q-24 1 -52.5 2t-53.5 2l-24 1h-5l-6 -33l-8 -272l-39 43l10 41 q0 -4 -10 26.5t-24 71.5q-4 -29 -8.5 -67.5t-6.5 -75.5t-1 -63.5t5 -28.5l-2 -27t-9 -53.5t-20.5 -39.5t-35.5 11q-25 84 -57.5 140.5t-32.5 76.5zM242 682q0 -16 2 -38.5t10 -42t26.5 -34t49.5 -14.5q33 0 51 14.5t27.5 36t10.5 45t1 39.5v14v37v9q0 20 -7 42.5t-10 22.5 h-131q-10 0 -15 -17.5t-9 -40t-5 -44t-1 -29.5zM279 786l34 -34h80v-4v-60q0 -14 -1 -32.5t-7 -36t-18.5 -28.5t-36.5 -11q-10 0 -23 4q-4 14 -4 28v29v25q0 18 1 36.5t2 33t5 16.5z" />
<glyph unicode="&#xa8;" horiz-adv-x="540" d="M29 1313v182h231v-12l14 -15v27h242v-12l35 -35v-180q-8 -8 -16.5 -15.5t-12.5 -11.5t-5 -6t-3 -12v-27l-115 -8q-25 0 -34 10l-27 27q-23 4 -28 18t-7 37q-2 6 -3 13t-5 16v-64q-12 -18 -21.5 -23t-19.5 -5h-4v-17l-109 -8q-29 0 -37 8l-28 27q-18 4 -21.5 15t-3.5 28 q0 6 -3 15t-19 28zM55 1323q16 -18 19.5 -30.5t3.5 -22.5q0 -8 3 -12.5t19 -4.5l88 7v8v8q2 12 5.5 11t8.5 -5t13 -4t18 14v176h-178v-145zM301 1343q18 -16 22.5 -32.5t6.5 -30.5t6 -22.5t22 -8.5l95 6v7v6q4 23 9 24.5t27 24.5v151h-188v-125z" />
<glyph unicode="&#xa9;" horiz-adv-x="2680" d="M18 778l170 31l-79 113l16 157l201 -24q6 274 104 274h14l174 -74q59 94 110.5 149.5t105.5 82.5l149 -115l313 178l97 -84l-2 -8l34 -35l-2 -4l275 64l147 -21l-2 -12l37 -35l-8 -67h348l49 -58v-2l35 -41q0 -47 -14 -86l254 -76v-10l34 -35v-39q0 -70 -51 -104 q96 -49 115 -92l14 -12q27 -25 27 -50v-2q0 -2 -1 -5t-1 -7l-45 -94h-127l82 -121h-2q4 -4 7 -13t3 -20v-14q0 -84 -72 -107l-153 31l-17 -205q-25 -59 -86 -59q-43 0 -81 17.5t-89 52.5l-159 -203l-105 -29l-37 37l-6 -2l-68 74l-303 -180l-80 30l-30 31l-17 6v57l-358 -63 l-74 49l-22 23l-25 16l8 51l-385 39l-34 33l-13 2v111l10 10l-163 35q-31 0 -45 18l-21 18q-51 14 -51 109l78 74l-111 61l-27 25l-20 12zM51 756l17 -97l188 -100l-106 -100q0 -74 53 -74l272 -55l-55 -64v-73l444 -43l-18 -97l53 -35l424 76v-117l55 -20l322 193l104 -119 l86 22l166 213q55 -39 94 -58.5t80 -19.5q47 0 66 43l18 228l170 -35q53 16 53 84v14q0 16 -4 21l-102 153h152l36 78q0 4 1 6t1 4q0 55 -225 146q121 18 121 112v13v10l-342 104q68 8 68 111l-35 41h-404l13 117l-117 18l-340 -78l-19 19l19 59l-68 60l-309 -177l-152 117 q-47 -23 -94 -79t-108 -154l-191 80h-8q-78 0 -78 -277l-202 25l-15 -121l101 -139zM100 717l219 20l-116 172l-19 80l224 -20l30 272q109 -84 170 -84l10 4q9 4 29 8l184 228l136 -117l307 176l35 -18l14 -117l444 76l-32 -135h458l-137 -117l391 -94l19 -43h-19l-170 -56 l273 -161l18 -35l-219 -19q139 -182 139 -237q0 2 -1 -3t-3 -18l-225 43l-16 -276l-218 84l-172 -236l-153 115l-340 -191l18 76l-55 78l-424 -98l51 135l-475 22l137 111l-409 104l188 97zM240 664l209 -123l-11 -6l11 -9l30 377l107 31l-2 -14l37 -35l-3 -43q70 70 222 96 l-2 -14l36 -35l-6 -39q14 23 32 39t38 31h12v2h25q90 0 131 -72l-2 104l43 -53l4 -4l86 -111l47 -55l6 201l109 -35v-10l26 -31l7 62l110 32l-2 -14l37 -35l-6 -129q33 84 82 154q20 20 61 20q45 0 76 -53l16 -16l13 -17l-2 111l41 -56l6 -4l129 -166l10 205l102 -39v-10 l29 -31l4 80l127 -41l-2 -10l37 -35l-45 -291l-84 19l-31 31v-52l19 17l75 -37v4l224 -43q-23 68 -158 248l205 14l-238 144l-22 20l-35 23l170 53l-328 80l-33 30l-20 6l82 70h-332l-35 35h-14l20 84l-374 -64l-35 35l-13 -2l-10 86l-284 -162l-39 33h-2l-91 78l-174 -213 q-23 -4 -28.5 -6t-16.5 -8q-61 0 -157 65l-29 -256l-215 19l10 -50l135 -194zM352 436l318 -80l-11 -8l39 -37l-73 -61l362 -17l-4 -10l37 -37l-25 -63l338 78l21 -31l18 -16l49 -70l281 158l145 -111l168 231l203 -79l8 155l-28 -30l-37 36l-4 -4l-46 49q-47 12 -100 68 q-25 16 -53 45v-106l-86 -11l-12 13v-13l-78 29l-33 31l-12 6q-4 10 -8.5 18.5t-8.5 16.5q-23 -8 -57 -78h-94l-10 8l-115 -37l-10 10v-10q-70 0 -146 76q-10 8 -20.5 16.5t-20.5 18.5v-107l-88 -14l-37 35h-10l-2 35q-29 -55 -82 -60q-8 -2 -22 -2l-5 -2h-26q-66 0 -98 33 l-17 14q-16 8 -33 25l9 -82q-10 -2 -27.5 -5t-24.5 -5h-2q-23 -6 -32 -6q-43 0 -76 32l-12 11q-35 16 -58 49v-37l-110 -39l-31 29zM475 535l68 24l14 338l-53 -14zM590 684q0 -23 2 -25q31 -150 117 -149q12 0 26.5 5t36.5 9l-4 58q-14 -8 -59 -9q-63 0 -64 68q0 78 45 141 q45 49 82 49q12 0 16.5 -1t14.5 -7l8 82q-221 -41 -221 -200v-21zM678 604q0 -4 4 -4zM707 600h2q35 0 84 29v-21l12 -10q0 92 22 166q-8 6 -14 6q-28 0 -65 -41q-41 -55 -41 -129zM831 592q18 -55 103 -55h22q2 0 9.5 1t17.5 3q92 -1 119 241q-25 113 -127 113h-19 q2 0 1 -1t-11 -1q-115 -78 -115 -301zM889 682v23q37 111 88 110q39 0 59 -45q6 -6 6 -37q0 -43 -24 -104q-68 -29 -80 -29q-49 0 -49 82zM950 629q8 4 19.5 8t27.5 10q8 27 13.5 47.5t5.5 38.5q0 16 -2 21q-35 -4 -64 -90v-35zM1133 879l6 -344l47 8v162q115 -164 186 -164 v338l-55 18l-8 -238zM1425 549l74 24l14 340l-57 -16zM1550 569h60q39 80 76 80q41 0 71 -80l41 -14l-8 256q-23 109 -76 109q-31 0 -41 -11q-111 -162 -123 -340zM1642 723l60 115l37 -115h-97zM1845 891l6 -342l45 6v168q111 -172 183 -172v342l-51 20l-13 -241zM1982 584 l7 -6zM2122 520l35 -41l51 56l-45 20zM2150 649l48 -10l38 252l-73 22z" />
<glyph unicode="&#xaa;" horiz-adv-x="428" d="M25 801q0 -6 1 -12.5t1 -10.5l26 -30h6l37 -35q41 8 41 35v12q14 -10 53 -10l15 182l63 -2q-4 -8 -5 -14.5t-1 -10.5q0 -18 4 -33.5t8 -31.5q10 -27 11 -54h12l35 -34h51v22l10 -8q10 -10 17.5 -6t7.5 35v10q0 10 2 22.5t3 22.5t1 14v56q0 8 1 16t1 18v117 q0 78 -11.5 158t-56.5 139l-2 2q0 2 -2 4l-20 19q-4 8 -12 20q-8 10 -17.5 15.5t-13.5 5.5h-113q-14 0 -29.5 -29t-33 -72t-32.5 -96t-27.5 -101.5t-19.5 -86t-7 -52.5v-14q0 -20 2 -27q0 -2 1 -3t1 -3q2 -10 3 -18t1 -19l-12 -36v-76zM51 854v20l12 37q0 18 -4 39t-4 33v14 q0 14 6.5 50t16.5 81.5t22.5 94.5t26.5 90t27.5 67.5t23.5 26.5h113q4 0 10 -10q41 -53 52.5 -131t11.5 -154v-94v-23q0 -16 -1.5 -33.5t-1.5 -33.5v-23q0 -2 -1 -12t-2 -22.5t-2 -22.5t-1 -12t-4 3t-8 11t-8 11t-4 3q-4 -4 -7 -24.5t-3 -26.5h-11q0 6 -5 21.5t-10 32 t-7 30.5t2 18q8 6 10 18.5t-1 25t-10 21.5t-16 9l-129 6l-14 -184q-14 0 -19.5 4t-7.5 10t-4 10.5t-10 4.5q-18 0 -16 -18.5t2 -33.5q0 -10 -13 -12l-10 12q0 16 -1 33t-1 33zM188 1141h88q0 25 -12 50.5t-24 41.5l-4 2q-10 0 -18.5 -11.5t-13.5 -26.5t-9.5 -31.5 t-6.5 -24.5z" />
<glyph unicode="&#xab;" horiz-adv-x="581" d="M27 743l43 -120l26 -19l21 -20l151 -103q23 23 33 26t18 3h23v31h-2v4q-2 6 -2 10v10t-3 17.5t-9 33.5l6 -4l26 -24l152 -103q23 23 33 26t18 3h23v31h-2v4q-2 8 -1 12t0 13.5t-6.5 28t-17.5 54.5l-31 29q0 2 -4 14l-10 9l80 63l-78 143l-25 25l-14 27l-168 -111l-2 -6 l-33 61l-24 25l-15 27l-167 -111zM53 743l33 91l137 90l60 -111l-95 -74l70 -59q4 -10 8 -28.5t7 -36t5 -29.5l3 -13v-2h-2q-10 0 -22.5 -3t-31.5 -19l-133 90zM270 705l11 8l14 -39l-10 8q0 2 -4 14zM295 748l33 90l137 90l59 -111l-94 -74l70 -59q4 -10 8 -28.5t7 -36 t5 -29.5l2 -12v-3h-2q-10 0 -22.5 -3t-30.5 -19l-133 90z" />
<glyph unicode="&#xac;" horiz-adv-x="692" d="M39 524l2 312h604v-13l35 -35l12 -329q-10 -4 -13 -5t-7 -3v-132q-27 -6 -42.5 -21t-23.5 -36.5t-11 -45t-5 -46.5q-4 -43 -11.5 -72.5t-39.5 -29.5h-7q-8 0 -11 2t-13 12l-21 20q-6 0 -11 3.5t-15 15.5q-6 53 -30.5 107.5t-51.5 97.5v153q-16 -4 -31.5 -8t-34.5 -8 q-33 -8 -67.5 -15.5t-67.5 -7.5q-51 0 -78 27l-16 16q-29 10 -45 41zM66 532q16 -29 54 -30.5t83 7.5t88 21.5t71 12.5q4 0 20.5 -1t20.5 -1l3 -2v-203q27 -43 51 -97.5t30 -107.5q2 0 5.5 -1t5.5 -1q20 0 24 35t9.5 80t20.5 84t58 49v129q10 4 16 6l5 2l-13 295h-550z" />
<glyph unicode="&#xad;" horiz-adv-x="548" d="M33 442q18 -35 39 -39l24 -24q10 -10 21 -10q16 0 27.5 18.5t21.5 42.5q10 23 20.5 42.5t20.5 19.5q2 0 7 -1.5t9 -1.5h8l82 -47q4 0 24.5 4.5t43.5 10.5l-2 -80h12l35 -35q59 0 84 7t41 42v397l-35 35v13h-483v-394zM59 449v360h430v-373q-10 -23 -26.5 -28t-54.5 -5 l4 72q-4 0 -8.5 11.5t-9.5 22.5t-11 18.5t-12 -1.5q-2 -2 -16.5 -6t-30 -7t-29.5 -6t-16 -3l-80 47q-4 0 -16.5 1t-16.5 1q-20 0 -34.5 -26.5t-27 -53.5t-22.5 -40t-23 16z" />
<glyph unicode="&#xae;" horiz-adv-x="2590" d="M-27 735l41 -24l21 -21l250 -151l-201 -101l27 -8l32 -31l349 -90l-130 -102l23 -2l35 -33l438 -20l-43 -115l14 2l37 -35l430 98l11 -12l-29 -125l14 8l37 -36l369 206l160 -118l174 239l229 -88l16 281l156 -31q4 -27 10 -33l41 -41q4 -4 9.5 8.5t9.5 53.5l-35 35v10 h41q0 55 -121 219l213 18l-35 68l-26 24l-11 23l-174 102l99 33h43l-35 82l-29 29l-8 18l-291 68l115 98l-37 37l12 10h-452l24 94l-37 35l4 15l-430 -76l-6 55l-35 33v12l-59 33l-305 -176l-140 123l-196 -242q-16 -4 -22.5 -5t-10.5 -5q-53 8 -182 106l-35 -293l-233 21 l26 -117l96 -143zM59 717l220 20l-117 172l-19 80l224 -20l30 272q109 -84 170 -84l9 4q10 4 30 8l185 228l135 -117l307 176l35 -18l14 -117l444 76l-32 -135h458l-137 -117l391 -94l19 -43h-19l-170 -56l273 -161l18 -35l-219 -19q139 -182 139 -237q0 2 -1 -3t-3 -18 l-225 43l-16 -276l-217 84l-173 -236l-153 115l-340 -191l18 76l-55 78l-424 -98l51 135l-475 22l137 111l-409 104l188 97zM434 535l68 24l14 338l-53 -14zM549 684q0 -23 2 -25q31 -150 117 -149q12 0 26.5 5t36.5 9l-4 58q-14 -8 -59 -9q-63 0 -64 68q0 78 45 141 q45 49 82 49q12 0 16.5 -1t14.5 -7l8 82q-221 -41 -221 -200v-21zM791 592q18 -55 102 -55h22q2 0 9.5 1t17.5 3q92 -1 119 241q-25 113 -127 113h-19q2 0 1 -1t-11 -1q-115 -78 -114 -301zM848 682v23q37 111 88 110q39 0 59 -45q6 -6 6 -37q0 -43 -24 -104 q-68 -29 -80 -29q-49 0 -49 82zM852 567v19q4 -4 16 -8l17 -15h-19q-8 0 -14 4zM973 834h2q18 0 37 -7q6 -10 11 -22t9 -29q0 -2 -1 -3t-1 -3v2l-12 12q-16 33 -45 50zM1092 879l6 -344l47 8v162q115 -164 186 -164v338l-55 18l-8 -238zM1153 758l137 -168q-23 16 -46 38.5 t-52 57.5q-6 10 -13.5 21.5t-13.5 21.5l-10 10zM1292 588v10l13 -12v-6q-4 2 -6.5 4t-6.5 4zM1384 549l74 24l15 340l-58 -16zM1509 569h60q39 80 76 80q41 0 71 -80l41 -14l-8 256q-23 109 -76 109q-31 0 -41 -11q-111 -162 -123 -340zM1591 651l6 19l9 -6q-6 -4 -15 -13z M1602 723l59 115l37 -115h-96zM1683 662h43l3 -50l-9 6q-17 28 -37 44zM1700 858h6q4 -10 8 -24.5t8 -30.5v-6l-16 55zM1804 891l6 -342l45 6v168q111 -172 183 -172v342l-51 20l-13 -241zM1866 758v10l129 -164q-35 27 -82 86q-10 14 -18.5 29t-18.5 31zM1999 602v8l12 -12 v-6q-4 4 -6 5t-6 5zM2081 520l35 -41l51 56l-45 20zM2109 649l48 -10l38 252l-73 22z" />
<glyph unicode="&#xaf;" horiz-adv-x="737" d="M20 864h13l35 -35q29 0 45 10.5t28 26.5q14 16 34 36t56 20q2 0 8.5 -1t12.5 -1h20l117 4h12q16 -2 44 -4t51 -2q25 0 32 4l2 2h21l20 -140h13l34 -34q63 0 84 19t33 46q2 4 4 9l4 10v413l-34 35v12h-689v-430zM47 891v377h635v-389q-12 -25 -24.5 -46.5t-61.5 -21.5 l-16 109l-12 8q-11 8 -26.5 19t-28.5 21.5t-15 12.5l-3 1q-3 1 -8 1q-2 0 -6 -1l-4 -1q-2 -2 -22 -2q-12 0 -30.5 1t-35 2t-28 2t-13.5 1l-117 -4q-4 0 -20 1t-21 1q-35 0 -57 -14.5t-36.5 -31.5t-26 -31.5t-23.5 -14.5zM520 969q18 10 23 20l2 -16q-4 -2 -10 -2 q-7 0 -15 -2z" />
<glyph unicode="&#xb0;" horiz-adv-x="290" d="M29 1313v182h231v-12l35 -35v-203q-12 -18 -21.5 -23t-19.5 -5h-4v-17l-109 -8q-29 0 -37 8l-28 27q-18 4 -21.5 15t-3.5 28q0 6 -3 15t-19 28zM55 1323q16 -18 19.5 -30.5t3.5 -22.5q0 -8 3 -12.5t19 -4.5l88 7v8v8q2 12 5.5 11t8.5 -5t13 -4t18 14v176h-178v-145z" />
<glyph unicode="&#xb1;" horiz-adv-x="692" d="M29 43l2 315h305l-8 9q-6 0 -11.5 3t-15.5 15q-8 57 -31.5 106.5t-50.5 90.5v141q-10 -2 -19.5 -7t-17.5 -9l-2 -2q-27 -16 -45 -17q-18 0 -35 17l-20 18q-23 6 -49 47l2 297h188l2 207h258v-12l35 -35l-2 -160h141v-12l35 -35l-8 -268l-107 -103q-18 0 -32 15l-25 22 q-2 2 -4 2l-2 2v-119q-27 -4 -42 -18t-23.5 -34.5t-11.5 -43t-5 -43.5q-4 -49 -14 -74h237v-12l35 -35l-8 -264l-86 -180q-29 0 -39 10l-29 27q-18 4 -21 15t-5 28q0 4 -4 24q-4 10 -9 27l-16 -6l-395 16l-35 33zM55 70l375 -17l53 19q6 0 15.5 -22.5t17.5 -49.5t14.5 -49.5 t10.5 -22.5l77 164l9 240h-570zM57 778q16 -27 30.5 -28.5t30 7.5t35 20t48.5 11q6 0 22.5 -1t20.5 -1l2 -2v-194q27 -41 51.5 -91t30.5 -104q2 0 5 -1t5 -1q20 0 24.5 34t9.5 77t20.5 81t58.5 46v121l15 6l5 2q8 8 16.5 1t15.5 -18.5t13 -21.5t10 -10l95 90l8 239h-176 l2 207h-205l-2 -207h-189z" />
<glyph unicode="&#xb2;" horiz-adv-x="385" d="M31 1296q0 -4 1 -7t1 -7v-27q0 -10 1 -26.5t1 -20.5l10 4l25 -26l-27 -17v-53q2 -23 3 -42t1 -40v-61q0 -33 -2 -68l25 -33h8l35 -34h55q0 -12 4 -29q2 -16 2 -29q0 -12 4 -47h12l35 -35h56v11h47q0 2 1 11t1 13q4 16 11 31.5t38 15.5v211l-35 35v12h-74q10 0 17 2 q29 4 53.5 11.5t28.5 44.5q0 8 1 28.5t3 43t4 43t2 30.5q0 33 -5 65.5t-28 55.5l-16 14q-10 25 -29.5 40.5t-54.5 15.5h-45q-18 0 -42 -1t-46.5 -2.5t-42 -3.5t-29.5 -4l-6 -55q0 -4 -1 -8t-1 -8q-2 -10 -2 -19v-18v-17zM58 1306.5q-1 20.5 3 57.5l5 35q6 2 21 3t34.5 2 t40.5 1h39h35h10q25 0 39 -11.5t21 -29.5t9 -39.5t2 -42.5q0 -8 -2 -28.5t-3 -43t-3 -43t-2 -28.5q-4 -25 -23.5 -30t-42 -8t-41 -10.5t-18.5 -33.5q0 -10 3 -27.5t20 -17.5h112v-170q-31 0 -39 -23.5t-12 -48.5h-10v92l-20 21l-17 -11v-112h-14q0 6 -2 20.5t-3 30.5 t-3 30.5t-2 20.5q-4 10 -7 24l-4 13h-102l-10 14q2 35 2 64v57q0 27 -1 55.5t-3 63.5l57 35q20 12 49 7t49 5v10q0 29 -19.5 36t-43.5 7q-12 0 -12 -12q0 -10 -13 -10h-4q-4 4 -11 10t-9 10q-10 0 -11 -10q0 -4 -12 7.5t-29 2.5q-2 35 -3 55.5z" />
<glyph unicode="&#xb3;" horiz-adv-x="391" d="M35 905l26 92l43 -4q10 0 18.5 1t14.5 1l-35 35h-10l-22 72v84l118 -15h27q6 0 6 11q0 4 -2 8h-2q-23 -4 -31 -4h-34h-25q-14 0 -37 4l-33 33q-10 0 -14 2v147l27 27h237l43 -43v-8l35 -35l2 -187q0 -10 -4 -25.5t-14 -31.5l16 -31q10 -16 13 -36.5t3 -38.5 q0 -29 -7 -57.5t-18 -50t-24.5 -35t-25.5 -13.5q-2 0 -15 4h-8v-2q-4 -8 -7 -15.5t-17 -21.5l-3 2q-10 -12 -26 -12q-8 0 -21 12l-10 -31l-14 -14h-15q-4 -23 -12 -33t-18 -10q-8 0 -17 8l-26 27q-18 2 -33.5 29.5t-20.5 66.5v4l-1 1t-1 3t-1 3t-1 3q-2 4 -6 15.5t0 5.5v43z M68 920l10 -7q0 -18 1 -31.5t1 -21.5q4 -6 6 -21.5t4 -19.5q2 -27 10.5 -47t16.5 -23.5t12 19.5t-2 82q4 0 8 -10.5t8 -22.5t7.5 -20.5t7.5 -3.5l22 69q2 0 14.5 -19.5t14.5 -19.5q12 0 14 13.5t15 5.5q4 6 8 23.5t16 17.5h4q4 -2 6 -5.5t4 -5.5q10 -10 24.5 7.5t26 49.5 t13.5 70.5t-14 71.5l-21 41q20 35 21 55l-2 179l-27 26h-217l-10 -10v-113q39 -4 72 -1l32 3h70q0 -18 2 -35.5t2 -33.5q0 -14 -6 -24.5t-25 -12.5h-29l-92 12v-47l17 -53h82q6 0 6 -4q0 -6 16 -17q10 10 19.5 1t10.5 -24.5t-9.5 -29.5t-36.5 -14h-23q-25 0 -59.5 4t-34.5 8 z" />
<glyph unicode="&#xb4;" horiz-adv-x="374" d="M16 1319q23 -25 27 -35t4 -16q0 -23 3 -31t20 -12l30 -29q6 -6 39 -6l60 8v19h4q20 0 37 20l163 199l-36 37l8 10h-246zM51 1321l90 135h178l-137 -166q-10 -12 -20 -12q-8 0 -11.5 4t-7.5 4t-6 -12v-17l-41 -6q-16 0 -19 3t-3 14q0 10 -3 22.5t-20 30.5z" />
<glyph unicode="&#xb5;" horiz-adv-x="1888" d="M31 496l32 407l107 31l-2 -14l37 -35l-2 -43q70 70 221 96l-2 -14l37 -35l-6 -39q14 23 31.5 39t37.5 31h13v2h24q90 0 131 -72l-2 104l43 -53l4 -4l86 -111l47 -55l6 201l109 -35v-10l27 -31l6 62l110 32l-2 -14l37 -35l-6 -129q33 84 82 154q20 20 61 20q45 0 76 -53 l17 -16l12 -17l-2 111l41 -56l6 -4l129 -166l10 205l103 -39v-10l28 -31l4 80l127 -41l-2 -10l37 -35l-45 -291l-84 19l-31 31v-52l19 17l94 -45l-6 -6l37 -37l-86 -92l-37 36l-4 -4l-45 49q-47 12 -101 68q-25 16 -53 45v-106l-86 -11l-12 13v-13l-78 29l-33 31l-12 6 q-4 10 -8 18.5t-8 16.5q-23 -8 -58 -78h-94l-10 8l-115 -37l-10 10v-10q-70 0 -146 76q-10 8 -20 16.5t-21 18.5v-107l-88 -14l-36 35h-11l-2 35q-29 -55 -82 -60q-8 -2 -22 -2l-4 -2h-27q-66 0 -98 33l-17 14q-16 8 -32 25l8 -82q-10 -2 -27.5 -5t-23.5 -5h-2 q-23 -6 -33 -6q-43 0 -76 32l-12 11q-35 16 -58 49v-37l-110 -39l-35 35zM59 535l68 24l14 338l-53 -14zM174 684q0 -23 2 -25q31 -150 117 -149q12 0 26.5 5t36.5 9l-4 58q-14 -8 -59 -9q-63 0 -64 68q0 78 45 141q45 49 82 49q12 0 16.5 -1t14.5 -7l8 82 q-221 -41 -221 -200v-21zM262 604q0 -4 4 -4zM291 600h2q35 0 84 29v-21l12 -10q0 92 23 166q-8 6 -15 6q-29 0 -65 -41l-2 -2q-23 -29 -31 -60.5t-8 -66.5zM416 592q18 -55 102 -55h23q2 0 9 1t17 3q92 -1 119 241q-25 113 -127 113h-18q2 0 1 -1t-12 -1 q-115 -78 -114 -301zM473 682v23q37 111 88 110q39 0 60 -45q6 -6 6 -37q0 -43 -25 -104q-68 -29 -80 -29q-49 0 -49 82zM535 629q8 4 19 8t28 10q8 27 13 47.5t5 38.5q0 16 -2 21q-35 -4 -63 -90v-35zM717 879l6 -344l47 8v162q115 -164 186 -164v338l-55 18l-8 -238z M1010 549l73 24l15 340l-58 -16zM1135 569h59q39 80 76 80q41 0 71 -80l41 -14l-8 256q-23 109 -76 109q-31 0 -41 -11q-111 -162 -122 -340zM1227 723l59 115l37 -115h-96zM1430 891l6 -342l45 6v168q111 -172 182 -172v342l-51 20l-13 -241zM1567 584q2 -2 2 -4l4 -2z M1706 520l35 -41l51 56l-45 20zM1735 649l47 -10l39 252l-74 22z" />
<glyph unicode="&#xb6;" horiz-adv-x="710" d="M35 1069v45q0 29 1 62.5t3 54.5v26l37 37h567l10 -20l27 -27l29 -57v-14q0 -12 1 -36t1 -55v-84q0 -25 1 -48t1 -46l-2 -530q0 -37 -1 -66.5t-1 -48.5v-18q0 -12 -2 -43t-5.5 -65t-7.5 -63.5t-6 -41.5q-6 -6 -14 -11.5t-17 -5.5q-20 0 -28 9l-31 28q-8 0 -12 4l-45 -41 l-35 6l-33 33l-14 2q-6 39 -7 97.5t-1 134.5v147v135q0 70 -5 136q-6 -74 -7 -157t-1 -169v-225q0 -100 -3 -183.5t-17 -142.5h-23q-4 0 -7 -1t-7 -1q-33 0 -49 16l-23 23q-27 8 -35 28.5t-8 49.5q0 14 1 26.5t3 22.5q0 6 1 11t1 9q-10 4 -19 9.5t-15 15.5l-15 14 q-23 10 -39 30.5t-16 57.5v37q0 8 -1 18.5t-1 20.5q-2 23 -2 47v51q0 72 8 143.5t39 131.5l-7 7t-5 7l-11 10q-47 27 -69.5 69t-44.5 101q-2 4 -4 12.5t-4 14.5l-5 8q-8 20 -13 57t-8 76t-4 73t-1 46zM61 1069q0 -12 1 -45t4.5 -69.5t7.5 -71.5t12 -54q16 -43 29.5 -77.5 t31 -62t43 -47t68.5 -30.5q-43 -53 -55.5 -133t-12.5 -166q0 -47 2.5 -91t2.5 -83q0 -31 15 -45t34.5 -22.5t36 -15.5t18.5 -23v-8q0 -16 -3 -38t-3 -44q0 -23 9 -39.5t38 -16.5q4 0 11 1t9 1q10 47 13.5 127t3.5 179v225q0 86 2 171t8 158.5t18.5 133t32.5 96.5 q14 -31 21.5 -89.5t11.5 -132t5 -157.5t1 -166v-147q0 -70 1 -124t5 -83l11 -2l71 67q18 0 23.5 -11t6.5 -23.5t4 -23.5t17 -11q6 0 11 4q2 12 6 41t7 61.5t5 61t2 41.5q0 8 1 45t1 88l2 530q0 43 -1 91t-1 87q0 41 -1 69t-1 32l-20 41h-541l-20 -21q0 -6 -2.5 -49t-2.5 -84 v-45z" />
<glyph unicode="&#xb7;" d="M29 684v229h258v-12l35 -35v-262q-20 -33 -43 -33h-9v-22l-123 -10q-29 0 -38 10l-27 26q-23 4 -26 16.5t-3 31.5q0 10 -3 23t-21 38zM55 692q18 -25 21.5 -42t3.5 -27t3 -16.5t23 -6.5l103 8v21q4 16 6 16q4 0 9 -6t14 -6q10 0 22 18v236h-205v-195z" />
<glyph unicode="&#xb8;" horiz-adv-x="323" d="M-117 -340l39 -29l10 -10l31 -22l395 383l-36 36l8 9l-271 28zM-86 -340l162 367l196 -21z" />
<glyph unicode="&#xb9;" horiz-adv-x="292" d="M31 1454l2 -213h12l35 -35h16q0 -53 6 -98q2 -31 2 -59q0 -29 2 -52q2 -25 3 -43v-28v-19q0 -16 6 -33.5t30 -27.5l19 -17v-59h10l37 -35q25 0 38 11.5t20 30t9.5 41t2.5 44.5q2 16 2 29q0 14 4 22l2 494l-35 35v12h-223zM57 1427h170l-2 -469q-4 -12 -5 -38.5t-3 -54 t-7 -48t-20 -20.5v108q0 6 -14 10l-2 1q-2 2 -4 2q-12 0 -14 -20.5t-2 -27.5q-10 0 -13.5 7.5t-5.5 17.5t-1 18.5t1 12.5q0 20 -2 72.5t-4 111.5t-4 111.5t-2 72.5q-2 0 -9.5 1t-11.5 -1q-20 -10 -25 -18t-18 -8z" />
<glyph unicode="&#xba;" horiz-adv-x="417" d="M37 961q10 -20 13 -40t7 -40q2 -23 10.5 -51.5t38.5 -92.5h7l39 -37q2 10 9 48t11 63l6 -4q0 -4 4 -4q4 -6 11 -10q4 -6 20 -15l18 -16q6 -10 17 -12v-15h12l35 -35h53v23l2 -2q10 -10 29 -10q6 6 13 53t14.5 103.5t12.5 106.5t5 62q0 84 -11.5 164t-23.5 164l-33 33 q-2 4 -2 14q-45 8 -76.5 10t-68.5 2h-131q-29 -74 -35 -133t-6 -112v-217zM63 967v26v84v27v74q0 55 5.5 110t25.5 109h15h43h14h43q31 0 57.5 -2t63.5 -9q12 -78 22 -154.5t10 -154.5q0 -12 -4 -59t-9 -100.5t-10 -97.5t-9 -48q-6 0 -8.5 6t-2.5 13v22q0 6 -5 30.5t-5 30.5 q-10 -4 -15 -19t-7 -33.5t-1 -36t1 -23.5h-13v72l-2 1t-4 1q-16 0 -22 -12.5t-23 -12.5q-23 0 -28 23.5t-9 39.5h-10q-20 0 -20 -20q-16 12 -17.5 27.5t-0.5 28t-3 21.5t-29 9q0 -16 4.5 -27.5t4.5 -27.5v-11q0 -8 -4.5 -36.5t-6.5 -34.5q-18 39 -20 81t-21 83zM156 1069 q10 -29 18 -41t35 -12q23 0 35 12t18 30.5t7 39t1 37.5q0 20 1 42.5t-2 42t-14 32t-38 12.5q-39 0 -50 -28t-11 -62v-44v-12v-39v-10zM217 1042v91q0 23 4 42t23 23v-6v-57q0 -23 -4 -54.5t-23 -38.5z" />
<glyph unicode="&#xbb;" horiz-adv-x="581" d="M18 809l84 158l168 -111l4 -14l2 -4l68 125l168 -111l6 -16l31 -31l37 -103l-43 -118l-152 -103l-6 4q-20 18 -29.5 21.5t-15.5 3.5h-23l-34 35h-13v22l-120 -82l-7 4q-20 18 -29.5 21.5t-15.5 3.5h-22l-35 35h-12v39l2 2v12q0 8 3 26.5t21 71.5l49 41l-36 29h-2zM53 817 l94 -74l-69 -59q-4 -10 -8 -28.5t-7.5 -36t-5.5 -29.5l-2 -12v-3h2q10 0 22.5 -3t31.5 -19l133 90l39 105l-33 90l-137 90zM295 813l94 -74l-70 -59q-4 -10 -8 -28.5t-7 -36t-5 -29.5l-2 -13v-2h2q10 0 22.5 -3t30.5 -19l133 90l39 104l-32 91l-138 90zM328 752l8 -23l10 8z " />
<glyph unicode="&#xbc;" horiz-adv-x="827" d="M25 1044v213h221v-12l35 -35v-479q16 29 48.5 77t88.5 126l125 344l166 -35l47 -14v-10l35 -35v-19q0 -12 -15.5 -41.5t-38.5 -68.5q-27 -47 -49 -92t-26 -58q-10 -55 -33 -108.5t-54 -110.5h48v-12l24 -25v37h117l27 -27v-8l34 -35v-18q0 -10 1 -25.5t1 -33.5 q0 -14 1 -29.5t1 -28.5v-88q0 -20 -1 -39.5t-1 -38.5v-100q-2 -14 -3 -33.5t-3 -42.5q-4 -49 -11 -93t-24 -44h-26q-8 -14 -21 -14l-4 2q2 -6 0 -22.5t-8 -51.5l-37 37v-8q-51 51 -51 75q0 29 6 58q4 16 6 29.5t2 23.5l-2 5t-4 14q-2 2 -2 4t-4 6q4 25 6 43t2 30v29l-129 10 l-35 33l-12 2v180q-18 -41 -34.5 -84t-30.5 -90l-62 -325l-2 2q-4 -12 -6 -10l-31 30v-2l-2 4l-2 2q-2 -2 -4 -2q-4 0 -6 2q-10 -49 -16.5 -76.5t-13.5 -41t-16 -15.5t-26 -2q-14 0 -24 10l-27 27q-23 2 -37 37q-4 45 -10 83t-12 68q0 2 -1 4.5t-1 6.5q-4 20 -7.5 35.5 t-3.5 29.5v13q4 20 15.5 61t25.5 90q6 20 11.5 41t11.5 43q8 31 16 60.5t17 56.5l-27 28h-10v60l-19 16q-25 10 -31 27.5t-6 34.5v18l-8 281h-22l-35 34h-12zM51 1071q14 0 19.5 8t25.5 19h6h15l12 -369v-18q0 -12 3 -24.5t15 -12.5q0 6 2.5 26.5t14.5 20.5q2 0 4 -1l2 -1 q14 -4 14 -10v-109q14 0 19.5 20.5t7.5 48t3 54.5t5 39v469h-168v-160zM125 180q0 -23 15.5 -83t19.5 -138q8 -18 20 -18q14 0 26.5 29.5t18.5 55t6 29.5l-1 1q-1 1 -1 5q0 12 5.5 40t12.5 61t15 65.5t14 55.5q4 -41 7.5 -72t3.5 -27l-13 -39l23 -49l49 264q31 100 71 181.5 t76.5 151t66.5 132t40 125.5q2 14 22.5 53t44 82t43 79t19.5 42v2l-33 11l-137 26l-117 -321q-53 -76 -84.5 -123t-49 -75t-23.5 -38l-6 -10q-2 -6 -19.5 -25.5t-17.5 -25.5v-2q-4 -29 -20.5 -90.5t-36 -130t-37 -130t-23.5 -88.5v-6zM489 535q0 -4 3.5 -11.5t7.5 -9.5v-182 l172 -10q0 -10 -4 -11l4 -21q4 -22 4 -57q0 -31 -6 -67q4 -4 6 -10q4 -16 4 -25q0 -27 -7 -57.5t-7 -53.5q0 -14 6 -20q6 35 11 46t9 11l13 -8q2 0 3 8.5t3 34.5h6l10 -10l6 -2l-4 -17h16q2 0 4.5 23t5.5 53.5t6 63.5l5 55v35q0 31 1 67.5t1 73.5v60q0 12 -1 36.5t-1 49.5 q0 27 -1 46t-1 23l-10 10h-80v-235h-82l4 235h-86l-10 -10v-47v-47q0 -4 -5.5 -11t-5.5 -9zM733 80v2v-2z" />
<glyph unicode="&#xbd;" horiz-adv-x="806" d="M25 1257l2 -213h12l35 -34h16q2 -25 3 -50.5t3 -48.5q2 -31 2 -59q0 -29 2 -51q2 -25 2 -43v-29v-18q0 -16 6.5 -34t30.5 -28l19 -16v-60h10l27 -28q-8 -27 -16.5 -56.5t-16.5 -60.5q-6 -23 -11.5 -43t-11.5 -41q-14 -49 -25.5 -90t-15.5 -61v-11q0 -14 3 -29.5t8 -37.5 q0 -4 1 -7.5t1 -5.5q6 -29 12 -66.5t10 -82.5q16 -33 39 -41l25 -23q12 -12 24 -12q14 0 25.5 14.5t20.5 34t14.5 40t9.5 32.5l-2 2q2 4 2 6q0 4 2 10q2 -4 6 -4l2 2l37 -37q2 -4 6 13l2 -2l62 325v2q14 47 30.5 90.5t32.5 79.5q0 -8 1 -14t1 -8l10 4l25 -27l-27 -16v-53 q2 -23 3 -42.5t1 -39.5v-62q0 -33 -2 -67l25 -33h8l35 -35h55q0 -12 4 -29q2 -16 2 -28t4 -47h13l35 -35h55v10h47v10t2 13v4q4 16 12 30.5t37 14.5v211l-35 35v12h-73q10 0 16 2q29 4 53.5 11t28.5 44q0 8 1 28.5t3 43t4 43t2 31.5q0 33 -5 65.5t-28 54.5l-16 15 q-10 25 -29.5 40t-54.5 15h-45h-31q-14 0 -30 -2q31 59 52 112.5t32 108.5q4 12 27.5 59.5t49.5 94.5q23 39 37.5 66.5t14.5 39.5v19l-35 35v10l-47 14l-166 35l-125 -344q-55 -78 -88 -126t-49 -77l2 479l-35 35v12h-223zM51 1231h170l-2 -469q-4 -12 -5 -39t-3 -54.5 t-7 -48t-20 -20.5v109q0 6 -14 10l-2 1t-4 1q-12 0 -14.5 -20.5t-2.5 -26.5q-10 0 -13 7t-5 17.5t-1 18.5t1 12q0 20 -2 72.5t-4 112t-4 111.5t-2 73q-2 0 -9.5 1t-11.5 -1q-20 -10 -25 -18.5t-18 -8.5zM125 186q6 27 23.5 88.5t37 130t36 130t20.5 90.5q-2 2 3 9t13 15 t14.5 16.5t6.5 12.5l6 10q6 10 23.5 38t49 75t84.5 123l117 321l137 -26l33 -11q2 -2 -16.5 -36.5t-43 -78.5t-46 -86t-23.5 -57q-10 -63 -40 -125.5t-66.5 -132t-76.5 -150.5t-71 -182l-49 -264l-23 49l13 39q0 -4 -3 27t-8 72q-6 -25 -15 -62t-17 -73.5t-12.5 -63.5 t-0.5 -29l-6 -25q-6 -26 -15 -51.5t-22.5 -37t-27.5 17.5q-2 43 -9.5 81t-13.5 66.5t-10 49t-2 30.5zM497 561.5q-1 20.5 3 56.5l4 35q6 2 21.5 3t35 2t39.5 1h39h35h10q25 0 39 -11t21.5 -29.5t9.5 -40t2 -41.5q0 -8 -2 -29t-3 -43.5t-3.5 -43t-2.5 -28.5q-4 -25 -23.5 -30 t-42 -8t-40.5 -10t-18 -34q0 -10 3 -27.5t19 -17.5h113v-170q-31 0 -39 -23.5t-12 -47.5h-11v92l-20 20l-17 -10v-113h-14q0 6 -2 20.5t-3 31t-3 31t-2 20.5q-4 10 -7 23l-3 14h-103l-10 14q2 35 2 63v58t-1 55.5t-3 63.5l57 34q20 12 49 7t50 6v10q0 29 -19.5 36t-44.5 7 q-12 0 -12 -12q0 -10 -13 -11h-4q-4 4 -11 10.5t-9 10.5q-10 0 -10 -10q0 -4 -12.5 7t-28.5 3q-2 35 -3 55.5z" />
<glyph unicode="&#xbe;" horiz-adv-x="851" d="M16 766l27 92l43 -4q10 0 18.5 1t14.5 1l-35 35h-10l-23 72v84l119 -15h27q6 0 6 10q0 4 -2 9h-2q-23 -4 -31 -4h-35h-24t-37 4l-33 32q-8 0 -14 2v148l26 27h238l43 -43v-9l35 -34l2 -187q0 -10 -4.5 -25.5t-14.5 -31.5l17 -31q6 -12 9 -25.5t5 -25.5q14 18 28.5 39.5 t32.5 46.5l125 344l166 -35l47 -14v-10l35 -35v-19q0 -12 -15.5 -41.5t-37.5 -68.5q-27 -47 -49.5 -92t-26.5 -58q-10 -55 -32.5 -108.5t-53.5 -110.5h47v-12l25 -25v37h116l27 -27v-8l35 -35v-18q0 -10 1 -25.5t1 -33.5q0 -14 1 -29.5t1 -28.5v-88q0 -20 -1 -39.5t-1 -38.5 v-100q-2 -14 -3 -33.5t-3 -42.5q-4 -49 -11.5 -93t-23.5 -44h-27q-8 -14 -20 -14l-4 2q2 -6 0 -22.5t-8 -51.5l-37 37v-8q-51 51 -51 75q0 29 6 58q4 16 6 29.5t2 23.5l-2 5q-2 5 -4 14q-2 2 -2 4t-4 6q0 8 2 10v2q6 39 6 61v29l-129 10l-35 33l-12 2v180q-18 -41 -35 -84 t-31 -90l-61 -325l-2 2q-4 -12 -7 -10l-30 30v-2l-2 4l-2 2q-2 -2 -4 -2q-4 0 -7 2q-10 -49 -16 -76.5t-13 -41t-16.5 -15.5t-25.5 -2q-14 0 -25 10l-26 27q-23 2 -37 37q-4 45 -10.5 83t-12.5 68q0 2 -1 4.5t-1 6.5q-4 20 -7 35.5t-3 29.5v13q4 20 15.5 61t25.5 90 q6 20 11 41t11 43q16 63 33 117.5t21 77.5h-9q-8 0 -20 12l-10 -31l-15 -14h-14q-4 -23 -12 -33t-19 -10q-8 0 -16 8l-27 27q-18 2 -33.5 29.5t-19.5 66.5v4l-1 1t-1 3t-1 3t-1 3q-2 4 -6 15.5t0 5.5v43zM49 780l10 -6q0 -18 1 -31.5t1 -21.5q4 -6 6.5 -21.5t4.5 -19.5 q2 -27 10 -47.5t16 -23.5t12.5 19.5t-1.5 82.5q4 0 8 -10.5t8 -22.5t7 -20.5t7 -4.5l23 70q2 0 14 -19.5t14 -19.5q12 0 14.5 13.5t14.5 4.5q4 6 8 23.5t17 17.5h4q4 -2 6 -5t4 -5q10 -10 24.5 7.5t25.5 49t13.5 70.5t-14.5 72l-20 41q20 35 20 55l-2 178l-26 27h-218 l-10 -10v-113q39 -4 72 -1l33 3h69q0 -18 2 -35.5t2 -34.5q0 -14 -6 -24t-24 -12h-29l-92 12v-47l16 -53h82q6 0 6 -5q0 -6 17 -16q10 10 19 1t10 -24.5t-9 -30t-37 -14.5h-22q-25 0 -59.5 4.5t-34.5 8.5zM150 180q0 -23 15 -83t19 -138q8 -18 21 -18q14 0 26.5 29.5 t18.5 55t6 29.5l-1 1q-1 1 -1 5q0 12 5 40t12.5 61t15.5 65.5t14 55.5q4 -41 7 -72t3 -27l-12 -39l23 -49l49 264q31 100 70.5 181.5t76.5 151t66.5 132t40.5 125.5q2 14 22.5 53t44 82t43 79t19.5 42v2l-33 11l-137 26l-117 -321q-53 -76 -85 -123t-49.5 -75t-23.5 -38 l-6 -10q-2 -6 -19.5 -25.5t-17.5 -25.5v-2q-4 -29 -20.5 -90.5t-36 -130t-36.5 -130t-23 -88.5v-6zM514 535q0 -4 3 -11.5t7 -9.5v-182l172 -10q0 -10 -4 -11l4 -21q4 -22 4 -57q0 -31 -6 -67q4 -4 6 -10q4 -16 5 -25q0 -27 -7.5 -57.5t-7.5 -53.5q0 -14 6 -20q6 35 11.5 46 t9.5 11l12 -8q2 0 3 8.5t3 34.5h6l11 -10l6 -2l-4 -17h16q2 0 4 23t5 53.5t6 63.5t6 55v35q0 31 1 67.5t1 73.5v60q0 12 -1 36.5t-1 49.5q0 27 -1.5 46t-1.5 23l-10 10h-80v-235h-82l5 235h-86l-11 -10v-47v-47q0 -4 -5 -11t-5 -9zM758 80v2v-2z" />
<glyph unicode="&#xbf;" horiz-adv-x="614" d="M25 301q0 16 2 57t5 87.5t7 87t6 57.5q6 47 33.5 62.5t68.5 15.5l113 -9q18 0 31.5 7.5t13.5 29.5l6 158l252 -2l19 -29l20 -18l31 -45q-4 -78 -9.5 -102.5t-9.5 -32.5q-4 -6 -6 -17.5t-2 -42.5v-57l-123 -76h-2q-16 -10 -39 -14q4 -4 7.5 -7t7.5 -8q2 14 14 15 q14 0 17.5 -5t13.5 -10q6 -4 17 -11t22 -7l49 23v-17l35 -35q0 -41 1 -62.5t3 -35.5q2 -18 2 -35v-33q0 -39 -6 -96l-11 -86q-23 -4 -74 -6t-107 -4t-106.5 -3t-70.5 -1h-23q-35 0 -59 10t-43 29l-10 10q-33 14 -52.5 44t-28.5 65.5t-12 74.5t-3 74zM51 301q0 -39 4 -82 t17.5 -80t42 -60.5t78.5 -23.5h22q20 0 68.5 1t102.5 3t102.5 4.5t66.5 4.5l8 69q6 57 6 94q0 31 -2 59.5t-4 74.5q-12 -6 -22 -7q-25 0 -42.5 14.5t-17.5 10.5t-8 -12.5t-12 -8.5q-4 6 -19.5 21.5t-21.5 19.5l-4 1q-4 2 -6 2q-12 0 -16.5 -7.5t-7.5 -15.5t-8 -15.5 t-18 -7.5q-47 0 -87 14.5t-40 69.5q0 4 1.5 11.5t1.5 9.5q14 6 31.5 8t37.5 2h39q25 0 48.5 3t39.5 14l113 69v45q0 41 3 52.5t8 20.5t9 31.5t6 84.5l-20 30l-213 2l-6 -131q0 -39 -20.5 -51t-51.5 -12l-113 8q-29 0 -50 -10t-25 -43q-2 -16 -6.5 -57.5t-7.5 -86.5t-5 -86 t-2 -57zM295 395q25 -8 65 -8q0 2 2.5 6t3.5 10.5t5 10.5h-25q-14 0 -27.5 -1t-23.5 -3v-15zM309 897v268q4 8 10.5 16.5t12.5 16.5l-2 -2q2 4 8 10l2 2q4 4 5 8.5t3 20.5v45l127 10q23 0 35 -10t18 -27l23 -22q10 -10 13 -25.5t7 -36t9.5 -43t21.5 -45.5v-221h-246l-34 35 h-13zM336 924h205v194q-18 25 -23.5 50.5t-8.5 47t-8 36t-24 14.5l-102 -9v-20q-2 -18 -4 -25.5t-5.5 -12.5t-10.5 -13t-19 -27v-235z" />
<glyph unicode="&#xc0;" horiz-adv-x="716" d="M14 94v117l23 76q-2 14 -4 31.5t-4 33.5q-6 33 -6 66v31q0 27 13 100.5t36.5 167.5t52.5 196.5t58.5 186.5t59 139t52.5 55h229q4 -2 7.5 -4t19.5 -16l10 -10q4 -8 10.5 -14.5t10.5 -14.5l16 -16q43 -55 68.5 -127t39 -151t17.5 -162t4 -161v-215q0 -16 -1 -34.5 t-1 -34.5v-111q0 -4 -1 -20.5t-3 -39t-5 -45t-5 -36.5q0 -27 -11 -27q-10 0 -26 17l-21 18h-2q-4 -23 -6 -43t-2 -29h-57l-35 35h-10q2 -4 -2 8.5t-8.5 20.5t-7.5 19.5t-5 21.5q-10 35 -20.5 75t-10.5 64q0 33 21 45q8 12 8 25q0 18 -6 37l-221 10l-31 -367q-33 0 -50.5 6.5 t-27.5 16.5l-24 22q-2 0 -11 4v-8q0 -12 2.5 -20t2.5 -17v-18q0 -20 -10.5 -35.5t-41.5 -19.5l-37 37q-2 0 -3 -1.5t-3 -1.5l-39 43v37q0 10 -1 18.5t-1 18.5zM41 160q0 -31 1 -65t1 -64l23 -25q23 4 23.5 23.5t-2.5 42t0 41t30 18.5q14 0 19 -9t10.5 -19.5t15.5 -19.5 t37 -9l30 368l256 -12q14 -2 28.5 -20.5t23 -42t5.5 -47t-22 -35.5q-10 -6 -6 -35t13.5 -62.5t20.5 -64.5t13 -43h21q0 6 2 20.5t5 30.5t6 30.5t7 20.5q0 2 7 -8t16.5 -22.5t16.5 -21.5t7 -7q2 2 5 23.5t5.5 46t3.5 46t1 25.5v43q0 33 1 69t1 68v45q0 84 1 186.5t-9.5 206 t-36 199t-80.5 166.5q-4 4 -11.5 12.5t-9.5 8.5h-225q-20 0 -47 -53.5t-54.5 -135.5t-53 -180t-46 -189.5t-33 -163t-12.5 -97.5v-31q0 -25 7 -66t7 -76l-22 -73v-43zM160 1612h246l18 -27l20 -20l107 -158q-23 -23 -26 -33t-3 -18q0 -25 -5 -31t-40 -6l-59 8l-25 25 q-8 4 -10 8h-2l-10 2v10l-11 8q-18 4 -28 23zM215 1585l137 -166q8 -12 21 -12q8 0 11 4t7 4q2 0 6 -12v-17l41 -6q16 0 19.5 3t3.5 14q0 10 3 22.5t19 30.5l-90 135h-178zM315 735q6 18 12.5 49t16.5 62t25.5 53.5t38.5 22.5q2 0 5 -1t5 -1q25 -35 48 -86.5t23 -98.5h-174z M395 762h64q-4 23 -12.5 45.5t-18.5 42.5q-12 -14 -19.5 -38t-13.5 -50z" />
<glyph unicode="&#xc1;" horiz-adv-x="716" d="M14 94v117l23 76q-2 14 -4 31.5t-4 33.5q-6 33 -6 66v31q0 27 13 100.5t36.5 167.5t52.5 196.5t58.5 186.5t59 139t52.5 55h70q-14 0 -17 6l-31 29q-16 4 -19 12.5t-3 30.5q0 6 -4 16.5t-27 34.5l113 164h246l-9 -10l37 -37l-164 -199q-16 -20 -36 -20h-5v-18l-59 -9h137 q4 -2 7.5 -4t19.5 -16l10 -10q4 -8 10.5 -14.5t10.5 -14.5l16 -16q43 -55 68.5 -127t39 -151t17.5 -162t4 -161v-215q0 -16 -1 -34.5t-1 -34.5v-111q0 -4 -1 -20.5t-3 -39t-5 -45t-5 -36.5q0 -27 -11 -27q-10 0 -26 17l-21 18h-2q-4 -23 -6 -43t-2 -29h-57l-35 35h-10 q2 -4 -2 8.5t-8.5 20.5t-7.5 19.5t-5 21.5q-10 35 -20.5 75t-10.5 64q0 33 21 45q8 12 8 25q0 18 -6 37l-221 10l-31 -367q-33 0 -50.5 6.5t-27.5 16.5l-24 22q-2 0 -11 4v-8q0 -12 2.5 -20t2.5 -17v-18q0 -20 -10.5 -35.5t-41.5 -19.5l-37 37q-2 0 -3 -1.5t-3 -1.5l-39 43 v37q0 10 -1 18.5t-1 18.5zM41 160q0 -31 1 -65t1 -64l23 -25q23 4 23.5 23.5t-2.5 42t0 41t30 18.5q14 0 19 -9t10.5 -19.5t15.5 -19.5t37 -9l30 368l256 -12q14 -2 28.5 -20.5t23 -42t5.5 -47t-22 -35.5q-10 -6 -6 -35t13.5 -62.5t20.5 -64.5t13 -43h21q0 6 2 20.5t5 30.5 t6 30.5t7 20.5q0 2 7 -8t16.5 -22.5t16.5 -21.5t7 -7q2 2 5 23.5t5.5 46t3.5 46t1 25.5v43q0 33 1 69t1 68v45q0 84 1 186.5t-9.5 206t-36 199t-80.5 166.5q-4 4 -11.5 12.5t-9.5 8.5h-225q-20 0 -47 -53.5t-54.5 -135.5t-53 -180t-46 -189.5t-33 -163t-12.5 -97.5v-31 q0 -25 7 -66t7 -76l-22 -73v-43zM299 1425q16 -18 19.5 -30.5t3.5 -22.5t3 -13t19 -3l41 6v16q2 12 6 13q4 0 7 -4.5t12 -4.5q10 0 20 13l137 166h-178zM315 735q6 18 12.5 49t16.5 62t25.5 53.5t38.5 22.5q2 0 5 -1t5 -1q25 -35 48 -86.5t23 -98.5h-174zM395 762h64 q-4 23 -12.5 45.5t-18.5 42.5q-12 -14 -19.5 -38t-13.5 -50z" />
<glyph unicode="&#xc2;" horiz-adv-x="716" d="M14 94v117l23 76q-2 14 -4 31.5t-4 33.5q-6 33 -6 66v31q0 27 13 100.5t36.5 167.5t52.5 196.5t58.5 186.5t59 139t52.5 55h229q4 -2 7.5 -4t19.5 -16l10 -10q4 -8 10.5 -14.5t10.5 -14.5l16 -16q43 -55 68.5 -127t39 -151t17.5 -162t4 -161v-215q0 -16 -1 -34.5 t-1 -34.5v-111q0 -4 -1 -20.5t-3 -39t-5 -45t-5 -36.5q0 -27 -11 -27q-10 0 -26 17l-21 18h-2q-4 -23 -6 -43t-2 -29h-57l-35 35h-10q2 -4 -2 8.5t-8.5 20.5t-7.5 19.5t-5 21.5q-10 35 -20.5 75t-10.5 64q0 33 21 45q8 12 8 25q0 10 -2 18t-6 19l-219 10l-31 -367 q-33 0 -50.5 6.5t-27.5 16.5l-24 22q-2 0 -11 4v-8q0 -12 2.5 -20t2.5 -17v-18q0 -20 -10.5 -35.5t-41.5 -19.5l-37 37q-2 0 -3 -1.5t-3 -1.5l-39 43v37q0 10 -1 18.5t-1 18.5zM41 160q0 -31 1 -65t1 -64l23 -25q23 4 23.5 23.5t-2.5 42t0 41t30 18.5q14 0 19 -9t10.5 -19.5 t15.5 -19.5t37 -9l30 368l256 -12q14 -2 28.5 -20.5t23 -42t5.5 -47t-22 -35.5q-10 -6 -6 -35t13.5 -62.5t20.5 -64.5t13 -43h21q0 6 2 20.5t5 30.5t6 30.5t7 20.5q0 2 7 -8t16.5 -22.5t16.5 -21.5t7 -7q2 2 5 23.5t5.5 46t3.5 46t1 25.5v43q0 33 1 69t1 68v45q0 84 1 186.5 t-9.5 206t-36 199t-80.5 166.5q-4 4 -11.5 12.5t-9.5 8.5h-225q-20 0 -47 -53.5t-54.5 -135.5t-53 -180t-46 -189.5t-33 -163t-12.5 -97.5v-31q0 -25 7 -66t7 -76l-22 -73v-43zM172 1440l109 164l153 6l72 -15l16 -26l23 -21l104 -155q-23 -23 -25.5 -36.5t-2.5 -23.5 l-15 -14q-16 0 -33 16l-6 6v-2l-20 19h-4l-15 -19q-8 -8 -10 -9t-10 -1q-14 0 -23 10l-24 25q-14 2 -31 25l-6 6l-29 -37q-16 -20 -37 -21h-4v-18l-59 -8q-33 0 -39 6l-31 29q-16 4 -19 12t-3 31q0 6 -4 16t-27 35zM207 1442q16 -18 19 -30.5t3 -22.5t3.5 -13.5t19.5 -3.5 l41 6v17q2 12 6 12t7 -4t11 -4q10 0 21 12l53 64l60 -70q14 -18 20 -12l29 34q8 0 18 -9t19.5 -18t15.5 -15.5t6 -2.5q0 10 3 22.5t20 31.5l-90 135l-64 12l-131 -6zM315 735q6 18 12.5 49t16.5 62t25.5 53.5t38.5 22.5q2 0 5 -1t5 -1q25 -35 48 -86.5t23 -98.5h-174z M395 762h64q-4 23 -12.5 45.5t-18.5 42.5q-12 -14 -19.5 -38t-13.5 -50z" />
<glyph unicode="&#xc3;" horiz-adv-x="716" d="M14 94v117l23 76q-2 14 -4 31.5t-4 33.5q-6 33 -6 66v31q0 27 13 100.5t36.5 167.5t52.5 196.5t58.5 186.5t59 139t52.5 55h229q4 -2 7.5 -4t19.5 -16l10 -10q4 -8 10.5 -14.5t10.5 -14.5l16 -16q43 -55 68.5 -127t39 -151t17.5 -162t4 -161v-215q0 -16 -1 -34.5 t-1 -34.5v-111q0 -4 -1 -20.5t-3 -39t-5 -45t-5 -36.5q0 -27 -11 -27q-10 0 -26 17l-21 18h-2q-4 -23 -6 -43t-2 -29h-57l-35 35h-10q2 -4 -2 8.5t-8.5 20.5t-7.5 19.5t-5 21.5q-10 35 -20.5 75t-10.5 64q0 33 21 45q8 12 8 25q0 10 -2 18t-6 19l-219 10l-31 -367 q-33 0 -50.5 6.5t-27.5 16.5l-24 22q-2 0 -11 4v-8q0 -12 2.5 -20t2.5 -17v-18q0 -20 -10.5 -35.5t-41.5 -19.5l-37 37q-2 0 -3 -1.5t-3 -1.5l-39 43v37q0 10 -1 18.5t-1 18.5zM41 160q0 -31 1 -65t1 -64l23 -25q23 4 23.5 23.5t-2.5 42t0 41t30 18.5q14 0 19 -9t10.5 -19.5 t15.5 -19.5t37 -9l30 368l256 -12q14 -2 28.5 -20.5t23 -42t5.5 -47t-22 -35.5q-10 -6 -6 -35t13.5 -62.5t20.5 -64.5t13 -43h21q0 6 2 20.5t5 30.5t6 30.5t7 20.5q0 2 7 -8t16.5 -22.5t16.5 -21.5t7 -7q2 2 5 23.5t5.5 46t3.5 46t1 25.5v43q0 33 1 69t1 68v45q0 84 1 186.5 t-9.5 206t-36 199t-80.5 166.5q-4 4 -11.5 12.5t-9.5 8.5h-225q-20 0 -47 -53.5t-54.5 -135.5t-53 -180t-46 -189.5t-33 -163t-12.5 -97.5v-31q0 -25 7 -66t7 -76l-22 -73v-43zM121 1430l110 161l43 6q10 10 35 11h19q8 0 14 -2v-2h12l101 -19l16 -24l14 -17l27 33h12t13 4 h6v27l65 8q31 0 40 -4t11 -21l29 -28q6 -6 6 -31q0 -10 2 -19.5t19 -27.5l6 -4l-105 -162h-170l-4 2l-43 10l-34 31l-7 2l-10 -12q-4 -27 -15 -31t-34 -8q-10 -2 -25.5 -5t-31.5 -8q-31 0 -37 7l-31 28q-16 4 -19 12.5t-3 30.5q0 6 -4.5 16.5t-26.5 35.5zM156 1432 q16 -18 19 -30.5t3 -23.5q0 -10 3 -13t20 -3q25 8 40 10t25 4t14.5 7.5t6.5 17.5l43 51l41 -61l41 -9l2 -2h2h149l90 140q-16 18 -19 30.5t-3 22.5t-3 13t-20 3l-41 -6v-16q-2 -6 -22.5 -10.5t-22.5 -6.5l-43 -51l-41 62l-92 16q-6 0 -17.5 2t-21.5 2q-14 0 -14 -6v-2 l-49 -6zM315 735q6 18 12.5 49t16.5 62t25.5 53.5t38.5 22.5q2 0 5 -1t5 -1q25 -35 48 -86.5t23 -98.5h-174zM395 762h64q-4 23 -12.5 45.5t-18.5 42.5q-12 -14 -19.5 -38t-13.5 -50z" />
<glyph unicode="&#xc4;" horiz-adv-x="716" d="M14 94v117l23 76q-2 14 -4 31.5t-4 33.5q-6 33 -6 66v31q0 27 13 100.5t36.5 167.5t52.5 196.5t58.5 186.5t59 139t52.5 55h229q4 -2 7.5 -4t19.5 -16l10 -10q4 -8 10.5 -14.5t10.5 -14.5l16 -16q43 -55 68.5 -127t39 -151t17.5 -162t4 -161v-215q0 -16 -1 -34.5 t-1 -34.5v-111q0 -4 -1 -20.5t-3 -39t-5 -45t-5 -36.5q0 -27 -11 -27q-10 0 -26 17l-21 18h-2q-4 -23 -6 -43t-2 -29h-57l-35 35h-10q2 -4 -2 8.5t-8.5 20.5t-7.5 19.5t-5 21.5q-10 35 -20.5 75t-10.5 64q0 33 21 45q8 12 8 25q0 10 -2 18t-6 19l-219 10l-31 -367 q-33 0 -50.5 6.5t-27.5 16.5l-24 22q-2 0 -11 4v-8q0 -12 2.5 -20t2.5 -17v-18q0 -20 -10.5 -35.5t-41.5 -19.5l-37 37q-2 0 -3 -1.5t-3 -1.5l-39 43v37q0 10 -1 18.5t-1 18.5zM41 160q0 -31 1 -65t1 -64l23 -25q23 4 23.5 23.5t-2.5 42t0 41t30 18.5q14 0 19 -9t10.5 -19.5 t15.5 -19.5t37 -9l30 368l256 -12q14 -2 28.5 -20.5t23 -42t5.5 -47t-22 -35.5q-10 -6 -6 -35t13.5 -62.5t20.5 -64.5t13 -43h21q0 6 2 20.5t5 30.5t6 30.5t7 20.5q0 2 7 -8t16.5 -22.5t16.5 -21.5t7 -7q2 2 5 23.5t5.5 46t3.5 46t1 25.5v43q0 33 1 69t1 68v45q0 84 1 186.5 t-9.5 206t-36 199t-80.5 166.5q-4 4 -11.5 12.5t-9.5 8.5h-225q-20 0 -47 -53.5t-54.5 -135.5t-53 -180t-46 -189.5t-33 -163t-12.5 -97.5v-31q0 -25 7 -66t7 -76l-22 -73v-43zM166 1448v182h231v-12l15 -14v26h241v-12l35 -35v-180q-8 -8 -16 -15.5t-12.5 -11.5t-5.5 -6 t-3 -12v-27l-114 -8q-25 0 -35 10l-27 27q-23 4 -28 18.5t-7 36.5q-2 6 -3 13.5t-5 15.5v-64q-12 -18 -21.5 -23t-19.5 -5h-4v-17l-108 -8q-29 0 -37 8l-29 27q-18 4 -21.5 15.5t-3.5 27.5q0 6 -3 15.5t-19 27.5zM193 1458q16 -18 19 -30.5t3 -22.5q0 -8 3 -12t20 -4l88 6v8 v8q2 12 5 11t8 -5t13 -4t19 14v177h-178v-146zM315 735q6 18 12.5 49t16.5 62t25.5 53.5t38.5 22.5q2 0 5 -1t5 -1q25 -35 48 -86.5t23 -98.5h-174zM395 762h64q-4 23 -12.5 45.5t-18.5 42.5q-12 -14 -19.5 -38t-13.5 -50zM438 1479q18 -16 22.5 -32.5t6.5 -31t6 -23 t23 -8.5l94 7v6v6q4 23 9 25t28 24v152h-189v-125z" />
<glyph unicode="&#xc5;" horiz-adv-x="716" d="M14 94v117l23 76q-2 14 -4 31.5t-4 33.5q-6 33 -6 66v31q0 27 13 100.5t36.5 167.5t52.5 196.5t58.5 186.5t59 139t52.5 55h229q4 -2 7.5 -4t19.5 -16l10 -10q4 -8 10.5 -14.5t10.5 -14.5l16 -16q43 -55 68.5 -127t39 -151t17.5 -162t4 -161v-215q0 -16 -1 -34.5 t-1 -34.5v-111q0 -4 -1 -20.5t-3 -39t-5 -45t-5 -36.5q0 -27 -11 -27q-10 0 -26 17l-21 18h-2q-4 -23 -6 -43t-2 -29h-57l-35 35h-10q2 -4 -2 8.5t-8.5 20.5t-7.5 19.5t-5 21.5q-10 35 -20.5 75t-10.5 64q0 33 21 45q8 12 8 25q0 18 -6 37l-221 10l-31 -367q-33 0 -50.5 6.5 t-27.5 16.5l-24 22q-2 0 -11 4v-8q0 -12 2.5 -20t2.5 -17v-18q0 -20 -10.5 -35.5t-41.5 -19.5l-37 37q-2 0 -3 -1.5t-3 -1.5l-39 43v37q0 10 -1 18.5t-1 18.5zM41 160q0 -31 1 -65t1 -64l23 -25q23 4 23.5 23.5t-2.5 42t0 41t30 18.5q14 0 19 -9t10.5 -19.5t15.5 -19.5 t37 -9l30 368l256 -12q14 -2 28.5 -20.5t23 -42t5.5 -47t-22 -35.5q-10 -6 -6 -35t13.5 -62.5t20.5 -64.5t13 -43h21q0 6 2 20.5t5 30.5t6 30.5t7 20.5q0 2 7 -8t16.5 -22.5t16.5 -21.5t7 -7q2 2 5 23.5t5.5 46t3.5 46t1 25.5v43q0 33 1 69t1 68v45q0 84 1 186.5t-9.5 206 t-36 199t-80.5 166.5q-4 4 -11.5 12.5t-9.5 8.5h-225q-20 0 -47 -53.5t-54.5 -135.5t-53 -180t-46 -189.5t-33 -163t-12.5 -97.5v-31q0 -25 7 -66t7 -76l-22 -73v-43zM283 1468v162h241v-12l35 -35v-180q-8 -8 -16 -15.5t-12.5 -11.5t-5.5 -6t-3 -12v-27l-114 -8 q-25 0 -35 10l-27 27q-23 4 -28 18.5t-7 36.5q-2 10 -7 23.5t-21 29.5zM309 1479q18 -16 22.5 -32.5t6.5 -31t6 -23t23 -8.5l94 7v6v6q4 23 9 25t28 24v152h-189v-125zM315 735q6 18 12.5 49t16.5 62t25.5 53.5t38.5 22.5q2 0 5 -1t5 -1q25 -35 48 -86.5t23 -98.5h-174z M395 762h64q-4 23 -12.5 45.5t-18.5 42.5q-12 -14 -19.5 -38t-13.5 -50z" />
<glyph unicode="&#xc6;" horiz-adv-x="1089" d="M29 94v117l22 76q-2 14 -4 31.5t-4 33.5q-6 33 -6 66v31q0 27 13 100.5t37 167.5t52.5 196.5t58 186.5t59.5 139t52 55h756v-12l35 -35q0 -25 -4 -79t-12.5 -109t-20.5 -97t-29 -42h-225v-86h211v-13l35 -35v-245h-35v-6l35 -35v-426q-18 6 -33 20l-21 19q-16 10 -28 24 q-4 -35 -15.5 -71.5t-44.5 -47.5h-12q-25 0 -41 7.5t-29 19.5l-16 14q-29 12 -44 36t-26 50v-2q-2 4 -2 7q0 2 -2 4h-2v-9q-2 -8 -4 -15t-4 -15q-4 -25 -6 -37q-2 -33 -12 -29q-8 -29 -15.5 -61.5t-13.5 -71.5q-2 0 -12 -1t-13 -1h-4q-12 0 -28 16l-21 21q-18 6 -37.5 31.5 t-36 58.5t-26.5 64.5t-10 48.5v49v55q0 35 2 82v29l-195 10l-31 -367q-33 0 -50 6.5t-27 16.5l-25 22q-2 0 -10 4v-8q0 -12 2 -20t2 -17v-18q0 -20 -10.5 -35.5t-40.5 -19.5l-37 37q-2 0 -3 -1.5t-3 -1.5l-39 43v37q0 10 -1 18.5t-1 18.5zM55 160q0 -31 1 -65t1 -64l23 -25 q23 4 23.5 23.5t-2.5 42t0 41t30 18.5q14 0 19.5 -9t10.5 -19.5t15 -19.5t37 -9l31 368l256 -12q12 -2 26 -16q-2 -72 -3 -127.5t-1 -83.5v-49q0 -14 9.5 -44t22.5 -60t29.5 -52.5t30.5 -22.5q2 0 5.5 1t5.5 1q6 39 15 76t19 72q4 -4 5 -2q4 4 6 35q4 16 8 32.5t8 32.5h10 q33 0 48.5 -22.5t28.5 -49t30.5 -49t56.5 -22.5h10q18 8 27.5 34.5t12.5 54.5t2 50.5t-1 24.5h41q0 -4 2 -19.5t7.5 -32t12.5 -32t19 -19.5v379h-239l-3 12q-3 13 -3 27q0 16 4 29.5t16 13.5h225v205h-245v174h245q12 0 20.5 37t13.5 86t8 96t3 68h-495v-8l-8 8h-226 q-20 0 -46.5 -53.5t-54.5 -135.5t-53.5 -180t-46 -189.5t-33 -163t-12.5 -97.5v-31q0 -25 7.5 -66t7.5 -76l-23 -73v-43zM330 735q6 18 12 49t16.5 62t25.5 53.5t38 22.5q2 0 5 -1t5 -1q25 -35 48.5 -86.5t23.5 -98.5h-174zM410 762h63q-4 23 -12.5 45.5t-18.5 42.5 q-12 -14 -19 -38t-13 -50z" />
<glyph unicode="&#xc7;" horiz-adv-x="595" d="M23 684q0 -160 17 -306.5t50 -303.5h12l35 -35h37q8 0 23 10h2v-121l10 6l37 -36l22 16q2 -27 5 -49.5t12 -38.5l-162 -158l20 -39l9 4l36 -36l273 75v23q0 20 -3 91t-7 151q-2 18 -2 34t-3 31h3l22 -20q10 -10 13 -12.5t12 -2.5h6h6t14 4l13 13q6 6 12 16l6 10l10 420 l-35 35v12q-47 -6 -82 -6q-76 0 -116 41q-20 39 -26.5 91.5t-6.5 111.5q0 25 2 57.5t11 61t27.5 48t49.5 19.5q12 0 25 -6q18 -27 29.5 -61.5t15.5 -69.5q2 0 10 4l37 -37q20 4 38.5 48t33 100.5t22.5 108.5t8 75q0 53 -4 92t-27 62l-18 16q-12 29 -43 45t-92 16h-23 q-16 0 -57 -3t-85 -6t-85 -7t-57 -6q-66 -129 -79 -269.5t-13 -271.5v-47zM49 684q0 70 1 142.5t8.5 144t24.5 142.5t50 134q14 2 52 6t80 7.5t80 5.5t54 2h23q45 0 70.5 -11.5t37 -32t13.5 -51t2 -69.5q0 -20 -5 -69.5t-14.5 -101.5t-20.5 -93t-24 -43q-4 29 -13 58.5 t-26.5 53t-41 39t-54.5 15.5q-39 0 -60.5 -21.5t-32.5 -53.5t-14 -68t-3 -64q0 -68 10 -129.5t38.5 -105.5t81 -64.5t136.5 -7.5l-10 -398q0 -2 -8.5 -9t-12.5 -11l-4 -1q-4 -1 -6 -1t-5 1t-5 1q0 51 -3.5 69.5t-11.5 30.5t-22.5 28.5t-34.5 63.5q-2 0 0 -36.5t4 -91t6 -119 t6 -119t4 -91t0 -36.5l-247 -70l163 158q-12 0 -16 45t-3 104.5t3 117.5t2 85q0 25 -6 5.5t-14.5 -54.5t-15.5 -73t-9 -50l-31 -21v138l-19 5q-20 5 -32 1q-4 0 -20.5 -9.5t-20.5 -11.5h-10h-10q-31 147 -47.5 288.5t-16.5 295.5z" />
<glyph unicode="&#xc8;" horiz-adv-x="614" d="M20 154v49q2 41 3.5 126t3.5 193q2 51 2 105q0 53 2 108q0 84 1 171t3 163t3 135.5t3 89.5h549v-12l35 -35q0 -25 -4.5 -79t-12.5 -109t-20.5 -97t-28.5 -42h-225v-86h211v-13l35 -35v-245h-35v-6l35 -35v-426q-18 6 -33 20l-21 19q-16 10 -28 24q-4 -35 -15.5 -71.5 t-44.5 -47.5h-12q-25 0 -41 7.5t-29 19.5l-16 14q-29 12 -44 36t-26 50v-2q-2 4 -2 7q0 2 -2 4q-6 -23 -11 -42.5t-9 -37.5q-10 -35 -18.5 -66t-18.5 -92q-2 0 -12.5 -1t-12.5 -1h-4q-12 0 -28 16l-21 21q-18 6 -37.5 31.5t-36 58.5t-27 64.5t-10.5 48.5zM47 154 q0 -14 9.5 -44t22.5 -60t29.5 -52.5t30.5 -22.5q2 0 5 1t6 1q10 66 28.5 124.5t32.5 121.5h10q33 0 48.5 -22.5t28.5 -49t30.5 -49t56.5 -22.5h10q18 8 27.5 34.5t12.5 54.5t2 50.5t-1 24.5h41q0 -4 2 -19.5t7.5 -32t12.5 -32t19 -19.5v379h-239l-3 12q-4 13 -4 27 q0 16 4.5 29.5t16.5 13.5h225v205h-246v174h246q12 0 20.5 37t13.5 86t8 96t3 68h-495q-2 -41 -4.5 -124t-3.5 -187.5t-3 -221.5t-3 -221t-3 -188t-4 -123v-49zM92 1612h246l18 -27l21 -20l106 -158q-23 -23 -25.5 -33t-2.5 -18q0 -25 -5.5 -31t-39.5 -6l-60 8l-24 25 q-8 4 -11 8h-2l-10 2v10l-10 8q-18 4 -29 23zM147 1585l138 -166q8 -12 20 -12q8 0 11 4t8 4q2 0 6 -12v-17l41 -6q16 0 19 3t3 14q0 10 3 22.5t20 30.5l-90 135h-179zM274 1401q0 -4 5 -4z" />
<glyph unicode="&#xc9;" horiz-adv-x="614" d="M20 154v49q2 41 3.5 126t3.5 193q2 51 2 105q0 53 2 108q0 84 1 171t3 163t3 135.5t3 89.5h549v-12l35 -35q0 -25 -4.5 -79t-12.5 -109t-20.5 -97t-28.5 -42h-225v-86h211v-13l35 -35v-245h-35v-6l35 -35v-426q-18 6 -33 20l-21 19q-16 10 -28 24q-4 -35 -15.5 -71.5 t-44.5 -47.5h-12q-25 0 -41 7.5t-29 19.5l-16 14q-29 12 -44 36t-26 50v-2q-2 4 -2 7q0 2 -2 4q-6 -23 -11 -42.5t-9 -37.5q-10 -35 -18.5 -66t-18.5 -92q-2 0 -12.5 -1t-12.5 -1h-4q-12 0 -28 16l-21 21q-18 6 -37.5 31.5t-36 58.5t-27 64.5t-10.5 48.5zM47 154 q0 -14 9.5 -44t22.5 -60t29.5 -52.5t30.5 -22.5q2 0 5 1t6 1q10 66 28.5 124.5t32.5 121.5h10q33 0 48.5 -22.5t28.5 -49t30.5 -49t56.5 -22.5h10q18 8 27.5 34.5t12.5 54.5t2 50.5t-1 24.5h41q0 -4 2 -19.5t7.5 -32t12.5 -32t19 -19.5v379h-239l-3 12q-4 13 -4 27 q0 16 4.5 29.5t16.5 13.5h225v205h-246v174h246q12 0 20.5 37t13.5 86t8 96t3 68h-495q-2 -41 -4.5 -124t-3.5 -187.5t-3 -221.5t-3 -221t-3 -188t-4 -123v-49zM180 1434l113 163h246l-9 -10l37 -37l-164 -198q-16 -20 -36 -21h-5v-18l-59 -8q-33 0 -39 6l-31 28 q-16 4 -19 12.5t-3 30.5q0 6 -4 16.5t-27 35.5zM215 1436q16 -18 19.5 -30.5t3.5 -23.5q0 -10 3 -13t19 -3l41 6v17q2 12 6 12t7 -4t12 -4q10 0 20 12l137 166h-178z" />
<glyph unicode="&#xca;" horiz-adv-x="614" d="M20 154v49q2 41 3.5 126t3.5 193q2 51 2 105q0 53 2 108q0 84 1 171t3 163t3 135.5t3 89.5h129q-14 0 -16 6l-31 29q-16 4 -19.5 12.5t-3.5 30.5q0 6 -4 16.5t-26 34.5l108 164l154 6l71 -14l17 -27l22 -20l105 -156q-23 -23 -26 -36t-3 -23l-14 -14q-16 0 -33 16l-6 6 v-2l-21 18h-4l-14 -18q-8 -8 -10 -9t-10 -1q-14 0 -23 10l-25 25q-14 2 -30 24l-6 6l-29 -37q-16 -20 -37 -20h-4v-18l-59 -9h397v-12l35 -35q0 -25 -4.5 -79t-12.5 -109t-20.5 -97t-28.5 -42h-225v-86h211v-13l35 -35v-245h-35v-6l35 -35v-426q-18 6 -33 20l-21 19 q-16 10 -28 24q-4 -35 -15.5 -71.5t-44.5 -47.5h-12q-25 0 -41 7.5t-29 19.5l-16 14q-29 12 -44 36t-26 50v-2q-2 4 -2 7q0 2 -2 4q-6 -23 -11 -42.5t-9 -37.5q-10 -35 -18.5 -66t-18.5 -92q-2 0 -12.5 -1t-12.5 -1h-4q-12 0 -28 16l-21 21q-18 6 -37.5 31.5t-36 58.5 t-27 64.5t-10.5 48.5zM47 154q0 -14 9.5 -44t22.5 -60t29.5 -52.5t30.5 -22.5q2 0 5 1t6 1q10 66 28.5 124.5t32.5 121.5h10q33 0 48.5 -22.5t28.5 -49t30.5 -49t56.5 -22.5h10q18 8 27.5 34.5t12.5 54.5t2 50.5t-1 24.5h41q0 -4 2 -19.5t7.5 -32t12.5 -32t19 -19.5v379 h-239l-3 12q-4 13 -4 27q0 16 4.5 29.5t16.5 13.5h225v205h-246v174h246q12 0 20.5 37t13.5 86t8 96t3 68h-495q-2 -41 -4.5 -124t-3.5 -187.5t-3 -221.5t-3 -221t-3 -188t-4 -123v-49zM104 1425q16 -18 19.5 -30.5t3.5 -22.5t3 -13t20 -3l40 6v16q2 12 7 13q4 0 7 -4.5 t11 -4.5q10 0 21 13l53 63l59 -69q14 -18 21 -13l28 35q8 0 18.5 -9t19.5 -18.5t15.5 -15.5t6.5 -2q0 10 3 22.5t19 30.5l-90 135l-63 13l-131 -6z" />
<glyph unicode="&#xcb;" horiz-adv-x="614" d="M20 154v49q2 41 3.5 126t3.5 193q2 51 2 105q0 53 2 108q0 84 1 171t3 163t3 135.5t3 89.5h549v-12l35 -35q0 -25 -4.5 -79t-12.5 -109t-20.5 -97t-28.5 -42h-225v-86h211v-13l35 -35v-245h-35v-6l35 -35v-426q-18 6 -33 20l-21 19q-16 10 -28 24q-4 -35 -15.5 -71.5 t-44.5 -47.5h-12q-25 0 -41 7.5t-29 19.5l-16 14q-29 12 -44 36t-26 50v-2q-2 4 -2 7q0 2 -2 4q-6 -23 -11 -42.5t-9 -37.5q-10 -35 -18.5 -66t-18.5 -92q-2 0 -12.5 -1t-12.5 -1h-4q-12 0 -28 16l-21 21q-18 6 -37.5 31.5t-36 58.5t-27 64.5t-10.5 48.5zM47 154 q0 -14 9.5 -44t22.5 -60t29.5 -52.5t30.5 -22.5q2 0 5 1t6 1q10 66 28.5 124.5t32.5 121.5h10q33 0 48.5 -22.5t28.5 -49t30.5 -49t56.5 -22.5h10q18 8 27.5 34.5t12.5 54.5t2 50.5t-1 24.5h41q0 -4 2 -19.5t7.5 -32t12.5 -32t19 -19.5v379h-239l-3 12q-4 13 -4 27 q0 16 4.5 29.5t16.5 13.5h225v205h-246v174h246q12 0 20.5 37t13.5 86t8 96t3 68h-495q-2 -41 -4.5 -124t-3.5 -187.5t-3 -221.5t-3 -221t-3 -188t-4 -123v-49zM63 1440v182h232v-12l14 -15v27h242v-12l35 -35v-180q-8 -8 -16.5 -15.5t-12.5 -11.5t-5 -6t-3 -12v-27l-115 -8 q-25 0 -35 10l-26 27q-23 4 -28 18t-7 37q-2 6 -3 13t-5 16v-64q-12 -18 -21.5 -23.5t-19.5 -5.5h-4v-16l-109 -8q-29 0 -37 8l-28 27q-18 4 -21.5 15t-3.5 28q0 6 -3 15t-20 28zM90 1450q16 -18 19.5 -30.5t3.5 -22.5q0 -8 3 -12.5t19 -4.5l88 6v9v8q2 12 5 11t8.5 -5 t13.5 -4t18 14v176h-178v-145zM336 1470q18 -16 22 -32.5t6.5 -30.5t6.5 -22.5t22 -8.5l94 6v7v6q4 23 9.5 24.5t27.5 24.5v151h-188v-125z" />
<glyph unicode="&#xcc;" d="M-25 1616h246l19 -27l20 -20l107 -158q-23 -23 -26 -33t-3 -18q0 -25 -5 -31t-40 -6l-60 8l-24 25q-8 4 -10 8h-2l-11 2v10l-10 8q-18 4 -29 23zM29 156v1142h258v-12l35 -35v-1104q-27 -4 -42.5 -18t-23.5 -35.5t-11 -45t-5 -46.5q-4 -43 -10.5 -73.5t-41.5 -30.5h-6 q-8 0 -11 2t-13 12l-21 20q-8 0 -26 19q-6 53 -31 107.5t-51 97.5zM31 1589l137 -166q8 -12 20 -12q8 0 11.5 4t7.5 4q2 0 6 -12v-16l41 -7q16 0 19 3.5t3 13.5t3.5 22.5t19.5 30.5l-90 135h-178zM55 166q27 -43 51.5 -97.5t30.5 -107.5q2 0 5 -1t5 -1q20 0 24.5 37t8.5 81 t19.5 84t60.5 46v1065h-205v-1106z" />
<glyph unicode="&#xcd;" d="M-4 1425l113 164h245l-8 -10l37 -37l-164 -199q-16 -20 -37 -20h-4v-18l-45 -7h154v-12l35 -35v-1104q-27 -4 -42.5 -18t-23.5 -35.5t-11 -45t-5 -46.5q-4 -43 -10.5 -73.5t-41.5 -30.5h-6q-8 0 -11 2t-13 12l-21 20q-8 0 -26 19q-6 53 -31 107.5t-51 97.5v1142h57 q-2 0 -6 5l-31 28q-16 4 -19 12.5t-3 30.5q0 6 -4.5 16.5t-26.5 34.5zM31 1427q16 -18 19 -30.5t3 -22.5t3 -13t20 -3l41 6v16q2 12 6 13q4 0 7 -4.5t11 -4.5q10 0 21 13l137 166h-178zM55 166q27 -43 51.5 -97.5t30.5 -107.5q2 0 5 -1t5 -1q20 0 24.5 37t8.5 81t19.5 84 t60.5 46v1065h-205v-1106z" />
<glyph unicode="&#xce;" d="M-76 1442l109 164l153 6l72 -15l16 -26l23 -21l104 -155q-23 -23 -25.5 -36t-2.5 -24l-15 -14q-16 0 -32 16l-7 6v-2l-20 19h-4l-14 -19q-8 -8 -10.5 -9t-10.5 -1q-14 0 -22 10l-25 25q-14 2 -31 25l-6 6l-29 -37q-16 -20 -36 -21h-5v-18l-59 -8q-33 0 -39 6l-28 29 q-18 4 -21.5 12t-3.5 31q0 6 -4 16t-27 35zM-41 1444q16 -18 19.5 -30.5t3.5 -22.5t3 -13.5t19 -3.5l41 6v17q2 12 6 12t7 -4t12 -4q10 0 20 12l53 64l60 -70q14 -18 20 -12l29 35q8 0 18.5 -9.5t19.5 -18.5t15 -15.5t6 -2.5q0 10 3 22.5t20 31.5l-90 135l-64 12l-131 -6z M29 156v1142h258v-12l35 -35v-1104q-27 -4 -42.5 -18t-23.5 -35.5t-11 -45t-5 -46.5q-4 -43 -10.5 -73.5t-41.5 -30.5h-6q-8 0 -11 2t-13 12l-21 20q-8 0 -26 19q-6 53 -31 107.5t-51 97.5zM55 166q27 -43 51.5 -97.5t30.5 -107.5q2 0 5 -1t5 -1q20 0 24.5 37t8.5 81 t19.5 84t60.5 46v1065h-205v-1106z" />
<glyph unicode="&#xcf;" d="M-80 1444v182h232v-12l14 -15v27h242v-12l34 -35v-180q-8 -8 -16 -15.5t-12 -11.5t-5 -6t-3 -12v-27l-115 -8q-25 0 -35 10l-27 27q-23 4 -27.5 18.5t-6.5 36.5q-2 6 -3.5 13.5t-5.5 15.5v-64q-12 -18 -21 -23t-20 -5h-4v-17l-108 -8q-29 0 -37 8l-29 27q-18 4 -21 15 t-3 28q0 6 -3 15t-20 28zM-53 1454q16 -18 19 -30.5t3 -22.5q0 -8 3 -12.5t20 -4.5l88 7v8v8q2 12 5 11t8 -5t13 -4t19 14v176h-178v-145zM29 156v1142h258v-12l35 -35v-1104q-27 -4 -42.5 -18t-23.5 -35.5t-11 -45t-5 -46.5q-4 -43 -10.5 -73.5t-41.5 -30.5h-6q-8 0 -11 2 t-13 12l-21 20q-8 0 -26 19q-6 53 -31 107.5t-51 97.5zM55 166q27 -43 51.5 -97.5t30.5 -107.5q2 0 5 -1t5 -1q20 0 24.5 37t8.5 81t19.5 84t60.5 46v1065h-205v-1106zM193 1475q18 -16 22 -33t6 -31t6 -22.5t23 -8.5l94 6v7v6q4 23 9 24.5t28 24.5v151h-188v-124z" />
<glyph unicode="&#xd0;" horiz-adv-x="837" d="M25 610v250h129l-13 438h553l11 -20l26 -27l29 -57q4 -16 11 -59t17 -93q10 -55 19.5 -106t13.5 -70q2 -8 9.5 -29.5t11.5 -29.5l-21 -438q-4 -43 -19.5 -65.5t-37.5 -41.5q-16 -14 -27.5 -28.5t-15.5 -43.5q-2 -12 -9 -57t-15.5 -96t-14.5 -96t-6 -58l-37 -37 q-14 6 -27 19l-14 14q-47 20 -59.5 67.5t-16.5 104.5q0 4 -1 6t-1 6q-4 18 -5 36t-5 32q-18 4 -44 6t-46 6l41 -116v-21q0 -16 -7.5 -26.5t-17.5 -10.5q-53 0 -100 47l-6 7q-33 18 -58.5 53t-44 72.5t-29 75.5t-12.5 65l-24 295q0 -2 -2 -2v-2q-12 -14 -22.5 -23.5 t-26.5 -9.5q-15 0 -31 16q-2 2 -4 3t-4 3l-13 13q-18 4 -34 28zM51 618q12 -16 23.5 -9t25 22.5t29.5 32t39 16.5q2 0 6 -1t8 -1v-14q0 -8 2 -13l29 -360q2 -29 15.5 -73t36 -86t55 -71.5t75.5 -29.5q4 0 4 16v21l-49 139l22 -2q21 -2 46.5 -5t48 -6.5t25.5 -3.5 q31 0 41 -39.5t14 -89t12 -94.5t35 -55l20 20q0 12 6.5 56.5t14.5 96.5t15 96t9 57q4 31 19.5 49t33 34.5t32 36t16.5 54.5l20 430q-4 6 -11 29.5t-9 31.5q-4 18 -12.5 64.5t-18.5 98.5t-18.5 99t-12.5 66l-20 41h-510l14 -438h-131v-216zM350 834v8q0 18 3 45.5t6 54.5 t6.5 45.5t5.5 18.5h184q12 0 21.5 -40t13.5 -90.5t6 -98.5t2 -62q16 -35 6 -77t-36.5 -80t-60.5 -69.5t-66.5 -45t-55.5 -6.5t-25 46l-8 172q16 4 26.5 5.5t12.5 3.5q6 4 13.5 -0.5t12.5 -11.5t10 -13t9 -6l-4 -43q41 0 59.5 3t28.5 17v224h-170zM412 860h135v-12l22 -25 q0 35 -2 67t-4 54h-151v-84zM416 563l4 -100q45 12 94 65h-63z" />
<glyph unicode="&#xd1;" horiz-adv-x="716" d="M27 182v1112h252q18 0 32.5 -14t24.5 -35l16 -14q16 -16 27.5 -45t17.5 -45l-2 2q4 -12 4 -13l2 -2q4 -16 10.5 -58t14.5 -83h4q20 -8 45 -39q0 4 1 8.5t1 6.5q2 16 6 63t7.5 99.5t5.5 100.5t2 68h196v-12l35 -35v-1059q-35 -12 -41 -40.5t-6 -61.5q0 -43 -9 -77t-57 -34 h-6q-8 0 -11 2.5t-13 12.5l-21 20q-6 0 -11 3t-15 16q-6 51 -15.5 110.5t-25 118.5t-38 115.5t-54.5 103.5q-10 4 -21.5 8t-17.5 11l-9 8q-2 -31 -4 -69t-5 -71.5t-5 -61.5t-4 -40q0 -6 -3 -19.5t-8 -28.5t-9.5 -29.5t-8.5 -22.5h-18q-4 0 -7 -1t-7 -1q-31 0 -50 18l-12 12 v-8q0 -8 3 -33.5t7 -54.5l4 -46t5 -30l2 -2q0 -4 1 -10t1 -14q2 -12 2 -29v-26v-41h-86l-35 34h-12q0 10 -2.5 34t-5.5 48.5t-7 47t-6 30.5q-4 4 -6 4l-2 4l-6 4q-6 6 -14.5 19.5t-15.5 26t-12 22.5t-5 12zM53 182q0 -2 15.5 -25.5t25.5 -35.5q2 -2 11.5 -10.5t9.5 -10.5 q2 -8 6 -27.5t7 -43t5 -44t2 -28.5h45v20q0 20 -2 46t-2 36q0 6 -3 30t-7 51.5t-7 52t-3 30.5q0 12 8 40l12 42q4 -29 16.5 -56.5t45.5 -27.5q4 0 11 1t9 1q4 10 11 41t10 41q2 16 6 60.5t7 93.5t5 93t2 60q4 -2 11 -9t9.5 -11t9.5 -21.5t11 -19.5q2 -2 11 -5t20.5 -6 t19.5 -5.5t10 -4.5q41 -47 70 -107.5t47.5 -126t29.5 -132t17 -125.5q2 0 5 -1t5 -1q33 0 39.5 27.5t6.5 62.5q0 37 6 70.5t41 46.5v1024h-144q0 -16 -2 -60.5t-5 -93.5t-7 -93t-6 -60q0 -6 -3 -20.5t-6 -31t-6.5 -31t-5.5 -20.5q0 12 -5 27.5t-13 31t-19.5 27.5t-23.5 17 q-6 2 -21.5 -6.5t-19.5 -14.5q-2 12 -8 45t-12.5 69t-12.5 67.5t-8 43.5q-2 6 -7 22.5t-13.5 35t-18.5 32t-22 13.5h-226v-1086zM72 1442l110 162l43 6q10 10 35 10h19q8 0 14 -2v-2h12l101 -19l16 -24l14 -17l27 33h12t12 4h7v27l65 8q31 0 40 -4t11 -20l29 -29q6 -6 6 -31 q0 -10 2 -19t19 -28l6 -4l-105 -162h-170l-4 2l-43 10l-35 31l-6 2l-10 -12q-4 -27 -15.5 -31t-33.5 -8q-10 -2 -25.5 -5t-31.5 -7q-31 0 -37 6l-31 29q-16 4 -19.5 12t-3.5 31q0 6 -4 16t-26 35zM106 1444q16 -18 19.5 -30.5t3.5 -22.5t3 -13.5t20 -3.5q25 8 40 10t25 4.5 t14.5 7.5t6.5 17l43 51l41 -61l40 -8l3 -2h2h149l90 139q-16 18 -19 30.5t-3 22.5t-3 13.5t-20 3.5l-41 -7v-16q-2 -6 -22.5 -10t-22.5 -6l-43 -52l-41 62l-92 16q-6 0 -17.5 2t-21.5 2q-14 0 -14 -6v-2l-49 -6zM190 59h5q0 2 -1 13.5t-4 25.5v-39z" />
<glyph unicode="&#xd2;" horiz-adv-x="696" d="M18 852q4 8 11.5 29.5t9.5 27.5q4 10 7 31t7 47q4 23 9.5 48.5t9.5 50t8 48t8 44.5v-2q4 20 7 35.5t5 25.5l31 61h494v-14l34 -33q0 -14 2.5 -43.5t5.5 -67.5t6 -80t7 -83q6 -82 11 -154.5t9 -101.5v-62q0 -12 1 -24t1 -25v-37q0 -18 -8 -67t-23.5 -110.5t-37 -128 t-47 -122t-54 -91.5t-59.5 -36q-23 0 -35 13l-28 28q-20 6 -29 25l-23 37q-10 -10 -13 -31.5t-7 -44.5q-4 -39 -17.5 -75t-56.5 -52l-35 35q-4 0 -6 -2l-41 41q0 12 -2 41.5t-5 62.5t-7 62.5t-6 42.5q-4 23 -15.5 39t-27.5 32l-8 9q-29 29 -48.5 57.5t-23.5 71.5zM45 842 l21 -430q2 -35 20 -59.5t39.5 -47t40 -45t22.5 -53.5q2 -12 6.5 -41t7.5 -61.5t5 -61.5t2 -41l20 -20q27 10 35 43.5t13.5 70.5t15.5 65.5t41 28.5q4 0 11 -1t7 -3l62 -102q4 -4 18 -4q29 0 55.5 35t49 88t42 116.5t34 123t21.5 106.5t7 65v37q0 23 -1 46.5t-1 39.5v23 q-2 29 -8 101.5t-12.5 154.5t-12.5 154.5t-8 101.5h-451l-20 -41q-4 -18 -12.5 -65.5t-18.5 -99.5t-18 -98t-12 -65q-2 -8 -9.5 -31.5t-11.5 -29.5zM125 272l14 -14l-7 7zM160 1612h246l18 -27l20 -20l107 -158q-23 -23 -26 -33t-3 -18q0 -25 -5 -31t-40 -6l-59 8l-25 25 q-8 4 -10 8h-2l-10 2v10l-11 8q-18 4 -28 23zM215 1585l137 -166q8 -12 21 -12q8 0 11 4t7 4q2 0 6 -12v-17l41 -6q16 0 19.5 3t3.5 14q0 10 3 22.5t19 30.5l-90 135h-178zM225 754q0 14 2 56t7.5 85t14.5 77t21 34h185q2 0 5 -12.5t6 -32t5 -41t2 -39.5v-17q0 -14 1 -32.5 t1 -38.5v-29q0 -31 -2 -75t-14.5 -84t-38 -67.5t-70.5 -27.5t-69.5 26.5t-37 64.5t-15.5 80t-3 73zM287 713q0 -35 2 -81t18 -83q18 -12 43 -12q37 0 56.5 24.5t28.5 60t11.5 74.5t2.5 68v29q0 6 -1.5 11t-1.5 11v66q0 23 -1 34t1 29h-135q-6 0 -11 -30.5t-8 -70.5t-4 -78 t-1 -52zM436 33q0 -2 2 -2z" />
<glyph unicode="&#xd3;" horiz-adv-x="696" d="M18 852q4 8 11.5 29.5t9.5 27.5q4 10 7 31t7 47q4 23 9.5 48.5t9.5 50t8 48t8 44.5q4 18 7 33.5t5 25.5l31 61h494v-14l34 -33q0 -14 2.5 -43.5t5.5 -67.5t6 -80t7 -83q6 -82 11 -154.5t9 -101.5v-62q0 -12 1 -24t1 -25v-37q0 -18 -8 -67t-23.5 -110.5t-37 -128t-47 -122 t-54 -91.5t-59.5 -36q-23 0 -35 13l-28 28q-20 6 -29 25l-23 37q-10 -10 -13 -31.5t-7 -44.5q-4 -39 -17.5 -75t-56.5 -52l-35 35q-4 0 -6 -2l-41 41q0 12 -2 41.5t-5 62.5t-7 62.5t-6 42.5q-4 23 -15.5 39t-27.5 32l-8 9q-29 29 -48.5 57.5t-23.5 71.5zM45 842l21 -430 q2 -35 20 -59.5t39.5 -47t40 -45t22.5 -53.5q2 -12 6.5 -41t7.5 -61.5t5 -61.5t2 -41l20 -20q27 10 35 43.5t13.5 70.5t15.5 65.5t41 28.5q4 0 11 -1t7 -3l62 -102q4 -4 18 -4q29 0 55.5 35t49 88t42 116.5t34 123t21.5 106.5t7 65v37q0 23 -1 46.5t-1 39.5v23 q-2 29 -8 101.5t-12.5 154.5t-12.5 154.5t-8 101.5h-451l-20 -41q-4 -18 -12.5 -65.5t-18.5 -99.5t-18 -98t-12 -65q-2 -8 -9.5 -31.5t-11.5 -29.5zM125 272l14 -14l-7 7zM225 754q0 14 2 56t7.5 85t14.5 77t21 34h185q2 0 5 -12.5t6 -32t5 -41t2 -39.5v-17q0 -14 1 -32.5 t1 -38.5v-29q0 -31 -2 -75t-14.5 -84t-38 -67.5t-70.5 -27.5t-69.5 26.5t-37 64.5t-15.5 80t-3 73zM231 1440l113 164h246l-8 -11l36 -37l-163 -198q-16 -20 -37 -21h-4v-18l-60 -8q-33 0 -39 6l-30 29q-16 4 -19.5 12t-3.5 31q0 6 -4 16t-27 35zM266 1442 q16 -18 19.5 -30.5t3.5 -22.5t3 -13.5t19 -3.5l41 6v17q2 12 6 12t7.5 -4t11.5 -4q10 0 20 12l138 166h-179zM287 713q0 -35 2 -81t18 -83q18 -12 43 -12q37 0 56.5 24.5t28.5 60t11.5 74.5t2.5 68v29q0 6 -1.5 11t-1.5 11v66q0 23 -1 34t1 29h-135q-6 0 -11 -30.5t-8 -70.5 t-4 -78t-1 -52zM436 33q0 -2 2 -2z" />
<glyph unicode="&#xd4;" horiz-adv-x="696" d="M18 852q4 8 11.5 29.5t9.5 27.5q4 10 7 31t7 47q4 23 9.5 48.5t9.5 50t8 48t8 44.5v-2q4 20 7 35.5t5 25.5l31 61h494v-14l34 -33q0 -14 2.5 -43.5t5.5 -67.5t6 -80t7 -83q6 -82 11 -154.5t9 -101.5v-62q0 -12 1 -24t1 -25v-37q0 -18 -8 -67t-23.5 -110.5t-37 -128 t-47 -122t-54 -91.5t-59.5 -36q-23 0 -35 13l-28 28q-20 6 -29 25l-23 37q-10 -10 -13 -31.5t-7 -44.5q-4 -39 -17.5 -75t-56.5 -52l-35 35q-4 0 -6 -2l-41 41q0 12 -2 41.5t-5 62.5t-7 62.5t-6 42.5q-4 23 -15.5 39t-27.5 32l-8 9q-29 29 -48.5 57.5t-23.5 71.5zM45 842 l21 -430q2 -35 20 -59.5t39.5 -47t40 -45t22.5 -53.5q2 -12 6.5 -41t7.5 -61.5t5 -61.5t2 -41l20 -20q27 10 35 43.5t13.5 70.5t15.5 65.5t41 28.5q4 0 11 -1t7 -3l62 -102q4 -4 18 -4q29 0 55.5 35t49 88t42 116.5t34 123t21.5 106.5t7 65v37q0 23 -1 46.5t-1 39.5v23 q-2 29 -8 101.5t-12.5 154.5t-12.5 154.5t-8 101.5h-451l-20 -41q-4 -18 -12.5 -65.5t-18.5 -99.5t-18 -98t-12 -65q-2 -8 -9.5 -31.5t-11.5 -29.5zM129 1442l109 164l153 6l72 -15l16 -26l23 -21l104 -155q-23 -23 -25.5 -36t-2.5 -24l-15 -14q-16 0 -33 16l-6 6v-2l-20 19 h-4l-15 -19q-8 -8 -10 -9t-10 -1q-14 0 -23 10l-24 25q-14 2 -31 25l-6 6l-29 -37q-16 -20 -37 -21h-4v-18l-59 -8q-33 0 -39 6l-31 29q-16 4 -19 12t-3 31q0 6 -4 16t-27 35zM164 1444q16 -18 19 -30.5t3 -22.5t3.5 -13.5t19.5 -3.5l41 6v17q2 12 6 12t7 -4t11 -4 q10 0 21 12l53 64l60 -70q14 -18 20 -12l29 35q8 0 18 -9.5t19.5 -18.5t15.5 -15.5t6 -2.5q0 10 3 22.5t20 31.5l-90 135l-64 12l-131 -6zM225 754q0 14 2 56t7.5 85t14.5 77t21 34h185q2 0 5 -12.5t6 -32t5 -41t2 -39.5v-17q0 -14 1 -32.5t1 -38.5v-29q0 -31 -2 -75 t-14.5 -84t-38 -67.5t-70.5 -27.5t-69.5 26.5t-37 64.5t-15.5 80t-3 73zM287 713q0 -35 2 -81t18 -83q18 -12 43 -12q37 0 56.5 24.5t28.5 60t11.5 74.5t2.5 68v29q0 6 -1.5 11t-1.5 11v66q0 23 -1 34t1 29h-135q-6 0 -11 -30.5t-8 -70.5t-4 -78t-1 -52zM436 33q0 -2 2 -2z " />
<glyph unicode="&#xd5;" horiz-adv-x="696" d="M18 852q4 8 11.5 29.5t9.5 27.5l61 328l31 61h492v-14l34 -33l45 -553v-125q0 -18 -8 -67t-23.5 -110.5t-37 -128t-47 -122t-54 -91.5t-59.5 -36q-23 0 -35 13l-28 28q-20 6 -29 25l-23 37q-10 -10 -13 -31.5t-7 -44.5q-4 -39 -17.5 -75t-56.5 -52l-35 35q-4 0 -6 -2 l-41 41q0 12 -2 41.5t-5 61.5t-7 61.5t-6 42.5q-4 25 -15.5 42t-27.5 33l-8 9q-29 29 -48.5 56.5t-23.5 70.5zM45 842l21 -430q2 -35 20 -59.5t39.5 -47t40 -45t22.5 -53.5q2 -12 6.5 -41t7.5 -61.5t5 -61.5t2 -41l20 -20q27 10 35 43.5t13.5 70.5t15.5 65.5t41 28.5 q4 0 11 -1t7 -3l62 -102q4 -4 18 -4q29 0 55.5 35t49 88t42 116.5t34 123t21.5 106.5t7 65v123l-43 535h-451l-20 -41l-61 -328q-2 -8 -9.5 -31.5t-11.5 -29.5zM80 1438l110 161l43 7q10 10 35 10h19q8 0 14 -2v-2h12l101 -19l16 -24l14 -17l27 33h12t13 4h6v27l65 8 q31 0 40 -4t11 -21l29 -28q6 -6 6 -31q0 -10 3 -19.5t24 -31.5l-105 -162h-169l-5 2l-43 10l-34 31l-7 2l-10 -12q-4 -27 -15 -31t-34 -8q-10 -2 -25.5 -5t-31.5 -7q-31 0 -37 6l-31 28q-16 4 -19 12.5t-3 30.5q0 6 -4.5 16.5t-26.5 35.5zM115 1440q16 -18 19 -30.5t3 -23.5 q0 -10 3 -13t20 -3q25 8 40 10t25.5 4t14.5 7.5t6 17.5l43 51l41 -61l41 -8l2 -2h2h149l90 139q-16 18 -19 30.5t-3 22.5t-3 13t-20 3l-41 -6v-16q-2 -6 -22.5 -10t-22.5 -6l-43 -52l-41 62l-92 16q-6 0 -17 2t-22 2q-14 0 -14 -6v-2l-49 -6zM225 754q0 14 2 56t7.5 85 t14.5 77t21 34h185q2 0 5 -12.5t6 -32t5 -41t2 -39.5v-17q0 -14 1 -32.5t1 -38.5v-29q0 -31 -2 -75t-14.5 -84t-38 -67.5t-70.5 -27.5t-69.5 26.5t-37 64.5t-15.5 80t-3 73zM287 713q0 -35 2 -81t18 -83q18 -12 43 -12q37 0 56.5 24.5t28.5 60t11.5 74.5t2.5 68v29 q0 6 -1.5 11t-1.5 11v66q0 23 -1 34t1 29h-135q-6 0 -11 -30.5t-8 -70.5t-4 -78t-1 -52zM436 33q0 -2 2 -2z" />
<glyph unicode="&#xd6;" horiz-adv-x="696" d="M18 852q4 8 11.5 29.5t9.5 27.5q4 10 7 31t7 47q4 23 9.5 48.5t9.5 50t8 48t8 44.5q4 18 7 33.5t5 25.5l31 61h494v-14l34 -33q0 -14 2.5 -43.5t5.5 -67.5t6 -80t7 -83q6 -82 11 -154.5t9 -101.5v-62q0 -12 1 -24t1 -25v-37q0 -18 -8 -67t-23.5 -110.5t-37 -128t-47 -122 t-54 -91.5t-59.5 -36q-23 0 -35 13l-28 28q-20 6 -29 25l-23 37q-10 -10 -13 -31.5t-7 -44.5q-4 -39 -17.5 -75t-56.5 -52l-35 35q-4 0 -6 -2l-41 41q0 12 -2 41.5t-5 62.5t-7 62.5t-6 42.5q-4 23 -15.5 39t-27.5 32l-8 9q-29 29 -48.5 57.5t-23.5 71.5zM45 842l21 -430 q2 -35 20 -59.5t39.5 -47t40 -45t22.5 -53.5q2 -12 6.5 -41t7.5 -61.5t5 -61.5t2 -41l20 -20q27 10 35 43.5t13.5 70.5t15.5 65.5t41 28.5q4 0 11 -1t7 -3l62 -102q4 -4 18 -4q29 0 55.5 35t49 88t42 116.5t34 123t21.5 106.5t7 65v37q0 23 -1 46.5t-1 39.5v23 q-2 29 -8 101.5t-12.5 154.5t-12.5 154.5t-8 101.5h-451l-20 -41q-4 -18 -12.5 -65.5t-18.5 -99.5t-18 -98t-12 -65q-2 -8 -9.5 -31.5t-11.5 -29.5zM117 1448v182h231v-12l14 -14v26h242v-12l35 -35v-180q-8 -8 -16.5 -15.5t-12.5 -11.5t-5 -6t-3 -12v-27l-115 -8 q-25 0 -34 10l-27 27q-23 4 -28 18.5t-7 36.5q-2 6 -3 13.5t-5 15.5v-64q-12 -18 -21.5 -23t-19.5 -5h-4v-17l-109 -8q-29 0 -36 8l-29 27q-18 4 -21.5 15.5t-3.5 27.5q0 6 -3 15.5t-19 27.5zM125 272l14 -14l-7 7zM143 1458q16 -18 19.5 -30.5t3.5 -22.5q0 -8 3 -12t19 -4 l88 6v8v8q2 12 5.5 11t8.5 -5t13 -4t19 14v177h-179v-146zM225 754q0 14 2 56t7.5 85t14.5 77t21 34h185q2 0 5 -12.5t6 -32t5 -41t2 -39.5v-17q0 -14 1 -32.5t1 -38.5v-29q0 -31 -2 -75t-14.5 -84t-38 -67.5t-70.5 -27.5t-69.5 26.5t-37 64.5t-15.5 80t-3 73zM287 713 q0 -35 2 -81t18 -83q18 -12 43 -12q37 0 56.5 24.5t28.5 60t11.5 74.5t2.5 68v29q0 6 -1.5 11t-1.5 11v66q0 23 -1 34t1 29h-135q-6 0 -11 -30.5t-8 -70.5t-4 -78t-1 -52zM389 1479q18 -16 22.5 -32.5t6.5 -31t6 -23t22 -8.5l95 7v6v6q4 23 9 25t28 24v152h-189v-125z M436 33q0 -2 2 -2z" />
<glyph unicode="&#xd7;" horiz-adv-x="657" d="M25 995h258l2 -16l32 -31l15 -69l41 116h184l70 -2v-12l35 -35v-22q0 -8 -13.5 -33t-32.5 -53l-2 -2q-23 -35 -41 -67t-18 -34q0 -16 -14.5 -55t-28.5 -74h-2q-4 -12 -7 -22.5t-7 -16.5q23 -14 38 -28.5t17 -24.5l24 -25q10 -10 11 -18v-2q0 -12 3 -33.5t8 -49.5 t11 -57.5t13 -58.5q8 -35 13 -63.5t7 -46.5q0 -14 -9 -24.5t-24 -22.5q-16 -12 -37.5 -38t-48.5 -98l-37 35q-2 -4 -2 -6t-2 -6q-23 53 -35 84t-22 54.5t-23.5 47t-35.5 64.5q18 4 21 10t3 10q0 6 -1 13.5t-1 11.5v8l-14 33l-11 -37l-10 -223l-35 28l-38 31v-24l6 -7 q-4 -47 -6.5 -72.5t-8.5 -37.5t-17 -14.5t-32 -2.5q-18 0 -39 17l-24 22q-12 6 -23 17q-12 39 -28.5 64.5t-28.5 43.5l-4 4q-8 12 -11 15q-18 25 -18 41q2 20 7 49t14 63q12 55 22 113.5t12 83.5q0 12 10.5 23.5t22.5 23.5h6q4 6 9.5 15.5t13.5 19.5l-2 2l8 22 q-12 25 -31.5 67t-39 85t-34 79t-14.5 46q0 8 -5 22.5t-11 24.5v-2q-4 8 -6 27.5t-2 29.5zM51 969q0 -6 12.5 -31t12.5 -45q0 -10 16.5 -48t37 -83t40.5 -87t29 -59l-13 -30q-4 -2 -14 -18.5t-10 -18.5t-6 -7t-13.5 -12.5l-12.5 -12.5t-3 -7q0 -20 -8 -64.5t-17.5 -92.5 t-18.5 -92t-11 -62q0 -6 9 -19.5t22.5 -33t28.5 -44t26 -53.5q20 -16 33.5 -7t19.5 27.5t8 36.5l2 19q-4 0 -4 18q0 27 4 70t10 72q14 -29 24.5 -49.5t10.5 -16.5l-10 -29l37 -30l8 186l39 137h4l70 -174q0 -2 1 -13t1 -26q0 -12 -1 -24.5t-7 -14.5l24 -46q25 -46 49 -109 q10 29 27.5 49t33 33.5t27 22.5t11.5 18q-2 18 -11.5 62t-18.5 92t-17.5 92t-8.5 65q2 2 -10 12t-28.5 20.5t-31 20.5t-14.5 12q0 4 -4 13.5t-4 13.5t9.5 27.5t21.5 53.5t21.5 56.5t9.5 36.5q0 8 18 40t39.5 64.5t37 59.5t11.5 27l-43 2h-166l-82 -234l-49 234h-209z M637 946l25 -22l-23 22h-2z" />
<glyph unicode="&#xd8;" horiz-adv-x="714" d="M29 459v370q0 113 12 227.5t59 235.5l43 2h205q68 0 128.5 -5t139.5 -19v-13l35 -34q0 -29 2 -37q0 -18 6 -31q23 -137 39.5 -275.5t16.5 -291.5q0 -16 -4 -68.5t-10.5 -120t-14.5 -143.5t-16 -140.5t-16.5 -109.5t-12.5 -53q-23 2 -37 16l-24 25q-4 2 -8.5 4t-8.5 4 q0 -4 1 -11t1 -14v-43h-67l-35 35h-12v72q-14 -8 -35 -8q-29 0 -49 20l-5 4v-133l-34 35v-18l-13 20q-4 -51 -6 -78.5t-6 -41t-12 -15.5t-23 -2q-14 0 -24 10l-27 27q-14 2 -33 30q-8 47 -17 75t-17 48l-3 6q0 4 -2 9q-16 45 -16 59v8q4 20 6 29q-2 2 -2 4l-20 21 q-12 4 -25.5 17t-26 42t-20.5 76t-10 121zM55 459l2 -53q2 -78 10.5 -123t18.5 -70t21.5 -32t21.5 -7q8 0 15.5 2t11.5 2q10 0 10 -18q0 -10 -2 -26.5t-8 -43.5v-2q0 -16 20.5 -66.5t34.5 -121.5q8 -14 16 -15q10 0 16.5 29t8.5 53.5t2 28.5q-2 2 -2 33v41t1 47t3 46.5 t4 39.5q10 -37 16.5 -63.5t6.5 -22.5l-7 -35l25 -41v170q2 -16 7 -36.5t13.5 -38t21.5 -30t32 -12.5q16 0 26.5 7.5t19.5 16.5t18.5 17t25.5 8q12 0 12 -4v-143h27q0 10 -1 26.5t-1 36.5q0 25 1 51.5t6 50t14 40t26 20.5q2 -6 5 -23.5t6 -38t6 -38t3 -23.5t-1 -18t-1 -27 q0 -12 5.5 -23.5t17.5 -13.5q4 6 11 50.5t13.5 107t13.5 135t13 138t9 115.5t3 67q0 147 -17.5 287.5t-39.5 283.5q-2 10 -3 22.5t-3 22.5q-74 12 -128 17.5t-114 5.5h-115h-88l-26 -2q-41 -104 -52.5 -215t-11.5 -222v-202v-168zM240 709v112q0 63 20.5 116.5t87.5 61.5 l-37 -215q-27 -59 -43 -99t-26 -69v17zM352 506q29 98 53.5 177t24.5 153q0 10 9.5 41.5t19.5 68.5q14 -35 14 -94l-4 -111v-8q0 -33 -2 -71.5t-13.5 -72.5t-35 -57.5t-66.5 -25.5z" />
<glyph unicode="&#xd9;" horiz-adv-x="677" d="M41 870v70q0 35 1 102.5t3 124.5q0 23 1 41.5t1 30.5v18l37 37h231v-12l35 -35v-631q10 4 22 10l13 7v661h211l37 -37v-8l35 -35v-32q0 -14 -1 -31.5t-1 -36.5q0 -18 1 -35.5t1 -31.5v-21l20 -41q0 -8 -7 -24.5t-13 -26.5q0 -35 -3 -107.5t-6.5 -152.5t-6.5 -149.5 t-5 -98.5q-4 -59 -18.5 -94t-32.5 -54.5t-41 -26.5t-45.5 -13.5t-40.5 -13.5t-28.5 -29.5t-15.5 -65.5t-9 -90q-4 -59 -17.5 -113.5t-52.5 -93.5l-37 37q-6 -2 -8 -8l-41 237h-12q-6 0 -15 2l-2 2q-8 4 -10 7l-2 2q-2 0 -2 2q-4 2 -10 8v-103h-51l-35 35h-6q-10 0 -20.5 47 t-21 113t-17.5 136.5t-9 117.5v22q0 16 -1 43t-1 60q0 43 -1 93t-2 97t-1 88zM68 940q0 -41 1 -115.5t2 -149.5t2 -134.5t1 -71.5q2 -43 7 -109.5t11 -129t12.5 -106.5t10.5 -44h30v123q4 -6 24.5 -21.5t27.5 -19.5l4 -1q4 -1 6 -1t6 1l4 1l21 20l4 1q4 1 6 1t6 -1l4 -1 q4 -2 12.5 -9t8.5 -11l40 -246q14 14 21.5 56t11.5 93.5t10.5 100.5t18.5 78q16 39 48 46t64.5 17t59.5 42t33 120q2 29 6 101.5t7 153.5t5 153.5t2 103.5q4 4 12.5 19.5t8.5 21.5l-21 41q0 10 -1 36.5t-1 55.5t1 55.5t1 36.5l-20 21h-174v-635q0 -4 -19.5 -19.5 t-32.5 -21.5l-4 -1t-6 -1t-6 1l-4 1q-10 6 -30.5 21.5t-20.5 19.5v635h-195l-20 -21q0 -8 -1 -47t-2 -88t-2 -97t-1 -75zM125 1618h246l18 -27l21 -20l106 -158q-23 -23 -26 -33t-3 -18q0 -25 -5 -31t-40 -6l-59 8l-25 25q-8 4 -10 8h-2l-10 2v10l-10 8q-18 4 -29 23z M180 1591l137 -166q8 -12 21 -12q8 0 11 4t7 4q2 0 6 -12v-16l41 -7q16 0 19.5 3.5t3.5 13.5t3 22.5t20 30.5l-91 135h-178z" />
<glyph unicode="&#xda;" horiz-adv-x="677" d="M41 870v70q0 35 1 102.5t3 124.5q0 23 1 41.5t1 30.5v18l37 37h231v-12l35 -35v-631q10 4 22 10l13 7v661h211l37 -37v-8l35 -35v-32q0 -14 -1 -31.5t-1 -36.5q0 -18 1 -35.5t1 -31.5v-21l20 -41q0 -8 -7 -24.5t-13 -26.5q0 -35 -3 -107.5t-6.5 -152.5t-6.5 -149.5 t-5 -98.5q-4 -59 -18.5 -94t-32.5 -54.5t-41 -26.5t-45.5 -13.5t-40.5 -13.5t-28.5 -29.5t-15.5 -65.5t-9 -90q-4 -59 -17.5 -113.5t-52.5 -93.5l-37 37q-6 -2 -8 -8l-41 237h-12q-6 0 -15 2l-2 2q-8 4 -10 7q-2 0 -2 2l-2 2q-4 2 -10 8v-103h-51l-35 35h-6q-10 0 -20.5 47 t-21 113t-17.5 136.5t-9 117.5v22q0 16 -1 43t-1 60q0 43 -1 93t-2 97t-1 88zM68 940q0 -41 1 -115.5t2 -149.5t2 -134.5t1 -71.5q2 -43 7 -109.5t11 -129t12.5 -106.5t10.5 -44h30v123q4 -6 24.5 -21.5t27.5 -19.5l4 -1q4 -1 6 -1t6 1l4 1l21 20l4 1q4 1 6 1t6 -1l4 -1 q4 -2 12.5 -9t8.5 -11l40 -246q14 14 21.5 56t11.5 93.5t10.5 100.5t18.5 78q16 39 48 46t64.5 17t59.5 42t33 120q2 29 6 101.5t7 153.5t5 153.5t2 103.5q4 4 12.5 19.5t8.5 21.5l-21 41q0 10 -1 36.5t-1 55.5t1 55.5t1 36.5l-20 21h-174v-635q0 -4 -19.5 -19.5 t-32.5 -21.5l-4 -1t-6 -1t-6 1l-4 1q-10 6 -30.5 21.5t-20.5 19.5v635h-195l-20 -21q0 -8 -1 -47t-2 -88t-2 -97t-1 -75zM180 1452l113 164h246l-9 -10l37 -37l-164 -199q-16 -20 -36 -20h-5v-19l-59 -8q-33 0 -39 6l-31 29q-16 4 -19 12t-3 31q0 6 -4 16t-27 35zM215 1454 q16 -18 19.5 -30.5t3.5 -22.5t3 -13.5t19 -3.5l41 7v16q2 12 6 12t7 -4t12 -4q10 0 20 12l137 166h-178z" />
<glyph unicode="&#xdb;" horiz-adv-x="677" d="M41 870v70q0 35 1 102.5t3 124.5q0 23 1 41.5t1 30.5v18l37 37h231v-12l35 -35v-631q10 4 22 10l13 7v661h211l37 -37v-8l35 -35v-32q0 -14 -1 -31.5t-1 -36.5q0 -18 1 -35.5t1 -31.5v-21l20 -41q0 -8 -7 -24.5t-13 -26.5q0 -35 -3 -107.5t-6.5 -152.5t-6.5 -149.5 t-5 -98.5q-4 -59 -18.5 -94t-32.5 -54.5t-41 -26.5t-45.5 -13.5t-40.5 -13.5t-28.5 -29.5t-15.5 -65.5t-9 -90q-4 -59 -17.5 -113.5t-52.5 -93.5l-37 37q-6 -2 -8 -8l-41 237h-12q-6 0 -15 2l-2 2q-8 4 -10 7q-2 0 -2 2q-2 0 -2 2q-4 2 -10 8v-103h-51l-35 35h-6 q-10 0 -20.5 47t-21 113t-17.5 136.5t-9 117.5v22q0 16 -1 43t-1 60q0 43 -1 93t-2 97t-1 88zM68 940q0 -41 1 -115.5t2 -149.5t2 -134.5t1 -71.5q2 -43 7 -109.5t11 -129t12.5 -106.5t10.5 -44h30v123q4 -6 24.5 -21.5t27.5 -19.5l4 -1q4 -1 6 -1t6 1l4 1l21 20l4 1 q4 1 6 1t6 -1l4 -1q4 -2 12.5 -9t8.5 -11l40 -246q14 14 21.5 56t11.5 93.5t10.5 100.5t18.5 78q16 39 48 46t64.5 17t59.5 42t33 120q2 29 6 101.5t7 153.5t5 153.5t2 103.5q4 4 12.5 19.5t8.5 21.5l-21 41q0 10 -1 36.5t-1 55.5t1 55.5t1 36.5l-20 21h-174v-635 q0 -4 -19.5 -19.5t-32.5 -21.5l-4 -1t-6 -1t-6 1l-4 1q-10 6 -30.5 21.5t-20.5 19.5v635h-195l-20 -21q0 -8 -1 -47t-2 -88t-2 -97t-1 -75zM109 1448l108 164l154 6l71 -14l17 -27l22 -21l105 -155q-23 -23 -26 -36t-3 -24l-14 -14q-16 0 -33 16l-6 7v-2l-21 18h-4l-14 -18 q-8 -8 -10 -9.5t-11 -1.5q-14 0 -22 11l-25 24q-14 2 -30 25l-7 6l-28 -37q-16 -20 -37 -20h-4v-19l-60 -8q-33 0 -38 6l-31 29q-16 4 -19.5 12t-3.5 31q0 6 -4 16t-26 35zM143 1450q16 -18 19.5 -30.5t3.5 -22.5t3 -13.5t19 -3.5l41 6v17q2 12 7 12q4 0 7 -4t11 -4 q10 0 20 12l54 64l59 -70q14 -18 21 -12l28 35q8 0 18.5 -9.5t19.5 -18.5l15.5 -15.5t6.5 -1.5q0 10 3 22t19 31l-90 135l-63 12l-132 -6z" />
<glyph unicode="&#xdc;" horiz-adv-x="677" d="M41 870v70q0 35 1 102.5t3 124.5q0 23 1 41.5t1 30.5v18l37 37h231v-12l35 -35v-631q10 4 22 10l13 7v661h211l37 -37v-8l35 -35v-32q0 -14 -1 -31.5t-1 -36.5q0 -18 1 -35.5t1 -31.5v-25l1 -2t3 -4q0 -2 2 -2q4 -10 9 -22l5 -11q0 -8 -7 -23.5t-13 -25.5 q0 -35 -3 -106.5t-6.5 -151.5t-6.5 -149.5t-5 -98.5q-4 -59 -18.5 -94t-32.5 -54.5t-41 -26.5t-45.5 -13.5t-40.5 -13.5t-28.5 -29.5t-15.5 -65.5t-9 -90q-4 -59 -17.5 -113.5t-52.5 -93.5l-37 37q-6 -2 -8 -8l-41 237h-12q-6 0 -15 2l-2 2q-8 4 -10 7q-2 0 -2 2q-2 0 -2 2 q-4 2 -10 8v-103h-51l-35 35h-6q-10 0 -20.5 47t-21 113t-17.5 136.5t-9 117.5v22q0 16 -1 43t-1 60q0 43 -1 93t-2 97t-1 88zM68 940q0 -41 1 -115.5t2 -149.5t2 -134.5t1 -71.5q2 -43 7 -109.5t11 -129t12.5 -106.5t10.5 -44h30v123q4 -6 24.5 -21.5t27.5 -19.5l4 -1 q4 -1 6 -1t6 1l4 1l21 20l4 1q4 1 6 1t6 -1l4 -1q4 -2 12.5 -9t8.5 -11l40 -246q14 14 21.5 56t11.5 93.5t10.5 100.5t18.5 78q16 39 48 46t64.5 17t59.5 42t33 120q2 29 6 101.5t7 153.5t5 153.5t2 103.5q4 4 12.5 19.5t8.5 21.5q0 4 -10.5 20.5t-10.5 20.5q0 10 -1 36.5 t-1 55.5t1 55.5t1 36.5l-20 21h-174v-635q0 -4 -19.5 -19.5t-32.5 -21.5l-4 -1q-4 -1 -6 -1t-6 1l-4 1q-10 6 -30.5 21.5t-20.5 19.5v635h-195l-20 -21q0 -8 -1 -47t-2 -88t-2 -97t-1 -75zM80 1448v182h231v-12l15 -14v26h241v-12l35 -35v-180q-8 -8 -16 -15.5t-12.5 -11.5 t-5.5 -6t-3 -12v-27l-114 -8q-25 0 -35 10l-27 27q-23 4 -28 18.5t-7 36.5q-2 6 -3 13.5t-5 15.5v-64q-12 -18 -21.5 -23t-19.5 -5h-4v-17l-108 -8q-29 0 -37 8l-29 27q-18 4 -21.5 15.5t-3.5 27.5q0 6 -3 15.5t-19 27.5zM106 1458q16 -18 19.5 -30.5t3.5 -22.5q0 -8 3 -12 t20 -4l88 6v8v8q2 12 5 11t8 -5t13 -4t19 14v177h-179v-146zM352 1479q18 -16 22.5 -32.5t6.5 -31t6 -23t23 -8.5l94 7v6v6q4 23 9 25t28 24v152h-189v-125z" />
<glyph unicode="&#xdd;" horiz-adv-x="661" d="M14 1260q0 10 3 19t24 11l43 4h199l4 -16l30 -31l29 -121l25 168h268v-12l35 -35q0 -18 -5 -55t-14 -80q-6 -35 -13 -73t-12 -70.5t-9.5 -57t-4.5 -30.5q0 -23 -24.5 -79.5t-52.5 -117.5q-16 -33 -27.5 -57.5t-22.5 -59.5l11 -37q0 -8 10 -24q4 -10 9 -20.5t5 -14.5 t-2 -18.5t-4 -33t-6 -39t-6 -32.5h2q0 -53 -6 -96q-4 -23 -6 -41t-2 -41q0 -6 1 -13t1 -16q0 -16 -8.5 -31.5t-20.5 -39.5q-12 -27 -28.5 -62t-32.5 -92q-27 -27 -44 -27q-14 0 -20 9l-27 26q-23 4 -28.5 25.5t-5.5 50.5v25q0 10 2 26l-37 37l-10 -10l-11 344l23 49l-6 186 q-41 92 -77 176.5t-69 182.5h2q-4 10 -10 28.5t-16 40.5q-6 18 -13.5 34t-13.5 32q-12 29 -21.5 54.5t-9.5 54.5zM43 1264q-6 0 5 -34t26.5 -77t31 -83t19.5 -54q31 -94 66.5 -177t76.5 -175l6 -197l-22 -51l8 -273l39 43l2 37q0 -4 -6 27t8 72q23 -6 31 -41t6 -76t-10 -77 t-17 -42l-3 -28q-3 -29 -3 -58t7.5 -44t29.5 9q25 84 57.5 140.5t32.5 76.5q-4 57 4 102.5t8 104.5q2 2 5.5 20.5t5.5 40t4 40t2 22.5l-3 8q-3 8 -8.5 17.5t-9.5 17.5t-4 10l-12 43q8 25 29.5 71t43 95t39 91t17.5 57q0 14 9 68t19.5 113.5t19.5 109t9 55.5h-217l-51 -342 l-84 342h-174zM180 1452l113 164h246l-9 -10l37 -37l-164 -199q-16 -20 -36 -20h-5v-19l-59 -8q-33 0 -39 6l-31 29q-16 4 -19 12t-3 31q0 6 -4 16t-27 35zM215 1454q16 -18 19.5 -30.5t3.5 -22.5t3 -13.5t19 -3.5l41 7v16q2 12 6 12t7 -4t12 -4q10 0 20 12l137 166h-178z M285 229l10 -2q8 8 12 15q-12 -8 -22 -13z" />
<glyph unicode="&#xde;" horiz-adv-x="626" d="M14 1300l11 -278q0 -31 1 -93.5t2 -142t4 -167t5 -167t4 -142t4 -91.5l2 -6q4 -10 10 -36.5t9 -37.5q2 -16 6 -57t7 -88t5 -90t2 -62h12l35 -35l39 -4q23 88 39 172t22 168q57 10 74 25.5t17 42.5v12q0 8 -2 15q-2 10 -3 20v23v8q25 0 53.5 -16.5t69.5 -45.5q0 14 1 28.5 t3 18.5q2 10 6.5 25.5t10.5 24.5l31 -29q10 8 25.5 18.5t27.5 18.5h2q31 18 57.5 42.5t26.5 65.5v637l-35 35v12l-291 -26l-2 155l-35 35v12h-256zM41 1274h203l4 -207l323 29v-615q0 -23 -11 -38t-27.5 -27.5t-35 -23.5t-34.5 -23q-2 4 -9.5 11t-11.5 9l-4 1q-4 1 -6 1 q-12 0 -21.5 -10t-15.5 -24.5t-9 -29t-5 -20.5q-29 20 -51.5 31.5t-50.5 11.5q-4 0 -11.5 -1t-9.5 -1q-4 -41 1 -65.5t2 -40t-20.5 -23.5t-66.5 -16q-6 -88 -22.5 -175t-38.5 -173q0 16 -2 57t-5.5 87t-7.5 86t-6 56q-2 10 -9 41t-11 41q-2 29 -4 91.5t-4.5 141.5t-5.5 166 t-4 165.5t-2 142t-1 92.5zM244 643q0 -37 7 -59.5t48 -22.5q55 0 79.5 26.5t33 66.5t6.5 87t-2 88h-152l-3 -18t-6 -45t-6 -54.5t-5 -45.5v-23zM305 588v35q2 16 2 41v47v41t-2 16h86v-12q0 -6 1 -12.5t1 -12.5q0 -53 -16.5 -97t-71.5 -46z" />
<glyph unicode="&#xdf;" horiz-adv-x="782" d="M35 1130l158 152l12 12h454l70 -69v-8l35 -35l4 -365q0 -41 -39 -112l35 -68l2 -2q16 -31 23.5 -68t7.5 -75q0 -55 -13.5 -107.5t-34 -94.5t-44 -67.5t-41.5 -25.5q-10 0 -17.5 5t-13.5 11l-15 14q-10 -4 -29.5 -18t-39.5 -31q-10 -10 -17.5 -17t-13.5 -11q2 -29 3 -50.5 t1 -42.5q0 -59 -12 -84.5t-33 -25.5q-10 0 -22 12l-23 23q-29 4 -51.5 52t-28.5 111q-2 10 -8 38t-10 40q-2 14 -3 40t-3 56l-25 15l27 98v-22l18 73h37l2 -2q8 -4 19 -4q8 0 16 1t16 1h19q35 0 51 14.5t20 32.5q-2 0 -3 1l-1 1v11q0 16 -5 28.5t-9 12.5l-1 -4q-1 -5 -7 -11 l-6 -6l-15 14h-10q-10 8 -18.5 17.5t-14.5 17.5l-55 2l-6 6l-37 121l2 127l92 -30h55q27 4 35 23.5t8 45.5q0 10 -1 23.5t-3 27.5q0 2 -1 3t-1 6h-6q-2 8 -2 16v18h-112q-10 -2 -41 -5t-78 -3l16 -1073q-37 -16 -50 -57t-22 -82q-8 -47 -20 -82t-47 -35h-6h-4l-21 21 q-6 55 -30.5 109t-51.5 97l-10 1241l156 150l10 10h450l41 -41h-450l-10 -10l-156 -150l10 -1241q23 -37 45.5 -84t32.5 -96q29 4 38 38t17 75t21.5 83t50.5 58l-16 1055l-21 20l21 21l20 -21q37 0 63.5 2t36.5 4v3h123v20l62 -61h-21q0 -12 1 -24.5t3 -25.5q2 -14 3 -27.5 t1 -23.5q0 -27 -8 -46t-37 -23h-49l2 -2l-98 32l-2 -127l25 -82h34l-2 2q-2 2 -2 9v2l41 -41v-6l8 -7h-2v-2q4 -2 5 -3t6 -3q14 20 16 21q4 0 8 -4l41 -41q12 -12 12 -43q0 -23 -16 -41.5t-57 -18.5h-19q-8 0 -16 -1t-17 -1q-10 0 -18 4l-2 2h-37l-33 -129l19 -16l10 -18 l-10 6q4 -72 6 -101q4 -10 10 -39.5t8 -40.5q4 -35 13.5 -64.5t21.5 -51.5h2q20 0 32.5 25.5t12.5 84.5v29q0 16 -2 35l-24 24l20 23l10 -10q4 4 9.5 9t13.5 11q20 16 39.5 30.5t30.5 18.5h2l1 -1t5 -1l26 -28h11q18 0 41.5 25.5t44 67.5t34 94t13.5 107q0 37 -6.5 73 t-22.5 65l-25 49l-18 18v19l6 -8q16 35 26.5 63.5t10.5 46.5l-4 365l6 -6l4 -359q0 -41 -39 -113l35 -65q18 -33 25.5 -71t7.5 -77q0 -55 -14.5 -109t-36 -96t-45 -69t-43.5 -27q-12 0 -20.5 6.5t-16.5 14.5l-6 10q-6 0 -27 -15.5t-41 -31.5l-29 -29q2 -29 3 -51t1 -37 q0 -63 -14 -89.5t-37 -26.5h-4l-18 18q-18 18 -35 58t-21 87l-8 40t-10 40q-2 27 -6 88l-4 4v-63l8 -375q-37 -16 -50.5 -58t-21.5 -83q-8 -45 -18 -79t-43 -34h-6q-8 0 -11.5 2t-13.5 13l-20 20q-8 0 -27 18q-6 53 -30.5 107.5t-51.5 97.5zM61 1120l11 -1226 q27 -43 51 -97.5t31 -107.5q2 0 5 -1t5 -1q20 0 28.5 33.5t16.5 77.5t21.5 84t45.5 52l-16 1082q59 -2 101 3t45 5h139q0 -37 4 -73t3 -64.5t-14.5 -48t-48.5 -25.5h-55l-72 25l-2 -95l33 -106l51 -2q12 0 13 -8q0 -4 11 -14.5t21 -18.5q20 23 39 4.5t22 -49.5t-16.5 -60.5 t-76.5 -29.5q-8 0 -22.5 -1t-28.5 -1t-25.5 3t-13.5 11l-31 -123l18 -10q4 -76 6 -109q4 -10 10.5 -40.5t8.5 -41.5q4 -51 20.5 -92t33 -46t25.5 38t-3 160q2 -4 17 9t35.5 28.5t41 30t31.5 14.5q2 0 6 -1l4 -1q4 -2 10 -9.5t8 -11.5q12 -14 30.5 -2t37 42t34 74t22.5 93 t2 99.5t-27 93.5l-41 82q18 35 29.5 64.5t11.5 45.5l-5 356l-53 54h-434l-4 -4zM322 954l8 -522l14 57h45q2 -6 17 -6h16q4 0 8 1t8 1h19q35 0 49 13.5t18 29.5q-16 12 -24 27l-4 4l-2 -2q-6 4 -23 16l-53 2l-35 35h-10l-39 125l2 137l100 -32h49q25 4 33 21.5t8 41.5 q0 10 -1 23.5t-3 27.5q0 2 -1 3t-1 6h-74q-10 -2 -42.5 -5.5t-79.5 -3.5h-2z" />
<glyph unicode="&#xe0;" horiz-adv-x="716" d="M14 94v117l23 76q-2 14 -4 31.5t-4 33.5q-6 33 -6 66v31q0 27 13 100.5t36.5 167.5t52.5 196.5t58.5 186.5t59 139t52.5 55h229q4 -2 7.5 -4t19.5 -16l10 -10q4 -8 10.5 -14.5t10.5 -14.5l16 -16q43 -55 68.5 -127t39 -151t17.5 -162t4 -161v-215q0 -16 -1 -34.5 t-1 -34.5v-111q0 -4 -1 -20.5t-3 -39t-5 -45t-5 -36.5q0 -27 -11 -27q-10 0 -26 17l-21 18h-2q-4 -23 -6 -43t-2 -29h-57l-35 35h-10q2 -4 -2 8.5t-8.5 20.5t-7.5 19.5t-5 21.5q-10 35 -20.5 75t-10.5 64q0 33 21 45q8 12 8 25q0 18 -6 37l-221 10l-31 -367q-33 0 -50.5 6.5 t-27.5 16.5l-24 22q-2 0 -11 4v-8q0 -12 2.5 -20t2.5 -17v-18q0 -20 -10.5 -35.5t-41.5 -19.5l-37 37q-2 0 -3 -1.5t-3 -1.5l-39 43v37q0 10 -1 18.5t-1 18.5zM41 160q0 -31 1 -65t1 -64l23 -25q23 4 23.5 23.5t-2.5 42t0 41t30 18.5q14 0 19 -9t10.5 -19.5t15.5 -19.5 t37 -9l30 368l256 -12q14 -2 28.5 -20.5t23 -42t5.5 -47t-22 -35.5q-10 -6 -6 -35t13.5 -62.5t20.5 -64.5t13 -43h21q0 6 2 20.5t5 30.5t6 30.5t7 20.5q0 2 7 -8t16.5 -22.5t16.5 -21.5t7 -7q2 2 5 23.5t5.5 46t3.5 46t1 25.5v43q0 33 1 69t1 68v45q0 84 1 186.5t-9.5 206 t-36 199t-80.5 166.5q-4 4 -11.5 12.5t-9.5 8.5h-225q-20 0 -47 -53.5t-54.5 -135.5t-53 -180t-46 -189.5t-33 -163t-12.5 -97.5v-31q0 -25 7 -66t7 -76l-22 -73v-43zM160 1612h246l18 -27l20 -20l107 -158q-23 -23 -26 -33t-3 -18q0 -25 -5 -31t-40 -6l-59 8l-25 25 q-8 4 -10 8h-2l-10 2v10l-11 8q-18 4 -28 23zM215 1585l137 -166q8 -12 21 -12q8 0 11 4t7 4q2 0 6 -12v-17l41 -6q16 0 19.5 3t3.5 14q0 10 3 22.5t19 30.5l-90 135h-178zM315 735q6 18 12.5 49t16.5 62t25.5 53.5t38.5 22.5q2 0 5 -1t5 -1q25 -35 48 -86.5t23 -98.5h-174z M395 762h64q-4 23 -12.5 45.5t-18.5 42.5q-12 -14 -19.5 -38t-13.5 -50z" />
<glyph unicode="&#xe1;" horiz-adv-x="716" d="M14 94v117l23 76q-2 14 -4 31.5t-4 33.5q-6 33 -6 66v31q0 27 13 100.5t36.5 167.5t52.5 196.5t58.5 186.5t59 139t52.5 55h70q-14 0 -17 6l-31 29q-16 4 -19 12.5t-3 30.5q0 6 -4 16.5t-27 34.5l113 164h246l-9 -10l37 -37l-164 -199q-16 -20 -36 -20h-5v-18l-59 -9h137 q4 -2 7.5 -4t19.5 -16l10 -10q4 -8 10.5 -14.5t10.5 -14.5l16 -16q43 -55 68.5 -127t39 -151t17.5 -162t4 -161v-215q0 -16 -1 -34.5t-1 -34.5v-111q0 -4 -1 -20.5t-3 -39t-5 -45t-5 -36.5q0 -27 -11 -27q-10 0 -26 17l-21 18h-2q-4 -23 -6 -43t-2 -29h-57l-35 35h-10 q2 -4 -2 8.5t-8.5 20.5t-7.5 19.5t-5 21.5q-10 35 -20.5 75t-10.5 64q0 33 21 45q8 12 8 25q0 18 -6 37l-221 10l-31 -367q-33 0 -50.5 6.5t-27.5 16.5l-24 22q-2 0 -11 4v-8q0 -12 2.5 -20t2.5 -17v-18q0 -20 -10.5 -35.5t-41.5 -19.5l-37 37q-2 0 -3 -1.5t-3 -1.5l-39 43 v37q0 10 -1 18.5t-1 18.5zM41 160q0 -31 1 -65t1 -64l23 -25q23 4 23.5 23.5t-2.5 42t0 41t30 18.5q14 0 19 -9t10.5 -19.5t15.5 -19.5t37 -9l30 368l256 -12q14 -2 28.5 -20.5t23 -42t5.5 -47t-22 -35.5q-10 -6 -6 -35t13.5 -62.5t20.5 -64.5t13 -43h21q0 6 2 20.5t5 30.5 t6 30.5t7 20.5q0 2 7 -8t16.5 -22.5t16.5 -21.5t7 -7q2 2 5 23.5t5.5 46t3.5 46t1 25.5v43q0 33 1 69t1 68v45q0 84 1 186.5t-9.5 206t-36 199t-80.5 166.5q-4 4 -11.5 12.5t-9.5 8.5h-225q-20 0 -47 -53.5t-54.5 -135.5t-53 -180t-46 -189.5t-33 -163t-12.5 -97.5v-31 q0 -25 7 -66t7 -76l-22 -73v-43zM299 1425q16 -18 19.5 -30.5t3.5 -22.5t3 -13t19 -3l41 6v16q2 12 6 13q4 0 7 -4.5t12 -4.5q10 0 20 13l137 166h-178zM315 735q6 18 12.5 49t16.5 62t25.5 53.5t38.5 22.5q2 0 5 -1t5 -1q25 -35 48 -86.5t23 -98.5h-174zM395 762h64 q-4 23 -12.5 45.5t-18.5 42.5q-12 -14 -19.5 -38t-13.5 -50z" />
<glyph unicode="&#xe2;" horiz-adv-x="716" d="M14 94v117l23 76q-2 14 -4 31.5t-4 33.5q-6 33 -6 66v31q0 27 13 100.5t36.5 167.5t52.5 196.5t58.5 186.5t59 139t52.5 55h229q4 -2 7.5 -4t19.5 -16l10 -10q4 -8 10.5 -14.5t10.5 -14.5l16 -16q43 -55 68.5 -127t39 -151t17.5 -162t4 -161v-215q0 -16 -1 -34.5 t-1 -34.5v-111q0 -4 -1 -20.5t-3 -39t-5 -45t-5 -36.5q0 -27 -11 -27q-10 0 -26 17l-21 18h-2q-4 -23 -6 -43t-2 -29h-57l-35 35h-10q2 -4 -2 8.5t-8.5 20.5t-7.5 19.5t-5 21.5q-10 35 -20.5 75t-10.5 64q0 33 21 45q8 12 8 25q0 10 -2 18t-6 19l-219 10l-31 -367 q-33 0 -50.5 6.5t-27.5 16.5l-24 22q-2 0 -11 4v-8q0 -12 2.5 -20t2.5 -17v-18q0 -20 -10.5 -35.5t-41.5 -19.5l-37 37q-2 0 -3 -1.5t-3 -1.5l-39 43v37q0 10 -1 18.5t-1 18.5zM41 160q0 -31 1 -65t1 -64l23 -25q23 4 23.5 23.5t-2.5 42t0 41t30 18.5q14 0 19 -9t10.5 -19.5 t15.5 -19.5t37 -9l30 368l256 -12q14 -2 28.5 -20.5t23 -42t5.5 -47t-22 -35.5q-10 -6 -6 -35t13.5 -62.5t20.5 -64.5t13 -43h21q0 6 2 20.5t5 30.5t6 30.5t7 20.5q0 2 7 -8t16.5 -22.5t16.5 -21.5t7 -7q2 2 5 23.5t5.5 46t3.5 46t1 25.5v43q0 33 1 69t1 68v45q0 84 1 186.5 t-9.5 206t-36 199t-80.5 166.5q-4 4 -11.5 12.5t-9.5 8.5h-225q-20 0 -47 -53.5t-54.5 -135.5t-53 -180t-46 -189.5t-33 -163t-12.5 -97.5v-31q0 -25 7 -66t7 -76l-22 -73v-43zM172 1440l109 164l153 6l72 -15l16 -26l23 -21l104 -155q-23 -23 -25.5 -36.5t-2.5 -23.5 l-15 -14q-16 0 -33 16l-6 6v-2l-20 19h-4l-15 -19q-8 -8 -10 -9t-10 -1q-14 0 -23 10l-24 25q-14 2 -31 25l-6 6l-29 -37q-16 -20 -37 -21h-4v-18l-59 -8q-33 0 -39 6l-31 29q-16 4 -19 12t-3 31q0 6 -4 16t-27 35zM207 1442q16 -18 19 -30.5t3 -22.5t3.5 -13.5t19.5 -3.5 l41 6v17q2 12 6 12t7 -4t11 -4q10 0 21 12l53 64l60 -70q14 -18 20 -12l29 34q8 0 18 -9t19.5 -18t15.5 -15.5t6 -2.5q0 10 3 22.5t20 31.5l-90 135l-64 12l-131 -6zM315 735q6 18 12.5 49t16.5 62t25.5 53.5t38.5 22.5q2 0 5 -1t5 -1q25 -35 48 -86.5t23 -98.5h-174z M395 762h64q-4 23 -12.5 45.5t-18.5 42.5q-12 -14 -19.5 -38t-13.5 -50z" />
</font>
</defs>
</svg>
