<?xml version="1.0" standalone="no"?>
<!DOCTYPE svg PUBLIC "-//W3C//DTD SVG 1.1//EN" "http://www.w3.org/Graphics/SVG/1.1/DTD/svg11.dtd" >
<svg xmlns="http://www.w3.org/2000/svg">
<metadata></metadata>
<defs>
<font id="dawning_of_a_new_dayregular" horiz-adv-x="724" >
<font-face units-per-em="2048" ascent="1638" descent="-410" />
<missing-glyph horiz-adv-x="1024" />
<glyph horiz-adv-x="0" />
<glyph unicode="&#xd;" horiz-adv-x="1406" />
<glyph unicode=" "  horiz-adv-x="1024" />
<glyph unicode="&#x09;" horiz-adv-x="1024" />
<glyph unicode="&#xa0;" horiz-adv-x="1024" />
<glyph unicode="!" horiz-adv-x="252" d="M64 1204q26 26 42 -2t26 -91t15 -150t6 -176t2 -170t3 -131v-36q0 -16 -4 -33t-28 -17q-22 0 -32 22q-4 18 -6 69t-4 118t-4 142t-4 141t-3 117t-3 73q0 6 -1 23t-2 38t-2 39t-1 24zM156 30q0 28 24 44t48 16v-23t-3 -31t-12 -27t-25 -11q-32 0 -32 32z" />
<glyph unicode="&#x22;" horiz-adv-x="440" d="M64 1102q0 16 8 29t26 13q24 0 38 -17t23 -41t12 -48t3 -40q0 -38 -4 -62t-22 -66l-8 -2q-12 0 -25 32t-24 72t-19 78t-8 52zM250 1124q0 20 16 37t34 17q38 0 55 -23t22 -55t4 -66t-1 -56v-18t-1 -24t-2 -21l-1 -9l-20 -24q-6 20 -24 52t-36 69t-32 71t-14 50z" />
<glyph unicode="#" horiz-adv-x="966" d="M74 514q0 38 28 59t59 36t59 32t28 47l-10 260q40 0 55 -13t19 -37q2 -12 5 -35t6 -50t6 -50t5 -33l60 15t70 23t57 36t23 50q0 34 -12 68t-12 72q0 36 16 45t50 -15l40 -148q2 -2 4 -2h4q46 0 86 14t82 14q0 -34 -27 -42t-61 -17t-62 -32t-28 -79v-29t2 -44t10 -40 t22 -17q22 0 57 10t73 25t74 29t60 22q30 -6 20 -19t-44 -30t-81 -35t-88 -36t-67 -31t-14 -19v-314h-42l-40 250q-20 6 -60 -6t-79 -29t-68 -33t-25 -16v-208l-52 -12q-2 8 -3 30t-2 48t-3 50t-4 32q-8 20 -29 21t-43 -1t-39 2t-17 30q0 8 15 18t33 17t36 12t22 5v168 q-2 -2 -22 -12t-47 -23t-56 -23t-49 -10zM334 454q34 8 74 21t75 34t59 54t24 83q-2 6 -5 20t-7 30t-7 32t-5 22q-18 0 -50 -13t-64 -32t-59 -40t-35 -41v-170z" />
<glyph unicode="$" horiz-adv-x="670" d="M44 294q10 42 35 93t42 92t51 74t70 41q14 -12 8 -38q-8 -30 -30 -60t-46 -60t-48 -61t-34 -73q-16 -52 9 -97t66 -71t85 -31t70 21q16 52 33 110t31 116t23 117t3 107q-24 22 -47 50t-40 61t-25 72t4 83q26 100 85 143t129 49q0 10 3 33t10 48t18 44t27 29h2q2 0 3 -1 t3 -1q8 -2 13 -7t5 -25q0 -8 -4 -33t-6 -58t-5 -62t-1 -37q0 -26 10 -47t18 -43t12 -47t-6 -61q-8 -28 -22 -44t-33 -30t-33 -26t-18 -32q-2 -6 17 -44t38 -93t29 -117t-8 -118q-38 -108 -94 -172t-138 -104l-78 -294q-4 -12 -15 -17t-21 -5q-14 -2 -30 4q26 148 48 222 t12 80q-30 14 -79 44t-92 73t-58 96t-1 107zM374 824q-6 -22 1 -42t19 -39t26 -33t24 -20l54 198q6 20 -8 29t-22 9q-14 6 -28 -4t-28 -25t-23 -35t-15 -38zM394 118l6 -6q22 -6 39 13t30 46t23 56t16 47q4 22 9 57t1 69t-14 60t-32 32q-24 -94 -44 -185t-34 -189zM530 760 l20 -6q6 18 9 42t-9 32z" />
<glyph unicode="%" horiz-adv-x="776" d="M40 870q0 34 15 61t37 48t50 31t54 10q8 0 26 1t33 -2t27 -12t12 -31q0 -34 -20 -38t-48 -3t-54 -5t-36 -46q26 -52 72 -51t96 27t98 65t78 65q22 -4 34 -16t8 -36l-262 -926q-18 -8 -34 -9t-24 18t-6 67t23 138t61 231t106 347h-12q-22 0 -42 -8t-42 -18t-42 -18t-44 -8 q-22 0 -51 7t-53 21t-42 37t-18 53zM430 272q30 102 73 154t88 63t87 -10t71 -61t40 -91t-7 -101t-68 -91t-144 -61q-84 0 -112 55t-28 143zM518 272q0 -18 1 -39t7 -39t20 -30t36 -12q88 26 120 70t27 87t-34 76t-66 38t-70 -29t-41 -122z" />
<glyph unicode="&#x26;" horiz-adv-x="684" d="M134 260q14 54 45 104t62 95t59 88t38 77q6 28 9 59t2 62t1 61t10 62q16 52 49 88t81 22q26 -6 42 -31t21 -59t2 -70t-11 -64q-14 -50 -45 -99t-61 -83q124 -22 175 -57t57 -83t-17 -109t-42 -128t-21 -141t46 -150l-22 -88l-102 196q-20 -14 -48 -27t-59 -24t-62 -16 t-51 1q-100 28 -146 107t-12 207zM188 248q-24 -86 8 -142t100 -74q14 -6 47 0t55 17t40 26t24 37q6 16 2 41t1 55t4 54t11 40q-18 -12 -31 -13t-29 5q-28 6 -29 38t5 66t-1 62t-27 34q-28 -12 -54 -44t-73 -112t-53 -90zM400 785q-2 -51 22 -85q52 20 61 39t15 43 q8 32 0 62t-54 60q-42 -68 -44 -119zM489 407q-1 -31 9 -67t27 -62t37 -36q4 10 12 37t28 75t-13 73t-91 39q-8 -28 -9 -59z" />
<glyph unicode="'" horiz-adv-x="208" d="M54 872q0 42 20 92t20 96q0 42 -12 69t-12 67q40 0 76 -34t32 -80q-4 -28 -11 -60t-20 -64t-31 -61t-42 -47q-4 0 -12 8t-8 14z" />
<glyph unicode="(" horiz-adv-x="622" d="M154 254q2 84 9 154t17 110q8 32 33 87t61 119t78 131t85 118t82 81t71 22q20 -6 36 -14t0 -42q-32 0 -70 -32t-76 -83t-75 -114t-66 -124t-52 -117t-33 -86q-24 -60 -28 -134t1 -153t21 -154t38 -134t41 -93t33 -30q-8 -44 -52 -32q-46 12 -76 64t-49 126t-25 160 t-4 170z" />
<glyph unicode=")" horiz-adv-x="582" d="M40 -182q12 50 25 62t29 11t35 -3t43 20q28 32 62 103t68 165t64 201t56 209t44 192t28 148q-6 98 -54 154t-138 80q12 46 39 54t65 -2q68 -18 104 -69t47 -115t4 -133t-21 -121q-2 -48 -15 -125t-36 -166t-52 -184t-65 -183t-77 -160t-82 -115t-86 -53t-87 30z" />
<glyph unicode="*" horiz-adv-x="612" d="M106 612q6 20 24 28t35 15t35 16t22 29q2 4 2 11t2 11q-36 30 -62 48t-39 36t-16 44t9 68q112 -30 170 -128q6 6 20 27t33 44t36 40t29 13q18 -6 30 -22t15 -38t4 -45t3 -39l106 -30q-10 -40 -28 -54t-38 -20t-35 -9t-19 -17l-54 -200l-64 16l-32 118q-18 0 -36 -11 t-34 -22t-33 -18t-31 -3q-26 6 -44 36t-10 56z" />
<glyph unicode="+" horiz-adv-x="918" d="M90 642l338 -90q20 84 32 154t32 144q6 20 21 23t33 -1q16 -6 30 -16t6 -40l-70 -262q6 0 26 -8t26 -10q18 -2 62 -8t94 -13t94 -11t64 -6q16 10 16 -8t-39 -34t-123 -22t-234 32l-80 -304h-76l84 312q-18 4 -57 12t-83 19t-82 21t-54 12q-38 16 -55 38t-5 66z" />
<glyph unicode="," horiz-adv-x="360" d="M189 -166q1 10 5 24l6 22q2 6 11 26t19 42t18 43t8 27q4 20 -3 43t-17 46t-18 45t-4 42q6 18 22 20t32 -2q26 -8 41 -32t18 -56t2 -65t-7 -55q-6 -24 -14 -53t-23 -56t-34 -48t-47 -31q-16 8 -15 18z" />
<glyph unicode="-" d="M108 536q0 22 7 31t20 11t28 1t31 -1q26 2 86 3t128 2t128 2t84 3h12q20 0 27 -13t7 -31t-8 -28t-38 -12l-488 -8q-18 -2 -21 15t-3 25z" />
<glyph unicode="." horiz-adv-x="274" d="M149 69q9 29 57 33q16 -6 33 -35t13 -47q-26 -44 -55 -38t-43 32t-5 55z" />
<glyph unicode="/" horiz-adv-x="976" d="M54 60q-2 2 1 7t23 33t67 89t138 170t234 271t353 398l6 4q6 -2 7 0t7 2q12 2 33 -2t13 -34q0 -4 -6 -17t-15 -22t-16 -20t-13 -13q-106 -98 -211 -207t-204 -223t-194 -235t-173 -239q0 -4 -2 -4l-6 -2q-18 -2 -29 11t-13 33z" />
<glyph unicode="0" horiz-adv-x="1026" d="M48 352q4 120 46 244q40 156 105 275t142 193t165 100t174 4q76 -20 137 -67t98 -123t39 -185t-40 -265q-44 -162 -115 -292t-159 -216t-185 -121t-187 -13q-68 22 -119 88t-78 162t-23 216zM125 353q1 -99 31 -174t72 -131t98 -70q94 -2 205 75t167 142t82 157 q50 124 67 218t12 163t-22 145t-77 121t-82 55q-96 30 -176 -2t-139 -93t-115 -156t-92 -233q-32 -118 -31 -217z" />
<glyph unicode="1" horiz-adv-x="444" d="M10 20l220 820q2 10 9 42t13 66t12 63t6 41q-10 -2 -35 -12t-52 -20t-53 -20t-34 -10h-13h-11q18 60 52 96t76 61t88 50t84 57l4 -2l1 1t3 1q14 -4 15 -38t1 -52q-38 -134 -78 -278t-79 -296t-75 -304t-64 -290q-16 -18 -42 -34t-38 -28q-8 18 -10 42t0 44z" />
<glyph unicode="2" horiz-adv-x="690" d="M20 -30q34 130 86 234t112 193t127 168t133 163q36 42 49 81t29 95q24 90 25 145t-49 69q-44 12 -82 -29t-68 -91t-53 -95t-41 -39q-26 6 -12 62q22 72 58 138t78 110t86 64t78 14q36 -12 52 -43t17 -78t-9 -105t-26 -118q-26 -98 -63 -172t-79 -132t-85 -107t-82 -96 t-70 -98t-47 -113q34 -12 65 -32t61 -42t61 -42t67 -32q18 -2 36 -7t35 0t33 25t28 66q12 40 10 74t-9 61t-11 54t4 57q4 12 10 29t14 7l78 -76q4 -6 0 -42t-12 -81t-16 -81t-10 -48q-18 -60 -46 -96t-60 -55t-64 -23t-56 2q-30 8 -56 30t-50 47t-49 45t-57 28q-20 6 -42 -9 t-43 -35t-43 -35t-42 -9z" />
<glyph unicode="3" horiz-adv-x="880" d="M49 160q-9 60 11 134q24 90 62 138t90 86l6 -4q24 -6 12 -46q-6 -26 -19 -47t-28 -41t-28 -42t-19 -46q-12 -48 -5 -94t26 -80t46 -56t51 -24q54 -8 117 5t123 53t111 111t81 183q18 68 13 129t-23 110t-49 82t-65 43q-36 10 -72 4t-70 4q-12 4 -20 11t-2 35t29 43t57 28 t70 24t71 31t62 50t41 82q0 4 -2 15t-8 11q-6 4 -22 10t-35 12t-36 11t-23 7q-38 8 -71 7t-64 -6t-60 -7t-53 4t-22 40t12 68q4 12 38 21t72 5t74 -14t50 -12q10 -2 43 -11t69 -19t69 -19t47 -13q6 8 24 14t26 2q2 -2 8 -23t-25 -71t-58 -90t-53 -77t-34 -49q-8 -4 -10 -8 q-10 -10 -10 -14q-2 -4 -2 -6l-4 -8v-8q-2 -2 -2 -4q32 -38 58 -80t42 -94t16 -118t-20 -144q-34 -148 -99 -244t-144 -150t-161 -71t-152 1q-32 10 -66 40t-58 78t-33 108z" />
<glyph unicode="4" horiz-adv-x="790" d="M37 752q1 14 7 30q0 4 26 42t63 94t82 118t84 115t69 87t36 34q32 -8 20 -52q-6 -14 -11 -27t-19 -11l-190 -306l-6 -24q68 -18 126 -57t126 -59q10 0 30 -5t24 -3l18 16q0 2 4 14t8 26t8 30t8 28q12 50 23 94t22 86t20 89t15 99q10 16 17 30t19 12l2 -3q2 -3 4 -3 q6 -10 14 -29t4 -23l-84 -426q-6 -28 -2 -38t16 -16q18 -2 35 10t29 33t23 45t15 44q14 -4 19 -17t6 -28t-3 -36t-8 -33q-10 -36 -29 -59t-40 -34t-45 -18t-42 -9q-4 -8 -7 -24t-8 -33t-9 -32t-8 -23q-18 -66 -32 -123t-25 -114t-21 -122t-26 -153q12 -6 8 -25t-8 -35 q-8 -30 -25 -50t-37 -14q-8 0 -18 6t-8 26l130 716l-29 16t-70 34t-85 37t-74 33l-38 10q-20 6 -34 6h-30t-34 -4t-44 -14q-12 8 -11 22z" />
<glyph unicode="5" horiz-adv-x="772" d="M14 103q-2 77 20 159q8 38 24 74t34 61t42 40t52 9q12 -6 22 -16t2 -38q-2 -10 -4 -12l-106 -108q-2 -2 -3 -10t-3 -12q-10 -36 -9 -68t10 -58t23 -44t32 -22q50 -14 116 -3t131 48t119 106t84 173q24 96 26 170t-19 128t-59 89t-92 49q-48 14 -98 -2t-98 -4l-30 8 q4 14 10 52t14 82t12 81t8 55q-4 22 -4 47t2 49t9 47t25 39q90 -4 190 -8t194 -10q4 0 12 -2t14 -2q10 -4 20 -13t4 -37q-12 -38 -39 -50t-59 -10t-62 8t-40 6q-18 4 -43 6t-51 2q-28 4 -60 8l-22 -24l-48 -180q-6 -22 5 -28t19 -6q40 -12 83 -8t85 -8q60 -14 106 -61 t69 -118t21 -163t-32 -206q-36 -128 -99 -213t-140 -135t-155 -67t-138 1l-88 24q-36 48 -38 125z" />
<glyph unicode="6" horiz-adv-x="652" d="M51 219q-11 117 29 271q32 124 79 243t105 226t124 199t136 160l8 -4q12 -2 14 -22t-4 -40l-10 -26q-52 -52 -113 -144t-116 -198t-99 -217t-66 -201q-22 -80 -20 -148t20 -119t49 -83t69 -42q38 142 82 237t82 150t70 74t46 15q24 -6 46 -26t35 -51t18 -71t-9 -90 q-46 -158 -117 -249t-145 -123t-143 -8t-114 97t-56 190zM332 84q2 -14 14 -18q24 -6 52 7t54 42t49 67t33 80q14 50 15 95t-31 53q-32 10 -56 -7t-45 -47t-37 -71t-28 -83q-4 -16 -10 -39t-9 -44t-1 -35z" />
<glyph unicode="7" horiz-adv-x="596" d="M70 1084l62 238q36 -10 61 -34t61 -34q34 -8 68 -8h71t74 -1t73 -9q8 0 13 -4t5 -30q-2 -6 -8 -28t-11 -45t-10 -45t-7 -30q-30 -108 -63 -213t-67 -209t-68 -211t-64 -215l-56 -210q4 -4 6 -24t-4 -30q-2 0 -10 -9t-18 -19l-19 -19l-15 -15h-4h-4q-22 6 -19 46t14 90 t26 98t23 76q62 234 136 462t136 460q-26 8 -67 19t-82 20t-83 9t-72 -6q-16 -8 -22 -21t-11 -25t-14 -21t-31 -3z" />
<glyph unicode="8" horiz-adv-x="742" d="M46 99q-22 115 32 319q18 68 44 118t54 91t60 81t66 84q-6 42 -17 75t-23 63t-14 69t14 97q36 134 96 198t126 46q46 -12 89 -39t67 -91q12 8 20 25t19 33t21 26t24 6t8 -30t-10 -36q-10 -38 -15 -50t-25 -42q-14 -18 -44 -60t-65 -92t-67 -94t-40 -60l-10 -28 q28 -38 48 -88t27 -110t4 -127t-23 -139q-26 -100 -61 -178t-76 -130t-90 -75t-101 -9q-116 32 -138 147zM116 241q-4 -51 8 -82t36 -50t64 -29q4 -2 13 -4t18 -5t20 -4t13 -1q50 36 88 109t62 155q16 66 21 126t-4 113t-30 92t-53 59q-42 -36 -76 -71t-64 -76t-52 -91 t-40 -116q-20 -74 -24 -125zM328 969q14 -49 58 -61q16 -4 44 17t56 55t51 71t33 65q6 28 -8 48t-36 35t-43 24t-27 9q-36 12 -70 -29t-50 -107q-22 -78 -8 -127z" />
<glyph unicode="9" horiz-adv-x="518" d="M82 803q-26 69 16 229t107 239t141 59q52 -14 85 -70t43 -150q-10 -40 -28 -121t-41 -183t-49 -214t-49 -213t-43 -183t-26 -118l-22 -78q-8 -34 -18 -64t-38 -38l-10 62l170 730l-4 30q-82 -10 -97 -12t-63 12t-74 83zM143 865q23 -53 67 -65q64 -16 107 51t75 189 l-14 120q0 44 -15 57t-33 17q-50 14 -100 -41t-80 -167q-30 -108 -7 -161z" />
<glyph unicode=":" horiz-adv-x="276" d="M72 198l2 6q4 20 24 31t40 7q22 -6 36 -21t8 -37t-28 -37t-52 -5q-2 0 -14 20t-14 32q-2 2 -2 4zM142 496q-2 18 24 44q2 2 11 8t15 4q28 -8 32 -19t0 -29q-10 -28 -30 -35t-35 1t-17 26z" />
<glyph unicode=";" horiz-adv-x="362" d="M190 -322q6 36 10 74q6 30 10 60t8 52q0 2 2 11t2 13q4 18 15 27t27 3q24 -6 31 -19t7 -30t-4 -34t-8 -31q-2 -10 -9 -33t-17 -47t-23 -40t-31 -12zM192 178q12 42 54 30q40 -8 30 -52q-12 -44 -54 -32q-42 10 -30 54z" />
<glyph unicode="&#x3c;" horiz-adv-x="1060" d="M160 520l4 14q4 18 22 25t32 13q12 4 46 17t75 27t77 28t46 18q16 10 54 31t84 50t98 59t98 60t80 51t52 35q4 -2 11 -2h9q16 -6 27 -17t9 -29q-10 -24 -60 -62t-121 -78t-151 -81t-151 -73t-117 -52t-46 -22q-4 -12 -1 -20t11 -16l650 -676l-4 -8q0 -4 1 -6t-1 -4 q-6 -22 -27 -40t-45 -12q-14 4 -13 9t-11 21q-32 38 -79 99t-93 118t-83 98t-39 47q-16 14 -50 46t-76 69t-91 77t-93 79t-81 67t-53 40z" />
<glyph unicode="=" horiz-adv-x="488" d="M136 514q6 24 22 24t34 -6q20 -2 59 -13t77 -27t68 -39t36 -51l-26 -12l-224 60q-12 4 -31 26t-15 38zM144 220q4 14 10 24t22 12q4 -4 17 -6t28 -6t28 -7t19 -5q36 -10 77 -22t69 -44q-16 -18 -50 -21t-72 0t-71 10t-51 13q-38 10 -26 52z" />
<glyph unicode="&#x3e;" horiz-adv-x="980" d="M151 36q-1 8 1 10l636 506q-124 100 -241 233t-211 259q-6 2 -12 21t-2 23q4 2 23 14t31 16l4 -2q2 -2 2 -1t2 1q16 -4 26 -13t20 -21q112 -146 232 -273t258 -253q18 -14 12 -34v-10q-14 -4 -44 -21t-62 -37t-62 -37t-38 -23q-26 -20 -89 -67t-134 -101t-132 -102 t-85 -70q-10 -12 -21 -28t-25 -29t-30 -20t-34 -3l-18 4q-2 4 -4 17t-2 23t-1 18z" />
<glyph unicode="?" horiz-adv-x="946" d="M224 -91q0 9 3 23t7 20q8 30 18 44t28 10q16 -6 18 -24t-4 -44q0 -2 -1 -2t-1 -2l-2 -4q-6 -12 -22 -27t-20 -15q-12 0 -18 6t-6 15zM248 1074q-28 64 0 168q20 78 68 142t104 108t114 65t102 9q58 -14 96 -58t56 -109t15 -147t-27 -170q-24 -96 -58 -162t-78 -118 t-97 -95t-115 -89q0 -4 -5 -19t-5 -19q-18 -66 -31 -134t-25 -138q-40 -52 -53 -48t-11 41t16 96t29 117t28 106t11 60q104 54 165 112t96 115t49 104t22 81q16 64 19 128t-8 116t-35 89t-62 49q-40 10 -86 -5t-88 -47t-80 -81t-66 -115q-14 -32 -12 -57t-9 -92t-39 -3z" />
<glyph unicode="@" horiz-adv-x="966" d="M73 385q5 131 43 275q32 122 86 224t135 162t167 70t168 -12q78 -20 137 -76t84 -134t36 -164t-17 -192q-16 -60 -42 -119t-63 -104t-81 -67t-96 -10q-24 6 -45 28t-39 49t-30 46t-20 21q-10 4 -32 -7t-46 -26t-42 -11t-44 10q-38 10 -57 37t-26 94t3 109q30 110 95 156 t147 24q56 -16 72 -84t19 -157t12 -144t49 -67q70 -18 117 52t73 166q24 92 21 176t-31 151t-77 114t-115 63q-84 22 -158 -6t-135 -93t-107 -158t-74 -199q-24 -88 -26 -187t24 -184t73 -146t121 -81q70 -20 113 -2t69 45t42 51t32 22q24 -6 21 -40t-9 -60 q-144 -102 -296 -84q-110 30 -183 184t-68 285zM308 456q8 -32 52 -44q46 -12 79 32t51 106q4 18 11 42t8 46t-3 38t-24 20q-58 16 -103 -33t-63 -123q-16 -52 -8 -84z" />
<glyph unicode="A" horiz-adv-x="1498" d="M18 96q0 18 22 30q24 -6 49 -6q38 0 77 15q64 25 125 74t118 116t108 139t93 142t72 126q-6 2 -17 11t-25 19t-26 19t-16 13q-16 14 -49 45t-68 66t-62 68t-33 53q0 18 8 27t20 13t27 4h33q50 0 100 -14t99 -30t99 -29t100 -13q38 48 76 134t75 181t76 182t77 139 q38 66 57 82q13 11 20 11q3 0 5 -2q6 -7 4 -25t-2 -26q2 -26 6 -101t8 -173t9 -207t11 -205t10 -162t8 -80h22q88 42 136 56q34 10 51 10q7 0 12 -2q9 -3 9 -12q0 -6 -5 -14q-11 -20 -41 -44t-73 -46t-89 -32q-4 -32 -4 -77v-32q2 -67 10 -146t19 -164t22 -166t18 -149 t11 -112q0 -12 -2 -16t-6 -5t-13 -2t-23 -9q-28 104 -41 205t-21 204t-20 208t-40 211q-54 4 -117 18t-129 30t-132 29t-120 15q-44 -44 -86 -109t-87 -136t-93 -139t-101 -122t-111 -88t-122 -34h-22t-32 1t-30 1h-22q-22 14 -22 32zM500 996q-3 -5 -3 -11q0 -13 12 -32 q17 -27 52 -59t74 -57t75 -39t56 -4q10 10 16 22t11 26t13 33t24 45q-14 6 -53 18t-83 25t-83 25t-55 16q-48 8 -56 -8zM806 752q86 -22 171 -32t133 -24q-26 36 -79 88t-141 94q-16 -22 -43 -57t-41 -69zM944 942l288 -232q1 30 1 67q0 54 -2 122q-3 113 -7 232t-10 224 t-12 165z" />
<glyph unicode="B" horiz-adv-x="2092" d="M14 374q32 0 49 -18t31 -46t28 -59t34 -59t53 -47t83 -19q74 16 140 83t127 168t120 222t119 245t125 239t137 199q56 76 138 171t181 178t209 140t218 57q80 0 119 -54t39 -126q0 -94 -49 -169t-116 -134t-133 -106t-102 -83q68 -24 149 -51t151 -76t117 -123t47 -192 q0 -68 -29 -149t-78 -160t-116 -153t-141 -129t-153 -89t-155 -34q-90 0 -178 40t-157 105t-111 150t-42 177q0 10 2 38t2 34q16 18 30 22t34 4q12 0 30 -7t26 -20t0 -28t-46 -31q0 -80 34 -156t90 -135t132 -95t162 -36q106 0 213 63t193 159t140 212t54 220q0 88 -51 159 t-128 119t-167 74t-170 26q-70 0 -117 -6t-92 -10t-94 -4t-123 10l-444 -810q-48 -86 -128 -149t-182 -63q-62 0 -110 28t-79 73t-48 102t-17 109zM1064 1142q44 0 100 4t115 10t111 11t88 9q48 32 119 84t140 117t121 137t64 144q0 62 -34 95t-94 33q-34 0 -78 -14t-88 -36 t-83 -49t-67 -49q-16 -14 -53 -51l-77 -77t-74 -76t-46 -48q-14 -16 -35 -48t-46 -67t-46 -69t-37 -60z" />
<glyph unicode="C" horiz-adv-x="976" d="M49 555q13 123 49 264t91 289t124 271t149 206t166 99q24 0 40 -4t34 -22q16 -16 41 -42t47 -69t35 -104q8 -38 8 -83q0 -28 -3 -58q-2 -12 -12 -17t-20 -5h-6q-2 0 -4 2q-2 36 -7 91t-21 106t-50 87t-92 36q-48 0 -106 -61t-113 -157t-107 -215t-91 -233t-63 -213 t-24 -155q0 -66 19 -150t57 -158t97 -125t143 -51q86 0 166 48t145 120t111 157t62 159q18 -4 21 -22t3 -32q0 -4 -1 -15t-3 -15q-22 -70 -71 -154t-117 -158t-149 -123t-167 -49q-74 0 -134 33t-108 84t-82 114t-52 125q-10 44 -10 104q0 43 5 95z" />
<glyph unicode="D" horiz-adv-x="1368" d="M44 -12l16 108l146 1134q2 20 4 47t8 57q4 30 8 64h46q0 -34 -3 -72t-10 -93t-17 -132t-25 -189t-34 -266t-41 -362q38 36 70 61t76 25q50 0 88 -24t69 -61t59 -80t61 -80t74 -62t97 -25q62 0 130 37t133 97t124 137t103 156t69 156t25 137q0 2 -1 5t-1 5 q-48 -46 -93 -77t-94 -52t-104 -30t-119 -9q-122 0 -205 47t-133 125t-71 178t-21 208q0 88 23 199t74 210t131 165t194 66q88 0 158 -35t127 -94t98 -136t67 -160t39 -166t13 -155v-20q0 -87 -15 -185q-17 -109 -54 -219t-90 -214t-119 -189t-142 -145t-162 -80 q-37 -9 -76 -9q-50 0 -102 15q-92 26 -186 110q-34 44 -58 89t-68 79q-6 6 -22 15t-20 7q-58 -14 -88 -64t-50 -107t-42 -102t-64 -45zM538 1148q0 -100 21 -189t67 -154t121 -104t183 -39q24 -2 47 -2q86 0 150 30q81 38 130 108t67 164q12 65 12 134q0 31 -2 62 q-8 102 -42 202t-88 183t-126 140t-158 73q-104 0 -177 -65t-118 -159t-66 -199t-21 -185z" />
<glyph unicode="E" horiz-adv-x="1050" d="M28 348q0 68 24 132t61 125t82 114t87 101v10q0 50 -11 95t-11 99q0 48 16 111t46 132t71 136t89 119t101 85t109 33q44 0 82 -19t64 -51t41 -73t15 -83q0 -10 2 -25t-1 -29t-11 -25t-24 -11h-10q-4 18 -13 60t-26 85t-42 75t-63 32q-82 0 -151 -58t-121 -141t-81 -176 t-29 -161q0 -42 6 -75t16 -85h20q44 0 87 15t88 31t91 30t92 14h48t56 -6t47 -21t19 -45q0 -60 -40 -99t-97 -63t-118 -34t-103 -10q-30 0 -56 10t-49 23t-46 23t-49 10h-12q-98 -76 -155 -177t-57 -225q0 -114 50 -174t162 -98q59 -11 115 -11q53 0 102 10q101 21 191 63 t173 93t167 89q8 -16 14 -27t6 -27q0 -12 -3 -18t-17 -14q-178 -86 -293 -134t-187 -72t-109 -30t-53 -6q-76 0 -148 25t-128 71t-91 110t-35 142zM430 808q0 -18 14 -29t35 -16t42 -6t35 -1q32 0 71 6t78 18t71 33t54 49q-16 22 -41 33t-51 11q-20 0 -70 -7t-103 -18 t-94 -29t-41 -44z" />
<glyph unicode="F" horiz-adv-x="1580" d="M10 274q22 36 57 60t81 24q10 0 16 -3t14 -19q-4 -2 -14 -6t-21 -10t-21 -16t-10 -22q0 -22 32 -44t82 -45t112 -43t120 -36t107 -25t77 -9q116 0 206 40t160 106t123 154t97 188q16 32 20 49t4 49q0 30 -21 50t-55 20h-10q-4 -2 -14 -8t-20 -13t-19 -14t-11 -9 q-16 6 -19 17t-3 25t1 39t5 50t15 42t33 17t37 -16t31 -37t35 -37t45 -16h8q44 152 51 293t7 295h-14q-120 -86 -258 -150t-286 -64q-48 0 -94 15t-91 31t-88 31t-89 15q-18 0 -30 -12t-23 -26t-23 -25t-32 -11q0 18 -1 59v21q0 31 2 63q3 43 13 78t32 41q24 -12 32 -41 t12 -43q96 -60 195 -95t215 -35q54 0 139 21t170 55t154 80t91 98q20 46 39 110t48 124t74 103t115 43q26 0 34 -15t8 -39q0 -34 -8 -57t-36 -57q-12 -16 -42 -52t-63 -76t-63 -76t-42 -48q3 -35 3 -71q0 -49 -6 -97q-11 -84 -30 -167t-35 -166t-16 -163q0 -22 22 -27t40 -5 q76 0 136 39t118 89l22 -22q0 -2 -7 -13t-18 -26t-22 -27t-19 -16q-40 -28 -70 -46t-61 -30t-69 -18t-92 -12q-54 -116 -115 -228t-143 -202t-188 -147t-246 -57q-76 0 -166 18t-178 50t-164 81t-124 107zM1478 1554q54 46 101 105t69 127h-10q-32 0 -62 -25t-51 -59 t-34 -72t-13 -66v-10z" />
<glyph unicode="G" horiz-adv-x="1746" d="M10 232q2 4 9 11t11 9q138 40 242 127t198 208t189 272t213 317q0 4 1 11t1 11q0 20 -17 44t-38 56t-38 74t-17 100q0 40 2 85t14 83t41 62t83 24q38 0 64 -15t42 -42t23 -60t7 -65q0 -70 -20 -132t-44 -130q2 0 15 -1t17 -1q70 0 160 40t175 100t152 130t91 132 q2 8 9 45t13 79t11 79t7 47q6 30 24 70t43 77t57 61t66 24q38 0 51 -33t13 -63q0 -50 -26 -104t-59 -103t-69 -92t-56 -69q0 -218 20 -435t24 -445q1 -30 1 -61q0 -54 -4 -112q-7 -91 -29 -180t-57 -168t-91 -141t-131 -99t-175 -39q-90 0 -167 37t-134 100t-89 144t-32 173 q0 60 25 116t66 99t96 68t117 25q0 -24 -38 -51t-83 -63t-83 -86t-38 -120q0 -80 31 -148t83 -120t121 -82t147 -30q104 2 176 53t118 131t70 181t33 206q8 95 8 183v20q-1 98 -7 172q-2 30 -10 108t-18 166t-19 166t-15 108q-84 -72 -155 -129t-144 -101t-153 -80t-180 -68 q0 -2 -8 -10l-12 -12l-440 -650q-44 -36 -88 -95t-94 -113t-106 -93t-124 -39q-24 0 -42 6t-30 40zM828 1490q0 -14 3 -45t10 -63t22 -57t41 -25h6q2 0 4 2q52 36 66 93t18 117q0 18 -3 44t-13 49t-27 39t-41 16q-32 0 -48 -18t-25 -45t-11 -56t-2 -51zM1690 1870 q0 -4 1 -22t1 -22q26 22 51 51t41 64t26 72t10 71q-30 0 -55 -24t-42 -58t-25 -71t-8 -61z" />
<glyph unicode="H" horiz-adv-x="1986" d="M14 256q8 64 62 105t106 63v-20q-40 -42 -62 -66t-32 -40t-12 -22t-2 -8q0 -48 50 -96t121 -85t144 -61t121 -24q72 0 147 34t143 90t129 129t106 150t70 153t25 140q0 32 -14 54t-30 45t-31 47t-15 58q0 78 36 122t114 72q10 70 26 133q12 46 12 96q0 19 -2 39 q-18 -12 -70 -29t-121 -31t-143 -25t-137 -12h-10q-56 0 -97 10q-44 11 -48 39v28t3 31t10 27t19 12q2 -50 50 -73t118 -25h17q63 0 135 13q82 15 151 38t112 52t39 55q24 102 53 167t52 103t41 52t22 14q48 -12 53 -48q1 -8 1 -15q0 -30 -15 -68q-19 -47 -55 -100t-68 -105 q-24 -32 -36 -74t-18 -86t-8 -88t-2 -82q62 -58 138 -113t149 -116t133 -134t84 -169l106 1028l50 -8q-20 -266 -36 -477t-30 -398t-27 -369t-21 -386q-8 -20 -34 -23t-40 -3v510q0 14 -13 52t-29 78t-34 70t-28 32q-70 -36 -132 -49t-132 -13q-10 0 -34 2t-49 5t-50 7 t-33 6q-48 -136 -111 -270t-148 -240t-200 -170q-105 -59 -241 -59q-13 0 -26 1q-48 0 -130 32t-161 79t-133 103q-49 50 -49 94q0 5 1 10zM1106 928q0 -34 12 -66t28 -60q26 52 39 104t13 110q-40 0 -66 -23t-26 -65zM1212 760q20 -30 76 -43q46 -11 97 -11q12 0 24 1 q65 3 127 18t94 35q-10 10 -33 34t-49 50l-50 50l-34 34q-8 8 -33 26t-53 38t-57 33t-47 9q-12 -6 -22 -44t-19 -85t-14 -89t-7 -56zM1360 1580q24 34 47 72t23 82q-24 0 -37 -17t-20 -42t-10 -49t-3 -36v-10z" />
<glyph unicode="I" horiz-adv-x="1216" d="M28 62q0 16 8 30t26 14q34 0 59 -12t65 -12q136 0 262 59t237 159t203 229t159 268t104 277t37 258q0 152 -65 230t-217 78q-68 0 -121 -52t-90 -126t-57 -153t-20 -131q0 -110 51 -188t161 -110l-44 -18q-2 -2 -17 5t-35 16t-41 21t-33 20q-68 42 -88 114t-20 144 q0 70 23 160t67 170t109 135t151 55q94 0 157 -30t102 -83t55 -126t16 -159q0 -192 -65 -378t-177 -350t-262 -296t-318 -218q-50 -24 -115 -44t-127 -20q-14 0 -38 3t-46 10t-39 20t-17 31z" />
<glyph unicode="J" horiz-adv-x="1224" d="M-96 -364q0 62 12 143t44 154t86 123t140 50q8 0 22 -1t26 -4t21 -10t9 -19q0 -2 -1 -5t-1 -5q-25 4 -48 4q-63 0 -106 -33q-58 -45 -90 -118t-42 -157t-10 -146q0 -70 14 -160t50 -169t97 -134t155 -55q98 0 182 47t154 124t126 176t98 201t70 201t42 177 q-68 20 -126 50t-99 73t-64 100t-23 133q-2 33 -2 64q0 109 27 190q35 104 101 192t157 179t197 215q20 50 28 123t25 139t54 114t117 48q50 0 62 -12t12 -64t-23 -99t-55 -90t-69 -82t-65 -77q-4 -10 -12 -41t-10 -41q-2 -12 -10 -80t-19 -155t-20 -175t-15 -136 q-12 -124 -35 -239t-23 -239q58 0 101 8t95 8q14 0 23 -10t9 -22q0 -38 -38 -49t-86 -15t-93 -12t-57 -38q-20 -86 -52 -191t-77 -210t-106 -203t-136 -175t-167 -123t-204 -46q-110 0 -182 60t-115 151t-59 197t-16 196zM700 388q0 -48 19 -99t51 -92t77 -68t99 -27 q10 0 18 4t12 18l126 884v84q-66 -52 -137 -135t-130 -180t-97 -198t-38 -191zM1226 1364q0 -2 1 -9t1 -11q58 46 95 107t37 135q-40 0 -65 -24t-40 -58t-22 -72t-7 -68z" />
<glyph unicode="K" horiz-adv-x="1766" d="M20 202q0 22 3 68t14 93t32 82t55 35q18 0 43 -7t25 -29q-32 -24 -54 -62q-24 -30 -40 -76t-16 -106q0 -84 17 -153t57 -118t102 -77t152 -28q96 0 186 34t168 92t141 136t108 167t70 183t25 186q-60 0 -114 -10t-112 -10q-48 0 -96 11t-87 36t-64 65t-25 100q0 36 27 57 t63 32t74 14t60 3q108 0 179 -32t143 -118l22 44q2 4 12 51t23 111t27 130t20 106q4 6 0 29t-4 29q-48 -2 -121 -11l-146 -18t-136 -14q-32 -2 -55 -2.5t-38 2.5q-30 5 -15 25t97 60q44 0 101 -3q34 -2 68 -2l46 1q57 2 109 14t94 38q24 16 40 48t30 70t25 77t28 70t43 52 t64 21t43 -25t5 -57q0 -36 -16 -73t-41 -70t-56 -62t-59 -51l-126 -590v-14q140 0 273 61t253 157t221 209t177 217h42v-40q0 -4 -22 -34t-52 -70t-62 -82t-52 -68q-68 -84 -157 -152t-190 -122t-206 -95t-205 -71v-10v-10q30 -56 80 -151t113 -213t135 -251t151 -263 t160 -250t160 -210t154 -144t139 -54q116 0 209 22t175 66t156 108t148 146q30 36 47 73t17 83q0 50 -20 88t-54 69t-76 52t-84 35v26q62 0 118 -18t96 -51t62 -83t22 -114q0 -80 -39 -155t-103 -140t-147 -118t-171 -91t-175 -58t-157 -20h-5q-70 0 -148 50 q-81 52 -165 141t-171 207t-170 247t-161 261t-144 249t-122 210t-92 145q-4 -2 -12 -10t-8 -12q-62 -136 -126 -271t-152 -242t-208 -175t-292 -68h-126q-74 20 -123 68t-77 108t-41 129t-13 135zM692 802q0 -36 18 -63t45 -43t60 -24t65 -8q22 0 51 -2q12 -1 23 -1 q18 0 36 2q30 3 52 13t30 32q-32 78 -99 103t-143 25q-27 3 -49 3q-11 0 -21 -1q-26 -2 -47 -9t-21 -27zM1428 1516l2 -8q22 22 32 38t10 44v11t-2 11q-22 -12 -32 -42t-10 -54z" />
<glyph unicode="L" horiz-adv-x="2128" d="M68 330q0 74 34 128t88 93t122 65t139 42t136 27t111 19h40q110 0 217 -33t207 -73l20 -10t37 -17t39 -20t28 -15q2 -2 11 -8t21 -13t21 -13t11 -8l24 -12t18 -8q70 92 129 182t81 160q-14 -1 -30 -1q-41 0 -97 7q-79 10 -170 34t-184 63t-168 89t-123 113t-48 137 q0 16 6 29t28 13q2 0 29 -38t66 -86t79 -92t64 -58q120 -64 245 -100t259 -36q24 0 58 6t46 18l546 544q30 30 92 56t125 30q9 1 18 1q52 0 94 -20q49 -23 53 -93q0 -102 -38 -180t-100 -137t-143 -102t-168 -74t-172 -56t-157 -45q-4 -2 -20 -8t-35 -12t-35 -13t-22 -11 q-32 -48 -60 -91t-55 -85t-55 -88t-64 -102q80 -100 149 -241t136 -294t137 -303t151 -268t177 -191q93 -71 213 -71h7q140 0 272 5t236 43t166 125t62 253q0 56 -18 107t-50 97t-74 82t-92 60q4 0 21 2t21 2q68 0 116 -35t80 -87t47 -113t15 -117q0 -184 -70 -286 t-184 -151t-263 -59t-307 -10q-23 -4 -45 -4q-65 0 -126 31q-81 41 -152 120t-137 186t-126 227t-118 243t-113 232t-111 198t-114 137h-12h-10q-24 -16 -90 -52t-140 -76t-139 -76t-93 -48q-92 -46 -192 -56t-198 -10q-70 0 -146 16t-139 51t-104 92t-41 141zM150 326 q0 -68 33 -112t82 -71t108 -38t113 -11q98 0 196 8t184 56q40 20 103 54t124 68t105 58t48 28l40 44q-26 50 -98 89t-159 67t-175 42t-146 14q-74 0 -171 -10t-183 -42t-145 -90t-59 -154zM1808 932h34q52 0 124 15t147 44t147 70t130 92t92 114t34 131q0 50 -28 68 q-23 15 -54 15q-7 0 -14 -1q-40 -4 -82 -22t-66 -42z" />
<glyph unicode="M" horiz-adv-x="1902" d="M52 58q0 40 7 65t35 61q138 168 219 286t125 196t58 123t18 67q6 6 10 44t5 89q0 26 0.5 52.5t-0.5 55.5q-1 57 -3 101t-5 67t-7 11q-150 -64 -233 -98t-122 -50t-47 -19l-8 -3q-12 0 -22 10t-10 24q0 10 15 20t34 16t36 10t21 6q34 14 78 39t89 48t89 42t80 21 q38 0 57 -21t25 -50q5 -25 5 -54v-10q-1 -35 -1 -63q0 -86 -11 -174t-11 -198q132 174 222 290t150 186t93 98t51 27t28 -29t24 -68v-32t-1 -40t-1 -37v-19q-4 -28 -14 -103t-24 -159t-26 -158t-20 -104q48 86 101 191t110 210t116 205t118 179t120 133t117 64q40 0 59 -36 t28 -84t10 -98t1 -80v-54q-2 -122 -22 -260t-41 -284t-40 -295t-19 -289t26 -265t88 -226t171 -171t277 -98q50 18 69 20q15 2 15 -2q0 -1 -1 -3q-5 -7 -29 -20t-53 -24t-58 -16q-13 -2 -25 -2q-14 0 -24 3q-114 0 -199 43t-145 114t-99 161t-61 186q-9 108 -9 214 q0 73 4 146q11 178 30 355t38 355t23 358v34t-1 51t-1 51v34l-1 10t-5 22t-10 22t-16 10q-106 -82 -193 -194t-160 -238t-133 -254t-112 -240q-8 -20 -26 -71t-39 -107t-38 -108t-23 -74q-4 -4 -20 -11t-22 -7q-4 0 -12 7t-10 11v21t4 52t13 102t26 175t42 272t63 388 q-4 28 -17 33t-26 0t-25 -16t-16 -17q-20 -20 -55 -66t-80 -104t-96 -122t-97 -122t-82 -104t-52 -70q-6 -20 -20 -71t-31 -107t-32 -108t-21 -70q-16 -48 -45 -98t-67 -90t-85 -64t-99 -24t-68 7t-16 59zM134 56q32 0 66 20t62 50t51 63t33 57q2 8 13 38t26 67t28 72t19 55 v12q-24 -28 -73 -85t-101 -121t-88 -127t-36 -101z" />
<glyph unicode="N" horiz-adv-x="1402" d="M30 138q8 94 52 185t105 175t132 158t131 132q2 10 3 42t1 42q0 50 -2 89t-8 79t-14 85t-20 103q-6 18 -18 21t-26 3q-2 0 -9 -1t-11 -1q-62 -50 -139 -87t-159 -37q0 24 6 38t18 20t28 10t38 14q14 6 50 24l76 38t75 39t51 25q2 0 10 1t10 1q24 0 41 -20t23 -44l64 -438 l754 730l42 -40q0 -2 2 -19t3 -36t2 -39t1 -34q0 -128 -16 -253t-33 -250t-32 -251t-15 -252q0 -14 1 -47t2 -70t2 -70t1 -45q42 -358 396 -358q10 0 34 3t51 6t50 7t33 6q-16 -24 -43 -37t-57 -19t-62 -7t-56 -1q-94 0 -162 23t-116 68t-81 112t-53 155v52t-1 78t-1 80v52 q0 116 10 228t23 225t24 225t11 226v138l-716 -674q-2 -18 -8 -66t-12 -102t-13 -102t-9 -66q-8 -58 -35 -131t-69 -137t-98 -109t-126 -45q-60 0 -100 43q-36 39 -36 96v11zM112 122q0 -18 3 -33t13 -26t28 -11q54 0 99 34t78 89t57 123t38 137t21 128t7 99h-24 q-4 0 -19 -15t-36 -35t-40 -41t-31 -35q-34 -36 -68 -82t-61 -96t-46 -103t-19 -103v-30z" />
<glyph unicode="O" horiz-adv-x="1130" d="M52 642v57v71t1 61t1 31q0 6 5 43t11 84t13 93t11 74q6 32 22 90t41 116t62 99t87 41v-32q-118 -198 -156 -406t-38 -438q0 -84 5 -154t25 -133t58 -120t106 -115q20 -16 34 -18t36 -2q114 0 210 58t172 148t126 197t70 205q-41 -3 -78 -3q-108 0 -188 22 q-108 29 -175 98t-96 181t-29 270q0 54 5 133t20 163t43 167t71 148t104 106t145 41q70 0 122 -43t89 -105t61 -131t34 -121q0 -18 1 -63t1 -95v-95v-63q0 -126 -12 -243t-12 -239v-22l148 64v-12q0 -16 -22 -30q-6 -4 -28 -16t-47 -25t-47 -25t-26 -18t-13 -34t-19 -61 t-19 -62t-11 -35q-40 -94 -94 -188t-127 -169t-164 -121t-203 -46q-122 0 -188 65t-100 160t-41 203t-7 194zM448 1204q0 -80 21 -164t64 -152t110 -111t163 -43q20 0 46 -1h13l39 2q26 3 46 12t26 29q2 12 9 39t13 58t12 57t10 36v22q0 14 3 76t6 133t6 132t3 77 q0 58 -9 146t-36 173t-76 151t-129 78q-11 1 -21 1q-55 0 -98 -36q-51 -43 -89 -116t-63 -163t-41 -177t-22 -158t-6 -101z" />
<glyph unicode="P" horiz-adv-x="1102" d="M26 222q0 92 25 161t66 129t92 115t107 123q12 14 39 46t62 72t74 83t74 83t64 70t43 44q52 120 69 237q14 95 14 195q0 24 -1 48q-48 0 -87 -12t-79 -27t-85 -27t-103 -12v54q44 0 81 2t71 10t68 21t74 37q20 12 42 34t43 45t43 39t44 16q0 -66 -12 -129t-26 -127 t-24 -127q-7 -45 -7 -92q0 -19 1 -37l462 464q66 64 129 95t149 31q54 0 78 -18t24 -74q0 -74 -24 -173t-68 -206t-107 -211t-137 -186t-157 -133t-171 -51q-62 0 -118 33t-102 73q-4 -22 -15 -73t-25 -108t-26 -107t-18 -70q-10 -38 -25 -74t-29 -68q-24 -52 -64 -128 t-93 -146t-120 -119t-143 -49q-44 0 -77 19t-53 52t-31 72t-11 81zM90 226q0 -30 4 -58t15 -52t33 -39t56 -15q84 0 154 60t126 154t97 210t69 228t42 206t14 144q-16 0 -65 -46t-109 -109t-118 -131t-92 -112q-46 -58 -87 -104t-72 -94t-49 -105t-18 -137zM776 1112 q0 -36 11 -74t35 -70t58 -51t76 -19q84 0 162 48t146 126t122 178t93 203t60 201t21 170q-90 0 -159 -40t-141 -90q-16 -16 -49 -50t-75 -78t-87 -91t-87 -91t-75 -79t-47 -51q-24 -28 -38 -42t-20 -26t-6 -28v-46z" />
<glyph unicode="Q" horiz-adv-x="1376" d="M38 526q0 124 17 261t48 275t76 251t102 190t129 93h102q0 -22 -22 -40t-50 -35t-56 -35t-38 -36q-42 -94 -91 -215t-86 -251t-56 -261q-10 -67 -10 -131q0 -60 9 -116q18 -116 79 -208t183 -144q17 -5 34 -5q33 0 68 19q52 28 100 69t87 85t61 64q-24 118 -48 235 t-43 233t-29 226q-7 79 -7 152q0 29 1 58q6 48 11 110t15 128t27 132t44 122t69 99t104 61q52 0 87 -35t57 -93t32 -127t14 -137t4 -125v-91q0 -252 -53 -479t-179 -447q14 -48 39 -101t61 -97t82 -73t104 -29q82 0 160 29t142 81q2 0 2 -4v-6q0 -42 -36 -72t-84 -49 t-99 -28t-77 -9q-70 0 -121 21t-92 58t-76 87t-69 106q-36 -40 -80 -84t-95 -81t-107 -60t-118 -23q-54 0 -106 23t-94 61t-71 87t-41 101q-16 86 -16 210zM662 1260q-2 -32 -2 -65q0 -49 4 -101q6 -86 17 -173t27 -172t38 -161q2 -12 9 -30t15 -34t17 -28t19 -12q8 0 25 31 t37 74t39 91t27 78q40 134 63 260t23 262q0 64 -4 121t-13 113t-22 118t-27 134q-6 26 -28 56t-56 30q-20 0 -48 -38t-52 -88t-44 -100t-24 -72q-4 -24 -11 -70t-13 -93t-11 -85t-5 -46z" />
<glyph unicode="R" horiz-adv-x="1404" d="M50 196q20 118 69 265t104 296t103 286t68 235q0 76 -16 95t-41 12t-60 -28t-73 -27v52q6 8 30 26t52 35t55 31t41 14q18 0 31 -12t22 -29t14 -36t7 -29t5 -37t7 -57t7 -57t3 -39q4 12 29 41t63 64t83 75t90 75t85 63t64 42q108 64 170 71q11 1 20 1q46 0 66 -28 q18 -26 18 -68q0 -14 -2 -30q-8 -64 -41 -141t-86 -159t-117 -151t-135 -116t-139 -53q40 -36 82 -107t84 -157t88 -174t94 -162t102 -120t114 -46q66 0 134 25t104 85q0 -50 -24 -84t-60 -56t-84 -35t-94 -17q-92 4 -157 68t-116 155t-97 195t-99 189t-121 135 q-50 37 -115 37q-23 0 -49 -5q-50 -226 -84 -375t-58 -242t-40 -139t-30 -67t-27 -31t-31 -26q-88 4 -110 79q-12 39 -12 90q0 47 10 103zM104 70q11 -48 29 -48q4 0 9 3q24 15 51 79t53 163t48 205t33 204q8 72 8 127q0 20 -1 37q-44 -56 -85 -157t-73 -214t-52 -221 t-20 -178zM436 920q43 -17 89 -16q36 0 74 10q85 24 165 79t151 130t120 150t71 138q13 38 13 65q0 17 -5 30q-11 24 -46 24q-11 0 -24 -2q-56 -10 -168 -84q-64 -62 -147 -122t-154 -124t-113 -133q-30 -50 -30 -104q0 -20 4 -41z" />
<glyph unicode="S" horiz-adv-x="1778" d="M20 136q0 12 47 27t115 38t140 54t120 77q-35 132 -35 235q0 99 41 175q42 78 130 135t234 99q-12 -10 -11 -18t6 -14t8 -11t-3 -11q-106 -52 -184 -96t-120 -104t-45 -146v-11q0 -83 41 -209q118 88 227 163t221 155t235 173t273 217l42 568q6 68 35 140t79 130t113 95 t135 37q118 -26 155 -87q24 -40 24 -89q0 -25 -6 -52q-19 -80 -80 -175t-136 -193t-150 -193t-123 -173q20 -134 19 -265q0 -56 -3 -112q-12 -185 -64 -339t-143 -258t-221 -132q-40 -9 -83 -9q-98 0 -215 45q-168 64 -376 250l-406 -196q-6 0 -13 11t-12 24t-8 27t-3 18z M544 282q170 -158 314 -214q102 -40 188 -40q35 0 68 7q112 23 192 111t126 217t56 287q2 40 2 79q0 120 -22 243zM1540 1180q26 22 70 72t94 115t100 139t90 141t65 124t25 91q0 54 -37 81t-85 27q-88 -10 -145 -56t-89 -113t-47 -149t-20 -167t-8 -164t-13 -141z" />
<glyph unicode="T" horiz-adv-x="1524" d="M28 472q0 48 16 105t45 107t73 82t104 32q24 0 55 -11t31 -45q-52 0 -100 -18t-83 -50t-57 -81t-22 -109q0 -86 49 -159t123 -127t161 -85t165 -31q154 0 280 79t214 195q190 264 283 583t95 657q-68 -54 -135 -103t-144 -86t-167 -55q-58 -12 -126 -12q-38 0 -80 4 q-58 0 -120 7t-123 11q-30 2 -61 2t-62 -2q-62 -4 -118 -22v278q32 14 45 0t17 -44q2 -15 2 -31.5t-2 -34.5q-4 -36 -6 -66q124 0 238 -19t234 -19q84 0 173 22t172 61t156 93t125 120q4 26 11 70t17 92t29 90t51 66q38 0 59 -34t25 -72q0 -42 -18 -76t-40 -65t-43 -62 t-25 -71q-2 -20 -8 -65t-13 -101t-16 -118t-18 -118t-17 -100t-12 -64q-22 -104 -60 -221t-92 -234t-125 -225t-159 -191t-195 -132t-231 -49q-90 0 -190 34t-184 93t-140 142t-56 183zM1586 1806q16 18 19 35t3 39q0 4 -1 16t-1 16q-10 -22 -15 -44t-5 -62z" />
<glyph unicode="U" horiz-adv-x="1684" d="M40 1334q0 2 2 6t2 6q28 20 50 31t54 11q4 0 9 -6t-9 -36q8 -2 31 -3t31 -1q44 0 84 14t78 32t76 33t78 15v-50l-170 -966v-30q0 -42 11 -94t36 -99t63 -80t92 -33q32 0 62 14t55 37t46 48t37 49q68 98 112 200t83 206t80 208t101 204l108 420q2 12 11 17t19 5 q22 0 27 -18t5 -34q0 -92 -17 -185t-37 -187t-37 -188t-17 -188q0 -96 13 -196t54 -182t116 -136t195 -54q58 0 91 15t77 49q4 0 14 -8t10 -12q0 -36 -23 -58t-55 -32t-65 -13t-57 -3q-112 0 -189 40t-127 105t-75 152t-36 180q-10 85 -10 172v16q1 95 5 177q-6 -20 -22 -60 l-36 -90t-43 -105t-45 -104t-39 -88t-25 -57q-26 -56 -61 -123t-81 -123t-105 -95t-133 -39q-72 0 -122 33t-78 85t-41 116t-13 126v21t1 26t2 23t1 12l128 778v84q-30 -20 -57 -28t-52 -12t-50 -4h-59q-8 0 -34 -1t-55 3t-52 15t-23 37z" />
<glyph unicode="V" horiz-adv-x="1142" d="M16 1444q0 32 28 46q12 8 44 19t69 25t71 25t46 17h10q18 0 23 -10t9 -32q2 -20 9 -63t16 -98t21 -114t24 -112t21 -96t15 -63q12 -44 35 -116t49 -155t56 -170t57 -160t46 -128t27 -71l22 -40q4 2 12 9t10 11q6 10 17 37t24 56t26 57t17 38q10 34 29 102t42 155t48 183 t47 184t39 157t25 103q2 14 12 73t20 133t19 145t13 109q2 12 -2 34t-5 43t4 41t23 30h4q2 0 3 1t3 1q32 0 32 -32v-12q-2 -30 -5 -76t-6 -89t-6 -75l-3 -32q-72 -320 -128 -554t-99 -399t-75 -272t-59 -170t-52 -94t-51 -45q-10 6 -20 21t-19 33t-15 32t-8 18l-294 904 l-84 462h-10q-4 0 -8 1t-6 1q-56 0 -104 -14t-108 -14z" />
<glyph unicode="W" horiz-adv-x="1994" d="M28 1438q0 26 26 32q4 0 22 3t40 6t40 6t22 5q18 10 66 30t103 44t102 44t65 30q4 0 11 1t11 1q26 0 34 -14t8 -36q0 -146 -22 -293t-22 -293v-20t1 -26t1 -22v-12q0 -26 6 -95t13 -147t13 -147t10 -95q2 -10 12 -47t25 -78t35 -74t42 -33q24 0 32 24l314 966l22 20 q14 -8 27 -27t15 -35l106 -694q6 -46 33 -108t67 -118t91 -95t107 -39q44 0 82 37t67 87t48 99t29 75q32 80 62 176t54 195t39 198t15 185q0 50 -9 113t-28 126t-48 123t-69 107t-91 74t-113 27h-37t-27 -2q-4 0 -21 -11t-21 -11t-12 9t-8 13q8 26 22 41t31 21t38 6h41 q118 0 194 -65t121 -160t63 -204t18 -201q0 -60 -12 -168t-37 -235t-62 -258t-85 -238t-108 -175t-130 -68q-76 0 -139 42t-110 105t-77 136t-44 139q0 10 -6 46t-13 86t-16 110t-17 117t-17 107t-13 82q-2 8 -1 14t0 10t-5 7t-16 9l-18 -40q-30 -122 -58 -229t-59 -209 t-69 -201t-88 -201q-10 -22 -23 -23t-31 -1q-44 0 -76 40t-54 93t-33 106t-15 77q-2 14 -5 47t-6 70t-6 70t-3 45v102t1 157t2 182t2 182t2 157t1 102h-52q-14 -8 -53 -26t-82 -38t-83 -37t-54 -23q-2 0 -13 -3t-25 -6t-27 -7t-19 -8q-2 -2 -4 -2h-8q-16 0 -35 8t-19 26z " />
<glyph unicode="X" horiz-adv-x="1816" d="M67 1413q13 23 44 43t74 40t88 34t84 21t63 7q40 -86 78 -193t89 -215t122 -205t177 -163q46 116 86 239t84 248t97 243t125 220q2 10 9 10h2q9 -2 20 -11t20 -22t9 -23q-72 -176 -125 -311t-93 -236t-67 -170t-43 -115q-40 -106 -44 -122q62 -52 126 -130t131 -160 t140 -158t153 -123t170 -56q13 -1 27 -2q78 0 163 45l4 -8l9 -18t9 -17l4 -7q-110 -46 -188 -60q-32 -6 -62 -6q-42 0 -79 12q-63 20 -122 69t-130 126t-167 179t-232 228q-132 -268 -226 -454t-161 -307t-110 -187t-72 -93q-25 -24 -44 -24q-3 0 -5 1q-20 4 -38 22 q80 126 161 266t158 286t144 289t117 273q-104 78 -172 163t-118 181t-92 203t-94 233l-298 -128q-10 12 -10 24q0 9 5 19z" />
<glyph unicode="Y" horiz-adv-x="1330" d="M78 -258q-1 12 -1 23q0 19 4 32q7 21 24 11t43 -55t60 -143q108 -206 202 -304t178 -114q18 -3 36 -3q63 0 119 45q71 58 130 166t106 255t81 311t54 332t26 320q-34 -126 -92 -196t-124 -83q-15 -3 -31 -3q-50 0 -99 33q-64 43 -112 143t-68 258q-10 79 -10 172t10 200 q-20 -4 -49 -20t-59 -37t-61 -39t-56 -27t-41 -4t-18 35q28 12 64 36t74 49t74 46t64 30t47 2t23 -39q5 -51 5 -112v-21q-1 -37 -1 -74t1 -74q1 -75 8 -150t29 -138t62 -111t106 -70q88 20 142 82t83 145t42 181t21 195t17 183t31 148l44 -16q-6 -280 -28 -556t-59 -527 t-89 -466t-121 -370t-154 -240q-77 -77 -168 -77q-10 0 -20 1q-103 9 -224 120t-259 351q-30 40 -46 85t-20 79z" />
<glyph unicode="Z" horiz-adv-x="1606" d="M30 104q40 38 71 61t61 41t68 33t94 35q6 0 22 8l20 10l820 632l190 210v20q-46 0 -93 -11t-92 -22t-91 -21t-92 -10q-42 0 -74 3t-63 10t-66 19t-81 34q-16 -24 -36 -40t-46 -22v238q28 0 37 -7t13 -17t9 -23t23 -25q44 -32 84 -49t80 -24t84 -9t98 -2q96 0 192 13 t176 71q36 26 67 69t63 84t69 71t87 30q24 0 38 -7t14 -37q0 -24 -46 -79t-117 -127t-156 -152t-162 -151t-136 -126t-77 -77q-24 -16 -68 -51t-100 -78t-117 -92t-118 -92t-101 -78t-64 -51q-6 -4 -22 -21t-20 -21q9 1 19 1q52 0 130 -27q93 -32 211 -86t256 -117t287 -119 t302 -92t303 -36q118 0 222 26q54 10 86 23t56 30t47 40t65 55q2 2 5 -13t7 -15q-100 -132 -221 -185t-261 -53q-124 0 -259 35t-275 89t-280 116t-275 115t-263 89t-240 36q-86 0 -161 -24t-141 -80q-6 0 -15 -1t-18 1t-18 7t-11 15zM1648 1386h2q10 0 25 15q17 17 17 29 q0 3 -2 3t-7 -3q-9 -6 -19 -16t-16 -19q-3 -4 -3 -6.5t3 -2.5z" />
<glyph unicode="[" horiz-adv-x="1376" d="M54 1364q0 4 15 20t25 22h4q2 0 2 2t2 2q76 0 146 -15t140 -32t145 -32t159 -15q12 0 44 1t68 2t67 3t43 2q8 2 29 10t47 15t53 13t47 6q0 -68 -36 -96t-88 -36t-115 -4t-113 4h-32t-37 2t-34 2h-17q-22 2 -81 10t-127 18t-127 20t-83 14q0 -4 -1 -15t-1 -15 q0 -110 20 -226t24 -226v-81t-1 -121t-2 -143t-2 -143t-2 -122t-1 -80q32 0 65 9t65 20t63 20t67 9h848q0 -6 1 -23t-2 -35t-12 -32t-27 -14q-128 0 -256 21t-260 21q-56 0 -97 2t-78 0t-74 -7t-85 -17q-24 -6 -56 -20t-63 -29t-64 -25t-61 -10q-12 0 -29 1t-21 23 q0 24 2 74t4 114t4 135t4 135t4 115t2 75q0 6 1 37t1 45q0 94 -9 190t-35 192q-2 8 -8 26t-12 38t-13 38t-9 24q0 2 -7 14t-14 27t-13 26t-6 15z" />
<glyph unicode="\" horiz-adv-x="766" d="M28 946q0 16 8 29t26 13h10q6 -4 15 -13t18 -19t18 -19l13 -13l524 -716q14 -18 29 -28t28 -21t21 -28t8 -47q0 -24 -11 -47t-33 -37l-20 20q-18 30 -59 89t-93 134t-109 157t-109 156t-93 133t-61 87q-6 8 -25 31l-38 46t-38 44t-27 27q0 4 -1 11t-1 11z" />
<glyph unicode="]" horiz-adv-x="976" d="M20 1364q6 20 22 22t30 2q32 0 53 -4t43 -10t51 -14t75 -14q114 -18 232 -24t232 2l146 -1156q10 -28 16 -53t6 -53q0 -18 -7 -41t-37 -21l-608 20q-72 4 -114 34t-42 98q24 0 42 -7t37 -17t37 -17t40 -7h524q20 0 22 21t2 31q0 4 -1 16t-1 16l-128 968q14 46 -20 84 q-22 2 -82 7t-127 12t-127 13t-84 10q-18 2 -50 8t-62 12t-52 12t-24 10z" />
<glyph unicode="^" horiz-adv-x="662" d="M30 944q8 16 30 58t44 89t44 89t30 60q4 6 19 30t33 52t33 53t19 31q12 20 24 42t26 42t32 33t46 13q4 0 11 -1t9 -3q0 -60 17 -129t41 -139t49 -131t41 -105q0 -4 6 -15t14 -26t14 -27t6 -16v-4q0 -2 1 -4t1 -4q0 -20 -16 -36t-36 -16q-22 0 -32 24q-6 20 -24 70 t-38 107t-38 108t-26 71q-2 6 -7 17t-13 24t-15 26t-9 17q-30 -20 -57 -59t-51 -87t-47 -97t-47 -89t-49 -65t-53 -25q-22 0 -32 22z" />
<glyph unicode="_" horiz-adv-x="998" d="M44 20v42q24 2 74 4t114 4t135 4t136 4t115 4t74 2q12 0 46 1t72 1h72h46q0 -6 -2 -16t-5 -22t-7 -20t-10 -8h-860z" />
<glyph unicode="`" horiz-adv-x="368" d="M75 1311q-1 33 17 36t47 -24t57 -87q10 -22 21 -38t21 -29t20 -28t20 -35q4 -6 0 -17t-8 -13q-60 14 -94 55t-66 89q-34 58 -35 91z" />
<glyph unicode="a" horiz-adv-x="892" d="M0 155v8q0 52 24 109q26 62 69 120t99 105t118 74t126 28h3q62 0 119 -35q-20 -50 -37 -109t-25 -119q-5 -34 -5 -68q0 -25 3 -49q6 -57 32 -100t81 -70t143 -27q54 8 82 22t49 34t43 46t66 58h10q-6 -68 -32 -109t-65 -64t-88 -30t-103 -7q-134 0 -212 54t-88 178 q-6 -24 -34 -62t-67 -73t-85 -57q-39 -19 -75 -19q-7 0 -13 1q-72 20 -104 63t-34 98zM70 168q0 -22 2 -42t10 -36t23 -25t43 -9q52 2 106 50t97 113t70 136t31 119q-24 44 -77 46h-5q-51 0 -108 -37q-60 -39 -114 -119t-78 -196z" />
<glyph unicode="b" horiz-adv-x="600" d="M9 279q3 75 19 147q20 224 40 384t44 272t49 182t53 106t58 49t60 13q100 -14 138 -72q33 -50 33 -119q0 -11 -1 -22q-6 -83 -47 -182t-100 -195t-125 -182t-122 -142q-24 -156 -28 -242q-1 -25 -2 -45q0 -52 8 -81q10 -40 37 -46t63 -2q48 6 84 57t57 116t27 127 q2 19 2 34q0 37 -10 58q24 1 46 1q45 0 83 -3q23 -2 47 -2q36 0 76 4q22 0 41 2t26 -2q3 -2 3 -5q0 -5 -5 -13q-9 -14 -43 -46q-10 -2 -37 -5t-57 -6t-58 -6t-38 -3q-4 -16 -14 -43t-22 -58t-22 -58t-16 -43q-10 -28 -27 -62t-40 -62t-53 -47t-64 -19q-9 -1 -18 -1 q-51 0 -82 31q-36 36 -51 96q-13 50 -13 110q0 13 1 25zM120 656q28 16 63 55t70 91t69 113t60 120t42 110t16 85q0 26 -2 47t-10 38t-27 27t-51 10q-38 -12 -70 -58t-58 -113t-45 -146t-32 -153t-20 -134q-5 -47 -5 -76v-16z" />
<glyph unicode="c" horiz-adv-x="742" d="M23 127q-7 28 -7 58q0 45 16 94q26 81 85 156t133 112q51 25 103 26q24 0 48 -6q77 -17 135 -117v-8q-4 -6 -20 -21t-20 -19q-28 58 -69 81q-31 18 -66 18q-11 0 -22 -2q-47 -7 -93 -39t-83 -80t-59 -109t-22 -123q14 -44 55 -59q34 -12 77 -13q9 0 18 1q54 3 119 19 t128 37t121 39t99 26t60 0q11 -5 11 -18q0 -10 -6 -24q-250 -112 -405 -138q-69 -12 -124 -12q-67 0 -113 18q-82 32 -99 103z" />
<glyph unicode="d" horiz-adv-x="924" d="M6 174q46 150 100 236t119 127t141 50t162 9q16 72 29 135t28 121t36 113t53 113q20 36 26 50t36 14q28 0 42 -19t20 -45t6 -54v-48q0 -86 -30 -164t-67 -155t-68 -153t-31 -158q0 -32 4 -73t19 -78t39 -62t68 -25q30 0 59 11t56 24t56 23t59 10q4 0 12 -1t12 -1 q-40 -62 -116 -94t-144 -32q-50 0 -81 15t-51 44t-36 66t-36 85q-36 -40 -80 -88t-94 -89t-107 -68t-121 -27q-40 0 -65 16t-37 43t-15 61t-3 68zM86 154q0 -16 3 -35t10 -35t20 -26t31 -10q40 0 102 38t119 94t98 117t41 109q0 56 -23 82t-77 26q-66 0 -124 -34t-103 -86 t-71 -115t-26 -125zM610 596q0 -4 1 -11t1 -9l20 20q4 4 19 42t32 88t33 102t24 84q0 2 1 26t1 34q0 8 -1 32t-1 32q-32 -42 -56 -101t-41 -120t-25 -120t-8 -99z" />
<glyph unicode="e" d="M0 234q-1 16 -1 33q0 59 16 126q21 85 66 156t111 119t144 48q28 0 46 -17t18 -45q0 -66 -35 -130t-85 -122t-105 -108t-91 -86q0 -2 -1 -9t-1 -11q0 -32 18 -56t45 -39t58 -23t57 -8q80 0 140 15t111 46t96 75t93 98q14 16 17 24t4 14t5 11t18 15q16 -6 19 -18t3 -24 q-16 -58 -66 -123t-120 -119t-152 -87q-62 -25 -122 -25q-20 0 -40 3q-80 11 -150 72t-116 195zM80 336q0 -4 1 -22t3 -22q36 20 81 59t84 87t65 99t26 97q-50 0 -97 -30t-83 -75t-58 -98t-22 -95z" />
<glyph unicode="f" horiz-adv-x="720" d="M-70 -532q0 72 2 132t11 122t25 136t44 172l318 778q10 1 20 1q48 0 66 -34q17 -31 17 -78q0 -15 -2 -31q-7 -68 -38 -152t-73 -163t-90 -143t-88 -94q6 -32 25 -54t45 -34t54 -16t56 -4q110 0 203 34t183 96q20 12 30 25t18 22t18 15t30 6q0 -38 -31 -74t-80 -66 t-110 -55t-120 -44t-110 -30t-81 -13q0 -60 19 -115t21 -117q0 -30 -9 -83t-24 -114t-37 -122t-52 -111t-65 -82t-75 -32q-44 0 -69 40t-36 93t-13 106t-2 83zM-8 -506q0 -20 1 -64t9 -88t22 -78t44 -34q22 0 45 29t43 74t36 99t29 104t20 91t7 57q0 54 -5 97t-21 78t-45 61 t-79 48q-32 -18 -53 -78t-33 -135t-16 -147t-4 -114zM204 304q28 32 54 74t48 88t35 93t13 91q0 4 -1 16t-1 16l-22 -20l-126 -336v-22z" />
<glyph unicode="g" horiz-adv-x="880" d="M-66 -750q0 52 16 103t40 100t56 93t64 80q14 14 56 49t89 74t89 72t58 47q20 36 21 73t1 75q0 10 -1 42t-1 42q-24 -14 -57 -32t-68 -35t-72 -28t-69 -11q-48 2 -85 35t-54 83q-12 35 -12 76q0 17 2 35q7 61 47 122t117 115t197 88q18 0 44 -1t51 -8t42 -22t17 -43 q0 -38 -3 -99t-6 -129t-6 -130t-3 -100q0 -4 1 -21t1 -21q64 24 113 52t97 56t102 54t128 48q22 -12 22 -32q0 -4 -29 -20t-76 -39t-105 -52t-112 -59t-98 -59t-64 -55q-2 -26 -11 -94t-19 -145t-19 -147t-13 -96q-10 -56 -23 -112t-39 -101t-69 -74t-111 -29q-28 0 -62 7 t-68 21t-64 34t-48 44q-2 8 -3 36t-1 38zM0 -742q0 -30 19 -54t48 -39t62 -23t61 -8q50 0 84 39t57 99t37 132t22 138t10 119t2 73v50q-58 -38 -128 -97t-131 -129t-102 -147t-41 -153zM84 110q0 -36 28 -45t52 -9q78 2 132 38t89 84t49 97q12 43 12 71v8v22q0 46 -21 77 t-63 31q-9 1 -19 1q-44 0 -91 -29q-58 -36 -102 -94t-64 -127q-11 -36 -11 -69q0 -29 9 -56z" />
<glyph unicode="h" horiz-adv-x="898" d="M0 0q-1 9 -1 22q0 32 7 88q10 78 28 178t42 214t49 222t47 199t36 149q8 24 19 63t29 77t43 65t57 27q6 0 18 -3t20 -7v4q12 -10 21 -33t15 -50t9 -52t3 -37q0 -98 -23 -180t-57 -148t-74 -123t-73 -107t-52 -96q-16 -38 -16 -77q0 -8 1 -17q24 32 53 63t60 55t68 38 t81 14q28 0 56 -4t38 -40q2 -28 2 -76t3 -102t11 -106t25 -90t43 -54q12 -7 26 -7q18 0 42 11q126 62 192 81q48 14 71 14q9 0 14 -2q10 -4 9.5 -12t-9.5 -21q-19 -26 -64 -53t-109 -49t-130 -22q-80 0 -119 44t-56 112t-17 146t2 144q-4 20 -22 22t-32 2q-56 0 -97 -40 t-74 -100t-58 -126t-50 -120t-51 -84q-18 -20 -37 -20q-9 0 -19 4zM206 702q0 -4 1 -15t1 -15q46 16 79 88t52 160t25 174q3 47 3 81q0 29 -2 49q-3 31 -13 31q-4 0 -10 -6q-18 -19 -50 -137q-8 -28 -20 -86t-25 -117t-25 -109t-14 -64q0 -2 -1 -15t-1 -19z" />
<glyph unicode="i" horiz-adv-x="460" d="M15 206v30q0 93 15 240q2 4 9 30t17 57t24 57t34 26t33 -9t9 -37q-40 -98 -62 -193t-22 -201q0 -36 9 -72t30 -63t53 -44t78 -17q152 60 218 74q38 8 57 8q13 0 16 -4q1 -1 1 -3q0 -11 -35 -35q-41 -28 -103 -51t-134 -36q-28 -5 -54 -5q-39 0 -72 12q-30 10 -57 25 t-44 64t-20 147zM172 921q0 17 19 30q16 11 58 11h13q0 -50 -14 -71q-13 -20 -29 -20h-2q-17 1 -31 17t-14 33z" />
<glyph unicode="j" horiz-adv-x="294" d="M-484 -572q0 82 39 155t98 136t127 118t127 97t98 71t39 47v228q8 98 25 137t32 40t26 -21t7 -46l-4 -298q16 16 48 44t69 59t74 59t61 48q10 4 25 7t26 -1q9 -3 9 -15q0 -19 -31 -52q-29 -31 -91 -83t-172 -130l-18 -18q-4 -2 -7 -24t-6 -52t-6 -62t-5 -52 q-2 -44 -6 -119t-13 -164t-28 -182t-51 -167t-82 -121t-122 -47q-74 0 -128 40t-89 102t-53 134t-18 132zM-440 -580q0 -42 16 -101t46 -111t73 -88t97 -36q56 0 98 42t71 108t45 146t25 155t13 138t4 93v40t-1 61t-2 60t-1 41q-68 -36 -152 -93t-158 -129t-124 -155 t-50 -171zM98 904q0 18 20 31q17 11 57 11h13q0 -54 -14 -73q-13 -18 -29 -18h-2q-17 1 -31 16t-14 33z" />
<glyph unicode="k" horiz-adv-x="834" d="M6 -14l128 688l148 626q55 43 88 43q13 0 22 -6q34 -23 35 -100v-6q0 -76 -26 -188q-27 -117 -69 -247t-94 -258t-102 -226q56 56 113 119t119 115t134 86t158 36q56 -16 68 -49q5 -13 5 -27q0 -22 -12 -46q-19 -40 -60 -85t-90 -86t-99 -75t-84 -52q30 -40 71 -74 t88 -60t97 -41t102 -15q36 0 67 4t55 38q6 0 14 -8t8 -12q0 -22 -16 -43t-38 -34t-47 -21q-20 -6 -36 -6h-7q-76 6 -146 44t-134 81t-126 77t-120 34q-10 0 -34 -2t-30 -4q-18 -28 -28 -66t-22 -72t-34 -58t-66 -24zM156 522q34 68 63 121t53 115t47 145t47 207v29t-3 40 t-12 31q-5 7 -14 7q-6 0 -13 -3zM240 332q36 -18 78 -18q22 0 46 5q68 15 128 57t103 102t51 120q-56 0 -114 -29t-113 -71t-101 -88z" />
<glyph unicode="l" horiz-adv-x="518" d="M8 258q4 84 25 188t51 211t69 209t79 184t77 134t67 64q16 0 26 -19t14 -42t6 -45t2 -28q0 -64 -14 -137t-38 -147t-55 -144t-63 -120q-28 -46 -57 -77t-53 -60t-39 -63t-15 -86q0 -106 58 -180t174 -74q72 0 138 26t96 102h24q0 -48 -27 -84t-67 -59t-87 -35t-87 -12 q-66 0 -117 24t-88 65t-62 94t-37 111zM112 492q50 32 95 109t80 167t57 180t22 152q-8 -10 -23 -37t-33 -57t-32 -56t-18 -38q-16 -40 -41 -105t-48 -131t-41 -118t-18 -66z" />
<glyph unicode="m" horiz-adv-x="1570" d="M-12 20l160 418l104 292q28 8 41 -8t12 -44t-11 -66t-23 -77t-27 -75t-24 -60l336 272q40 22 65 23q6 0 11 -2q26 -7 34 -36q5 -18 5 -41q0 -15 -2 -32q-5 -44 -15 -90t-22 -89t-14 -69q38 30 83 78t94 102t99 103t97 82t87 42q10 2 19 2q28 0 49 -21q0 -56 -13 -110 t-30 -108t-31 -108t-14 -112q0 -120 57 -172t175 -52q86 0 172 28t164 58q0 -2 1 -5t1 -7q0 -32 -47 -57t-108 -43t-120 -28t-83 -10q-138 0 -207 62t-69 198q0 52 10 100t23 97t23 97t10 100q-76 -26 -154 -95t-149 -158t-129 -188t-96 -185q-8 -6 -26 -16t-32 -7t-18 25 q-1 4 -1 8q0 23 17 68l138 462q-11 19 -30 19q-15 0 -36 -13q-46 -28 -104 -90t-122 -145t-123 -158t-109 -127t-76 -52q-6 0 -15 8t-7 12z" />
<glyph unicode="n" horiz-adv-x="958" d="M-2 36v48l96 310q0 68 13 126t31 93t34 40q2 1 4 1q13 0 22 -30q2 -10 2 -37v-37q0 -34 -7 -67t-15 -67t-15 -70t-7 -80q14 14 44 50t63 76t63 75t44 49q18 14 39 35t46 39t52 30t55 12q14 0 25 -3t17 -19q4 -41 4 -76q0 -23 -2 -44q-4 -52 -12 -100t-15 -99t-9 -117 q0 -48 17 -77t69 -29q66 0 118 33t95 80t82 97t83 86v-22q0 -56 -40 -115t-100 -108t-128 -81t-122 -32h-72q-30 20 -43 41t-18 43t-5 49v59q0 56 1 96t1 76t1 76t1 94q-38 -8 -85 -53t-91 -98t-80 -101t-56 -62q-8 -10 -27 -33t-42 -50t-42 -50t-25 -31q-14 -18 -27 -22 t-37 -4z" />
<glyph unicode="o" horiz-adv-x="854" d="M4 198q0 52 23 120t63 128t94 102t118 42q24 0 41 -7t29 -39q-58 -18 -113 -51t-97 -76t-67 -98t-25 -121q0 -26 2 -50t11 -42t26 -29t47 -11q78 0 125 23t91 77q-20 34 -21 71t-1 75t8 100t29 119t55 99t86 42q30 0 55 -9t41 -35q0 -6 1 -17t1 -24t1 -26t1 -17 q0 -48 -7 -86t-21 -74t-35 -73t-45 -81q4 0 22 -1t22 -1q46 0 96 12t99 30t96 41t87 43l18 -20q-104 -84 -237 -132t-265 -56l-196 -120q-24 -20 -63 -21t-65 -1q-44 0 -69 16t-39 43t-18 62t-4 73zM413 306v-8q0 -8 1 -16q2 -12 6 -21t16 -11q32 20 57 51t41 68t24 76t8 75 q0 2 1 14q0 6 0.5 13t-0.5 15q-1 16 -6 29t-19 15q-30 -18 -55 -52t-41 -74t-24 -81t-8 -77q0 -4 -1 -16z" />
<glyph unicode="p" horiz-adv-x="830" d="M-132 -501q12 95 42 185t74 180t88 186q9 20 9 46q0 13 -2 28q-7 44 -11 106q-1 23 -1 48q0 43 4 95q7 81 47 185q24 6 37 -13t17 -49q2 -17 2 -36q0 -15 -1 -30q-3 -36 -13 -68q72 118 176 197t208 103q68 -8 94 -55q23 -41 23 -96q0 -8 -1 -17q-4 -66 -33 -142 t-69 -140t-85 -110t-83 -52q-8 -18 22 -14t80 22t112 45t117 55t95 58t50 52q4 32 16 29q10 -3 10 -21v-7q-2 -25 -26 -68t-92 -92t-189 -98t-313 -87q-12 -4 -39 -10t-27 -10l-18 -22q0 -20 -5 -64t-12 -93t-14 -93t-9 -62q-2 -8 -10 -38t-18 -66t-19 -70t-13 -52 q-6 -22 -16 -51t-26 -55t-37 -47t-47 -27l-10 2q-6 0 -25 14t-23 20q-2 6 -5 20t-7 29t-7 30t-5 21q-16 69 -16 135q0 32 4 64zM-75 -480q-3 -31 -3 -61q0 -55 10 -107q6 -26 13 -54t33 -42q46 86 75 175t44 182t20 187t7 192q-48 -64 -91 -142t-71 -161t-37 -169zM204 6 q48 6 105 55t111 117t95 143t56 134q7 27 7 48q0 26 -10 45q-12 23 -45 23q-15 0 -35 -5q-68 -16 -126 -77t-98 -144t-58 -174q-10 -48 -10 -92q0 -38 8 -73z" />
<glyph unicode="q" horiz-adv-x="868" d="M-4 262v6q0 50 34 86q40 50 94 92t116 71t126 47t126 18q26 0 43 -18t17 -44q0 -18 -3 -27t-9 -19t-14 -22t-16 -38q-6 -18 -24 -73t-38 -116t-37 -116t-23 -75q38 -6 54 -10t27 -6t25 -2h50q134 116 216 181t125 91t49 20q2 -2 2 -4q0 -9 -14 -29q-18 -27 -58 -70 t-90 -90t-106 -92t-106 -79q18 -88 27 -199q3 -40 3 -79q0 -70 -10 -138q-16 -106 -70 -192t-160 -122q-34 0 -54 26t-29 61t-11 70t-2 53q0 90 11 180t13 190v19t-1 28t-1 29v18q-16 8 -41 23t-47 35t-34 42t-4 46q4 10 20 33t22 29q-25 -11 -49 -11q-25 0 -49 12 q-46 23 -72 67t-28 98zM66 192q0 -22 24 -27t42 -5q66 0 122 24t95 67t59 102t20 127q-30 0 -68 -24t-60 -42q-14 -12 -47 -42t-70 -64t-70 -63t-45 -43q-2 -2 -2 -4v-6zM66 290q0 -2 2 -4l126 128q-18 -4 -39 -16t-42 -30t-34 -36t-13 -36v-6zM246 104h94q6 0 9 9t6 22 t5 26t2 21zM256 2q0 -28 44 -28q12 0 17 10t5 20q0 14 -10 23t-24 9t-23 -10t-9 -24zM312 -592q0 -40 6 -63t16 -33t24 -18q56 0 87 46t45 108t17 125t3 95q0 8 1 49q1 21 1 43t-1 45q-1 47 -6 87t-17 46l-118 10q-20 -150 -33 -256t-19 -175t-6 -109z" />
<glyph unicode="r" horiz-adv-x="846" d="M-3 48q-1 4 -1 8q0 18 18 42h6q42 0 66 25q26 27 45 73t35 104t38 120q-16 6 -34 15t-34 21t-26 30t-10 40q0 62 30 102t71 57q33 14 66 14l16 -1q41 -4 64 -29q20 -21 19 -59v-14q-4 -48 -54 -112q10 2 54 13t98 24t103 24t69 11q0 -54 -8 -105t-17 -103t-17 -104 t-8 -102q4 -34 31 -43t63 -6t79 14t80 19t61 6t24 -28q-24 -14 -67 -30t-92 -28t-98 -14h-12q-41 0 -73 12q-36 14 -54 47q-11 20 -11 49q0 20 5 44q0 74 21 143t21 139q-22 0 -59 -5t-78 -12t-79 -15t-60 -14q-22 -112 -58 -189t-74 -123t-73 -65q-32 -17 -54 -17h-4 q-23 2 -28 22zM182 548q0 -28 21 -41t43 -23q42 42 44 83v8q0 35 -15 52q-10 11 -22 11q-10 0 -23 -7q-28 -15 -48 -83z" />
<glyph unicode="s" horiz-adv-x="984" d="M-9 108q19 28 97 56l-42 66q-6 4 3 11t19 7q2 0 14 -3t26 -6t26 -6t16 -3h10h12q12 8 42 31t64 50t62 51t40 34q10 6 27 23t37 38t38 39l26 26q12 14 22 37t23 42t30 34t41 15q20 0 26 -14t6 -30q0 -18 -7 -32t-15 -29t-15 -30t-7 -33v-416q104 0 158 19t91 53t72 79 t101 95v-22q0 -40 -28 -82t-72 -80t-98 -70t-109 -53t-105 -29q-25 -4 -46 -4t-38 4q-50 0 -93 14t-83 37t-82 48t-90 47q-70 -46 -124 -56q-25 -5 -42 -5q-21 0 -32 7q-10 6 -10 17q0 9 9 23zM276 186q12 -26 46 -47t75 -36t83 -23t76 -8q0 88 -6 174t-22 172 q-8 -4 -32 -21t-32 -23l-36 -36t-57 -56t-58 -58t-37 -38z" />
<glyph unicode="t" horiz-adv-x="558" d="M-114 476q0 40 25 48t58 10t65 10t42 48l104 398l42 42q18 -6 20 -16t2 -24q0 -4 -1 -12t-1 -12l-104 -420v-10q20 -11 47 -11q8 0 16 1q37 4 77 16t78 24t66 14q0 -54 -29 -80t-72 -36q-31 -7 -64 -7q-14 0 -28 1q-49 4 -87 12q-18 -42 -33 -93t-15 -93q0 -48 10 -95 t34 -84t62 -61t94 -24q94 14 138 37t71 41t56 29q15 6 39 6q22 0 50 -5q-18 -36 -61 -63t-96 -44t-107 -27t-94 -14h-11q-157 0 -210 116q-38 84 -38 232q0 65 7 142l-26 -8q-6 -4 -27 -8t-44 -4t-40 4t-15 20z" />
<glyph unicode="u" horiz-adv-x="842" d="M7 101q0 66 40 178q41 115 143 299q13 -27 13 -58q0 -19 -5 -40q-14 -54 -41 -115t-57 -129t-38 -140q0 -40 19 -46t57 -6q44 0 88 27t84 72t73 102t56 112t37 105t14 82l12 14q4 4 7 9t5 5q8 0 19 -5t11 -19q-29 -156 -29 -251q0 -17 1 -32q6 -99 36 -145t72 -52 q32 -4 60 -4h18q136 66 185 74q39 6 39 -6q0 -3 -2 -7q-12 -21 -74 -55t-148 -48q-130 0 -194 67q-51 54 -51 154q0 25 3 53q-28 -56 -53 -114t-60 -103t-89 -72t-136 -27q-46 4 -80 28q-35 25 -35 93z" />
<glyph unicode="v" horiz-adv-x="570" d="M44 620q4 10 10 28t22 18q8 0 8 -2l106 -568l20 20q34 50 55 91t40 83t35 91t38 113q0 10 17 25t25 17q4 2 21 -8t19 -12q8 -2 30 -9t46 -15t45 -16t27 -10v-22q0 -4 -22 -2t-51 5t-59 7t-44 6l-180 -428q-12 -30 -30 -37t-44 -7q-4 0 -15 1t-15 3q-12 78 -38 236 t-66 392z" />
<glyph unicode="w" horiz-adv-x="858" d="M30 286q-3 49 -3 109q0 121 11 291q22 0 39 -16t17 -38q-2 -22 -3 -79t-1 -121t1 -121t3 -77q6 -96 31 -117t56 6t67 86t66 126t46 126q13 47 13 72q0 6 -1 11h52q8 -34 15 -100t15 -133t21 -127t33 -82q22 4 37 30t26 63t17 80t9 82t5 67t2 36l42 44q16 -48 27 -76 t26 -45t39 -23t66 -6q58 38 85 47t31 1q1 -2 1 -4q0 -8 -12 -23q-15 -19 -36 -38t-47 -33t-44 -12q-34 0 -59 1t-55 21q-6 -24 -15 -73t-28 -98t-49 -87t-78 -38q-26 0 -48 37t-37 84t-26 92t-15 61q-36 -66 -79 -134t-86 -109t-81 -41t-63 66t-33 212z" />
<glyph unicode="x" horiz-adv-x="674" d="M40 -198l238 438l-192 450q21 21 38 21q4 0 8 -1q20 -6 36 -33t32 -71t34 -94t40 -98t54 -82q16 16 42 56t51 84t49 83t34 53l9 10t21 19t27 10t27 -19l-214 -402q38 -28 72 -43t65 -24t64 -15t69 -12q18 -2 33 9t28 24t29 25t38 12q-18 -88 -71 -110q-35 -15 -76 -15 q-21 0 -43 4q-66 11 -134 40t-116 43q-46 -50 -80 -122t-67 -134t-67 -97q-20 -20 -42 -20q-17 0 -36 11z" />
<glyph unicode="y" horiz-adv-x="702" d="M-44 -866q0 96 36 208t95 222t129 212t142 174q19 40 19 91v5v22q0 44 3 92q-22 -28 -49 -58t-59 -55t-68 -41t-78 -16h-4q-75 0 -94 143q-5 37 -5 83q0 137 45 356q4 4 20 12t20 8q12 0 18 -10t7 -24t0 -25l-1 -11q0 -30 -8 -80t-16 -105t-15 -106t-7 -81v-48t5 -29 t19 -16t44 -3q76 0 126 56t83 135t51 161t28 132q22 12 41 -1t23 -19v-10q0 -58 -10 -115t-22 -116t-22 -124t-10 -139q20 14 58 38t80 51t80 50t56 39q8 6 21 19t16 12q1 0 1 -2q0 -5 -8 -23q-10 -24 -48 -90q-10 -8 -41 -35t-66 -58t-67 -58t-40 -35q-44 -92 -61 -197 t-27 -209t-23 -197t-47 -162t-98 -106q-48 -28 -124 -28q-25 0 -52 3q-50 0 -73 32t-23 76zM22 -818q0 -36 15 -65t59 -29h6q56 0 95 35q41 37 67 99t42 140t25 160t15 161t12 141l-4 2h-4q-22 0 -56 -37t-71 -96t-73 -132t-64 -145t-46 -134t-18 -100z" />
<glyph unicode="z" horiz-adv-x="1100" d="M14 36q52 62 99 141t105 149t136 116q72 42 171 42h17q52 0 76 -32t32 -76q5 -29 5 -60q0 -15 -1 -31q-4 -47 -6 -77q30 -24 46 -47t28 -50t22 -54t28 -57q36 26 89 62t111 69t116 55t106 22q4 0 12 -8t8 -12l-20 -20q-116 -44 -227 -100t-195 -154q0 -48 -19 -122 t-54 -155t-82 -157t-102 -123t-113 -55q-7 -1 -15 -1q-50 0 -99 47q0 60 38 114t70 96q14 20 53 68t82 101t82 102t55 67t19 29t3 29q0 22 -2 51t-10 56t-26 46t-46 19q-26 0 -49 -13t-46 -30t-50 -31t-57 -14q-32 0 -53 6t-21 42q0 26 19 40t47 22t62 17t61 30t47 56t20 99 q0 40 -14 66t-58 26q-70 0 -132 -47t-119 -113t-108 -140t-97 -126zM370 -642q0 -4 1 -16t3 -16q62 2 115 56t93 127t64 148t24 121v17t-2 15q-34 -26 -84 -81t-98 -120t-82 -133t-34 -118zM416 84q2 0 5 -1t7 -1q14 0 24 6t28 16h-12q-16 0 -26 -5t-26 -15z" />
<glyph unicode="{" horiz-adv-x="568" d="M48 56q0 74 20 134t52 111t68 95t67 86t52 83t21 89q0 52 -34 73t-74 27t-74 9t-34 23q0 32 27 52t60 42t59 48t26 68q0 60 -33 107t-73 95t-73 104t-33 136q0 62 29 111t74 83t101 52t114 18q20 0 46 -3t50 -13t40 -28t16 -46q-46 0 -78 14t-78 14q-130 0 -208 -106 q0 -6 -1 -19t-1 -29v-29v-19q0 -76 33 -126t73 -93t74 -85t34 -104q0 -52 -28 -101t-56 -89q28 -20 51 -38t40 -36t26 -43t9 -61q0 -80 -43 -145t-95 -130t-95 -140t-43 -175q0 -140 72 -191t202 -51q50 0 81 3t56 14t51 33t64 56v-4v-4q0 -2 2 -2q0 -2 -1 -6t-1 -6 q-2 -6 -9 -21t-11 -19q-12 -16 -33 -37l-41 -41t-35 -34t-17 -14h-294q-56 0 -94 34t-60 81t-31 100t-9 93z" />
<glyph unicode="|" horiz-adv-x="208" d="M48 16q0 408 6 811t20 811q14 10 25 15t27 5q12 0 19 -3t13 -17v-55t1 -82t1 -83v-54q0 -332 -15 -661t-9 -659q-20 -18 -43 -23t-45 -5z" />
<glyph unicode="}" horiz-adv-x="798" d="M22 1554q0 32 33 65t79 61t93 45t77 17q162 0 239 -83t77 -237q0 -78 -30 -132t-72 -100t-84 -93t-68 -109q-4 -16 4 -34q2 -8 6 -18h152l-4 -20q-4 -24 -10 -34q-16 -28 -32 -42t-28 -27t-19 -30t-7 -51q0 -40 24 -69t59 -57t76 -60t77 -77t60 -107t24 -154 q0 -78 -33 -167t-90 -163t-135 -123t-166 -49q-104 0 -158 68t-54 172q0 6 1 28t1 26q34 -22 53 -57t41 -70t49 -59t77 -24q78 0 136 46t96 114t58 146t20 142q0 58 -24 104t-60 81t-77 66t-77 65t-59 75t-23 95v54q0 2 4 11t8 20t7 20t3 11q-4 14 -17 23t-29 18t-28 24 t-12 41q0 22 5 40t17 44q30 26 73 69t84 94t69 106t28 107q0 118 -60 187t-174 69q-14 0 -37 -1t-23 -3q-12 -4 -40 -17t-58 -29t-56 -33t-34 -25h-32z" />
<glyph unicode="~" horiz-adv-x="840" d="M92 1158q-4 52 14 85t46 50t58 19t48 -6q38 0 71 -15t64 -33t65 -34t76 -16h60t51 10t37 34t14 72q0 66 -16 94t-66 28q0 28 20 32t36 4q48 0 70 -44t22 -100q0 -66 -19 -106t-50 -63t-72 -31t-87 -8q-42 0 -80 18t-72 39t-69 39t-71 18q-40 0 -71 -29t-55 -57h-24z" />
<glyph unicode="&#xa1;" horiz-adv-x="252" d="M78 -202q26 -19 41.5 1.5t25.5 67t14.5 110.5t5.5 129.5t2 125.5t3 96v27q0 12 -4 24.5t-27 12.5q-22 0 -31 -16q-4 -14 -6 -51.5t-4 -86.5t-4 -104.5t-4 -104t-3 -86t-3 -54.5q0 -4 -1 -16.5t-2 -28t-2 -28.5t-1 -18zM168 663q0 -21 23.5 -32.5t46.5 -11.5v17t-2.5 22.5 t-11.5 19.5t-25 8q-31 0 -31 -23z" />
<glyph unicode="&#xa2;" horiz-adv-x="742" d="M22 245q16 73 59 140t104 119t129 66q0 28 1 53t3 59q14 10 25 15t27 5q10 0 18 -3t14 -17v-114q36 -10 71 -39t63 -79v-8q-4 -6 -20 -21t-20 -19q-36 74 -92 92v-86v-129v-73v-35v-14v-14t2 -33q74 22 144 46t124 37t79 7t11 -44q-108 -50 -196 -81t-160 -49v-52t2 -68 q-18 -16 -42 -21t-46 -5v132q-130 -18 -200 14t-93 89t-7 130zM82 148q20 -60 86 -68t152 10q-2 80 -4 120t-4 74t-2 78t2 130q-44 -14 -86 -47t-74 -79t-51 -103t-19 -115z" />
<glyph unicode="&#xa3;" horiz-adv-x="1594" d="M32 230q-2 56 24 91t70 52t99 17t112 -14t107 -39t84 -59q12 14 29 55t32 88t29 89t26 62l-350 76q-12 -2 -14 10t-2 16q0 28 20 27t42 -1q20 0 66 -8t98 -19t97 -24t65 -21q18 176 67 291t117 181t149 86t158 9t147 -48t120 -89q44 -78 45 -93t-29 5t-87 57t-125 67 t-144 35t-146 -41t-128 -158t-92 -322q154 0 244 -16t127 -37t29 -37t-46 -18l-374 50q-6 0 -19 -38t-31 -90t-36 -102t-32 -70q180 -6 315 -36t234 -64t168 -63t112 -36t67 16t36 95l40 28q-2 -132 -26 -185t-75 -54t-129 34t-191 76t-262 74t-339 27q-140 -28 -234 -56 t-151 -31t-83 30t-30 125zM82 198q16 -44 52 -43t90 18t126 37t162 12q-14 28 -53 51t-88 38t-102 18t-95 -9t-69 -41t-23 -81z" />
<glyph unicode="&#xa4;" horiz-adv-x="1064" d="M121 973q-1 25 20 27t55 -19t66 -63q16 -30 42 -42t44 -28h2h-2h2q48 30 98 57t114 27q60 0 115 -14t95 -50q16 16 31 33t31 45q28 54 59 77t50 20t18 -31t-35 -80q-26 -32 -52 -62t-62 -46q22 -34 33 -76t11 -96q0 -72 -18 -134t-54 -110q46 -18 73 -55t57 -79 q32 -56 34 -87t-16 -34t-48 22t-58 83q-20 38 -37 60t-35 50q-48 -52 -109 -83t-133 -31q-22 -4 -46 3t-42 17t-28 19t-4 1q-18 -34 -56 -76q-16 -18 -26 -30t-19 -24t-17 -25t-22 -27q-4 -4 -13 -4t-13 4q-2 28 9 58t27 60t35 58t35 46q-10 12 -26 33t-30 51t-24 70t-6 90 q4 56 15 112t41 102q-48 16 -80 49t-60 65q-40 42 -41 67zM296 574q0 -62 22 -108t57 -77t79 -45t88 -14q32 0 75 16t82 45t66 69t27 86q20 102 -1 162t-59 92t-83 42t-71 14q-120 0 -201 -69t-81 -213z" />
<glyph unicode="&#xa5;" horiz-adv-x="1142" d="M16 1444q0 32 28 46q12 8 44 19t69 25t71 25t46 17h10q18 0 23 -10t9 -32l404 -646l5 6t14 26t28 62t53 119t83 193t121 282q2 14 0 33t0 41t9 39t25 27h4q2 0 4 1t4 1q30 0 30 -30v-12q-2 -22 -27 -97t-62 -178t-79 -217t-78 -211t-61 -160l-25 -63l-4 -78 q74 -6 133 -21t71 -37l-20 -18h-188l-4 -76h30q40 0 82 -1t76 -23q-10 -20 -64 -32t-126 -20l-22 -460q-18 -70 -34 -51t-28 93t-20 185t-12 225q-58 -4 -105 -4h-59q-42 0 -42 46q0 14 3 25t19 15q4 0 60 1t122 1v38t2 38h-158q-14 0 -39 16t-25 36q0 22 16 27t34 5h66 t110 -2q2 22 3 43t5 39l-398 710h-10q-4 0 -8 1t-6 1q-56 0 -104 -14t-108 -14z" />
<glyph unicode="&#xa6;" horiz-adv-x="218" d="M52 958q2 92 5 175t8 165t9 165t8 175q14 10 25 15t29 5q10 0 17 -3t13 -17v-55t1 -82t1 -83v-54v-106v-94t-1 -93t-3 -105zM68 -74q0 224 2 444t6 444l96 4q-6 -218 -13 -433t-3 -433q-18 -16 -42 -21t-46 -5z" />
<glyph unicode="&#xa7;" horiz-adv-x="940" d="M112 964q6 60 56 113t118 89t147 50t145 -3t109 -71t37 -156l-6 -10q-6 -2 -28 -7t-26 -5q10 66 -13 107t-66 60t-99 18t-112 -21t-109 -58t-87 -92q-10 -36 6 -66t49 -54t79 -44t98 -38q70 32 145 45t138 -7t102 -76t33 -160q28 -30 20 -70t-60 -110q40 -46 35 -100 t-38 -107t-87 -104t-114 -85t-119 -50t-102 -2t-64 61t-3 137l6 10q4 4 24 12t24 12q-32 -88 -10 -126t74 -38t119 29t119 74t79 97t-1 100q-150 14 -251 42t-160 62t-83 73t-18 80t34 79t72 70q-124 54 -171 117t-41 123zM286 578q14 -38 38 -68q4 4 4 2q134 -66 230 -80 t160 18q42 26 58 63t-2 91q-14 52 -52 89t-89 50t-111 3t-114 -54q-38 -22 -68 -51t-54 -63z" />
<glyph unicode="&#xa8;" horiz-adv-x="674" d="M125 1289q1 29 49 47q16 0 40 -24t24 -42q-14 -50 -43 -52t-50 20t-20 51zM401 1289q1 29 47 47q16 0 40 -24t24 -42q-14 -50 -43 -52t-49 20t-19 51z" />
<glyph unicode="&#xa9;" horiz-adv-x="1162" d="M62 440q0 112 39 203t108 154t166 96t211 33q92 0 180 -28t157 -78t110 -121t41 -157q0 -116 -45 -216t-124 -173t-183 -114t-220 -41q-88 0 -171 36t-146 95t-97 140t-26 171zM98 436q0 -84 40 -155t104 -122t141 -79t151 -28q50 0 128 34t153 89t130 121t59 132 q-196 -110 -335 -158t-232 -49t-144 34t-68 92t-3 125t49 132t86 112t112 64t127 -6t126 -104v-8q-4 -6 -20 -22l-20 -20q-26 60 -68 82t-88 15t-92 -38t-83 -80t-60 -109t-23 -124q20 -40 76 -47t128 5t156 39t160 53t137 47t89 23q16 120 -31 192t-120 110t-150 51 t-121 19q-98 0 -187 -29t-157 -82t-109 -132t-41 -179z" />
<glyph unicode="&#xaa;" horiz-adv-x="576" d="M32 386q-1 30 12 64t34.5 66t49 57.5t58.5 40.5t62.5 15.5t60.5 -19.5q-10 -27 -18.5 -59.5t-12.5 -65.5t-1 -64t16 -54.5t40.5 -38.5t71.5 -15q26 4 40 12t24.5 19t21.5 25t33 32h5q-3 -38 -16 -60t-32.5 -35t-44 -16.5t-50.5 -3.5q-67 0 -105.5 29.5t-43.5 97.5 q-3 -13 -17 -34t-33.5 -40t-42.5 -31t-43 -10q-36 11 -52 34.5t-17 53.5zM67 393q0 -12 1 -23t5 -19.5t11.5 -13.5t21.5 -5q25 1 52 27t48.5 62t35 74.5t15.5 65.5q-12 24 -38.5 25t-56.5 -20.5t-56.5 -65t-38.5 -107.5z" />
<glyph unicode="&#xab;" horiz-adv-x="1094" d="M130 556v6q0 14 16 20q128 56 245 118t233 138q20 14 40 14q2 -2 4 -2h2q8 -4 20 -13t14 -13t-6 -16t-12 -14q-98 -62 -212 -127t-230 -111l380 -440q2 -4 -4 -19t-14 -21h-14q-30 0 -45 25t-25 47q-12 16 -49 58t-79 89t-80 89t-54 58q-6 6 -24 23t-40 35t-40 33t-26 23 zM444 540v6q0 16 16 22q130 56 247 118t233 138q18 14 38 14q2 -2 6 -2h2q8 -4 20 -13t14 -15q2 -4 -6 -15t-12 -13q-98 -64 -212 -128t-230 -112l380 -438q2 -4 -4 -19t-14 -21h-14q-32 0 -46 25t-24 47q-12 16 -49 58t-79 89t-80 89t-54 58q-6 6 -25 22t-40 35t-40 34 t-27 21z" />
<glyph unicode="&#xac;" horiz-adv-x="902" d="M90 734q0 20 7 29t20 11t28 1t31 -1q16 2 55 4t90 5t110 5t113 5t99 4t71 3q6 2 20 2h4q36 2 37 -9t3 -25q2 -6 7 -40t11 -81t14 -101t14 -101t10 -81t6 -40l2 -2v-2q0 -8 -12 -12t-26 -4q-16 0 -25 3t-11 15l-54 394l-602 -24q-16 -2 -19 15t-3 27z" />
<glyph unicode="&#xad;" horiz-adv-x="750" d="M114 465q2 17 2 25q6 20 16 28t22 6t27 -7t31 -9q24 -6 83 -20t125 -31t123 -31t81 -18l12 -4q20 -6 23 -20t-1 -30q-4 -18 -14 -25t-40 -3l-474 118q-18 4 -16 21z" />
<glyph unicode="&#xae;" horiz-adv-x="1110" d="M62 440q0 112 39 217t107 183t164 125t212 47q98 0 187 -33t156 -93t107 -147t40 -197q0 -88 -31 -180t-100 -170t-177 -131t-264 -63q-88 0 -171 36t-146 95t-97 140t-26 171zM116 440q0 -84 37 -152t96 -116t133 -73t148 -25q158 0 260 58t156 150q-18 -16 -43 -32 t-49 -30t-47 -22t-35 -8q-34 -6 -58 18t-42 64t-35 86t-36 88t-47 69t-66 27q-6 -146 -18 -220t-25 -105t-30 -35t-37 -14q-44 -2 -63 25t-20 73t15 105t39 122t52 124t55 113q0 32 -3 38t-9 0l-17 -17t-25 -13l-6 50q2 2 11 9t21 16t22 15t16 6q16 0 22 -18t10 -28 q0 -4 1 -15t2 -24t3 -25t2 -18q2 8 22 30t47 46t54 47t43 31q64 32 98 20t44 -48t-3 -86t-41 -94t-71 -75t-95 -25q24 -22 44 -68t40 -91t45 -79t61 -34q12 0 36 3t50 10t50 15t38 18q46 100 42 213t-53 205t-141 149t-216 47q-98 0 -185 -40t-154 -109t-106 -160t-39 -191z M356 230q4 -26 14 -19t21 34t22 69t19 86t13 86t3 72q-18 -24 -34 -67t-29 -91t-21 -94t-8 -76zM490 592q40 -16 84 4t81 56t62 77t29 67t-18 26t-76 -46q-30 -22 -60 -42t-56 -41t-39 -45t-7 -56z" />
<glyph unicode="&#xb0;" horiz-adv-x="300" d="M50 758q0 46 32 72t86 26q44 0 74 -20t30 -66q0 -48 -35 -75t-87 -27q-42 0 -73 26t-27 64zM76 754q0 -36 24 -48t60 -12q22 0 52 14t30 44q4 26 -2 41t-18 24t-26 11t-24 4q-46 0 -71 -19t-25 -59z" />
<glyph unicode="&#xb1;" horiz-adv-x="872" d="M18 670h348q0 86 -7 157t-7 147q0 20 14 27t32 7t34 -7t16 -37v-270q6 0 27 -2t27 -2q18 2 62 8t94 12t94 13t64 11q12 14 16 -3t-28 -43t-112 -53t-234 -31v-310h14q72 4 134 6t109 3t63 3h14q18 0 25 -13t7 -29q0 -20 -8 -30t-38 -12l-674 -22q-18 -2 -21 15t-3 25 q0 22 7 31t20 11t28 1t31 -1q16 2 64 4t110 4h46v304q-18 0 -58 -2t-85 -3t-85 -2t-56 -1q-42 4 -63 21t-21 63z" />
<glyph unicode="&#xb2;" horiz-adv-x="626" d="M242 247q22 68 54.5 122t70 100.5t79.5 87.5t83 84q22 22 30.5 42.5t18.5 49.5q14 46 15 75t-31 36q-27 6 -50.5 -15t-42.5 -47t-33.5 -49.5t-25.5 -20.5q-16 3 -8 32q14 38 36.5 72t49 57t54 33.5t48.5 7.5q22 -7 32 -23t11 -40.5t-5.5 -54.5t-16.5 -61 q-16 -51 -39 -89.5t-49.5 -68.5t-53.5 -55.5t-51 -50t-43.5 -51t-29.5 -58.5q21 -7 40.5 -17t38 -21.5t38 -22t42.5 -16.5q11 -1 22.5 -3.5t22 0t20.5 13t17 33.5q8 21 6.5 39t-6 32t-6.5 28t2 29q3 7 6.5 15.5t9.5 3.5l48 -39q3 -4 0.5 -22.5t-7.5 -42t-10 -42t-7 -24.5 q-11 -32 -28.5 -50.5t-37.5 -28.5t-40 -12t-35 1q-19 4 -35 15.5t-31 24.5t-30.5 23.5t-35.5 14.5q-13 3 -26.5 -4.5t-27 -18t-27 -18.5t-26.5 -5z" />
<glyph unicode="&#xb3;" horiz-adv-x="526" d="M194.5 354q-4.5 27 5.5 61q11 41 29.5 62.5t42.5 39.5l3 -2q12 -3 6 -21q-3 -12 -9 -21.5t-13.5 -18.5t-13.5 -19t-9 -21q-6 -22 -2.5 -43t12.5 -36.5t22 -25.5t25 -11q25 -3 55.5 2.5t59 24t53 51t38.5 83.5q9 30 6.5 58t-11 50.5t-23.5 37.5t-31 19q-17 5 -34.5 2 t-33.5 2q-6 2 -9.5 5t-1.5 16q3 13 14 19.5t27.5 12.5t33.5 11t34 14t30 23t19 37q0 2 -1 7t-3 5q-3 2 -11 4.5t-17 5.5t-17 5t-11 3q-18 4 -34 3.5t-30.5 -3t-28.5 -3t-26 1.5q-11 3 -10 18.5t6 31.5q2 5 18 9t34 2.5t35.5 -6.5t24.5 -5q4 -1 20 -5.5t33 -9t33 -8.5t23 -6 q3 4 11.5 6.5t12.5 1.5q1 -1 3.5 -10.5t-12 -32.5t-27.5 -41t-25.5 -35t-16.5 -23q-4 -1 -5 -3q-5 -5 -5 -7v-2l-2 -4v-4q-1 0 -1 -1q15 -18 27.5 -37t20 -42.5t7.5 -53.5t-9 -66q-17 -67 -48 -111t-68.5 -68.5t-77 -32t-72.5 0.5q-16 5 -32 18.5t-27.5 35.5t-16 49z" />
<glyph unicode="&#xb4;" horiz-adv-x="368" d="M86 1084q-4 12 0 18q12 22 23 38t23 31t24 32t24 43q32 62 66 92t55 26t20 -39t-41 -99q-34 -52 -74 -96t-110 -60q-6 2 -10 14z" />
<glyph unicode="&#xb5;" horiz-adv-x="842" d="M154 756q16 38 35 23t44 -63t56 -118t71 -135t89 -118t109 -65q36 0 53 5t17 47q-18 96 -37 188t-26 161t3 106t50 25q74 -202 89 -320t-2 -179t-57 -77t-78 -14q-82 0 -135 26t-88 68t-60 95t-51 109q26 -332 15 -484t-35 -125t-45 238t-17 607z" />
<glyph unicode="&#xb6;" horiz-adv-x="892" d="M28 816q0 126 70 202t194 76q64 0 122 -23t104 -63q38 2 68 8t62 12t67 10t79 4q12 0 22 -2t16 -20q0 -6 1 -25l2 -38t1 -37v-28q0 -182 13 -356t13 -360q0 -100 -9 -143t-23 -48t-30 18t-28 53t-17 58t1 32q0 198 -18 390t-18 392q-72 -26 -138 -30q4 -46 9 -112 t10 -139t11 -151t11 -147t10 -122t9 -79v-62q0 -12 -11 -42t-25 -53t-26 -27t-14 32l-52 614l-20 20q-34 -16 -58 -28t-46 -19t-44 -11t-52 -4q-126 0 -196 62t-70 186z" />
<glyph unicode="&#xb7;" horiz-adv-x="274" d="M103 566q1 30 49 46q16 0 40 -23t24 -43q-16 -48 -44 -50t-49 19t-20 51z" />
<glyph unicode="&#xb8;" horiz-adv-x="862" d="M220 -440q0 34 16 65t58 31q12 0 22 -3t10 -15v-2q0 -2 -2 -4l-58 -60q-2 -2 -2 -10q0 -34 28 -55t56 -21q40 0 87 11t88 36t68 61t27 84q0 90 -54 131t-140 41q-38 0 -73 -12t-73 -12h-24q0 6 -3 23t-7 37t-7 37t-5 23q-12 52 0 78t29 20t30 -41t-1 -105q0 -10 9 -10h15 q32 0 63 6t65 6q100 0 167 -58t67 -162q0 -58 -31 -103t-78 -76t-102 -47t-105 -16h-70q-36 18 -53 51t-17 71z" />
<glyph unicode="&#xb9;" horiz-adv-x="264" d="M150 240q-1 9 0 17l101 312q1 4 4 16.5l6 25t5.5 24t2.5 15.5q-4 -1 -15.5 -4.5t-24 -7.5t-24.5 -7.5t-16 -3.5h-6h-5q8 22 24 36t35 23.5t40.5 19t38.5 21.5l2 -1l1 1h1q6 -1 6.5 -14t0.5 -20q-17 -51 -35.5 -106t-36.5 -113t-34.5 -116t-29.5 -111q-7 -6 -19 -12.5 t-18 -10.5q-3 7 -4 16z" />
<glyph unicode="&#xba;" horiz-adv-x="596" d="M47 854q0 41 15 94.5t41.5 100.5t62 80t77.5 33q16 0 27 -5.5t19 -30.5q-38 -14 -74 -40t-64 -60t-44.5 -77t-16.5 -95q0 -21 1.5 -39.5t7.5 -33t17 -23t31 -8.5q51 0 82 18t60 61q-13 26 -13.5 55.5t-0.5 58.5q0 30 5 79t19 93.5t36.5 78t56.5 33.5q20 0 36.5 -7.5 t27.5 -27.5q0 -5 0.5 -13.5t0.5 -19t0.5 -20.5t0.5 -13q0 -38 -4.5 -68t-14 -58t-23 -57t-29.5 -64q3 0 14.5 -1t14.5 -1q30 0 63 9.5t65.5 24t63.5 32.5t57 33l12 -15q-68 -66 -156 -104t-175 -44l-129 -95q-16 -15 -41.5 -16t-43.5 -1q-29 0 -45.5 12.5t-25.5 34t-11.5 49 t-2.5 57.5zM316.5 938.5q-0.5 -9.5 0.5 -19t4 -16.5t11 -8q21 15 37.5 39.5t27 53.5t15.5 60t5 59q0 2 1 11t0 22t-4 23t-13 12q-19 -15 -35.5 -41.5t-27 -58t-16 -63.5t-5.5 -61q0 -3 -0.5 -12.5z" />
<glyph unicode="&#xbb;" horiz-adv-x="1130" d="M64 858q2 4 14 13t20 13h2q2 0 2 1t2 1q12 0 22 -4t20 -10q118 -74 236 -134t248 -116q18 -6 18 -20v-6q-10 -6 -28 -21t-39 -33t-41 -34t-26 -22q-16 -18 -54 -57t-81 -86t-80 -89t-51 -58q-10 -18 -25 -44t-45 -26h-14q-8 8 -14 23t-4 19l384 428q-116 46 -233 109 t-215 127q-4 2 -12 12t-6 14zM434 902q2 4 14 13t20 13h4q2 0 2 1t2 1q12 0 21 -4t19 -10q118 -74 236 -135t250 -115q16 -6 16 -20v-8q-8 -6 -27 -21t-40 -32t-41 -34t-26 -23q-16 -16 -54 -56t-81 -86t-80 -88t-51 -58q-10 -18 -24 -44t-46 -26h-14q-8 6 -14 21t-4 19 l386 428q-118 46 -235 110t-215 126q-4 2 -12 13t-6 15z" />
<glyph unicode="&#xbc;" horiz-adv-x="1410" d="M208 266q-2 2 1 7t23 33t67 89t138 170t234 271t353 398l6 4q6 -2 7 0t7 2q12 2 33 -2t13 -34q0 -4 -6 -17t-15 -22t-16 -20t-13 -13q-106 -98 -211 -207t-204 -223t-194 -235t-173 -239q0 -4 -2 -4l-6 -2q-18 -2 -29 11t-13 33zM266.5 289.5q-1.5 12.5 0.5 23.5l143 430 q1 5 5.5 22t8.5 35t8 33t4 22q-7 -1 -23 -6.5t-33.5 -10.5t-34.5 -10.5t-23 -5.5h-8h-7q12 32 34 50.5t49 32t57 26.5t55 30l3 -1v0q1 1 2 1q9 -2 10 -20t1 -28q-25 -70 -51 -145.5t-51.5 -155.5t-49 -160t-41.5 -152q-10 -10 -27 -18t-25 -15q-5 10 -6.5 22.5zM657 337.5 q1 5.5 4 12.5q0 2 13 17.5t32 38.5t42.5 48.5t43.5 47.5t35 36t19 14q16 -3 10 -21q-3 -6 -5.5 -11.5t-10.5 -4.5l-97 -126l-3 -10q35 -8 64.5 -24t64.5 -24q5 0 15.5 -2t12.5 -1l9 6q0 1 2 6t4 10.5t4 12.5t5 12q6 20 11.5 38.5t11 35.5t10.5 36.5t8 41.5q5 6 8.5 12t9.5 5 l1 -1q1 -2 2 -2q3 -4 7.5 -11.5t1.5 -9.5l-43 -176q-3 -11 -1 -15.5t9 -6.5q9 -1 17.5 4t15 13.5t12 18.5t7.5 18q7 -1 9.5 -6.5t3 -11.5t-1.5 -15t-4 -14q-5 -15 -15 -24.5t-20.5 -14t-23 -7t-21.5 -3.5q-2 -4 -3.5 -10.5t-4 -13.5t-4.5 -13t-4 -10q-10 -27 -17 -50.5 t-12.5 -47t-11 -50.5t-13.5 -63q6 -2 4 -10t-4 -15q-4 -12 -12.5 -20.5t-19.5 -5.5q-4 0 -9 2.5t-4 10.5l67 296l-15 6q-15 7 -36 14.5t-43.5 15t-38.5 13.5l-19 4q-11 3 -18 3h-15t-17.5 -1.5t-22.5 -6.5q-7 4 -6 9.5z" />
<glyph unicode="&#xbd;" horiz-adv-x="1342" d="M106 176q-2 2 1 7t23 33t67 89t138 170t234 271t353 398l6 4q6 -2 7 0t7 2q12 2 33 -2t13 -34q0 -4 -6 -17t-15 -22t-16 -20t-13 -13q-106 -98 -211 -207t-204 -223t-194 -235t-173 -239q0 -4 -2 -4l-6 -2q-18 -2 -29 11t-13 33zM197 247.5q-1 13.5 0 24.5l134 453 q1 6 5.5 23.5t8 36.5t7 35t3.5 22q-6 -1 -21 -6.5t-31.5 -11t-32.5 -11t-21 -5.5h-7.5h-6.5q11 33 31.5 53t46 34t53.5 27.5t51 31.5l3 -1v0q1 1 2 1q9 -2 9.5 -21t0.5 -29q-23 -74 -47.5 -153.5t-48 -163.5t-45.5 -168t-39 -160q-10 -10 -26 -19t-23 -15q-5 9 -6 22.5z M578 12q18 70 45.5 126.5t59.5 105t68 91.5t71 88q19 23 26 44.5t15 51.5q13 49 13.5 79t-25.5 37q-24 7 -44 -15.5t-36 -49.5t-28.5 -51.5t-21.5 -21.5q-14 4 -7 34q12 39 31 75t41.5 60t46 34.5t41.5 7.5q19 -6 27.5 -23t9 -42.5t-4.5 -57t-14 -64.5q-14 -53 -33.5 -93 t-42 -71.5t-45.5 -58.5t-43.5 -52.5t-37 -53t-25.5 -61.5q18 -6 34.5 -17t32.5 -23t32.5 -23t35.5 -17q10 -1 19.5 -4t18.5 0t17.5 13.5t15.5 35.5q6 22 5 40.5t-4.5 33t-6 29.5t2.5 31q2 7 5 16t7 4l42 -42q2 -3 0 -22.5t-6.5 -44t-8.5 -44t-5 -26.5q-10 -32 -25 -51.5 t-32 -30t-34 -12.5t-30 1q-16 4 -29.5 16t-26.5 25.5t-26.5 24.5t-30.5 16q-10 3 -22 -5.5t-23 -19t-23 -19t-22 -4.5z" />
<glyph unicode="&#xbe;" horiz-adv-x="1466" d="M232 369.5q-5 34.5 7 77.5q13 52 35 79.5t52 49.5l3 -2q14 -4 7 -27q-3 -15 -10.5 -27t-16 -23.5t-16 -24t-11.5 -26.5q-7 -28 -3 -54.5t15 -46t26.5 -32.5t29.5 -14q31 -5 67.5 2.5t71 31t63.5 64.5t47 105q10 40 7 75t-13 63.5t-28 47.5t-38 25q-20 5 -41 1.5t-40 2.5 q-7 3 -11.5 7t-1.5 20t16.5 24.5t33 16t40.5 14t41 18t35.5 29t23.5 47.5q0 2 -1 8.5t-5 6.5q-3 2 -12.5 5.5t-20.5 7t-20.5 6.5t-13.5 4q-21 5 -40 4t-37 -3.5t-34.5 -4t-30.5 2.5q-14 3 -13 23t7 39q2 7 21.5 12.5t41.5 3t43 -8.5t29 -7q5 -1 24 -6t40 -11t40 -11t27 -8 q3 5 13.5 8.5t15.5 1.5q1 -2 4.5 -14t-14.5 -41t-33.5 -52t-30.5 -44.5t-20 -27.5q-4 -3 -5 -5q-6 -6 -6 -8q-1 -2 -1 -4l-3 -4v-5q-1 -1 -1 -2q19 -22 34 -46.5t24 -54.5t9 -68t-12 -83q-19 -86 -56.5 -141t-83 -86.5t-92.5 -41.5t-87 1q-19 6 -38.5 23t-33.5 45t-19 62.5z M250 222q-2 2 1 7t23 33t67 89t138 170t234 271t353 398l6 4q6 -2 7 0t7 2q12 2 33 -2t13 -34q0 -4 -6 -17t-15 -22t-16 -20t-13 -13q-106 -98 -211 -207t-204 -223t-194 -235t-173 -239q0 -4 -2 -4l-6 -2q-18 -2 -29 11t-13 33zM772 393q1 7 4 16q0 2 15.5 22t37.5 49 t48.5 61.5t50 60t41 45.5t21.5 18q19 -4 12 -27q-4 -8 -7 -14.5t-11 -5.5l-113 -160l-3 -13q40 -9 74.5 -29.5t74.5 -30.5q6 0 18 -2.5t14 -1.5l11 8q0 1 2.5 7.5t5 13.5t4.5 15.5t5 14.5q7 26 13.5 49t13 45t12 46.5t8.5 52.5q6 8 10.5 15.5t11.5 6.5l1 -2q1 -2 2 -2 q4 -5 8.5 -15t2.5 -12l-50 -223q-4 -14 -1.5 -19.5t9.5 -8.5q11 -1 21 5.5t17 17.5t14 23.5t9 22.5q8 -2 11 -8.5t3.5 -14.5t-1.5 -19t-5 -17q-6 -19 -17 -31t-23.5 -18t-27 -9.5t-24.5 -4.5q-3 -4 -4.5 -12.5t-4.5 -17.5l-5.5 -16.5t-4.5 -12.5q-11 -34 -19.5 -64 t-15 -59.5t-12.5 -63.5t-15 -80q7 -3 4.5 -13t-4.5 -19q-5 -15 -15 -25.5t-22 -7.5q-5 0 -11 3t-5 14l78 374l-18 8q-17 9 -41 18t-50.5 19t-44.5 18l-22 5q-12 3 -20.5 3h-18t-20 -2t-25.5 -7q-8 4 -7 11z" />
<glyph unicode="&#xbf;" horiz-adv-x="830" d="M58 -43q3 66 25 136q22 78 53.5 131t72 94.5t89 76.5t106.5 72q0 3 4.5 15t4.5 15q16 53 28 108t23 111q37 42 49 39t10.5 -33t-14.5 -77.5t-27 -94t-26 -85.5t-10 -48q-96 -44 -152 -90.5t-88.5 -92.5t-45.5 -83.5t-20 -65.5q-15 -51 -17.5 -102.5t7.5 -93.5t32 -71.5 t57 -39.5q37 -8 79.5 4t81 37.5t73.5 65t61 92.5q13 26 11 46t8.5 74t36 2.5t-0.5 -134.5q-18 -63 -62 -114.5t-96 -87t-105 -52.5t-94 -7q-53 11 -88.5 46.5t-52 88t-13.5 118.5zM523.5 978.5q-1.5 14.5 3.5 35.5q0 2 1 2t1 1l2 3q5 10 20 22t18 12q12 0 17.5 -5t5.5 -12 t-3 -18.5t-7 -15.5q-7 -25 -16 -36t-26 -8q-15 5 -16.5 19.5z" />
<glyph unicode="&#xc0;" horiz-adv-x="1498" d="M18 96q0 18 22 30q62 -16 126 9t125 74t118 116t108 139t93 142t72 126q-6 2 -17 11t-25 19t-26 19t-16 13q-16 14 -49 45t-68 66t-62 68t-33 53q0 18 8 27t20 13t27 4h33q50 0 100 -14t99 -30t99 -29t100 -13q38 48 76 134t75 181t76 182t77 139q38 66 57 82t25 9t4 -25 t-2 -26q2 -26 6 -101t8 -173t9 -207t11 -205t10 -162t8 -80h22q88 42 136 56t63 8t4 -26t-41 -44t-73 -46t-89 -32q-6 -42 -4 -109t10 -146t19 -164t22 -166t18 -149t11 -112q0 -12 -2 -16t-6 -5t-13 -2t-23 -9q-28 104 -41 205t-21 204t-20 208t-40 211q-54 4 -117 18 t-129 30t-132 29t-120 15q-44 -44 -86 -109t-87 -136t-93 -139t-101 -122t-111 -88t-122 -34h-22t-32 1t-30 1h-22q-22 14 -22 32zM500 996q-8 -16 9 -43t52 -59t74 -57t75 -39t56 -4q10 10 16 22t11 26t13 33t24 45q-14 6 -53 18t-83 25t-83 25t-55 16q-48 8 -56 -8z M806 752q86 -22 171 -32t133 -24q-26 36 -79 88t-141 94q-16 -22 -43 -57t-41 -69zM944 942l288 -232q2 76 -1 189t-7 232t-10 224t-12 165zM1107 2053q-1 33 17 36t47 -24t57 -87q10 -22 21 -38t21 -29t20 -28t20 -35q4 -6 0 -17t-8 -13q-60 14 -94 55t-66 89 q-34 58 -35 91z" />
<glyph unicode="&#xc1;" horiz-adv-x="1498" d="M18 96q0 18 22 30q62 -16 126 9t125 74t118 116t108 139t93 142t72 126q-6 2 -17 11t-25 19t-26 19t-16 13q-16 14 -49 45t-68 66t-62 68t-33 53q0 18 8 27t20 13t27 4h33q50 0 100 -14t99 -30t99 -29t100 -13q38 48 76 134t75 181t76 182t77 139q38 66 57 82t25 9t4 -25 t-2 -26q2 -26 6 -101t8 -173t9 -207t11 -205t10 -162t8 -80h22q88 42 136 56t63 8t4 -26t-41 -44t-73 -46t-89 -32q-6 -42 -4 -109t10 -146t19 -164t22 -166t18 -149t11 -112q0 -12 -2 -16t-6 -5t-13 -2t-23 -9q-28 104 -41 205t-21 204t-20 208t-40 211q-54 4 -117 18 t-129 30t-132 29t-120 15q-44 -44 -86 -109t-87 -136t-93 -139t-101 -122t-111 -88t-122 -34h-22t-32 1t-30 1h-22q-22 14 -22 32zM500 996q-8 -16 9 -43t52 -59t74 -57t75 -39t56 -4q10 10 16 22t11 26t13 33t24 45q-14 6 -53 18t-83 25t-83 25t-55 16q-48 8 -56 -8z M806 752q86 -22 171 -32t133 -24q-26 36 -79 88t-141 94q-16 -22 -43 -57t-41 -69zM944 942l288 -232q2 76 -1 189t-7 232t-10 224t-12 165zM1172 1844q-4 12 0 18q12 22 23 38t23 31t24 32t24 43q32 62 66 92t55 26t20 -39t-41 -99q-34 -52 -74 -96t-110 -60q-6 2 -10 14z " />
<glyph unicode="&#xc2;" horiz-adv-x="1498" d="M18 96q0 18 22 30q62 -16 126 9t125 74t118 116t108 139t93 142t72 126q-6 2 -17 11t-25 19t-26 19t-16 13q-16 14 -49 45t-68 66t-62 68t-33 53q0 18 8 27t20 13t27 4h33q50 0 100 -14t99 -30t99 -29t100 -13q38 48 76 134t75 181t76 182t77 139q38 66 57 82t25 9t4 -25 t-2 -26q2 -26 6 -101t8 -173t9 -207t11 -205t10 -162t8 -80h22q88 42 136 56t63 8t4 -26t-41 -44t-73 -46t-89 -32q-6 -42 -4 -109t10 -146t19 -164t22 -166t18 -149t11 -112q0 -12 -2 -16t-6 -5t-13 -2t-23 -9q-28 104 -41 205t-21 204t-20 208t-40 211q-54 4 -117 18 t-129 30t-132 29t-120 15q-44 -44 -86 -109t-87 -136t-93 -139t-101 -122t-111 -88t-122 -34h-22t-32 1t-30 1h-22q-22 14 -22 32zM500 996q-8 -16 9 -43t52 -59t74 -57t75 -39t56 -4q10 10 16 22t11 26t13 33t24 45q-14 6 -53 18t-83 25t-83 25t-55 16q-48 8 -56 -8z M806 752q86 -22 171 -32t133 -24q-26 36 -79 88t-141 94q-16 -22 -43 -57t-41 -69zM944 942l288 -232q2 76 -1 189t-7 232t-10 224t-12 165zM1020 1798q12 26 43 77t71 108t84 109t82 78q2 0 3 -1t5 -1h6q0 -38 12 -82t30 -87t37 -82t31 -65q0 -2 5 -10l10 -16t9 -17t4 -11 v-2q0 -2 1 -3t1 -3q0 -10 -12 -20t-28 -10q-14 0 -20 14q-6 12 -20 44t-28 67t-27 67t-19 44q-4 8 -17 27t-17 25q-32 -18 -60 -62t-55 -88t-53 -79t-58 -35q-12 0 -20 14z" />
<glyph unicode="&#xc3;" horiz-adv-x="1498" d="M18 96q0 18 22 30q62 -16 126 9t125 74t118 116t108 139t93 142t72 126q-6 2 -17 11t-25 19t-26 19t-16 13q-16 14 -49 45t-68 66t-62 68t-33 53q0 18 8 27t20 13t27 4h33q50 0 100 -14t99 -30t99 -29t100 -13q38 48 76 134t75 181t76 182t77 139q38 66 57 82t25 9t4 -25 t-2 -26q2 -26 6 -101t8 -173t9 -207t11 -205t10 -162t8 -80h22q88 42 136 56t63 8t4 -26t-41 -44t-73 -46t-89 -32q-6 -42 -4 -109t10 -146t19 -164t22 -166t18 -149t11 -112q0 -12 -2 -16t-6 -5t-13 -2t-23 -9q-28 104 -41 205t-21 204t-20 208t-40 211q-54 4 -117 18 t-129 30t-132 29t-120 15q-44 -44 -86 -109t-87 -136t-93 -139t-101 -122t-111 -88t-122 -34h-22t-32 1t-30 1h-22q-22 14 -22 32zM500 996q-8 -16 9 -43t52 -59t74 -57t75 -39t56 -4q10 10 16 22t11 26t13 33t24 45q-14 6 -53 18t-83 25t-83 25t-55 16q-48 8 -56 -8z M806 752q86 -22 171 -32t133 -24q-26 36 -79 88t-141 94q-16 -22 -43 -57t-41 -69zM900 1922q-4 52 14 85t46 50t58 19t48 -6q38 0 71 -15t64 -33t65 -34t76 -16h60t51 10t37 34t14 72q0 66 -16 94t-66 28q0 28 20 32t36 4q48 0 70 -44t22 -100q0 -66 -19 -106t-50 -63 t-72 -31t-87 -8q-42 0 -80 18t-72 39t-69 39t-71 18q-40 0 -71 -29t-55 -57h-24zM944 942l288 -232q2 76 -1 189t-7 232t-10 224t-12 165z" />
<glyph unicode="&#xc4;" horiz-adv-x="1498" d="M18 96q0 18 22 30q62 -16 126 9t125 74t118 116t108 139t93 142t72 126q-6 2 -17 11t-25 19t-26 19t-16 13q-16 14 -49 45t-68 66t-62 68t-33 53q0 18 8 27t20 13t27 4h33q50 0 100 -14t99 -30t99 -29t100 -13q38 48 76 134t75 181t76 182t77 139q38 66 57 82t25 9t4 -25 t-2 -26q2 -26 6 -101t8 -173t9 -207t11 -205t10 -162t8 -80h22q88 42 136 56t63 8t4 -26t-41 -44t-73 -46t-89 -32q-6 -42 -4 -109t10 -146t19 -164t22 -166t18 -149t11 -112q0 -12 -2 -16t-6 -5t-13 -2t-23 -9q-28 104 -41 205t-21 204t-20 208t-40 211q-54 4 -117 18 t-129 30t-132 29t-120 15q-44 -44 -86 -109t-87 -136t-93 -139t-101 -122t-111 -88t-122 -34h-22t-32 1t-30 1h-22q-22 14 -22 32zM500 996q-8 -16 9 -43t52 -59t74 -57t75 -39t56 -4q10 10 16 22t11 26t13 33t24 45q-14 6 -53 18t-83 25t-83 25t-55 16q-48 8 -56 -8z M806 752q86 -22 171 -32t133 -24q-26 36 -79 88t-141 94q-16 -22 -43 -57t-41 -69zM944 942l288 -232q2 76 -1 189t-7 232t-10 224t-12 165zM1081 1991q1 29 49 47q16 0 40 -24t24 -42q-14 -50 -43 -52t-50 20t-20 51zM1357 1991q1 29 47 47q16 0 40 -24t24 -42 q-14 -50 -43 -52t-49 20t-19 51z" />
<glyph unicode="&#xc5;" horiz-adv-x="1498" d="M18 96q0 18 22 30q62 -16 126 9t125 74t118 116t108 139t93 142t72 126q-6 2 -17 11t-25 19t-26 19t-16 13q-16 14 -49 45t-68 66t-62 68t-33 53q0 18 8 27t20 13t27 4h33q50 0 100 -14t99 -30t99 -29t100 -13q38 48 76 134t75 181t76 182t77 139q38 66 57 82t25 9t4 -25 t-2 -26q2 -26 6 -101t8 -173t9 -207t11 -205t10 -162t8 -80h22q88 42 136 56t63 8t4 -26t-41 -44t-73 -46t-89 -32q-6 -42 -4 -109t10 -146t19 -164t22 -166t18 -149t11 -112q0 -12 -2 -16t-6 -5t-13 -2t-23 -9q-28 104 -41 205t-21 204t-20 208t-40 211q-54 4 -117 18 t-129 30t-132 29t-120 15q-44 -44 -86 -109t-87 -136t-93 -139t-101 -122t-111 -88t-122 -34h-22t-32 1t-30 1h-22q-22 14 -22 32zM500 996q-8 -16 9 -43t52 -59t74 -57t75 -39t56 -4q10 10 16 22t11 26t13 33t24 45q-14 6 -53 18t-83 25t-83 25t-55 16q-48 8 -56 -8z M806 752q86 -22 171 -32t133 -24q-26 36 -79 88t-141 94q-16 -22 -43 -57t-41 -69zM944 942l288 -232q2 76 -1 189t-7 232t-10 224t-12 165zM1086 1832q0 72 40 113t104 41q54 0 94 -26t40 -96q0 -76 -46 -125t-110 -49q-50 0 -88 41t-34 101zM1108 1830q0 -54 36 -81 t78 -27q14 0 33 8t38 20t31 29t12 39q8 44 -1 70t-26 40t-38 18t-33 6q-54 0 -92 -30t-38 -92z" />
<glyph unicode="&#xc6;" horiz-adv-x="2382" d="M18 96q0 18 22 30q62 -16 126 9t125 74t118 116t108 139t93 142t72 126q-6 2 -17 11t-25 19t-26 19t-16 13q-16 14 -49 45t-68 66t-62 68t-33 53q0 18 8 27t20 13t27 4h33q50 0 100 -14t99 -30t99 -29t100 -13q38 48 76 134t75 181t76 182t77 139q38 66 57 82t25 9t4 -25 t-2 -26q2 -26 6 -101t8 -173t9 -207t11 -205t10 -162t8 -80h22q86 22 142 33t90 15q-4 48 -13 90t-9 90t16 111t46 132t71 136t89 120t102 85t108 32q44 0 82 -19t64 -51t42 -73t16 -83q0 -8 1 -24t-1 -30t-11 -25t-25 -11h-10q-4 18 -13 60t-26 85t-42 76t-63 33 q-82 0 -151 -59t-120 -142t-81 -176t-30 -161q0 -42 6 -75t16 -83h20q44 0 87 14t88 30t91 31t94 15h46t56 -7t48 -22t20 -45q0 -60 -41 -99t-98 -62t-118 -34t-103 -11q-30 0 -56 11t-49 23t-46 22t-49 10h-12q-98 -76 -155 -177t-57 -225q0 -114 51 -173t161 -99 q116 -22 217 -1t191 63t173 94t167 88q8 -16 14 -26t6 -28q0 -12 -3 -18t-17 -14q-176 -86 -292 -134t-188 -72t-109 -30t-53 -6q-98 0 -189 42t-149 116q12 -90 21 -167t13 -125q0 -12 -2 -16t-6 -5t-13 -2t-23 -9q-28 104 -41 205t-21 204t-20 208t-40 211q-54 4 -117 18 t-129 30t-132 29t-120 15q-44 -44 -86 -109t-87 -136t-93 -139t-101 -122t-111 -88t-122 -34h-22t-32 1t-30 1h-22q-22 14 -22 32zM500 996q-8 -16 9 -43t52 -59t74 -57t75 -39t56 -4q10 10 16 22t11 26t13 33t24 45q-14 6 -53 18t-83 25t-83 25t-55 16q-48 8 -56 -8z M806 752q86 -22 171 -32t133 -24q-26 36 -79 88t-141 94q-16 -22 -43 -57t-41 -69zM944 942l288 -232q2 76 -1 189t-7 232t-10 224t-12 165zM1328 549q2 -59 8 -131q26 76 73 145t101 131q-40 -16 -85 -28t-91 -18q-8 -40 -6 -99zM1714 746q0 -18 14 -30t35 -17t42 -6t35 -1 q32 0 71 6t78 19t72 33t53 48q-16 24 -41 34t-51 10q-20 0 -70 -6t-103 -18t-94 -30t-41 -42z" />
<glyph unicode="&#xc7;" horiz-adv-x="976" d="M49 555q13 123 49 264t91 289t124 271t149 206t166 99q24 0 40 -4t34 -22q16 -16 41 -42t47 -69t35 -104t5 -141q-2 -12 -12 -17t-20 -5h-6q-2 0 -4 2q-2 36 -7 91t-21 106t-50 87t-92 36q-48 0 -106 -61t-113 -157t-107 -215t-91 -233t-63 -213t-24 -155q0 -66 19 -150 t57 -158t97 -125t143 -51q86 0 166 48t145 120t111 157t62 159q18 -4 21 -22t3 -32q0 -4 -1 -15t-3 -15q-22 -70 -71 -154t-117 -158t-149 -123t-167 -49q-74 0 -134 33t-108 84t-82 114t-52 125q-18 76 -5 199zM380 -428q0 34 16 65t58 31q12 0 22 -3t10 -15v-2q0 -2 -2 -4 l-58 -60q-2 -2 -2 -10q0 -34 28 -55t56 -21q40 0 87 11t88 36t68 61t27 84q0 90 -54 131t-140 41q-38 0 -73 -12t-73 -12h-24q0 6 -3 23t-7 37t-7 37t-5 23q-12 52 0 78t29 20t30 -41t-1 -105q0 -10 9 -10h15q32 0 63 6t65 6q100 0 167 -58t67 -162q0 -58 -31 -103t-78 -76 t-102 -47t-105 -16h-70q-36 18 -53 51t-17 71z" />
<glyph unicode="&#xc8;" horiz-adv-x="1050" d="M28 348q0 68 24 132t61 125t82 114t87 101v10q0 50 -11 95t-11 99q0 48 16 111t46 132t71 136t89 119t101 85t109 33q44 0 82 -19t64 -51t41 -73t15 -83q0 -10 2 -25t-1 -29t-11 -25t-24 -11h-10q-4 18 -13 60t-26 85t-42 75t-63 32q-82 0 -151 -58t-121 -141t-81 -176 t-29 -161q0 -42 6 -75t16 -85h20q44 0 87 15t88 31t91 30t92 14h48t56 -6t47 -21t19 -45q0 -60 -40 -99t-97 -63t-118 -34t-103 -10q-30 0 -56 10t-49 23t-46 23t-49 10h-12q-98 -76 -155 -177t-57 -225q0 -114 50 -174t162 -98q116 -22 217 -1t191 63t173 93t167 89 q8 -16 14 -27t6 -27q0 -12 -3 -18t-17 -14q-178 -86 -293 -134t-187 -72t-109 -30t-53 -6q-76 0 -148 25t-128 71t-91 110t-35 142zM430 808q0 -18 14 -29t35 -16t42 -6t35 -1q32 0 71 6t78 18t71 33t54 49q-16 22 -41 33t-51 11q-20 0 -70 -7t-103 -18t-94 -29t-41 -44z M509 1943q-1 33 17 36t47 -24t57 -87q10 -22 21 -38t21 -29t20 -28t20 -35q4 -6 0 -17t-8 -13q-60 14 -94 55t-66 89q-34 58 -35 91z" />
<glyph unicode="&#xc9;" horiz-adv-x="1050" d="M28 348q0 68 24 132t61 125t82 114t87 101v10q0 50 -11 95t-11 99q0 48 16 111t46 132t71 136t89 119t101 85t109 33q44 0 82 -19t64 -51t41 -73t15 -83q0 -10 2 -25t-1 -29t-11 -25t-24 -11h-10q-4 18 -13 60t-26 85t-42 75t-63 32q-82 0 -151 -58t-121 -141t-81 -176 t-29 -161q0 -42 6 -75t16 -85h20q44 0 87 15t88 31t91 30t92 14h48t56 -6t47 -21t19 -45q0 -60 -40 -99t-97 -63t-118 -34t-103 -10q-30 0 -56 10t-49 23t-46 23t-49 10h-12q-98 -76 -155 -177t-57 -225q0 -114 50 -174t162 -98q116 -22 217 -1t191 63t173 93t167 89 q8 -16 14 -27t6 -27q0 -12 -3 -18t-17 -14q-178 -86 -293 -134t-187 -72t-109 -30t-53 -6q-76 0 -148 25t-128 71t-91 110t-35 142zM430 808q0 -18 14 -29t35 -16t42 -6t35 -1q32 0 71 6t78 18t71 33t54 49q-16 22 -41 33t-51 11q-20 0 -70 -7t-103 -18t-94 -29t-41 -44z M558 1740q-4 12 0 18q12 22 23 38t23 31t24 32t24 43q32 62 66 92t55 26t20 -39t-41 -99q-34 -52 -74 -96t-110 -60q-6 2 -10 14z" />
<glyph unicode="&#xca;" horiz-adv-x="1050" d="M28 348q0 68 24 132t61 125t82 114t87 101v10q0 50 -11 95t-11 99q0 48 16 111t46 132t71 136t89 119t101 85t109 33q44 0 82 -19t64 -51t41 -73t15 -83q0 -10 2 -25t-1 -29t-11 -25t-24 -11h-10q-4 18 -13 60t-26 85t-42 75t-63 32q-82 0 -151 -58t-121 -141t-81 -176 t-29 -161q0 -42 6 -75t16 -85h20q44 0 87 15t88 31t91 30t92 14h48t56 -6t47 -21t19 -45q0 -60 -40 -99t-97 -63t-118 -34t-103 -10q-30 0 -56 10t-49 23t-46 23t-49 10h-12q-98 -76 -155 -177t-57 -225q0 -114 50 -174t162 -98q116 -22 217 -1t191 63t173 93t167 89 q8 -16 14 -27t6 -27q0 -12 -3 -18t-17 -14q-178 -86 -293 -134t-187 -72t-109 -30t-53 -6q-76 0 -148 25t-128 71t-91 110t-35 142zM430 808q0 -18 14 -29t35 -16t42 -6t35 -1q32 0 71 6t78 18t71 33t54 49q-16 22 -41 33t-51 11q-20 0 -70 -7t-103 -18t-94 -29t-41 -44z M472 1748q12 26 43 77t71 108t84 109t82 78q2 0 3 -1t5 -1h6q0 -38 12 -82t30 -87t37 -82t31 -65q0 -2 5 -10l10 -16t9 -17t4 -11v-2q0 -2 1 -3t1 -3q0 -10 -12 -20t-28 -10q-14 0 -20 14q-6 12 -20 44t-28 67t-27 67t-19 44q-4 8 -17 27t-17 25q-32 -18 -60 -62t-55 -88 t-53 -79t-58 -35q-12 0 -20 14z" />
<glyph unicode="&#xcb;" horiz-adv-x="1050" d="M28 348q0 68 24 132t61 125t82 114t87 101v10q0 50 -11 95t-11 99q0 48 16 111t46 132t71 136t89 119t101 85t109 33q44 0 82 -19t64 -51t41 -73t15 -83q0 -10 2 -25t-1 -29t-11 -25t-24 -11h-10q-4 18 -13 60t-26 85t-42 75t-63 32q-82 0 -151 -58t-121 -141t-81 -176 t-29 -161q0 -42 6 -75t16 -85h20q44 0 87 15t88 31t91 30t92 14h48t56 -6t47 -21t19 -45q0 -60 -40 -99t-97 -63t-118 -34t-103 -10q-30 0 -56 10t-49 23t-46 23t-49 10h-12q-98 -76 -155 -177t-57 -225q0 -114 50 -174t162 -98q116 -22 217 -1t191 63t173 93t167 89 q8 -16 14 -27t6 -27q0 -12 -3 -18t-17 -14q-178 -86 -293 -134t-187 -72t-109 -30t-53 -6q-76 0 -148 25t-128 71t-91 110t-35 142zM430 808q0 -18 14 -29t35 -16t42 -6t35 -1q32 0 71 6t78 18t71 33t54 49q-16 22 -41 33t-51 11q-20 0 -70 -7t-103 -18t-94 -29t-41 -44z M501 1779q1 29 49 47q16 0 40 -24t24 -42q-14 -50 -43 -52t-50 20t-20 51zM777 1779q1 29 47 47q16 0 40 -24t24 -42q-14 -50 -43 -52t-49 20t-19 51z" />
<glyph unicode="&#xcc;" horiz-adv-x="1216" d="M44 44q0 16 8 30t26 14q34 0 59 -12t65 -12q136 0 262 59t237 159t203 229t159 268t104 277t37 258q0 152 -65 230t-217 78q-68 0 -121 -52t-90 -126t-57 -153t-20 -131q0 -110 51 -188t161 -110l-44 -18q-2 -2 -17 5t-35 16t-41 21t-33 20q-68 42 -88 114t-20 144 q0 70 23 160t67 170t109 135t151 55q94 0 157 -30t102 -83t55 -126t16 -159q0 -192 -65 -378t-177 -350t-262 -296t-318 -218q-50 -24 -115 -44t-127 -20q-14 0 -38 3t-46 10t-39 20t-17 31zM703 1983q-1 33 17 36t47 -24t57 -87q10 -22 21 -38t21 -29t20 -28t20 -35 q4 -6 0 -17t-8 -13q-60 14 -94 55t-66 89q-34 58 -35 91z" />
<glyph unicode="&#xcd;" horiz-adv-x="1216" d="M28 62q0 16 8 30t26 14q34 0 59 -12t65 -12q136 0 262 59t237 159t203 229t159 268t104 277t37 258q0 152 -65 230t-217 78q-68 0 -121 -52t-90 -126t-57 -153t-20 -131q0 -110 51 -188t161 -110l-44 -18q-2 -2 -17 5t-35 16t-41 21t-33 20q-68 42 -88 114t-20 144 q0 70 23 160t67 170t109 135t151 55q94 0 157 -30t102 -83t55 -126t16 -159q0 -192 -65 -378t-177 -350t-262 -296t-318 -218q-50 -24 -115 -44t-127 -20q-14 0 -38 3t-46 10t-39 20t-17 31zM766 1768q-4 12 0 18q12 22 23 38t23 31t24 32t24 43q32 62 66 92t55 26t20 -39 t-41 -99q-34 -52 -74 -96t-110 -60q-6 2 -10 14z" />
<glyph unicode="&#xce;" horiz-adv-x="1216" d="M28 62q0 16 8 30t26 14q34 0 59 -12t65 -12q136 0 262 59t237 159t203 229t159 268t104 277t37 258q0 152 -65 230t-217 78q-68 0 -121 -52t-90 -126t-57 -153t-20 -131q0 -110 51 -188t161 -110l-44 -18q-2 -2 -17 5t-35 16t-41 21t-33 20q-68 42 -88 114t-20 144 q0 70 23 160t67 170t109 135t151 55q94 0 157 -30t102 -83t55 -126t16 -159q0 -192 -65 -378t-177 -350t-262 -296t-318 -218q-50 -24 -115 -44t-127 -20q-14 0 -38 3t-46 10t-39 20t-17 31zM700 1850q12 26 43 77t71 108t84 109t82 78q2 0 3 -1t5 -1h6q0 -38 12 -82t30 -87 t37 -82t31 -65q0 -2 5 -10l10 -16t9 -17t4 -11v-2q0 -2 1 -3t1 -3q0 -10 -12 -20t-28 -10q-14 0 -20 14q-6 12 -20 44t-28 67t-27 67t-19 44q-4 8 -17 27t-17 25q-32 -18 -60 -62t-55 -88t-53 -79t-58 -35q-12 0 -20 14z" />
<glyph unicode="&#xcf;" horiz-adv-x="1216" d="M28 62q0 16 8 30t26 14q34 0 59 -12t65 -12q136 0 262 59t237 159t203 229t159 268t104 277t37 258q0 152 -65 230t-217 78q-68 0 -121 -52t-90 -126t-57 -153t-20 -131q0 -110 51 -188t161 -110l-44 -18q-2 -2 -17 5t-35 16t-41 21t-33 20q-68 42 -88 114t-20 144 q0 70 23 160t67 170t109 135t151 55q94 0 157 -30t102 -83t55 -126t16 -159q0 -192 -65 -378t-177 -350t-262 -296t-318 -218q-50 -24 -115 -44t-127 -20q-14 0 -38 3t-46 10t-39 20t-17 31zM657 1877q1 29 49 47q16 0 40 -24t24 -42q-14 -50 -43 -52t-50 20t-20 51z M933 1877q1 29 47 47q16 0 40 -24t24 -42q-14 -50 -43 -52t-49 20t-19 51z" />
<glyph unicode="&#xd0;" horiz-adv-x="1438" d="M12 638q0 22 7 31t20 11t28 1t31 -1q14 2 43 3t63 1l72 546q2 20 4 47t6 57t8 64h48q0 -42 -5 -90t-15 -126t-26 -197t-38 -299q46 0 93 1t90 2t75 2t50 1h12q18 0 25 -13t7 -29q0 -20 -8 -30t-36 -12l-318 -6q-10 -72 -18 -150t-20 -168q40 36 72 61t76 25q50 0 88 -24 t68 -61t59 -80t62 -80t74 -62t95 -25q64 0 132 37t133 97t124 137t103 156t69 156t25 137q0 2 -1 5t-1 5q-48 -46 -93 -77t-95 -52t-104 -30t-120 -9q-120 0 -203 47t-133 125t-72 178t-22 208q0 88 24 199t75 210t131 165t192 66q88 0 159 -35t127 -94t97 -136t68 -160 t40 -166t13 -155q2 -96 -15 -205t-54 -219t-90 -214t-119 -189t-143 -145t-163 -80t-177 6t-185 110q-34 44 -58 89t-68 79q-6 6 -22 15t-20 7q-58 -14 -88 -64t-51 -107t-42 -102t-65 -45l18 108l64 504l-160 -2q-16 -2 -19 15t-3 25zM608 1148q0 -100 21 -189t67 -154 t120 -104t184 -39q116 -10 197 28t130 108t67 164t9 196t-42 202t-87 183t-126 140t-158 73q-106 0 -178 -65t-117 -159t-66 -199t-21 -185z" />
<glyph unicode="&#xd1;" horiz-adv-x="1402" d="M30 138q8 94 52 185t105 175t132 158t131 132q2 10 3 42t1 42q0 50 -2 89t-8 79t-14 85t-20 103q-6 18 -18 21t-26 3q-2 0 -9 -1t-11 -1q-62 -50 -139 -87t-159 -37q0 24 6 38t18 20t28 10t38 14q14 6 50 24l76 38t75 39t51 25q2 0 10 1t10 1q24 0 41 -20t23 -44l64 -438 l754 730l42 -40q0 -2 2 -19t3 -36t2 -39t1 -34q0 -128 -16 -253t-33 -250t-32 -251t-15 -252q0 -14 1 -47t2 -70t2 -70t1 -45q42 -358 396 -358q10 0 34 3t51 6t50 7t33 6q-16 -24 -43 -37t-57 -19t-62 -7t-56 -1q-94 0 -162 23t-116 68t-81 112t-53 155v52t-1 78t-1 80v52 q0 116 10 228t23 225t24 225t11 226v138l-716 -674q-2 -18 -8 -66t-12 -102t-13 -102t-9 -66q-8 -58 -35 -131t-69 -137t-98 -109t-126 -45q-60 0 -100 43t-36 107zM112 122q0 -18 3 -33t13 -26t28 -11q54 0 99 34t78 89t57 123t38 137t21 128t7 99h-24q-4 0 -19 -15 t-36 -35t-40 -41t-31 -35q-34 -36 -68 -82t-61 -96t-46 -103t-19 -103v-30zM498 1594q-4 52 14 85t46 50t58 19t48 -6q38 0 71 -15t64 -33t65 -34t76 -16h60t51 10t37 34t14 72q0 66 -16 94t-66 28q0 28 20 32t36 4q48 0 70 -44t22 -100q0 -66 -19 -106t-50 -63t-72 -31 t-87 -8q-42 0 -80 18t-72 39t-69 39t-71 18q-40 0 -71 -29t-55 -57h-24z" />
<glyph unicode="&#xd2;" horiz-adv-x="1130" d="M52 642v57v71t1 61t1 31q0 6 5 43t11 84t13 93t11 74q6 32 22 90t41 116t62 99t87 41v-32q-118 -198 -156 -406t-38 -438q0 -84 5 -154t25 -133t58 -120t106 -115q20 -16 34 -18t36 -2q114 0 210 58t172 148t126 197t70 205q-158 -10 -266 19t-175 98t-96 181t-29 270 q0 54 5 133t20 163t43 167t71 148t104 106t145 41q70 0 122 -43t89 -105t61 -131t34 -121q0 -18 1 -63t1 -95v-95v-63q0 -126 -12 -243t-12 -239v-22l148 64v-12q0 -16 -22 -30q-6 -4 -28 -16t-47 -25t-47 -25t-26 -18t-13 -34t-19 -61t-19 -62t-11 -35q-40 -94 -94 -188 t-127 -169t-164 -121t-203 -46q-122 0 -188 65t-100 160t-41 203t-7 194zM448 1204q0 -80 21 -164t64 -152t110 -111t163 -43q20 0 46 -1t52 2t46 12t26 29q2 12 9 39t13 58t12 57t10 36v22q0 14 3 76t6 133t6 132t3 77q0 58 -9 146t-36 173t-76 151t-129 78q-68 8 -119 -35 t-89 -116t-63 -163t-41 -177t-22 -158t-6 -101zM547 2295q-1 33 17 36t47 -24t57 -87q10 -22 21 -38t21 -29t20 -28t20 -35q4 -6 0 -17t-8 -13q-60 14 -94 55t-66 89q-34 58 -35 91z" />
<glyph unicode="&#xd3;" horiz-adv-x="1130" d="M52 642v57v71t1 61t1 31q0 6 5 43t11 84t13 93t11 74q6 32 22 90t41 116t62 99t87 41v-32q-118 -198 -156 -406t-38 -438q0 -84 5 -154t25 -133t58 -120t106 -115q20 -16 34 -18t36 -2q114 0 210 58t172 148t126 197t70 205q-158 -10 -266 19t-175 98t-96 181t-29 270 q0 54 5 133t20 163t43 167t71 148t104 106t145 41q70 0 122 -43t89 -105t61 -131t34 -121q0 -18 1 -63t1 -95v-95v-63q0 -126 -12 -243t-12 -239v-22l148 64v-12q0 -16 -22 -30q-6 -4 -28 -16t-47 -25t-47 -25t-26 -18t-13 -34t-19 -61t-19 -62t-11 -35q-40 -94 -94 -188 t-127 -169t-164 -121t-203 -46q-122 0 -188 65t-100 160t-41 203t-7 194zM448 1204q0 -80 21 -164t64 -152t110 -111t163 -43q20 0 46 -1t52 2t46 12t26 29q2 12 9 39t13 58t12 57t10 36v22q0 14 3 76t6 133t6 132t3 77q0 58 -9 146t-36 173t-76 151t-129 78q-68 8 -119 -35 t-89 -116t-63 -163t-41 -177t-22 -158t-6 -101zM462 2034q-4 12 0 18q12 22 23 38t23 31t24 32t24 43q32 62 66 92t55 26t20 -39t-41 -99q-34 -52 -74 -96t-110 -60q-6 2 -10 14z" />
<glyph unicode="&#xd4;" horiz-adv-x="1130" d="M52 642v57v71t1 61t1 31q0 6 5 43t11 84t13 93t11 74q6 32 22 90t41 116t62 99t87 41v-32q-118 -198 -156 -406t-38 -438q0 -84 5 -154t25 -133t58 -120t106 -115q20 -16 34 -18t36 -2q114 0 210 58t172 148t126 197t70 205q-158 -10 -266 19t-175 98t-96 181t-29 270 q0 54 5 133t20 163t43 167t71 148t104 106t145 41q70 0 122 -43t89 -105t61 -131t34 -121q0 -18 1 -63t1 -95v-95v-63q0 -126 -12 -243t-12 -239v-22l148 64v-12q0 -16 -22 -30q-6 -4 -28 -16t-47 -25t-47 -25t-26 -18t-13 -34t-19 -61t-19 -62t-11 -35q-40 -94 -94 -188 t-127 -169t-164 -121t-203 -46q-122 0 -188 65t-100 160t-41 203t-7 194zM412 2184q12 26 43 77t71 108t84 109t82 78q2 0 3 -1t5 -1h6q0 -38 12 -82t30 -87t37 -82t31 -65q0 -2 5 -10l10 -16t9 -17t4 -11v-2q0 -2 1 -3t1 -3q0 -10 -12 -20t-28 -10q-14 0 -20 14 q-6 12 -20 44t-28 67t-27 67t-19 44q-4 8 -17 27t-17 25q-32 -18 -60 -62t-55 -88t-53 -79t-58 -35q-12 0 -20 14zM448 1204q0 -80 21 -164t64 -152t110 -111t163 -43q20 0 46 -1t52 2t46 12t26 29q2 12 9 39t13 58t12 57t10 36v22q0 14 3 76t6 133t6 132t3 77q0 58 -9 146 t-36 173t-76 151t-129 78q-68 8 -119 -35t-89 -116t-63 -163t-41 -177t-22 -158t-6 -101z" />
<glyph unicode="&#xd5;" horiz-adv-x="1130" d="M52 642v57v71t1 61t1 31q0 6 5 43t11 84t13 93t11 74q6 32 22 90t41 116t62 99t87 41v-32q-118 -198 -156 -406t-38 -438q0 -84 5 -154t25 -133t58 -120t106 -115q20 -16 34 -18t36 -2q114 0 210 58t172 148t126 197t70 205q-158 -10 -266 19t-175 98t-96 181t-29 270 q0 54 5 133t20 163t43 167t71 148t104 106t145 41q70 0 122 -43t89 -105t61 -131t34 -121q0 -18 1 -63t1 -95v-95v-63q0 -126 -12 -243t-12 -239v-22l148 64v-12q0 -16 -22 -30q-6 -4 -28 -16t-47 -25t-47 -25t-26 -18t-13 -34t-19 -61t-19 -62t-11 -35q-40 -94 -94 -188 t-127 -169t-164 -121t-203 -46q-122 0 -188 65t-100 160t-41 203t-7 194zM326 2102q-4 52 14 85t46 50t58 19t48 -6q38 0 71 -15t64 -33t65 -34t76 -16h60t51 10t37 34t14 72q0 66 -16 94t-66 28q0 28 20 32t36 4q48 0 70 -44t22 -100q0 -66 -19 -106t-50 -63t-72 -31 t-87 -8q-42 0 -80 18t-72 39t-69 39t-71 18q-40 0 -71 -29t-55 -57h-24zM448 1204q0 -80 21 -164t64 -152t110 -111t163 -43q20 0 46 -1t52 2t46 12t26 29q2 12 9 39t13 58t12 57t10 36v22q0 14 3 76t6 133t6 132t3 77q0 58 -9 146t-36 173t-76 151t-129 78q-68 8 -119 -35 t-89 -116t-63 -163t-41 -177t-22 -158t-6 -101z" />
<glyph unicode="&#xd6;" horiz-adv-x="1130" d="M52 642v57v71t1 61t1 31q0 6 5 43t11 84t13 93t11 74q6 32 22 90t41 116t62 99t87 41v-32q-118 -198 -156 -406t-38 -438q0 -84 5 -154t25 -133t58 -120t106 -115q20 -16 34 -18t36 -2q114 0 210 58t172 148t126 197t70 205q-158 -10 -266 19t-175 98t-96 181t-29 270 q0 54 5 133t20 163t43 167t71 148t104 106t145 41q70 0 122 -43t89 -105t61 -131t34 -121q0 -18 1 -63t1 -95v-95v-63q0 -126 -12 -243t-12 -239v-22l148 64v-12q0 -16 -22 -30q-6 -4 -28 -16t-47 -25t-47 -25t-26 -18t-13 -34t-19 -61t-19 -62t-11 -35q-40 -94 -94 -188 t-127 -169t-164 -121t-203 -46q-122 0 -188 65t-100 160t-41 203t-7 194zM448 1204q0 -80 21 -164t64 -152t110 -111t163 -43q20 0 46 -1t52 2t46 12t26 29q2 12 9 39t13 58t12 57t10 36v22q0 14 3 76t6 133t6 132t3 77q0 58 -9 146t-36 173t-76 151t-129 78q-68 8 -119 -35 t-89 -116t-63 -163t-41 -177t-22 -158t-6 -101zM499 2231q1 29 49 47q16 0 40 -24t24 -42q-14 -50 -43 -52t-50 20t-20 51zM775 2231q1 29 47 47q16 0 40 -24t24 -42q-14 -50 -43 -52t-49 20t-19 51z" />
<glyph unicode="&#xd7;" horiz-adv-x="916" d="M226 242l188 258l-178 266q38 40 62 38t45 -31t47 -78t72 -103q18 16 37 42t38 53t36 53t27 40l9 10t22 19t27 10t26 -19l-174 -314q36 -28 70 -43t66 -24t65 -15t67 -12q60 -12 71 -26t-9 -26t-66 -17t-102 2t-111 30t-95 69q-44 -50 -71 -94t-50 -71t-50 -34t-69 17z " />
<glyph unicode="&#xd8;" horiz-adv-x="1130" d="M52 642v57v71t1 61t1 31q0 6 5 43t11 84t13 93t11 74q6 32 22 90t41 116t62 99t87 41v-32q-118 -198 -156 -406t-38 -438q0 -84 4 -152t24 -130q40 94 109 242t177 370q-38 118 -38 304q0 54 5 133t20 163t43 167t71 148t104 106t145 41q42 0 78 -17t66 -45q22 40 43 81 t43 87q2 0 6 2q8 4 12 4q14 0 34 -22t10 -90q-4 -10 -12 -34t-18 -49t-19 -45t-13 -22q-4 -6 -8 -14q32 -60 53 -123t31 -113q0 -18 1 -63t1 -95v-95v-63q0 -126 -12 -243t-12 -239v-22l148 64v-12q0 -16 -22 -30q-6 -4 -28 -16t-47 -25t-47 -25t-26 -18t-13 -34t-19 -61 t-19 -62t-11 -35q-40 -94 -94 -188t-127 -169t-164 -121t-203 -46q-86 0 -144 34t-96 90l-28 -72t-26 -70q-2 -2 -4 -2q-2 -2 -4 -2h-2q-16 0 -23 37t-7 77v6t4 18t13 39t27 71q-32 96 -39 203t-7 193zM186 240q42 -70 120 -136q20 -16 34 -18t36 -2q114 0 210 58t172 148 t126 197t70 205q-190 -12 -308 30t-182 146q-70 -152 -141 -308t-137 -320zM448 1204q0 -84 20 -164q84 172 188 383t236 477q-22 22 -47 36t-57 18q-68 8 -119 -35t-89 -116t-63 -163t-41 -177t-22 -158t-6 -101zM502 944q40 -92 115 -151t189 -59q20 0 46 -1t52 2t46 12 t26 29q2 12 9 39t13 58t12 57t10 36v22q0 14 3 76t6 133t6 132t3 77q0 36 -3 84t-11 101t-22 108t-38 101q-116 -198 -232 -412t-230 -444z" />
<glyph unicode="&#xd9;" horiz-adv-x="1684" d="M40 1334q0 2 2 6t2 6q28 20 50 31t54 11q4 0 9 -6t-9 -36q8 -2 31 -3t31 -1q44 0 84 14t78 32t76 33t78 15v-50l-170 -966v-30q0 -42 11 -94t36 -99t63 -80t92 -33q32 0 62 14t55 37t46 48t37 49q68 98 112 200t83 206t80 208t101 204l108 420q2 12 11 17t19 5 q22 0 27 -18t5 -34q0 -92 -17 -185t-37 -187t-37 -188t-17 -188q0 -96 13 -196t54 -182t116 -136t195 -54q58 0 91 15t77 49q4 0 14 -8t10 -12q0 -36 -23 -58t-55 -32t-65 -13t-57 -3q-112 0 -189 40t-127 105t-75 152t-36 180t-10 188t5 177q-6 -20 -22 -60l-36 -90 t-43 -105t-45 -104t-39 -88t-25 -57q-26 -56 -61 -123t-81 -123t-105 -95t-133 -39q-72 0 -122 33t-78 85t-41 116t-13 126v21t1 26t2 23t1 12l128 778v84q-30 -20 -57 -28t-52 -12t-50 -4h-59q-8 0 -34 -1t-55 3t-52 15t-23 37zM775 1823q-1 33 17 36t47 -24t57 -87 q10 -22 21 -38t21 -29t20 -28t20 -35q4 -6 0 -17t-8 -13q-60 14 -94 55t-66 89q-34 58 -35 91z" />
<glyph unicode="&#xda;" horiz-adv-x="1684" d="M40 1334q0 2 2 6t2 6q28 20 50 31t54 11q4 0 9 -6t-9 -36q8 -2 31 -3t31 -1q44 0 84 14t78 32t76 33t78 15v-50l-170 -966v-30q0 -42 11 -94t36 -99t63 -80t92 -33q32 0 62 14t55 37t46 48t37 49q68 98 112 200t83 206t80 208t101 204l108 420q2 12 11 17t19 5 q22 0 27 -18t5 -34q0 -92 -17 -185t-37 -187t-37 -188t-17 -188q0 -96 13 -196t54 -182t116 -136t195 -54q58 0 91 15t77 49q4 0 14 -8t10 -12q0 -36 -23 -58t-55 -32t-65 -13t-57 -3q-112 0 -189 40t-127 105t-75 152t-36 180t-10 188t5 177q-6 -20 -22 -60l-36 -90 t-43 -105t-45 -104t-39 -88t-25 -57q-26 -56 -61 -123t-81 -123t-105 -95t-133 -39q-72 0 -122 33t-78 85t-41 116t-13 126v21t1 26t2 23t1 12l128 778v84q-30 -20 -57 -28t-52 -12t-50 -4h-59q-8 0 -34 -1t-55 3t-52 15t-23 37zM786 1624q-4 12 0 18q12 22 23 38t23 31 t24 32t24 43q32 62 66 92t55 26t20 -39t-41 -99q-34 -52 -74 -96t-110 -60q-6 2 -10 14z" />
<glyph unicode="&#xdb;" horiz-adv-x="1684" d="M40 1334q0 2 2 6t2 6q28 20 50 31t54 11q4 0 9 -6t-9 -36q8 -2 31 -3t31 -1q44 0 84 14t78 32t76 33t78 15v-50l-170 -966v-30q0 -42 11 -94t36 -99t63 -80t92 -33q32 0 62 14t55 37t46 48t37 49q68 98 112 200t83 206t80 208t101 204l108 420q2 12 11 17t19 5 q22 0 27 -18t5 -34q0 -92 -17 -185t-37 -187t-37 -188t-17 -188q0 -96 13 -196t54 -182t116 -136t195 -54q58 0 91 15t77 49q4 0 14 -8t10 -12q0 -36 -23 -58t-55 -32t-65 -13t-57 -3q-112 0 -189 40t-127 105t-75 152t-36 180t-10 188t5 177q-6 -20 -22 -60l-36 -90 t-43 -105t-45 -104t-39 -88t-25 -57q-26 -56 -61 -123t-81 -123t-105 -95t-133 -39q-72 0 -122 33t-78 85t-41 116t-13 126v21t1 26t2 23t1 12l128 778v84q-30 -20 -57 -28t-52 -12t-50 -4h-59q-8 0 -34 -1t-55 3t-52 15t-23 37zM658 1632q12 26 43 77t71 108t84 109t82 78 q2 0 3 -1t5 -1h6q0 -38 12 -82t30 -87t37 -82t31 -65q0 -2 5 -10l10 -16t9 -17t4 -11v-2q0 -2 1 -3t1 -3q0 -10 -12 -20t-28 -10q-14 0 -20 14q-6 12 -20 44t-28 67t-27 67t-19 44q-4 8 -17 27t-17 25q-32 -18 -60 -62t-55 -88t-53 -79t-58 -35q-12 0 -20 14z" />
<glyph unicode="&#xdc;" horiz-adv-x="1684" d="M40 1334q0 2 2 6t2 6q28 20 50 31t54 11q4 0 9 -6t-9 -36q8 -2 31 -3t31 -1q44 0 84 14t78 32t76 33t78 15v-50l-170 -966v-30q0 -42 11 -94t36 -99t63 -80t92 -33q32 0 62 14t55 37t46 48t37 49q68 98 112 200t83 206t80 208t101 204l108 420q2 12 11 17t19 5 q22 0 27 -18t5 -34q0 -92 -17 -185t-37 -187t-37 -188t-17 -188q0 -96 13 -196t54 -182t116 -136t195 -54q58 0 91 15t77 49q4 0 14 -8t10 -12q0 -36 -23 -58t-55 -32t-65 -13t-57 -3q-112 0 -189 40t-127 105t-75 152t-36 180t-10 188t5 177q-6 -20 -22 -60l-36 -90 t-43 -105t-45 -104t-39 -88t-25 -57q-26 -56 -61 -123t-81 -123t-105 -95t-133 -39q-72 0 -122 33t-78 85t-41 116t-13 126v21t1 26t2 23t1 12l128 778v84q-30 -20 -57 -28t-52 -12t-50 -4h-59q-8 0 -34 -1t-55 3t-52 15t-23 37zM731 1693q1 29 49 47q16 0 40 -24t24 -42 q-14 -50 -43 -52t-50 20t-20 51zM1007 1693q1 29 47 47q16 0 40 -24t24 -42q-14 -50 -43 -52t-49 20t-19 51z" />
<glyph unicode="&#xdd;" horiz-adv-x="1330" d="M78 -258q-4 34 3 55t24 11t43 -55t60 -143q108 -206 202 -304t178 -114t155 42t130 166t106 255t81 311t54 332t26 320q-34 -126 -92 -196t-124 -83t-130 30t-112 143t-68 258t0 372q-20 -4 -49 -20t-59 -37t-61 -39t-56 -27t-41 -4t-18 35q28 12 64 36t74 49t74 46 t64 30t47 2t23 -39q6 -60 5 -133t0 -148t8 -150t29 -138t62 -111t106 -70q88 20 142 82t83 145t42 181t21 195t17 183t31 148l44 -16q-6 -280 -28 -556t-59 -527t-89 -466t-121 -370t-154 -240t-188 -76t-224 120t-259 351q-30 40 -46 85t-20 79zM804 1492q-4 12 0 18 q12 22 23 38t23 31t24 32t24 43q32 62 66 92t55 26t20 -39t-41 -99q-34 -52 -74 -96t-110 -60q-6 2 -10 14z" />
<glyph unicode="&#xde;" horiz-adv-x="830" d="M64 126q20 218 108 408q8 22 9 91t-1 168t-5 217t1 233t16 217t42 170q14 4 24 -46t15 -131t6 -177t-1 -185t-7 -156t-11 -87q72 116 176 196t210 102q66 -8 86 -63t3 -134t-61 -170t-104 -172t-129 -141t-133 -76l-20 -24q16 -120 25 -244t1 -234t-42 -196t-104 -130 l-8 2q-6 0 -26 13t-24 19q-2 6 -5 21t-7 30t-7 29t-5 20q-42 212 -22 430zM115 -69q7 -99 25 -181q6 -26 13 -54t31 -42q48 86 60 188t7 211t-16 217t-9 208q-50 -64 -77 -155t-34 -192t0 -200zM306 492q46 6 103 55t111 117t95 142t56 134t-2 94t-81 16q-68 -14 -126 -75 t-98 -144t-58 -174t0 -165z" />
<glyph unicode="&#xdf;" horiz-adv-x="2092" d="M176 -478q46 0 58 -33t24 -75t40 -76t106 -34q24 74 60 229t80 352t99 414t120 413t138 348t159 222q56 76 138 171t181 178t209 140t218 57q80 0 119 -54t39 -126q0 -94 -49 -169t-116 -134t-133 -106t-102 -83q68 -24 149 -51t151 -76t117 -123t47 -192q0 -68 -29 -149 t-78 -160t-116 -153t-141 -129t-153 -89t-155 -34q-90 0 -178 40t-157 105t-111 150t-42 177q0 10 2 38t2 34q16 18 30 22t34 4q12 0 30 -7t26 -20t0 -28t-46 -31q0 -80 34 -156t90 -135t132 -95t162 -36q106 0 213 63t193 159t140 212t54 220q0 88 -51 159t-128 119 t-167 74t-170 26q-58 0 -112 7t-91 16t-50 20t9 21t88 15t186 3q48 32 119 84t140 117t121 137t64 144q0 62 -34 95t-94 33q-34 0 -78 -14t-88 -36t-83 -49t-67 -49q-16 -14 -53 -51l-77 -77t-74 -76t-46 -48l-206 -302q-118 -218 -196 -435t-127 -418t-80 -377t-58 -311 t-55 -223t-76 -110q-62 0 -110 28t-80 73t-48 102t-16 109z" />
<glyph unicode="&#xe0;" horiz-adv-x="892" d="M0 155q-2 55 24 117t69 120t99 105t118 74t126 28t122 -35q-20 -50 -37 -109t-25 -119t-2 -117t32 -100t81 -70t143 -27q54 8 82 22t49 34t43 46t66 58h10q-6 -68 -32 -109t-65 -64t-88 -30t-103 -7q-134 0 -212 54t-88 178q-6 -24 -34 -62t-67 -73t-85 -57t-88 -18 q-72 20 -104 63t-34 98zM70 168q0 -22 2 -42t10 -36t23 -25t43 -9q52 2 106 50t97 113t70 136t31 119q-24 44 -77 46t-113 -37t-114 -119t-78 -196zM259 977q-1 33 17 36t47 -24t57 -87q10 -22 21 -38t21 -29t20 -28t20 -35q4 -6 0 -17t-8 -13q-60 14 -94 55t-66 89 q-34 58 -35 91z" />
<glyph unicode="&#xe1;" horiz-adv-x="892" d="M0 155q-2 55 24 117t69 120t99 105t118 74t126 28t122 -35q-20 -50 -37 -109t-25 -119t-2 -117t32 -100t81 -70t143 -27q54 8 82 22t49 34t43 46t66 58h10q-6 -68 -32 -109t-65 -64t-88 -30t-103 -7q-134 0 -212 54t-88 178q-6 -24 -34 -62t-67 -73t-85 -57t-88 -18 q-72 20 -104 63t-34 98zM70 168q0 -22 2 -42t10 -36t23 -25t43 -9q52 2 106 50t97 113t70 136t31 119q-24 44 -77 46t-113 -37t-114 -119t-78 -196zM248 696q-4 12 0 18q12 24 23 39t23 30t24 33t24 42q32 64 66 93t55 25t20 -38t-41 -98q-34 -54 -74 -98t-110 -60 q-6 2 -10 14z" />
<glyph unicode="&#xe2;" horiz-adv-x="892" d="M0 155q-2 55 24 117t69 120t99 105t118 74t126 28t122 -35q-20 -50 -37 -109t-25 -119t-2 -117t32 -100t81 -70t143 -27q54 8 82 22t49 34t43 46t66 58h10q-6 -68 -32 -109t-65 -64t-88 -30t-103 -7q-134 0 -212 54t-88 178q-6 -24 -34 -62t-67 -73t-85 -57t-88 -18 q-72 20 -104 63t-34 98zM70 168q0 -22 2 -42t10 -36t23 -25t43 -9q52 2 106 50t97 113t70 136t31 119q-24 44 -77 46t-113 -37t-114 -119t-78 -196zM170 698q12 26 43 77t71 108t84 109t82 78q2 0 3 -1t5 -1h6q0 -38 12 -82t30 -87t37 -82t31 -65q0 -2 5 -10l10 -16t9 -17 t4 -11v-2q0 -2 1 -3t1 -3q0 -10 -12 -20t-28 -10q-14 0 -20 14q-6 12 -20 44t-28 67t-27 67t-19 44q-4 8 -17 27t-17 25q-32 -18 -60 -62t-55 -88t-53 -79t-58 -35q-12 0 -20 14z" />
<glyph unicode="&#xe3;" horiz-adv-x="892" d="M0 155q-2 55 24 117t69 120t99 105t118 74t126 28t122 -35q-20 -50 -37 -109t-25 -119t-2 -117t32 -100t81 -70t143 -27q54 8 82 22t49 34t43 46t66 58h10q-6 -68 -32 -109t-65 -64t-88 -30t-103 -7q-134 0 -212 54t-88 178q-6 -24 -34 -62t-67 -73t-85 -57t-88 -18 q-72 20 -104 63t-34 98zM70 168q0 -22 2 -42t10 -36t23 -25t43 -9q52 2 106 50t97 113t70 136t31 119q-24 44 -77 46t-113 -37t-114 -119t-78 -196zM96 708q-4 52 14 85t46 50t58 19t48 -6q38 0 71 -15t64 -33t65 -34t76 -16h60t51 10t37 34t14 72q0 66 -16 94t-66 28 q0 28 20 32t36 4q48 0 70 -44t22 -100q0 -66 -19 -106t-50 -63t-72 -31t-87 -8q-42 0 -80 18t-72 39t-69 39t-71 18q-40 0 -71 -29t-55 -57h-24z" />
<glyph unicode="&#xe4;" horiz-adv-x="892" d="M0 155q-2 55 24 117t69 120t99 105t118 74t126 28t122 -35q-20 -50 -37 -109t-25 -119t-2 -117t32 -100t81 -70t143 -27q54 8 82 22t49 34t43 46t66 58h10q-6 -68 -32 -109t-65 -64t-88 -30t-103 -7q-134 0 -212 54t-88 178q-6 -24 -34 -62t-67 -73t-85 -57t-88 -18 q-72 20 -104 63t-34 98zM70 168q0 -22 2 -42t10 -36t23 -25t43 -9q52 2 106 50t97 113t70 136t31 119q-24 44 -77 46t-113 -37t-114 -119t-78 -196zM203 809q1 29 49 47q16 0 40 -24t24 -42q-14 -50 -43 -52t-50 20t-20 51zM479 809q1 29 47 47q16 0 40 -24t24 -42 q-14 -50 -43 -52t-49 20t-19 51z" />
<glyph unicode="&#xe5;" horiz-adv-x="892" d="M0 155q-2 55 24 117t69 120t99 105t118 74t126 28t122 -35q-20 -50 -37 -109t-25 -119t-2 -117t32 -100t81 -70t143 -27q54 8 82 22t49 34t43 46t66 58h10q-6 -68 -32 -109t-65 -64t-88 -30t-103 -7q-134 0 -212 54t-88 178q-6 -24 -34 -62t-67 -73t-85 -57t-88 -18 q-72 20 -104 63t-34 98zM70 168q0 -22 2 -42t10 -36t23 -25t43 -9q52 2 106 50t97 113t70 136t31 119q-24 44 -77 46t-113 -37t-114 -119t-78 -196zM284 714q0 72 40 113t104 41q54 0 94 -26t40 -96q0 -76 -46 -125t-110 -49q-50 0 -88 41t-34 101zM306 712q0 -54 36 -81 t78 -27q14 0 33 8t38 20t31 29t12 39q8 44 -1 70t-26 40t-38 18t-33 6q-54 0 -92 -30t-38 -92z" />
<glyph unicode="&#xe6;" horiz-adv-x="1138" d="M0 155q-2 55 24 117t69 120t99 105t118 74t126 28t122 -35v-2q42 58 100 95t128 37q30 0 47 -17t17 -47q0 -72 -29 -140t-74 -126t-101 -103t-112 -75q0 -2 -1 -9t-1 -11q0 -32 19 -56t45 -39t57 -24t57 -9q80 0 141 16t111 47t95 75t93 98q16 14 19 23t4 15t4 11t17 15 q16 -6 19 -18t3 -26q-14 -50 -55 -107t-99 -108t-129 -88t-143 -46t-140 17t-124 100q-22 -56 -43 -70t-36 7t-24 73t-11 132q-6 -24 -34 -62t-67 -73t-85 -57t-88 -18q-72 20 -104 63t-34 98zM70 168q0 -22 2 -42t10 -36t23 -25t43 -9q52 2 106 50t97 113t70 136t31 119 q-24 44 -77 46t-113 -37t-114 -119t-78 -196zM527 385q-15 -59 9 -115q38 20 83 58t83 86t63 100t25 98q-56 -2 -113 -36t-96 -83t-54 -108z" />
<glyph unicode="&#xe7;" horiz-adv-x="742" d="M23 127q-17 71 9 152t85 156t133 112t151 20t135 -117v-8q-4 -6 -20 -21t-20 -19q-28 58 -69 81t-88 16t-93 -39t-83 -80t-59 -109t-22 -123q14 -44 55 -59t95 -12t119 19t128 37t121 39t99 26t60 0t5 -42q-250 -112 -405 -138t-237 6t-99 103zM228 -440q0 34 16 65 t58 31q12 0 22 -3t10 -15v-2q0 -2 -2 -4l-58 -60q-2 -2 -2 -10q0 -34 28 -55t56 -21q40 0 87 11t88 36t68 61t27 84q0 90 -54 131t-140 41q-38 0 -73 -12t-73 -12h-24q0 6 -3 23t-7 37t-7 37t-5 23q-12 52 0 78t29 20t30 -41t-1 -105q0 -10 9 -10h15q32 0 63 6t65 6 q100 0 167 -58t67 -162q0 -58 -31 -103t-78 -76t-102 -47t-105 -16h-70q-36 18 -53 51t-17 71z" />
<glyph unicode="&#xe8;" d="M0 234q-6 74 15 159t66 156t111 119t144 48q28 0 46 -17t18 -45q0 -66 -35 -130t-85 -122t-105 -108t-91 -86q0 -2 -1 -9t-1 -11q0 -32 18 -56t45 -39t58 -23t57 -8q80 0 140 15t111 46t96 75t93 98q14 16 17 24t4 14t5 11t18 15q16 -6 19 -18t3 -24q-16 -58 -66 -123 t-120 -119t-152 -87t-162 -22t-150 72t-116 195zM80 336q0 -4 1 -22t3 -22q36 20 81 59t84 87t65 99t26 97q-50 0 -97 -30t-83 -75t-58 -98t-22 -95zM85 1155q-1 33 17 36t47 -24t57 -87q10 -22 21 -38t21 -29t20 -28t20 -35q4 -6 0 -17t-8 -13q-60 14 -94 55t-66 89 q-34 58 -35 91z" />
<glyph unicode="&#xe9;" d="M0 234q-6 74 15 159t66 156t111 119t144 48q28 0 46 -17t18 -45q0 -66 -35 -130t-85 -122t-105 -108t-91 -86q0 -2 -1 -9t-1 -11q0 -32 18 -56t45 -39t58 -23t57 -8q80 0 140 15t111 46t96 75t93 98q14 16 17 24t4 14t5 11t18 15q16 -6 19 -18t3 -24q-16 -58 -66 -123 t-120 -119t-152 -87t-162 -22t-150 72t-116 195zM80 336q0 -4 1 -22t3 -22q36 20 81 59t84 87t65 99t26 97q-50 0 -97 -30t-83 -75t-58 -98t-22 -95zM180 822q-4 12 0 18q12 22 23 38t23 31t24 32t24 43q32 62 66 92t55 26t20 -39t-41 -99q-34 -52 -74 -96t-110 -60 q-6 2 -10 14z" />
<glyph unicode="&#xea;" d="M0 234q-6 74 15 159t66 156t111 119t144 48q28 0 46 -17t18 -45q0 -66 -35 -130t-85 -122t-105 -108t-91 -86q0 -2 -1 -9t-1 -11q0 -32 18 -56t45 -39t58 -23t57 -8q80 0 140 15t111 46t96 75t93 98q14 16 17 24t4 14t5 11t18 15q16 -6 19 -18t3 -24q-16 -58 -66 -123 t-120 -119t-152 -87t-162 -22t-150 72t-116 195zM76 854q12 26 43 77t71 108t84 109t82 78q2 0 3 -1t5 -1h6q0 -38 12 -82t30 -87t37 -82t31 -65q0 -2 5 -10l10 -16t9 -17t4 -11v-2q0 -2 1 -3t1 -3q0 -10 -12 -20t-28 -10q-14 0 -20 14q-6 12 -20 44t-28 67t-27 67t-19 44 q-4 8 -17 27t-17 25q-32 -18 -60 -62t-55 -88t-53 -79t-58 -35q-12 0 -20 14zM80 336q0 -4 1 -22t3 -22q36 20 81 59t84 87t65 99t26 97q-50 0 -97 -30t-83 -75t-58 -98t-22 -95z" />
<glyph unicode="&#xeb;" d="M0 234q-6 74 15 159t66 156t111 119t144 48q28 0 46 -17t18 -45q0 -66 -35 -130t-85 -122t-105 -108t-91 -86q0 -2 -1 -9t-1 -11q0 -32 18 -56t45 -39t58 -23t57 -8q80 0 140 15t111 46t96 75t93 98q14 16 17 24t4 14t5 11t18 15q16 -6 19 -18t3 -24q-16 -58 -66 -123 t-120 -119t-152 -87t-162 -22t-150 72t-116 195zM80 336q0 -4 1 -22t3 -22q36 20 81 59t84 87t65 99t26 97q-50 0 -97 -30t-83 -75t-58 -98t-22 -95zM105 937q1 29 49 47q16 0 40 -24t24 -42q-14 -50 -43 -52t-50 20t-20 51zM381 937q1 29 47 47q16 0 40 -24t24 -42 q-14 -50 -43 -52t-49 20t-19 51z" />
<glyph unicode="&#xec;" horiz-adv-x="460" d="M15 206q3 -98 20 -147t44 -64t57 -25q54 -20 126 -7t134 36t103 51t34 38t-73 -4t-218 -74q-46 0 -78 17t-53 44t-30 63t-9 72q0 106 22 201t62 193q4 28 -9 37t-33 9t-34 -26t-24 -57t-17 -57t-9 -30q-18 -172 -15 -270zM83 1057q-1 33 17 36t47 -24t57 -85 q12 -24 22 -40t20 -29t20 -28t20 -35q4 -6 0 -17t-8 -13q-58 14 -93 55t-67 89q-34 58 -35 91z" />
<glyph unicode="&#xed;" horiz-adv-x="460" d="M15 206q-3 98 15 270q2 4 9 30t17 57t24 57t34 26t33 -9t9 -37q-40 -98 -62 -193t-22 -201q0 -36 9 -72t30 -63t53 -44t78 -17q152 60 218 74t73 4t-34 -38t-103 -51t-134 -36t-126 7q-30 10 -57 25t-44 64t-20 147zM56 882q-4 12 0 20q12 22 23 37t22 31t24 33t25 41 q32 64 66 94t54 26t19 -39t-39 -99q-34 -54 -74 -98t-110 -60q-6 2 -10 14z" />
<glyph unicode="&#xee;" horiz-adv-x="460" d="M-26 902q12 24 43 75t70 108t84 110t81 77q2 0 3 -1t5 -1h6q0 -38 12 -82t31 -87t37 -82l30 -65q0 -2 6 -10t11 -16t9 -16t4 -10v-2q0 -2 1 -4t1 -4q0 -10 -13 -20t-29 -10q-14 0 -20 14q-6 12 -19 44t-28 67t-28 67t-19 44q-2 8 -15 27t-17 25q-34 -18 -61 -62l-54 -88 t-54 -79t-57 -35q-12 0 -20 16zM15 206q-3 98 15 270q2 4 9 30t17 57t24 57t34 26t33 -9t9 -37q-40 -98 -62 -193t-22 -201q0 -36 9 -72t30 -63t53 -44t78 -17q152 60 218 74t73 4t-34 -38t-103 -51t-134 -36t-126 7q-30 10 -57 25t-44 64t-20 147z" />
<glyph unicode="&#xef;" horiz-adv-x="460" d="M7 949q1 29 49 47q16 0 39 -24t23 -42q-14 -50 -42 -52t-49 20t-20 51zM15 206q-3 98 15 270q2 4 9 30t17 57t24 57t34 26t33 -9t9 -37q-40 -98 -62 -193t-22 -201q0 -36 9 -72t30 -63t53 -44t78 -17q152 60 218 74t73 4t-34 -38t-103 -51t-134 -36t-126 7q-30 10 -57 25 t-44 64t-20 147zM281 949q1 29 49 47q16 0 40 -24t24 -42q-16 -50 -44 -52t-49 20t-20 51z" />
<glyph unicode="&#xf0;" horiz-adv-x="648" d="M6 174q46 150 100 236t119 127t141 50t162 9l-112 132q-22 -22 -47 -36t-59 -22q-6 2 -11 14t1 18q16 30 31 49t31 41l-90 110q-18 42 -12 60t29 15t57 -25t74 -60q30 46 58 62t43 7t11 -43t-38 -90q-4 -4 -4 -6t-4 -6q40 -56 73 -123t44 -139t-4 -148t-71 -148 q-36 -40 -80 -88t-94 -89t-107 -68t-121 -27q-40 0 -65 16t-37 43t-15 61t-3 68zM86 154q0 -16 3 -35t10 -35t20 -26t31 -10q40 0 102 38t119 94t98 117t41 109q0 56 -23 82t-77 26q-66 0 -124 -34t-103 -86t-71 -115t-26 -125z" />
<glyph unicode="&#xf1;" horiz-adv-x="958" d="M-2 36v48l96 310q0 68 13 126t31 93t34 40t26 -29q2 -10 2 -37v-37q0 -34 -7 -67t-15 -67t-15 -70t-7 -80q14 14 44 50t63 76t63 75t44 49q18 14 39 35t46 39t52 30t55 12q14 0 25 -3t17 -19q6 -68 2 -120t-12 -100t-15 -99t-9 -117q0 -48 17 -77t69 -29q66 0 118 33 t95 80t82 97t83 86v-22q0 -56 -40 -115t-100 -108t-128 -81t-122 -32h-72q-30 20 -43 41t-18 43t-5 49v59q0 56 1 96t1 76t1 76t1 94q-38 -8 -85 -53t-91 -98t-80 -101t-56 -62q-8 -10 -27 -33t-42 -50t-42 -50t-25 -31q-14 -18 -27 -22t-37 -4zM138 892q-4 52 14 85t46 50 t58 19t48 -6q38 0 71 -15t64 -33t65 -34t76 -16h60t51 10t37 34t14 72q0 66 -16 94t-66 28q0 28 20 32t36 4q48 0 70 -44t22 -100q0 -66 -19 -106t-50 -63t-72 -31t-87 -8q-42 0 -80 18t-72 39t-69 39t-71 18q-40 0 -71 -29t-55 -57h-24z" />
<glyph unicode="&#xf2;" horiz-adv-x="854" d="M4 198q0 52 23 120t63 128t94 102t118 42q24 0 41 -7t29 -39q-58 -18 -113 -51t-97 -76t-67 -98t-25 -121q0 -26 2 -50t11 -42t26 -29t47 -11q78 0 125 23t91 77q-20 34 -21 71t-1 75t8 100t29 119t55 99t86 42q30 0 55 -9t41 -35q0 -6 1 -17t1 -24t1 -26t1 -17 q0 -48 -7 -86t-21 -74t-35 -73t-45 -81q4 0 22 -1t22 -1q46 0 96 12t99 30t96 41t87 43l18 -20q-104 -84 -237 -132t-265 -56l-196 -120q-24 -20 -63 -21t-65 -1q-44 0 -69 16t-39 43t-18 62t-4 73zM317 1079q-1 33 17 36t47 -24t57 -87q10 -22 21 -38t21 -29t20 -28t20 -35 q4 -6 0 -17t-8 -13q-60 14 -94 55t-66 89q-34 58 -35 91zM413 306q-1 -12 1 -24t6 -21t16 -11q32 20 57 51t41 68t24 76t8 75q0 2 1 14t0 28t-6 29t-19 15q-30 -18 -55 -52t-41 -74t-24 -81t-8 -77q0 -4 -1 -16z" />
<glyph unicode="&#xf3;" horiz-adv-x="854" d="M4 198q0 52 23 120t63 128t94 102t118 42q24 0 41 -7t29 -39q-58 -18 -113 -51t-97 -76t-67 -98t-25 -121q0 -26 2 -50t11 -42t26 -29t47 -11q78 0 125 23t91 77q-20 34 -21 71t-1 75t8 100t29 119t55 99t86 42q30 0 55 -9t41 -35q0 -6 1 -17t1 -24t1 -26t1 -17 q0 -48 -7 -86t-21 -74t-35 -73t-45 -81q4 0 22 -1t22 -1q46 0 96 12t99 30t96 41t87 43l18 -20q-104 -84 -237 -132t-265 -56l-196 -120q-24 -20 -63 -21t-65 -1q-44 0 -69 16t-39 43t-18 62t-4 73zM258 760q-4 12 0 18q12 22 23 38t23 31t24 32t24 43q32 62 66 92t55 26 t20 -39t-41 -99q-34 -52 -74 -96t-110 -60q-6 2 -10 14zM413 306q-1 -12 1 -24t6 -21t16 -11q32 20 57 51t41 68t24 76t8 75q0 2 1 14t0 28t-6 29t-19 15q-30 -18 -55 -52t-41 -74t-24 -81t-8 -77q0 -4 -1 -16z" />
<glyph unicode="&#xf4;" horiz-adv-x="854" d="M4 198q0 52 23 120t63 128t94 102t118 42q24 0 41 -7t29 -39q-58 -18 -113 -51t-97 -76t-67 -98t-25 -121q0 -26 2 -50t11 -42t26 -29t47 -11q78 0 125 23t91 77q-20 34 -21 71t-1 75t8 100t29 119t55 99t86 42q30 0 55 -9t41 -35q0 -6 1 -17t1 -24t1 -26t1 -17 q0 -48 -7 -86t-21 -74t-35 -73t-45 -81q4 0 22 -1t22 -1q46 0 96 12t99 30t96 41t87 43l18 -20q-104 -84 -237 -132t-265 -56l-196 -120q-24 -20 -63 -21t-65 -1q-44 0 -69 16t-39 43t-18 62t-4 73zM180 840q12 26 43 77t71 108t84 109t82 78q2 0 3 -1t5 -1h6q0 -38 12 -82 t30 -87t37 -82t31 -65q0 -2 5 -10l10 -16t9 -17t4 -11v-2q0 -2 1 -3t1 -3q0 -10 -12 -20t-28 -10q-14 0 -20 14q-6 12 -20 44t-28 67t-27 67t-19 44q-4 8 -17 27t-17 25q-32 -18 -60 -62t-55 -88t-53 -79t-58 -35q-12 0 -20 14zM413 306q-1 -12 1 -24t6 -21t16 -11 q32 20 57 51t41 68t24 76t8 75q0 2 1 14t0 28t-6 29t-19 15q-30 -18 -55 -52t-41 -74t-24 -81t-8 -77q0 -4 -1 -16z" />
<glyph unicode="&#xf5;" horiz-adv-x="854" d="M4 198q0 52 23 120t63 128t94 102t118 42q24 0 41 -7t29 -39q-58 -18 -113 -51t-97 -76t-67 -98t-25 -121q0 -26 2 -50t11 -42t26 -29t47 -11q78 0 125 23t91 77q-20 34 -21 71t-1 75t8 100t29 119t55 99t86 42q30 0 55 -9t41 -35q0 -6 1 -17t1 -24t1 -26t1 -17 q0 -48 -7 -86t-21 -74t-35 -73t-45 -81q4 0 22 -1t22 -1q46 0 96 12t99 30t96 41t87 43l18 -20q-104 -84 -237 -132t-265 -56l-196 -120q-24 -20 -63 -21t-65 -1q-44 0 -69 16t-39 43t-18 62t-4 73zM100 840q-4 52 14 85t46 50t58 19t48 -6q38 0 71 -15t64 -33t65 -34 t76 -16h60t51 10t37 34t14 72q0 66 -16 94t-66 28q0 28 20 32t36 4q48 0 70 -44t22 -100q0 -66 -19 -106t-50 -63t-72 -31t-87 -8q-42 0 -80 18t-72 39t-69 39t-71 18q-40 0 -71 -29t-55 -57h-24zM413 306q-1 -12 1 -24t6 -21t16 -11q32 20 57 51t41 68t24 76t8 75q0 2 1 14 t0 28t-6 29t-19 15q-30 -18 -55 -52t-41 -74t-24 -81t-8 -77q0 -4 -1 -16z" />
<glyph unicode="&#xf6;" horiz-adv-x="854" d="M4 198q0 52 23 120t63 128t94 102t118 42q24 0 41 -7t29 -39q-58 -18 -113 -51t-97 -76t-67 -98t-25 -121q0 -26 2 -50t11 -42t26 -29t47 -11q78 0 125 23t91 77q-20 34 -21 71t-1 75t8 100t29 119t55 99t86 42q30 0 55 -9t41 -35q0 -6 1 -17t1 -24t1 -26t1 -17 q0 -48 -7 -86t-21 -74t-35 -73t-45 -81q4 0 22 -1t22 -1q46 0 96 12t99 30t96 41t87 43l18 -20q-104 -84 -237 -132t-265 -56l-196 -120q-24 -20 -63 -21t-65 -1q-44 0 -69 16t-39 43t-18 62t-4 73zM247 895q1 29 49 47q16 0 40 -24t24 -42q-14 -50 -43 -52t-50 20t-20 51z M413 306q-1 -12 1 -24t6 -21t16 -11q32 20 57 51t41 68t24 76t8 75q0 2 1 14t0 28t-6 29t-19 15q-30 -18 -55 -52t-41 -74t-24 -81t-8 -77q0 -4 -1 -16zM523 895q1 29 47 47q16 0 40 -24t24 -42q-14 -50 -43 -52t-49 20t-19 51z" />
<glyph unicode="&#xf7;" horiz-adv-x="1122" d="M152 558v40q24 2 74 4t115 4t135 4t135 4t115 4t74 2q14 0 47 1t71 1h72h46q0 -6 -2 -16t-5 -21t-7 -19t-10 -8h-860zM480 831q-12 23 20 63q4 6 16 16t22 10q48 0 60 -14t12 -38q-4 -36 -34 -52t-57 -12t-39 27zM494 370q2 18 11 33t22 26t23 11q38 0 69 -13t31 -41 q0 -34 -30 -59t-86 -25q-4 0 -12 13t-18 25q-12 12 -10 30z" />
<glyph unicode="&#xf8;" horiz-adv-x="854" d="M-90 -50q-2 2 1 7t23 33t67 89t138 170t234 271t353 398l6 4q6 -2 7 0t7 2q12 2 33 -2t13 -34q0 -4 -6 -17t-15 -22t-16 -20t-13 -13q-106 -98 -211 -207t-204 -223t-194 -235t-173 -239q0 -4 -2 -4l-6 -2q-18 -2 -29 11t-13 33zM4 198q0 52 23 120t63 128t94 102t118 42 q24 0 41 -7t29 -39q-58 -18 -113 -51t-97 -76t-67 -98t-25 -121q0 -26 2 -50t11 -42t26 -29t47 -11q78 0 125 23t91 77q-20 34 -21 71t-1 75t8 100t29 119t55 99t86 42q30 0 55 -9t41 -35q0 -6 1 -17t1 -24t1 -26t1 -17q0 -48 -7 -86t-21 -74t-35 -73t-45 -81q4 0 22 -1 t22 -1q46 0 96 12t99 30t96 41t87 43l18 -20q-104 -84 -237 -132t-265 -56l-196 -120q-24 -20 -63 -21t-65 -1q-44 0 -69 16t-39 43t-18 62t-4 73zM413 306q-1 -12 1 -24t6 -21t16 -11q32 20 57 51t41 68t24 76t8 75q0 2 1 14t0 28t-6 29t-19 15q-30 -18 -55 -52t-41 -74 t-24 -81t-8 -77q0 -4 -1 -16z" />
<glyph unicode="&#xf9;" horiz-adv-x="842" d="M7 98q-1 66 40 181t143 299q22 -44 8 -98t-41 -115t-57 -129t-38 -140q0 -40 19 -46t57 -6q44 0 88 27t84 72t73 102t56 112t37 105t14 82l12 14q4 4 7 9t5 5q8 0 19 -5t11 -19q-34 -184 -28 -283t36 -145t72 -52t78 -4q136 66 185 74t37 -13t-74 -55t-148 -48 q-130 0 -194 67t-48 207q-28 -56 -53 -114t-60 -103t-89 -72t-136 -27q-46 4 -80 28t-35 90zM229 1017q-1 33 17 36t47 -24t57 -87q10 -22 21 -38t21 -29t20 -28t20 -35q4 -6 0 -17t-8 -13q-60 14 -94 55t-66 89q-34 58 -35 91z" />
<glyph unicode="&#xfa;" horiz-adv-x="842" d="M7 98q-1 66 40 181t143 299q22 -44 8 -98t-41 -115t-57 -129t-38 -140q0 -40 19 -46t57 -6q44 0 88 27t84 72t73 102t56 112t37 105t14 82l12 14q4 4 7 9t5 5q8 0 19 -5t11 -19q-34 -184 -28 -283t36 -145t72 -52t78 -4q136 66 185 74t37 -13t-74 -55t-148 -48 q-130 0 -194 67t-48 207q-28 -56 -53 -114t-60 -103t-89 -72t-136 -27q-46 4 -80 28t-35 90zM320 754q-4 12 0 18q12 22 23 38t23 31t24 32t24 43q32 62 66 92t55 26t20 -39t-41 -99q-34 -52 -74 -96t-110 -60q-6 2 -10 14z" />
<glyph unicode="&#xfb;" horiz-adv-x="842" d="M7 98q-1 66 40 181t143 299q22 -44 8 -98t-41 -115t-57 -129t-38 -140q0 -40 19 -46t57 -6q44 0 88 27t84 72t73 102t56 112t37 105t14 82l12 14q4 4 7 9t5 5q8 0 19 -5t11 -19q-34 -184 -28 -283t36 -145t72 -52t78 -4q136 66 185 74t37 -13t-74 -55t-148 -48 q-130 0 -194 67t-48 207q-28 -56 -53 -114t-60 -103t-89 -72t-136 -27q-46 4 -80 28t-35 90zM180 732q12 26 43 77t71 108t84 109t82 78q2 0 3 -1t5 -1h6q0 -38 12 -82t30 -87t37 -82t31 -65q0 -2 5 -10l10 -16t9 -17t4 -11v-2q0 -2 1 -3t1 -3q0 -10 -12 -20t-28 -10 q-14 0 -20 14q-6 12 -20 44t-28 67t-27 67t-19 44q-4 8 -17 27t-17 25q-32 -18 -60 -62t-55 -88t-53 -79t-58 -35q-12 0 -20 14z" />
<glyph unicode="&#xfc;" horiz-adv-x="842" d="M7 98q-1 66 40 181t143 299q22 -44 8 -98t-41 -115t-57 -129t-38 -140q0 -40 19 -46t57 -6q44 0 88 27t84 72t73 102t56 112t37 105t14 82l12 14q4 4 7 9t5 5q8 0 19 -5t11 -19q-34 -184 -28 -283t36 -145t72 -52t78 -4q136 66 185 74t37 -13t-74 -55t-148 -48 q-130 0 -194 67t-48 207q-28 -56 -53 -114t-60 -103t-89 -72t-136 -27q-46 4 -80 28t-35 90zM191 833q1 29 49 47q16 0 40 -24t24 -42q-14 -50 -43 -52t-50 20t-20 51zM467 833q1 29 47 47q16 0 40 -24t24 -42q-14 -50 -43 -52t-49 20t-19 51z" />
<glyph unicode="&#xfd;" horiz-adv-x="702" d="M-44 -866q0 96 36 208t95 222t129 212t142 174q20 42 19 96t3 114q-22 -28 -49 -58t-59 -55t-68 -41t-78 -16q-78 -4 -98 143t40 439q4 4 20 12t20 8q12 0 18 -10t7 -24t0 -25l-1 -11q0 -30 -8 -80t-16 -105t-15 -106t-7 -81v-48t5 -29t19 -16t44 -3q76 0 126 56t83 135 t51 161t28 132q22 12 41 -1t23 -19v-10q0 -58 -10 -115t-22 -116t-22 -124t-10 -139q20 14 58 38t80 51t80 50t56 39q8 6 21 19t16 12t-7 -25t-48 -90q-10 -8 -41 -35t-66 -58t-67 -58t-40 -35q-44 -92 -61 -197t-27 -209t-23 -197t-47 -162t-98 -106t-176 -25q-50 0 -73 32 t-23 76zM22 -818q0 -36 15 -65t59 -29q60 -2 101 35t67 99t42 140t25 160t15 161t12 141l-4 2h-4q-22 0 -56 -37t-71 -96t-73 -132t-64 -145t-46 -134t-18 -100zM222 732q-4 12 0 18q12 22 23 38t23 31t24 32t24 43q32 62 66 92t55 26t20 -39t-41 -99q-34 -52 -74 -96 t-110 -60q-6 2 -10 14z" />
<glyph unicode="&#xfe;" horiz-adv-x="830" d="M104 1203q2 99 12 190t40 159q14 4 24 -36t16 -104t9 -142t2 -151t-6 -129t-11 -76q72 116 177 196t209 102q80 -26 119 -93t41 -152t-32 -176t-99 -169t-159 -130t-214 -58q12 -242 11 -399t-16 -216t-40 -10t-63 219l-10 574q8 20 7 80t-5 143t-9 181t-3 197zM247 723 q-15 -91 1 -163q58 -26 111 -11t100 54t84 96t61 118t35 121t1 104t-39 66t-83 8q-68 -14 -124 -76t-94 -144t-53 -173z" />
<glyph unicode="&#xff;" horiz-adv-x="702" d="M-44 -866q0 96 36 208t95 222t129 212t142 174q20 42 19 96t3 114q-22 -28 -49 -58t-59 -55t-68 -41t-78 -16q-78 -4 -98 143t40 439q4 4 20 12t20 8q12 0 18 -10t7 -24t0 -25l-1 -11q0 -30 -8 -80t-16 -105t-15 -106t-7 -81v-48t5 -29t19 -16t44 -3q76 0 126 56t83 135 t51 161t28 132q22 12 41 -1t23 -19v-10q0 -58 -10 -115t-22 -116t-22 -124t-10 -139q20 14 58 38t80 51t80 50t56 39q8 6 21 19t16 12t-7 -25t-48 -90q-10 -8 -41 -35t-66 -58t-67 -58t-40 -35q-44 -92 -61 -197t-27 -209t-23 -197t-47 -162t-98 -106t-176 -25q-50 0 -73 32 t-23 76zM22 -818q0 -36 15 -65t59 -29q60 -2 101 35t67 99t42 140t25 160t15 161t12 141l-4 2h-4q-22 0 -56 -37t-71 -96t-73 -132t-64 -145t-46 -134t-18 -100zM113 827q1 29 49 47q16 0 40 -24t24 -42q-14 -50 -43 -52t-50 20t-20 51zM389 827q1 29 47 47q16 0 40 -24 t24 -42q-14 -50 -43 -52t-49 20t-19 51z" />
<glyph unicode="&#x152;" horiz-adv-x="1860" d="M52 642v57v71t1 61t1 31q0 6 5 43t11 84t13 93t11 74q6 32 22 90t41 116t62 99t87 41v-32q-118 -198 -156 -406t-38 -438q0 -84 5 -154t25 -133t58 -120t106 -115q20 -16 34 -18t36 -2q76 0 146 28t129 75t111 109t90 132q10 52 33 101t53 95q4 18 8 35t8 33 q-158 -10 -266 19t-175 98t-96 181t-29 270q0 54 5 133t20 163t43 167t71 148t104 106t145 41q70 0 122 -43t89 -105t61 -131t34 -121q0 -18 1 -63t1 -95v-95v-63q0 -36 -1 -71t-3 -69q24 78 70 163t103 156t123 117t132 46q42 0 80 -19t65 -51t42 -73t15 -83q0 -8 1 -24 t-1 -30t-10 -25t-24 -11h-10q-6 18 -15 60t-25 85t-42 76t-62 33q-82 0 -152 -59t-121 -142t-81 -176t-30 -161q0 -42 6 -75t18 -85h20q42 0 85 15t88 31t91 30t94 14h47t57 -6t47 -21t19 -45q0 -60 -41 -99t-97 -63t-118 -34t-102 -10q-32 0 -57 10t-49 23t-46 23t-50 10 h-12q-44 -34 -80 -73t-64 -87q-10 -34 -23 -68t-33 -76q-6 -22 -8 -47t-2 -51q0 -114 50 -174t160 -98q118 -22 218 -1t190 63t173 93t167 89q8 -16 14 -27t6 -27q0 -12 -3 -18t-17 -14q-176 -86 -292 -134t-187 -72t-108 -30t-53 -6q-70 0 -138 22t-122 60t-92 94t-48 124 q-42 -60 -90 -111t-105 -90t-123 -61t-140 -22q-122 0 -188 65t-100 160t-41 203t-7 194zM448 1204q0 -80 21 -164t64 -152t110 -111t163 -43q20 0 46 -1t52 2t46 12t26 29q2 12 9 39t13 58t12 57t10 36v22q0 14 3 76t6 133t6 132t3 77q0 58 -9 146t-36 173t-76 151t-129 78 q-68 8 -119 -35t-89 -116t-63 -163t-41 -177t-22 -158t-6 -101zM1060 798l24 10q4 6 7 9l7 7v10q0 32 -11 61t-23 59q-4 -34 -4 -67v-67v-22zM1246 814q0 -20 14 -31t34 -16t42 -6t34 -1q32 0 71 6t78 18t72 33t53 49q-16 22 -40 33t-52 11q-18 0 -68 -6t-103 -18t-94 -30 t-41 -42z" />
<glyph unicode="&#x153;" horiz-adv-x="1208" d="M4 198q0 52 23 120t63 128t94 102t118 42q24 0 41 -7t29 -39q-58 -18 -113 -51t-97 -76t-67 -98t-25 -121q0 -26 2 -50t11 -42t26 -29t47 -11q78 0 125 23t91 77q-20 34 -21 71t-1 75t8 100t29 119t55 99t86 42q30 0 55 -9t41 -35v-8q34 24 70 38t76 14q28 0 46 -18 t18 -46q0 -66 -35 -129t-85 -121t-104 -109t-92 -85q0 -2 -1 -9t-1 -11q0 -34 18 -57t45 -39t58 -24t57 -8q80 0 140 16t111 46t96 74t93 100q14 14 18 22t5 14t4 12t17 16q16 -6 19 -19t3 -25q-14 -54 -62 -118t-115 -117t-146 -87t-156 -30t-148 55t-121 167l-190 -116 q-24 -20 -63 -21t-65 -1q-44 0 -69 16t-39 43t-18 62t-4 73zM413 283q1 -11 5 -21t14 -12q12 72 49 155t85 165q-2 14 -6 24t-18 12q-30 -18 -55 -52t-41 -74t-24 -81t-8 -77q0 -4 -1 -16t0 -23zM514 276q0 -20 4 -28q34 20 79 59t83 87t65 99t29 97q-44 0 -86 -25t-78 -63z " />
<glyph unicode="&#x178;" horiz-adv-x="1330" d="M78 -258q-4 34 3 55t24 11t43 -55t60 -143q108 -206 202 -304t178 -114t155 42t130 166t106 255t81 311t54 332t26 320q-34 -126 -92 -196t-124 -83t-130 30t-112 143t-68 258t0 372q-20 -4 -49 -20t-59 -37t-61 -39t-56 -27t-41 -4t-18 35q28 12 64 36t74 49t74 46 t64 30t47 2t23 -39q6 -60 5 -133t0 -148t8 -150t29 -138t62 -111t106 -70q88 20 142 82t83 145t42 181t21 195t17 183t31 148l44 -16q-6 -280 -28 -556t-59 -527t-89 -466t-121 -370t-154 -240t-188 -76t-224 120t-259 351q-30 40 -46 85t-20 79zM675 1509q1 29 49 47 q16 0 40 -24t24 -42q-14 -50 -43 -52t-50 20t-20 51zM951 1509q1 29 47 47q16 0 40 -24t24 -42q-14 -50 -43 -52t-49 20t-19 51z" />
<glyph unicode="&#x2c6;" horiz-adv-x="650" d="M106 1056q12 26 43 77t71 108t84 109t82 78q2 0 3 -1t5 -1h6q0 -38 12 -82t30 -87t37 -82t31 -65q0 -2 5 -10l10 -16t9 -17t4 -11v-2q0 -2 1 -3t1 -3q0 -10 -12 -20t-28 -10q-14 0 -20 14q-6 12 -20 44t-28 67t-27 67t-19 44q-4 8 -17 27t-17 25q-32 -18 -60 -62t-55 -88 t-53 -79t-58 -35q-12 0 -20 14z" />
<glyph unicode="&#x2dc;" horiz-adv-x="840" d="M92 1158q-4 52 14 85t46 50t58 19t48 -6q38 0 71 -15t64 -33t65 -34t76 -16h60t51 10t37 34t14 72q0 66 -16 94t-66 28q0 28 20 32t36 4q48 0 70 -44t22 -100q0 -66 -19 -106t-50 -63t-72 -31t-87 -8q-42 0 -80 18t-72 39t-69 39t-71 18q-40 0 -71 -29t-55 -57h-24z" />
<glyph unicode="&#x2000;" horiz-adv-x="1278" />
<glyph unicode="&#x2001;" horiz-adv-x="2556" />
<glyph unicode="&#x2002;" horiz-adv-x="1278" />
<glyph unicode="&#x2003;" horiz-adv-x="2556" />
<glyph unicode="&#x2004;" horiz-adv-x="852" />
<glyph unicode="&#x2005;" horiz-adv-x="639" />
<glyph unicode="&#x2006;" horiz-adv-x="426" />
<glyph unicode="&#x2007;" horiz-adv-x="426" />
<glyph unicode="&#x2008;" horiz-adv-x="319" />
<glyph unicode="&#x2009;" horiz-adv-x="511" />
<glyph unicode="&#x200a;" horiz-adv-x="142" />
<glyph unicode="&#x2010;" d="M108 536q0 22 7 31t20 11t28 1t31 -1q26 2 86 3t128 2t128 2t84 3h12q20 0 27 -13t7 -31t-8 -28t-38 -12l-488 -8q-18 -2 -21 15t-3 25z" />
<glyph unicode="&#x2011;" d="M108 536q0 22 7 31t20 11t28 1t31 -1q26 2 86 3t128 2t128 2t84 3h12q20 0 27 -13t7 -31t-8 -28t-38 -12l-488 -8q-18 -2 -21 15t-3 25z" />
<glyph unicode="&#x2012;" d="M108 536q0 22 7 31t20 11t28 1t31 -1q26 2 86 3t128 2t128 2t84 3h12q20 0 27 -13t7 -31t-8 -28t-38 -12l-488 -8q-18 -2 -21 15t-3 25z" />
<glyph unicode="&#x2013;" horiz-adv-x="962" d="M108 536q0 22 7 31t20 11t28 1t31 -1q16 2 67 4t118 3t143 3t144 4t118 3t66 3h12q18 0 25 -13t7 -29q0 -20 -8 -30t-36 -12l-718 -18q-18 -2 -21 15t-3 25z" />
<glyph unicode="&#x2014;" horiz-adv-x="1412" d="M108 536q0 22 7 31t20 11t28 1t31 -1q16 2 95 5t190 6t236 7t235 8t189 6t95 4h14q18 0 25 -13t7 -29q0 -20 -8 -30t-38 -12l-1102 -34q-18 -2 -21 15t-3 25z" />
<glyph unicode="&#x2018;" horiz-adv-x="208" d="M54 872q0 42 20 92t20 96q0 42 -12 69t-12 67q40 0 76 -34t32 -80q-4 -28 -11 -60t-20 -64t-31 -61t-42 -47q-4 0 -12 8t-8 14z" />
<glyph unicode="&#x2019;" horiz-adv-x="306" d="M106 828q12 40 44 84t44 88q10 40 5 70t7 68q38 -12 64 -54t10 -86q-10 -26 -25 -55t-37 -56t-46 -51t-52 -34q-4 0 -9 10t-5 16z" />
<glyph unicode="&#x201a;" horiz-adv-x="276" d="M96 -94q0 40 21 91t21 97q0 42 -13 68t-13 68q42 0 78 -34t32 -82q-4 -26 -12 -59t-21 -64t-30 -60t-43 -47q-4 0 -12 8t-8 14z" />
<glyph unicode="&#x201c;" horiz-adv-x="578" d="M202 1102q0 16 8 29t26 13q24 0 38 -17t23 -41t12 -48t3 -40q0 -38 -4 -62t-22 -66l-8 -2q-12 0 -25 32t-24 72t-19 78t-8 52zM388 1124q0 20 16 37t34 17q38 0 55 -23t22 -55t4 -66t-1 -56v-18t-1 -24t-2 -21l-1 -9l-20 -24q-6 20 -24 52t-36 69t-32 71t-14 50z" />
<glyph unicode="&#x201d;" horiz-adv-x="578" d="M202 1102q0 16 8 29t26 13q24 0 38 -17t23 -41t12 -48t3 -40q0 -38 -4 -62t-22 -66l-8 -2q-12 0 -25 32t-24 72t-19 78t-8 52zM388 1124q0 20 16 37t34 17q38 0 55 -23t22 -55t4 -66t-1 -56v-18t-1 -24t-2 -21l-1 -9l-20 -24q-6 20 -24 52t-36 69t-32 71t-14 50z" />
<glyph unicode="&#x201e;" horiz-adv-x="488" d="M86 100q0 16 7 30t25 14q26 0 40 -18t22 -41t11 -48t3 -41q0 -36 -4 -61t-20 -67l-8 -2q-12 0 -26 32t-25 72t-18 78t-7 52zM270 122q0 22 17 38t35 16q36 0 54 -22t23 -55t4 -67t-1 -54v-19t-1 -25t-2 -21l-1 -9l-22 -22q-6 18 -23 51t-35 69t-33 70t-15 50z" />
<glyph unicode="&#x2022;" horiz-adv-x="418" d="M123 473q1 35 35 83q4 8 23 25t37 17q72 0 93 -24t21 -66q-4 -44 -28 -71t-53 -37t-60 -5t-50 24t-18 54z" />
<glyph unicode="&#x2026;" horiz-adv-x="824" d="M125 106q1 30 49 46q16 0 40 -24t24 -42q-14 -50 -43 -52t-50 20t-20 52zM401 106q1 30 47 46q16 0 40 -24t24 -42q-14 -50 -43 -52t-49 20t-19 52zM675 106q1 30 47 46q18 0 41 -24t23 -42q-14 -50 -43 -52t-49 20t-19 52z" />
<glyph unicode="&#x202f;" horiz-adv-x="511" />
<glyph unicode="&#x2039;" horiz-adv-x="820" d="M130 556v6q0 14 16 20q128 56 245 118t233 138q20 14 40 14q2 -2 4 -2h2q8 -4 20 -13t14 -13t-6 -16t-12 -14q-98 -62 -212 -127t-230 -111l380 -440q2 -4 -4 -19t-14 -21h-14q-30 0 -45 25t-25 47q-12 16 -49 58t-79 89t-80 89t-54 58q-6 6 -24 23t-40 35t-40 33t-26 23 z" />
<glyph unicode="&#x203a;" horiz-adv-x="686" d="M64 858q2 4 14 13t20 13h2q2 0 2 1t2 1q12 0 22 -4t20 -10q118 -74 236 -134t248 -116q18 -6 18 -20v-6q-10 -6 -28 -21t-39 -33t-41 -34t-26 -22q-16 -18 -54 -57t-81 -86t-80 -89t-51 -58q-10 -18 -25 -44t-45 -26h-14q-8 8 -14 23t-4 19l384 428q-116 46 -233 109 t-215 127q-4 2 -12 12t-6 14z" />
<glyph unicode="&#x205f;" horiz-adv-x="639" />
<glyph unicode="&#x20ac;" horiz-adv-x="1088" d="M22 586q0 14 3 25t21 15q4 0 45 1t95 1q2 92 18 192h-118q-12 0 -38 16t-26 34q0 22 17 28t35 6h52t94 -2q22 122 61 239t91 210t118 154t143 73t166 -34t189 -170q-2 -12 -12 -17t-20 -5h-6q-2 0 -4 2q-88 100 -164 134t-140 18t-119 -73t-96 -141t-73 -186t-52 -206 q62 -2 127 -7t120 -12t93 -18t46 -27l-20 -18l-382 2q-8 -52 -12 -99t-8 -93h308q38 0 80 -1t78 -23q-8 -14 -55 -24t-115 -17t-147 -12t-151 -7q2 -66 23 -146t58 -150t96 -117t139 -47q172 0 283 57t145 205q18 -4 21 -21t3 -33q0 -4 -1 -15t-3 -15q-44 -140 -159 -201 t-289 -61q-74 0 -134 33t-109 84t-82 114t-53 125q-18 80 -18 186q-46 -2 -78 -2h-42q-42 0 -42 46z" />
<glyph unicode="&#x2122;" horiz-adv-x="2612" d="M64 320q0 32 10 71t31 72t52 55t73 22q16 0 37 -7t21 -31q-70 0 -126 -44t-56 -130q0 -58 34 -108t85 -87t113 -57t114 -20q106 0 194 54t148 132q132 180 196 395t66 445q-46 -38 -92 -72t-99 -58t-117 -36t-144 -6q-40 0 -83 5t-85 8t-84 0t-84 -15v188q22 8 33 -1 t13 -29t-1 -44t-3 -46q84 0 162 -12t162 -12q58 0 121 14t120 40t107 63t88 81q2 20 6 49t12 62t20 62t34 43q30 0 43 -23t17 -49q0 -28 -12 -51t-28 -43t-30 -42t-18 -48q-2 -22 -9 -77t-16 -116t-19 -116l-14 -77q-16 -68 -42 -147t-63 -159t-86 -153t-111 -128t-136 -89 t-160 -34q-60 0 -130 23t-128 64t-97 96t-39 123zM1136 38q0 30 4 46t26 40q94 116 151 196t87 132t40 82t14 46q4 4 7 29t3 60v73t-2 69t-4 46t-4 7q-104 -42 -161 -66t-84 -34t-33 -12l-6 -2q-24 0 -24 22q0 8 11 13t24 10t24 7t15 4q26 12 55 29t60 32t62 28t57 15 q26 0 39 -15t18 -34t4 -43t-1 -42q0 -60 -8 -120t-8 -134q138 176 212 267t110 122t47 14t25 -61v-21t-1 -27t-1 -25v-13q-2 -20 -10 -70t-17 -108t-17 -108t-12 -68q48 88 105 199t119 211t124 172t124 82q26 0 40 -25t20 -58t6 -66v-53v-38q-2 -82 -15 -175t-29 -193 t-28 -200t-12 -195t17 -180t61 -153t119 -116t191 -66q56 18 59 13t-19 -16t-56 -21t-54 -4q-80 0 -139 29t-101 76t-69 109t-43 128q-10 122 -2 242t21 240t26 239t15 243v23t-1 36t-1 35v22l-4 22q-2 8 -6 15t-10 7q-74 -56 -134 -132t-112 -161t-93 -172t-77 -163 q-6 -12 -18 -46t-27 -73t-27 -74t-16 -49q-2 -2 -13 -8t-15 -6t-10 6t-6 8q0 6 2 27t11 90t30 202t61 365q-4 18 -13 22t-18 0t-18 -11t-11 -11q-12 -16 -37 -46t-56 -69t-66 -83t-67 -83t-57 -71t-37 -46l-14 -49t-21 -73t-22 -73t-15 -47q-12 -32 -31 -66t-46 -61t-60 -44 t-69 -17q-34 0 -46 5t-12 39zM1142 1222q14 12 16 24t2 28q0 4 -1 10t-1 10q-8 -14 -12 -29t-4 -43zM1194 36q22 0 45 15t43 34t36 42t24 39q2 6 9 26t17 45t19 50t13 37v8q-16 -18 -51 -57t-69 -83t-60 -86t-26 -70z" />
<glyph unicode="&#x25fc;" horiz-adv-x="710" d="M0 0v710h710v-710h-710z" />
<glyph unicode="&#xfb01;" horiz-adv-x="1182" d="M-70 -532q0 72 2 132t11 122t25 136t44 172l318 778q64 8 86 -33t15 -109t-38 -152t-73 -163t-90 -143t-88 -94q6 -32 25 -54t45 -34t54 -16t56 -4q110 0 203 34t183 96q20 12 30 25t18 22t18 15t30 6q0 -38 -31 -74t-80 -66t-110 -55t-120 -44t-110 -30t-81 -13 q0 -60 19 -115t21 -117q0 -30 -9 -83t-24 -114t-37 -122t-52 -111t-65 -82t-75 -32q-44 0 -69 40t-36 93t-13 106t-2 83zM-8 -506q0 -20 1 -64t9 -88t22 -78t44 -34q22 0 45 29t43 74t36 99t29 104t20 91t7 57q0 54 -5 97t-21 78t-45 61t-79 48q-32 -18 -53 -78t-33 -135 t-16 -147t-4 -114zM204 304q28 32 54 74t48 88t35 93t13 91q0 4 -1 16t-1 16l-22 -20l-126 -336v-22zM735 206q-3 98 15 270q2 4 9 30t17 57t24 57t34 26t33 -9t9 -37q-40 -98 -62 -193t-22 -201q0 -36 9 -72t30 -63t53 -44t78 -17q152 60 218 74t73 4t-34 -38t-103 -51 t-134 -36t-126 7q-30 10 -57 25t-44 64t-20 147zM892 921q0 17 19 30t71 11q0 -50 -14 -71t-31 -20t-31 17t-14 33z" />
<glyph unicode="&#xfb02;" horiz-adv-x="1240" d="M-70 -532q0 72 2 132t11 122t25 136t44 172l318 778q64 8 86 -33t15 -109t-38 -152t-73 -163t-90 -143t-88 -94q6 -32 25 -54t45 -34t54 -16t56 -4q110 0 203 34t183 96q20 12 30 25t18 22t18 15t30 6q0 -38 -31 -74t-80 -66t-110 -55t-120 -44t-110 -30t-81 -13 q0 -60 19 -115t21 -117q0 -30 -9 -83t-24 -114t-37 -122t-52 -111t-65 -82t-75 -32q-44 0 -69 40t-36 93t-13 106t-2 83zM-8 -506q0 -20 1 -64t9 -88t22 -78t44 -34q22 0 45 29t43 74t36 99t29 104t20 91t7 57q0 54 -5 97t-21 78t-45 61t-79 48q-32 -18 -53 -78t-33 -135 t-16 -147t-4 -114zM204 304q28 32 54 74t48 88t35 93t13 91q0 4 -1 16t-1 16l-22 -20l-126 -336v-22zM722 188q4 84 25 188t51 211t69 209t79 184t77 134t67 64q16 0 26 -19t14 -42t6 -45t2 -28q0 -64 -14 -137t-38 -147t-55 -144t-63 -120q-28 -46 -57 -77t-53 -60t-39 -63 t-15 -86q0 -106 58 -180t174 -74q72 0 138 26t96 102h24q0 -48 -27 -84t-67 -59t-87 -35t-87 -12q-66 0 -117 24t-88 65t-62 94t-37 111zM826 422q50 32 95 109t80 167t57 180t22 152q-8 -10 -23 -37t-33 -57t-32 -56t-18 -38q-16 -40 -41 -105t-48 -131t-41 -118t-18 -66z " />
</font>
</defs>
</svg>
