<?xml version="1.0" standalone="no"?>
<!DOCTYPE svg PUBLIC "-//W3C//DTD SVG 1.1//EN" "http://www.w3.org/Graphics/SVG/1.1/DTD/svg11.dtd" >
<svg xmlns="http://www.w3.org/2000/svg">
<metadata></metadata>
<defs>
<font id="throwupzregular" horiz-adv-x="686" >
<font-face units-per-em="2048" ascent="1536" descent="-512" />
<missing-glyph horiz-adv-x="1024" />
<glyph horiz-adv-x="0" />
<glyph unicode="&#xd;" horiz-adv-x="1024" />
<glyph unicode=" "  horiz-adv-x="1024" />
<glyph unicode="&#x09;" horiz-adv-x="1024" />
<glyph unicode="&#xa0;" horiz-adv-x="1024" />
<glyph unicode="!" horiz-adv-x="653" d="M37 295q4 16 8 24.5t18 14.5q9 4 11 4q29 4 36 -13.5t-4 -37.5q6 -10 13.5 -19.5t13.5 -19.5q23 -29 46.5 -58.5t47.5 -58.5q14 -16 28.5 -29.5t31.5 -27.5q25 23 49 42t51 38q25 16 50.5 26t49.5 25q14 18 33 20q6 0 8 -2q29 -4 27 -30.5t-23 -40.5q-35 -18 -69.5 -25.5 t-38.5 -9.5q-31 -10 -57.5 -26.5t-51.5 -39.5q117 -86 273 -92q18 -4 24 -16.5t2 -25.5t-16 -24.5t-29 -11.5q-86 16 -154.5 52t-129.5 85q-37 -39 -70 -92q-10 -18 -23.5 -45.5t-35.5 -40.5q-2 -2 -12.5 -2t-8.5 -2q-29 4 -27.5 29.5t21.5 40.5q0 2 6 6t8 8q6 8 12.5 16.5 t12.5 16.5q18 25 39.5 46t44.5 42q0 2 2 2q-29 25 -55.5 49.5t-55.5 52.5q-12 12 -31.5 30t-38 37t-29.5 40.5t-7 42.5zM127 889q6 55 60.5 107.5t126 87t146.5 50t124 -3.5q29 -10 31.5 -27.5t-8.5 -34.5t-31.5 -30.5t-38.5 -15.5q-23 0 -30 14.5t-1 30.5h-10 q-45 0 -93.5 -11.5t-91.5 -34t-78.5 -55t-58.5 -73.5q2 -4 2 -6t2 -6q41 -10 82 -7t82 7q18 4 36.5 5t37.5 3q59 6 90 -1t35 -25.5t-16.5 -46.5t-61.5 -64q-37 -33 -81 -54.5t-85 -52.5q-10 -8 -16.5 -13t-10.5 -9q33 -10 68 -25q59 -33 70.5 -68.5t-2 -69.5t-38 -64.5 t-36.5 -53.5q4 -2 12 -2q18 -4 24.5 -16.5t2.5 -25.5t-16.5 -24.5t-28.5 -11.5q-43 6 -57.5 19.5t-12.5 33t17.5 41t32 44t30.5 42t16 35.5q2 25 -13 42.5t-36.5 28.5t-44 17t-35.5 10q-25 14 -10 43q29 39 72 66t86 52.5t79.5 52t53.5 65.5l-12 -1q-13 -1 -30.5 -2 t-32.5 -2t-17 -1q-14 -2 -62.5 -11.5t-99.5 -12.5t-90 9.5t-33 55.5z" />
<glyph unicode="&#x22;" horiz-adv-x="260" d="M41 709q12 141 27.5 280.5t5.5 280.5q4 14 14 25.5t20.5 15.5t19.5 -2t13 -27q-12 -141 -26.5 -279.5t-5.5 -281.5q0 -16 -11.5 -28.5t-24 -15.5t-22.5 3t-10 29zM150 721q-6 139 3.5 275.5t32.5 271.5q8 14 19.5 21t22 5t17.5 -12t5 -29q-43 -133 -51.5 -251.5 t18.5 -256.5q0 -14 -8 -26t-18.5 -17.5t-21.5 -1t-19 20.5z" />
<glyph unicode="#" horiz-adv-x="1001" d="M16 652q-2 71 24 136.5t73 115.5t104 66.5t118.5 -9t115.5 -113.5l12 -19q29 66 72 126.5t104 82.5q18 6 31.5 11.5t24 7.5t23.5 3t32 1q45 0 84.5 -26.5t68.5 -66.5t42 -88.5t5 -86.5q-6 -27 -19 -48.5t-29.5 -40t-35 -37t-32.5 -38.5q23 -10 36 -26.5t31 -33.5 q25 -23 48.5 -46t39.5 -52q25 -47 14.5 -95t-39 -91t-68.5 -79t-77 -59q-39 -25 -73.5 -17.5t-64.5 24t-54.5 34t-42.5 13.5q-10 -2 -20.5 -24.5t-24 -53.5t-29.5 -67t-36.5 -65.5t-47.5 -47t-59 -11.5q-51 8 -99.5 43t-87.5 81t-66.5 99.5t-37.5 100.5q-10 45 14.5 93 t56.5 71q10 8 21.5 14t21.5 15q-29 10 -66.5 25t-62.5 50q-43 57 -45 128zM75 665.5q1 -16.5 5 -32t10 -31.5t16 -39q8 -16 26 -26.5t38 -18.5t41.5 -16t36.5 -21q8 -10 6 -24q-4 -25 -20.5 -40.5t-38 -27.5t-41 -27.5t-29.5 -39.5q-16 -43 11.5 -106.5t73.5 -120t99 -93.5 t88 -27q43 12 64.5 50t37 81.5t32 81t49.5 52.5q16 8 35.5 0.5t40 -19.5t40 -24.5t33.5 -16.5q31 -8 60.5 1t55 28.5t47 44.5t36.5 49q37 59 31.5 103.5t-33.5 66.5q-20 16 -39 34.5t-37 37.5q-4 4 -14.5 13t-12.5 13q-45 23 -46 45.5t19.5 47t49 52t45.5 60.5 q12 23 10 48.5t-13 50t-28.5 46t-36.5 35.5q-53 45 -104 38t-94 -43t-75 -90t-48 -105q4 -10 6 -18.5t4 -18.5q2 -16 -4 -30.5t-16.5 -23t-23.5 -5t-22 21.5v4q-10 4 -16 16.5t-2 30.5v4q-18 43 -53 94.5t-86 73.5q-43 18 -80 2t-64.5 -50t-46 -77t-22.5 -75 q-2 -23 -1 -39.5z" />
<glyph unicode="$" horiz-adv-x="712" d="M-47 113q0 14 6 27.5t16.5 20.5t21.5 6t21 -17q4 -76 45 -115t97 -35q0 2 1 2t1 2q8 18 19.5 23.5t21.5 2.5t16 -13.5t4 -26.5q0 2 1 1t1 1q-4 -16 -8 -32.5t-8 -33.5v8q-2 -16 -4 -34.5t-1 -36t8 -32.5t24 -26q31 -18 66.5 -12t66 25.5t52 49.5t21.5 60q-6 6 -11 12.5 t-11 12.5q-2 2 -8 2q-23 10 -23 29.5t14 33.5q8 14 21.5 19.5t30.5 -6.5q0 -2 4 -6q61 -16 113.5 -3t84 48.5t40 90t-16.5 118.5q-16 45 -67.5 95t-108.5 77h-6q-45 -10 -82 -1t-74 25q-33 8 -49 21l-2 2q-2 0 -6 10q-2 2 -6 10q-6 14 -2 30.5t14 26t23.5 9.5t23.5 -19 q10 -6 18.5 -11t16.5 -9q31 -8 71.5 -12.5t61.5 -14.5q4 -4 8 -4q84 0 154 47q82 53 94 117.5t-16.5 122t-87 96.5t-119.5 43q-2 -2 -2 -4t-2 -2q-33 -25 -48 2q-4 -2 -6 -2t-6 -2q-16 -8 -26 -8h-7q-29 12 -22.5 38.5t29.5 38.5q33 12 67 13l19 18q0 45 -38 82t-88.5 55.5 t-99.5 13.5t-73 -48q-12 -23 -18.5 -47.5t-5.5 -46t8 -37t24 -17.5q18 -4 24 -16.5t2 -25.5t-16 -24.5t-29 -11.5q-10 2 -17 6.5t-15 8.5q-25 4 -47.5 2t-47.5 -13q-16 -6 -26.5 -21t-20.5 -30l-8 -12l-8 -12q0 -2 -1 -2t-1 -2q-2 -2 -2 -5l6 7q2 2 2 4v-4q0 -14 -8 -26.5 t-18.5 -18t-21.5 -1t-20 20.5q0 33 17.5 60.5t45 49t61.5 39t65 27.5q-4 25 -2 53.5t8 54t16.5 45t22.5 27.5q16 12 32.5 25.5t34.5 21.5q39 16 99.5 9.5t115 -33.5t87 -71t20.5 -99q-2 -4 -2 -7t-4 -7q49 -16 92 -50t72.5 -79.5t42 -97.5t0.5 -103q-20 -86 -81 -133 t-136 -72q59 -47 98 -109.5t61 -132.5q14 -47 3 -92t-39.5 -84t-69.5 -67.5t-82 -40.5q-29 -6 -43 -6q2 -43 -33 -84t-83 -69t-98 -37t-81 11q-25 16 -36 31.5t-15 32t-5 36t-3 48.5q-2 8 -2 24q-31 8 -62 26.5t-57.5 43.5t-46 53.5t-31.5 57.5zM-25 359.5q-2 11.5 1.5 25.5 t13.5 25q25 12 57 18q-37 14 -57 39q-6 12 -4 27.5t10 25.5t20.5 12.5t26.5 -8.5q10 -18 44 -43.5t73 -31.5q16 -2 14 -16.5t-12 -20.5q-37 -18 -75 -29.5t-71 -38.5q-18 -8 -28.5 -2t-12.5 17.5z" />
<glyph unicode="%" horiz-adv-x="1005" d="M44 1023q28 38 85 36q23 33 56.5 52t78.5 19t79 -22.5t67 -46.5q43 -31 63.5 -68t25.5 -75.5t-5.5 -77.5t-30.5 -76q-2 -12 -10 -23q-12 -23 -27 -32q-14 -16 -28.5 -30.5t-30.5 -27.5q-29 -23 -68 -33t-74 -24q-23 -8 -47 3t-47 17q-25 6 -39 29t-23.5 51.5t-13.5 57.5 t-6 45q-6 31 4 84q-4 4 -4 8q-33 96 -5 134zM78 -31q12 45 22.5 89t26.5 85q55 154 146.5 288t203 252t236.5 222.5t252 198.5q16 10 27.5 7t16.5 -13.5t3 -25.5t-11 -28q-170 -113 -308 -219t-245.5 -231t-184.5 -278.5t-122 -360.5q-6 -18 -18 -26.5t-23.5 -6.5 t-18.5 14.5t-3 32.5zM117 883q4 -66 41 -118t112 -52q31 0 62.5 7t58.5 25q33 25 34 50.5t-18.5 52t-56.5 50.5t-78 42q-14 -10 -34 -2q-14 8 -27.5 15.5t-28.5 13.5q-23 -10 -39 -33t-26 -51zM119 733q12 -39 39.5 -61.5t70.5 -18.5q10 0 27 4q-59 0 -86 25q-33 27 -51 51z M168 1053q8 0 20 -4h5q14 0 27 -6.5t26 -14.5q61 -27 117.5 -67.5t89.5 -83.5q0 37 -13.5 72.5t-38 64t-61.5 48t-84 25.5q-51 6 -88 -34zM435 215q5 47 28 102q-4 27 -6 56.5t2 58.5q-16 6 -17 33q10 66 59.5 78t112.5 -8q10 -2 24.5 -4.5t37.5 -4.5q4 0 8 -1t8 -1 q8 2 17.5 3t21.5 5q25 4 33 -9t4 -29q27 -16 51.5 -34t46.5 -34q53 -37 69.5 -85t5.5 -95t-45 -92t-80 -77t-100 -48.5t-104 -5.5q-72 14 -111.5 40.5t-55 65.5t-10.5 86zM487 236q-6 -53 26 -96.5t114 -59.5q61 -14 122.5 11.5t101.5 72.5t44 107.5t-51 117.5 q-16 18 -37 32.5t-43 27.5h-2q47 -41 74.5 -88.5t17.5 -90.5q-4 -23 -10.5 -47.5t-24.5 -40.5q-47 -45 -96 -62.5t-93 -10t-81 39t-62 87.5zM494 385q27 45 63 74q2 2 3 2t3 2q-6 4 -14 5t-19 3q-36 -29 -36 -86zM508 305q14 -35 37.5 -67.5t54.5 -52t66.5 -23.5t74.5 16 t50.5 50t4 63t-28.5 61.5t-52 46.5q-16 10 -36 18.5t-40 16.5q-25 -10 -49 -33q-55 -45 -82 -96z" />
<glyph unicode="&#x26;" horiz-adv-x="890" d="M-15.5 714q11.5 87 44.5 169q18 45 58 74.5t75 62.5q33 33 81 37t89 16q55 16 123.5 3t133 -45t116.5 -80t75 -99q35 -80 18.5 -140.5t-53.5 -119.5q39 -2 74 -22.5t52.5 -55.5t9 -81t-53.5 -97q-6 -6 -10 -12.5t-8 -12.5q37 -25 73 -70.5t55 -97t16 -95.5t-44 -64 q-31 -16 -78 -12.5t-99 21t-103 46.5t-90 63q4 -20 -11 -41q-53 -49 -106 -85.5t-119 -71.5q-78 -41 -132 -37t-85 35.5t-41 83t-2 108t34.5 107.5t67.5 84q2 2 4.5 3t4.5 3q-72 41 -112 108.5t-54.5 147.5t-3 167zM22.5 626.5q10.5 -69.5 40 -129t80 -104.5t119.5 -61h8 q4 -2 7.5 -3t7.5 -3q4 0 9 -1t11 -1q18 -4 24.5 -16.5t2.5 -26t-16.5 -24.5t-28.5 -11q-8 2 -14.5 2t-14.5 2q-39 -8 -68.5 -18.5t-49 -29t-32 -47t-18.5 -73.5q-2 -16 -5 -36.5t-3 -40t4 -39t18 -34.5q35 -37 92.5 -20.5t116 56.5t108.5 85t71 68q12 6 22 6q-39 41 -47 80 q0 14 6 27.5t16.5 20.5t21.5 6t21 -17q4 -31 42 -71t90.5 -77t108.5 -60.5t99 -19.5q45 6 45.5 42t-22.5 81t-54.5 84t-52.5 51q-14 6 -28 9h-2q-18 8 -11 26.5t23 22.5q10 0 25.5 19.5t25.5 47t10 56t-18 45.5q-23 20 -51.5 23t-56.5 -7q-4 -2 -9.5 -5t-9.5 -7q-2 -4 -4 -7 t-4 -8q8 8 1 -1t-9 -17q-10 -14 -22.5 -18t-22 0t-14.5 15t-1 30q2 4 4 9t4 9l5 8q0 2 1 2t1 2q4 6 8 12.5t8 10.5q25 33 47.5 61.5t36.5 59t17 66.5t-13 81q-27 74 -92.5 124t-147 72.5t-165.5 15.5t-148 -46q-61 -39 -99 -97.5t-51.5 -125t-3 -136zM231.5 641.5 q1.5 15.5 10 26t20.5 12.5t27 -8q37 -61 71.5 -87t81.5 -40q18 39 21.5 73.5t3.5 38.5q4 18 16.5 29.5t23.5 12.5t20.5 -9t7.5 -33q-10 -31 -22.5 -62.5t-29.5 -62.5q16 -4 35 -8t41 -8q25 -18 14.5 -47t-43.5 -29l-79 43q-23 -29 -49.5 -52t-59.5 -38q-18 0 -25.5 9.5 t-7.5 22.5t7.5 25.5t19.5 18.5q25 2 43 11t33 22q-47 25 -91 51t-85 61q-6 12 -4.5 27.5z" />
<glyph unicode="'" horiz-adv-x="6" d="M-215.5 1118q2.5 41 21 79t49 72t61.5 58q-4 16 8.5 33.5t32.5 21.5q16 -4 31.5 -9t31.5 -11h9q18 -2 24 -16q90 -51 119 -145.5t-31 -199.5q-8 -14 -29.5 -46.5t-48 -62.5t-54 -47.5t-50.5 1.5q-10 8 -13 22.5t-2 30.5t6 34.5t9 35.5q-41 8 -83 20t-69 51 q-25 37 -22.5 78zM-174.5 1141q-6.5 -35 18.5 -62q29 -33 67 -35t75 -4l2 2q25 14 38 3t11 -37q-8 -29 -19.5 -55.5t-15.5 -55.5q12 4 24.5 16.5t24.5 27.5t22.5 29.5t16.5 20.5q35 45 45 89t-1 84t-39.5 72t-74.5 50q-2 -2 -10 -2q-10 2 -22.5 4t-24.5 0 q-27 -4 -57.5 -27.5t-52 -54t-28 -65.5z" />
<glyph unicode="(" horiz-adv-x="710" d="M-11 195.5q3 33.5 11 67.5t17.5 66.5t17.5 65.5l8 40t14.5 68t18.5 81t22.5 79.5t26 63.5t29.5 33q29 4 35 -15.5t-5 -37.5q4 2 -3 -8.5t-13 -28.5q-10 -29 -17.5 -58.5t-17.5 -58.5q-4 -16 -23.5 -73.5t-39 -124t-32.5 -125t-7 -78.5q8 -23 35.5 -36.5t42.5 -19.5 q23 -10 47 -19t47 -20q14 -6 62 -29.5t103.5 -45t105.5 -32.5t69 7q25 25 37 62.5t15 79.5t1 85t-4 80v2q-6 66 -10 130.5t-11 129.5q0 16 9.5 30.5t21.5 21t22.5 1t14.5 -27.5q4 -90 7 -177t-1 -179q-2 -49 -5 -95.5t-16.5 -85.5t-40 -69.5t-75.5 -50.5q-29 -10 -68 7 t-63 31q-10 6 -19.5 13.5t-19.5 11.5q-4 2 -16 6q-6 2 -11 4q-33 10 -86 28.5t-104 41t-90 46t-41 44.5q-4 35 -1 68.5zM238 420q20 258 82.5 499.5t177.5 473.5q27 29 45 10t8 -49q-68 -115 -116 -223.5t-76.5 -219t-41 -228.5t-12.5 -251q0 -16 -11 -28.5t-23.5 -15.5 t-22.5 3t-10 29zM354 434q0 4 2 8q0 9 2 13q0 2 1 3t1 3q33 119 66 236.5t66 236.5q16 63 31.5 128.5t37 129t51 123t74.5 108.5q16 10 27.5 7t16.5 -13t3 -25.5t-10 -27.5q-68 -66 -116 -176.5t-83 -238.5t-59.5 -259t-42.5 -235v-15q-4 -12 -6 -20q0 -2 -1 -2t-1 -2 q-2 -6 -2 -12.5t-2 -12.5q-4 2 -9 6q-16 -14 -35.5 -5t-11.5 42z" />
<glyph unicode=")" horiz-adv-x="1705" d="M5 606.5q5 65.5 22.5 125t47 102.5t68.5 59q16 6 35 2t35 -8q57 6 127 -29l2 2q4 2 5 3t5 3t9.5 4t0.5 0q-4 -4 -6 -4q61 27 98.5 43.5t56.5 18.5t27.5 -10.5t14.5 -40.5q0 4 4 8q29 41 62.5 35.5t70.5 -35.5q-2 6 2 22q23 51 66 77t90 48q39 23 85 40.5t91 14.5 q59 -2 108.5 -39.5t79.5 -91.5q78 41 146.5 33t125 -51t95.5 -111.5t57.5 -146.5t12 -159t-40.5 -146q-29 -53 -81 -98.5t-110.5 -63.5t-117 -3t-101.5 81q-8 10 -14 26q-16 -39 -36 -81.5t-43.5 -76.5t-52 -49t-65.5 1q-31 14 -51.5 25t-42.5 40q-2 -2 -4 -3t-4 -3 q-68 -27 -162 -74t-193.5 -91t-196.5 -71.5t-173 -15.5q-37 6 -61.5 19.5t-40 34t-24.5 48t-20 60.5q-23 76 12 130t87 99q-43 18 -69 65.5t-35 107t-4 125zM48 585.5q-5 -55.5 5 -108.5t39 -92q12 -14 28.5 -21.5t33.5 -17.5l12 12q31 16 41 -2q27 2 55 13q31 10 58.5 38.5 t49 64.5t34 74t14.5 68q2 47 -11.5 85t-39 63.5t-60.5 38t-74 12.5q-10 -8 -24 -8l-19 4q-29 -6 -59 -23q-4 -2 -8 -2q-31 -39 -50.5 -91t-24.5 -107.5zM55 98.5q6 -47.5 37 -80t80 -48t107 -5.5q78 14 151.5 45t145 70t141 80t139.5 76q-10 16 -19.5 32.5t-19.5 44.5 q-33 80 -33 160q-14 -4 -26.5 -6t-22.5 -4q-29 -8 -49 -14.5t-16 -4.5q-9 -4 -13 -8q-2 -18 -16 -32.5t-37 -6.5q-57 -37 -120.5 -41t-106.5 50q-4 8 -4 10q-35 -45 -78 -75t-90 -40q-2 0 -2 -2q-29 -23 -66 -44.5t-57 -55.5q-31 -53 -25 -100.5zM141.5 612.5 q-4.5 14.5 0.5 27.5t18.5 22.5t29.5 5.5q10 -8 19.5 -14.5t19.5 -12.5q10 18 22.5 33.5t22.5 23.5q18 4 27.5 -4t10.5 -20t-4 -25.5t-17 -21.5q-16 -4 -25 -13q18 -10 37 -21t41 -22q16 -25 0 -51t-47 -14q-12 18 -25.5 34.5t-29.5 28.5q-6 -16 -11.5 -37.5t-11.5 -46.5 q-12 -18 -25.5 -20t-22.5 5t-12 21.5t7 32.5q2 2 11 20.5t22 43.5q-10 4 -37 4q-16 6 -20.5 20.5zM401 817q33 -31 46.5 -73t12.5 -88t-14.5 -94t-37.5 -91h2q4 2 8 2q27 -6 26 -29q6 -4 13.5 -7t15.5 -7q35 -20 59.5 -18t49.5 18q0 8 2 15.5t6 17.5q25 29 65 45q33 57 0 90 q-6 12 -4 27.5t10.5 26t20.5 12.5t27 -9q20 -31 20 -65.5t-16 -69.5q29 4 52 6t44 6q8 6 18 7q27 12 21 48t-66 122q-12 18 -27.5 35.5t-31.5 33.5l-30.5 30.5t-19.5 16.5t-21.5 10.5t-35.5 12.5q-2 -2 -10 -6q-4 -14 -5 -27.5t-5 -28.5q-6 -18 -23 -28q4 -10 6.5 -20.5 t6.5 -20.5t8 -20.5t8 -22.5q2 -16 -4 -30.5t-16.5 -23t-23.5 -5.5t-21 22q-4 31 -4.5 63.5t-2.5 67.5q-2 4 -2 18l2 5q-4 51 -20 92q-31 -10 -56.5 -28.5t-52.5 -37.5zM717 858q31 -31 58.5 -72t50 -80.5t38 -72.5t21.5 -47q10 -33 -0.5 -53.5t-30.5 -32.5v-2q-6 -41 -3 -78 t15 -80q6 -16 12.5 -34.5t14.5 -35.5q8 -16 18.5 -35.5t24.5 -38t30.5 -31.5t37.5 -15q35 -6 58 18.5t40.5 63t32 86t32.5 88.5q-2 10 -3 21t-5 22q0 14 6 27t16.5 20.5t21.5 6.5t22 -18v-2l2 2q18 4 27.5 -4t10.5 -20t-4.5 -25.5t-17.5 -21.5q-6 -2 -8 -8q2 -16 5 -34 t11 -34q25 -59 72 -71.5t96 4t92 52t64 72.5q31 53 35 122t-12.5 136.5t-51.5 128t-83 97t-105.5 44t-118.5 -29.5q8 -31 8 -66q-2 -27 -15 -44t-34.5 -28.5t-47.5 -17.5t-50 -10q27 -12 46 -32.5t34 -45.5q6 -12 -1.5 -23.5t-18.5 -21.5t-24.5 -18t-19.5 -13q-6 -6 -8 -16 q-4 -23 -12.5 -40t-5.5 -44q0 -16 -11.5 -28.5t-24 -15.5t-22.5 3t-10 29q6 33 16.5 64.5t30.5 56.5q10 12 32.5 29.5t37.5 25.5q-23 29 -59 38t-70 5q0 -2 -6 -2q-10 -10 -27 -10q-25 0 -29 18q-18 20 0 51q20 31 60.5 39t80 11.5t72.5 8.5t41 31q6 18 2 43 q-16 -6 -25.5 -2t-13.5 15.5t-1 26t14 26.5q-29 45 -75 75.5t-87 28.5q-33 -2 -69 -15t-68.5 -31.5t-60 -40t-46.5 -40.5q10 -20 -1 -40.5t-38 -20.5q-4 2 -8 3t-8 3z" />
<glyph unicode="*" horiz-adv-x="997" d="M12.5 830.5q-28.5 78.5 75.5 228.5q23 35 43.5 63.5t54.5 46.5q12 2 19 -4q20 -18 32.5 -38.5t24.5 -42t27.5 -43t40.5 -42.5q14 47 38.5 90.5t43.5 77.5q2 6 12 28t22.5 46.5t25.5 44t26 19.5q18 0 31.5 -11.5t25.5 -26t23.5 -28.5t25.5 -20q6 -2 32 -7.5t53.5 -11.5 t51 -15t27.5 -22q12 -41 -13.5 -83t-45.5 -81q55 20 105 48t114 26q18 0 35.5 -8t33.5 -18q23 -14 30 -32t5 -36t-8 -39.5t-8 -42.5q-4 -29 -6 -66.5t-25 -60.5q-25 -23 -55.5 -34t-64.5 -17t-67.5 -12.5t-62.5 -20.5v-4q4 -29 -14 -47q8 -23 29 -41q14 -16 40.5 -39 t54 -48.5t48 -51t20.5 -47.5q0 -39 -37.5 -75t-91 -63.5t-108.5 -42t-88 -10.5q-35 6 -60.5 39t-42.5 57q-20 35 -37.5 70t-33.5 72q-18 -23 -38 -49.5t-40.5 -49t-42 -39t-41.5 -18.5q-53 -6 -89 9.5t-60.5 46t-40 69.5t-25.5 80q-6 25 -19.5 58.5t-3.5 60.5q2 6 23.5 18 t50.5 27.5t62.5 32t60.5 28.5q-170 23 -198.5 101.5zM49 898q-6 -44 23 -64q20 -14 44.5 -20.5t50.5 -8.5t51.5 -2h47.5q23 -4 27 -21.5t-6 -33.5q18 -10 11 -37t-30 -37q-10 -2 -35.5 -10.5l-58.5 -19.5t-64.5 -23.5t-50.5 -20.5q2 -18 7.5 -36.5t9.5 -37.5q8 -35 18 -70.5 t29.5 -63t49.5 -41t77 -1.5q8 2 27.5 22.5t43 50.5t46 60.5t34.5 51.5l3.5 7t5.5 7l2 4v-2q2 4 4 5t4 3q29 16 41 -1t4 -40q25 -51 41 -105.5t51 -101.5q10 -16 20.5 -26.5t26.5 -16.5q12 -4 49 3.5t80 22.5t81 36.5t54 48.5q10 16 -6 34.5t-26 26.5q-31 27 -63 49.5 t-62 51.5q-23 23 -35 52.5t-37 47.5q-8 6 -14.5 6t-16.5 2q-16 6 -20 18.5t0 25t14 22.5t25 12q27 -6 43 -16q27 33 63.5 44t75.5 15t78 9t74 26q2 2 2 4q6 23 14 51.5t14 55t7 48t-5 27.5q-10 14 -36.5 21.5t-38.5 9.5q-27 2 -51.5 -5t-49 -19.5t-48.5 -28t-48 -29.5 q-2 -18 -17.5 -31.5t-37.5 -3.5q-4 0 -6.5 2t-6.5 4q-4 -2 -8 -2q-18 0 -26.5 10.5t-7.5 23.5t10.5 25.5t25.5 16.5q12 41 32.5 87t37.5 65q-12 8 -28.5 13t-35 8t-37 7t-32.5 13q-18 12 -28.5 24t-19 23.5t-17.5 20.5t-23 14q-20 -23 -27.5 -57t-22.5 -62 q-12 -29 -24 -58.5t-23 -60.5q-8 -25 -10 -32t-6 -29q16 -16 24.5 -26.5t8.5 -6.5q6 -39 -17 -54q-8 -23 -29.5 -31t-35.5 21q-2 16 -7 28.5t-8 27.5q-25 20 -46 40.5t-37 49.5q-10 16 -15.5 25t-8.5 17.5t-7 16.5t-12 25l-7 14q-2 4 -4 10q-18 -6 -49 -44t-54.5 -85 t-29.5 -91z" />
<glyph unicode="+" horiz-adv-x="1204" d="M12 513q0 42 6.5 84t8.5 73q2 18 2 44.5t4 54.5t14 49.5t33 29.5q18 6 42.5 -2t50.5 -22.5t49.5 -30t39.5 -21.5q43 -16 58.5 -17t25.5 3q-27 41 -36 89t-17 95q-2 12 -6 49t-5 79t5 77t26 43q27 10 56.5 9t58.5 1q33 4 65.5 8t65.5 0q45 -4 87 -13t77 -29.5t58.5 -53.5 t31.5 -80q8 -43 9 -87t-9 -89q0 -4 -2 -14.5t-4 -22.5q29 -14 53 -14q29 0 57.5 9t58.5 18.5t58.5 12.5t59.5 -9q43 -18 57 -56.5t11 -81.5t-18.5 -86t-29.5 -71q-16 -35 -46 -55.5t-62 -41.5q-43 -25 -93.5 -19.5t-97.5 5.5q-18 -14 -43 -6q4 -49 5 -98.5t-3 -98.5 q-4 -61 -38 -104t-83 -64.5t-105 -18.5t-106 34q-25 14 -41 40.5t-28.5 56.5t-19.5 61.5t-11 56.5q-2 8 -3 16t-3 17q-68 -23 -146.5 -9.5t-130.5 56.5q-29 25 -38 63.5t-9 80.5zM54 583.5q-1 -65.5 14.5 -123t54.5 -75.5q16 -8 43 -12t56.5 -4t60 4t55.5 16q4 31 18.5 58.5 t40.5 50.5q25 14 39 -2q10 0 19.5 -9.5t7.5 -31.5q-8 -35 -26.5 -61.5t-45.5 -43.5q-2 -18 1 -37.5t7 -40.5q6 -35 17.5 -75.5t36.5 -69.5q31 -33 74.5 -41t86.5 4t76 46t37 83q8 66 -5 134.5t-20 133.5q0 16 9.5 30.5t21.5 21t22.5 1.5t14.5 -28v-14l8 4q27 6 53.5 2l53 -8 t53.5 -6.5t53 8.5q43 14 77 51t49.5 81t5 88t-53.5 73q-14 10 -45 5t-63.5 -17.5t-62.5 -25t-44 -14.5q-14 -4 -26.5 -1t-26.5 7q-12 -18 -37 -18q-18 4 -25.5 16.5t-7.5 26.5q-16 4 -24 4q-16 6 -20.5 18.5t-0.5 24.5t14.5 22.5t24.5 12.5l25 -6l6 18q10 45 14 103.5 t-16 101.5q-18 41 -65.5 62.5t-108 28.5t-127 2t-121.5 -15q-10 -41 -4 -83t14 -83q0 4 2 2q6 -23 11 -49.5t12.5 -52t18.5 -48t32 -36.5q12 -20 6 -41v-6q4 -25 -12.5 -45.5t-34.5 -12.5q-41 -18 -77 -8t-70.5 31.5t-69.5 45t-70 32.5q-12 -25 -23.5 -84.5t-12.5 -125z" />
<glyph unicode="," horiz-adv-x="403" d="M-28.5 38q-3.5 54 14.5 107q14 39 49 71t75 47.5t73.5 13t43.5 -26.5q16 -10 32.5 -22.5t33.5 -28.5q10 -10 24.5 -23.5t20.5 -28.5q12 -29 -2 -70.5t-44 -87.5t-70 -94.5t-79 -91.5t-71.5 -78.5t-46.5 -58.5q-10 -16 -22.5 -10t-8.5 22q4 8 6 14.5t4 12.5q8 55 0 110.5 t-18.5 112t-14 110.5zM27 62.5q0 -27.5 2 -50.5q4 -59 16 -125.5t4 -132.5q35 43 77 95.5t78 102.5t59.5 92t19.5 65q-2 10 -21.5 25.5t-28.5 19.5q-10 8 -21 15t-24 13q-6 0 -18 8q-8 4 -16 5q-14 0 -28.5 -1t-29.5 -6q-29 -6 -43 -26.5t-20 -46t-6 -53z" />
<glyph unicode="-" horiz-adv-x="487" d="M-26.5 472.5q-0.5 16.5 8 29t21.5 16.5t28 -8q27 -25 55.5 -52.5t60 -51t66.5 -36t76 -1.5q45 10 77.5 45t48 80t11.5 93t-31 85q-37 49 -90 57t-108 6q-12 -2 -35 -1t-45.5 -2t-41 -10.5t-22.5 -23.5q-6 -18 -18 -26t-23.5 -6t-18.5 14t-3 33q12 35 46 56.5t80 29.5 t97 5t96 -16.5t79 -35t44 -50.5q27 -72 26 -143.5t-31 -127.5t-88 -90t-144 -30q-31 2 -58.5 17.5t-54.5 36t-51.5 42t-46.5 37.5q-10 12 -10.5 28.5z" />
<glyph unicode="." horiz-adv-x="520" d="M73 126q-1 56 17.5 104.5t63.5 64.5q16 6 31.5 4t31.5 -4q20 -4 24.5 -18.5t-1.5 -30.5q61 2 117.5 -17.5t78.5 -78.5q12 -37 -7 -78t-54 -75t-77 -54.5t-73 -16.5q-18 4 -38.5 4t-36.5 11q-35 25 -55.5 77t-21.5 108zM124 94q1 -37 12 -66.5t36 -47t61 -11.5 q94 16 132 59.5t26 83.5t-75 59.5t-169 -11.5q-12 0 -16 2q-8 -31 -7 -68z" />
<glyph unicode="/" horiz-adv-x="952" d="M-82 -248q14 59 22.5 118.5t30.5 117.5q76 205 177.5 381t227.5 329.5t277.5 288.5t329.5 258q18 10 30.5 5t16.5 -17t-1 -27.5t-19 -25.5q-172 -109 -329 -235t-285 -274.5t-224 -322.5t-147 -379q-14 -53 -21.5 -108.5t-17.5 -108.5q-4 -14 -15.5 -23.5t-22.5 -10.5 t-20.5 7.5t-9.5 26.5z" />
<glyph unicode="0" horiz-adv-x="671" d="M-53 254q0 14 6 27.5t16.5 20.5t21.5 6t21 -17q12 -41 18.5 -64.5t30.5 -58.5q57 -80 151.5 -121t190 -37t176 56.5t115.5 160.5q20 63 19.5 151.5t-23 178.5t-63.5 174t-100.5 141.5t-135.5 79t-168 -13.5q-63 -23 -115.5 -68t-107.5 -84q-18 -8 -28.5 -1.5t-12.5 17.5 t1 25.5t13 24.5q31 20 60.5 47t60.5 51.5t62.5 41t68.5 14.5q66 -2 104 -1t61.5 1t37.5 -5.5t32.5 -19.5t47.5 -38.5t80 -63.5q47 -35 71.5 -92.5t45.5 -112.5q27 -72 41 -158t9 -173t-35 -166t-91 -136q-61 -55 -148.5 -75.5t-176.5 -10.5t-169 51t-125 109 q-16 25 -24.5 39t-13.5 27.5t-11 29.5t-14 43zM348 406.5q0 50.5 5.5 99.5t23.5 96q27 29 45 10.5t8 -49.5q-29 -43 -35 -92t-2 -94t15.5 -81t15.5 -52q2 -16 -4 -30.5t-16.5 -23t-23.5 -5.5t-22 22q-2 49 -6 99t-4 100.5z" />
<glyph unicode="1" horiz-adv-x="602" d="M-41 225.5q4 16.5 14.5 25.5t23.5 9t23 -18q35 -61 98.5 -115.5t139.5 -83.5t151.5 -21.5t135.5 72.5q61 68 79.5 170.5t9.5 212t-43 212t-77 169.5q-20 31 -49 54.5t-57 50.5q-29 0 -60 3t-61 -5q-23 -4 -44.5 -17.5t-43.5 -25.5q-70 -35 -113 -76t-53 -119 q-4 -14 -15.5 -23.5t-22.5 -10.5t-20.5 7.5t-9.5 26.5q6 33 12.5 65.5t26.5 59.5q31 39 83 78t113.5 65.5t122 36.5t107.5 -10q39 -16 73 -55t58.5 -86.5t42 -95.5t27.5 -83q16 -59 29.5 -147t11.5 -180t-24.5 -177t-74.5 -137q-70 -70 -157.5 -85t-173.5 9.5t-161 82 t-120 131.5q-6 14 -2 30.5z" />
<glyph unicode="2" horiz-adv-x="632" d="M-41 762.5q-4 21.5 5 47.5t24.5 50.5t25.5 34.5q18 23 59.5 53.5t89.5 57t95 46t80 19.5q66 2 125 -31.5t108 -70.5q104 -76 149.5 -168t42.5 -186.5t-49 -185.5t-126 -163q8 -2 18 -16q29 -47 29 -86t-21 -92q-29 -76 -84 -107t-121.5 -34t-137 14.5t-128.5 40.5 q-29 10 -66.5 23.5t-67 32.5t-43.5 47t9 69q23 27 41.5 13.5t14.5 -42.5q4 -4 6 -8t0 -8v-2q20 -14 41.5 -26.5t44.5 -25.5q33 -18 71.5 -35.5t79.5 -29.5t82 -17.5t80 -1.5t71 29t49 57.5t16 70.5t-25 71q-8 14 -4 26q-18 -14 -38 -27.5t-42 -23.5q-20 -8 -30.5 -1 t-11.5 21.5t5 29t20 22.5q111 51 180.5 134t87 177t-20.5 191.5t-142 177.5q-98 76 -172 85t-150 -40q-45 -29 -91 -56.5t-83 -68.5q-8 -10 -13 -23.5t-9 -25.5q14 -16 0.5 -41t-39.5 -25q-31 6 -35 27.5zM-3 305q1 10 9 20.5t19 16.5q8 4 10 6q20 2 31 -6q49 -4 106 -3 t109.5 10t94.5 26.5t58.5 49.5t3 78t-70.5 109q-6 12 -4 27.5t10 26t20.5 12.5t26.5 -8q57 -86 69.5 -149.5t-15.5 -107.5t-92.5 -73t-158.5 -45q-47 -8 -101 -20.5t-104 -6.5q-14 6 -18 16.5t-3 20.5z" />
<glyph unicode="3" horiz-adv-x="778" d="M-59 556q0 13 7 25.5t19 18.5q82 -6 129 -15.5t101 -6.5q76 2 136 15t132 17q18 -4 23.5 -14t3 -22.5t-11.5 -23.5t-21 -18q-72 0 -137.5 -3t-139.5 1q-68 4 -96.5 4.5t-41.5 -2t-24.5 -5.5t-46.5 -3q-18 0 -25 9.5t-7 22.5zM-37 760q6 47 44 90t90.5 78t109.5 58.5 t98 31.5q39 8 83 16t88 11.5t86 -3t79 -24.5q20 -10 31.5 -27.5t19.5 -37t15.5 -40t19.5 -39.5q33 -47 64.5 -77.5t52 -65.5t27 -85t-10.5 -132q-16 -88 -22.5 -125t-15.5 -60.5t-29.5 -53t-67.5 -103.5q-16 -27 -55 -57.5t-86 -57t-94.5 -44t-79.5 -17.5q-92 0 -146.5 3 t-95.5 22.5t-80 58.5t-98 108q-6 12 -4 27.5t10 26t20.5 12.5t26.5 -8q43 -53 79 -93t78 -66t95 -34t127 4q76 12 147.5 50t124.5 94q59 63 95 144t36 167q0 100 -7 147.5t-24.5 73t-43 45t-58.5 66.5q-25 35 -34 63.5t-24.5 48t-46 27.5t-98.5 4q-123 -8 -226 -46 t-193 -124q-2 -4 -11.5 -12t-19.5 -19q18 -18 7 -43.5t-40 -25.5q-12 4 -20 6q-23 10 -23 37zM-6 389q2 14 12 26.5t27 14.5l114 -4q86 10 171.5 25.5t173.5 1.5q25 -18 14.5 -47t-43.5 -29q-74 23 -124 28t-95 -1.5t-94.5 -20.5t-122.5 -31q-20 0 -27.5 11.5t-5.5 25.5z " />
<glyph unicode="4" horiz-adv-x="749" d="M-43 736q-2 9 2 24q16 43 68.5 90t119 85t134 63.5t116.5 27.5q53 4 101.5 -2t99.5 -16q59 -10 106.5 -36t69.5 -85q20 -53 15 -112.5t-24.5 -121t-47 -122t-47.5 -115.5h20q55 -6 82 -36t33 -70t-8.5 -84t-40.5 -79q-20 -25 -54 -37t-69 -20q12 -31 20.5 -62.5 t8.5 -66.5q0 -23 -3.5 -51.5t-17.5 -48.5q-6 -10 -29.5 -33t-51.5 -45.5t-56.5 -39.5t-42.5 -13q-57 12 -104.5 44.5t-79 78t-45 99.5t-5.5 109q-33 6 -66.5 14.5t-63 22t-52 36t-35.5 54.5q0 14 6.5 27.5t16.5 21t21.5 6.5t21.5 -18q2 -37 17.5 -57.5t40 -29.5t55 -10 t59.5 3q20 33 43.5 18.5t13.5 -51.5q-2 -2 -2 -6l-4 -8t-6 -8q-10 -18 -14.5 -32.5t0.5 -43.5q6 -33 25.5 -76t49 -80t66.5 -57t78 -8q20 23 43.5 38t44.5 38q27 29 28.5 63.5t-9.5 69.5t-28.5 68.5t-29.5 62.5q0 23 11 40t38 11q-4 0 1 -2t11 -6q37 4 63.5 4t59.5 22 q29 20 39 53t0 61t-41 40t-86 -8q-8 -23 -25.5 -30t-29.5 3q-16 -2 -23.5 6.5t-7.5 21.5t7 26.5t20 21.5q2 0 3 1t5 1q20 53 53 114.5t58.5 124t38 123t-6.5 113.5q-10 29 -23.5 45.5t-30.5 27.5t-41 18t-50 16q-74 25 -153 16.5t-154.5 -38.5t-141 -77t-112.5 -102 q2 -4 4 -5t4 -5q16 -25 -0.5 -51.5t-46.5 -14.5q-4 6 -10.5 13.5t-10.5 13.5q-10 10 -12 19zM299 285q14 129 45 249.5t100 231.5q14 16 27.5 16t21 -10t7.5 -26.5t-11 -30.5q-51 -57 -77.5 -114.5t-38 -112t-10 -103.5t3.5 -88q0 -16 -11.5 -28.5t-24 -15.5t-22.5 3t-10 29 z" />
<glyph unicode="5" horiz-adv-x="751" d="M-63.5 305q2.5 14 12.5 26.5t26 14.5q16 0 41 1t55.5 -6t66.5 -28.5t75 -66.5q8 -14 6 -30.5t-11 -27t-22.5 -12.5t-25.5 12q-35 57 -66 72.5t-56.5 12.5t-44 -11t-24.5 6q-20 0 -27.5 11.5t-5 25.5zM-50.5 808q3.5 36 23 70.5t48 64.5t51.5 42q152 78 287 85t288 -66 q29 -12 51.5 -36t34.5 -53q33 -72 54.5 -123t26.5 -98t-5 -98t-39 -123q-16 -45 -52 -80t-81 -59q29 -23 53.5 -52.5t44 -61.5t30.5 -61.5t13 -54.5q2 -47 -19.5 -80.5t-57 -58t-77.5 -39t-79 -20.5q-100 -18 -206 -10t-196 61q-45 29 -87 59.5t-93 53.5q-10 12 -11 25.5 t5 25.5t17.5 18t27.5 2q82 -45 132 -87t102.5 -71.5t121 -41t185.5 7.5q25 4 51.5 10t51 16.5t45 26.5t32.5 41q20 37 9 77t-37.5 74.5t-63.5 61.5t-68 37q-6 2 -20 2q-55 -18 -110.5 -25.5t-102.5 -5.5q-29 2 -52.5 17.5t-50.5 25.5q-10 12 -11 25.5t5 26t17.5 18.5t27.5 2 q23 -10 43.5 -21.5t42.5 -17.5q25 -6 49.5 -8t49.5 -2q0 4 4 12q29 35 63.5 38t69.5 -13q78 41 128 116.5t61 161.5t-23.5 171t-126.5 147q-47 31 -103.5 44t-117 13t-119 -12.5t-107.5 -32.5q-39 -16 -79.5 -43t-63.5 -68q-8 -12 -10 -26.5t-7 -28.5q14 -25 -3 -50.5 t-46 -13.5q-25 27 -21.5 63z" />
<glyph unicode="6" horiz-adv-x="737" d="M-51 229q0 14 6 27.5t16.5 21t21.5 6.5t21 -18q16 -47 53 -98t85.5 -98t106.5 -83t119.5 -51.5t122 -4t113.5 58.5q47 43 77 102.5t44.5 126t15.5 134t-6 124.5q-4 33 -10 67t-16 68q-96 -12 -186.5 -37.5t-182.5 -66.5q-18 0 -25.5 9t-7.5 22.5t7.5 26t19.5 18.5 q90 23 178 43t178 41q-16 43 -37.5 83t-50.5 72q-47 57 -99 86t-120 41q-74 14 -133 -1t-105 -53t-79 -93t-56 -119q-10 -14 -22 -18t-21.5 0t-14.5 15t-1 30q74 197 206 269.5t337 -3.5q43 -16 74.5 -51t66.5 -64q29 -25 54.5 -74t43.5 -110q23 4 46.5 10t46.5 12 q18 -4 23 -14t3 -22.5t-11 -23.5t-22 -17q-18 -2 -35.5 -3.5t-35.5 -3.5q23 -92 29 -184t-7 -147q-12 -51 -20 -95.5t-22.5 -84t-36 -77.5t-60.5 -77q-29 -29 -72 -54.5t-84 -21.5q-43 6 -87 12.5t-89 12.5q-47 8 -103 45t-107.5 87t-92.5 103t-57 94zM240 399q8 33 31.5 40 t33.5 -17q4 2 7 -14.5t7 -26.5q8 -16 14.5 -32.5t16.5 -33.5q41 53 90 97.5t99 44.5q18 -4 24 -16.5t2 -26t-16 -24.5t-29 -11q-45 12 -81 -19.5t-62 -76.5q35 -39 82 -58.5t98 -36.5q14 -10 16 -25.5t-4 -27.5t-19 -18t-32 0q-27 16 -73 49t-93 74q-12 -25 -20 -46.5 t-15 -35.5q-12 -18 -25 -20.5t-22.5 5t-12.5 21.5t7 33q10 16 23.5 34.5t29.5 40.5q-35 33 -56 65.5t-21 61.5z" />
<glyph unicode="7" horiz-adv-x="643" d="M-43 827q0 -2 2 5.5t3 16.5t3 19.5t4 14.5q20 51 62 88q123 111 280 147q74 18 132.5 -10.5t102.5 -82.5t73.5 -120.5t46.5 -124.5q27 -92 38 -166.5t7 -145.5t-21.5 -143.5t-46.5 -158.5q-16 -45 -56 -74t-75 -63q-33 -35 -90 -50.5t-120.5 -15.5t-125 14.5t-100.5 40.5 q-29 18 -49.5 44t-38.5 55q-6 14 -2 30.5t14 25.5t23.5 9t23.5 -18q43 -76 121 -106.5t161 -23.5t159.5 48t119.5 111q33 53 49.5 125.5t17.5 153.5t-13.5 166t-42 160.5t-68.5 138t-92 99.5q-49 37 -110.5 32t-121 -34.5t-109.5 -72.5t-81 -82q-4 -6 -7 -12.5t-5 -14.5v-6 q0 -16 -10.5 -27.5t-22.5 -15.5t-22.5 1t-12.5 23zM-39 379q29 59 71 98t93 68q-37 -4 -72.5 -2t-66.5 18q-10 12 -11.5 25.5t5 26t17.5 18.5t28 2q33 -20 70.5 -23.5t76.5 0.5t76 14.5t65 18.5q23 4 23 -13.5t-12 -27.5q-43 -23 -90.5 -46.5t-89.5 -52t-74.5 -65.5 t-49.5 -86q-10 -14 -22 -18t-21.5 0t-14.5 15t-1 30z" />
<glyph unicode="8" horiz-adv-x="681" d="M-25 809q12 96 69.5 158.5t139.5 92.5t174.5 23.5t171.5 -45.5q51 -27 99.5 -69.5t84.5 -96t57.5 -114t21.5 -117.5q0 -37 -9.5 -73t-17.5 -70q-8 -41 -44 -65.5t-65 -53.5q-20 -20 -43.5 -28.5t-52.5 -12.5q43 -31 74 -81t39 -103.5t-10.5 -102.5t-73.5 -82 q-59 -37 -149.5 -47t-181.5 3.5t-169 51t-113 97.5q-6 14 -1.5 30.5t14.5 25.5t23.5 9t23.5 -18q27 -55 94.5 -91t147 -51.5t161.5 -8.5t140 36q37 18 48 51t5 68t-24.5 67.5t-41.5 53.5q-23 20 -38 30.5t-30.5 15.5t-34.5 7t-46 8q-14 6 -19.5 18.5t-2.5 24.5t13.5 22.5 t24.5 10.5q6 12 19 18q45 10 90 13.5t86 19.5q51 20 77.5 60.5t35 86.5t1 95t-23.5 92q-59 158 -211 227q-63 29 -142 34t-149 -17.5t-120 -72.5t-54 -130q-4 -14 -15.5 -23.5t-22.5 -10.5t-20.5 7.5t-9.5 26.5zM15 252q-3 14 8 33q6 4 8 11t8 11q27 20 57.5 18.5t61.5 -3.5 q-20 16 -48 28t-51 23q-18 -8 -32 12q0 2 -1 3t-1 3q-12 23 2 45.5t41 16.5q39 -25 83 -59t66 -75q4 -16 -10 -30q-12 -8 -32.5 -10.5t-41 -4.5t-37 -8t-20.5 -20q-12 -18 -25.5 -20.5t-23 5t-12.5 21.5zM236 426q14 131 32.5 261t71.5 251q27 29 45 10.5t8 -49.5 q-35 -55 -55.5 -109.5t-29.5 -111.5t-9 -117t4 -123q0 -16 -11 -28.5t-23.5 -15.5t-22.5 3t-10 29zM254 311q0 16 9 30.5t21.5 21t23 1.5t14.5 -28q-4 -39 -8.5 -82t20.5 -78q18 2 26.5 -7t7.5 -22.5t-9.5 -27t-22.5 -19.5h-12q-10 0 -15.5 1t-11.5 10q-18 47 -23.5 100 t-19.5 100z" />
<glyph unicode="9" d="M-74 323.5q2 16.5 15 28.5q25 12 42 15.5t42.5 5.5t66.5 6t113 18q2 0 3 1t3 1h-2q47 16 100 27.5t101 -4.5q12 -10 15 -17.5t1 -23.5q-2 -18 -11.5 -27.5t-25.5 -19.5q-23 -10 -33 -1t-10 25q-31 4 -62.5 -1t-62.5 -9q-74 -10 -110.5 -15t-57 -10.5t-35 -12.5t-41.5 -17 q-18 -12 -30.5 -9t-17.5 13t-3 26.5zM-51 204.5q4 16.5 14 26t23.5 9.5t23.5 -19q57 -94 139 -155.5t172.5 -76t177.5 25.5t154 149q35 57 54.5 123.5t23.5 135.5t-5 137.5t-30 129.5q-18 57 -51 111.5t-78 95.5t-100 64.5t-123 17.5q-31 -2 -83 -15.5t-102 -38t-90 -59.5 t-46 -80q-4 -14 -15.5 -23t-23 -10t-20.5 7t-9 26q8 59 53 106.5t105.5 80.5t125 50t113.5 17q45 0 87 -14t83 -27q37 -10 71 -43.5t61.5 -77.5t48 -89.5t30.5 -73.5q25 -82 32 -154t-1 -140.5t-28.5 -137t-49.5 -144.5q-16 -43 -54 -72.5t-71 -64.5q-16 -18 -41.5 -30.5 t-50.5 -20.5q-176 -43 -299 14.5t-219 208.5q-6 14 -2 30.5zM202 710.5q3 14.5 13 26.5q4 4 12 8q16 8 31 5q29 -18 52.5 -42t47.5 -49q39 53 70 113q27 29 45.5 10.5t7.5 -49.5q-23 -27 -46 -51.5t-46 -50.5q39 -35 80 -65.5t82 -59.5q16 -25 0 -51.5t-47 -14.5 q-35 41 -69 81t-75 75q-23 -31 -41 -59h3q-4 -29 -6.5 -34t-4.5 1q-10 -20 -29.5 -26.5t-31.5 22.5q-2 20 5 36.5t19.5 31t27.5 27.5t28 28q-41 31 -88 49q-16 -6 -25.5 -2t-13.5 15t-1 25.5zM205 397l2 2zM231 403q5 1 9 3q-2 0 -4.5 -1.5t-4.5 -1.5z" />
<glyph unicode="?" horiz-adv-x="829" d="M44 236.5q-1 27.5 15 46.5q4 4 7 4q16 10 32 6q47 -35 82 -78t72 -86q45 -55 106 -102q25 35 44.5 68.5t35.5 62.5q6 12 18.5 40.5t29 57.5t37.5 47t48 8q25 -18 14.5 -46.5t-38.5 -28.5q-2 -2 -2 -5q0 -2 -2 -2q-33 -47 -58.5 -83.5t-60.5 -82.5q-20 -25 -39 -57 q78 -53 168 -84t190 -35q18 -4 24.5 -16t2.5 -25.5t-16.5 -24.5t-28.5 -11q-106 14 -194.5 58t-170.5 105q-43 -59 -97 -106t-130 -43q-16 6 -20 18.5t0 24.5t14 22.5t25 12.5q53 -10 97 18.5t83 73.5q-51 37 -94 76q-41 35 -80 75.5t-86 67.5q-27 -4 -28 23.5zM90 815 q6 80 20.5 135.5t45 97.5t79 73.5t119.5 64.5q31 14 72 13t70 -13q55 -23 114.5 -59.5t106.5 -86t73.5 -110t18.5 -127.5q-4 -29 -4 -60.5t-14 -60.5q-31 -61 -67 -98t-79 -59.5t-95 -36t-116 -25.5q-14 -4 -27.5 -6t-25.5 -6q-8 -2 -21 -11q0 -12 1 -23t1 -14 q4 -41 4.5 -51t0.5 -16q8 -14 6 -30.5t-11.5 -27t-22.5 -12.5t-26 13q-20 25 -14 65q0 10 -1 36t-1 30q2 45 13.5 69.5t58.5 40.5q49 16 106 23.5t110.5 23t96.5 45t61 90.5q25 80 10.5 148t-54.5 123t-100 97t-128 71q-51 23 -107.5 8.5t-104.5 -52.5t-84 -93.5t-49 -115 t4 -118.5t75 -102q33 -27 77 -34t89 -1t89 21.5t79 33.5q16 10 27.5 29.5t19.5 40.5q4 10 12 18t4 19q-4 14 -14 23t-21 20q-14 20 -30.5 53t-42.5 43q-41 18 -82 23.5t-76 -6t-59.5 -41t-32.5 -83.5q-6 -35 14.5 -55t48 -28.5t55 -2t37.5 26.5q-4 23 -9 32t-25 19 q-2 2 -6.5 2t-8.5 2q-16 -4 -24.5 4.5t-8.5 21.5t7.5 26.5t19.5 21.5q27 12 51.5 2t42 -34.5t23.5 -57.5t-6.5 -62.5t-44 -50t-91.5 -22.5q-23 0 -46 4t-42 16q-35 27 -44 66t1.5 81t36 80.5t60 66.5t73.5 39t76 -3q45 -18 67.5 -29.5t37 -26t27 -34t36.5 -51.5 q12 -16 26.5 -28.5t18.5 -33.5q4 -20 -3 -39.5t-17 -36.5q-25 -47 -64 -79.5t-86 -53t-99 -26.5t-106 2q-25 4 -47 18t-47 25q-23 12 -34 35.5t-27 44.5q-16 23 -22.5 51t-4.5 55z" />
<glyph unicode="@" horiz-adv-x="757" d="M-51 775q0 13 8 30q29 51 82 87t98 69q35 25 73 52t79 40q68 18 132 2.5t124 -47.5q98 -51 170.5 -147.5t111.5 -211t40 -236.5t-42 -225q-29 -66 -87 -110.5t-130.5 -72.5t-148.5 -38t-140 -2q-47 6 -89 39t-80 55q-18 12 -52.5 28.5t-66 37t-54 46.5t-18.5 56 q8 33 33.5 40t32.5 -19q2 -2 4 -8.5t6 -10.5q25 -29 47 -45q29 -23 63.5 -39t63.5 -39q33 -23 64.5 -46t70.5 -33q63 -18 143 -4t152 51q-80 45 -145.5 129t-90.5 172q-18 -6 -36.5 -17.5t-37 -20.5t-38 -15.5t-39.5 0.5q-70 18 -96.5 61t-26.5 95t20.5 106.5t49.5 95.5 q27 39 63.5 53.5t77.5 26.5q23 6 44.5 1t43.5 -9q45 -6 70.5 -42t38.5 -73q2 -16 -4.5 -30.5t-16.5 -23t-23.5 -5t-21.5 21.5q-16 68 -62.5 89.5t-97.5 8t-94 -56.5t-53 -104q-4 -31 6 -63t30.5 -55.5t49.5 -31.5t61 8q27 14 35 21.5t13.5 12.5t14.5 10.5t38 15.5 q29 4 34 -15q16 0 23 -28q4 -98 57.5 -172t151.5 -95q20 -16 16 -39q41 29 70 66t43 78q18 55 20 133t-15 163t-56 168t-103 148q-25 27 -63.5 53.5t-69.5 42.5q-59 29 -102 39.5t-81 3t-78 -30t-89 -61.5q-35 -27 -76 -55.5t-67 -65.5q4 -23 -12.5 -40t-43.5 -7q-2 2 -10 7 q-12 14 -12 27zM248 586q0 14 6 27.5t16.5 20.5t21.5 6t21 -17q0 -41 21 -56q4 10 10 20.5t10 24.5q27 29 45.5 10.5t8.5 -49.5q-12 -12 -19 -16q14 0 21 2q18 -4 24 -16.5t2 -25.5t-16 -24.5t-29 -11.5q-23 8 -47 23q-14 -16 -28.5 -31.5t-30.5 -28.5h2l-4 -2l2 2 q-16 -4 -24.5 4.5t-9.5 20.5t6 26.5t19 22.5q14 0 27 10q-16 12 -30.5 27t-24.5 31z" />
<glyph unicode="A" horiz-adv-x="796" d="M-35 532q8 76 26.5 134.5t48.5 107.5t73 92t104 90q51 41 107 80t122 43q18 -4 23.5 -14t3.5 -22.5t-11 -23.5t-22 -18q-12 -2 -22 -4t-21 -6q74 14 108 23.5t60.5 8.5t59 -17.5t106.5 -49.5q39 -16 63.5 -58t40 -92t23.5 -99.5t14 -79.5q9 -42 9 -88q0 -49 -10 -101 q-19 -102 -67 -194t-121 -161t-165 -85q-4 0 -9 -1t-9 -1q4 -25 8 -41q0 -14 -8 -26.5t-18 -17.5q-6 -3 -12 -3q-5 0 -10 2q-11 4 -20 20q-2 14 -2 30.5t-2 33.5q-92 6 -182 56t-157.5 127t-104.5 170q-29 73 -29 146q0 19 2 39zM18 597q-6 -30 -5 -63q0 -48 12 -102 q14 -66 52 -135.5t92 -127.5t121.5 -98t143.5 -42q-4 53 -9 115q-5 60 -6 120v30q0 43 2 82q3 52 13 89q10 25 34 27t28 -29q2 -2 2 -8q-4 -18 -13 -31q-13 -75 -13 -161q0 -107 20 -230l24 6q41 10 78 27.5t68 42.5q47 39 81.5 101t56.5 137t28 155q2 27 2 54q0 50 -8 100 q-12 74 -43 137t-83 104q-45 37 -84 47q-26 7 -52 7q-12 0 -26 -2q-40 -5 -83 -18t-95 -24q-25 0 -31 15.5t1 31.5l-13.5 -9l-13.5 -9q-68 -45 -127 -95t-99.5 -110.5t-54.5 -133.5zM330 506q-6 11 -6 22q0 13 8 29q33 31 67.5 58.5t69.5 56.5q-25 23 -50 36t-50 3 q-18 0 -25.5 9t-7.5 22.5t7 25.5t19 18q7 0 13 1q19 0 33 -5q18 -6 32.5 -19t28.5 -29.5t31 -35.5q0 -2 2 -2q14 10 26.5 21.5t26.5 21.5q18 10 30.5 5t16.5 -17t-1 -27.5t-19 -25.5q-10 -4 -19.5 -8t-19.5 -9q18 -16 37.5 -30.5t37.5 -30.5q8 -12 8 -25t-8 -27 q-16 -26 -47 -14q-12 18 -30.5 47t-40.5 58q-37 -23 -67 -53.5t-56 -75.5q-17 -12 -28 -12q-12 1 -19 12z" />
<glyph unicode="B" horiz-adv-x="890" d="M-37 574q8 124 61.5 230.5t163.5 160.5q43 23 84 48t88 34q41 6 81 14t80 12q23 2 46 2l34 -1q40 -3 81 -19q25 -8 58.5 -19.5t67.5 -28t63.5 -38t41.5 -49.5q29 -60 35 -102q2 -13 2 -26q0 -26 -9 -48q-13 -32 -46 -63.5t-82 -72.5q-4 -4 -8 -7t-8 -7q31 -29 55.5 -51.5 t40.5 -49t25.5 -62.5t13.5 -91v-8q0 -37 -16 -70q-18 -37 -31 -78q-14 -45 -50 -85t-77 -62q-39 -23 -76 -50.5t-84 -35.5q-78 -11 -150 -17q-20 -2 -40 -2q-50 0 -98 10q-66 14 -125.5 54.5t-110.5 116.5q-59 88 -89 212q-24 98 -24 196q0 27 2 53zM8 624q-11 -55 -11 -114 q0 -63 13 -129q6 -27 13.5 -59.5t18.5 -65.5t26.5 -62.5t35.5 -48.5q45 -41 78 -70.5t68 -51t77 -32.5t103 -14h10q64 0 136 23q78 25 143 71t108 110.5t43 142.5q0 47 -11 78.5t-30.5 56t-46 46t-57.5 46.5h-6q-20 0 -28.5 11t-4.5 26q-8 12 -6 26.5t10 25.5t20.5 14 t26.5 -7q2 -4 4 -5t7 -5q23 12 53 36.5t54 57.5t30 70q1 6 1 13q0 31 -24 60q-29 39 -69.5 67t-86.5 44q-47 17 -97 25q-40 7 -78 6h-17q-141 -2 -246.5 -53.5t-171.5 -138t-88 -200.5zM423 330q-1 3 -1 6q0 12 8 26l25.5 25.5t33.5 32.5q-35 39 -49 84q0 14 6.5 27.5 t16.5 20.5t21.5 6t21.5 -17q2 -49 24 -84q23 18 44.5 33.5t37.5 19.5q23 -4 26 -19.5t-5 -33.5q0 -4 -1 -6t-1 -7q-14 -18 -28.5 -20t-24.5 8q-6 -2 -19 -10q33 -29 76 -41t94 -23q18 -13 18 -31q1 -7 -3 -15q-10 -28 -44 -29q-47 23 -93 46t-85 58q-14 -16 -23.5 -32.5 t-15.5 -30.5q-12 -18 -25.5 -20.5t-22.5 5t-12 21.5zM485 594q-4 24 -4 48q1 52 19 100q26 70 53 141q16 18 29 18q9 0 16 -8q12 -12 12 -29q0 -9 -4 -20q-29 -37 -46 -64.5t-25.5 -50t-4 -45t20.5 -53.5q2 -16 -4 -31q-7 -14 -17 -22q-8 -6 -16 -7q-3 0 -7 1q-13 3 -22 22z " />
<glyph unicode="C" horiz-adv-x="831" d="M18 287q-6 46 -5 92q1 57 9 115q16 106 57.5 201.5t102.5 156.5q29 29 54.5 55.5t54.5 53.5q14 14 66.5 37.5t111.5 39.5q10 8 23 11q4 0 7 -1t7 -1q35 8 65 8q2 -1 4 -1q32 0 48 -14q4 -6 6 -11t2 -11q104 -41 180 -121t135 -186q15 -29 15 -61q0 -7 -1 -14 q-2 -18 -2 -35q0 -22 3 -44q1 -12 1 -24q0 -40 -10 -78q-14 -49 -39 -97q51 4 104.5 10.5t108.5 16.5q18 -5 24 -15q4 -8 4 -16q0 -3 -1 -6q-2 -12 -11 -23.5t-22 -17.5q-61 -2 -122.5 -3t-120.5 -3q-37 -53 -80 -99t-82 -85t-111 -69t-152 -44q-59 -10 -115 -10 q-20 0 -40 1q-76 5 -123 40q-25 18 -52.5 33.5t-43.5 42.5q-48 74 -60 176zM50 313q3 -82 37 -145.5t110 -91.5q85 -33 172 -33h10q92 2 176 32.5t155.5 88t120.5 135.5q-117 -4 -232.5 -8t-231.5 -12q-18 2 -24.5 13t-3.5 24.5t13 25.5t27 14q131 -8 247 -9h26q104 0 210 7 q20 45 32.5 92.5t16.5 98.5q1 12 1 25q0 72 -30 134q-36 74 -95.5 130.5t-137.5 92.5t-157 42q-27 -6 -56.5 -16.5t-54.5 -20.5t-42 -18.5t-22 -10.5q-49 -33 -99 -98.5t-88 -147.5t-60 -172q-20 -79 -20 -153v-19z" />
<glyph unicode="D" horiz-adv-x="987" d="M-123 197q-2 18 -2 36q0 27 4 55q6 46 15.5 92t18.5 92t13 91q2 22 2 47q0 26 -2 54q-4 58 -5 116v19q0 48 4 94q5 55 30 92q12 20 19.5 31.5t14.5 19.5t18 15.5t32 21.5q29 19 79 27q31 5 63 5l37 -2q50 -5 92.5 -25.5t54.5 -61.5q10 -27 13 -42.5t5 -31.5 q82 35 167 59.5t175 32.5q17 1 36 0q28 0 59 -1q52 -3 102.5 -19.5t90.5 -46t58 -78.5q16 -42 17 -91q0 -4 -1 -10q-2 -54 -6 -104q-10 -98 -29.5 -203.5t-61.5 -200t-111.5 -168t-176.5 -110.5q-27 -8 -57.5 -3t-61 16.5t-59 26.5t-51.5 28q-23 10 -50.5 21t-49.5 28 q-10 -14 -23.5 -25.5t-25.5 -25.5q-25 -27 -51.5 -52.5t-57.5 -45.5q-31 -18 -65 -28q-18 -5 -38 -5q-18 0 -38 4q-23 4 -50.5 5t-46.5 17q-31 27 -48 51.5t-28.5 50t-16.5 57.5t-7 75zM-80 211q2 -96 34 -147.5t132 -61.5h12q20 0 44 5q30 7 53 20q29 18 47 41.5t39 46.5 q10 10 24 21.5t14 21.5q6 27 27 37q8 12 21.5 15t27.5 -7q23 -23 55.5 -37t57.5 -31q45 -25 94 -51q38 -20 81 -20q12 0 24 2q80 10 140 72.5t101 147.5t63.5 177t28.5 160q6 73 7 135q-1 60 -21 106q-20 47 -69.5 77t-141.5 34q-18 1 -36 1q-31 0 -63 -4q-50 -7 -98 -20 q-66 -16 -125 -39.5t-118 -52.5q-14 -20 -37 -21t-23 33q2 29 2 52.5t-12 52.5q-18 41 -63 57q-34 12 -70 13q-12 1 -24 -1q-50 -6 -94 -27.5t-62 -57.5q-16 -35 -18.5 -74t-8.5 -76q0 4 1 16.5t-1 8.5q-4 -137 -10 -269.5t-29 -269.5v-6q-2 -23 -4 -41.5t-2 -38.5zM309 688 q0 14 6.5 27.5t16.5 20.5q9 6 19 6h3q12 -1 21 -17q8 -29 25.5 -49.5t39.5 -34.5q27 23 46.5 53.5t54.5 44.5q33 6 37 -18.5t-13 -44.5q0 -2 -1 -3t-1 -3q-18 -14 -33 -11q-16 -10 -29.5 -18t-23.5 -18q39 -16 81 -23.5t79 -13.5q18 -13 18 -31q1 -8 -3 -16q-10 -29 -44 -29 q-35 18 -80 35.5t-90 40.5q-16 -20 -33.5 -45t-39.5 -54q-14 -10 -25 -10q-4 0 -6 1q-12 3 -17.5 13.5t-3.5 27t15 28.5l71 59q-29 16 -52.5 36.5t-37.5 45.5z" />
<glyph unicode="E" horiz-adv-x="847" d="M-46 436q3 72 21.5 139.5t49 134t71.5 136.5q23 41 66 67.5t80 55.5q18 16 40.5 23t45.5 12q-4 14 3 29.5t23 25.5q43 23 89 23q17 0 35 -4q65 -12 126.5 -44.5t116.5 -74t96 -70.5q43 -31 73 -74t48 -96t24 -113q4 -37 5 -76q0 -23 -2 -47h6q18 -4 23 -15q3 -7 3 -15 q0 -5 -1 -9q-3 -14 -14 -25t-26 -13q-10 -72 -33.5 -138.5t-56 -124t-75.5 -100.5t-95 -66q-45 -20 -88 -47.5t-92 -29.5q-61 -2 -99 -5.5t-62.5 -3.5t-41 2.5t-38 10.5t-52 23.5t-84.5 39.5q-35 16 -63.5 56t-51 87.5t-38 94.5t-21.5 78q-12 68 -12 128q0 12 1 25zM4 391 q4 -141 62 -253q58 -114 170 -174q71 -38 164 -38q54 0 114 13q82 18 150.5 63t121 108.5t86 140.5t43.5 159q-74 8 -160.5 14t-170.5 8q-42 1 -81 1t-74 -1q-71 -2 -110 -10q-20 0 -27 11t-5 25.5t12 27t27 14.5q21 1 42 1q56 1 110 -7q76 -10 149 -15q49 -3 98 -3 q25 0 49 1l148 4q0 102 -35 191q-16 45 -43 86t-62 73q-25 23 -59.5 49.5t-75.5 50t-85 42t-87 24.5q4 -14 -5 -31.5t-26 -23.5q-80 -16 -138 -31.5t-104 -44t-82 -77t-69 -130.5q-47 -118 -48 -248q1 -10 1 -20zM295 754q-2 6 -2 12q0 8 3 16q4 14 18 22q9 6 20 6 q5 0 10 -1q35 -14 61.5 -37.5t53.5 -48.5q31 16 60.5 31.5t53.5 27.5q20 4 29.5 -5t9.5 -22.5t-9 -27.5t-23 -20q-10 -2 -32 -6.5t-50 -14.5h2q39 -33 80 -61.5t82 -57.5q8 -12 8 -25q0 -12 -8 -26q-11 -18 -29 -18q-9 0 -19 4q-37 41 -74.5 86t-82.5 82q-27 -16 -47.5 -38 t-28.5 -57v-4v4q-6 -16 -18.5 -22t-22.5 -3t-16.5 15.5t-1.5 32.5q14 29 39.5 52.5t56.5 45.5q-46 31 -103 37q-16 7 -20 21zM383 578q0 4 2 6z" />
<glyph unicode="F" horiz-adv-x="1073" d="M-15 490q-4 43 -4 84q-1 57 7 113q14 97 56 183t122 146q180 131 366 135h14q179 0 367 -98q80 -43 137.5 -121t79.5 -167q11 -43 10 -87q0 -45 -12 -90q-22 -88 -102 -148q61 -30 89 -72q24 -35 24 -71q0 -6 -1 -13q-5 -42 -46 -80.5t-119 -58.5q-90 -25 -192 -25h-5 q-104 0 -196 42q-12 -33 -35 -66q-2 -4 -10.5 -14t-14.5 -16q-2 -2 -2 -5q-4 -6 -5 -14t-5 -18q-4 -16 -16.5 -35t-30.5 -23q-63 -12 -93 -18q-20 -4 -36 -4q-8 0 -16 1q-22 3 -48 16.5t-82 41.5q-29 14 -55.5 53t-49 84t-38.5 89.5t-23 68.5q-25 87 -35 187zM22 597 q0 -9 1 -17q0 -104 28 -208q31 -112 82 -198q39 -66 71 -97.5t66 -42.5q25 -8 53 -8q10 0 21 1q41 4 98 14q2 4 6.5 17.5t18.5 39.5q14 29 29.5 49.5t23.5 47.5l-6 6q-10 12 -10 28.5t8 28.5t21.5 16.5t27.5 -8.5q0 -2 2 -2q23 4 29 -20q74 -46 177 -62q37 -6 74 -6 q65 0 128 19q14 4 40.5 13t50.5 24q24 16 38 36q9 13 9 27q0 8 -3 16q-16 37 -51 60.5t-82 38.5q-35 -12 -77 -14q-14 -1 -28 -1l-56 3q-42 5 -82 14.5t-71 17.5q-6 2 -11 4t-11 6q-25 0 -47.5 -1t-38.5 -1q-18 0 -25.5 11.5t-5.5 25.5t12.5 26.5t26.5 14.5q6 12 13.5 18.5 t23.5 8.5q23 4 39 -8.5t35 -22.5q90 -2 182 -18q23 -4 47.5 -9.5t46.5 -11.5q10 2 21.5 6t21.5 8q63 29 84 89q15 44 15 91q0 17 -2 35q-8 66 -38 129.5t-67 100.5q-80 80 -180.5 124t-206.5 50q-18 1 -35 1q-89 1 -177 -25q-106 -30 -194 -99q-88 -68 -126 -170t-40 -216z " />
<glyph unicode="G" horiz-adv-x="892" d="M-82 516q4 35 13.5 70t19.5 69q10 45 51 98.5t99.5 105.5t128 98.5t140 75t134.5 37.5q18 2 34 2q44 0 78 -17q2 -2 4.5 -3t4.5 -5h16q49 -6 111.5 -32t120 -64t102.5 -86t61 -99q17 -56 17 -120q0 -6 -1 -11q-1 -70 -18 -141q100 -10 197.5 -34t193.5 -67q14 -10 17 -25 v-9q0 -11 -4 -19q-6 -12 -19.5 -18.5t-32.5 0.5q-92 53 -183 81.5t-183 40.5q-35 -115 -98.5 -218t-135.5 -171q-37 -35 -84 -67.5t-99 -55t-107 -32.5q-20 -3 -40 -3q-35 0 -69 11q-35 10 -69.5 17t-65.5 26q-74 45 -138.5 104.5t-111.5 130t-70 153.5q-17 58 -17 122 q0 27 3 55zM-38 494v-20q0 -65 18 -129q20 -73 60 -139.5t94 -119.5t121 -89t140 -48q31 -5 61 -5q75 0 142 30q94 40 169 116t127 172t79 189q-69 6 -138 6q-60 0 -121 -5q-130 -10 -270 -20q51 -47 81 -113.5t48 -138.5q0 -14 -8 -26.5t-18 -17.5t-21.5 -1t-19.5 21 q-2 45 -9.5 90t-25.5 79.5t-52 57.5t-87 25q-25 10 -24 30.5t18 34.5q4 10 13 19.5t23 11.5q69 -2 139 -2q87 0 173 3q47 1 92 1q110 0 219 -8q13 57 13 102v16q-3 50 -13 121q-6 35 -45 73t-91 69.5t-105.5 55t-86.5 30.5q-23 5 -44 5q-11 0 -21 -1q-29 -4 -64 -15 q-23 0 -29.5 11.5t-2.5 27.5q-39 -4 -83 -19.5t-86 -35.5t-81 -42t-66 -38q8 4 6 2q-63 -49 -110 -95t-82 -126q-29 -70 -32 -145z" />
<glyph unicode="H" horiz-adv-x="944" d="M-41 453q8 74 39 154.5t77 155.5t107.5 135t134.5 91q41 18 83 23.5t87 11.5q10 0 17 2q20 115 55 223.5t94 210.5q16 29 40 50.5t46 43.5q13 8 23 8h4q12 -2 17 -13t3 -26.5t-10 -27.5q-111 -104 -164 -219t-71 -242q23 4 46 6t46 -2q18 -4 23.5 -16t2.5 -29 q51 -23 108.5 -46t110 -55t93.5 -73t59 -94q15 -40 14 -92v-23q-4 -66 -17 -132t-28.5 -120.5t-19.5 -78.5q-10 -61 -50 -117t-95.5 -100t-118 -74.5t-117.5 -40.5q-16 -2 -31.5 -3t-31.5 -1q6 -94 30 -205q0 -14 -8 -26q-9 -13 -19 -18q-6 -3 -11 -3t-10 2q-11 4 -19 20 q-10 117 -13 232q-29 4 -59.5 7t-58.5 5q-80 4 -157 52t-136.5 121t-91.5 159q-25 66 -25 127q0 19 2 37zM22 314q26 -110 114.5 -194.5t244.5 -123.5q51 -12 104 -12q1 184 13 366q4 18 16 29.5t23.5 12.5t20.5 -9t7 -33q-19 -84 -29 -173q-8 -64 -7 -137q0 -28 1 -56 q135 10 247 89t161 218q2 8 15.5 56t23.5 110.5t13 128.5v20q0 52 -13 86q-23 57 -74 97t-114.5 70t-128 52.5t-113.5 44.5q-2 0 -2 2q-4 -2 -6 -2t-7 -2q-8 -84 -8 -170t4 -178q0 -16 -11 -28.5t-23.5 -15.5t-22.5 3t-10 29q4 90 11 178t20 176h-11q-41 -4 -78.5 -7 t-78.5 -19q-51 -20 -91 -58.5t-75 -79.5q-92 -116 -127 -238q-20 -70 -20 -135q0 -50 11 -97z" />
<glyph unicode="I" horiz-adv-x="913" d="M5 161q3 36 16.5 67.5t39.5 54.5q49 43 107 65q44 16 92 16q15 0 31 -2q4 -2 21.5 -6t33.5 -10q4 31 6 72v33q-20 10 -16 41q-18 -4 -41 -8.5t-39 1.5q-29 10 -59.5 16.5t-53.5 28.5q-85 84 -109 180q-6 25 -7 49q0 73 51 154q16 25 36.5 42.5t41.5 37.5q27 27 64.5 37 t78.5 11h20q31 0 61 -2q40 -3 71 -3q47 0 106 2h9q53 0 93 -22q119 -14 197 -69.5t94 -180.5q1 -5 1 -10q0 -18 -11 -36q-14 -22 -25 -44q-16 -37 -42.5 -56.5t-56.5 -32t-60.5 -21.5t-55.5 -27q6 -35 7 -69t6 -69q41 -20 86 -35.5t80 -50.5q55 -55 69 -103q7 -23 6 -45 q0 -24 -8 -46q-14 -43 -50 -84t-79 -82q-45 -43 -137 -73t-194 -40q-43 -4 -85 -4q-57 0 -110 8q-92 14 -137 58q-31 31 -65 58.5t-56 64.5q-15 29 -23 63q-5 25 -6 51q0 10 1 20zM53 133q20 -84 80 -140t137.5 -84t167.5 -29h8q86 0 166 22q84 22 155 67t110 113 q10 18 16 39.5t0 42.5q-10 37 -27.5 61.5t-42 40t-53.5 25.5t-59 22q-14 -18 -36 -18t-22 35q2 10 4 18t5 17q0 8 2 12q3 18 3 36q-1 17 -3 31q-6 32 -29 66v2q-18 18 -2 55q20 27 52 40.5t66.5 24.5t69.5 26.5t62 46.5q33 36 33 70q0 7 -2 13q-8 40 -39 74.5t-77 57 t-83 28.5q-8 2 -14.5 2t-10.5 2q-8 -20 -23.5 -29.5t-31.5 13.5q-8 8 -12 10q-16 -4 -35 -11t-47 -17q-29 0 -33 19t6 36q-23 2 -44 1t-34 1q-54 4 -114 7q-11 1 -22 1q-47 1 -89 -11q-51 -14 -89 -50.5t-50 -110.5q-5 -26 -5 -49q0 -27 7 -50q12 -42 41.5 -73t70.5 -52.5 t90 -33.5q18 -4 41 1t44.5 9t36 0t14.5 -28q4 -16 -2 -31q-6 -8 -14 -54q-4 -24 -5 -54q0 -28 4 -62q14 -4 20.5 -19.5t0.5 -35.5q-18 -29 -39 -29q-10 -6 -22.5 -5t-16.5 13q-2 0 -4 2q-8 4 -15.5 8t-17.5 8l-2 3q-2 0 -3 1t1 1q-30 10 -60.5 10t-62.5 -10 q-33 -10 -63.5 -30t-47.5 -52q-4 -10 -4 -21.5t-6 -21.5v-23zM53 166v8v-8z" />
<glyph unicode="J" horiz-adv-x="829" d="M-45 664q-3 28 -3 56q0 57 12 112q16 83 59 141q33 43 94 73.5t131.5 47t141.5 20.5q20 1 39 1q46 0 81 -7q16 -4 34.5 -12.5t37.5 -18.5q10 4 28 2q16 -14 39 -28h4q18 -2 27 -23q59 -43 110.5 -94t77.5 -121q18 -49 24 -127q4 -44 4 -92q0 -37 -2 -77 q-5 -91 -22.5 -186t-45 -180t-64.5 -152t-82 -99q-35 -25 -81 -35t-96 -13q-25 -2 -50 -2t-51 2q-50 3 -89 9q-43 6 -89 17t-90 30.5t-82 47.5t-62 67q-23 37 -27 83q-1 14 -1 28q0 32 6 65q9 47 30.5 89t52.5 70q12 8 29 13q-53 49 -85 128t-40 165zM-18 786q-1 -18 -1 -36 q0 -74 24 -146q30 -90 90.5 -164.5t133.5 -105.5q39 -16 68 -19.5t53.5 3t48 20.5t54.5 31q-5 10 -9 26q0 16 9.5 30.5t21.5 21t22.5 1t14.5 -27.5q-2 -10 -2 -18.5v-16.5q14 -6 16 -23.5t-8 -31.5q6 -29 15.5 -57.5t17.5 -59.5q0 -14 -8 -26.5t-18.5 -17.5t-21.5 -1t-20 20 q2 16 2 31q0 41 -12 82q-31 -16 -65.5 -31.5t-69.5 -23.5q-22 -5 -43 -5q-14 0 -28 2q-36 5 -68 31q-14 10 -26.5 21.5t-25.5 21.5q-14 -23 -38 -22h-27q-18 -37 -36.5 -69.5t-25.5 -80.5q-1 -9 -1 -18q0 -50 30 -88q35 -45 93.5 -73.5t133 -42t148.5 -16.5q22 -1 43 -1 q50 0 95 5q63 7 100 23q37 14 59 45t36.5 69t22.5 79t17 76q16 76 34.5 162t23.5 173q1 19 1 38q0 67 -14 130q-17 82 -72 148q-33 37 -73 66.5t-81 56.5q-10 4 -19 11t-19 13l-7 7h-2q-16 14 -39 20q-55 14 -120 20q-26 2 -52 2l-80 -6q-65 -8 -124.5 -32.5t-102.5 -69.5 q-61 -63 -69 -156z" />
<glyph unicode="K" horiz-adv-x="1021" d="M-140 536q-4 29 -5 58q0 79 30 164q25 66 47.5 117t53 93t72.5 75.5t106 64.5q33 14 76 15h8l78 -9q43 -10 81.5 -27.5t63.5 -37.5q70 -55 116 -94.5t68 -80.5q16 16 35 31t41 25q31 12 59.5 31.5t59.5 17.5q25 0 51.5 4t46.5 -10q18 -12 37 -24.5t33 -28.5 q41 -45 44 -122v-17q0 -69 -22 -142q-24 -82 -69 -157.5t-101 -119.5q18 -8 37 -19t37 -30q16 -16 33.5 -31.5t28.5 -35.5q43 -75 43 -122q0 -50 -34 -76q-33 -24 -87 -30q-14 -1 -27 -1q-42 1 -85 11q-58 14 -114.5 40t-91.5 61q-8 4 -14 18q-59 -104 -140 -137 q-25 -10 -56 -10q-66 0 -154 49q-96 55 -179 128t-137 163t-70 196zM-84 745q-19 -68 -19 -133q1 -82 31 -160q54 -139 172 -239q47 -37 85 -57.5t91 -49.5q62 -33 106 -38q9 -1 19 -1q32 1 58 15q33 18 57.5 57t50.5 94q-2 29 7 54t32 41q18 10 30.5 5t16.5 -17.5t-1 -28 t-19 -25.5q-2 -2 -3 -2t-3 -2q10 -12 6 -35q0 -4 2 -6q12 -37 38.5 -64.5t61.5 -43.5q65 -29 129 -39q21 -3 43 -3q43 0 88 13q14 25 14 49q-1 18 -9 36q-20 40 -60.5 69.5t-89.5 49t-84 25.5q-12 6 -17.5 16.5t-4.5 21.5t8.5 21.5t17.5 14.5q6 10 18 16q43 6 89.5 53.5 t82.5 111.5t54 132q13 47 12 86q0 16 -2 31q-10 55 -42 81t-72 30q-9 1 -17 1q-32 1 -67 -11q-44 -14 -78 -42q-18 -16 -36 -33.5t-34 -35.5q1 -9 1 -19q0 -65 -34 -166q-6 -18 -18.5 -26t-23.5 -6t-18 14t-3 33q10 35 18 61.5t12 50.5q-25 -4 -31 22t15 48q4 2 5 4t5 6 q-12 39 -52 80t-118 94q-56 41 -126 59q-35 9 -72 10q-35 0 -70 -9q-51 -14 -92 -47t-72 -76t-52.5 -93t-35.5 -98z" />
<glyph unicode="L" horiz-adv-x="923" d="M-16 354q-4 40 -4 83q0 49 5 101q9 98 34.5 191.5t69.5 179.5t108 148q14 14 54 27.5t91 22.5t107.5 16t105.5 11.5t84 4.5t43 -2q31 -8 64.5 -16.5t64.5 -23t54.5 -38t33.5 -62.5q25 -87 28 -163q1 -13 1 -26q0 -63 -12 -124q-14 -74 -42 -144.5t-65 -142.5 q16 -4 32.5 -13t32.5 -17q23 -10 39.5 -32t34.5 -40q50 -53 56 -115q1 -11 1 -21q0 -51 -22 -97q-27 -54 -80 -94t-119 -46q-78 -8 -166 -16q-78 -7 -157 -7h-20q-89 1 -174 18t-156 60q-43 27 -68 74t-36 100.5t-15 107.5t-8 95zM18 326q10 -96 39 -176t82 -130 q27 -25 77 -38t112 -20q55 -6 114 -6h18q68 1 130.5 4t114 10t77.5 14q98 25 131 79q25 41 25 84q0 13 -2 26q-10 56 -54 99t-102 47h-12q-4 -8 -8 -14t-8 -14q-12 -18 -25.5 -21.5t-23 4t-12.5 21.5t5 31q-4 14 4.5 29.5t22.5 24.5h4q35 61 69.5 135.5t57.5 151t25 153.5v9 q0 72 -29 134q-27 59 -74 85.5t-110 32.5q-8 1 -26 1h-20q-34 -1 -79 -3t-95.5 -7t-96.5 -12t-82 -17.5t-52 -24.5q-51 -45 -92 -122t-67 -172q-28 -94 -38 -198q-6 -54 -5 -107q0 -48 5 -93z" />
<glyph unicode="M" horiz-adv-x="948" d="M-25 438q-1 18 -1 37q0 80 28 162q16 43 25.5 89t35.5 85q39 57 56.5 84t34 42t43 28.5t84.5 44.5q16 8 33 8q16 0 34 -8q36 -16 72 -21q59 -12 102 -71q18 35 65.5 52t100.5 27q26 5 50 4q62 -1 108 -29q66 -40 104 -118q31 -59 47.5 -151.5t19.5 -189.5q1 -20 0 -40 q-1 -77 -9 -149q-12 -92 -37 -148q-20 -45 -29.5 -67.5t-20 -38t-25.5 -33t-46 -51.5q-18 -18 -45 -24.5t-51 -16.5q-25 -8 -51.5 1t-53.5 13q-4 0 -5 1t-3 1q18 -117 55 -231q2 -16 -4 -30q-6 -16 -16 -24q-7 -6 -17 -6q-3 0 -7 1q-14 3 -21 22q-14 74 -22.5 146.5 t-16.5 144.5q-16 12 -27 22l-37 -18q6 -23 11.5 -44.5t11.5 -41.5q2 -16 -4 -30.5t-16.5 -23t-23.5 -5.5t-22 22q-4 27 -6 51.5t-6 48.5q-67 -24 -131 -24q-12 1 -24 1q-76 6 -139.5 42t-112 104t-72.5 168q-10 45 -12 91t-7 91zM18 538q-7 -48 -7 -95q0 -84 22 -162 q27 -94 72 -156t102 -91.5t123.5 -29.5t136.5 29q-4 45 -10 89t-11 89q-10 90 -23 180q-5 35 -5 71q0 54 12 107q6 10 11 16.5t16 12.5h4q31 6 37 -16.5t-9 -40.5q-10 -41 -12 -97q-1 -18 -1 -37q0 -39 3 -81q4 -62 13.5 -129.5t21.5 -130.5q8 2 25 10q8 4 15 9t17 9 q2 -2 4 -2q0 -2 1.5 -2t1.5 -2h4q-10 92 -16 180q-2 28 -3 56q0 61 10 125q4 18 16.5 29t24 12.5t20.5 -9t7 -32.5q-4 -18 -8 -38t-12 -38q-7 -71 -7 -139v-26q2 -81 13 -163q59 -40 112 -40q36 1 70 19q82 46 127 169q25 67 37 149q10 70 10 142v24q-2 84 -20.5 166 t-53.5 147q-58 114 -176 114q-20 0 -41 -3q-4 0 -21.5 -4t-39 -10.5t-37.5 -15.5t-16 -19q4 -6 7 -12.5t7 -14.5q4 -29 -14 -51q6 -20 9 -40t7 -36q0 -14 -8 -26.5t-18.5 -17.5t-21.5 -1t-20 21q-6 94 -53 157.5t-113 79.5q-20 5 -41 5q-45 -1 -95 -25q-72 -36 -128 -136 q-58 -113 -78 -248z" />
<glyph unicode="N" horiz-adv-x="821" d="M-43 469q6 45 6 89t17 85q16 41 27 83t40 77q35 43 73 89t85 81q-10 6 -13.5 17t2 22.5t14.5 21.5t23 13q35 6 75 14t82 13t84 5t81 -10q23 90 55.5 175t91.5 177q14 17 28 17h1q13 0 19 -10q8 -10 8 -27t-11 -31q-55 -68 -91 -142.5t-62 -172.5q6 -4 11 -6t11 -7 q37 -23 76 -40t66 -52q27 -33 57.5 -62.5t44.5 -70.5q32 -84 54 -170q21 -82 21 -164v-8q-1 -86 -32 -168t-100 -153q-39 -39 -88 -66t-99 -55q-57 -33 -115.5 -64.5t-125.5 -42.5h-11q4 -23 5.5 -46t5.5 -46q0 -14 -8.5 -26.5t-18.5 -17.5q-6 -3 -12 -3t-10 2q-12 4 -19 21 v116q-47 6 -91 25.5t-82 49.5t-67.5 69t-44.5 82q-29 82 -51 154q-15 50 -15 108q0 27 3 55zM9 368q11 -102 52 -190q37 -82 106 -137t138 -72q2 178 19 357q2 10 2 20t4 21q-14 14 -8 41q8 20 16 39.5t16 39.5q14 27 35 24t19 -36q-4 -16 -9.5 -32.5t-9.5 -32.5 q-4 -8 -5 -15.5t-3 -13.5q-2 -2 -2 -4q-8 -25 -12 -53q-17 -90 -17 -178v-11q0 -83 8 -168q18 0 35 6q39 14 99.5 39t120 55.5t110.5 66.5t72 71q18 35 38.5 67.5t32.5 67.5q26 74 26 155q0 15 -1 31q-6 98 -43 187.5t-103.5 160t-158.5 103.5q-6 0 -11 4 q-12 -53 -21 -111.5t-19 -124.5q-6 -49 -15.5 -103t-13.5 -110q-2 -23 -2 -45q0 -33 4 -66q6 -54 29 -99q2 -12 -2.5 -26.5t-13.5 -24t-20.5 -10.5t-23.5 13q-25 55 -28 115q-1 19 -1 38q0 41 4 82q6 60 19.5 120.5t24.5 115.5q12 66 22 127.5t21 118.5q-41 9 -74 13 q-15 2 -31 2l-35 -2q-4 -12 -12 -24.5t-20 -16.5q-43 -4 -81 -21.5t-73 -46.5q-80 -59 -129 -145q-50 -86 -68 -184q-12 -61 -11 -123q0 -37 4 -75z" />
<glyph unicode="O" horiz-adv-x="1026" d="M16 424q8 78 36 151.5t69 143t84 133.5q66 94 166 145.5t211 57.5q10 0 19 1h6q6 0 14 -1q29 2 53 -9.5t46.5 -26.5t46.5 -33.5t50 -33.5q31 -16 66 -29.5t67.5 -32t60 -43t40.5 -61.5q51 -132 59 -256q1 -21 1 -42q0 -100 -32 -191q-39 -109 -125 -197t-219 -149 q-45 -20 -103 -50q-51 -26 -97 -26h-13q-53 4 -102 27.5t-101 42.5q-41 16 -77.5 38.5t-65.5 55.5q-23 27 -46.5 51.5t-45.5 50.5q-23 27 -33 59.5t-20 65.5q-17 58 -17 116q0 21 2 42zM64 360q2 -108 64 -203.5t206 -170.5q10 -4 33.5 -16.5t51 -25t57.5 -21.5t54 -9 q51 0 102.5 27.5t94.5 48.5q117 55 195 137q77 83 114 181q30 81 30 171q0 19 -1 39q-8 112 -64 232q-14 31 -39.5 51t-56.5 34.5t-62.5 26.5t-58.5 25q-39 18 -71.5 48t-71.5 40q-14 -10 -35 -2q-2 0 -2 1t-2 1q-4 -2 -10 -4t-10 -4q-31 -12 -39 10q-6 -2 -17 -2 q-86 -6 -161.5 -52t-124.5 -116q-78 -111 -128 -225q-48 -111 -48 -216v-6zM565 134q-1 4 -1 9q0 7 2 17q3 14 14 24q37 14 71 41q-29 23 -50.5 50.5t-33.5 60.5q0 14 6.5 27.5t16.5 20.5t21.5 6t21.5 -17q2 -43 17.5 -71t37.5 -44q23 23 38 50.5t19 60.5q7 14 19 21 q9 5 18 5h4q10 -2 17.5 -12t5.5 -29q-12 -29 -33.5 -58.5t-48.5 -57.5q29 -10 55.5 -12.5t44.5 -0.5q19 -4 25 -16q4 -7 4 -15q0 -4 -2 -10q-4 -14 -16.5 -25.5t-28.5 -11.5q-61 16 -119 50q-23 -23 -44 -42.5t-40 -35.5q-10 -5 -18 -5q-6 0 -10 3q-10 6 -13 17z" />
<glyph unicode="P" horiz-adv-x="946" d="M-30 232q-2 42 -2 85q0 81 6 163q8 126 28 245t49 215q20 70 86 108q67 40 141 44q9 1 17 0q65 0 125 -30q68 -34 96 -108q72 -10 147.5 -23t143 -39t121 -68t78.5 -105q35 -88 34 -185q0 -24 -2 -48q-10 -124 -65 -230t-149.5 -178t-221.5 -74q-16 0 -34.5 -1t-37.5 1 q10 -8 12.5 -26.5t-10.5 -36.5q-35 -43 -74.5 -82t-99.5 -54q-24 -5 -49 -5q-29 0 -61 6q-60 12 -112 39.5t-91 70.5t-51 96q-20 98 -24 220zM8 484q-3 -57 -3 -113q0 -65 4 -129q7 -118 30 -205q8 -35 29 -72q12 -27 55 -47t93 -30.5t98 -11.5h9q42 0 62 9q35 16 57.5 47 t44.5 60q8 10 19 14q-21 4 -31 8q-16 6 -20 20.5t1 28t18 22.5t30 5q51 -14 101 -14q44 0 88 11q93 24 165 89.5t111 169.5q29 78 29 174q0 32 -3 66q-4 51 -21.5 98t-53.5 82q-35 33 -82 54.5t-101.5 33.5t-113 18.5t-113.5 10.5q-10 -10 -24.5 -12.5t-24.5 16.5 q-29 2 -55.5 3t-49.5 5q-16 6 -20 18.5t0 24.5t14 22.5t25 12.5q10 -2 22.5 -4t26.5 -4q-31 37 -80 51q-34 10 -69 10l-29 -2q-49 -6 -92 -31.5t-62 -70.5q-35 -82 -56.5 -198t-27.5 -240zM465 215q2 25 6 73t10 106.5t17.5 119.5t29.5 115q8 18 22 24q7 3 13 3q5 0 11 -2 q10 -5 15 -19q2 -6 2 -14q0 -9 -3 -19q-29 -47 -42.5 -92t-18.5 -89q-3 -28 -3 -57q0 -18 1 -36q3 -48 7 -101q0 -16 -11 -28.5t-23 -15.5q-4 -1 -8 -1q-8 0 -15 4q-10 6 -10 29z" />
<glyph unicode="Q" horiz-adv-x="1011" d="M-14 492v20q0 88 16 176q18 98 57 186.5t99 137.5q31 25 61.5 50t59.5 48q39 31 97 39q33 5 68 5q26 0 52 -3q63 -6 121.5 -21.5t97.5 -31.5q117 -49 195.5 -126t140.5 -186q18 -31 19 -68.5t5 -74.5q2 -11 2 -23q0 -27 -13 -54q-20 -38 -32 -77q-10 -39 -34.5 -76.5 t-55.5 -70.5q47 -43 74 -102q19 -44 19 -81q0 -15 -3 -28q-10 -49 -28.5 -73.5t-53.5 -59.5q-18 -18 -53 -28.5t-75 -11.5h-11l-69 5q-40 6 -68 21l-6 -7q-94 -35 -185 -35h-29q-104 7 -193 53t-156.5 130t-98.5 199q-18 70 -20 168zM32 438q13 -106 60 -199.5t137 -150.5 q37 -25 79 -38t83 -30q38 -13 82 -13q17 0 35 2q65 7 119 30q0 8 2 17.5t10 19.5q20 23 36.5 14.5t18.5 -31.5q27 -12 50.5 -24t52.5 -21q21 -6 41 -6q14 0 28 3q33 7 62 24q47 31 60 67q7 21 7 42q0 16 -4 32q-10 37 -36.5 70t-59.5 55q-4 -2 -6 -4t-6 -4q-27 -10 -36 2 t-5 31q-37 10 -60 -4q-20 -8 -30.5 -1t-11.5 21t5.5 28.5t20.5 22.5q29 12 60.5 9t62.5 -19q25 23 42 50.5t38 58.5q48 77 48 154q0 11 -1 22q-8 88 -58.5 166.5t-132.5 140t-175 97.5t-188 39h-13q-87 0 -156 -36q-72 -39 -120 -98t-83 -133q-39 -86 -56 -194 q-9 -59 -9 -117q0 -48 7 -95zM438 442q4 18 16.5 29.5t23.5 12.5h2q10 0 18 -9q10 -10 8 -33q-8 -21 -8 -39q0 -16 7 -29q15 -28 44 -44q14 53 26 98t41 55q7 1 12 1q11 0 18 -5q9 -8 9 -21.5t-8 -27.5t-20 -20q-4 -6 -6.5 -6.5t-4.5 -4.5q-10 -23 -17 -43t-13 -43 q23 -8 45 -13t43 -7q18 -13 18 -31q0 -7 -4 -16q-10 -29 -43 -29q-18 8 -36.5 18.5t-37.5 20.5q-8 -27 -17 -51.5t-24 -48.5q-17 -12 -28 -12q-12 0 -18 12q-13 22 1 51q31 27 47 72q-41 31 -70 71q-24 34 -24 79v13z" />
<glyph unicode="R" horiz-adv-x="972" d="M-128 616q15 122 63.5 231t128 201.5t188.5 153.5q57 33 130 42q39 5 79 4q37 0 73 -3q78 -8 156 -33.5t144.5 -65.5t115.5 -90t72 -110q12 -31 12 -65.5t2 -69.5q1 -7 0 -15q0 -40 -18 -83q-22 -51 -57 -101.5t-78 -98.5t-82 -91q12 -2 22 -10q31 -23 65 -56.5 t57.5 -75.5t28.5 -88q1 -8 0 -15q0 -38 -20 -73q-25 -41 -60.5 -67.5t-76.5 -38.5q-31 -9 -64 -9q-11 0 -22 1q-45 4 -88 24q-39 20 -69.5 52t-59.5 63q-2 0 -2 1t-2 1q-16 -37 -47 -69.5t-67 -58.5t-74.5 -43t-73.5 -23q-11 -1 -22 -1q-22 0 -44 5q-32 8 -67 12t-59.5 37 t-51.5 55q-25 20 -46 63.5t-38.5 92.5t-29 96t-15.5 76q-10 66 -10 132q0 56 7 111zM-93 484q3 -106 35.5 -206t98.5 -182q43 -54 82 -74q36 -19 71 -18h7q39 2 82 22.5t92 49.5q33 16 54.5 40.5t29.5 59.5q-10 12 -4 33.5t24 32.5q18 8 33.5 -0.5t29 -23.5t23.5 -32.5 t19 -27.5q29 -35 62.5 -63.5t71.5 -44.5q32 -13 66 -12h13q41 3 86 34q33 20 42 53q5 20 5 40q0 13 -2 27q-6 34 -24.5 65.5t-41.5 51.5q-31 29 -59.5 40t-59.5 11q-8 -12 -12 -16q-35 -23 -49 4q-10 -4 -22.5 -7t-24.5 -7q-18 0 -25.5 9t-7.5 22.5t7 25.5t20 19q23 6 46 17 t46 9q37 41 80 81t80 84t64.5 93t35.5 109q2 16 2 32q0 71 -44 133q-54 76 -140 130q-87 54 -187 84q-88 26 -161 26h-19q-43 -2 -84 -13t-82 -30q-84 -39 -152.5 -110.5t-115.5 -163.5q-46 -93 -70 -197q-21 -93 -22 -186q1 -12 1 -24zM416 646q0 73 13 142.5t50 131.5 q16 18 30 18q9 0 15 -8q12 -12 12 -28q0 -10 -4 -21q-47 -55 -61 -115q-12 -53 -12 -109v-15q2 -64 13.5 -129.5t19.5 -131.5q0 -14 -8.5 -26.5t-18.5 -17.5q-6 -3 -12 -3q-5 0 -9 2q-12 4 -20 20q1 20 1 40q0 52 -4 104q-5 74 -5 146z" />
<glyph unicode="S" horiz-adv-x="890" d="M-569 300q0 13 7 25.5t19 18.5q117 41 233.5 62.5t235.5 31.5q-6 50 -6 99q0 71 12 139q20 115 80 201q55 80 141.5 108.5t180.5 34.5q4 4 8 6q35 6 73 16q39 9 75 13q24 3 49 3q12 0 25 -1q38 -2 73 -19q37 -16 66.5 -28.5t56 -27.5t51.5 -34.5t51 -50.5 q47 -53 81 -118.5t50 -137.5q48 -1 95.5 -1t95.5 1q94 2 192 4q18 -5 24 -17q4 -8 5 -15q0 -5 -2 -10q-4 -13 -16.5 -24.5t-28.5 -11.5q-90 6 -178 15.5t-179 13.5q6 -42 6 -85q0 -31 -3 -59q-7 -72 -35 -137q-31 -72 -80 -131t-103 -118q-33 -37 -65.5 -71t-69.5 -61.5 t-80 -49t-92 -29.5q-35 -6 -69 -6q-71 1 -133 27q-91 38 -160.5 115t-116.5 182.5t-66 219.5q-119 -12 -232.5 -41.5t-238.5 -83.5q-18 0 -25 9.5t-7 22.5zM-35 442q174 14 346 17t348 18q18 -4 23.5 -14t3.5 -22.5t-11 -23.5t-22 -18q-82 -1 -162 -1h-81q-120 1 -242 5h-2 q-51 0 -98.5 -1t-94.5 -5q14 -80 46 -155.5t75 -140t98.5 -112.5t116.5 -73q41 -14 85 -15t87 -5h7l67 16q37 18 70.5 46t62.5 58.5t51 55.5q14 14 45 48t65 76t61.5 89t33.5 90q8 49 8 99q0 61 -12 124h-104q-78 -6 -145.5 -14.5t-141.5 -30.5q-18 0 -25.5 9t-7.5 22.5 t7 26t20 18.5q93 19 184 19h9q95 -1 194 -5q-18 63 -50 121.5t-78 103.5t-104.5 74t-128.5 37q-4 -14 -16 -25.5t-29 -11.5q-58 2 -122 5q-19 1 -39 1q-43 0 -87 -5q-62 -7 -120 -29.5t-103 -73.5q-66 -74 -85 -180q-10 -57 -11 -116q1 -50 8 -102z" />
<glyph unicode="T" horiz-adv-x="948" d="M-47 708v9q-1 57 23 107q26 54 75.5 99.5t108.5 90.5q74 54 148 66q37 6 73 6l73 -6q74 -12 149 -34t151 -36q43 0 64.5 1t37.5 -3t37.5 -15.5t67.5 -36.5q41 -23 67 -78q25 -54 33 -120q3 -24 3 -49q0 -41 -8 -79q-14 -62 -48 -93q-29 -27 -45.5 -42.5t-29.5 -24.5 t-26.5 -14t-34.5 -12q18 -33 37 -64.5t35 -64.5q14 -28 14 -58q0 -27 -12 -57q-24 -62 -73.5 -117.5t-108.5 -96.5t-98 -52q-23 -4 -64 -15t-87 -19.5t-89 -8.5t-68 19q-12 10 -29.5 19.5t-32.5 19.5t-27.5 22.5t-14.5 28.5q-6 41 -18 83q-9 31 -8 62q0 11 1 21 q10 61 30 135t60 131q-59 0 -119.5 9.5t-99.5 41.5q-25 23 -53.5 40.5t-44.5 45.5q-47 77 -49 139zM-2 760q-3 -18 -3 -36q-1 -44 21 -88q30 -60 115 -99q39 -18 72 -25.5t65 -9.5q13 -1 27 -1q20 0 39 2q33 3 72 7q6 4 14 6t16 6q29 4 35 -12q23 -12 13.5 -38t-31.5 -36 h-37q-49 -27 -85 -96q-37 -70 -47 -146q-4 -26 -3 -52q-1 -49 13 -95q20 -70 87 -96q35 -13 81 -13h18q58 3 120 21t120 51t100 76t62 93q11 29 11 60q0 22 -6 44q-10 39 -36 68.5t-46 64.5q-4 8 -4 12q-4 0 -6 -1t-4 -1q-18 0 -25.5 9t-7.5 22.5t7 26t19 18.5q31 4 60.5 6 t58.5 12q59 23 90 74q31 50 34 110v14q-1 52 -21 102q-24 56 -72 89q-23 14 -41.5 20.5t-34.5 10.5q-14 -18 -37 -18q-20 2 -39.5 5t-36.5 7q-8 0 -14 -1t-14 -1q-25 0 -33 18q-63 18 -119.5 40t-116.5 31q-32 5 -64 5q-30 0 -62 -4q-66 -8 -148 -47q-70 -35 -117 -93 t-59 -122z" />
<glyph unicode="U" horiz-adv-x="882" d="M-23 418q-4 22 -4 49q1 44 11 99q16 89 54 177t94 157t126 87q55 16 111.5 28.5t111.5 24.5q16 0 27 -6q6 92 23.5 183.5t52.5 181.5q12 33 34.5 59.5t40.5 54.5q16 18 30 18q7 1 15 -7q18 -18 9 -49q-20 -25 -41 -48.5t-37 -52.5q-47 -80 -69.5 -167t-26.5 -179 q39 -2 75 -12q53 -16 104.5 -31.5t102.5 -32.5q61 -20 107.5 -80.5t74 -135t33.5 -152.5q2 -21 2 -41q0 -52 -12 -92q-25 -80 -52.5 -150t-65.5 -131t-92 -112.5t-134 -94.5q-47 -27 -99.5 -39t-103.5 -28q-21 -7 -42 -7q-5 1 -9 1q-26 2 -51 7t-50.5 11t-52.5 10 q-41 6 -82.5 40t-78.5 80t-63.5 95t-33.5 82q-10 51 -19 101.5t-20 101.5zM28 392q12 -126 67 -232q55 -108 151 -172q80 -54 188 -53q22 0 45 2q117 12 218.5 78.5t171 162.5t101.5 213q19 69 18 137q0 48 -9 95q-16 86 -51 140t-84 88t-113.5 54.5t-140.5 38.5 q-12 4 -24.5 5t-26.5 3q4 -125 29.5 -247.5t56.5 -235.5q2 -16 -4.5 -30.5t-16.5 -22.5t-23.5 -5t-21.5 21q-25 129 -41 260q-13 105 -13 210q0 26 1 52q-49 0 -92 -16q-25 -12 -37 4q-63 -14 -113.5 -33.5t-90.5 -53.5t-70.5 -87t-55.5 -139q-23 -81 -23 -170q1 -33 4 -67z " />
<glyph unicode="V" horiz-adv-x="897" d="M-123 811q2 31 11.5 72t25.5 78.5t43 69.5t63 44q22 8 45 8h9q28 -2 55 -2q35 0 62.5 -20.5t56.5 -36.5q55 -29 114 -96q94 61 211 92q43 10 114 17q31 3 62 3q39 0 77 -5q68 -9 119.5 -41.5t55.5 -100.5q5 -57 17 -113q6 -27 5 -53q0 -29 -7 -59q-12 -57 -22.5 -116.5 t-32.5 -113.5q-25 -55 -47.5 -111.5t-51.5 -109.5q-98 -188 -233.5 -351t-270.5 -327q-16 -12 -28 -11.5t-18 11.5q-13 23 1 51q10 12 20.5 23.5t20.5 21.5q-6 55 -9 89t-9 62t-18.5 59.5t-36.5 82.5q-55 113 -129 214.5t-138 203.5q-65 104 -106 216q-33 90 -33 196 q0 26 2 53zM-87 825q-5 -37 -5 -73q0 -46 8 -90q18 -102 68.5 -190.5t112 -171.5t125 -164t110.5 -169q25 -45 39 -76.5t21 -59.5t12.5 -57.5t11.5 -72.5q78 84 153.5 171t143 179t124 191.5t93.5 208.5q18 53 31.5 106t17.5 107q2 18 2 55t-4 77t-16.5 77.5t-36.5 60.5 q-43 43 -111 50q-24 2 -48 2q-45 0 -93 -8q-74 -13 -144.5 -43t-121.5 -63q41 -57 74.5 -117.5t49.5 -109.5q12 -33 16.5 -68.5t10.5 -70.5q2 -16 -4 -30.5t-16.5 -23t-23.5 -5t-21 21.5q-16 104 -47 197.5t-89 171.5q-23 -10 -33 7t-4 38q-23 25 -46 46t-52 44 q-82 61 -141 61q-10 0 -18 -2q-64 -10 -101 -66.5t-48 -140.5z" />
<glyph unicode="W" horiz-adv-x="1171" d="M-103 734q3 22 18 49.5t46 90.5q27 51 91 79t140 32q13 1 26 0q62 1 122 -15q72 -20 113 -61q20 -23 35.5 -46t27.5 -48q20 25 31.5 40t21 26.5t18.5 19.5t25 21q-4 29 -7 58.5t-7 57.5q0 16 9 30q9 16 21 22q7 4 13 3q5 -1 11 -3q10 -6 14 -27v-52.5t2 -52.5 q54 31 122 31h8q74 -2 148 -26.5t138.5 -66.5t103.5 -87q23 -27 41 -56.5t37 -58.5q43 -61 53 -139q5 -41 5 -83q0 -37 -4 -75q-9 -80 -32.5 -157.5t-48.5 -139.5q-35 -82 -94.5 -138t-133 -85t-154.5 -29t-159 33q-35 14 -77.5 32.5t-61.5 53.5q-31 -43 -55 -92 q-12 -23 -22.5 -48.5t-28.5 -45.5q-15 -9 -26 -9h-3q-12 1 -18.5 10t-6.5 23.5t9 26.5l-5 4q-31 41 -76.5 99.5t-98 125t-105.5 138t-97 140.5t-75 129t-37 105q-10 72 -15 105q-3 21 -3 37q0 11 1 19zM-70 733q-3 -17 -3 -35q1 -46 19 -100q26 -74 71.5 -151.5t105 -156.5 t122 -150.5t118 -135t94.5 -110.5l4 -9q23 31 47 72t45.5 82t39 77t25.5 54q27 29 45.5 10.5t8.5 -49.5q-14 -23 -28.5 -42t-29.5 -42q25 2 29 -17.5t-6 -35.5q20 -16 50 -28.5t46 -20.5q82 -33 156 -33q59 0 113 21q122 47 202 190q35 59 55.5 127.5t25.5 139.5q1 21 1 42 q0 50 -8 100q-12 70 -45 132q-33 66 -96.5 124t-140 94t-159.5 42q-11 1 -22 1q-71 0 -133 -34q-4 -2 -6 -4t-6 -4q4 -119 12 -226.5t33 -189.5q12 -8 14 -27q0 -8 -2 -14q0 -14 -7 -25.5t-17.5 -16.5t-21.5 -2t-19 19q-14 41 -14.5 90.5t-4.5 92.5q-4 66 -9 131t-13 131 q-16 -16 -28.5 -35.5t-33.5 -48.5q-6 -4 -12 -6t-10 -4q10 -35 14 -71t8 -71q0 -14 -8 -26.5t-18.5 -17.5t-21.5 -1t-19 21q-2 43 -7.5 89t-18.5 87t-38 76.5t-66 60.5q-52 33 -122 36h-16q-62 -1 -120 -21q-66 -24 -114.5 -69.5t-59.5 -111.5z" />
<glyph unicode="X" horiz-adv-x="1089" d="M-236 127q10 76 53.5 122t101.5 76.5t124 51t121 45.5q-39 14 -59.5 23.5t-40 22.5t-49 37.5t-85.5 69.5q-66 53 -77 128q-3 22 -3 43q0 53 19 106q27 74 81 134.5t120 82.5q34 13 67 13q27 0 53 -9q31 -10 69 -37.5t76 -65.5t72.5 -81t61.5 -84q45 66 124 107.5 t159 53.5q30 5 58 5q47 -1 90 -13q69 -20 93 -77q10 -23 19.5 -46.5t17.5 -46.5q10 -27 10 -62.5t-10 -71.5t-30.5 -67.5t-47.5 -49.5q66 -43 112 -114t69 -130q14 -41 26 -105q10 -52 10 -104q0 -14 -1 -26q-3 -64 -29.5 -116.5t-89.5 -66.5q-13 -3 -28 -3q-25 0 -59 8 q-52 14 -110.5 38.5t-117 54t-105.5 54.5q-14 -37 -34 -79t-45.5 -78t-57 -61.5t-72.5 -31.5q-24 -2 -53 -2t-65 2q-71 4 -146.5 19.5t-149.5 43t-131 68.5t-89 95q-24 41 -24 92q0 15 2 32zM-193 127q-4 -17 -3 -32q0 -36 18 -68q28 -45 75.5 -78t100.5 -54.5t92 -33.5 q116 -35 192 -42q18 -2 33 -2q55 1 97 19q54 24 90.5 77.5t68.5 143.5q-4 2 -6 4t-6 5q-18 10 -28.5 23t-26.5 24q-12 2 -19.5 14t-3.5 35q0 2 2 4q8 16 18.5 24.5t28.5 4.5q23 -10 34 -30t30 -32l8 -4q16 16 34.5 5t14.5 -38q43 -29 100.5 -62.5t114.5 -61.5 q58 -26 106 -42q32 -10 53 -11q11 0 19 3q51 18 71 60.5t20 93.5t-13.5 103t-27.5 87q-18 45 -45 87t-63 76t-80 55.5t-95 25.5q-12 1 -23 1q-29 0 -56 -7q-38 -10 -79 -15q-20 0 -27.5 11.5t-5 26t12.5 26.5t26 14q31 2 64 5t63 6q4 16 17.5 29.5t34.5 8.5l73 -24 q43 23 63 70q18 43 17 88v9q-2 50 -28.5 93t-75.5 61q-37 12 -81 12q-12 -1 -26 -1q-60 -4 -116 -28t-101 -63.5t-61 -91.5q4 -10 7 -20t7 -21q2 -16 -4 -30.5t-16.5 -22.5t-23.5 -5t-21 22v2q-25 4 -25 34q0 6 1 11.5t3 11.5q-18 43 -50 90t-69 90t-74.5 76t-68.5 45 q-22 8 -45 8t-49 -8q-39 -14 -80 -48t-64 -69q-37 -60 -36 -117q0 -58 28 -108q28 -49 74.5 -90t101.5 -68q33 -16 68 -29.5t70 -23.5q25 25 55 43q29 6 35 -12.5t-2 -40.5q0 -2 -1 -4t-1 -4q-2 -2 -2.5 -3t-2.5 -4l19 -6q25 -18 14.5 -46.5t-43.5 -28.5q-20 8 -36.5 15 t-32.5 13q-14 -12 -29.5 -22.5t-36.5 -16.5q-49 -18 -106.5 -31.5t-109.5 -36t-93 -59.5t-56 -100z" />
<glyph unicode="Y" horiz-adv-x="970" d="M-182 558q0 83 19.5 160t59.5 140.5t99 99.5q35 23 68.5 50.5t74.5 38.5q70 18 154 31q44 8 84 8q38 0 73 -6q72 -13 123.5 -61t57.5 -151v-4q27 10 55.5 22.5t58 19.5t59.5 5t58 -18q25 -14 52.5 -26.5t43.5 -35.5q20 -23 42 -44t32 -50q16 -43 31.5 -92t22.5 -99 q5 -27 5 -53q0 -24 -3 -47q-7 -49 -33 -94q-16 -31 -35 -61.5t-37 -61.5q-20 -35 -52 -64.5t-73 -41.5q0 -49 -16.5 -94t-50.5 -78q-76 -68 -169 -101q-82 -30 -174 -30h-22q-43 2 -78 33.5t-58.5 77.5t-32.5 99q-4 24 -4 47q0 25 5 48q-44 -11 -88 -11q-19 0 -38 2 q-64 7 -128 46q-61 37 -103 99.5t-62.5 138t-20.5 158.5zM-137 624q-1 -10 -1 -21q0 -32 5 -66q6 -45 14 -103q8 -61 43 -111.5t84 -84t108 -48.5q34 -9 68 -9q26 0 52 5q51 10 96 33t88 51q18 10 30.5 5t16.5 -17t-1 -27.5t-20 -25.5q-23 -14 -46 -25.5t-46 -21.5 q-8 -14 -16 -21l-4 -4q-2 -2 -4 -5t-4 -5q-10 -16 -11.5 -42t1.5 -52.5t11.5 -51t18.5 -40.5q41 -55 102 -67q27 -6 55 -6q36 0 72 9q53 14 104.5 44t86.5 71q25 31 34 72q5 22 5 44q0 20 -4 39q-8 41 -34 72t-69 37q-16 6 -20 20.5t1 27.5t18.5 22.5t29.5 5.5 q47 -12 78 -49t43 -84q39 6 73.5 41.5t61.5 82t42 93.5t19 75q2 15 2 31q0 48 -14 100q-18 70 -58 124.5t-98 83.5q-38 18 -82 18q-24 0 -51 -6q-29 -6 -53 -20.5t-51 -26.5q-8 -4 -18 -5q-12 -37 -33 -73.5t-45.5 -71.5t-50 -67.5t-46.5 -61.5l35 5t40.5 3t38 -5t30.5 -17 q16 -25 -0.5 -51.5t-46.5 -14.5q-12 12 -34 14.5t-45.5 0t-45 -6.5t-33.5 -4q-27 0 -30 19.5t7 38.5q20 37 63.5 89t83.5 108.5t63 111.5q14 31 14 58q0 21 -8 40q-29 70 -82.5 104.5t-119.5 40.5q-17 2 -35 2q-49 0 -99 -12q-70 -18 -134.5 -53t-116.5 -82t-79 -98t-37 -94 t-12 -85z" />
<glyph unicode="Z" horiz-adv-x="837" d="M-72 646q0 89 35 192q23 59 56.5 115.5t84.5 97.5q44 35 96 47q48 11 97 11h8q53 -1 108.5 -9t106.5 -15q37 -4 80 -11t81 -21.5t68.5 -40t45.5 -64.5q41 -37 57 -101.5t16 -135t-14.5 -138t-34.5 -110.5q-14 -33 -35.5 -61.5t-46.5 -55.5q76 -44 111 -110 q34 -64 34 -134q0 -74 -32 -152q-31 -75 -86 -138q-14 -16 -38 -16h-2q-26 0 -53.5 9t-54 21t-41.5 18q-43 18 -83.5 35t-79.5 27t-75 13q-7 1 -14 1q-28 0 -55 -10h-2l-4 -2q8 -16 -2 -35.5t-27 -28.5q-25 0 -50 -2t-52 4q-51 12 -74.5 54.5t-25.5 93.5v14q0 44 11 88 q13 51 36 82q31 41 55.5 68.5t50.5 46.5q-80 20 -138 70.5t-88 122t-30 160.5zM-22 763q-6 -39 -6 -78q0 -53 12 -109q22 -94 86 -156q54 -52 124 -64q37 -6 76 -7q33 0 66 5q8 2 15 4t16 4q-10 64 -10 127q0 45 5 91q13 106 29 217q8 14 19.5 21t21.5 5t17.5 -12t5.5 -29 q-18 -55 -33 -106q-14 -52 -18 -102q-2 -17 -2 -35q0 -33 6 -66q8 -51 32 -108v-3q12 -12 5 -35.5t-29 -33.5q-53 -12 -99 -12q-66 -10 -118 -35t-93 -90q-14 -25 -24 -63q-8 -32 -8 -63v-12q2 -38 19.5 -68t60.5 -36q18 -4 37.5 0t37.5 8q-4 14 2.5 31.5t22.5 28.5 q34 14 69 14q10 0 20 -1q46 -5 92 -22.5t89 -40t78 -38.5q6 -4 26.5 -13.5t45.5 -18.5q24 -8 46 -14q10 -3 17 -4q8 0 11 4q41 37 65.5 94.5t26.5 117.5v11q0 55 -20 106q-22 56 -72 91q-39 25 -68 27q-18 -16 -44 -36.5t-48.5 -41t-39 -40t-16.5 -32.5q-4 -14 -15 -23 t-22.5 -10t-20.5 7t-9 26q12 53 51 86t82 62h-4q-20 0 -27.5 11t-5.5 25.5t12.5 27t26.5 14.5q23 0 48.5 3t47.5 -5q74 73 102 155q21 61 22 137q0 27 -3 56q-2 29 -6 57.5t-13.5 53t-25.5 43t-47 28.5q-16 6 -19.5 20.5t1.5 26.5q-25 25 -67 40t-86 26.5t-86 17.5t-67 10 q-47 6 -109 14q-21 3 -40 3q-37 0 -68 -10q-86 -33 -138 -112t-68 -172z" />
<glyph unicode="`" horiz-adv-x="591" d="M55 1210q2 25 20.5 45.5t46.5 35t46 14.5q23 0 54.5 -19.5t63 -44t61.5 -46.5t46 -26q25 -18 14.5 -46.5t-42.5 -28.5q-6 0 -13 6h-2q-72 10 -139.5 18t-128.5 49q-29 18 -27 43zM98 1225q23 -35 71 -44.5t99 -9.5q-27 25 -54.5 46.5t-51 33t-41 7.5t-23.5 -33z" />
<glyph unicode="a" d="M-52 768q-1 3 -1 7q0 12 8 26q145 201 323 220q18 2 36 2q160 0 327 -151q37 -35 58.5 -79.5t33.5 -95t18.5 -102.5t12.5 -97q6 -46 11 -96q3 -32 3 -62q0 -19 -1 -37q-3 -49 -18.5 -95t-51.5 -83q-23 -20 -47.5 -33.5t-52 -23t-56.5 -16.5t-55 -17q-35 -14 -69 -25.5 t-69 -21.5q10 -49 23.5 -97.5t28.5 -93.5q2 -16 -4 -30.5t-17 -22.5q-7 -6 -16 -6q-3 0 -7 1q-14 3 -22 21q-10 55 -15 110.5t-10 109.5l-55 -7q-45 0 -86 13.5t-79 35t-72.5 49t-65.5 56.5q-10 12 -10 28.5t8 29t21.5 16.5t27.5 -8q55 -53 118.5 -100.5t143.5 -53.5 q20 -4 43 0q-4 20 -4 31q-9 80 -15 156q-1 17 -1 33q0 59 18 120q8 18 21.5 24.5t24 1t15.5 -19.5t-1 -33q-31 -72 -34 -150q-1 -16 -1 -32q0 -63 10 -127q35 6 67.5 18.5t71.5 24.5q49 16 102.5 27.5t94.5 48.5q31 29 44 69.5t16 84.5q1 16 1 33q0 27 -3 55q-5 44 -11 81 q-10 96 -32.5 185.5t-90.5 163.5q-51 57 -122.5 88.5t-146.5 32.5h-5q-72 -1 -142 -27q-72 -28 -127 -84q-16 -16 -28 -39t-27 -43q-12 -18 -25.5 -20.5t-22.5 5t-12 21.5zM150 688q-2 6 -3 12q-1 8 3 16q6 14 19 22q9 6 19 7q5 0 11 -2q27 -10 47 -29.5t43 -35.5 q16 -14 34.5 -26.5t34.5 -24.5q20 18 40 36.5t42 36.5q18 10 30.5 5t17 -17t-1 -27.5t-19.5 -25.5q-33 -12 -66 -37q57 -37 123 -68q14 -10 16 -26q1 -4 1 -8q-1 -10 -5 -19q-6 -12 -19 -18t-32 0q-29 25 -58.5 52.5t-61.5 55.5q-35 -31 -64 -64.5t-63 -68.5 q-14 -10 -25 -10q-3 0 -5 1q-12 3 -18 13.5t-4 26.5t15 29q37 20 67.5 45.5t59.5 54.5q-37 29 -77 48.5t-81 25.5q-16 6 -20 20z" />
<glyph unicode="b" horiz-adv-x="643" d="M-78 77.5q0 16.5 8.5 29t21.5 16.5t28 -8q39 -47 80.5 -94.5t91.5 -84.5q52 -36 112 -58q48 -18 105 -18q15 0 32 1q119 9 166 75q35 50 35 123q0 25 -4 54q-4 20 -11 45.5t-22 44.5q-23 -12 -51.5 -16.5t-52.5 -14.5q-18 0 -25.5 9t-7.5 22.5t7 26t20 18.5 q29 10 57.5 13t50.5 20q53 35 82 96t37 136q3 30 3 61q0 46 -7 92q-12 78 -40 149.5t-72 124.5t-99 76q-68 28 -121 28q-14 0 -28 -2q-62 -10 -113 -43.5t-100.5 -79.5t-110.5 -83q-18 -8 -28.5 -2t-12.5 17t1 25.5t13 24.5q68 37 123 83t112.5 78t125.5 38q9 1 17 1 q61 0 140 -36q57 -27 100.5 -76t74 -112.5t47 -137t19.5 -145.5q1 -14 0 -29q0 -57 -9 -111q-12 -68 -39 -118q-10 -23 -25.5 -42.5t-31.5 -37.5q37 -50 42 -118q1 -13 1 -27q0 -53 -16 -105q-20 -64 -65.5 -114t-113.5 -62q-55 -10 -104 -10q-31 0 -59 4q-73 10 -135 40 t-119.5 78t-119.5 107q-10 12 -10 28.5zM188 202q0 3 -1 5q-1 11 5 21q6 12 17.5 18t28.5 2q27 -20 37 -48t26 -57q0 -2 1 -3t1 -3q10 8 17.5 17.5t17.5 19.5q18 10 30.5 5t16.5 -17q2 -5 2 -11q0 -9 -3 -17q-5 -16 -19 -25q-8 -2 -14.5 -5.5t-14.5 -7.5q14 -16 23.5 -22 t15.5 -11q8 -14 6 -30.5t-11.5 -26.5t-22.5 -12h-3q-11 0 -22 12q-8 16 -15.5 33.5t-15.5 36.5q-27 -12 -51.5 -16.5t-40.5 14.5q-6 14 -2 30.5t14 25.5t23.5 9.5t23.5 -18.5v-2h12q-14 23 -30 38t-41 19q-9 12 -11 26zM264 279q14 47 20 81q3 13 3 28q0 24 -6 52 q4 14 14 26q11 11 21 15q4 2 8 2q6 0 11 -4q9 -6 13 -26q-18 -66 -19 -103t3 -59q0 -16 -11.5 -28.5t-23.5 -15.5q-4 -1 -8 -1q-9 0 -15 4q-10 6 -10 29z" />
<glyph unicode="c" horiz-adv-x="661" d="M-94 262q4 17 14 26t23.5 9t23.5 -18q33 -70 81 -143t110 -127q61 -53 139 -77q34 -10 70 -11q48 0 100 18q61 20 105 65t73 105.5t43 131t19 144.5q-35 3 -70 3q-67 0 -131 -10q-98 -16 -158 -65q-31 -20 -45 -2q-18 4 -18 33q14 84 15 163t11 157q8 14 19.5 21t21.5 5 t17.5 -12t5.5 -29q-23 -61 -27 -125q-2 -32 -2 -65t2 -66q72 33 152 33t159 -2h48q0 78 -11.5 151.5t-29.5 126.5q-16 47 -33 80t-38.5 57.5t-50 46t-71.5 46.5q-33 20 -87 23q-14 1 -27 1q-41 0 -85 -7q-58 -9 -108.5 -28.5t-79.5 -43.5q-25 -23 -28 -42.5t-11 -52.5 q-6 -18 -18.5 -26t-23.5 -6t-18 14t-3 33q10 37 22 75.5t47 61.5q39 25 99 46q58 20 122 32q44 8 87 9q19 0 37 -2q60 -5 102 -32q43 -27 74.5 -51.5t55 -53t41 -65.5t34.5 -86q20 -59 31.5 -140t11.5 -167q74 -2 146.5 -5t145.5 -20q18 -13 18 -31q0 -8 -4 -16 q-10 -28 -42 -28q-51 16 -120 31.5t-147 25.5q-4 -70 -16 -131.5t-35 -106.5q-20 -39 -40.5 -75.5t-41.5 -75.5q-20 -35 -57 -54.5t-72 -43.5q-44 -34 -101 -34h-4q-60 1 -118.5 22.5t-112 55t-86.5 64.5q-51 47 -85.5 108.5t-67.5 120.5q-4 8 -4 18q0 6 2 13z" />
<glyph unicode="d" horiz-adv-x="905" d="M-45 922q4 32 36 53.5t80 33t89 19.5q20 4 45.5 15.5t52.5 20.5q28 9 54 12q6 1 11 1q20 0 37 -8q37 -16 51.5 -54t18.5 -81q31 27 75 45t81 31q41 12 84 12q22 0 44 -3q68 -9 125.5 -41t96.5 -86t43 -124q2 -37 3 -73t3 -72v-15q0 -30 -6 -64q-8 -42 -20.5 -85 t-26.5 -84t-27 -74q-41 -129 -104.5 -225t-146.5 -140q-61 -32 -131 -33q-26 1 -54 5q-102 16 -221 115q-68 57 -122 124.5t-101 141.5q-6 14 -2 30.5t14 25.5t23.5 9t23.5 -18q43 -72 92 -137.5t113 -122.5q132 -121 247 -121q19 -1 38 3q131 24 231 206q35 63 65.5 136 t50 148.5t24.5 152.5q1 18 1 36q0 58 -12 115q-25 106 -86.5 152t-135.5 52q-12 1 -24 0q-62 0 -120 -22q-70 -27 -111 -66q4 -8 6 -14q4 -20 -8.5 -43t-30.5 -18q-16 -18 -36.5 -18.5t-20.5 34.5q0 12 5 36.5t6 53.5t-3 57.5t-19 51.5q-12 16 -60 11t-104.5 -20.5 t-107.5 -37t-66 -35.5q8 -4 14.5 -10.5t12.5 -10.5q16 -25 0 -51.5t-47 -13.5q-43 45 -43 76v6zM431 574q0 11 5 22q6 12 18 18q6 4 14 4q6 0 13 -2q18 -16 22.5 -40.5t2.5 -53t-6 -56.5t-4 -48q0 -31 4 -62.5t8 -62.5q0 -16 -11.5 -28.5t-23.5 -15.5q-4 -1 -8 -1 q-9 0 -15 4q-10 6 -10 29q10 66 18 132q2 16 1 32q0 50 -17 100q-11 13 -11 29z" />
<glyph unicode="e" horiz-adv-x="690" d="M-39 176q0 17 8 29t21.5 16t27.5 -8q45 -47 99.5 -92t114 -82t124 -61.5t131.5 -30.5h11l67 10q39 12 72 35q75 54 101 152q21 80 21 165q0 20 -1 41q-29 -4 -58.5 -8t-58.5 -8q-35 -6 -73 -14.5t-76 -12.5q-23 -2 -45 -2q-14 1 -29 1q-37 2 -72 18q-10 12 -11 25t5 25.5 t17.5 18.5t27.5 2q29 -17 71 -25q32 -6 67 -6h24q49 2 102 10.5t105 18.5q-4 27 -8.5 52.5t-8.5 52.5q-43 -2 -87 -2q-32 0 -64.5 1t-64.5 1q-43 0 -87 -2q-18 -4 -38.5 -4t-39.5 -9q-12 -23 -37.5 -23.5t-25.5 34.5q10 35 31.5 49t49 15t59.5 -3t63 -6q62 -3 109 -3h23 q54 1 95 5q-29 100 -66 164q-25 43 -53.5 82t-66.5 67q-37 29 -82 42.5t-88 29.5q-19 7 -47 7q-14 0 -30 -2q-48 -5 -96.5 -23.5t-85 -47t-45.5 -63.5q-6 -18 -18 -26.5t-23.5 -6.5t-18.5 14.5t-3 32.5q16 59 58 96t96 57q56 22 116 26q24 2 46 2q35 0 67 -5q49 -4 91 -30.5 t87 -48.5q25 -12 42.5 -31t31.5 -42.5t27.5 -48t29.5 -44.5q31 -41 49.5 -91.5t26.5 -103.5q29 6 54.5 13.5t54.5 17.5q20 4 29 -5.5t9 -22.5t-9 -27.5t-23 -20.5q-55 -10 -107 -12q2 -25 4 -49.5t4 -49.5q53 12 98.5 23.5t80.5 19.5q18 -4 23 -14q4 -7 4 -16q0 -2 -1 -6 q-2 -12 -11 -23.5t-22 -17.5q-41 -4 -84 -7.5t-84 -7.5q1 -17 0 -34q0 -93 -18 -178q-22 -101 -111 -189q-16 -16 -37.5 -24.5t-44 -14.5t-47 -10t-47.5 -13q-20 -6 -42 -6q-37 -1 -81 15q-72 26 -145.5 69t-139 94.5t-104.5 85.5q-10 12 -10 29z" />
<glyph unicode="f" horiz-adv-x="632" d="M-51 764q10 39 33.5 70.5t54.5 57.5t66.5 45t70.5 38q82 41 168 78t182 37q27 0 55.5 -11.5t54 -30t48.5 -41t35 -44.5q29 -45 58.5 -87t49.5 -90q27 -66 31 -119q1 -12 1 -25q0 -39 -10 -76q-13 -48 -43 -93t-71 -94q-23 -25 -49 -37q12 -27 18.5 -55.5t3 -55t-18.5 -50 t-46 -42.5q-37 -20 -68 -22q-4 -20 -7 -39t-13 -35q-31 -57 -78 -79q-40 -18 -86 -18q-9 0 -17 1q-57 4 -116 28.5t-112.5 58.5t-97.5 73.5t-69 72.5q-6 14 -1.5 30.5t14.5 26t23.5 9.5t23.5 -19q14 -25 22.5 -39t17.5 -26t21.5 -24.5t34.5 -33.5q29 -23 83 -54.5t112 -47.5 q35 -10 67 -10q20 0 39 4q49 10 70 72q4 14 6 29.5t4 31.5q-12 2 -14 16.5t-4 12.5q0 23 15 39t32 12q14 8 27.5 1t13.5 -34q20 -6 40.5 2t30 25.5t3.5 43t-37 58.5q-2 2 -3 6q-2 -2 -4 -2q-31 -16 -70 -23q-24 -4 -47 -4q-13 0 -26 1q-59 10 -86 13t-43 11t-37.5 23.5 t-73.5 50.5q-10 12 -11 25.5t5 25.5t17.5 18.5t27.5 2.5q27 -18 50.5 -40t52.5 -38q57 -27 121 -27q11 0 22 1q76 5 141.5 40t110.5 94.5t47 137.5v19q0 41 -7 73q-9 39 -26.5 72.5t-42 67.5t-53.5 79q-37 57 -86 80q-45 20 -95 20h-9q-54 -2 -110 -21.5t-107 -45.5 q-20 -10 -63.5 -33t-86.5 -51.5t-77 -59t-36 -57.5q-4 -14 -15 -23.5t-22.5 -10.5t-20.5 7t-9 27z" />
<glyph unicode="g" horiz-adv-x="704" d="M-35 829q10 74 55.5 105t108.5 57q41 16 96.5 32.5t112.5 20.5q14 2 27 2q43 0 85 -12q54 -14 93 -57q31 -35 68.5 -65.5t54.5 -73.5q35 -80 58.5 -148.5t35.5 -132.5q16 4 33.5 7t33.5 7q18 -4 23 -14q5 -7 5 -16q0 -3 -1 -7q-2 -12 -11 -23t-22 -17q-14 -2 -26.5 -2 h-24.5q3 -29 3 -59q0 -61 -11 -123q-17 -91 -64 -204q-10 -27 -36.5 -48t-58.5 -36.5t-66.5 -23.5t-61.5 -8q-88 0 -158.5 12t-131 41t-111.5 78t-101 123q-6 14 -2 30.5t14.5 25.5t24 9t23.5 -18q16 -27 25.5 -42.5t18.5 -27.5t22.5 -26.5t35.5 -34.5q72 -66 162 -106 q79 -35 154 -35q11 0 21 1q85 5 153.5 63t97.5 187q15 65 15 134q0 21 -1 42q-2 10 -2 21.5t-2 21.5q-92 -4 -183 -11t-183 -15q18 -23 36.5 -49.5t36 -52t29.5 -45t16 -25.5q2 -12 -2 -26.5t-13 -24t-20.5 -10.5t-23.5 14q-6 18 -14.5 49t-21.5 60.5t-32.5 52t-46.5 28.5 q-4 -2 -6 -4t-6 -4q-27 -10 -36 3t-5 34q-16 14 -6 39.5t37 29.5q62 -4 123 -4q48 0 96 2q106 7 217 23q-12 68 -36.5 134.5t-59.5 119.5q-53 80 -102.5 118t-103.5 47q-22 4 -45 4q-34 0 -72 -8q-64 -14 -146 -34q-41 -10 -81 -33.5t-46 -71.5q-4 -14 -15.5 -23t-22.5 -10 t-20.5 7t-9.5 26z" />
<glyph unicode="h" horiz-adv-x="864" d="M-82 221.5q0 16.5 8 28.5t21.5 16t27.5 -8q45 -53 90.5 -102.5t95.5 -81.5q51 -34 111 -44q16 -3 33 -2q47 0 101 21q16 6 32.5 10t28.5 15q-12 12 -7 31.5t21 29.5q1 18 1 35q0 36 -5 72q-8 54 -12 108q0 23 16.5 41.5t32.5 11.5q14 6 29 5q17 -13 32 -13q16 0 56 31 q20 4 29.5 -5t9.5 -22.5t-9.5 -28t-23.5 -20.5q-29 4 -53.5 -4t-51.5 -12q0 -62 2 -112v-23q0 -36 -4 -64q33 -12 65 -31.5t63.5 -33t64.5 -15.5h5q31 0 65 23q51 33 82.5 92t46.5 129q16 69 17 145v13q0 69 -10 131q-11 68 -34 122t-51 81q-41 39 -77 69.5t-72 42.5 q-17 6 -35 6t-38 -7q-38 -13 -85 -60q-4 -4 -13 -8q6 -20 7 -49t-1 -59t-5 -58.5t-5 -46.5q29 -10 47.5 -6.5t59.5 18.5q18 -4 24 -16.5t2 -25.5t-16 -24.5t-29 -11.5q-2 2 -7 3t-3 1h4q-20 2 -32.5 4t-23.5 1t-23.5 -5t-33.5 -10q-2 0 -3 1t-3 1q-14 -4 -24 3t-10 30 q0 41 7 65.5t15 46.5q8 20 11 46q1 7 1 16q0 22 -6 51q-12 72 -54 112q-41 40 -95 52q-24 5 -50 5q-31 0 -64 -8q-60 -14 -110 -50q-41 -29 -65.5 -61t-56.5 -73q-33 -23 -46.5 0t1.5 52q25 27 39 43t27 28.5t29.5 24.5t47.5 35q52 37 112 50q36 8 70 7q24 0 46 -3 q56 -9 106.5 -42t81.5 -84l4 4q29 25 62.5 51.5t74.5 28.5h7q42 1 87 -21q49 -24 92 -62t76 -85t45 -90q27 -84 33 -177q2 -27 2 -54q-1 -66 -11 -132q-14 -92 -50.5 -177t-98.5 -150q-39 -41 -78 -45q-10 -1 -20 -1q-29 0 -59 9q-40 12 -79.5 32.5t-78.5 30.5 q-23 -35 -76 -52t-154 -25h-8q-26 0 -60 11q-38 13 -65 25q-61 33 -112.5 80t-100.5 95q-10 12 -10 28.5z" />
<glyph unicode="i" horiz-adv-x="624" d="M-72 256q2 14 12.5 26.5t26.5 14.5q35 -4 61.5 12.5t65.5 38.5q-8 41 -8 103.5t16 111.5q-22 2 -49 -16q-20 0 -27.5 11t-5 25.5t12.5 27t26 14.5q23 -10 42.5 -6t41.5 14q2 0 3 -1t4 -1q14 2 23 -5.5t10 -19.5t-4 -25.5t-17 -21.5q-23 -10 -29 -35.5t-4 -54.5 t11.5 -56.5t19.5 -41.5v-21q8 -14 -3.5 -33.5t-27.5 -27.5q-25 2 -46.5 -5.5t-40.5 -18.5t-38.5 -24.5t-42.5 -21.5q-19 -1 -27 11q-6 9 -6 20v6zM-27 883q6 27 34 53.5t62.5 47t68.5 33.5t50 15q35 4 70 10q27 5 54 5h16q55 -2 119.5 -18.5t120 -49.5t93 -82t37.5 -117 q0 -33 -16 -62.5t-31 -58.5q-16 -35 -47 -55t-63 -41q-4 -29 -15.5 -57.5t-25.5 -56.5q20 3 41 3t43 -3q43 -6 76.5 -29t54 -55.5t24.5 -73.5q1 -7 1 -14q0 -34 -17 -66q-14 -29 -23.5 -60.5t-33.5 -54.5q-55 -49 -104.5 -80.5t-101.5 -51t-112.5 -29t-136.5 -15.5 q-13 -1 -26 -1q-56 1 -102 15q-56 18 -97 70q-6 12 -4 27.5t10 26t20.5 12.5t26.5 -9q31 -47 78 -60t100 -17q29 -2 58 -2q58 0 117 8q89 12 163 59q25 16 47.5 34.5t38.5 41.5q55 76 57 129v6q0 49 -32 78q-34 31 -96 38q-15 2 -30 2q-47 0 -98 -16l-2 -6v4 q-10 -20 -26.5 -24t-26.5 6q-16 -4 -24.5 5t-8.5 22.5t7.5 27t19.5 21.5q12 4 24.5 8t24.5 8l4 4q16 16 33.5 41t28.5 53q-27 -6 -33 21t14 49q2 2 3 2t3 2q-12 16 -41 29q-10 12 -11 25.5t5 25.5t17.5 18.5t27.5 2.5q37 -29 54 -68q20 12 38.5 25.5t34.5 29.5q31 30 38 62 q3 14 3 28q0 18 -5 36q-9 32 -31.5 59.5t-51.5 48.5q-55 39 -121 56q-51 13 -101 13q-15 0 -31 -1q-66 -5 -128.5 -29.5t-113.5 -67.5q-6 -6 -11 -8q2 -16 -11 -31.5t-34 -15.5q-12 0 -26 8q-10 14 -11 31z" />
<glyph unicode="j" horiz-adv-x="770" d="M-98 143.5q0 16.5 8 28.5t21.5 16.5t27.5 -8.5q57 -47 118.5 -87t126 -66.5t135.5 -38.5q33 -5 68 -5q39 0 80 7q106 16 180 67.5t118 123t59 158.5q7 48 7 96q0 40 -5 80q-12 89 -51 174t-101 153q-41 45 -91 80.5t-109 54.5q-47 14 -120 14t-141.5 -19.5t-122 -60.5 t-63.5 -108v-12l2 -3q10 -10 11 -24t-5 -25.5t-18 -17.5t-27 -2q-2 2 -6 4t-10 8q-14 18 -13 48t7 52q41 117 147 168q78 39 159 51q33 4 66 4q46 0 92 -10q76 -16 147 -58t128 -107q66 -76 105.5 -170.5t51.5 -191.5q4 -37 4 -74q0 -60 -12 -119q-18 -97 -66 -175.5 t-128 -136t-193 -78.5q-60 -11 -115 -11q-24 0 -46 2q-76 7 -145.5 33t-136 67t-134.5 90q-10 12 -10 28.5zM52 561q-3 7 -3 13q0 7 3 14q5 14 18.5 23.5t29.5 4.5q45 -18 86 -29.5t81 -13.5h13q34 0 68 9q41 10 84 34q15 21 29 29q7 1 12 1q23 0 25 -20v-6q0 -22 -15 -38 q-4 -14 -17 -41t-17 -49q-9 -44 -9 -83q0 -19 2 -37q7 -55 27 -118q2 -16 -4 -30.5t-17 -22.5q-7 -6 -16 -6q-3 0 -7 1q-13 3 -22 21q-2 20 -5 57t-4 81v30q0 30 1 61q2 48 11 89q-61 -12 -123 -12q-22 0 -43 1q-84 6 -168 17q-16 6 -20 20z" />
<glyph unicode="k" horiz-adv-x="905" d="M-80 264q0 14 6 27.5t16.5 20.5t21.5 6t22 -17q4 -31 6 -61.5t12 -61.5q18 -55 66 -98q47 -42 105 -64q44 -16 90 -16q15 0 29 1q62 7 109 50q8 8 14.5 15.5t12.5 15.5q-8 25 -10 39t1 29.5t10 39t18 64.5q10 16 23 22.5t24 2.5q16 6 28.5 -3.5t10.5 -35.5 q-14 -59 -20.5 -93t-27.5 -67q4 -10 11 -21q23 -47 64.5 -77.5t88.5 -49.5q54 -21 99 -21q39 0 71 16q67 33 93 101q14 38 15 81q-1 32 -9 67q-20 80 -89 131q-14 10 -26 21.5t-29 15.5q-10 -14 -20.5 -26.5t-20.5 -26.5q-33 -23 -46 -0.5t1 51.5q43 49 101.5 115.5 t103.5 143.5t63 159q5 25 5 49q0 56 -29 109q-8 16 -23.5 25t-29.5 20q-59 -2 -94 -18.5t-61 -45.5t-46.5 -68.5t-50.5 -87.5q-2 -4 -4 -5t-4 -3q6 -40 6 -81q-1 -43 -7 -87q-12 -86 -45 -172q-10 -14 -22 -18t-21.5 0t-14.5 15t-1 30q12 27 21.5 45t15.5 34.5t10 35t8 49.5 q5 36 5 74t-5 79q-4 8 -4 19q-10 59 -31.5 114.5t-58.5 94.5t-91 56q-32 10 -69 10q-27 0 -57 -5q-53 -10 -89 -37.5t-65.5 -63.5t-56 -76t-59.5 -73q-18 -12 -30.5 -9t-17.5 13.5t-3 26.5t14 29q16 16 31.5 37.5t29.5 37.5q53 59 109.5 100.5t134.5 63.5q18 6 45 6t53.5 -4 t50 -13t37.5 -22q115 -96 156 -221q18 33 38.5 62.5t49.5 52.5q29 20 54.5 40.5t56.5 33.5q29 11 54 11q15 0 29 -4q36 -11 60.5 -41t37.5 -70t13 -79q0 -125 -50 -225t-118 -194q12 -10 23.5 -19.5t21.5 -19.5q25 -23 45.5 -42.5t34.5 -49.5q25 -51 25 -120v-10 q-2 -75 -29.5 -140.5t-81.5 -107.5q-43 -34 -101 -34q-14 0 -28 2q-29 4 -57.5 6t-52.5 14q-23 12 -49.5 24.5t-52 28t-46 36t-28.5 49.5l-3 2q-4 -4 -8 -8.5t-8 -8.5q-43 -43 -96 -52q-25 -4 -51 -4q-29 0 -57 5q-56 10 -109.5 34.5t-91.5 51.5q-23 16 -38.5 43t-31.5 49 q-18 27 -21.5 60.5t-13.5 64.5z" />
<glyph unicode="l" horiz-adv-x="649" d="M-37 206.5q0 16.5 8.5 29t21.5 16.5t27 -8q55 -53 99.5 -92t92.5 -65t106 -36q42 -7 96 -7q22 0 45 1q23 2 68.5 16.5t85.5 36.5q39 22 59 54q8 13 9 27q0 19 -17 40q-20 25 -51 31t-60 16q-18 -10 -31.5 2.5t-9.5 34.5q-4 18 5 35.5t26 21.5q37 61 64.5 134t39.5 148 q7 45 7 89q0 29 -3 59q-8 74 -41 142q-35 68 -83 98.5t-102 31.5h-5q-52 0 -106 -22q-56 -22 -108 -59t-95 -83t-70 -91q10 -10 10 -27.5t-10 -34.5l-4 -4q-10 -8 -19.5 -10t-23.5 2q-24 24 -24 51v6q3 30 21.5 59.5t46.5 55t48 43.5q41 37 104 80q64 42 132 66 q55 19 109 19q13 0 27 -1q68 -6 117 -68q41 -47 71 -89t36 -107q4 -39 7 -67.5t4 -54.5t0 -54.5t-7 -69.5q-10 -74 -31.5 -140.5t-56.5 -131.5q31 -14 65.5 -24.5t49.5 -45.5q14 -34 14 -63q0 -25 -9 -45q-20 -46 -62 -76.5t-97 -48t-104 -23.5q-45 -4 -83 -4q-34 0 -64 3 q-62 7 -116.5 29.5t-105.5 59.5t-113 86q-10 12 -10 28.5z" />
<glyph unicode="m" horiz-adv-x="696" d="M-44 734q-1 3 -1 6q0 12 8 26q45 66 95.5 118t117.5 93q88 51 152 67q31 8 61 9q29 1 57 -9q54 -18 103 -65t108 -123q105 -134 141 -282q16 -64 15 -131q0 -89 -27 -183q-35 -117 -110.5 -193.5t-175.5 -86.5q10 -59 24.5 -123t34.5 -146q2 -16 -4 -30.5t-16.5 -22.5 t-23.5 -5t-21 21q-10 78 -18.5 153t-18.5 153q-10 0 -21.5 1t-21.5 3q12 -92 30 -193v-4v2v2v-6q0 -2 1 -3t1 -3l7 -31q2 -6 0 6.5t-7 22.5q8 -23 13.5 -47.5t11.5 -48.5q2 -16 -4 -31q-7 -15 -17 -23q-8 -6 -16 -6q-3 0 -7 1q-13 3 -21 22q-12 90 -21.5 178t-19.5 176 q-27 8 -62 29q-78 45 -144.5 96t-133.5 110q-10 12 -10.5 29t8 29t21.5 16t28 -8q61 -59 123.5 -115.5t138.5 -97.5q4 -4 10 -6t10 -6q-10 86 -23.5 169t-31.5 169q0 16 9 30.5t21.5 20.5t22.5 1t15 -28q10 -98 18 -192t18 -189q10 -4 21.5 -6t21.5 -4q-8 66 -15 130.5 t-13 129.5q0 16 9 30.5t21.5 20.5t22.5 1t14 -27q-3 -61 -3 -112q0 -26 1 -49q2 -69 9 -128q55 0 102 23.5t82 65.5t59.5 99.5t34.5 124.5q8 55 8 102q0 20 -1 38q-5 62 -24.5 118t-52 106t-75.5 101q-18 25 -41 53.5t-48.5 53t-55 43t-62.5 24.5q-4 -61 -6 -115 q-1 -27 -1 -52.5t1 -51.5q2 -51 9 -104.5t21 -114.5q0 -14 -8 -26.5t-18 -17.5t-21.5 -1t-19.5 20q-4 117 -8.5 232t-14.5 229q-49 -10 -94 -34.5t-84 -53.5l-2 -2q-47 -41 -84 -80t-72 -94q-12 -18 -25.5 -20t-22.5 5.5t-12 21.5z" />
<glyph unicode="n" horiz-adv-x="712" d="M-51 276q0 16 9 31t21.5 21t22.5 1t14 -28q8 -57 21.5 -111.5t44.5 -105.5q43 -70 113.5 -112t148.5 -52q-12 100 -16 201.5t-9 204.5q0 41 -3 82q-1 14 -1 27q0 27 4 52v2q2 12 12.5 22.5t20.5 13.5t19.5 -2t13.5 -23v-15q0 -12 -6 -18q-6 -49 -9 -115q-2 -40 -2 -83 q0 -28 1 -58q2 -74 8 -150.5t20 -144.5h2q-2 4 -3 12.5t-3 12.5q2 -6 4 -12.5t4 -12.5q74 2 143.5 33t123.5 96q35 43 55 95.5t33 105.5q20 80 22 174v21q0 83 -14 166q-16 93 -55 177t-101 146q-23 23 -47 38t-53 27q-43 -135 -49 -277q-1 -22 -1 -46q0 -125 27 -279 q0 -14 -8 -26.5t-18 -17.5t-21.5 -1t-19.5 21q-9 93 -9 180q0 77 7 149q14 156 59 308q-50 15 -104 15q-13 0 -25 -1q-68 -4 -128 -28.5t-108.5 -67.5t-72.5 -103q-10 -14 -22.5 -18t-21.5 0t-14.5 15t-1.5 30q14 33 37 66.5t52.5 61.5t65.5 47t73 26q31 4 63.5 16 t65.5 21.5t63.5 10.5t57.5 -16q10 -6 18 -11t19 -9q29 92 70.5 183t92.5 188q16 18 30 18q9 0 15 -8q18 -19 9 -49q-121 -188 -185 -351q49 -25 82 -45t59.5 -48.5t49 -71.5t47.5 -113q23 -61 39 -128q13 -54 13 -106q0 -13 -1 -26q-4 -43 -6 -111.5t-13.5 -142.5 t-35 -139.5t-66.5 -98.5q-23 -18 -43 -38.5t-41.5 -41t-45 -36t-52.5 -21.5q-49 -10 -94 -12q4 -16 9 -29.5t9 -30.5q2 -16 -4 -30.5t-16 -22.5q-8 -6 -17 -6q-3 0 -7 1q-13 3 -21 22q-4 25 -9.5 48t-9.5 46q-172 10 -272.5 120.5t-128.5 294.5zM393 -59v2l-1 3z" />
<glyph unicode="o" horiz-adv-x="649" d="M-51 725v8q0 23 9 43q11 24 29.5 47t39 42.5t39.5 35.5q68 57 142 80q50 15 100 15l50 -4q74 -12 144.5 -51.5t128.5 -102.5q77 -86 109 -199q21 -76 22 -152q0 -37 -6 -75q-16 -114 -78 -212t-172 -153q-29 -14 -61.5 -23.5t-67.5 -19.5q-19 -6 -40 -6q-14 0 -28 3 q-35 7 -69 9q-41 2 -77 22.5t-68 49.5t-59.5 60.5t-51.5 56.5q-10 12 -10.5 28.5t8 28.5t21.5 16t28 -8q31 -35 54.5 -63.5t48 -51t54 -41t74.5 -32.5q55 -17 104 -17q51 0 95 18q88 36 148.5 110.5t90.5 172.5q25 82 26 161q0 15 -1 30q-4 68 -38 133.5t-87 118.5 t-118.5 89t-131.5 46q-29 4 -49 3t-38.5 -5t-37 -11t-43.5 -16q6 -4 -5 -6t-15 -6q-16 -10 -21.5 -14.5t-23.5 -20.5q-57 -45 -94 -102q10 -20 -2.5 -41t-38.5 -21q-2 0 -4.5 1t-6.5 1q-14 6 -22 25zM318 484q-1 4 0 7q0 12 8 25q20 23 40.5 52.5t43.5 60.5q-27 16 -68 20 q-16 6 -20.5 20.5t1 28t18.5 22.5t30 5q35 -16 71 -53q39 51 84 76q6 1 11 1q13 -1 19 -7q10 -10 9.5 -22.5t-9.5 -27t-24 -20.5q-37 -6 -63 -33q27 -33 50.5 -67.5t49.5 -63.5q1 -4 1 -8q0 -8 -3 -18q-4 -14 -13 -24q-8 -8 -20 -10q-1 0 -3 -1q-10 0 -21 14 q-16 35 -31.5 72.5t-40.5 66.5q-18 -29 -32.5 -62.5t-26.5 -60.5q-12 -18 -25.5 -20t-22.5 5.5t-13 21.5z" />
<glyph unicode="p" horiz-adv-x="759" d="M-78 766q10 33 21.5 60.5t40.5 50.5q45 35 120.5 73.5t159.5 66t165 35.5q17 1 32 1q60 0 104 -23q47 -23 81 -61.5t73 -73.5q29 -27 51.5 -81t37.5 -121.5t22.5 -144.5t7.5 -146.5t-10.5 -128t-28.5 -91.5q-12 -25 -22.5 -52.5t-23 -54t-28.5 -48t-41 -33.5 q-57 -25 -91 -40t-56.5 -23.5t-40 -8.5t-40 7.5t-58.5 20.5t-93 34v-20q0 -55 -9 -106q-11 -61 -41 -92q-22 -22 -55 -22q-12 0 -25 3q-50 11 -128 89q-29 31 -42 71t-20.5 83t-17.5 85t-33 77q-6 14 -1.5 30.5t14.5 25.5t23.5 9t23.5 -18q20 -37 26.5 -79t11.5 -84t13 -83 t31 -76q12 -18 37.5 -40.5t54.5 -34t52.5 -5.5t33.5 43q11 46 11 75q0 9 -1 16q-4 32 -16 73q-16 12 -12 33q-2 8 -4.5 14t-4.5 17q0 14 6.5 27.5t16.5 20.5t21.5 6t21.5 -18q2 -10 2 -17t2 -17q53 -23 105.5 -49.5t109.5 -30.5q8 -1 16 -1q40 0 73 17q40 19 70.5 49.5 t52 69.5t36.5 78q27 74 37 162q6 49 6 97q0 39 -4 78q-8 87 -36 170t-75 148q-29 41 -63.5 74t-81.5 49q-32 11 -77 11q-28 0 -62 -4q-87 -11 -175 -44t-157.5 -83t-85.5 -109q-6 -18 -18.5 -26.5t-24 -6.5t-18.5 14q-4 8 -4 19q0 6 1 14zM174 198q2 17 14 29 q18 14 25.5 18.5t11.5 7.5t12.5 12t30.5 34l13 12l-27 27l-7 7l-7 7q-2 0 -4.5 1t-4.5 1q-16 6 -20 18.5t0 25t14.5 22.5t24.5 12q27 -8 39 -30.5t24 -49.5q25 29 49.5 55.5t61.5 49.5q6 1 11 1q10 0 17 -6q9 -8 10 -20t-4 -25.5t-18 -21.5q-35 -10 -60.5 -27.5t-45.5 -40.5 q4 -4 6 -7t6 -7q29 -25 52.5 -39t56.5 -31q14 -10 16 -25q1 -4 1 -7q0 -11 -5 -21q-6 -12 -19 -18q-7 -3 -15 -3t-17 3q-29 29 -54.5 61.5t-54.5 61.5q-23 -29 -41 -58.5t-41 -58.5q-14 -10 -25 -10q-3 0 -6 1q-12 3 -17 13q-4 7 -4 18q0 4 1 8zM223 367q0 -2 2 -2z" />
<glyph unicode="q" horiz-adv-x="800" d="M-53 98.5q0 16.5 8 28.5t21.5 16t27.5 -8q63 -61 131 -100t137 -49q21 -2 43 -2q48 0 97 15q71 22 143 81q31 18 43 -4.5t-2 -48.5q14 -14 24.5 -25.5t21.5 -19t25.5 -11.5t37.5 -4q37 2 64.5 26.5t39.5 57.5q8 21 8 42q0 13 -3 26q-7 35 -40 57q-43 29 -94 33t-100 8 q-16 6 -20.5 17.5t-1.5 23.5t12.5 22.5t21.5 14.5h2l2 2h8q14 -4 19 -8q16 -4 31.5 -7t31.5 -8q18 37 41 72t33 76q11 41 11 80q0 53 -20 104q-34 88 -103.5 154.5t-161.5 105.5q-87 37 -170 37h-9q-55 -2 -91 -10t-65.5 -24.5t-59.5 -41t-75 -55.5q-18 -8 -28.5 -2 t-12.5 17.5t1.5 25.5t13.5 25q49 31 84 54t68.5 38.5t73.5 23.5q29 5 67 5q15 0 32 -1q98 -4 195.5 -50t172.5 -119.5t114 -170.5q25 -64 25 -130q0 -36 -7 -72q-8 -43 -28.5 -82t-38.5 -80q35 -14 60.5 -37.5t39.5 -62.5q9 -27 9 -53q0 -14 -3 -28q-8 -38 -29.5 -71 t-54.5 -56.5t-70 -37.5q-10 -5 -21 -5q-8 0 -17 3q-19 6 -39 8q-25 4 -43.5 22.5t-38.5 34.5q-6 8 -9 17q-104 -52 -209 -52q-41 0 -83 8q-146 29 -283 126q-10 12 -10 28.5zM239 357q0 12 5 22q6 12 17 18t28 2q14 -14 25.5 -28.5t21.5 -30.5q39 57 76 86q6 1 11 1 q10 0 17 -5q9 -8 10 -20.5t-4.5 -26t-17.5 -21.5q-35 -10 -66 -51q27 -41 55.5 -80t74.5 -67q8 -12 8 -25t-8 -27q-12 -18 -30 -18q-8 0 -18 4q-31 35 -57.5 77t-52.5 79q-9 -23 -9 -54q0 -11 1 -22q-4 -14 -15.5 -23.5t-23 -10.5t-20.5 7.5t-9 26.5q12 49 45 113 q-26 33 -53 45q-11 13 -11 29z" />
<glyph unicode="r" horiz-adv-x="718" d="M-69 719q-1 3 -1 6q0 12 9 27q16 33 37.5 62.5t50.5 51.5q41 33 119.5 68t165.5 58.5t165 28.5q12 1 23 1q61 0 94 -23q25 -16 53.5 -30.5t42.5 -40.5q32 -59 46 -123q10 -42 9 -83q-1 -21 -3 -41q-8 -60 -39 -112.5t-95 -89.5q33 -18 61.5 -33.5t52 -36t43 -48 t34.5 -70.5q14 -42 14 -100v-15q-2 -68 -26.5 -127t-71.5 -97q-34 -28 -82 -28q-18 0 -37 4q-35 8 -63.5 30t-59.5 38q-23 12 -39 32.5t-31 43.5q-4 -18 -10 -27q-10 -10 -20.5 -21.5t-24.5 -19.5q-34 -22 -78 -22h-12q-51 4 -101.5 21t-96.5 46t-72 57q-10 12 -13.5 27 t-9.5 29q0 14 6 27.5t16.5 20.5t21.5 6t21 -17q8 -49 47.5 -90t87.5 -59q32 -12 65 -13q16 0 33 3q50 9 85 56q14 16 31 17q-16 31 -35 57q-6 12 -4 27.5t10 25.5t20.5 12.5t26.5 -8.5q29 -45 53.5 -92t59.5 -88q60 -71 116 -71h2q56 1 95 43t50 110q3 19 3 38q0 48 -20 93 t-42 69.5t-48.5 40t-60.5 29t-77 33.5q-18 23 -5.5 50.5t42.5 21.5q0 12 6.5 25.5t20.5 21.5q56 27 82 85q25 54 24 113v9q-2 64 -32.5 121t-92.5 79q-47 18 -105 18q-24 0 -48 -3q-86 -10 -171 -45t-155.5 -91.5t-101.5 -123.5q-12 -18 -25.5 -20.5t-23 5t-12.5 21.5z M293 416q10 86 16 172q2 26 2 52q0 60 -10 120q0 16 9 30q10 15 22 21q7 3 13 3q5 0 9 -2q10 -5 15 -28q-11 -90 -15 -177q-1 -27 -1 -54q0 -61 7 -125q0 -16 -11 -28.5t-23 -15.5q-4 -1 -9 -1q-8 0 -14 4q-10 6 -10 29z" />
<glyph unicode="s" horiz-adv-x="722" d="M-70 199q0 14 6.5 27.5t16.5 20.5t21.5 6t21.5 -17q4 -25 46 -57t94 -61.5t99.5 -52t63.5 -26.5q48 -13 93 -13q22 0 44 3q66 10 115 41.5t96 70.5q16 14 18.5 42t12.5 44q27 41 49.5 73t37.5 63.5t23 69.5q6 30 5 69v22v19.5t-2 19.5q-23 -8 -48.5 -20.5t-66.5 -22.5 q-127 -29 -256 -40q-57 -5 -114 -5l-144 8q-16 6 -20.5 18.5t-0.5 25t14.5 22.5t24.5 12q92 -23 180 -30q28 -2 57 -2q61 0 124 10h-2q37 12 75.5 20t73.5 25q23 10 43.5 25.5t54.5 27.5q-4 49 -13 100t-25.5 97.5t-41 84t-61.5 60.5q-55 33 -125 38q-17 1 -33 1 q-53 0 -107 -12q-71 -16 -134.5 -49t-108.5 -76q-10 -10 -26.5 -24.5t-33 -31t-29.5 -34t-15 -33.5v4q-2 -16 -13.5 -27.5t-23.5 -14.5t-21.5 4t-9.5 30q4 41 29.5 69.5t52.5 55.5q61 63 135 107t155 66q66 17 134 17q16 0 32 -1q85 -5 167 -42q41 -18 68.5 -60t45 -95.5 t25.5 -113t12 -112.5q27 -5 27 -25v-6q-4 -24 -23 -41q0 -10 1 -17t1 -15v-21q0 -148 -77 -272q-10 -14 -23.5 -24.5t-17.5 -22.5q-12 -39 -27.5 -71t-37 -56.5t-53.5 -45t-79 -34.5l-78 -24q-26 -8 -53 -7q-14 0 -29 2q-35 4 -101.5 25.5t-135 54.5t-122.5 73t-63 81z M-66 364q2 16 15 29q43 27 90 36t96 11q20 1 39 1q30 0 60 -2q50 -3 100 -3q18 -4 24.5 -16t2 -25.5t-16.5 -25t-29 -11.5q-43 12 -86 22.5t-85 12.5h-11q-37 0 -71 -11q-40 -13 -76 -48q-14 -10 -25 -10q-3 0 -5 1q-12 3 -18 13q-4 7 -4 17q-1 4 0 9zM547 539q4 2 9 2t9 2 q-6 0 -18 -4z" />
<glyph unicode="t" horiz-adv-x="737" d="M-47 774q20 98 99 167t173 91q47 10 95.5 10t95.5 7q34 4 74 10q35 5 69 5h12q41 -1 78 -12.5t62 -41.5q86 -102 135 -217q47 -110 48 -239q0 -5 -1 -11q0 -66 -34 -114t-85 -80q-50 -32 -112 -46q-48 -11 -92 -11q-13 0 -25 1q2 -6 3 -11.5t1 -11.5q2 -41 2 -61.5 t-3 -35.5t-11.5 -33.5t-26.5 -55.5q-10 -23 -30.5 -42t-43.5 -30q-76 -34 -135 -34q-151 0 -186 227q-4 23 -6.5 51.5t2.5 52.5q-10 -2 -19.5 -2t-19.5 -2q-14 -2 -30 1t-30 -1q-18 0 -25 9.5t-7 22.5t7 25.5t19 18.5q6 2 21.5 -1t28 -6t17.5 -6t-5 -3q-2 0 2 -1.5t6 -1.5 q16 -2 34.5 -4t34.5 2q31 6 61 21.5t56 30.5q20 4 29.5 -5.5t9.5 -22.5t-9 -27.5t-24 -20.5q-23 -4 -44 -7t-44 -7q0 -10 -2 -17q-12 -24 -13 -55q0 -10 2 -21q5 -45 21.5 -88t43 -77.5t55.5 -45.5q19 -6 37 -6q25 0 50 10q44 18 76 54q32 35 46 81q6 20 6 39q0 25 -10 48 t-24.5 40t-29.5 35q-4 2 -10 4.5t-10 4.5q-10 12 -11 25.5t5 25.5t17 18t28 2q43 -17 97 -27q32 -6 64 -6q22 0 42 2q52 6 97.5 31t71.5 76q24 44 24 104q0 9 -1 18q-4 71 -27.5 141.5t-61.5 133t-77 99.5q-26 27 -60 36q-30 8 -64 8h-7q-37 -1 -74 -7.5t-69 -12.5 q-47 -6 -90 -11t-83 -15.5t-78 -28.5t-75 -53q-25 -23 -43 -50.5t-23 -62.5q-4 -14 -15 -23.5t-22.5 -10.5t-20.5 7.5t-9 26.5z" />
<glyph unicode="u" horiz-adv-x="669" d="M-31 840q16 41 25.5 86t42.5 71q45 37 103 45q18 2 35 2q41 0 85 -12v17q0 89 18 177q20 96 72 189q16 29 42 48.5t48 41.5q12 8 22 8q4 0 6 -1q12 -3 16.5 -13t2.5 -25.5t-10 -27.5q-23 -16 -45 -32.5t-43 -39.5q-66 -74 -85 -164q-13 -63 -13 -131q0 -28 2 -57 q90 -31 180 -94.5t163 -141t118 -159.5t45 -150q0 -59 2 -121q0 -4 1 -9q0 -58 -28 -105q-35 -61 -80 -116.5t-88 -113.5q-16 -23 -39.5 -36t-50.5 -23q-80 -26 -149 -26q-80 -1 -145 35q-120 66 -197 224q-6 14 -2 30.5t14 26t23.5 9.5t23.5 -19q51 -119 126 -177 q76 -58 156 -67q17 -2 34 -2q63 -1 124 25q78 32 136 98t88 157q20 62 21 131q0 33 -5 67q-12 80 -52 150.5t-98.5 131t-127 106.5t-138.5 77q-14 4 -24.5 9t-20.5 9q14 -90 38.5 -175t47.5 -159q2 -16 -4 -30.5t-16.5 -22.5t-23.5 -5t-21 22q-20 98 -38 194t-24 191 q-27 8 -45 10t-37.5 -2t-44 -12.5t-61.5 -18.5q-10 -33 -22.5 -63.5t-22.5 -63.5q-10 -14 -22.5 -18t-22 0t-14.5 15q-3 6 -3 15q0 7 2 15z" />
<glyph unicode="v" horiz-adv-x="571" d="M-57 811q10 37 37.5 86t64.5 90t82 63q23 11 47 11l43 -10q10 -4 32.5 -52.5t45.5 -111.5q23 33 47.5 65.5t65.5 40.5q31 7 61 7q20 0 40 -3q50 -8 90 -35q41 -26 65 -70q23 -41 22 -95v-9q-2 -78 -23.5 -148.5t-54.5 -138t-69.5 -134t-69.5 -136.5q-12 -29 -29.5 -65.5 t-32 -78.5t-20.5 -83q-2 -14 -2 -26q0 -26 8 -48q6 -16 18.5 -27.5t22.5 -25.5q8 -16 6 -31q16 -4 20.5 -17t0.5 -26.5t-15.5 -23.5t-27.5 -10q-74 16 -130.5 53t-103.5 86t-86 107.5t-75 119.5q-12 20 -32 49t-32 58.5t-10 56.5t33 45q29 6 36 -14.5t-4 -38.5 q31 -68 59.5 -134.5t65.5 -123t85 -100.5t118 -66q-12 16 -12 31v13q0 79 22 153q24 80 61.5 157.5t81.5 151t83 147.5q18 33 38.5 78t24.5 82q4 26 4 51q-1 55 -19 99q-26 66 -73 94q-28 17 -62 17q-21 1 -45 -7q-60 -18 -110 -105q-8 -12 -14 -14q23 -59 36 -108.5 t15 -63.5q0 -14 -8.5 -26.5t-18.5 -17.5t-21.5 -1t-19.5 20q0 18 -12 79t-28.5 128.5t-35 123t-30.5 63.5q-18 12 -40 5t-41.5 -23.5t-37 -36t-25.5 -33.5q-29 -45 -38 -81t-11 -46q-6 -18 -18.5 -26.5t-23.5 -6.5t-18 14q-4 8 -4 19q0 7 1 14z" />
<glyph unicode="w" horiz-adv-x="921" d="M-38 690q-6 11 -6 23q0 13 7 28q66 76 132.5 133.5t164.5 90.5q87 28 163 28h5q8 25 16.5 50.5t18.5 50.5q8 18 21.5 24t23.5 1t15 -19.5t-1 -32.5q-23 -43 -37 -76q6 -2 23 -2q20 72 48 137.5t62 114.5q14 16 27.5 16t21 -10t7.5 -26.5t-10 -30.5q-29 -35 -57.5 -89 t-51.5 -118q12 -2 25.5 -4t27.5 -4q61 -10 113.5 -40t101.5 -63q31 -18 66 -33.5t57 -43.5q44 -51 56 -135q6 -44 6 -90q0 -42 -4 -85q-10 -90 -35 -175t-47 -136q-16 -35 -28.5 -58.5t-26 -45t-29 -43t-37.5 -50.5q-16 -18 -41 -36.5t-53 -16.5q-16 2 -35 2t-37 2 q-39 4 -73 50.5t-56 101.5q-8 -37 -24.5 -72t-51.5 -69q-33 -33 -74 -35h-8q-37 0 -76 18q-43 20 -85 54t-78.5 73t-65.5 75t-43 60q-12 23 -16 48.5t-13 48.5q0 14 6.5 27.5t16.5 20.5t21.5 6t21.5 -18q18 -102 70.5 -193t150.5 -144q40 -23 77 -23q19 1 39 7q56 18 72 91 q10 39 10 79l-1 13q0 37 4 74q2 14 12 25q6 12 15.5 19t18.5 9t17 -4t10 -24q2 -31 15.5 -79t37 -91t56.5 -71q24 -20 52 -20q11 0 22 3q43 12 76.5 49t58 83t43 95t31.5 84q14 39 28 103q13 64 17 132q1 19 1 37q0 47 -8 93q-10 62 -44 98q-18 23 -46 32t-53 23 q-57 35 -106 62.5t-115 44.5q-16 4 -29.5 6t-29.5 4q-18 -63 -30.5 -130t-12.5 -128.5t12 -114.5t41 -90q8 -14 6 -30.5t-11 -27t-22.5 -12.5t-25.5 13q-10 14 -20.5 27.5t-14.5 29.5q-8 55 -8 120q0 47 4 99q10 125 39 248h-33q-51 -128 -61 -236q-2 -25 -2 -50 q0 -83 24 -167q2 -16 -4 -30.5t-16.5 -22.5t-23.5 -5t-22 22q-6 20 -4 48.5t0 45.5q-1 20 -1 39q-1 80 13 160q16 98 46 194q-74 -6 -138 -31q-90 -35 -148 -88t-118 -127q-33 -23 -46 0z" />
<glyph unicode="x" horiz-adv-x="923" d="M-41 765q4 28 20.5 57.5t34.5 54.5q27 35 63 65.5t76 49t85 21.5h11l79 -18q53 -25 88 -90t57 -149q35 72 101.5 119t136.5 81q23 12 48 11t48 2q23 2 42 -9.5t40 -19.5q25 -10 35 -35.5t24 -48.5q13 -23 12 -49v-13q-3 -22 -3 -46q0 -12 1 -23q1 -9 1 -19q0 -30 -10 -62 q-13 -42 -27 -77q-23 -59 -62 -121q18 -10 31.5 -21t25 -27.5t22.5 -39t24 -55.5q14 -35 24 -71q8 -30 8 -61v-13q-4 -78 -19 -144.5t-51 -101.5q-29 -28 -72 -28q-11 0 -23 2q-58 8 -146 79q-53 45 -98 97.5t-94 101.5q-4 2 -9 10q-23 -18 -41 -40.5t-41 -43.5 q-55 -53 -98 -86t-86 -42q-16 -3 -34 -3q-28 1 -59 9q-50 14 -120 55q-10 12 -11 25t5 25.5t17.5 18.5t27.5 2q23 -16 42 -36.5t42 -34.5q36 -20 68 -20h8q35 3 66.5 22.5t59 50t53.5 64.5t49 65t46 51q23 12 34 4t13 -24q8 0 15 -7q29 -35 60.5 -79t69.5 -85.5t81 -77.5 t92 -50q18 -4 36.5 4t36.5 12q10 18 20.5 35.5t14.5 38.5q6 33 6 70v19q-2 48 -15 95t-35.5 88t-55.5 70q-12 12 -29 18l-24 -37q-33 -23 -46.5 0t1.5 51q2 4 4 6.5t4 6.5l-12 6q-10 12 -11.5 25.5t5 25.5t17.5 18.5t27 2.5q6 -4 12.5 -7.5t10.5 -7.5q41 53 70.5 113.5 t31.5 124.5v22q0 39 -5 74q-7 45 -28.5 76t-60.5 40q-12 3 -26 3q-32 0 -76 -15q-47 -16 -89 -50t-71 -74q-16 -25 -30.5 -52.5t-24.5 -58.5q-2 -4 -2 -8t-1 -7t-1 -8q14 -84 21 -159.5t15 -122.5q0 -14 -8 -26.5t-18 -17.5t-21.5 -1t-19.5 20q-2 10 -2 21.5t-2 25.5 q-25 20 -33 52q-7 28 -7 61v8q1 37 9 75t14 66q-6 49 -17 96.5t-27.5 86.5t-39 68.5t-53.5 43.5q-30 12 -60 12h-11q-36 -2 -68.5 -18t-60 -41.5t-46.5 -54.5l-8 -14q-8 -13 -16 -28t-13.5 -29.5t-0.5 -18.5q10 -2 26 -6q25 -18 15 -47t-44 -29q-41 12 -53 34q-9 17 -9 37 q0 7 1 14zM-25 342q2 16 15 29q38 25 80 25h8q47 -2 96 -9q-20 8 -38.5 16.5t-37.5 18.5q-10 6 -19.5 11t-21.5 9q-2 0 -10 4q-20 -10 -33.5 7.5t-1.5 46.5q-2 0 -2 -2q8 14 15.5 19t21.5 9q10 0 41 -17t66.5 -41t68.5 -48.5t47 -36.5h2v-2l9 -8q1 -4 1 -8q0 -14 -18 -23 q-37 -6 -73.5 -8t-69.5 -3t-58.5 -4t-35.5 -16q-14 -10 -25 -10q-4 0 -6 1q-12 4 -18 14q-4 8 -4 18q0 4 1 8z" />
<glyph unicode="y" horiz-adv-x="897" d="M-16 380q4 17 14 26.5t23.5 9.5t23.5 -19q29 -23 47.5 -36t38 -21t46 -8t69.5 6q16 10 28 4q4 2 9.5 2t11.5 2q18 -4 23.5 -14t3 -22.5t-11.5 -24t-21 -17.5h-6q-8 -25 -15.5 -46t-10.5 -42.5t2 -45t24 -54.5q20 -35 66 -55.5t95 -21.5h5q47 0 83 21q37 23 43 76 q4 33 -2 59.5t-18 49t-28.5 46.5t-32.5 50l-2 2q-12 8 -15.5 21.5t2.5 27t18.5 21.5t28.5 4q45 -10 81 -22.5t68 -16.5q12 -1 23 -1q21 0 42 4q34 7 77 36q63 45 92 117q25 60 25 124q0 11 -1 22q-5 75 -40 144.5t-96 112.5q-25 18 -65 33.5t-87 28t-100 19.5t-109 7 q-15 -93 -15 -188v-31q3 -111 11 -240q0 -14 -8 -26t-18.5 -17.5t-21.5 -1.5t-19 21q4 123 8 242.5t20 240.5q-61 -2 -118.5 -14t-103.5 -37t-77 -62.5t-37 -93.5q-4 -14 -15 -23t-22.5 -10t-20.5 7t-9 26q14 82 53 132.5t95.5 77t124 35.5t138.5 9q10 66 25.5 129.5 t40.5 128.5q8 18 21 24q8 4 15 4q5 0 9 -2q10 -5 15 -19.5t-1 -32.5q-31 -61 -50 -118.5t-32 -113.5q45 -2 87 -4t81 -4q29 0 54.5 -10t51 -24.5t50.5 -29t49 -26.5q20 -10 35.5 -25.5t29 -35t26 -39t26.5 -37.5q25 -29 34 -75q8 -41 8 -85v-10q-1 -49 -11.5 -95.5 t-24.5 -74.5q-16 -35 -43 -65.5t-51 -61.5q-12 -16 -31.5 -26.5t-41 -16.5t-43 -10.5t-42.5 -12.5q-23 -10 -46.5 -7t-47.5 11q23 -45 35 -94q5 -18 5 -35q0 -29 -13 -53q-10 -18 -19.5 -38.5t-26.5 -37.5q-31 -31 -77 -44q-38 -11 -78 -11q-9 0 -18 1q-50 3 -93 23.5 t-67 59.5q-27 43 -36 71.5t-7 52t9 47.5t11 58q-43 2 -72.5 12.5t-54 22.5t-49.5 24.5t-57 18.5q-4 8 -4 18q0 6 2 12z" />
<glyph unicode="z" horiz-adv-x="714" d="M-35 545h2q0 20 8.5 34.5t30.5 18.5q35 -6 67.5 -17.5t67.5 -21.5q45 -10 90 -15t91 -14q25 -18 14.5 -46.5t-43.5 -28.5q-65 33 -135 54q-50 15 -102 15q-20 0 -40 -2q-14 -14 -32.5 -11t-18.5 34zM-28 792q-2 6 -1 13q0 8 2 16q16 41 55.5 63.5t73.5 43.5q53 33 115 62 q63 30 127 48q61 17 123 16h7q66 -1 128 -32q86 -41 132 -113.5t60 -156.5q6 -37 5 -74q1 -50 -9 -100q-18 -90 -57 -164q-14 -29 -30.5 -51.5t-32.5 -45.5q88 -49 128 -103q31 -42 31 -84q-1 -12 -3 -24q-12 -54 -77 -104.5t-188 -89.5q-51 -16 -109 -20q-24 -2 -48 -2 l-70 4q-58 6 -114 21t-105 36q-29 14 -56.5 30.5t-52.5 38.5q-14 14 -21.5 34t-9.5 16q0 16 10.5 30.5t21.5 19.5t21.5 -1t14.5 -27l2 -2q-4 8 1 4t12.5 -12t16.5 -18.5t13 -12.5q25 -20 52.5 -34.5t56.5 -26.5q97 -40 209 -50q22 -2 43 -1q88 0 165 34q100 45 136 86 q29 33 29 62q0 7 -2 15q-9 36 -54 68t-107 56q-66 -59 -145 -106q-18 -8 -28.5 -2t-12.5 17t1 25.5t13 24.5q41 23 66 35t47 29q-16 8 -19 22t2 27.5t18 21.5t30 4l16 -8t17 -8q2 2 3 4t3 4q78 88 112 197q17 49 21 109q1 18 1 35q0 39 -7 73q-23 100 -75 152t-121 70 q-40 10 -83 11q-31 1 -63 -5q-78 -12 -152 -42q-47 -31 -95 -58.5t-95 -60.5q-4 -4 -10.5 -7t-10.5 -7q2 -16 -10 -31.5t-35 -15.5q-2 0 -5 1t-7 1q-16 8 -20 20zM233 940v-1q2 0 11 3q-11 0 -11 -2z" />
<glyph unicode="&#xa4;" horiz-adv-x="892" d="M-50 332q-5 39 17 80q14 27 42 68.5t63 66.5q4 35 12 72.5t18 72.5q-23 14 -38 36t-21 56q-6 33 14.5 78t54 82t73.5 55.5t75 -0.5q27 -14 42 -27.5t22.5 -27.5t11.5 -32.5t8 -43.5q47 -2 72.5 -7t54.5 1q16 10 41 27.5t52.5 31t56 17.5t53.5 -10q18 -10 35.5 -19.5 t31.5 -25.5q25 -27 43.5 -69t22.5 -85t-10.5 -82t-57.5 -61q-14 -6 -28.5 -7t-30.5 -1q-4 -10 -5 -18.5t-3 -18.5q25 -10 43 -25q45 -47 60.5 -97t4 -95t-48.5 -83t-98 -59q-33 -12 -63.5 -0.5t-55.5 31.5t-44 40.5t-28 27.5h-2q-4 -4 -8 -5q-37 6 -71.5 12.5t-69.5 4.5 q18 -4 17 -30.5t-21 -41.5q-25 -12 -48.5 -29.5t-52.5 -21.5q-23 -2 -44 -8t-44 2q-35 12 -67.5 37.5t-54 58.5t-26.5 72zM-5 315q3 -47 58 -79q29 -16 61.5 -18.5t61.5 11.5q23 12 42.5 27.5t41.5 30.5q4 2 7 3t7 3q-16 6 -19 20.5t2 27.5t18.5 22.5t29.5 5.5 q39 -25 65.5 -28t67.5 13l13 -6q16 14 38 -2q23 -23 40.5 -57.5t48.5 -44.5q59 -16 101 7t59.5 61t3 81t-65.5 68q-18 10 -38 13t-40 7q-16 6 -20.5 20.5t1 28t17.5 21.5t29 6q10 12 12 23q-16 6 -18.5 21t8.5 32q-4 14 2 27.5t16 20.5t22.5 6t22.5 -17q0 -4 1 -8.5t1 -8.5 q8 0 15.5 -1t17.5 -1q27 25 34 61t-3.5 70.5t-36 61t-62.5 33.5q-29 4 -49 -1.5t-37.5 -17.5t-35 -28.5t-37.5 -32.5q-8 -4 -19 -4q-10 -6 -20 -7q-29 12 -43.5 20.5t-24.5 9.5t-19.5 -5t-27.5 -18h-2q-10 -16 -27.5 -17.5t-27.5 23.5q-4 29 -3 56.5t-10 53.5 q-4 12 -15 19.5t-21 17.5q-12 0 -25.5 2t-28.5 -2q-25 -6 -50 -29.5t-37.5 -52t-8.5 -58.5t37 -50q25 -14 52.5 -20.5t55.5 -16.5q14 -10 16.5 -25.5t-3.5 -28t-19.5 -18.5t-31.5 0q-12 6 -23.5 11.5t-21.5 9.5q-12 -14 -18.5 -24.5t-9.5 -21t-1 -24.5t8 -35q10 0 27 -6 q14 -10 16 -25.5t-4 -27.5t-19.5 -18.5t-31.5 -0.5q-14 12 -47 -13.5t-55.5 -67.5t-19.5 -89zM242 505.5q2 16.5 14 29.5q16 12 35 24q-23 25 -31 49q-4 10 1 24.5t7 20.5q8 18 21.5 24.5t24 1.5t15.5 -19.5t-1 -32.5q-12 -20 4 -41q31 16 55.5 28.5t56.5 49.5q16 10 27.5 7 t17 -13.5t3 -26t-10.5 -27.5q-29 -16 -56.5 -27.5t-51.5 -25.5q29 -18 59.5 -31.5t44.5 -17.5q14 -10 16.5 -25.5t-4 -28t-19.5 -18.5t-32 0l-50 40t-58 50q-23 -18 -37 -45q-18 -12 -30.5 -9t-17.5 13t-3 26.5z" />
<glyph unicode="&#xa7;" horiz-adv-x="886" d="M-90 676q23 184 105.5 299t248.5 188q45 20 91 33.5t94 15.5q49 0 99 -28.5t94 -77.5t79 -110.5t54.5 -125t20.5 -122t-22 -101.5q-8 -12 -16 -22.5t-19 -20.5q45 -78 70 -168t29 -182q2 -57 -18.5 -122.5t-59.5 -113.5q-4 -6 -43 -28.5t-84 -47t-83 -45t-44 -20.5 q-14 -2 -28.5 -4t-28.5 2q-51 10 -116 32.5t-128.5 55.5t-116.5 72t-82 84q-10 16 -19.5 31.5t-13.5 35.5q-4 39 14.5 89.5t49.5 86.5q-29 37 -54.5 79t-43 84t-25.5 81t-4 70zM-43 682q0 -39 6 -66.5t21 -64.5q10 -27 39.5 -67t68.5 -78q12 4 21 6q29 4 35 -15.5t-5 -38.5 q33 -29 65 -46t54 -17q18 -4 24.5 -16.5t2.5 -25.5t-16.5 -24.5t-28.5 -11.5q-39 2 -81 28.5t-83 67.5q-12 -16 -23.5 -36.5t-19.5 -45.5t11.5 -55.5t55 -64t84 -65.5t97.5 -58.5t96 -45t80 -22.5q29 -4 55.5 5t51 22.5t48 30t46.5 28.5q16 10 35.5 15.5t29.5 15.5 q39 39 53.5 97.5t14.5 109.5q0 90 -28 174t-79 155q-10 0 -16 9.5t-6 21.5q-90 105 -213 148q-16 6 -20.5 20t0.5 27.5t18.5 22.5t29.5 5q66 -23 121 -65.5t98 -99.5q12 10 19 20q20 33 17 81t-21.5 101.5t-49 106.5t-68.5 96t-79 69.5t-80 26.5q-96 0 -182 -40 t-152.5 -105.5t-105.5 -153.5t-41 -182zM307.5 571.5q-4.5 14.5 0.5 27.5t18.5 22.5t29.5 5.5q27 -12 49.5 -34t43 -48.5t39 -53t36.5 -49.5q2 -12 -2 -26.5t-13 -23.5t-20.5 -10t-23.5 13q-10 27 -19.5 54.5t-24.5 50t-37.5 37t-55.5 14.5q-16 6 -20.5 20.5z" />
<glyph unicode="&#xa8;" horiz-adv-x="540" d="M51 1252.5q8 50.5 53 66.5q4 6 17 14q68 31 118 23t78 -41q16 10 32 22.5t34 8.5q63 -10 92 -58.5t25 -103t-40 -99.5t-100 -51q-61 -6 -98 35q-16 -12 -38.5 -20.5t-47.5 -14.5q-37 -10 -69.5 28t-48 89t-7.5 101.5zM98.5 1187.5q5.5 -38.5 27 -67t56.5 -38t72 25.5 q8 29 31 33q29 37 28.5 64.5t-17.5 45t-47 24.5t-59 5q-4 -14 -15 -24.5t-30 -10.5q-8 4 -17 10t-15 -2q-20 -27 -14.5 -65.5zM319 1122q10 -10 26.5 -19t36 -12.5t39 6t36.5 40.5q10 23 8 51.5t-16.5 50t-40 28t-58.5 -13.5q6 -33 -1 -66.5t-30 -64.5z" />
<glyph unicode="&#xad;" horiz-adv-x="487" d="M-26.5 472.5q-0.5 16.5 8 29t21.5 16.5t28 -8q27 -25 55.5 -52.5t60 -51t66.5 -36t76 -1.5q45 10 77.5 45t48 80t11.5 93t-31 85q-37 49 -90 57t-108 6q-12 -2 -35 -1t-45.5 -2t-41 -10.5t-22.5 -23.5q-6 -18 -18 -26t-23.5 -6t-18.5 14t-3 33q12 35 46 56.5t80 29.5 t97 5t96 -16.5t79 -35t44 -50.5q27 -72 26 -143.5t-31 -127.5t-88 -90t-144 -30q-31 2 -58.5 17.5t-54.5 36t-51.5 42t-46.5 37.5q-10 12 -10.5 28.5z" />
<glyph unicode="&#xb4;" horiz-adv-x="630" d="M184 1104q10 41 34 82t46 74q25 35 54.5 70.5t70.5 51.5t67.5 -2t36 -54t0 -77t-35.5 -71q-29 -31 -63 -54.5t-75 -44.5q-25 -12 -51 -24.5t-55 -7.5q-15 8 -23 22q-2 6 -2 16q-4 6 -4 19zM256 1139q2 -4 2 -15q29 6 61.5 17.5t61.5 29t51.5 43t32.5 64.5q-4 59 -33 61 t-62.5 -28.5t-66.5 -79.5t-47 -92z" />
<glyph unicode="&#xb8;" horiz-adv-x="315" d="M-80 -253q4 46 27.5 79t72.5 29q23 0 46 -7q10 47 16 93.5t0 93.5q4 14 14 25.5t20.5 15.5t19.5 -2t14 -27q-14 -68 -23.5 -120t-11.5 -93q39 -14 74.5 -28.5t76.5 -24.5q25 -18 14.5 -47t-42.5 -29q-35 10 -67 25.5t-65 31.5q-16 -16 -36.5 -16t-20.5 33v6 q-10 2 -19.5 3t-19.5 1q-29 0 -39 -21.5t-9 -51t9.5 -57.5t14.5 -40q33 -47 92 -68.5t125.5 -20.5t127 24.5t93.5 66.5q18 23 22.5 42.5t0 38.5t-14.5 38.5t-18 42.5q-6 18 -25.5 26.5t-42 13.5t-45 8t-37.5 11q-10 6 -23.5 29t-25.5 46.5t-21.5 43t-11.5 23.5 q-6 12 -4 27.5t10.5 25.5t20.5 12t27 -8q23 -29 38 -63.5t27 -69.5q10 -10 14 -12q20 -8 41 -11.5t41 -11.5q51 -18 75 -71.5t24 -104.5q0 -72 -56.5 -120t-132.5 -71.5t-153.5 -20.5t-122.5 36q-20 16 -43 28.5t-39 34.5q-16 25 -24.5 71t-4.5 92zM303 -100l2 -2z" />
<glyph unicode="&#xc0;" horiz-adv-x="796" d="M-35 532q8 76 26.5 134.5t48.5 107.5t73 92t104 90q51 41 107 80t122 43q18 -4 23.5 -14t3.5 -22.5t-11 -23.5t-22 -18q-12 -2 -22 -4t-21 -6q74 14 108 23.5t60.5 8.5t59 -17.5t106.5 -49.5q39 -16 63.5 -58t40 -92t23.5 -99.5t14 -79.5q18 -86 -1 -188.5t-67 -194.5 t-121 -161t-165 -85q-4 0 -9 -1t-9 -1q4 -25 8 -41q0 -14 -8 -26.5t-18.5 -17.5t-21.5 -1t-20 20q-2 14 -2 30.5t-2 33.5q-92 6 -182 56t-157.5 127t-104.5 170t-27 185zM18.5 597q-14.5 -73 6.5 -165q14 -66 52 -135.5t92 -127.5t121.5 -98t143.5 -42q-4 53 -9 114.5 t-6 121t2 111.5t13 89q10 25 34 27t28 -29q2 -2 2 -8q-4 -18 -13 -31q-29 -168 7 -391l24 6q41 10 78 27.5t68 42.5q47 39 81.5 101t56 137t28 155t-6 154.5t-43 137t-82.5 103.5q-45 37 -84 47t-78.5 5t-82.5 -18t-95 -24q-25 0 -31 15.5t1 31.5l-13.5 -9l-13.5 -9 q-68 -45 -127 -95t-99 -110.5t-54.5 -133.5zM237 1210q2 25 20.5 45.5t46.5 35t46 14.5q23 0 54.5 -19.5t63 -44t61.5 -46.5t46 -26q25 -18 14.5 -46.5t-42.5 -28.5q-6 0 -13 6h-2q-72 10 -139.5 18t-128.5 49q-29 18 -27 43zM280 1225q23 -35 71 -44.5t99 -9.5 q-27 25 -54.5 46.5t-51 33t-41 7.5t-23.5 -33zM330.5 505.5q-13.5 22.5 1.5 51.5q33 31 67.5 58.5t69.5 56.5q-25 23 -50 36t-50 3q-18 0 -25.5 9t-7.5 22.5t7 25.5t19 18q27 2 45.5 -4t33 -19t28.5 -29.5t31 -35.5q0 -2 2 -2q14 10 26.5 21.5t26.5 21.5q18 10 30.5 5 t16.5 -17t-1 -27.5t-19 -25.5q-10 -4 -19.5 -8t-19.5 -9q18 -16 37.5 -30.5t37.5 -30.5q16 -25 0 -51.5t-47 -14.5q-12 18 -30.5 47t-40.5 58q-37 -23 -67 -53.5t-56 -75.5q-33 -23 -46.5 -0.5z" />
<glyph unicode="&#xc1;" horiz-adv-x="796" d="M-35 532q8 76 26.5 134.5t48.5 107.5t73 92t104 90q51 41 107 80t122 43q18 -4 23.5 -14t3.5 -22.5t-11 -23.5t-22 -18q-12 -2 -22 -4t-21 -6q74 14 108 23.5t60.5 8.5t59 -17.5t106.5 -49.5q39 -16 63.5 -58t40 -92t23.5 -99.5t14 -79.5q18 -86 -1 -188.5t-67 -194.5 t-121 -161t-165 -85q-4 0 -9 -1t-9 -1q4 -25 8 -41q0 -14 -8 -26.5t-18.5 -17.5t-21.5 -1t-20 20q-2 14 -2 30.5t-2 33.5q-92 6 -182 56t-157.5 127t-104.5 170t-27 185zM18.5 597q-14.5 -73 6.5 -165q14 -66 52 -135.5t92 -127.5t121.5 -98t143.5 -42q-4 53 -9 114.5 t-6 121t2 111.5t13 89q10 25 34 27t28 -29q2 -2 2 -8q-4 -18 -13 -31q-29 -168 7 -391l24 6q41 10 78 27.5t68 42.5q47 39 81.5 101t56 137t28 155t-6 154.5t-43 137t-82.5 103.5q-45 37 -84 47t-78.5 5t-82.5 -18t-95 -24q-25 0 -31 15.5t1 31.5l-13.5 -9l-13.5 -9 q-68 -45 -127 -95t-99 -110.5t-54.5 -133.5zM225 1104q10 41 34 82t46 74q25 35 54.5 70.5t70.5 51.5t67.5 -2t36 -54t0 -77t-35.5 -71q-29 -31 -63 -54.5t-75 -44.5q-25 -12 -51 -24.5t-55 -7.5q-15 8 -23 22q-2 6 -2 16q-4 6 -4 19zM297 1139q2 -4 2 -15q29 6 61.5 17.5 t61.5 29t51.5 43t32.5 64.5q-4 59 -33 61t-62.5 -28.5t-66.5 -79.5t-47 -92zM330.5 505.5q-13.5 22.5 1.5 51.5q33 31 67.5 58.5t69.5 56.5q-25 23 -50 36t-50 3q-18 0 -25.5 9t-7.5 22.5t7 25.5t19 18q27 2 45.5 -4t33 -19t28.5 -29.5t31 -35.5q0 -2 2 -2q14 10 26.5 21.5 t26.5 21.5q18 10 30.5 5t16.5 -17t-1 -27.5t-19 -25.5q-10 -4 -19.5 -8t-19.5 -9q18 -16 37.5 -30.5t37.5 -30.5q16 -25 0 -51.5t-47 -14.5q-12 18 -30.5 47t-40.5 58q-37 -23 -67 -53.5t-56 -75.5q-33 -23 -46.5 -0.5z" />
<glyph unicode="&#xc2;" horiz-adv-x="796" d="M-35 532q8 76 26.5 134.5t48.5 107.5t73 92t104 90q51 41 107 80t122 43q18 -4 23.5 -14t3.5 -22.5t-11 -23.5t-22 -18q-12 -2 -22 -4t-21 -6q74 14 108 23.5t60.5 8.5t59 -17.5t106.5 -49.5q39 -16 63.5 -58t40 -92t23.5 -99.5t14 -79.5q18 -86 -1 -188.5t-67 -194.5 t-121 -161t-165 -85q-4 0 -9 -1t-9 -1q4 -25 8 -41q0 -14 -8 -26.5t-18.5 -17.5t-21.5 -1t-20 20q-2 14 -2 30.5t-2 33.5q-92 6 -182 56t-157.5 127t-104.5 170t-27 185zM18.5 597q-14.5 -73 6.5 -165q14 -66 52 -135.5t92 -127.5t121.5 -98t143.5 -42q-4 53 -9 114.5 t-6 121t2 111.5t13 89q10 25 34 27t28 -29q2 -2 2 -8q-4 -18 -13 -31q-29 -168 7 -391l24 6q41 10 78 27.5t68 42.5q47 39 81.5 101t56 137t28 155t-6 154.5t-43 137t-82.5 103.5q-45 37 -84 47t-78.5 5t-82.5 -18t-95 -24q-25 0 -31 15.5t1 31.5l-13.5 -9l-13.5 -9 q-68 -45 -127 -95t-99 -110.5t-54.5 -133.5zM158.5 1157.5q-11.5 59.5 1 132t45 137t79.5 82.5q20 6 47 13.5t53.5 11.5t52.5 2t42 -10q23 -12 48.5 -22.5t41.5 -30.5q33 -37 53.5 -100.5t16.5 -123t-40 -99.5t-114 -28q-20 4 -36.5 14.5t-33.5 24.5q-47 -29 -99 -55.5 t-103 -15.5q-43 8 -54.5 67.5zM204.5 1199q6.5 -44 24.5 -46q37 -4 72 15.5t69 43.5q-4 20 10.5 37t39.5 11l8 -9l2 2q29 16 41 -1t4 -40q8 -4 15 -9t18 -9q12 -4 24 -2t25 2q51 57 44 118.5t-51 106.5t-115 62.5t-144 -13.5q-35 -14 -55.5 -64t-29 -105.5t-2 -99.5z M330.5 505.5q-13.5 22.5 1.5 51.5q33 31 67.5 58.5t69.5 56.5q-25 23 -50 36t-50 3q-18 0 -25.5 9t-7.5 22.5t7 25.5t19 18q27 2 45.5 -4t33 -19t28.5 -29.5t31 -35.5q0 -2 2 -2q14 10 26.5 21.5t26.5 21.5q18 10 30.5 5t16.5 -17t-1 -27.5t-19 -25.5q-10 -4 -19.5 -8 t-19.5 -9q18 -16 37.5 -30.5t37.5 -30.5q16 -25 0 -51.5t-47 -14.5q-12 18 -30.5 47t-40.5 58q-37 -23 -67 -53.5t-56 -75.5q-33 -23 -46.5 -0.5z" />
<glyph unicode="&#xc3;" horiz-adv-x="796" d="M-35 532q8 76 26.5 134.5t48.5 107.5t73 92t104 90q51 41 107 80t122 43q18 -4 23.5 -14t3.5 -22.5t-11 -23.5t-22 -18q-12 -2 -22 -4t-21 -6q74 14 108 23.5t60.5 8.5t59 -17.5t106.5 -49.5q39 -16 63.5 -58t40 -92t23.5 -99.5t14 -79.5q18 -86 -1 -188.5t-67 -194.5 t-121 -161t-165 -85q-4 0 -9 -1t-9 -1q4 -25 8 -41q0 -14 -8 -26.5t-18.5 -17.5t-21.5 -1t-20 20q-2 14 -2 30.5t-2 33.5q-92 6 -182 56t-157.5 127t-104.5 170t-27 185zM18.5 597q-14.5 -73 6.5 -165q14 -66 52 -135.5t92 -127.5t121.5 -98t143.5 -42q-4 53 -9 114.5 t-6 121t2 111.5t13 89q10 25 34 27t28 -29q2 -2 2 -8q-4 -18 -13 -31q-29 -168 7 -391l24 6q41 10 78 27.5t68 42.5q47 39 81.5 101t56 137t28 155t-6 154.5t-43 137t-82.5 103.5q-45 37 -84 47t-78.5 5t-82.5 -18t-95 -24q-25 0 -31 15.5t1 31.5l-13.5 -9l-13.5 -9 q-68 -45 -127 -95t-99 -110.5t-54.5 -133.5zM157 1178.5q-2 56.5 14.5 108.5t51.5 65q29 10 46 12t33.5 -3t34 -15.5t46.5 -24.5q8 -4 15 -12.5t15 -18.5q2 0 3 1t4 1q14 0 34.5 7.5t41 12.5t40 7t31.5 -6q37 -23 42 -63t-10.5 -81t-45 -73.5t-62.5 -42.5q-39 -10 -73.5 9 t-69.5 36q-8 -8 -12 -11q-18 -10 -37 -23t-41 -17q-49 -8 -74 33.5t-27 98zM202.5 1250.5q-4.5 -33.5 3 -71.5t21.5 -59q13 0 29 -4q10 6 17 12.5t18 12.5q0 18 14 33.5t37 11.5q18 -6 34.5 -18.5t33 -26t33.5 -24.5t36 -15q20 -4 37.5 8t29 31.5t15.5 45t0 48.5 q-2 10 -4 15t-13 7q-4 2 -17 -2t-30.5 -10t-35 -13t-29.5 -13q-12 -12 -31 -13q-12 2 -27.5 16.5t-31 31t-32.5 33t-32 22.5q-37 14 -54 -5.5t-21.5 -53zM330.5 505.5q-13.5 22.5 1.5 51.5q33 31 67.5 58.5t69.5 56.5q-25 23 -50 36t-50 3q-18 0 -25.5 9t-7.5 22.5t7 25.5 t19 18q27 2 45.5 -4t33 -19t28.5 -29.5t31 -35.5q0 -2 2 -2q14 10 26.5 21.5t26.5 21.5q18 10 30.5 5t16.5 -17t-1 -27.5t-19 -25.5q-10 -4 -19.5 -8t-19.5 -9q18 -16 37.5 -30.5t37.5 -30.5q16 -25 0 -51.5t-47 -14.5q-12 18 -30.5 47t-40.5 58q-37 -23 -67 -53.5 t-56 -75.5q-33 -23 -46.5 -0.5z" />
<glyph unicode="&#xc4;" horiz-adv-x="796" d="M-35 532q8 76 26.5 134.5t48.5 107.5t73 92t104 90q51 41 107 80t122 43q18 -4 23.5 -14t3.5 -22.5t-11 -23.5t-22 -18q-12 -2 -22 -4t-21 -6q74 14 108 23.5t60.5 8.5t59 -17.5t106.5 -49.5q39 -16 63.5 -58t40 -92t23.5 -99.5t14 -79.5q18 -86 -1 -188.5t-67 -194.5 t-121 -161t-165 -85q-4 0 -9 -1t-9 -1q4 -25 8 -41q0 -14 -8 -26.5t-18.5 -17.5t-21.5 -1t-20 20q-2 14 -2 30.5t-2 33.5q-92 6 -182 56t-157.5 127t-104.5 170t-27 185zM18.5 597q-14.5 -73 6.5 -165q14 -66 52 -135.5t92 -127.5t121.5 -98t143.5 -42q-4 53 -9 114.5 t-6 121t2 111.5t13 89q10 25 34 27t28 -29q2 -2 2 -8q-4 -18 -13 -31q-29 -168 7 -391l24 6q41 10 78 27.5t68 42.5q47 39 81.5 101t56 137t28 155t-6 154.5t-43 137t-82.5 103.5q-45 37 -84 47t-78.5 5t-82.5 -18t-95 -24q-25 0 -31 15.5t1 31.5l-13.5 -9l-13.5 -9 q-68 -45 -127 -95t-99 -110.5t-54.5 -133.5zM180 1252.5q8 50.5 53 66.5q4 6 17 14q68 31 118 23t78 -41q16 10 32 22.5t34 8.5q63 -10 92 -58.5t25 -103t-40 -99.5t-100 -51q-61 -6 -98 35q-16 -12 -38.5 -20.5t-47.5 -14.5q-37 -10 -69.5 28t-48 89t-7.5 101.5z M227.5 1187.5q5.5 -38.5 27 -67t56.5 -38t72 25.5q8 29 31 33q29 37 28.5 64.5t-17.5 45t-47 24.5t-59 5q-4 -14 -15 -24.5t-30 -10.5q-8 4 -17 10t-15 -2q-20 -27 -14.5 -65.5zM330.5 505.5q-13.5 22.5 1.5 51.5q33 31 67.5 58.5t69.5 56.5q-25 23 -50 36t-50 3 q-18 0 -25.5 9t-7.5 22.5t7 25.5t19 18q27 2 45.5 -4t33 -19t28.5 -29.5t31 -35.5q0 -2 2 -2q14 10 26.5 21.5t26.5 21.5q18 10 30.5 5t16.5 -17t-1 -27.5t-19 -25.5q-10 -4 -19.5 -8t-19.5 -9q18 -16 37.5 -30.5t37.5 -30.5q16 -25 0 -51.5t-47 -14.5q-12 18 -30.5 47 t-40.5 58q-37 -23 -67 -53.5t-56 -75.5q-33 -23 -46.5 -0.5zM448 1122q10 -10 26.5 -19t36 -12.5t39 6t36.5 40.5q10 23 8 51.5t-16.5 50t-40 28t-58.5 -13.5q6 -33 -1 -66.5t-30 -64.5z" />
<glyph unicode="&#xc5;" horiz-adv-x="796" d="M-35 532q8 76 26.5 134.5t48.5 107.5t73 92t104 90q51 41 107 80t122 43q18 -4 23.5 -14t3.5 -22.5t-11 -23.5t-22 -18q-12 -2 -22 -4t-21 -6q74 14 108 23.5t60.5 8.5t59 -17.5t106.5 -49.5q39 -16 63.5 -58t40 -92t23.5 -99.5t14 -79.5q18 -86 -1 -188.5t-67 -194.5 t-121 -161t-165 -85q-4 0 -9 -1t-9 -1q4 -25 8 -41q0 -14 -8 -26.5t-18.5 -17.5t-21.5 -1t-20 20q-2 14 -2 30.5t-2 33.5q-92 6 -182 56t-157.5 127t-104.5 170t-27 185zM18.5 597q-14.5 -73 6.5 -165q14 -66 52 -135.5t92 -127.5t121.5 -98t143.5 -42q-4 53 -9 114.5 t-6 121t2 111.5t13 89q10 25 34 27t28 -29q2 -2 2 -8q-4 -18 -13 -31q-29 -168 7 -391l24 6q41 10 78 27.5t68 42.5q47 39 81.5 101t56 137t28 155t-6 154.5t-43 137t-82.5 103.5q-45 37 -84 47t-78.5 5t-82.5 -18t-95 -24q-25 0 -31 15.5t1 31.5l-13.5 -9l-13.5 -9 q-68 -45 -127 -95t-99 -110.5t-54.5 -133.5zM265.5 1202q-11.5 55 21.5 109.5t115 70.5q10 0 18 -8q0 -2 2 -2q35 4 67.5 -1t55.5 -30q25 -31 36 -72.5t3 -82.5t-34 -72t-75 -37q-92 -12 -145 29t-64.5 96zM314.5 1228.5q1.5 -32.5 20.5 -61t54 -45t82 -6.5q31 8 49.5 29.5 t23.5 47.5t-3 53.5t-33 45.5q-18 14 -42.5 14.5t-49.5 -6.5q-12 -8 -21 -6q-10 -4 -19 -7t-19 -7q-14 0 -21 4q-23 -23 -21.5 -55.5zM330.5 505.5q-13.5 22.5 1.5 51.5q33 31 67.5 58.5t69.5 56.5q-25 23 -50 36t-50 3q-18 0 -25.5 9t-7.5 22.5t7 25.5t19 18q27 2 45.5 -4 t33 -19t28.5 -29.5t31 -35.5q0 -2 2 -2q14 10 26.5 21.5t26.5 21.5q18 10 30.5 5t16.5 -17t-1 -27.5t-19 -25.5q-10 -4 -19.5 -8t-19.5 -9q18 -16 37.5 -30.5t37.5 -30.5q16 -25 0 -51.5t-47 -14.5q-12 18 -30.5 47t-40.5 58q-37 -23 -67 -53.5t-56 -75.5 q-33 -23 -46.5 -0.5z" />
<glyph unicode="&#xc6;" horiz-adv-x="1034" d="M14.5 541q8.5 43 10.5 84q2 49 25.5 92t57 81t70.5 71.5t68 62.5q43 41 101.5 59.5t111.5 42.5q47 23 103.5 40t107.5 -3q10 -8 14 -22l61.5 3t40 -4.5t47 -18.5t82.5 -38q29 -12 59 -45t55.5 -72.5t43 -81.5t21.5 -71q4 -31 7 -54.5t7 -39.5q72 -4 142.5 -3t142.5 5 q18 -4 24 -16.5t2 -26t-16 -24.5t-29 -11q-59 4 -125.5 12t-132.5 15q2 -16 2 -28.5t-4 -29.5q74 -8 142.5 -19.5t121.5 -23.5q25 -18 14.5 -47t-42.5 -29q-35 16 -101.5 36t-140.5 32q-4 -16 -5 -34.5t-5 -43.5q-6 -45 -31 -96t-62.5 -101.5t-87 -94.5t-102.5 -76.5 t-108.5 -50t-106.5 -11.5q-45 6 -85 14.5t-75 18.5q0 -14 -7 -27.5t-17 -19.5t-21.5 -3t-19.5 21q-2 10 -4 24.5t-4 30.5q-90 41 -158 108t-139 165q-27 35 -34 79t-20 85q-10 41 -1.5 84zM63.5 456q14.5 -81 55.5 -153t104.5 -131t136.5 -98q-4 43 -7 93t-4 101t0 99.5 t5 85.5q0 14 2 22l4 8q6 35 17 45q12 6 20.5 7.5t18.5 -9.5q2 0 3 -1t3 -1q8 -14 6 -32q-4 -23 -12 -43q-8 -8 -10 -13q-2 -10 -2.5 -21.5t-0.5 -21.5q-2 -12 -2 -25.5t-2 -25.5q-16 -158 27 -301q45 -16 91 -26.5t91 -12.5q59 -2 112.5 19.5t100.5 54.5q51 37 99.5 82 t78.5 98q29 47 45.5 103.5t22.5 115.5q-74 8 -134.5 -2t-82.5 -55q-12 -18 -25.5 -20.5t-22.5 5t-12.5 21.5t7.5 33q4 8 15 26.5t24 22.5q45 14 106.5 17t126.5 -1v29.5t-2 30.5q-76 4 -142.5 5t-117.5 -12q-6 -14 -19.5 -21t-31.5 1q-2 2 -11 6q-10 14 -10 31q6 29 25.5 41 t45 14t52.5 -2t47 -6q39 -4 78 -6l78 -4q-16 92 -59.5 170t-118.5 129q-41 27 -72 37t-62.5 12t-66.5 -3t-82 -7q-18 0 -26.5 9t-8.5 21q-23 -4 -44 -11t-40 -15q-66 -29 -130 -58.5t-118.5 -68.5t-96.5 -93.5t-62 -129.5q-25 -84 -10.5 -165zM272 765q-2 11 1 25.5t14 24.5 q8 4 18 10t21 6q10 0 35.5 -17t56.5 -42q16 14 32.5 26.5t32.5 28.5q16 10 27.5 7t16.5 -13t3 -25.5t-10 -27.5q-16 -8 -30.5 -14t-30.5 -15q37 -29 66.5 -55.5t39.5 -34.5q16 -25 0 -51.5t-47 -13.5q-23 31 -47.5 66.5t-56.5 62.5q-29 -18 -48.5 -45t-23.5 -66 q-4 -14 -15.5 -23.5t-22.5 -10.5t-20.5 7.5t-9.5 26.5q16 43 42 75t59 60q-25 14 -53 19q-2 -2 -4.5 -3t-4.5 -3q-18 -8 -28.5 -2t-12.5 17z" />
<glyph unicode="&#xc7;" horiz-adv-x="831" d="M18.5 287q-12.5 102 3 207.5t57.5 201t103 156.5q29 29 54.5 55.5t54.5 53.5q14 14 66.5 37.5t111.5 39.5q10 8 23 11q4 0 7 -1t7 -1q37 8 69 7.5t48 -14.5q4 -6 6 -11t2 -11q104 -41 180 -121t135 -186q18 -35 14 -75t1 -79q4 -53 -9.5 -102t-38.5 -97q51 4 104.5 10.5 t108.5 16.5q18 -4 23.5 -14.5t3.5 -22.5t-11 -23.5t-22 -17.5q-61 -2 -122.5 -3t-120.5 -3q-37 -53 -80 -99t-82 -85t-111 -69t-151.5 -44t-155.5 -9t-123 40q-25 18 -52.5 33.5t-43.5 42.5q-47 74 -59.5 176zM50 313q3 -82 37 -145.5t110 -91.5q90 -35 182 -33t176 32.5 t155.5 88t120.5 135.5q-117 -4 -232.5 -8t-231.5 -12q-18 2 -24.5 13t-3.5 24.5t13 25.5t27 14q131 -8 247.5 -9t235.5 7q20 45 32.5 92.5t16.5 98.5q6 86 -29.5 159.5t-95 130t-137.5 92.5t-157 42q-27 -6 -56.5 -16.5t-54.5 -20.5t-42 -18.5t-22 -10.5q-49 -33 -99 -98.5 t-88 -147.5t-60.5 -172t-19.5 -172zM143 -253q4 46 27.5 79t72.5 29q23 0 46 -7q10 47 16 93.5t0 93.5q4 14 14 25.5t20.5 15.5t19.5 -2t14 -27q-14 -68 -23.5 -120t-11.5 -93q39 -14 74.5 -28.5t76.5 -24.5q25 -18 14.5 -47t-42.5 -29q-35 10 -67 25.5t-65 31.5 q-16 -16 -36.5 -16t-20.5 33v6q-10 2 -19.5 3t-19.5 1q-29 0 -39 -21.5t-9 -51t9.5 -57.5t14.5 -40q33 -47 92 -68.5t125.5 -20.5t127 24.5t93.5 66.5q18 23 22.5 42.5t0 38.5t-14.5 38.5t-18 42.5q-6 18 -25.5 26.5t-42 13.5t-45 8t-37.5 11q-10 6 -23.5 29t-25.5 46.5 t-21.5 43t-11.5 23.5q-6 12 -4 27.5t10.5 25.5t20.5 12t27 -8q23 -29 38 -63.5t27 -69.5q10 -10 14 -12q20 -8 41 -11.5t41 -11.5q51 -18 75 -71.5t24 -104.5q0 -72 -56.5 -120t-132.5 -71.5t-153.5 -20.5t-122.5 36q-20 16 -43 28.5t-39 34.5q-16 25 -24.5 71t-4.5 92z M526 -100l2 -2z" />
<glyph unicode="&#xc8;" horiz-adv-x="847" d="M-46 436.5q3 71.5 21.5 139t49 134t71.5 136.5q23 41 66 67.5t80 55.5q18 16 40.5 23t45.5 12q-4 14 3 29.5t23 25.5q59 31 124 19.5t126.5 -44.5t116.5 -74.5t96 -70.5q43 -31 73 -74t48 -96t24.5 -113.5t2.5 -122.5h6q18 -4 23 -15t2 -24.5t-14 -24.5t-26 -13 q-10 -72 -33.5 -138.5t-56 -124t-75.5 -100.5t-95 -66q-45 -20 -88 -47.5t-92 -29.5q-61 -2 -99 -5.5t-62.5 -3.5t-41 2.5t-38 10.5t-52 23.5t-84.5 39.5q-35 16 -63.5 56t-51 87.5t-38 94.5t-21.5 78q-14 82 -11 153.5zM4 391q4 -141 62.5 -253.5t170 -173t277.5 -25.5 q82 18 150.5 63t121 108.5t86 140.5t43.5 159q-74 8 -160.5 14t-170.5 8t-155 0t-110 -10q-20 0 -27 11t-5 25.5t12 27t27 14.5q76 4 151.5 -6.5t149.5 -14.5t147.5 -2t147.5 4q0 102 -35 191q-16 45 -43 86t-62 73q-25 23 -59.5 49.5t-75.5 50t-85 42t-87 24.5 q4 -14 -5 -31.5t-26 -23.5q-80 -16 -138 -31.5t-104 -44t-82 -77t-69 -130.5q-51 -127 -47 -268zM264 1210q2 25 20.5 45.5t46.5 35t46 14.5q23 0 54.5 -19.5t63 -44t61.5 -46.5t46 -26q25 -18 14.5 -46.5t-42.5 -28.5q-6 0 -13 6h-2q-72 10 -139.5 18t-128.5 49 q-29 18 -27 43zM295 753.5q-4 14.5 1 28t18.5 22.5t29.5 5q35 -14 61.5 -37.5t53.5 -48.5q31 16 60.5 31.5t53.5 27.5q20 4 29.5 -5t9.5 -22.5t-9 -27.5t-23 -20q-10 -2 -32 -6.5t-50 -14.5h2q39 -33 80 -61.5t82 -57.5q16 -25 -0.5 -51.5t-47.5 -13.5q-37 41 -74.5 86 t-82.5 82q-27 -16 -47.5 -38t-28.5 -57v-4v4q-6 -16 -18.5 -22t-22.5 -3t-16.5 15.5t-1.5 32.5q14 29 39.5 52.5t56.5 45.5q-46 31 -103 37q-16 6 -20 20.5zM307 1225q23 -35 71 -44.5t99 -9.5q-27 25 -54.5 46.5t-51 33t-41 7.5t-23.5 -33zM383 578q0 4 2 6z" />
<glyph unicode="&#xc9;" horiz-adv-x="847" d="M-46 436.5q3 71.5 21.5 139t49 134t71.5 136.5q23 41 66 67.5t80 55.5q18 16 40.5 23t45.5 12q-4 14 3 29.5t23 25.5q59 31 124 19.5t126.5 -44.5t116.5 -74.5t96 -70.5q43 -31 73 -74t48 -96t24.5 -113.5t2.5 -122.5h6q18 -4 23 -15t2 -24.5t-14 -24.5t-26 -13 q-10 -72 -33.5 -138.5t-56 -124t-75.5 -100.5t-95 -66q-45 -20 -88 -47.5t-92 -29.5q-61 -2 -99 -5.5t-62.5 -3.5t-41 2.5t-38 10.5t-52 23.5t-84.5 39.5q-35 16 -63.5 56t-51 87.5t-38 94.5t-21.5 78q-14 82 -11 153.5zM4 391q4 -141 62.5 -253.5t170 -173t277.5 -25.5 q82 18 150.5 63t121 108.5t86 140.5t43.5 159q-74 8 -160.5 14t-170.5 8t-155 0t-110 -10q-20 0 -27 11t-5 25.5t12 27t27 14.5q76 4 151.5 -6.5t149.5 -14.5t147.5 -2t147.5 4q0 102 -35 191q-16 45 -43 86t-62 73q-25 23 -59.5 49.5t-75.5 50t-85 42t-87 24.5 q4 -14 -5 -31.5t-26 -23.5q-80 -16 -138 -31.5t-104 -44t-82 -77t-69 -130.5q-51 -127 -47 -268zM250 1104q10 41 34 82t46 74q25 35 54.5 70.5t70.5 51.5t67.5 -2t36 -54t0 -77t-35.5 -71q-29 -31 -63 -54.5t-75 -44.5q-25 -12 -51 -24.5t-55 -7.5q-15 8 -23 22q-2 6 -2 16 q-4 6 -4 19zM295 753.5q-4 14.5 1 28t18.5 22.5t29.5 5q35 -14 61.5 -37.5t53.5 -48.5q31 16 60.5 31.5t53.5 27.5q20 4 29.5 -5t9.5 -22.5t-9 -27.5t-23 -20q-10 -2 -32 -6.5t-50 -14.5h2q39 -33 80 -61.5t82 -57.5q16 -25 -0.5 -51.5t-47.5 -13.5q-37 41 -74.5 86 t-82.5 82q-27 -16 -47.5 -38t-28.5 -57v-4v4q-6 -16 -18.5 -22t-22.5 -3t-16.5 15.5t-1.5 32.5q14 29 39.5 52.5t56.5 45.5q-46 31 -103 37q-16 6 -20 20.5zM322 1139q2 -4 2 -15q29 6 61.5 17.5t61.5 29t51.5 43t32.5 64.5q-4 59 -33 61t-62.5 -28.5t-66.5 -79.5t-47 -92z M383 578q0 4 2 6z" />
<glyph unicode="&#xca;" horiz-adv-x="847" d="M-46 436.5q3 71.5 21.5 139t49 134t71.5 136.5q23 41 66 67.5t80 55.5q18 16 40.5 23t45.5 12q-4 14 3 29.5t23 25.5q59 31 124 19.5t126.5 -44.5t116.5 -74.5t96 -70.5q43 -31 73 -74t48 -96t24.5 -113.5t2.5 -122.5h6q18 -4 23 -15t2 -24.5t-14 -24.5t-26 -13 q-10 -72 -33.5 -138.5t-56 -124t-75.5 -100.5t-95 -66q-45 -20 -88 -47.5t-92 -29.5q-61 -2 -99 -5.5t-62.5 -3.5t-41 2.5t-38 10.5t-52 23.5t-84.5 39.5q-35 16 -63.5 56t-51 87.5t-38 94.5t-21.5 78q-14 82 -11 153.5zM4 391q4 -141 62.5 -253.5t170 -173t277.5 -25.5 q82 18 150.5 63t121 108.5t86 140.5t43.5 159q-74 8 -160.5 14t-170.5 8t-155 0t-110 -10q-20 0 -27 11t-5 25.5t12 27t27 14.5q76 4 151.5 -6.5t149.5 -14.5t147.5 -2t147.5 4q0 102 -35 191q-16 45 -43 86t-62 73q-25 23 -59.5 49.5t-75.5 50t-85 42t-87 24.5 q4 -14 -5 -31.5t-26 -23.5q-80 -16 -138 -31.5t-104 -44t-82 -77t-69 -130.5q-51 -127 -47 -268zM185.5 1157.5q-11.5 59.5 1 132t45 137t79.5 82.5q20 6 47 13.5t53.5 11.5t52.5 2t42 -10q23 -12 48.5 -22.5t41.5 -30.5q33 -37 53.5 -100.5t16.5 -123t-40 -99.5t-114 -28 q-20 4 -36.5 14.5t-33.5 24.5q-47 -29 -99 -55.5t-103 -15.5q-43 8 -54.5 67.5zM231.5 1199q6.5 -44 24.5 -46q37 -4 72 15.5t69 43.5q-4 20 10.5 37t39.5 11l8 -9l2 2q29 16 41 -1t4 -40q8 -4 15 -9t18 -9q12 -4 24 -2t25 2q51 57 44 118.5t-51 106.5t-115 62.5t-144 -13.5 q-35 -14 -55.5 -64t-29 -105.5t-2 -99.5zM295 753.5q-4 14.5 1 28t18.5 22.5t29.5 5q35 -14 61.5 -37.5t53.5 -48.5q31 16 60.5 31.5t53.5 27.5q20 4 29.5 -5t9.5 -22.5t-9 -27.5t-23 -20q-10 -2 -32 -6.5t-50 -14.5h2q39 -33 80 -61.5t82 -57.5q16 -25 -0.5 -51.5 t-47.5 -13.5q-37 41 -74.5 86t-82.5 82q-27 -16 -47.5 -38t-28.5 -57v-4v4q-6 -16 -18.5 -22t-22.5 -3t-16.5 15.5t-1.5 32.5q14 29 39.5 52.5t56.5 45.5q-46 31 -103 37q-16 6 -20 20.5zM383 578q0 4 2 6z" />
<glyph unicode="&#xcb;" horiz-adv-x="847" d="M-46 436.5q3 71.5 21.5 139t49 134t71.5 136.5q23 41 66 67.5t80 55.5q18 16 40.5 23t45.5 12q-4 14 3 29.5t23 25.5q59 31 124 19.5t126.5 -44.5t116.5 -74.5t96 -70.5q43 -31 73 -74t48 -96t24.5 -113.5t2.5 -122.5h6q18 -4 23 -15t2 -24.5t-14 -24.5t-26 -13 q-10 -72 -33.5 -138.5t-56 -124t-75.5 -100.5t-95 -66q-45 -20 -88 -47.5t-92 -29.5q-61 -2 -99 -5.5t-62.5 -3.5t-41 2.5t-38 10.5t-52 23.5t-84.5 39.5q-35 16 -63.5 56t-51 87.5t-38 94.5t-21.5 78q-14 82 -11 153.5zM4 391q4 -141 62.5 -253.5t170 -173t277.5 -25.5 q82 18 150.5 63t121 108.5t86 140.5t43.5 159q-74 8 -160.5 14t-170.5 8t-155 0t-110 -10q-20 0 -27 11t-5 25.5t12 27t27 14.5q76 4 151.5 -6.5t149.5 -14.5t147.5 -2t147.5 4q0 102 -35 191q-16 45 -43 86t-62 73q-25 23 -59.5 49.5t-75.5 50t-85 42t-87 24.5 q4 -14 -5 -31.5t-26 -23.5q-80 -16 -138 -31.5t-104 -44t-82 -77t-69 -130.5q-51 -127 -47 -268zM207 1252.5q8 50.5 53 66.5q4 6 17 14q68 31 118 23t78 -41q16 10 32 22.5t34 8.5q63 -10 92 -58.5t25 -103t-40 -99.5t-100 -51q-61 -6 -98 35q-16 -12 -38.5 -20.5 t-47.5 -14.5q-37 -10 -69.5 28t-48 89t-7.5 101.5zM254.5 1187.5q5.5 -38.5 27 -67t56.5 -38t72 25.5q8 29 31 33q29 37 28.5 64.5t-17.5 45t-47 24.5t-59 5q-4 -14 -15 -24.5t-30 -10.5q-8 4 -17 10t-15 -2q-20 -27 -14.5 -65.5zM295 753.5q-4 14.5 1 28t18.5 22.5t29.5 5 q35 -14 61.5 -37.5t53.5 -48.5q31 16 60.5 31.5t53.5 27.5q20 4 29.5 -5t9.5 -22.5t-9 -27.5t-23 -20q-10 -2 -32 -6.5t-50 -14.5h2q39 -33 80 -61.5t82 -57.5q16 -25 -0.5 -51.5t-47.5 -13.5q-37 41 -74.5 86t-82.5 82q-27 -16 -47.5 -38t-28.5 -57v-4v4q-6 -16 -18.5 -22 t-22.5 -3t-16.5 15.5t-1.5 32.5q14 29 39.5 52.5t56.5 45.5q-46 31 -103 37q-16 6 -20 20.5zM383 578q0 4 2 6zM475 1122q10 -10 26.5 -19t36 -12.5t39 6t36.5 40.5q10 23 8 51.5t-16.5 50t-40 28t-58.5 -13.5q6 -33 -1 -66.5t-30 -64.5z" />
<glyph unicode="&#xcc;" horiz-adv-x="913" d="M5 161q3 36 16.5 67.5t39.5 54.5q49 43 107.5 64.5t122.5 14.5q4 -2 21.5 -6t33.5 -10q4 31 6 72v33q-20 10 -16 41q-18 -4 -41 -8.5t-39 1.5q-29 10 -59.5 16.5t-53.5 28.5q-86 84 -109.5 179.5t44.5 203.5q16 25 36.5 42.5t41.5 37.5q27 27 64.5 37t78.5 11t81 -2 t71 -3q47 0 106 2t102 -22q119 -14 197 -69.5t94 -180.5q4 -23 -10 -45.5t-25 -44.5q-16 -37 -42.5 -56.5t-56.5 -32t-60.5 -21.5t-55.5 -27q6 -35 7.5 -69t5.5 -69q41 -20 86 -35.5t80 -50.5q55 -55 68.5 -103t-1 -91t-50.5 -84t-79 -82q-45 -43 -137 -72.5t-194.5 -40 t-194.5 4t-137 57.5q-31 31 -65 58.5t-56 64.5q-16 29 -23.5 63.5t-4.5 70.5zM53 133q20 -84 80 -140t137.5 -84t167.5 -29t174 21.5t155 67.5t110 113q10 18 16 39.5t0 42.5q-10 37 -27.5 61.5t-42 40t-53.5 25.5t-59 22q-14 -18 -36 -18t-22 35q2 10 4 18t5 17q0 8 2 12 q6 35 0.5 66.5t-29.5 66.5v2q-18 18 -2 55q20 27 52 40.5t66.5 24.5t69.5 26.5t62 46.5q39 43 31.5 83.5t-39 74.5t-77.5 56.5t-83 28.5q-8 2 -14.5 2t-10.5 2q-8 -20 -23.5 -29.5t-31.5 13.5q-8 8 -12 10q-16 -4 -35 -11t-47 -17q-29 0 -33 19t6 36q-23 2 -44 1t-34 1 q-55 4 -114.5 7t-110.5 -10.5t-89 -50t-50 -110.5q-10 -57 2 -99t41.5 -73t70.5 -52.5t90 -33.5q18 -4 41 1t44.5 9t36 0t14.5 -28q4 -16 -2 -31q-6 -8 -14.5 -54.5t-0.5 -115.5q14 -4 20.5 -19.5t0.5 -35.5q-18 -29 -39 -29q-10 -6 -22.5 -5t-16.5 13q-2 0 -4 2 q-8 4 -15.5 8t-17.5 8l-2 3q-2 0 -3 1t1 1q-59 20 -123 0q-33 -10 -63.5 -30t-47.5 -52q-4 -10 -4 -21.5t-6 -21.5v-23zM53 166v8v-8zM297 1210q2 25 20.5 45.5t46.5 35t46 14.5q23 0 54.5 -19.5t63 -44t61.5 -46.5t46 -26q25 -18 14.5 -46.5t-42.5 -28.5q-6 0 -13 6h-2 q-72 10 -139.5 18t-128.5 49q-29 18 -27 43zM340 1225q23 -35 71 -44.5t99 -9.5q-27 25 -54.5 46.5t-51 33t-41 7.5t-23.5 -33z" />
<glyph unicode="&#xcd;" horiz-adv-x="913" d="M5 161q3 36 16.5 67.5t39.5 54.5q49 43 107.5 64.5t122.5 14.5q4 -2 21.5 -6t33.5 -10q4 31 6 72v33q-20 10 -16 41q-18 -4 -41 -8.5t-39 1.5q-29 10 -59.5 16.5t-53.5 28.5q-86 84 -109.5 179.5t44.5 203.5q16 25 36.5 42.5t41.5 37.5q27 27 64.5 37t78.5 11t81 -2 t71 -3q47 0 106 2t102 -22q119 -14 197 -69.5t94 -180.5q4 -23 -10 -45.5t-25 -44.5q-16 -37 -42.5 -56.5t-56.5 -32t-60.5 -21.5t-55.5 -27q6 -35 7.5 -69t5.5 -69q41 -20 86 -35.5t80 -50.5q55 -55 68.5 -103t-1 -91t-50.5 -84t-79 -82q-45 -43 -137 -72.5t-194.5 -40 t-194.5 4t-137 57.5q-31 31 -65 58.5t-56 64.5q-16 29 -23.5 63.5t-4.5 70.5zM53 133q20 -84 80 -140t137.5 -84t167.5 -29t174 21.5t155 67.5t110 113q10 18 16 39.5t0 42.5q-10 37 -27.5 61.5t-42 40t-53.5 25.5t-59 22q-14 -18 -36 -18t-22 35q2 10 4 18t5 17q0 8 2 12 q6 35 0.5 66.5t-29.5 66.5v2q-18 18 -2 55q20 27 52 40.5t66.5 24.5t69.5 26.5t62 46.5q39 43 31.5 83.5t-39 74.5t-77.5 56.5t-83 28.5q-8 2 -14.5 2t-10.5 2q-8 -20 -23.5 -29.5t-31.5 13.5q-8 8 -12 10q-16 -4 -35 -11t-47 -17q-29 0 -33 19t6 36q-23 2 -44 1t-34 1 q-55 4 -114.5 7t-110.5 -10.5t-89 -50t-50 -110.5q-10 -57 2 -99t41.5 -73t70.5 -52.5t90 -33.5q18 -4 41 1t44.5 9t36 0t14.5 -28q4 -16 -2 -31q-6 -8 -14.5 -54.5t-0.5 -115.5q14 -4 20.5 -19.5t0.5 -35.5q-18 -29 -39 -29q-10 -6 -22.5 -5t-16.5 13q-2 0 -4 2 q-8 4 -15.5 8t-17.5 8l-2 3q-2 0 -3 1t1 1q-59 20 -123 0q-33 -10 -63.5 -30t-47.5 -52q-4 -10 -4 -21.5t-6 -21.5v-23zM53 166v8v-8zM282 1104q10 41 34 82t46 74q25 35 54.5 70.5t70.5 51.5t67.5 -2t36 -54t0 -77t-35.5 -71q-29 -31 -63 -54.5t-75 -44.5 q-25 -12 -51 -24.5t-55 -7.5q-15 8 -23 22q-2 6 -2 16q-4 6 -4 19zM354 1139q2 -4 2 -15q29 6 61.5 17.5t61.5 29t51.5 43t32.5 64.5q-4 59 -33 61t-62.5 -28.5t-66.5 -79.5t-47 -92z" />
<glyph unicode="&#xce;" horiz-adv-x="913" d="M5 161q3 36 16.5 67.5t39.5 54.5q49 43 107.5 64.5t122.5 14.5q4 -2 21.5 -6t33.5 -10q4 31 6 72v33q-20 10 -16 41q-18 -4 -41 -8.5t-39 1.5q-29 10 -59.5 16.5t-53.5 28.5q-86 84 -109.5 179.5t44.5 203.5q16 25 36.5 42.5t41.5 37.5q27 27 64.5 37t78.5 11t81 -2 t71 -3q47 0 106 2t102 -22q119 -14 197 -69.5t94 -180.5q4 -23 -10 -45.5t-25 -44.5q-16 -37 -42.5 -56.5t-56.5 -32t-60.5 -21.5t-55.5 -27q6 -35 7.5 -69t5.5 -69q41 -20 86 -35.5t80 -50.5q55 -55 68.5 -103t-1 -91t-50.5 -84t-79 -82q-45 -43 -137 -72.5t-194.5 -40 t-194.5 4t-137 57.5q-31 31 -65 58.5t-56 64.5q-16 29 -23.5 63.5t-4.5 70.5zM53 133q20 -84 80 -140t137.5 -84t167.5 -29t174 21.5t155 67.5t110 113q10 18 16 39.5t0 42.5q-10 37 -27.5 61.5t-42 40t-53.5 25.5t-59 22q-14 -18 -36 -18t-22 35q2 10 4 18t5 17q0 8 2 12 q6 35 0.5 66.5t-29.5 66.5v2q-18 18 -2 55q20 27 52 40.5t66.5 24.5t69.5 26.5t62 46.5q39 43 31.5 83.5t-39 74.5t-77.5 56.5t-83 28.5q-8 2 -14.5 2t-10.5 2q-8 -20 -23.5 -29.5t-31.5 13.5q-8 8 -12 10q-16 -4 -35 -11t-47 -17q-29 0 -33 19t6 36q-23 2 -44 1t-34 1 q-55 4 -114.5 7t-110.5 -10.5t-89 -50t-50 -110.5q-10 -57 2 -99t41.5 -73t70.5 -52.5t90 -33.5q18 -4 41 1t44.5 9t36 0t14.5 -28q4 -16 -2 -31q-6 -8 -14.5 -54.5t-0.5 -115.5q14 -4 20.5 -19.5t0.5 -35.5q-18 -29 -39 -29q-10 -6 -22.5 -5t-16.5 13q-2 0 -4 2 q-8 4 -15.5 8t-17.5 8l-2 3q-2 0 -3 1t1 1q-59 20 -123 0q-33 -10 -63.5 -30t-47.5 -52q-4 -10 -4 -21.5t-6 -21.5v-23zM53 166v8v-8zM218.5 1157.5q-11.5 59.5 1 132t45 137t79.5 82.5q20 6 47 13.5t53.5 11.5t52.5 2t42 -10q23 -12 48.5 -22.5t41.5 -30.5 q33 -37 53.5 -100.5t16.5 -123t-40 -99.5t-114 -28q-20 4 -36.5 14.5t-33.5 24.5q-47 -29 -99 -55.5t-103 -15.5q-43 8 -54.5 67.5zM264.5 1199q6.5 -44 24.5 -46q37 -4 72 15.5t69 43.5q-4 20 10.5 37t39.5 11l8 -9l2 2q29 16 41 -1t4 -40q8 -4 15 -9t18 -9q12 -4 24 -2 t25 2q51 57 44 118.5t-51 106.5t-115 62.5t-144 -13.5q-35 -14 -55.5 -64t-29 -105.5t-2 -99.5z" />
<glyph unicode="&#xcf;" horiz-adv-x="913" d="M5 161q3 36 16.5 67.5t39.5 54.5q49 43 107.5 64.5t122.5 14.5q4 -2 21.5 -6t33.5 -10q4 31 6 72v33q-20 10 -16 41q-18 -4 -41 -8.5t-39 1.5q-29 10 -59.5 16.5t-53.5 28.5q-86 84 -109.5 179.5t44.5 203.5q16 25 36.5 42.5t41.5 37.5q27 27 64.5 37t78.5 11t81 -2 t71 -3q47 0 106 2t102 -22q119 -14 197 -69.5t94 -180.5q4 -23 -10 -45.5t-25 -44.5q-16 -37 -42.5 -56.5t-56.5 -32t-60.5 -21.5t-55.5 -27q6 -35 7.5 -69t5.5 -69q41 -20 86 -35.5t80 -50.5q55 -55 68.5 -103t-1 -91t-50.5 -84t-79 -82q-45 -43 -137 -72.5t-194.5 -40 t-194.5 4t-137 57.5q-31 31 -65 58.5t-56 64.5q-16 29 -23.5 63.5t-4.5 70.5zM53 133q20 -84 80 -140t137.5 -84t167.5 -29t174 21.5t155 67.5t110 113q10 18 16 39.5t0 42.5q-10 37 -27.5 61.5t-42 40t-53.5 25.5t-59 22q-14 -18 -36 -18t-22 35q2 10 4 18t5 17q0 8 2 12 q6 35 0.5 66.5t-29.5 66.5v2q-18 18 -2 55q20 27 52 40.5t66.5 24.5t69.5 26.5t62 46.5q39 43 31.5 83.5t-39 74.5t-77.5 56.5t-83 28.5q-8 2 -14.5 2t-10.5 2q-8 -20 -23.5 -29.5t-31.5 13.5q-8 8 -12 10q-16 -4 -35 -11t-47 -17q-29 0 -33 19t6 36q-23 2 -44 1t-34 1 q-55 4 -114.5 7t-110.5 -10.5t-89 -50t-50 -110.5q-10 -57 2 -99t41.5 -73t70.5 -52.5t90 -33.5q18 -4 41 1t44.5 9t36 0t14.5 -28q4 -16 -2 -31q-6 -8 -14.5 -54.5t-0.5 -115.5q14 -4 20.5 -19.5t0.5 -35.5q-18 -29 -39 -29q-10 -6 -22.5 -5t-16.5 13q-2 0 -4 2 q-8 4 -15.5 8t-17.5 8l-2 3q-2 0 -3 1t1 1q-59 20 -123 0q-33 -10 -63.5 -30t-47.5 -52q-4 -10 -4 -21.5t-6 -21.5v-23zM53 166v8v-8zM239 1252.5q8 50.5 53 66.5q4 6 17 14q68 31 118 23t78 -41q16 10 32 22.5t34 8.5q63 -10 92 -58.5t25 -103t-40 -99.5t-100 -51 q-61 -6 -98 35q-16 -12 -38.5 -20.5t-47.5 -14.5q-37 -10 -69.5 28t-48 89t-7.5 101.5zM286.5 1187.5q5.5 -38.5 27 -67t56.5 -38t72 25.5q8 29 31 33q29 37 28.5 64.5t-17.5 45t-47 24.5t-59 5q-4 -14 -15 -24.5t-30 -10.5q-8 4 -17 10t-15 -2q-20 -27 -14.5 -65.5z M507 1122q10 -10 26.5 -19t36 -12.5t39 6t36.5 40.5q10 23 8 51.5t-16.5 50t-40 28t-58.5 -13.5q6 -33 -1 -66.5t-30 -64.5z" />
<glyph unicode="&#xd0;" horiz-adv-x="987" d="M-221 565q4 43 13 53.5t22.5 12.5t32 9t42.5 44q12 20 30 78.5t37 123t40.5 119t42.5 68.5q29 18 79 26.5t100 3.5t92.5 -25.5t54.5 -61.5q10 -27 13 -42.5t5 -31.5q82 35 167 59.5t175 32.5q43 2 95 -1t102.5 -19.5t90.5 -46t58 -78.5q18 -47 16 -101.5t-6 -103.5 q-10 -98 -29.5 -203.5t-61.5 -200t-111.5 -168t-176.5 -110.5q-27 -8 -57.5 -3t-61 16.5t-59 26.5t-51.5 28q-23 10 -50.5 21t-49.5 28q-10 -14 -23.5 -25.5t-25.5 -25.5q-25 -27 -51.5 -52.5t-57.5 -45t-65.5 -29t-75.5 -0.5q-23 4 -50.5 5t-46.5 17q-31 27 -49 77 t-29.5 108.5t-17.5 117t-8 101.5q-4 45 -20.5 64.5t-34 34.5t-30.5 34.5t-9 64.5zM-197 516q0 -10 15.5 -22.5t35 -24.5t36 -24.5t16.5 -22.5q0 -193 40 -301.5t140 -118.5q27 -2 56.5 5t52.5 20q29 18 47 41.5t39 46.5q10 10 24 21.5t14 21.5q6 27 27 37q8 12 21.5 15 t27.5 -7q23 -23 55.5 -37t57.5 -31q45 -25 94 -50.5t105 -18.5q80 10 140 72.5t101 147.5t63.5 177t28.5 160q6 70 6.5 132t-20 109t-70 77t-141.5 34q-49 4 -99 -3t-98 -20q-66 -16 -125 -39.5t-118 -52.5q-14 -20 -37 -21t-23 33q2 29 2 52.5t-12 52.5q-18 41 -57 59.5 t-81 18.5t-79 -19.5t-55 -56.5q-16 -35 -29.5 -58.5t-19.5 -60.5q0 2 -5.5 -18.5t-12.5 -45t-13 -47t-6 -24.5q-2 -66 -39 -96.5t-96 -46.5zM309 688q0 14 6.5 27.5t16.5 20.5t21.5 6t21.5 -17q8 -29 25.5 -49.5t39.5 -34.5q27 23 46.5 53.5t54.5 44.5q33 6 37 -18.5 t-13 -44.5q0 -2 -1 -3t-1 -3q-18 -14 -33 -11q-16 -10 -29.5 -18t-23.5 -18q39 -16 81 -23.5t79 -13.5q25 -18 14.5 -47t-43.5 -29q-35 18 -80 35.5t-90 40.5q-16 -20 -33.5 -45t-39.5 -54q-18 -12 -30.5 -9t-18 13.5t-3.5 27t15 28.5l71 59q-29 16 -52.5 36.5t-37.5 45.5z " />
<glyph unicode="&#xd1;" horiz-adv-x="821" d="M-43 469q6 45 6 89t17 85q16 41 27 83t40 77q35 43 73 89t85 81q-10 6 -13.5 17t2 22.5t14.5 21.5t23 13q35 6 75 14t82 13t84 5t81 -10q23 90 55.5 175t91.5 177q14 16 27.5 16.5t21 -10t7.5 -27t-11 -30.5q-55 -68 -91 -142.5t-62 -172.5q6 -4 11 -6t11 -7 q37 -23 76 -40t66 -52q27 -33 57.5 -62.5t44.5 -70.5q33 -84 54.5 -170t20.5 -172t-32 -168t-100 -153q-39 -39 -88 -66t-99 -55q-57 -33 -115.5 -64.5t-125.5 -42.5h-11q4 -23 5.5 -46t5.5 -46q0 -14 -8.5 -26.5t-18.5 -17.5t-21.5 -1t-19.5 21v116q-47 6 -91 25.5 t-82 49.5t-67.5 69t-44.5 82q-29 82 -51 154.5t-12 162.5zM9 367.5q11 -101.5 52 -189.5q37 -82 106 -137t138 -72q2 178 19 357q2 10 2 20t4 21q-14 14 -8 41q8 20 16 39.5t16 39.5q14 27 35 24t19 -36q-4 -16 -9.5 -32.5t-9.5 -32.5q-4 -8 -5 -15.5t-3 -13.5q-2 -2 -2 -4 q-8 -25 -12 -53q-16 -90 -16.5 -178.5t7.5 -178.5q18 0 35 6q39 14 99.5 39t120 55.5t110.5 66.5t72 71q18 35 38.5 67.5t32.5 67.5q31 88 25 186.5t-43 187.5t-103.5 159.5t-158.5 103.5q-6 0 -11 4q-12 -53 -21 -111.5t-19 -124.5q-6 -49 -15.5 -103t-13.5 -110.5 t2 -110.5t29 -99q2 -12 -2.5 -26.5t-13.5 -24t-20.5 -10.5t-23.5 13q-25 55 -28 115t3.5 120t19.5 120.5t24 115.5q12 66 22 127.5t21 118.5q-41 10 -74 13.5t-66 -0.5q-4 -12 -12 -24.5t-20 -16.5q-43 -4 -81 -21.5t-73 -46.5q-80 -59 -129 -145t-67.5 -183.5t-7.5 -199z M170 1178.5q-2 56.5 14.5 108.5t51.5 65q29 10 46 12t33.5 -3t34 -15.5t46.5 -24.5q8 -4 15 -12.5t15 -18.5q2 0 3 1t4 1q14 0 34.5 7.5t41 12.5t40 7t31.5 -6q37 -23 42 -63t-10.5 -81t-45 -73.5t-62.5 -42.5q-39 -10 -73.5 9t-69.5 36q-8 -8 -12 -11q-18 -10 -37 -23 t-41 -17q-49 -8 -74 33.5t-27 98zM215.5 1250.5q-4.5 -33.5 3 -71.5t21.5 -59q13 0 29 -4q10 6 17 12.5t18 12.5q0 18 14 33.5t37 11.5q18 -6 34.5 -18.5t33 -26t33.5 -24.5t36 -15q20 -4 37.5 8t29 31.5t15.5 45t0 48.5q-2 10 -4 15t-13 7q-4 2 -17 -2t-30.5 -10t-35 -13 t-29.5 -13q-12 -12 -31 -13q-12 2 -27.5 16.5t-31 31t-32.5 33t-32 22.5q-37 14 -54 -5.5t-21.5 -53z" />
<glyph unicode="&#xd2;" horiz-adv-x="1026" d="M16.5 424q8.5 78 36 151.5t68.5 143t84 133.5q66 94 166 145.5t211 57.5q10 0 19 1t20 -1q29 2 53 -9.5t46.5 -26.5t46.5 -33.5t50 -33.5q31 -16 66 -29.5t67.5 -32t60 -43t40.5 -61.5q51 -133 59 -256.5t-31 -232.5t-125 -197t-219 -149q-45 -20 -102.5 -50t-110.5 -26 t-102 27.5t-101 42.5q-41 16 -77.5 38.5t-65.5 55.5q-23 27 -46.5 51.5t-45.5 50.5q-23 27 -33 59.5t-20 65.5q-23 80 -14.5 158zM64.5 359.5q1.5 -107.5 63.5 -203t206 -170.5q10 -4 33.5 -16.5t51 -25t57.5 -21.5t54 -9q51 0 102.5 27.5t94.5 48.5q117 55 194.5 137 t114.5 180.5t29 211t-64 231.5q-14 31 -39.5 51t-56.5 34.5t-62.5 26.5t-58.5 25q-39 18 -71.5 48t-71.5 40q-14 -10 -35 -2q-2 0 -2 1t-2 1q-4 -2 -10 -4t-10 -4q-31 -12 -39 10q-6 -2 -17 -2q-86 -6 -161.5 -52t-124.5 -116q-78 -111 -127.5 -225.5t-48 -222zM352 1210 q2 25 20.5 45.5t46.5 35t46 14.5q23 0 54.5 -19.5t63 -44t61.5 -46.5t46 -26q25 -18 14.5 -46.5t-42.5 -28.5q-6 0 -13 6h-2q-72 10 -139.5 18t-128.5 49q-29 18 -27 43zM395 1225q23 -35 71 -44.5t99 -9.5q-27 25 -54.5 46.5t-51 33t-41 7.5t-23.5 -33zM565 134 q-2 11 1 25.5t14 24.5q37 14 71 41q-29 23 -50.5 50.5t-33.5 60.5q0 14 6.5 27.5t16.5 20.5t21.5 6t21.5 -17q2 -43 17.5 -71t37.5 -44q23 23 38 50.5t19 60.5q8 14 19.5 21t22 5t17.5 -12t5 -29q-12 -29 -33.5 -58.5t-48.5 -57.5q29 -10 55.5 -12.5t44.5 -0.5 q18 -4 24.5 -16t2.5 -25.5t-16.5 -25t-28.5 -11.5q-61 16 -119 50q-23 -23 -44 -42.5t-40 -35.5q-18 -8 -28.5 -2t-12.5 17z" />
<glyph unicode="&#xd3;" horiz-adv-x="1026" d="M16.5 424q8.5 78 36 151.5t68.5 143t84 133.5q66 94 166 145.5t211 57.5q10 0 19 1t20 -1q29 2 53 -9.5t46.5 -26.5t46.5 -33.5t50 -33.5q31 -16 66 -29.5t67.5 -32t60 -43t40.5 -61.5q51 -133 59 -256.5t-31 -232.5t-125 -197t-219 -149q-45 -20 -102.5 -50t-110.5 -26 t-102 27.5t-101 42.5q-41 16 -77.5 38.5t-65.5 55.5q-23 27 -46.5 51.5t-45.5 50.5q-23 27 -33 59.5t-20 65.5q-23 80 -14.5 158zM64.5 359.5q1.5 -107.5 63.5 -203t206 -170.5q10 -4 33.5 -16.5t51 -25t57.5 -21.5t54 -9q51 0 102.5 27.5t94.5 48.5q117 55 194.5 137 t114.5 180.5t29 211t-64 231.5q-14 31 -39.5 51t-56.5 34.5t-62.5 26.5t-58.5 25q-39 18 -71.5 48t-71.5 40q-14 -10 -35 -2q-2 0 -2 1t-2 1q-4 -2 -10 -4t-10 -4q-31 -12 -39 10q-6 -2 -17 -2q-86 -6 -161.5 -52t-124.5 -116q-78 -111 -127.5 -225.5t-48 -222zM340 1104 q10 41 34 82t46 74q25 35 54.5 70.5t70.5 51.5t67.5 -2t36 -54t0 -77t-35.5 -71q-29 -31 -63 -54.5t-75 -44.5q-25 -12 -51 -24.5t-55 -7.5q-15 8 -23 22q-2 6 -2 16q-4 6 -4 19zM412 1139q2 -4 2 -15q29 6 61.5 17.5t61.5 29t51.5 43t32.5 64.5q-4 59 -33 61t-62.5 -28.5 t-66.5 -79.5t-47 -92zM565 134q-2 11 1 25.5t14 24.5q37 14 71 41q-29 23 -50.5 50.5t-33.5 60.5q0 14 6.5 27.5t16.5 20.5t21.5 6t21.5 -17q2 -43 17.5 -71t37.5 -44q23 23 38 50.5t19 60.5q8 14 19.5 21t22 5t17.5 -12t5 -29q-12 -29 -33.5 -58.5t-48.5 -57.5 q29 -10 55.5 -12.5t44.5 -0.5q18 -4 24.5 -16t2.5 -25.5t-16.5 -25t-28.5 -11.5q-61 16 -119 50q-23 -23 -44 -42.5t-40 -35.5q-18 -8 -28.5 -2t-12.5 17z" />
<glyph unicode="&#xd4;" horiz-adv-x="1026" d="M16.5 424q8.5 78 36 151.5t68.5 143t84 133.5q66 94 166 145.5t211 57.5q10 0 19 1t20 -1q29 2 53 -9.5t46.5 -26.5t46.5 -33.5t50 -33.5q31 -16 66 -29.5t67.5 -32t60 -43t40.5 -61.5q51 -133 59 -256.5t-31 -232.5t-125 -197t-219 -149q-45 -20 -102.5 -50t-110.5 -26 t-102 27.5t-101 42.5q-41 16 -77.5 38.5t-65.5 55.5q-23 27 -46.5 51.5t-45.5 50.5q-23 27 -33 59.5t-20 65.5q-23 80 -14.5 158zM64.5 359.5q1.5 -107.5 63.5 -203t206 -170.5q10 -4 33.5 -16.5t51 -25t57.5 -21.5t54 -9q51 0 102.5 27.5t94.5 48.5q117 55 194.5 137 t114.5 180.5t29 211t-64 231.5q-14 31 -39.5 51t-56.5 34.5t-62.5 26.5t-58.5 25q-39 18 -71.5 48t-71.5 40q-14 -10 -35 -2q-2 0 -2 1t-2 1q-4 -2 -10 -4t-10 -4q-31 -12 -39 10q-6 -2 -17 -2q-86 -6 -161.5 -52t-124.5 -116q-78 -111 -127.5 -225.5t-48 -222z M273.5 1157.5q-11.5 59.5 1 132t45 137t79.5 82.5q20 6 47 13.5t53.5 11.5t52.5 2t42 -10q23 -12 48.5 -22.5t41.5 -30.5q33 -37 53.5 -100.5t16.5 -123t-40 -99.5t-114 -28q-20 4 -36.5 14.5t-33.5 24.5q-47 -29 -99 -55.5t-103 -15.5q-43 8 -54.5 67.5zM319.5 1199 q6.5 -44 24.5 -46q37 -4 72 15.5t69 43.5q-4 20 10.5 37t39.5 11l8 -9l2 2q29 16 41 -1t4 -40q8 -4 15 -9t18 -9q12 -4 24 -2t25 2q51 57 44 118.5t-51 106.5t-115 62.5t-144 -13.5q-35 -14 -55.5 -64t-29 -105.5t-2 -99.5zM565 134q-2 11 1 25.5t14 24.5q37 14 71 41 q-29 23 -50.5 50.5t-33.5 60.5q0 14 6.5 27.5t16.5 20.5t21.5 6t21.5 -17q2 -43 17.5 -71t37.5 -44q23 23 38 50.5t19 60.5q8 14 19.5 21t22 5t17.5 -12t5 -29q-12 -29 -33.5 -58.5t-48.5 -57.5q29 -10 55.5 -12.5t44.5 -0.5q18 -4 24.5 -16t2.5 -25.5t-16.5 -25 t-28.5 -11.5q-61 16 -119 50q-23 -23 -44 -42.5t-40 -35.5q-18 -8 -28.5 -2t-12.5 17z" />
<glyph unicode="&#xd5;" horiz-adv-x="1026" d="M16.5 424q8.5 78 36 151.5t68.5 143t84 133.5q66 94 166 145.5t211 57.5q10 0 19 1t20 -1q29 2 53 -9.5t46.5 -26.5t46.5 -33.5t50 -33.5q31 -16 66 -29.5t67.5 -32t60 -43t40.5 -61.5q51 -133 59 -256.5t-31 -232.5t-125 -197t-219 -149q-45 -20 -102.5 -50t-110.5 -26 t-102 27.5t-101 42.5q-41 16 -77.5 38.5t-65.5 55.5q-23 27 -46.5 51.5t-45.5 50.5q-23 27 -33 59.5t-20 65.5q-23 80 -14.5 158zM64.5 359.5q1.5 -107.5 63.5 -203t206 -170.5q10 -4 33.5 -16.5t51 -25t57.5 -21.5t54 -9q51 0 102.5 27.5t94.5 48.5q117 55 194.5 137 t114.5 180.5t29 211t-64 231.5q-14 31 -39.5 51t-56.5 34.5t-62.5 26.5t-58.5 25q-39 18 -71.5 48t-71.5 40q-14 -10 -35 -2q-2 0 -2 1t-2 1q-4 -2 -10 -4t-10 -4q-31 -12 -39 10q-6 -2 -17 -2q-86 -6 -161.5 -52t-124.5 -116q-78 -111 -127.5 -225.5t-48 -222zM272 1178.5 q-2 56.5 14.5 108.5t51.5 65q29 10 46 12t33.5 -3t34 -15.5t46.5 -24.5q8 -4 15 -12.5t15 -18.5q2 0 3 1t4 1q14 0 34.5 7.5t41 12.5t40 7t31.5 -6q37 -23 42 -63t-10.5 -81t-45 -73.5t-62.5 -42.5q-39 -10 -73.5 9t-69.5 36q-8 -8 -12 -11q-18 -10 -37 -23t-41 -17 q-49 -8 -74 33.5t-27 98zM317.5 1250.5q-4.5 -33.5 3 -71.5t21.5 -59q13 0 29 -4q10 6 17 12.5t18 12.5q0 18 14 33.5t37 11.5q18 -6 34.5 -18.5t33 -26t33.5 -24.5t36 -15q20 -4 37.5 8t29 31.5t15.5 45t0 48.5q-2 10 -4 15t-13 7q-4 2 -17 -2t-30.5 -10t-35 -13t-29.5 -13 q-12 -12 -31 -13q-12 2 -27.5 16.5t-31 31t-32.5 33t-32 22.5q-37 14 -54 -5.5t-21.5 -53zM565 134q-2 11 1 25.5t14 24.5q37 14 71 41q-29 23 -50.5 50.5t-33.5 60.5q0 14 6.5 27.5t16.5 20.5t21.5 6t21.5 -17q2 -43 17.5 -71t37.5 -44q23 23 38 50.5t19 60.5q8 14 19.5 21 t22 5t17.5 -12t5 -29q-12 -29 -33.5 -58.5t-48.5 -57.5q29 -10 55.5 -12.5t44.5 -0.5q18 -4 24.5 -16t2.5 -25.5t-16.5 -25t-28.5 -11.5q-61 16 -119 50q-23 -23 -44 -42.5t-40 -35.5q-18 -8 -28.5 -2t-12.5 17z" />
<glyph unicode="&#xd6;" horiz-adv-x="1026" d="M16.5 424q8.5 78 36 151.5t68.5 143t84 133.5q66 94 166 145.5t211 57.5q10 0 19 1t20 -1q29 2 53 -9.5t46.5 -26.5t46.5 -33.5t50 -33.5q31 -16 66 -29.5t67.5 -32t60 -43t40.5 -61.5q51 -133 59 -256.5t-31 -232.5t-125 -197t-219 -149q-45 -20 -102.5 -50t-110.5 -26 t-102 27.5t-101 42.5q-41 16 -77.5 38.5t-65.5 55.5q-23 27 -46.5 51.5t-45.5 50.5q-23 27 -33 59.5t-20 65.5q-23 80 -14.5 158zM64.5 359.5q1.5 -107.5 63.5 -203t206 -170.5q10 -4 33.5 -16.5t51 -25t57.5 -21.5t54 -9q51 0 102.5 27.5t94.5 48.5q117 55 194.5 137 t114.5 180.5t29 211t-64 231.5q-14 31 -39.5 51t-56.5 34.5t-62.5 26.5t-58.5 25q-39 18 -71.5 48t-71.5 40q-14 -10 -35 -2q-2 0 -2 1t-2 1q-4 -2 -10 -4t-10 -4q-31 -12 -39 10q-6 -2 -17 -2q-86 -6 -161.5 -52t-124.5 -116q-78 -111 -127.5 -225.5t-48 -222zM295 1252.5 q8 50.5 53 66.5q4 6 17 14q68 31 118 23t78 -41q16 10 32 22.5t34 8.5q63 -10 92 -58.5t25 -103t-40 -99.5t-100 -51q-61 -6 -98 35q-16 -12 -38.5 -20.5t-47.5 -14.5q-37 -10 -69.5 28t-48 89t-7.5 101.5zM342.5 1187.5q5.5 -38.5 27 -67t56.5 -38t72 25.5q8 29 31 33 q29 37 28.5 64.5t-17.5 45t-47 24.5t-59 5q-4 -14 -15 -24.5t-30 -10.5q-8 4 -17 10t-15 -2q-20 -27 -14.5 -65.5zM563 1122q10 -10 26.5 -19t36 -12.5t39 6t36.5 40.5q10 23 8 51.5t-16.5 50t-40 28t-58.5 -13.5q6 -33 -1 -66.5t-30 -64.5zM565 134q-2 11 1 25.5t14 24.5 q37 14 71 41q-29 23 -50.5 50.5t-33.5 60.5q0 14 6.5 27.5t16.5 20.5t21.5 6t21.5 -17q2 -43 17.5 -71t37.5 -44q23 23 38 50.5t19 60.5q8 14 19.5 21t22 5t17.5 -12t5 -29q-12 -29 -33.5 -58.5t-48.5 -57.5q29 -10 55.5 -12.5t44.5 -0.5q18 -4 24.5 -16t2.5 -25.5 t-16.5 -25t-28.5 -11.5q-61 16 -119 50q-23 -23 -44 -42.5t-40 -35.5q-18 -8 -28.5 -2t-12.5 17z" />
<glyph unicode="&#xd8;" horiz-adv-x="1026" d="M16.5 424q8.5 78 36 151.5t68.5 143t84 133.5q66 94 166 145.5t211 57.5q10 0 19 1t20 -1q29 2 53 -9.5t46.5 -26.5t46.5 -33.5t50 -33.5q31 -16 66 -29.5t67.5 -32t60 -43t40.5 -61.5q51 -133 59 -256.5t-31 -232.5t-125 -197t-219 -149q-45 -20 -102.5 -50t-110.5 -26 t-102 27.5t-101 42.5q-41 16 -77.5 38.5t-65.5 55.5q-23 27 -46.5 51.5t-45.5 50.5q-23 27 -33 59.5t-20 65.5q-23 80 -14.5 158zM64.5 359.5q1.5 -107.5 63.5 -203t206 -170.5q10 -4 33.5 -16.5t51 -25t57.5 -21.5t54 -9q51 0 102.5 27.5t94.5 48.5q117 55 194.5 137 t114.5 180.5t29 211t-64 231.5q-14 31 -39.5 51t-56.5 34.5t-62.5 26.5t-58.5 25q-39 18 -71.5 48t-71.5 40q-14 -10 -35 -2q-2 0 -2 1t-2 1q-4 -2 -10 -4t-10 -4q-31 -12 -39 10q-6 -2 -17 -2q-86 -6 -161.5 -52t-124.5 -116q-78 -111 -127.5 -225.5t-48 -222zM113 -406 q14 59 22.5 118.5t30.5 117.5q76 205 177.5 381t227.5 329.5t277.5 288.5t329.5 258q18 10 30.5 5t16.5 -17t-1 -27.5t-19 -25.5q-172 -109 -329 -235t-285 -274.5t-224 -322.5t-147 -379q-14 -53 -21.5 -108.5t-17.5 -108.5q-4 -14 -15.5 -23.5t-22.5 -10.5t-20.5 7.5 t-9.5 26.5zM565 134q-2 11 1 25.5t14 24.5q37 14 71 41q-29 23 -50.5 50.5t-33.5 60.5q0 14 6.5 27.5t16.5 20.5t21.5 6t21.5 -17q2 -43 17.5 -71t37.5 -44q23 23 38 50.5t19 60.5q8 14 19.5 21t22 5t17.5 -12t5 -29q-12 -29 -33.5 -58.5t-48.5 -57.5q29 -10 55.5 -12.5 t44.5 -0.5q18 -4 24.5 -16t2.5 -25.5t-16.5 -25t-28.5 -11.5q-61 16 -119 50q-23 -23 -44 -42.5t-40 -35.5q-18 -8 -28.5 -2t-12.5 17z" />
<glyph unicode="&#xd9;" horiz-adv-x="882" d="M-23 418q-10 59 6.5 148t54.5 177t94 157t126 87q55 16 111.5 28.5t111.5 24.5q16 0 27 -6q6 92 23.5 183.5t52.5 181.5q12 33 34.5 59.5t40.5 54.5q27 29 45.5 10.5t8.5 -48.5q-20 -25 -41 -48.5t-37 -52.5q-47 -80 -69.5 -167t-26.5 -179q39 -2 75 -12 q53 -16 104.5 -31.5t102.5 -32.5q61 -20 107.5 -80.5t74 -135t33.5 -152.5t-10 -133q-25 -80 -52.5 -150t-65.5 -131t-92 -112.5t-134 -94.5q-47 -27 -99.5 -39t-103.5 -28q-25 -8 -50.5 -6.5t-51 7t-51 11.5t-52.5 10q-41 6 -82.5 40t-78.5 80t-63.5 95t-33.5 82 q-10 51 -19 101.5t-20 101.5zM27.5 392q11.5 -126 67 -232.5t151.5 -171t233 -51.5q117 12 218.5 78.5t171 162.5t101 213t9.5 232q-16 86 -51 140t-84 88t-113.5 54.5t-140.5 38.5q-12 4 -24.5 5t-26.5 3q4 -125 29.5 -247.5t56.5 -235.5q2 -16 -4.5 -30.5t-16.5 -22.5 t-23.5 -5t-21.5 21q-25 129 -41 260t-12 262q-49 0 -92 -16q-25 -12 -37 4q-63 -14 -113.5 -33.5t-90.5 -53.5t-70.5 -87t-55.5 -139q-31 -111 -19.5 -237zM280 1210q2 25 20.5 45.5t46.5 35t46 14.5q23 0 54.5 -19.5t63 -44t61.5 -46.5t46 -26q25 -18 14.5 -46.5 t-42.5 -28.5q-6 0 -13 6h-2q-72 10 -139.5 18t-128.5 49q-29 18 -27 43zM323 1225q23 -35 71 -44.5t99 -9.5q-27 25 -54.5 46.5t-51 33t-41 7.5t-23.5 -33z" />
<glyph unicode="&#xda;" horiz-adv-x="882" d="M-23 418q-10 59 6.5 148t54.5 177t94 157t126 87q55 16 111.5 28.5t111.5 24.5q16 0 27 -6q6 92 23.5 183.5t52.5 181.5q12 33 34.5 59.5t40.5 54.5q27 29 45.5 10.5t8.5 -48.5q-20 -25 -41 -48.5t-37 -52.5q-47 -80 -69.5 -167t-26.5 -179q39 -2 75 -12 q53 -16 104.5 -31.5t102.5 -32.5q61 -20 107.5 -80.5t74 -135t33.5 -152.5t-10 -133q-25 -80 -52.5 -150t-65.5 -131t-92 -112.5t-134 -94.5q-47 -27 -99.5 -39t-103.5 -28q-25 -8 -50.5 -6.5t-51 7t-51 11.5t-52.5 10q-41 6 -82.5 40t-78.5 80t-63.5 95t-33.5 82 q-10 51 -19 101.5t-20 101.5zM27.5 392q11.5 -126 67 -232.5t151.5 -171t233 -51.5q117 12 218.5 78.5t171 162.5t101 213t9.5 232q-16 86 -51 140t-84 88t-113.5 54.5t-140.5 38.5q-12 4 -24.5 5t-26.5 3q4 -125 29.5 -247.5t56.5 -235.5q2 -16 -4.5 -30.5t-16.5 -22.5 t-23.5 -5t-21.5 21q-25 129 -41 260t-12 262q-49 0 -92 -16q-25 -12 -37 4q-63 -14 -113.5 -33.5t-90.5 -53.5t-70.5 -87t-55.5 -139q-31 -111 -19.5 -237zM268 1104q10 41 34 82t46 74q25 35 54.5 70.5t70.5 51.5t67.5 -2t36 -54t0 -77t-35.5 -71q-29 -31 -63 -54.5 t-75 -44.5q-25 -12 -51 -24.5t-55 -7.5q-15 8 -23 22q-2 6 -2 16q-4 6 -4 19zM340 1139q2 -4 2 -15q29 6 61.5 17.5t61.5 29t51.5 43t32.5 64.5q-4 59 -33 61t-62.5 -28.5t-66.5 -79.5t-47 -92z" />
<glyph unicode="&#xdb;" horiz-adv-x="882" d="M-23 418q-10 59 6.5 148t54.5 177t94 157t126 87q55 16 111.5 28.5t111.5 24.5q16 0 27 -6q6 92 23.5 183.5t52.5 181.5q12 33 34.5 59.5t40.5 54.5q27 29 45.5 10.5t8.5 -48.5q-20 -25 -41 -48.5t-37 -52.5q-47 -80 -69.5 -167t-26.5 -179q39 -2 75 -12 q53 -16 104.5 -31.5t102.5 -32.5q61 -20 107.5 -80.5t74 -135t33.5 -152.5t-10 -133q-25 -80 -52.5 -150t-65.5 -131t-92 -112.5t-134 -94.5q-47 -27 -99.5 -39t-103.5 -28q-25 -8 -50.5 -6.5t-51 7t-51 11.5t-52.5 10q-41 6 -82.5 40t-78.5 80t-63.5 95t-33.5 82 q-10 51 -19 101.5t-20 101.5zM27.5 392q11.5 -126 67 -232.5t151.5 -171t233 -51.5q117 12 218.5 78.5t171 162.5t101 213t9.5 232q-16 86 -51 140t-84 88t-113.5 54.5t-140.5 38.5q-12 4 -24.5 5t-26.5 3q4 -125 29.5 -247.5t56.5 -235.5q2 -16 -4.5 -30.5t-16.5 -22.5 t-23.5 -5t-21.5 21q-25 129 -41 260t-12 262q-49 0 -92 -16q-25 -12 -37 4q-63 -14 -113.5 -33.5t-90.5 -53.5t-70.5 -87t-55.5 -139q-31 -111 -19.5 -237zM201.5 1157.5q-11.5 59.5 1 132t45 137t79.5 82.5q20 6 47 13.5t53.5 11.5t52.5 2t42 -10q23 -12 48.5 -22.5 t41.5 -30.5q33 -37 53.5 -100.5t16.5 -123t-40 -99.5t-114 -28q-20 4 -36.5 14.5t-33.5 24.5q-47 -29 -99 -55.5t-103 -15.5q-43 8 -54.5 67.5zM247.5 1199q6.5 -44 24.5 -46q37 -4 72 15.5t69 43.5q-4 20 10.5 37t39.5 11l8 -9l2 2q29 16 41 -1t4 -40q8 -4 15 -9t18 -9 q12 -4 24 -2t25 2q51 57 44 118.5t-51 106.5t-115 62.5t-144 -13.5q-35 -14 -55.5 -64t-29 -105.5t-2 -99.5z" />
<glyph unicode="&#xdc;" horiz-adv-x="882" d="M-23 418q-10 59 6.5 148t54.5 177t94 157t126 87q55 16 111.5 28.5t111.5 24.5q16 0 27 -6q6 92 23.5 183.5t52.5 181.5q12 33 34.5 59.5t40.5 54.5q27 29 45.5 10.5t8.5 -48.5q-20 -25 -41 -48.5t-37 -52.5q-47 -80 -69.5 -167t-26.5 -179q39 -2 75 -12 q53 -16 104.5 -31.5t102.5 -32.5q61 -20 107.5 -80.5t74 -135t33.5 -152.5t-10 -133q-25 -80 -52.5 -150t-65.5 -131t-92 -112.5t-134 -94.5q-47 -27 -99.5 -39t-103.5 -28q-25 -8 -50.5 -6.5t-51 7t-51 11.5t-52.5 10q-41 6 -82.5 40t-78.5 80t-63.5 95t-33.5 82 q-10 51 -19 101.5t-20 101.5zM27.5 392q11.5 -126 67 -232.5t151.5 -171t233 -51.5q117 12 218.5 78.5t171 162.5t101 213t9.5 232q-16 86 -51 140t-84 88t-113.5 54.5t-140.5 38.5q-12 4 -24.5 5t-26.5 3q4 -125 29.5 -247.5t56.5 -235.5q2 -16 -4.5 -30.5t-16.5 -22.5 t-23.5 -5t-21.5 21q-25 129 -41 260t-12 262q-49 0 -92 -16q-25 -12 -37 4q-63 -14 -113.5 -33.5t-90.5 -53.5t-70.5 -87t-55.5 -139q-31 -111 -19.5 -237zM223 1252.5q8 50.5 53 66.5q4 6 17 14q68 31 118 23t78 -41q16 10 32 22.5t34 8.5q63 -10 92 -58.5t25 -103 t-40 -99.5t-100 -51q-61 -6 -98 35q-16 -12 -38.5 -20.5t-47.5 -14.5q-37 -10 -69.5 28t-48 89t-7.5 101.5zM270.5 1187.5q5.5 -38.5 27 -67t56.5 -38t72 25.5q8 29 31 33q29 37 28.5 64.5t-17.5 45t-47 24.5t-59 5q-4 -14 -15 -24.5t-30 -10.5q-8 4 -17 10t-15 -2 q-20 -27 -14.5 -65.5zM491 1122q10 -10 26.5 -19t36 -12.5t39 6t36.5 40.5q10 23 8 51.5t-16.5 50t-40 28t-58.5 -13.5q6 -33 -1 -66.5t-30 -64.5z" />
<glyph unicode="&#xdd;" horiz-adv-x="970" d="M-182 558q0 83 19.5 160t59.5 140.5t99 99.5q35 23 68.5 50.5t74.5 38.5q70 18 154 31.5t156.5 1t124 -60.5t57.5 -151v-4q27 10 55.5 22.5t58 19.5t59.5 5t58 -18q25 -14 52.5 -26.5t43.5 -35.5q20 -23 42 -44t32 -50q16 -43 31.5 -92t23 -99t1 -99.5t-32.5 -94.5 q-16 -31 -35 -61.5t-37 -61.5q-20 -35 -52 -64.5t-73 -41.5q0 -49 -16.5 -94t-50.5 -78q-76 -68 -168.5 -101.5t-196.5 -29.5q-43 2 -78 33.5t-58.5 77.5t-32.5 98.5t1 95.5q-63 -16 -126.5 -9t-127.5 46q-61 37 -103 99.5t-62.5 138t-20.5 158.5zM-137 624q-2 -42 4 -87 t14 -103q8 -61 43 -111.5t84 -84t108.5 -49t119.5 -3.5q51 10 96 33t88 51q18 10 30.5 5t16.5 -17t-1 -27.5t-20 -25.5q-23 -14 -46 -25.5t-46 -21.5q-8 -14 -16 -21l-4 -4q-2 -2 -4 -5t-4 -5q-10 -16 -11.5 -42t1.5 -52.5t11.5 -51t18.5 -40.5q41 -55 102.5 -67.5 t126.5 3.5q53 14 104.5 44t86.5 71q25 31 34 72.5t1 82.5t-34 72t-69 37q-16 6 -20 20.5t1 27.5t18.5 22.5t29.5 5.5q47 -12 78 -49t43 -84q39 6 73.5 41.5t61.5 82t42 93.5t19 75q6 61 -12 131t-58 124.5t-98.5 83t-132.5 12.5q-29 -6 -53 -20.5t-51 -26.5q-8 -4 -18 -5 q-12 -37 -33 -73.5t-45.5 -71.5t-50 -67.5t-46.5 -61.5l35 5t40.5 3t38 -5t30.5 -17q16 -25 -0.5 -51.5t-46.5 -14.5q-12 12 -34 14.5t-45.5 0t-45 -6.5t-33.5 -4q-27 0 -30 19.5t7 38.5q20 37 63.5 89t83.5 108.5t63.5 111.5t5.5 98q-29 70 -82.5 104.5t-119 41t-135 -11 t-134 -52.5t-116.5 -82t-79 -98t-37 -94t-12 -85zM311 1104q10 41 34 82t46 74q25 35 54.5 70.5t70.5 51.5t67.5 -2t36 -54t0 -77t-35.5 -71q-29 -31 -63 -54.5t-75 -44.5q-25 -12 -51 -24.5t-55 -7.5q-15 8 -23 22q-2 6 -2 16q-4 6 -4 19zM383 1139q2 -4 2 -15 q29 6 61.5 17.5t61.5 29t51.5 43t32.5 64.5q-4 59 -33 61t-62.5 -28.5t-66.5 -79.5t-47 -92z" />
<glyph unicode="&#xde;" horiz-adv-x="1705" d="M-50 580.5q-3 72.5 0 143.5t3 124q0 35 15.5 65.5t25.5 63.5q16 49 52 85t81 61.5t93 44t91 32.5q31 10 61.5 6t61.5 -4q29 0 55.5 -15.5t53.5 -27.5q31 -12 53 -45t37.5 -76t23 -93t5.5 -97q61 18 124.5 23.5t128.5 -25.5q88 -41 126 -125t31 -176t-54 -176t-125 -125 q-57 -31 -116.5 -43.5t-114.5 20.5q-2 2 -4.5 2t-4.5 2q-6 -33 -11 -64.5t-21 -60.5q-39 -74 -110 -97t-147.5 -9t-146.5 57t-104 99q-27 43 -51.5 84.5t-51.5 82.5q-31 51 -44 121t-16 142.5zM-26.5 775.5q-8.5 -105.5 11 -214t62.5 -207t103 -166.5q31 -35 88 -71.5 t119.5 -54t120 -5t89.5 77.5q14 29 17.5 60.5t9.5 64.5q-16 6 -19.5 20.5t2 28t18.5 22.5t30 5q43 -10 62.5 -30.5t38.5 -34t51 -11.5t102 35q68 33 108.5 104.5t47.5 149.5t-26.5 147.5t-115.5 98.5q-70 23 -126 13.5t-114 -32.5q-6 -27 -14.5 -48.5t-20.5 -37.5 q-33 -23 -46 0t1 51q-10 -4 -20 -7t-21 -7q-18 0 -25 9t-7 22.5t7 26t19 18.5q18 4 36 11t36 13q4 53 -6 110.5t-21 86.5q-8 23 -24.5 43t-36.5 37q-55 45 -126 49t-139.5 -20.5t-128 -70.5t-89.5 -101q-45 -80 -53.5 -185.5zM610 535q0 16 9.5 30.5t21.5 20.5t22.5 1 t14.5 -28q-8 -37 -6 -60.5t30 -47.5q2 -12 -2 -26.5t-13 -24t-20.5 -10.5t-23.5 13q-8 35 -12.5 67t-20.5 65z" />
<glyph unicode="&#xdf;" horiz-adv-x="763" d="M-40 170.5q-1 13.5 4 25t16.5 17.5t25.5 2q4 -2 10.5 -3t10.5 -3q16 -14 16 -35q25 -31 53.5 -63.5t61 -53t67.5 -23.5t72 21q-14 23 -26.5 44.5t-18.5 45.5q-12 47 -23.5 103.5t-13.5 115t9.5 112.5t43.5 97q20 27 41 51.5t41 51.5q14 16 27.5 16t21 -10t7.5 -26.5 t-11 -30.5q-20 -23 -41.5 -43.5t-38.5 -46.5q-29 -49 -41 -109.5t-8 -124t22.5 -125t51.5 -110.5q8 -6 12 -19q49 -66 123 -98.5t172 -5.5q53 14 82 63t38 108.5t-1 120t-35 97.5q-14 23 -45 33t-53 20q-10 4 -18.5 10t-18.5 11q-4 -4 -6 -7.5t-4 -7.5q-33 -23 -46.5 0 t1.5 51q2 2 2 3t2 4q8 23 24 30h2q33 39 62 72t52.5 67.5t37.5 75.5t20 97q10 102 -39 172.5t-127.5 105.5t-172 32t-168.5 -46q-41 -23 -77 -56.5t-65 -70.5q-18 -25 -33.5 -50.5t-17.5 -56.5q-4 -14 -15.5 -23.5t-22.5 -10.5t-20.5 7.5t-9.5 26.5q10 51 34 89t57 75 q55 66 130.5 104.5t156.5 51t159 -2t140.5 -56.5t100.5 -112.5t38 -170.5t-44.5 -177t-101.5 -149q27 -10 52.5 -28.5t48 -39t39 -42t22.5 -37.5q37 -100 8 -208t-100 -184q-39 -39 -92.5 -49t-107.5 1.5t-103.5 40t-79.5 69.5q-53 -27 -100.5 -18.5t-91.5 35t-85 63.5 t-80 67l-4 4q-10 10 -11 23.5z" />
<glyph unicode="&#xe0;" d="M-52 768q-3 14 7 33q145 201 322.5 220t363.5 -149q37 -35 58.5 -79.5t33.5 -95t18.5 -102.5t12.5 -97t11 -95.5t2 -99.5t-18.5 -95t-51.5 -83q-23 -20 -47.5 -33.5t-52 -23t-56.5 -16.5t-55 -17q-35 -14 -69 -25.5t-69 -21.5q10 -49 23.5 -97.5t28.5 -93.5 q2 -16 -4.5 -30.5t-16.5 -22.5t-23.5 -5t-21.5 21q-10 55 -15 110.5t-10 109.5l-55 -7q-45 0 -86 13.5t-79 35t-72.5 49t-65.5 56.5q-10 12 -10 28.5t8 29t21.5 16.5t27.5 -8q55 -53 118.5 -100.5t143.5 -53.5q20 -4 43 0q-4 20 -4 31q-8 80 -14.5 155.5t16.5 153.5 q8 18 21.5 24.5t24 1t15.5 -19.5t-1 -33q-31 -72 -34 -150.5t9 -158.5q35 6 67.5 18.5t71.5 24.5q49 16 102.5 27.5t94.5 48.5q31 29 44 69.5t16 84.5t-2 88.5t-11 80.5q-10 96 -32.5 185.5t-90.5 163.5q-51 57 -122.5 88.5t-146.5 32.5t-147.5 -26.5t-126.5 -84.5 q-16 -16 -28 -39t-27 -43q-12 -18 -25.5 -20.5t-22.5 5t-12 21.5zM149.5 688q-4.5 14 1 27.5t18.5 23t30 4.5q27 -10 47 -29.5t43 -35.5q16 -14 34.5 -26.5t34.5 -24.5q20 18 40 36.5t42 36.5q18 10 30.5 5t17 -17t-1 -27.5t-19.5 -25.5q-33 -12 -66 -37q57 -37 123 -68 q14 -10 16.5 -25.5t-4 -27.5t-19.5 -18t-32 0q-29 25 -58.5 52.5t-61.5 55.5q-35 -31 -64 -64.5t-63 -68.5q-18 -12 -30.5 -9t-18 13.5t-3.5 26.5t15 29q37 20 67.5 45.5t59.5 54.5q-37 29 -77 48.5t-81 25.5q-16 6 -20.5 20zM182 1210q2 25 20.5 45.5t46.5 35t46 14.5 q23 0 54.5 -19.5t63 -44t61.5 -46.5t46 -26q25 -18 14.5 -46.5t-42.5 -28.5q-6 0 -13 6h-2q-72 10 -139.5 18t-128.5 49q-29 18 -27 43zM225 1225q23 -35 71 -44.5t99 -9.5q-27 25 -54.5 46.5t-51 33t-41 7.5t-23.5 -33z" />
<glyph unicode="&#xe1;" d="M-52 768q-3 14 7 33q145 201 322.5 220t363.5 -149q37 -35 58.5 -79.5t33.5 -95t18.5 -102.5t12.5 -97t11 -95.5t2 -99.5t-18.5 -95t-51.5 -83q-23 -20 -47.5 -33.5t-52 -23t-56.5 -16.5t-55 -17q-35 -14 -69 -25.5t-69 -21.5q10 -49 23.5 -97.5t28.5 -93.5 q2 -16 -4.5 -30.5t-16.5 -22.5t-23.5 -5t-21.5 21q-10 55 -15 110.5t-10 109.5l-55 -7q-45 0 -86 13.5t-79 35t-72.5 49t-65.5 56.5q-10 12 -10 28.5t8 29t21.5 16.5t27.5 -8q55 -53 118.5 -100.5t143.5 -53.5q20 -4 43 0q-4 20 -4 31q-8 80 -14.5 155.5t16.5 153.5 q8 18 21.5 24.5t24 1t15.5 -19.5t-1 -33q-31 -72 -34 -150.5t9 -158.5q35 6 67.5 18.5t71.5 24.5q49 16 102.5 27.5t94.5 48.5q31 29 44 69.5t16 84.5t-2 88.5t-11 80.5q-10 96 -32.5 185.5t-90.5 163.5q-51 57 -122.5 88.5t-146.5 32.5t-147.5 -26.5t-126.5 -84.5 q-16 -16 -28 -39t-27 -43q-12 -18 -25.5 -20.5t-22.5 5t-12 21.5zM149.5 688q-4.5 14 1 27.5t18.5 23t30 4.5q27 -10 47 -29.5t43 -35.5q16 -14 34.5 -26.5t34.5 -24.5q20 18 40 36.5t42 36.5q18 10 30.5 5t17 -17t-1 -27.5t-19.5 -25.5q-33 -12 -66 -37q57 -37 123 -68 q14 -10 16.5 -25.5t-4 -27.5t-19.5 -18t-32 0q-29 25 -58.5 52.5t-61.5 55.5q-35 -31 -64 -64.5t-63 -68.5q-18 -12 -30.5 -9t-18 13.5t-3.5 26.5t15 29q37 20 67.5 45.5t59.5 54.5q-37 29 -77 48.5t-81 25.5q-16 6 -20.5 20zM172 1104q10 41 34 82t46 74q25 35 54.5 70.5 t70.5 51.5t67.5 -2t36 -54t0 -77t-35.5 -71q-29 -31 -63 -54.5t-75 -44.5q-25 -12 -51 -24.5t-55 -7.5q-15 8 -23 22q-2 6 -2 16q-4 6 -4 19zM244 1139q2 -4 2 -15q29 6 61.5 17.5t61.5 29t51.5 43t32.5 64.5q-4 59 -33 61t-62.5 -28.5t-66.5 -79.5t-47 -92z" />
<glyph unicode="&#xe2;" d="M-52 768q-3 14 7 33q145 201 322.5 220t363.5 -149q37 -35 58.5 -79.5t33.5 -95t18.5 -102.5t12.5 -97t11 -95.5t2 -99.5t-18.5 -95t-51.5 -83q-23 -20 -47.5 -33.5t-52 -23t-56.5 -16.5t-55 -17q-35 -14 -69 -25.5t-69 -21.5q10 -49 23.5 -97.5t28.5 -93.5 q2 -16 -4.5 -30.5t-16.5 -22.5t-23.5 -5t-21.5 21q-10 55 -15 110.5t-10 109.5l-55 -7q-45 0 -86 13.5t-79 35t-72.5 49t-65.5 56.5q-10 12 -10 28.5t8 29t21.5 16.5t27.5 -8q55 -53 118.5 -100.5t143.5 -53.5q20 -4 43 0q-4 20 -4 31q-8 80 -14.5 155.5t16.5 153.5 q8 18 21.5 24.5t24 1t15.5 -19.5t-1 -33q-31 -72 -34 -150.5t9 -158.5q35 6 67.5 18.5t71.5 24.5q49 16 102.5 27.5t94.5 48.5q31 29 44 69.5t16 84.5t-2 88.5t-11 80.5q-10 96 -32.5 185.5t-90.5 163.5q-51 57 -122.5 88.5t-146.5 32.5t-147.5 -26.5t-126.5 -84.5 q-16 -16 -28 -39t-27 -43q-12 -18 -25.5 -20.5t-22.5 5t-12 21.5zM103.5 1157.5q-11.5 59.5 1 132t45 137t79.5 82.5q20 6 47 13.5t53.5 11.5t52.5 2t42 -10q23 -12 48.5 -22.5t41.5 -30.5q33 -37 53.5 -100.5t16.5 -123t-40 -99.5t-114 -28q-20 4 -36.5 14.5t-33.5 24.5 q-47 -29 -99 -55.5t-103 -15.5q-43 8 -54.5 67.5zM149.5 688q-4.5 14 1 27.5t18.5 23t30 4.5q27 -10 47 -29.5t43 -35.5q16 -14 34.5 -26.5t34.5 -24.5q20 18 40 36.5t42 36.5q18 10 30.5 5t17 -17t-1 -27.5t-19.5 -25.5q-33 -12 -66 -37q57 -37 123 -68q14 -10 16.5 -25.5 t-4 -27.5t-19.5 -18t-32 0q-29 25 -58.5 52.5t-61.5 55.5q-35 -31 -64 -64.5t-63 -68.5q-18 -12 -30.5 -9t-18 13.5t-3.5 26.5t15 29q37 20 67.5 45.5t59.5 54.5q-37 29 -77 48.5t-81 25.5q-16 6 -20.5 20zM149.5 1199q6.5 -44 24.5 -46q37 -4 72 15.5t69 43.5 q-4 20 10.5 37t39.5 11l8 -9l2 2q29 16 41 -1t4 -40q8 -4 15 -9t18 -9q12 -4 24 -2t25 2q51 57 44 118.5t-51 106.5t-115 62.5t-144 -13.5q-35 -14 -55.5 -64t-29 -105.5t-2 -99.5z" />
<glyph unicode="&#xe3;" d="M-52 768q-3 14 7 33q145 201 322.5 220t363.5 -149q37 -35 58.5 -79.5t33.5 -95t18.5 -102.5t12.5 -97t11 -95.5t2 -99.5t-18.5 -95t-51.5 -83q-23 -20 -47.5 -33.5t-52 -23t-56.5 -16.5t-55 -17q-35 -14 -69 -25.5t-69 -21.5q10 -49 23.5 -97.5t28.5 -93.5 q2 -16 -4.5 -30.5t-16.5 -22.5t-23.5 -5t-21.5 21q-10 55 -15 110.5t-10 109.5l-55 -7q-45 0 -86 13.5t-79 35t-72.5 49t-65.5 56.5q-10 12 -10 28.5t8 29t21.5 16.5t27.5 -8q55 -53 118.5 -100.5t143.5 -53.5q20 -4 43 0q-4 20 -4 31q-8 80 -14.5 155.5t16.5 153.5 q8 18 21.5 24.5t24 1t15.5 -19.5t-1 -33q-31 -72 -34 -150.5t9 -158.5q35 6 67.5 18.5t71.5 24.5q49 16 102.5 27.5t94.5 48.5q31 29 44 69.5t16 84.5t-2 88.5t-11 80.5q-10 96 -32.5 185.5t-90.5 163.5q-51 57 -122.5 88.5t-146.5 32.5t-147.5 -26.5t-126.5 -84.5 q-16 -16 -28 -39t-27 -43q-12 -18 -25.5 -20.5t-22.5 5t-12 21.5zM102 1178.5q-2 56.5 14.5 108.5t51.5 65q29 10 46 12t33.5 -3t34 -15.5t46.5 -24.5q8 -4 15 -12.5t15 -18.5q2 0 3 1t4 1q14 0 34.5 7.5t41 12.5t40 7t31.5 -6q37 -23 42 -63t-10.5 -81t-45 -73.5 t-62.5 -42.5q-39 -10 -73.5 9t-69.5 36q-8 -8 -12 -11q-18 -10 -37 -23t-41 -17q-49 -8 -74 33.5t-27 98zM147.5 1250.5q-4.5 -33.5 3 -71.5t21.5 -59q13 0 29 -4q10 6 17 12.5t18 12.5q0 18 14 33.5t37 11.5q18 -6 34.5 -18.5t33 -26t33.5 -24.5t36 -15q20 -4 37.5 8 t29 31.5t15.5 45t0 48.5q-2 10 -4 15t-13 7q-4 2 -17 -2t-30.5 -10t-35 -13t-29.5 -13q-12 -12 -31 -13q-12 2 -27.5 16.5t-31 31t-32.5 33t-32 22.5q-37 14 -54 -5.5t-21.5 -53zM149.5 688q-4.5 14 1 27.5t18.5 23t30 4.5q27 -10 47 -29.5t43 -35.5q16 -14 34.5 -26.5 t34.5 -24.5q20 18 40 36.5t42 36.5q18 10 30.5 5t17 -17t-1 -27.5t-19.5 -25.5q-33 -12 -66 -37q57 -37 123 -68q14 -10 16.5 -25.5t-4 -27.5t-19.5 -18t-32 0q-29 25 -58.5 52.5t-61.5 55.5q-35 -31 -64 -64.5t-63 -68.5q-18 -12 -30.5 -9t-18 13.5t-3.5 26.5t15 29 q37 20 67.5 45.5t59.5 54.5q-37 29 -77 48.5t-81 25.5q-16 6 -20.5 20z" />
<glyph unicode="&#xe4;" d="M-52 768q-3 14 7 33q145 201 322.5 220t363.5 -149q37 -35 58.5 -79.5t33.5 -95t18.5 -102.5t12.5 -97t11 -95.5t2 -99.5t-18.5 -95t-51.5 -83q-23 -20 -47.5 -33.5t-52 -23t-56.5 -16.5t-55 -17q-35 -14 -69 -25.5t-69 -21.5q10 -49 23.5 -97.5t28.5 -93.5 q2 -16 -4.5 -30.5t-16.5 -22.5t-23.5 -5t-21.5 21q-10 55 -15 110.5t-10 109.5l-55 -7q-45 0 -86 13.5t-79 35t-72.5 49t-65.5 56.5q-10 12 -10 28.5t8 29t21.5 16.5t27.5 -8q55 -53 118.5 -100.5t143.5 -53.5q20 -4 43 0q-4 20 -4 31q-8 80 -14.5 155.5t16.5 153.5 q8 18 21.5 24.5t24 1t15.5 -19.5t-1 -33q-31 -72 -34 -150.5t9 -158.5q35 6 67.5 18.5t71.5 24.5q49 16 102.5 27.5t94.5 48.5q31 29 44 69.5t16 84.5t-2 88.5t-11 80.5q-10 96 -32.5 185.5t-90.5 163.5q-51 57 -122.5 88.5t-146.5 32.5t-147.5 -26.5t-126.5 -84.5 q-16 -16 -28 -39t-27 -43q-12 -18 -25.5 -20.5t-22.5 5t-12 21.5zM125 1252.5q8 50.5 53 66.5q4 6 17 14q68 31 118 23t78 -41q16 10 32 22.5t34 8.5q63 -10 92 -58.5t25 -103t-40 -99.5t-100 -51q-61 -6 -98 35q-16 -12 -38.5 -20.5t-47.5 -14.5q-37 -10 -69.5 28t-48 89 t-7.5 101.5zM149.5 688q-4.5 14 1 27.5t18.5 23t30 4.5q27 -10 47 -29.5t43 -35.5q16 -14 34.5 -26.5t34.5 -24.5q20 18 40 36.5t42 36.5q18 10 30.5 5t17 -17t-1 -27.5t-19.5 -25.5q-33 -12 -66 -37q57 -37 123 -68q14 -10 16.5 -25.5t-4 -27.5t-19.5 -18t-32 0 q-29 25 -58.5 52.5t-61.5 55.5q-35 -31 -64 -64.5t-63 -68.5q-18 -12 -30.5 -9t-18 13.5t-3.5 26.5t15 29q37 20 67.5 45.5t59.5 54.5q-37 29 -77 48.5t-81 25.5q-16 6 -20.5 20zM172.5 1187.5q5.5 -38.5 27 -67t56.5 -38t72 25.5q8 29 31 33q29 37 28.5 64.5t-17.5 45 t-47 24.5t-59 5q-4 -14 -15 -24.5t-30 -10.5q-8 4 -17 10t-15 -2q-20 -27 -14.5 -65.5zM393 1122q10 -10 26.5 -19t36 -12.5t39 6t36.5 40.5q10 23 8 51.5t-16.5 50t-40 28t-58.5 -13.5q6 -33 -1 -66.5t-30 -64.5z" />
<glyph unicode="&#xe5;" d="M-52 768q-3 14 7 33q145 201 322.5 220t363.5 -149q37 -35 58.5 -79.5t33.5 -95t18.5 -102.5t12.5 -97t11 -95.5t2 -99.5t-18.5 -95t-51.5 -83q-23 -20 -47.5 -33.5t-52 -23t-56.5 -16.5t-55 -17q-35 -14 -69 -25.5t-69 -21.5q10 -49 23.5 -97.5t28.5 -93.5 q2 -16 -4.5 -30.5t-16.5 -22.5t-23.5 -5t-21.5 21q-10 55 -15 110.5t-10 109.5l-55 -7q-45 0 -86 13.5t-79 35t-72.5 49t-65.5 56.5q-10 12 -10 28.5t8 29t21.5 16.5t27.5 -8q55 -53 118.5 -100.5t143.5 -53.5q20 -4 43 0q-4 20 -4 31q-8 80 -14.5 155.5t16.5 153.5 q8 18 21.5 24.5t24 1t15.5 -19.5t-1 -33q-31 -72 -34 -150.5t9 -158.5q35 6 67.5 18.5t71.5 24.5q49 16 102.5 27.5t94.5 48.5q31 29 44 69.5t16 84.5t-2 88.5t-11 80.5q-10 96 -32.5 185.5t-90.5 163.5q-51 57 -122.5 88.5t-146.5 32.5t-147.5 -26.5t-126.5 -84.5 q-16 -16 -28 -39t-27 -43q-12 -18 -25.5 -20.5t-22.5 5t-12 21.5zM149.5 688q-4.5 14 1 27.5t18.5 23t30 4.5q27 -10 47 -29.5t43 -35.5q16 -14 34.5 -26.5t34.5 -24.5q20 18 40 36.5t42 36.5q18 10 30.5 5t17 -17t-1 -27.5t-19.5 -25.5q-33 -12 -66 -37q57 -37 123 -68 q14 -10 16.5 -25.5t-4 -27.5t-19.5 -18t-32 0q-29 25 -58.5 52.5t-61.5 55.5q-35 -31 -64 -64.5t-63 -68.5q-18 -12 -30.5 -9t-18 13.5t-3.5 26.5t15 29q37 20 67.5 45.5t59.5 54.5q-37 29 -77 48.5t-81 25.5q-16 6 -20.5 20zM210.5 1202q-11.5 55 21.5 109.5t115 70.5 q10 0 18 -8q0 -2 2 -2q35 4 67.5 -1t55.5 -30q25 -31 36 -72.5t3 -82.5t-34 -72t-75 -37q-92 -12 -145 29t-64.5 96zM259.5 1228.5q1.5 -32.5 20.5 -61t54 -45t82 -6.5q31 8 49.5 29.5t23.5 47.5t-3 53.5t-33 45.5q-18 14 -42.5 14.5t-49.5 -6.5q-12 -8 -21 -6 q-10 -4 -19 -7t-19 -7q-14 0 -21 4q-23 -23 -21.5 -55.5z" />
<glyph unicode="&#xe6;" horiz-adv-x="839" d="M2 241.5q4 16.5 14.5 25.5t23.5 9t23 -18q45 -74 134 -125q-4 63 -4 128t4 120t14 96t29 60q16 10 27.5 7t16.5 -13.5t3 -26t-11 -27.5q0 -4 -2 -8q-4 -8 -4 -6v4q-16 -55 -24 -110.5t-10 -114.5q-2 -39 -1 -72t5 -61q94 -47 184 -70q125 -33 217 -15.5t152.5 67.5 t90 128t34.5 166h-58t-57 -2q-31 -2 -66 -7t-71.5 -10.5t-71.5 -4.5t-66 12l-9 15t-3 15v11q8 33 32.5 40t33.5 -18q66 -27 157.5 -19.5t178.5 23.5q-2 23 -4.5 44.5t-6.5 43.5q-78 -2 -156.5 0t-156.5 7h-32.5t-37 2t-32 9t-19.5 23q0 37 27 54l8 4q31 6 37 -19 q82 -16 161.5 -24.5t184.5 8.5q-35 125 -119 227.5t-207 141.5q-66 20 -143.5 16t-140.5 -21q-90 -23 -138.5 -62.5t-81.5 -121.5q-10 -14 -22 -18t-21.5 0t-14.5 15t-1 30q23 55 46.5 89t54 56.5t71.5 38.5t98 37q68 25 158 20.5t176 -35t155.5 -86t94.5 -131.5 q18 -51 33.5 -98t30.5 -94q14 4 29.5 7t31.5 7q18 -4 23.5 -14t3.5 -22.5t-11.5 -23.5t-21.5 -18q-10 -2 -19.5 -2h-19.5q4 -16 5 -32.5t5 -32.5q0 -6 1 -11t1 -10q23 4 44.5 9.5t39.5 9.5q18 -4 23.5 -14.5t3.5 -22.5t-11.5 -23.5t-21.5 -17.5h-72q2 -41 -1 -70.5 t-15 -60.5t-32.5 -66.5t-51.5 -91.5q-20 -37 -62 -66.5t-83 -39.5q-55 -10 -89 -18.5t-65 -11.5t-65.5 1t-90.5 16q-37 10 -73.5 20.5t-73.5 27.5q8 -41 18.5 -81t22.5 -83q2 -16 -4 -30.5t-16.5 -23t-23.5 -5.5t-22 22q-4 29 -11 89t-13 134q-59 29 -111.5 70t-87.5 94 q-6 14 -2 30.5zM119 592q14 37 36.5 62.5t49.5 47.5q-12 10 -26.5 20.5t-26.5 18.5q-10 12 -10.5 28.5t8 29t21.5 16.5t28 -8q16 -23 26.5 -39t20.5 -33q10 10 19 19.5t20 19.5q16 10 27.5 7t16.5 -13t3 -25.5t-10 -27.5q-10 -4 -20.5 -9.5t-20.5 -9.5q12 -10 28.5 -18 t40.5 -12q14 -10 16.5 -25.5t-4 -28t-19.5 -18.5t-32 0q-23 18 -39 37.5t-36 42.5q-23 -14 -37.5 -33.5t-12.5 -48.5q-4 -14 -15 -23.5t-22.5 -10.5t-20.5 7t-9 27z" />
<glyph unicode="&#xe7;" horiz-adv-x="661" d="M-94 262q4 17 14 26t23.5 9t23.5 -18q33 -70 81 -143t109.5 -127t139.5 -77.5t170 7.5q61 20 105 65t73 105.5t43 131t19 144.5q-104 8 -201.5 -7.5t-157.5 -64.5q-31 -20 -45 -2q-18 4 -18 33q14 84 15 163t11 157q8 14 19.5 21t21.5 5t17.5 -12t5.5 -29 q-23 -61 -27 -125.5t0 -130.5q72 33 152 33t159 -2h48q0 78 -11.5 151.5t-29.5 126.5q-16 47 -33 80t-38.5 57.5t-50 46t-71.5 46.5q-33 20 -87 23t-111.5 -6t-108.5 -28.5t-80 -43.5q-25 -23 -28 -42.5t-11 -52.5q-6 -18 -18.5 -26t-23.5 -6t-18 14t-3 33q10 37 22 75.5 t47 61.5q39 25 98.5 46t123 32.5t123 6.5t102.5 -32t74.5 -51.5t55 -53t41 -65.5t34.5 -86q20 -59 31.5 -140t11.5 -167q74 -2 146.5 -5t145.5 -20q25 -18 14.5 -46.5t-42.5 -28.5q-51 16 -120 31.5t-147 25.5q-4 -70 -16 -131.5t-35 -106.5q-20 -39 -40.5 -75.5 t-41.5 -75.5q-20 -35 -57 -54.5t-72 -43.5q-45 -35 -104.5 -34t-118.5 22.5t-112.5 55t-86.5 64.5q-51 47 -85.5 108.5t-67.5 120.5q-6 14 -2 31zM57 -253q4 46 27.5 79t72.5 29q23 0 46 -7q10 47 16 93.5t0 93.5q4 14 14 25.5t20.5 15.5t19.5 -2t14 -27q-14 -68 -23.5 -120 t-11.5 -93q39 -14 74.5 -28.5t76.5 -24.5q25 -18 14.5 -47t-42.5 -29q-35 10 -67 25.5t-65 31.5q-16 -16 -36.5 -16t-20.5 33v6q-10 2 -19.5 3t-19.5 1q-29 0 -39 -21.5t-9 -51t9.5 -57.5t14.5 -40q33 -47 92 -68.5t125.5 -20.5t127 24.5t93.5 66.5q18 23 22.5 42.5t0 38.5 t-14.5 38.5t-18 42.5q-6 18 -25.5 26.5t-42 13.5t-45 8t-37.5 11q-10 6 -23.5 29t-25.5 46.5t-21.5 43t-11.5 23.5q-6 12 -4 27.5t10.5 25.5t20.5 12t27 -8q23 -29 38 -63.5t27 -69.5q10 -10 14 -12q20 -8 41 -11.5t41 -11.5q51 -18 75 -71.5t24 -104.5q0 -72 -56.5 -120 t-132.5 -71.5t-153.5 -20.5t-122.5 36q-20 16 -43 28.5t-39 34.5q-16 25 -24.5 71t-4.5 92zM440 -100l2 -2z" />
<glyph unicode="&#xe8;" horiz-adv-x="690" d="M-39 176q0 17 8 29t21.5 16t27.5 -8q45 -47 99.5 -92t114 -82t124 -61.5t131.5 -30.5q39 -2 78 10t72 35q76 53 101.5 151.5t19.5 206.5q-29 -4 -58.5 -8t-58.5 -8q-35 -6 -73 -14.5t-75.5 -12.5t-74.5 -1.5t-72 18.5q-10 12 -11 25t5 25.5t17.5 18.5t27.5 2 q29 -18 71 -25.5t91 -5t102 10.5t105 18q-4 27 -8.5 52.5t-8.5 52.5q-76 -4 -151.5 -1t-151.5 -1q-18 -4 -38.5 -4t-39.5 -9q-12 -23 -37.5 -23.5t-25.5 34.5q10 35 31.5 49t49 15t59.5 -3t63 -6q78 -4 132 -3t95 5q-29 100 -66 164q-25 43 -53.5 82t-66.5 67 q-37 29 -82 42.5t-88 29.5q-29 10 -77 5t-96.5 -23.5t-85 -47t-45.5 -63.5q-6 -18 -18 -26.5t-23.5 -6.5t-18.5 14.5t-3 32.5q16 59 58 96t96.5 57.5t115 25t113.5 -2.5q49 -4 91 -30.5t87 -48.5q25 -12 42.5 -31t31.5 -42.5t27.5 -48t29.5 -44.5q31 -41 49.5 -91.5 t26.5 -103.5q29 6 54.5 13.5t54.5 17.5q20 4 29 -5.5t9 -22.5t-9 -27.5t-23 -20.5q-55 -10 -107 -12q2 -25 4 -49.5t4 -49.5q53 12 98.5 23.5t80.5 19.5q18 -4 23 -14t3 -22.5t-11 -23.5t-22 -17q-41 -4 -84 -7.5t-84 -7.5q4 -111 -18 -212t-111 -189q-16 -16 -37.5 -24.5 t-44 -14.5t-47 -10t-47.5 -13q-51 -16 -122.5 9.5t-145.5 68.5t-139.5 94.5t-104.5 85.5q-10 12 -10 29zM184 1210q2 25 20.5 45.5t46.5 35t46 14.5q23 0 54.5 -19.5t63 -44t61.5 -46.5t46 -26q25 -18 14.5 -46.5t-42.5 -28.5q-6 0 -13 6h-2q-72 10 -139.5 18t-128.5 49 q-29 18 -27 43zM227 1225q23 -35 71 -44.5t99 -9.5q-27 25 -54.5 46.5t-51 33t-41 7.5t-23.5 -33z" />
<glyph unicode="&#xe9;" horiz-adv-x="690" d="M-39 176q0 17 8 29t21.5 16t27.5 -8q45 -47 99.5 -92t114 -82t124 -61.5t131.5 -30.5q39 -2 78 10t72 35q76 53 101.5 151.5t19.5 206.5q-29 -4 -58.5 -8t-58.5 -8q-35 -6 -73 -14.5t-75.5 -12.5t-74.5 -1.5t-72 18.5q-10 12 -11 25t5 25.5t17.5 18.5t27.5 2 q29 -18 71 -25.5t91 -5t102 10.5t105 18q-4 27 -8.5 52.5t-8.5 52.5q-76 -4 -151.5 -1t-151.5 -1q-18 -4 -38.5 -4t-39.5 -9q-12 -23 -37.5 -23.5t-25.5 34.5q10 35 31.5 49t49 15t59.5 -3t63 -6q78 -4 132 -3t95 5q-29 100 -66 164q-25 43 -53.5 82t-66.5 67 q-37 29 -82 42.5t-88 29.5q-29 10 -77 5t-96.5 -23.5t-85 -47t-45.5 -63.5q-6 -18 -18 -26.5t-23.5 -6.5t-18.5 14.5t-3 32.5q16 59 58 96t96.5 57.5t115 25t113.5 -2.5q49 -4 91 -30.5t87 -48.5q25 -12 42.5 -31t31.5 -42.5t27.5 -48t29.5 -44.5q31 -41 49.5 -91.5 t26.5 -103.5q29 6 54.5 13.5t54.5 17.5q20 4 29 -5.5t9 -22.5t-9 -27.5t-23 -20.5q-55 -10 -107 -12q2 -25 4 -49.5t4 -49.5q53 12 98.5 23.5t80.5 19.5q18 -4 23 -14t3 -22.5t-11 -23.5t-22 -17q-41 -4 -84 -7.5t-84 -7.5q4 -111 -18 -212t-111 -189q-16 -16 -37.5 -24.5 t-44 -14.5t-47 -10t-47.5 -13q-51 -16 -122.5 9.5t-145.5 68.5t-139.5 94.5t-104.5 85.5q-10 12 -10 29zM174 1104q10 41 34 82t46 74q25 35 54.5 70.5t70.5 51.5t67.5 -2t36 -54t0 -77t-35.5 -71q-29 -31 -63 -54.5t-75 -44.5q-25 -12 -51 -24.5t-55 -7.5q-15 8 -23 22 q-2 6 -2 16q-4 6 -4 19zM246 1139q2 -4 2 -15q29 6 61.5 17.5t61.5 29t51.5 43t32.5 64.5q-4 59 -33 61t-62.5 -28.5t-66.5 -79.5t-47 -92z" />
<glyph unicode="&#xea;" horiz-adv-x="690" d="M-39 176q0 17 8 29t21.5 16t27.5 -8q45 -47 99.5 -92t114 -82t124 -61.5t131.5 -30.5q39 -2 78 10t72 35q76 53 101.5 151.5t19.5 206.5q-29 -4 -58.5 -8t-58.5 -8q-35 -6 -73 -14.5t-75.5 -12.5t-74.5 -1.5t-72 18.5q-10 12 -11 25t5 25.5t17.5 18.5t27.5 2 q29 -18 71 -25.5t91 -5t102 10.5t105 18q-4 27 -8.5 52.5t-8.5 52.5q-76 -4 -151.5 -1t-151.5 -1q-18 -4 -38.5 -4t-39.5 -9q-12 -23 -37.5 -23.5t-25.5 34.5q10 35 31.5 49t49 15t59.5 -3t63 -6q78 -4 132 -3t95 5q-29 100 -66 164q-25 43 -53.5 82t-66.5 67 q-37 29 -82 42.5t-88 29.5q-29 10 -77 5t-96.5 -23.5t-85 -47t-45.5 -63.5q-6 -18 -18 -26.5t-23.5 -6.5t-18.5 14.5t-3 32.5q16 59 58 96t96.5 57.5t115 25t113.5 -2.5q49 -4 91 -30.5t87 -48.5q25 -12 42.5 -31t31.5 -42.5t27.5 -48t29.5 -44.5q31 -41 49.5 -91.5 t26.5 -103.5q29 6 54.5 13.5t54.5 17.5q20 4 29 -5.5t9 -22.5t-9 -27.5t-23 -20.5q-55 -10 -107 -12q2 -25 4 -49.5t4 -49.5q53 12 98.5 23.5t80.5 19.5q18 -4 23 -14t3 -22.5t-11 -23.5t-22 -17q-41 -4 -84 -7.5t-84 -7.5q4 -111 -18 -212t-111 -189q-16 -16 -37.5 -24.5 t-44 -14.5t-47 -10t-47.5 -13q-51 -16 -122.5 9.5t-145.5 68.5t-139.5 94.5t-104.5 85.5q-10 12 -10 29zM105.5 1157.5q-11.5 59.5 1 132t45 137t79.5 82.5q20 6 47 13.5t53.5 11.5t52.5 2t42 -10q23 -12 48.5 -22.5t41.5 -30.5q33 -37 53.5 -100.5t16.5 -123t-40 -99.5 t-114 -28q-20 4 -36.5 14.5t-33.5 24.5q-47 -29 -99 -55.5t-103 -15.5q-43 8 -54.5 67.5zM151.5 1199q6.5 -44 24.5 -46q37 -4 72 15.5t69 43.5q-4 20 10.5 37t39.5 11l8 -9l2 2q29 16 41 -1t4 -40q8 -4 15 -9t18 -9q12 -4 24 -2t25 2q51 57 44 118.5t-51 106.5t-115 62.5 t-144 -13.5q-35 -14 -55.5 -64t-29 -105.5t-2 -99.5z" />
<glyph unicode="&#xeb;" horiz-adv-x="690" d="M-39 176q0 17 8 29t21.5 16t27.5 -8q45 -47 99.5 -92t114 -82t124 -61.5t131.5 -30.5q39 -2 78 10t72 35q76 53 101.5 151.5t19.5 206.5q-29 -4 -58.5 -8t-58.5 -8q-35 -6 -73 -14.5t-75.5 -12.5t-74.5 -1.5t-72 18.5q-10 12 -11 25t5 25.5t17.5 18.5t27.5 2 q29 -18 71 -25.5t91 -5t102 10.5t105 18q-4 27 -8.5 52.5t-8.5 52.5q-76 -4 -151.5 -1t-151.5 -1q-18 -4 -38.5 -4t-39.5 -9q-12 -23 -37.5 -23.5t-25.5 34.5q10 35 31.5 49t49 15t59.5 -3t63 -6q78 -4 132 -3t95 5q-29 100 -66 164q-25 43 -53.5 82t-66.5 67 q-37 29 -82 42.5t-88 29.5q-29 10 -77 5t-96.5 -23.5t-85 -47t-45.5 -63.5q-6 -18 -18 -26.5t-23.5 -6.5t-18.5 14.5t-3 32.5q16 59 58 96t96.5 57.5t115 25t113.5 -2.5q49 -4 91 -30.5t87 -48.5q25 -12 42.5 -31t31.5 -42.5t27.5 -48t29.5 -44.5q31 -41 49.5 -91.5 t26.5 -103.5q29 6 54.5 13.5t54.5 17.5q20 4 29 -5.5t9 -22.5t-9 -27.5t-23 -20.5q-55 -10 -107 -12q2 -25 4 -49.5t4 -49.5q53 12 98.5 23.5t80.5 19.5q18 -4 23 -14t3 -22.5t-11 -23.5t-22 -17q-41 -4 -84 -7.5t-84 -7.5q4 -111 -18 -212t-111 -189q-16 -16 -37.5 -24.5 t-44 -14.5t-47 -10t-47.5 -13q-51 -16 -122.5 9.5t-145.5 68.5t-139.5 94.5t-104.5 85.5q-10 12 -10 29zM127 1252.5q8 50.5 53 66.5q4 6 17 14q68 31 118 23t78 -41q16 10 32 22.5t34 8.5q63 -10 92 -58.5t25 -103t-40 -99.5t-100 -51q-61 -6 -98 35q-16 -12 -38.5 -20.5 t-47.5 -14.5q-37 -10 -69.5 28t-48 89t-7.5 101.5zM174.5 1187.5q5.5 -38.5 27 -67t56.5 -38t72 25.5q8 29 31 33q29 37 28.5 64.5t-17.5 45t-47 24.5t-59 5q-4 -14 -15 -24.5t-30 -10.5q-8 4 -17 10t-15 -2q-20 -27 -14.5 -65.5zM395 1122q10 -10 26.5 -19t36 -12.5t39 6 t36.5 40.5q10 23 8 51.5t-16.5 50t-40 28t-58.5 -13.5q6 -33 -1 -66.5t-30 -64.5z" />
<glyph unicode="&#xec;" horiz-adv-x="624" d="M-72 256q2 14 12.5 26.5t26.5 14.5q35 -4 61.5 12.5t65.5 38.5q-8 41 -8 103.5t16 111.5q-22 2 -49 -16q-20 0 -27.5 11t-5 25.5t12.5 27t26 14.5q23 -10 42.5 -6t41.5 14q2 0 3 -1t4 -1q14 2 23 -5.5t10 -19.5t-4 -25.5t-17 -21.5q-23 -10 -29 -35.5t-4 -54.5 t11.5 -56.5t19.5 -41.5v-21q8 -14 -3.5 -33.5t-27.5 -27.5q-25 2 -46.5 -5.5t-40.5 -18.5t-38.5 -24.5t-42.5 -21.5q-20 0 -27.5 11.5t-5.5 25.5zM-27 883q6 27 34 53.5t62.5 47t68.5 33.5t50 15q35 4 70 10.5t70 4.5q55 -2 119.5 -18.5t120 -49.5t93 -82t37.5 -117 q0 -33 -16 -62.5t-31 -58.5q-16 -35 -47 -55t-63 -41q-4 -29 -15.5 -57.5t-25.5 -56.5q39 6 84 0q43 -6 76.5 -29t54 -55.5t24.5 -73.5t-16 -80q-14 -29 -23.5 -60.5t-33.5 -54.5q-55 -49 -104.5 -80.5t-101.5 -51t-112.5 -29t-136.5 -15.5q-72 -4 -128 13.5t-97 70.5 q-6 12 -4 27.5t10 26t20.5 12.5t26.5 -9q31 -47 78 -60t100 -17q86 -6 175 6t163 59q25 16 47.5 34.5t38.5 41.5q55 76 57 129t-32.5 84t-95 38t-128.5 -14l-2 -6v4q-10 -20 -26.5 -24t-26.5 6q-16 -4 -24.5 5t-8.5 22.5t7.5 27t19.5 21.5q12 4 24.5 8t24.5 8l4 4 q16 16 33.5 41t28.5 53q-27 -6 -33 21t14 49q2 2 3 2t3 2q-12 16 -41 29q-10 12 -11 25.5t5 25.5t17.5 18.5t27.5 2.5q37 -29 54 -68q20 12 38.5 25.5t34.5 29.5q31 29 38 61.5t-2 64.5t-31.5 59.5t-51.5 48.5q-55 39 -120.5 56t-132 12t-129 -29.5t-113.5 -67.5 q-6 -6 -11 -8q2 -16 -11 -31.5t-34 -15.5q-12 0 -26 8q-10 14 -11 31zM151 1210q2 25 20.5 45.5t46.5 35t46 14.5q23 0 54.5 -19.5t63 -44t61.5 -46.5t46 -26q25 -18 14.5 -46.5t-42.5 -28.5q-6 0 -13 6h-2q-72 10 -139.5 18t-128.5 49q-29 18 -27 43zM194 1225 q23 -35 71 -44.5t99 -9.5q-27 25 -54.5 46.5t-51 33t-41 7.5t-23.5 -33z" />
<glyph unicode="&#xed;" horiz-adv-x="624" d="M-72 256q2 14 12.5 26.5t26.5 14.5q35 -4 61.5 12.5t65.5 38.5q-8 41 -8 103.5t16 111.5q-22 2 -49 -16q-20 0 -27.5 11t-5 25.5t12.5 27t26 14.5q23 -10 42.5 -6t41.5 14q2 0 3 -1t4 -1q14 2 23 -5.5t10 -19.5t-4 -25.5t-17 -21.5q-23 -10 -29 -35.5t-4 -54.5 t11.5 -56.5t19.5 -41.5v-21q8 -14 -3.5 -33.5t-27.5 -27.5q-25 2 -46.5 -5.5t-40.5 -18.5t-38.5 -24.5t-42.5 -21.5q-20 0 -27.5 11.5t-5.5 25.5zM-27 883q6 27 34 53.5t62.5 47t68.5 33.5t50 15q35 4 70 10.5t70 4.5q55 -2 119.5 -18.5t120 -49.5t93 -82t37.5 -117 q0 -33 -16 -62.5t-31 -58.5q-16 -35 -47 -55t-63 -41q-4 -29 -15.5 -57.5t-25.5 -56.5q39 6 84 0q43 -6 76.5 -29t54 -55.5t24.5 -73.5t-16 -80q-14 -29 -23.5 -60.5t-33.5 -54.5q-55 -49 -104.5 -80.5t-101.5 -51t-112.5 -29t-136.5 -15.5q-72 -4 -128 13.5t-97 70.5 q-6 12 -4 27.5t10 26t20.5 12.5t26.5 -9q31 -47 78 -60t100 -17q86 -6 175 6t163 59q25 16 47.5 34.5t38.5 41.5q55 76 57 129t-32.5 84t-95 38t-128.5 -14l-2 -6v4q-10 -20 -26.5 -24t-26.5 6q-16 -4 -24.5 5t-8.5 22.5t7.5 27t19.5 21.5q12 4 24.5 8t24.5 8l4 4 q16 16 33.5 41t28.5 53q-27 -6 -33 21t14 49q2 2 3 2t3 2q-12 16 -41 29q-10 12 -11 25.5t5 25.5t17.5 18.5t27.5 2.5q37 -29 54 -68q20 12 38.5 25.5t34.5 29.5q31 29 38 61.5t-2 64.5t-31.5 59.5t-51.5 48.5q-55 39 -120.5 56t-132 12t-129 -29.5t-113.5 -67.5 q-6 -6 -11 -8q2 -16 -11 -31.5t-34 -15.5q-12 0 -26 8q-10 14 -11 31zM141 1104q10 41 34 82t46 74q25 35 54.5 70.5t70.5 51.5t67.5 -2t36 -54t0 -77t-35.5 -71q-29 -31 -63 -54.5t-75 -44.5q-25 -12 -51 -24.5t-55 -7.5q-15 8 -23 22q-2 6 -2 16q-4 6 -4 19zM213 1139 q2 -4 2 -15q29 6 61.5 17.5t61.5 29t51.5 43t32.5 64.5q-4 59 -33 61t-62.5 -28.5t-66.5 -79.5t-47 -92z" />
<glyph unicode="&#xee;" horiz-adv-x="624" d="M-72 256q2 14 12.5 26.5t26.5 14.5q35 -4 61.5 12.5t65.5 38.5q-8 41 -8 103.5t16 111.5q-22 2 -49 -16q-20 0 -27.5 11t-5 25.5t12.5 27t26 14.5q23 -10 42.5 -6t41.5 14q2 0 3 -1t4 -1q14 2 23 -5.5t10 -19.5t-4 -25.5t-17 -21.5q-23 -10 -29 -35.5t-4 -54.5 t11.5 -56.5t19.5 -41.5v-21q8 -14 -3.5 -33.5t-27.5 -27.5q-25 2 -46.5 -5.5t-40.5 -18.5t-38.5 -24.5t-42.5 -21.5q-20 0 -27.5 11.5t-5.5 25.5zM-27 883q6 27 34 53.5t62.5 47t68.5 33.5t50 15q35 4 70 10.5t70 4.5q55 -2 119.5 -18.5t120 -49.5t93 -82t37.5 -117 q0 -33 -16 -62.5t-31 -58.5q-16 -35 -47 -55t-63 -41q-4 -29 -15.5 -57.5t-25.5 -56.5q39 6 84 0q43 -6 76.5 -29t54 -55.5t24.5 -73.5t-16 -80q-14 -29 -23.5 -60.5t-33.5 -54.5q-55 -49 -104.5 -80.5t-101.5 -51t-112.5 -29t-136.5 -15.5q-72 -4 -128 13.5t-97 70.5 q-6 12 -4 27.5t10 26t20.5 12.5t26.5 -9q31 -47 78 -60t100 -17q86 -6 175 6t163 59q25 16 47.5 34.5t38.5 41.5q55 76 57 129t-32.5 84t-95 38t-128.5 -14l-2 -6v4q-10 -20 -26.5 -24t-26.5 6q-16 -4 -24.5 5t-8.5 22.5t7.5 27t19.5 21.5q12 4 24.5 8t24.5 8l4 4 q16 16 33.5 41t28.5 53q-27 -6 -33 21t14 49q2 2 3 2t3 2q-12 16 -41 29q-10 12 -11 25.5t5 25.5t17.5 18.5t27.5 2.5q37 -29 54 -68q20 12 38.5 25.5t34.5 29.5q31 29 38 61.5t-2 64.5t-31.5 59.5t-51.5 48.5q-55 39 -120.5 56t-132 12t-129 -29.5t-113.5 -67.5 q-6 -6 -11 -8q2 -16 -11 -31.5t-34 -15.5q-12 0 -26 8q-10 14 -11 31zM72.5 1157.5q-11.5 59.5 1 132t45 137t79.5 82.5q20 6 47 13.5t53.5 11.5t52.5 2t42 -10q23 -12 48.5 -22.5t41.5 -30.5q33 -37 53.5 -100.5t16.5 -123t-40 -99.5t-114 -28q-20 4 -36.5 14.5t-33.5 24.5 q-47 -29 -99 -55.5t-103 -15.5q-43 8 -54.5 67.5zM118.5 1199q6.5 -44 24.5 -46q37 -4 72 15.5t69 43.5q-4 20 10.5 37t39.5 11l8 -9l2 2q29 16 41 -1t4 -40q8 -4 15 -9t18 -9q12 -4 24 -2t25 2q51 57 44 118.5t-51 106.5t-115 62.5t-144 -13.5q-35 -14 -55.5 -64 t-29 -105.5t-2 -99.5z" />
<glyph unicode="&#xef;" horiz-adv-x="624" d="M-72 256q2 14 12.5 26.5t26.5 14.5q35 -4 61.5 12.5t65.5 38.5q-8 41 -8 103.5t16 111.5q-22 2 -49 -16q-20 0 -27.5 11t-5 25.5t12.5 27t26 14.5q23 -10 42.5 -6t41.5 14q2 0 3 -1t4 -1q14 2 23 -5.5t10 -19.5t-4 -25.5t-17 -21.5q-23 -10 -29 -35.5t-4 -54.5 t11.5 -56.5t19.5 -41.5v-21q8 -14 -3.5 -33.5t-27.5 -27.5q-25 2 -46.5 -5.5t-40.5 -18.5t-38.5 -24.5t-42.5 -21.5q-20 0 -27.5 11.5t-5.5 25.5zM-27 883q6 27 34 53.5t62.5 47t68.5 33.5t50 15q35 4 70 10.5t70 4.5q55 -2 119.5 -18.5t120 -49.5t93 -82t37.5 -117 q0 -33 -16 -62.5t-31 -58.5q-16 -35 -47 -55t-63 -41q-4 -29 -15.5 -57.5t-25.5 -56.5q39 6 84 0q43 -6 76.5 -29t54 -55.5t24.5 -73.5t-16 -80q-14 -29 -23.5 -60.5t-33.5 -54.5q-55 -49 -104.5 -80.5t-101.5 -51t-112.5 -29t-136.5 -15.5q-72 -4 -128 13.5t-97 70.5 q-6 12 -4 27.5t10 26t20.5 12.5t26.5 -9q31 -47 78 -60t100 -17q86 -6 175 6t163 59q25 16 47.5 34.5t38.5 41.5q55 76 57 129t-32.5 84t-95 38t-128.5 -14l-2 -6v4q-10 -20 -26.5 -24t-26.5 6q-16 -4 -24.5 5t-8.5 22.5t7.5 27t19.5 21.5q12 4 24.5 8t24.5 8l4 4 q16 16 33.5 41t28.5 53q-27 -6 -33 21t14 49q2 2 3 2t3 2q-12 16 -41 29q-10 12 -11 25.5t5 25.5t17.5 18.5t27.5 2.5q37 -29 54 -68q20 12 38.5 25.5t34.5 29.5q31 29 38 61.5t-2 64.5t-31.5 59.5t-51.5 48.5q-55 39 -120.5 56t-132 12t-129 -29.5t-113.5 -67.5 q-6 -6 -11 -8q2 -16 -11 -31.5t-34 -15.5q-12 0 -26 8q-10 14 -11 31zM94 1252.5q8 50.5 53 66.5q4 6 17 14q68 31 118 23t78 -41q16 10 32 22.5t34 8.5q63 -10 92 -58.5t25 -103t-40 -99.5t-100 -51q-61 -6 -98 35q-16 -12 -38.5 -20.5t-47.5 -14.5q-37 -10 -69.5 28 t-48 89t-7.5 101.5zM141.5 1187.5q5.5 -38.5 27 -67t56.5 -38t72 25.5q8 29 31 33q29 37 28.5 64.5t-17.5 45t-47 24.5t-59 5q-4 -14 -15 -24.5t-30 -10.5q-8 4 -17 10t-15 -2q-20 -27 -14.5 -65.5zM362 1122q10 -10 26.5 -19t36 -12.5t39 6t36.5 40.5q10 23 8 51.5 t-16.5 50t-40 28t-58.5 -13.5q6 -33 -1 -66.5t-30 -64.5z" />
<glyph unicode="&#xf0;" d="M-74 323.5q2 16.5 15 28.5q25 12 42 15.5t42.5 5.5t66.5 6t113 18q2 0 3 1t3 1h-2q47 16 100 27.5t101 -4.5q12 -10 15 -17.5t1 -23.5q-2 -18 -11.5 -27.5t-25.5 -19.5q-23 -10 -33 -1t-10 25q-31 4 -62.5 -1t-62.5 -9q-74 -10 -110.5 -15t-57 -10.5t-35 -12.5t-41.5 -17 q-18 -12 -30.5 -9t-17.5 13t-3 26.5zM-51 204.5q4 16.5 14 26t23.5 9.5t23.5 -19q57 -94 139 -155.5t172.5 -76t177.5 25.5t154 149q35 57 54.5 123.5t23.5 135.5t-5 137.5t-30 129.5q-18 57 -51 111.5t-78 95.5t-100 64.5t-123 17.5q-31 -2 -83 -15.5t-102 -38t-90 -59.5 t-46 -80q-4 -14 -15.5 -23t-23 -10t-20.5 7t-9 26q8 59 53 106.5t105.5 80.5t125 50t113.5 17q45 0 87 -14t83 -27q37 -10 71 -43.5t61.5 -77.5t48 -89.5t30.5 -73.5q25 -82 32 -154t-1 -140.5t-28.5 -137t-49.5 -144.5q-16 -43 -54 -72.5t-71 -64.5q-16 -18 -41.5 -30.5 t-50.5 -20.5q-176 -43 -299 14.5t-219 208.5q-6 14 -2 30.5zM202 710.5q3 14.5 13 26.5q4 4 12 8q16 8 31 5q29 -18 52.5 -42t47.5 -49q39 53 70 113q27 29 45.5 10.5t7.5 -49.5q-23 -27 -46 -51.5t-46 -50.5q39 -35 80 -65.5t82 -59.5q16 -25 0 -51.5t-47 -14.5 q-35 41 -69 81t-75 75q-23 -31 -41 -59h3q-4 -29 -6.5 -34t-4.5 1q-10 -20 -29.5 -26.5t-31.5 22.5q-2 20 5 36.5t19.5 31t27.5 27.5t28 28q-41 31 -88 49q-16 -6 -25.5 -2t-13.5 15t-1 25.5zM205 397l2 2zM231 403q5 1 9 3q-2 0 -4.5 -1.5t-4.5 -1.5z" />
<glyph unicode="&#xf1;" horiz-adv-x="712" d="M-51 276q0 16 9 31t21.5 21t22.5 1t14 -28q8 -57 21.5 -111.5t44.5 -105.5q43 -70 113.5 -112t148.5 -52q-12 100 -16 201.5t-9 204.5q0 41 -3 82t3 79v2q2 12 12.5 22.5t20.5 13.5t19.5 -2t13.5 -23v-15q0 -12 -6 -18q-6 -49 -9 -115.5t-1 -140.5t8 -150.5t20 -144.5h2 q-2 4 -3 12.5t-3 12.5q2 -6 4 -12.5t4 -12.5q74 2 143.5 33t123.5 96q35 43 55 95.5t33 105.5q20 80 22 174t-14 187t-55 177t-101 146q-23 23 -47 38t-53 27q-43 -135 -49 -277.5t26 -324.5q0 -14 -8 -26.5t-18 -17.5t-21.5 -1t-19.5 21q-16 174 -2 329.5t59 307.5 q-61 18 -128.5 14t-128 -28.5t-109 -67.5t-72.5 -103q-10 -14 -22.5 -18t-21.5 0t-14.5 15t-1.5 30q14 33 37 66.5t52.5 61.5t65.5 47t73 26q31 4 63.5 16t65.5 21.5t63.5 10.5t57.5 -16q10 -6 18 -11t19 -9q29 92 70.5 183t92.5 188q27 29 45.5 10t8.5 -49 q-121 -188 -185 -351q49 -25 82 -45t59.5 -48.5t49 -71.5t47.5 -113q23 -61 39 -128t12 -132q-4 -43 -6 -111.5t-13.5 -142.5t-35 -139.5t-66.5 -98.5q-23 -18 -43 -38.5t-41.5 -41t-45 -36t-52.5 -21.5q-49 -10 -94 -12q4 -16 9 -29.5t9 -30.5q2 -16 -4 -30.5t-16.5 -22.5 t-23.5 -5t-21 22q-4 25 -9.5 48t-9.5 46q-172 10 -272.5 120.5t-128.5 294.5zM116 1178.5q-2 56.5 14.5 108.5t51.5 65q29 10 46 12t33.5 -3t34 -15.5t46.5 -24.5q8 -4 15 -12.5t15 -18.5q2 0 3 1t4 1q14 0 34.5 7.5t41 12.5t40 7t31.5 -6q37 -23 42 -63t-10.5 -81 t-45 -73.5t-62.5 -42.5q-39 -10 -73.5 9t-69.5 36q-8 -8 -12 -11q-18 -10 -37 -23t-41 -17q-49 -8 -74 33.5t-27 98zM161.5 1250.5q-4.5 -33.5 3 -71.5t21.5 -59q13 0 29 -4q10 6 17 12.5t18 12.5q0 18 14 33.5t37 11.5q18 -6 34.5 -18.5t33 -26t33.5 -24.5t36 -15 q20 -4 37.5 8t29 31.5t15.5 45t0 48.5q-2 10 -4 15t-13 7q-4 2 -17 -2t-30.5 -10t-35 -13t-29.5 -13q-12 -12 -31 -13q-12 2 -27.5 16.5t-31 31t-32.5 33t-32 22.5q-37 14 -54 -5.5t-21.5 -53zM392 -54q1 -1 1 -5v2q-2 4 -1 3z" />
<glyph unicode="&#xf2;" horiz-adv-x="649" d="M-51 725q-2 27 9 51.5t29.5 47t39 42t39.5 35.5q68 57 142.5 80t149 11.5t145 -51.5t128.5 -103q78 -86 109.5 -199t16 -226.5t-78 -212t-172.5 -153.5q-29 -14 -61.5 -23.5t-67.5 -19.5q-33 -10 -68 -3t-69 9q-41 2 -77 22.5t-68 49.5t-59.5 60.5t-51.5 56.5 q-10 12 -10.5 28.5t8 28.5t21.5 16t28 -8q31 -35 54.5 -63.5t48 -51t54 -41t74.5 -32.5q111 -35 199 1t148.5 110.5t91 173t24.5 190.5q-4 68 -38 133.5t-87 118.5t-118.5 89t-131.5 46q-29 4 -49 3t-38.5 -5t-37 -11t-43.5 -16q6 -4 -5 -6t-15 -6q-16 -10 -21.5 -14.5 t-23.5 -20.5q-57 -45 -94 -102q10 -20 -2.5 -41t-38.5 -21q-2 0 -4.5 1t-6.5 1q-14 6 -22 25zM164 1210q2 25 20.5 45.5t46.5 35t46 14.5q23 0 54.5 -19.5t63 -44t61.5 -46.5t46 -26q25 -18 14.5 -46.5t-42.5 -28.5q-6 0 -13 6h-2q-72 10 -139.5 18t-128.5 49q-29 18 -27 43 zM207 1225q23 -35 71 -44.5t99 -9.5q-27 25 -54.5 46.5t-51 33t-41 7.5t-23.5 -33zM318.5 483.5q-3.5 14.5 7.5 32.5q20 23 40.5 52.5t43.5 60.5q-27 16 -68 20q-16 6 -20.5 20.5t1 28t18.5 22.5t30 5q35 -16 71 -53q39 51 84 76q20 4 29.5 -5.5t9.5 -22.5t-9 -27.5 t-24 -20.5q-37 -6 -63 -33q27 -33 50.5 -67.5t49.5 -63.5q2 -12 -2 -26.5t-13 -23.5t-20.5 -10.5t-23.5 13.5q-16 35 -31.5 72.5t-40.5 66.5q-18 -29 -32.5 -62.5t-26.5 -60.5q-12 -18 -25.5 -20t-22.5 5t-12.5 21.5z" />
<glyph unicode="&#xf3;" horiz-adv-x="649" d="M-51 725q-2 27 9 51.5t29.5 47t39 42t39.5 35.5q68 57 142.5 80t149 11.5t145 -51.5t128.5 -103q78 -86 109.5 -199t16 -226.5t-78 -212t-172.5 -153.5q-29 -14 -61.5 -23.5t-67.5 -19.5q-33 -10 -68 -3t-69 9q-41 2 -77 22.5t-68 49.5t-59.5 60.5t-51.5 56.5 q-10 12 -10.5 28.5t8 28.5t21.5 16t28 -8q31 -35 54.5 -63.5t48 -51t54 -41t74.5 -32.5q111 -35 199 1t148.5 110.5t91 173t24.5 190.5q-4 68 -38 133.5t-87 118.5t-118.5 89t-131.5 46q-29 4 -49 3t-38.5 -5t-37 -11t-43.5 -16q6 -4 -5 -6t-15 -6q-16 -10 -21.5 -14.5 t-23.5 -20.5q-57 -45 -94 -102q10 -20 -2.5 -41t-38.5 -21q-2 0 -4.5 1t-6.5 1q-14 6 -22 25zM153 1104q10 41 34 82t46 74q25 35 54.5 70.5t70.5 51.5t67.5 -2t36 -54t0 -77t-35.5 -71q-29 -31 -63 -54.5t-75 -44.5q-25 -12 -51 -24.5t-55 -7.5q-15 8 -23 22q-2 6 -2 16 q-4 6 -4 19zM225 1139q2 -4 2 -15q29 6 61.5 17.5t61.5 29t51.5 43t32.5 64.5q-4 59 -33 61t-62.5 -28.5t-66.5 -79.5t-47 -92zM318.5 483.5q-3.5 14.5 7.5 32.5q20 23 40.5 52.5t43.5 60.5q-27 16 -68 20q-16 6 -20.5 20.5t1 28t18.5 22.5t30 5q35 -16 71 -53q39 51 84 76 q20 4 29.5 -5.5t9.5 -22.5t-9 -27.5t-24 -20.5q-37 -6 -63 -33q27 -33 50.5 -67.5t49.5 -63.5q2 -12 -2 -26.5t-13 -23.5t-20.5 -10.5t-23.5 13.5q-16 35 -31.5 72.5t-40.5 66.5q-18 -29 -32.5 -62.5t-26.5 -60.5q-12 -18 -25.5 -20t-22.5 5t-12.5 21.5z" />
<glyph unicode="&#xf4;" horiz-adv-x="649" d="M-51 725q-2 27 9 51.5t29.5 47t39 42t39.5 35.5q68 57 142.5 80t149 11.5t145 -51.5t128.5 -103q78 -86 109.5 -199t16 -226.5t-78 -212t-172.5 -153.5q-29 -14 -61.5 -23.5t-67.5 -19.5q-33 -10 -68 -3t-69 9q-41 2 -77 22.5t-68 49.5t-59.5 60.5t-51.5 56.5 q-10 12 -10.5 28.5t8 28.5t21.5 16t28 -8q31 -35 54.5 -63.5t48 -51t54 -41t74.5 -32.5q111 -35 199 1t148.5 110.5t91 173t24.5 190.5q-4 68 -38 133.5t-87 118.5t-118.5 89t-131.5 46q-29 4 -49 3t-38.5 -5t-37 -11t-43.5 -16q6 -4 -5 -6t-15 -6q-16 -10 -21.5 -14.5 t-23.5 -20.5q-57 -45 -94 -102q10 -20 -2.5 -41t-38.5 -21q-2 0 -4.5 1t-6.5 1q-14 6 -22 25zM85.5 1157.5q-11.5 59.5 1 132t45 137t79.5 82.5q20 6 47 13.5t53.5 11.5t52.5 2t42 -10q23 -12 48.5 -22.5t41.5 -30.5q33 -37 53.5 -100.5t16.5 -123t-40 -99.5t-114 -28 q-20 4 -36.5 14.5t-33.5 24.5q-47 -29 -99 -55.5t-103 -15.5q-43 8 -54.5 67.5zM131.5 1199q6.5 -44 24.5 -46q37 -4 72 15.5t69 43.5q-4 20 10.5 37t39.5 11l8 -9l2 2q29 16 41 -1t4 -40q8 -4 15 -9t18 -9q12 -4 24 -2t25 2q51 57 44 118.5t-51 106.5t-115 62.5t-144 -13.5 q-35 -14 -55.5 -64t-29 -105.5t-2 -99.5zM318.5 483.5q-3.5 14.5 7.5 32.5q20 23 40.5 52.5t43.5 60.5q-27 16 -68 20q-16 6 -20.5 20.5t1 28t18.5 22.5t30 5q35 -16 71 -53q39 51 84 76q20 4 29.5 -5.5t9.5 -22.5t-9 -27.5t-24 -20.5q-37 -6 -63 -33q27 -33 50.5 -67.5 t49.5 -63.5q2 -12 -2 -26.5t-13 -23.5t-20.5 -10.5t-23.5 13.5q-16 35 -31.5 72.5t-40.5 66.5q-18 -29 -32.5 -62.5t-26.5 -60.5q-12 -18 -25.5 -20t-22.5 5t-12.5 21.5z" />
<glyph unicode="&#xf5;" horiz-adv-x="649" d="M-51 725q-2 27 9 51.5t29.5 47t39 42t39.5 35.5q68 57 142.5 80t149 11.5t145 -51.5t128.5 -103q78 -86 109.5 -199t16 -226.5t-78 -212t-172.5 -153.5q-29 -14 -61.5 -23.5t-67.5 -19.5q-33 -10 -68 -3t-69 9q-41 2 -77 22.5t-68 49.5t-59.5 60.5t-51.5 56.5 q-10 12 -10.5 28.5t8 28.5t21.5 16t28 -8q31 -35 54.5 -63.5t48 -51t54 -41t74.5 -32.5q111 -35 199 1t148.5 110.5t91 173t24.5 190.5q-4 68 -38 133.5t-87 118.5t-118.5 89t-131.5 46q-29 4 -49 3t-38.5 -5t-37 -11t-43.5 -16q6 -4 -5 -6t-15 -6q-16 -10 -21.5 -14.5 t-23.5 -20.5q-57 -45 -94 -102q10 -20 -2.5 -41t-38.5 -21q-2 0 -4.5 1t-6.5 1q-14 6 -22 25zM84 1178.5q-2 56.5 14.5 108.5t51.5 65q29 10 46 12t33.5 -3t34 -15.5t46.5 -24.5q8 -4 15 -12.5t15 -18.5q2 0 3 1t4 1q14 0 34.5 7.5t41 12.5t40 7t31.5 -6q37 -23 42 -63 t-10.5 -81t-45 -73.5t-62.5 -42.5q-39 -10 -73.5 9t-69.5 36q-8 -8 -12 -11q-18 -10 -37 -23t-41 -17q-49 -8 -74 33.5t-27 98zM129.5 1250.5q-4.5 -33.5 3 -71.5t21.5 -59q13 0 29 -4q10 6 17 12.5t18 12.5q0 18 14 33.5t37 11.5q18 -6 34.5 -18.5t33 -26t33.5 -24.5 t36 -15q20 -4 37.5 8t29 31.5t15.5 45t0 48.5q-2 10 -4 15t-13 7q-4 2 -17 -2t-30.5 -10t-35 -13t-29.5 -13q-12 -12 -31 -13q-12 2 -27.5 16.5t-31 31t-32.5 33t-32 22.5q-37 14 -54 -5.5t-21.5 -53zM318.5 483.5q-3.5 14.5 7.5 32.5q20 23 40.5 52.5t43.5 60.5 q-27 16 -68 20q-16 6 -20.5 20.5t1 28t18.5 22.5t30 5q35 -16 71 -53q39 51 84 76q20 4 29.5 -5.5t9.5 -22.5t-9 -27.5t-24 -20.5q-37 -6 -63 -33q27 -33 50.5 -67.5t49.5 -63.5q2 -12 -2 -26.5t-13 -23.5t-20.5 -10.5t-23.5 13.5q-16 35 -31.5 72.5t-40.5 66.5 q-18 -29 -32.5 -62.5t-26.5 -60.5q-12 -18 -25.5 -20t-22.5 5t-12.5 21.5z" />
<glyph unicode="&#xf6;" horiz-adv-x="649" d="M-51 725q-2 27 9 51.5t29.5 47t39 42t39.5 35.5q68 57 142.5 80t149 11.5t145 -51.5t128.5 -103q78 -86 109.5 -199t16 -226.5t-78 -212t-172.5 -153.5q-29 -14 -61.5 -23.5t-67.5 -19.5q-33 -10 -68 -3t-69 9q-41 2 -77 22.5t-68 49.5t-59.5 60.5t-51.5 56.5 q-10 12 -10.5 28.5t8 28.5t21.5 16t28 -8q31 -35 54.5 -63.5t48 -51t54 -41t74.5 -32.5q111 -35 199 1t148.5 110.5t91 173t24.5 190.5q-4 68 -38 133.5t-87 118.5t-118.5 89t-131.5 46q-29 4 -49 3t-38.5 -5t-37 -11t-43.5 -16q6 -4 -5 -6t-15 -6q-16 -10 -21.5 -14.5 t-23.5 -20.5q-57 -45 -94 -102q10 -20 -2.5 -41t-38.5 -21q-2 0 -4.5 1t-6.5 1q-14 6 -22 25zM106 1252.5q8 50.5 53 66.5q4 6 17 14q68 31 118 23t78 -41q16 10 32 22.5t34 8.5q63 -10 92 -58.5t25 -103t-40 -99.5t-100 -51q-61 -6 -98 35q-16 -12 -38.5 -20.5t-47.5 -14.5 q-37 -10 -69.5 28t-48 89t-7.5 101.5zM153.5 1187.5q5.5 -38.5 27 -67t56.5 -38t72 25.5q8 29 31 33q29 37 28.5 64.5t-17.5 45t-47 24.5t-59 5q-4 -14 -15 -24.5t-30 -10.5q-8 4 -17 10t-15 -2q-20 -27 -14.5 -65.5zM318.5 483.5q-3.5 14.5 7.5 32.5q20 23 40.5 52.5 t43.5 60.5q-27 16 -68 20q-16 6 -20.5 20.5t1 28t18.5 22.5t30 5q35 -16 71 -53q39 51 84 76q20 4 29.5 -5.5t9.5 -22.5t-9 -27.5t-24 -20.5q-37 -6 -63 -33q27 -33 50.5 -67.5t49.5 -63.5q2 -12 -2 -26.5t-13 -23.5t-20.5 -10.5t-23.5 13.5q-16 35 -31.5 72.5t-40.5 66.5 q-18 -29 -32.5 -62.5t-26.5 -60.5q-12 -18 -25.5 -20t-22.5 5t-12.5 21.5zM374 1122q10 -10 26.5 -19t36 -12.5t39 6t36.5 40.5q10 23 8 51.5t-16.5 50t-40 28t-58.5 -13.5q6 -33 -1 -66.5t-30 -64.5z" />
<glyph unicode="&#xf8;" horiz-adv-x="649" d="M-84 -375q14 59 22.5 118.5t30.5 117.5q76 205 177.5 381t227.5 329.5t277.5 288.5t329.5 258q18 10 30.5 5t16.5 -17t-1 -27.5t-19 -25.5q-172 -109 -329 -235t-285 -274.5t-224 -322.5t-147 -379q-14 -53 -21.5 -108.5t-17.5 -108.5q-4 -14 -15.5 -23.5t-22.5 -10.5 t-20.5 7.5t-9.5 26.5zM-51 725q-2 27 9 51.5t29.5 47t39 42t39.5 35.5q68 57 142.5 80t149 11.5t145 -51.5t128.5 -103q78 -86 109.5 -199t16 -226.5t-78 -212t-172.5 -153.5q-29 -14 -61.5 -23.5t-67.5 -19.5q-33 -10 -68 -3t-69 9q-41 2 -77 22.5t-68 49.5t-59.5 60.5 t-51.5 56.5q-10 12 -10.5 28.5t8 28.5t21.5 16t28 -8q31 -35 54.5 -63.5t48 -51t54 -41t74.5 -32.5q111 -35 199 1t148.5 110.5t91 173t24.5 190.5q-4 68 -38 133.5t-87 118.5t-118.5 89t-131.5 46q-29 4 -49 3t-38.5 -5t-37 -11t-43.5 -16q6 -4 -5 -6t-15 -6 q-16 -10 -21.5 -14.5t-23.5 -20.5q-57 -45 -94 -102q10 -20 -2.5 -41t-38.5 -21q-2 0 -4.5 1t-6.5 1q-14 6 -22 25zM318.5 483.5q-3.5 14.5 7.5 32.5q20 23 40.5 52.5t43.5 60.5q-27 16 -68 20q-16 6 -20.5 20.5t1 28t18.5 22.5t30 5q35 -16 71 -53q39 51 84 76 q20 4 29.5 -5.5t9.5 -22.5t-9 -27.5t-24 -20.5q-37 -6 -63 -33q27 -33 50.5 -67.5t49.5 -63.5q2 -12 -2 -26.5t-13 -23.5t-20.5 -10.5t-23.5 13.5q-16 35 -31.5 72.5t-40.5 66.5q-18 -29 -32.5 -62.5t-26.5 -60.5q-12 -18 -25.5 -20t-22.5 5t-12.5 21.5z" />
<glyph unicode="&#xf9;" horiz-adv-x="669" d="M-31 840q16 41 25.5 86t42.5 71q45 37 102.5 44.5t120.5 -9.5q-2 98 18.5 193.5t71.5 189.5q16 29 42 48.5t48 41.5q16 10 27.5 7t16.5 -13t3 -25.5t-10 -27.5q-23 -16 -45 -32.5t-43 -39.5q-66 -74 -85 -164t-11 -188q90 -31 180 -94.5t163 -141t118 -159.5t45 -150 q0 -59 2 -121.5t-27 -113.5q-35 -61 -80 -116.5t-88 -113.5q-16 -23 -39.5 -36t-50.5 -23q-174 -57 -294 9.5t-197 223.5q-6 14 -2 30.5t14 26t23.5 9.5t23.5 -19q51 -119 126 -177t155.5 -67t158.5 23.5t136.5 98t88 156.5t15.5 198q-12 80 -52 150.5t-98.5 131t-127 106.5 t-138.5 77q-14 4 -24.5 9t-20.5 9q14 -90 38.5 -175t47.5 -159q2 -16 -4 -30.5t-16.5 -22.5t-23.5 -5t-21 22q-20 98 -38 194t-24 191q-27 8 -45 10t-37.5 -2t-44 -12.5t-61.5 -18.5q-10 -33 -22.5 -63.5t-22.5 -63.5q-10 -14 -22.5 -18t-22 0t-14.5 15t-1 30zM174 1210 q2 25 20.5 45.5t46.5 35t46 14.5q23 0 54.5 -19.5t63 -44t61.5 -46.5t46 -26q25 -18 14.5 -46.5t-42.5 -28.5q-6 0 -13 6h-2q-72 10 -139.5 18t-128.5 49q-29 18 -27 43zM217 1225q23 -35 71 -44.5t99 -9.5q-27 25 -54.5 46.5t-51 33t-41 7.5t-23.5 -33z" />
<glyph unicode="&#xfa;" horiz-adv-x="669" d="M-31 840q16 41 25.5 86t42.5 71q45 37 102.5 44.5t120.5 -9.5q-2 98 18.5 193.5t71.5 189.5q16 29 42 48.5t48 41.5q16 10 27.5 7t16.5 -13t3 -25.5t-10 -27.5q-23 -16 -45 -32.5t-43 -39.5q-66 -74 -85 -164t-11 -188q90 -31 180 -94.5t163 -141t118 -159.5t45 -150 q0 -59 2 -121.5t-27 -113.5q-35 -61 -80 -116.5t-88 -113.5q-16 -23 -39.5 -36t-50.5 -23q-174 -57 -294 9.5t-197 223.5q-6 14 -2 30.5t14 26t23.5 9.5t23.5 -19q51 -119 126 -177t155.5 -67t158.5 23.5t136.5 98t88 156.5t15.5 198q-12 80 -52 150.5t-98.5 131t-127 106.5 t-138.5 77q-14 4 -24.5 9t-20.5 9q14 -90 38.5 -175t47.5 -159q2 -16 -4 -30.5t-16.5 -22.5t-23.5 -5t-21 22q-20 98 -38 194t-24 191q-27 8 -45 10t-37.5 -2t-44 -12.5t-61.5 -18.5q-10 -33 -22.5 -63.5t-22.5 -63.5q-10 -14 -22.5 -18t-22 0t-14.5 15t-1 30zM164 1104 q10 41 34 82t46 74q25 35 54.5 70.5t70.5 51.5t67.5 -2t36 -54t0 -77t-35.5 -71q-29 -31 -63 -54.5t-75 -44.5q-25 -12 -51 -24.5t-55 -7.5q-15 8 -23 22q-2 6 -2 16q-4 6 -4 19zM236 1139q2 -4 2 -15q29 6 61.5 17.5t61.5 29t51.5 43t32.5 64.5q-4 59 -33 61t-62.5 -28.5 t-66.5 -79.5t-47 -92z" />
<glyph unicode="&#xfb;" horiz-adv-x="669" d="M-31 840q16 41 25.5 86t42.5 71q45 37 102.5 44.5t120.5 -9.5q-2 98 18.5 193.5t71.5 189.5q16 29 42 48.5t48 41.5q16 10 27.5 7t16.5 -13t3 -25.5t-10 -27.5q-23 -16 -45 -32.5t-43 -39.5q-66 -74 -85 -164t-11 -188q90 -31 180 -94.5t163 -141t118 -159.5t45 -150 q0 -59 2 -121.5t-27 -113.5q-35 -61 -80 -116.5t-88 -113.5q-16 -23 -39.5 -36t-50.5 -23q-174 -57 -294 9.5t-197 223.5q-6 14 -2 30.5t14 26t23.5 9.5t23.5 -19q51 -119 126 -177t155.5 -67t158.5 23.5t136.5 98t88 156.5t15.5 198q-12 80 -52 150.5t-98.5 131t-127 106.5 t-138.5 77q-14 4 -24.5 9t-20.5 9q14 -90 38.5 -175t47.5 -159q2 -16 -4 -30.5t-16.5 -22.5t-23.5 -5t-21 22q-20 98 -38 194t-24 191q-27 8 -45 10t-37.5 -2t-44 -12.5t-61.5 -18.5q-10 -33 -22.5 -63.5t-22.5 -63.5q-10 -14 -22.5 -18t-22 0t-14.5 15t-1 30zM95.5 1157.5 q-11.5 59.5 1 132t45 137t79.5 82.5q20 6 47 13.5t53.5 11.5t52.5 2t42 -10q23 -12 48.5 -22.5t41.5 -30.5q33 -37 53.5 -100.5t16.5 -123t-40 -99.5t-114 -28q-20 4 -36.5 14.5t-33.5 24.5q-47 -29 -99 -55.5t-103 -15.5q-43 8 -54.5 67.5zM141.5 1199q6.5 -44 24.5 -46 q37 -4 72 15.5t69 43.5q-4 20 10.5 37t39.5 11l8 -9l2 2q29 16 41 -1t4 -40q8 -4 15 -9t18 -9q12 -4 24 -2t25 2q51 57 44 118.5t-51 106.5t-115 62.5t-144 -13.5q-35 -14 -55.5 -64t-29 -105.5t-2 -99.5z" />
<glyph unicode="&#xfc;" horiz-adv-x="669" d="M-31 840q16 41 25.5 86t42.5 71q45 37 102.5 44.5t120.5 -9.5q-2 98 18.5 193.5t71.5 189.5q16 29 42 48.5t48 41.5q16 10 27.5 7t16.5 -13t3 -25.5t-10 -27.5q-23 -16 -45 -32.5t-43 -39.5q-66 -74 -85 -164t-11 -188q90 -31 180 -94.5t163 -141t118 -159.5t45 -150 q0 -59 2 -121.5t-27 -113.5q-35 -61 -80 -116.5t-88 -113.5q-16 -23 -39.5 -36t-50.5 -23q-174 -57 -294 9.5t-197 223.5q-6 14 -2 30.5t14 26t23.5 9.5t23.5 -19q51 -119 126 -177t155.5 -67t158.5 23.5t136.5 98t88 156.5t15.5 198q-12 80 -52 150.5t-98.5 131t-127 106.5 t-138.5 77q-14 4 -24.5 9t-20.5 9q14 -90 38.5 -175t47.5 -159q2 -16 -4 -30.5t-16.5 -22.5t-23.5 -5t-21 22q-20 98 -38 194t-24 191q-27 8 -45 10t-37.5 -2t-44 -12.5t-61.5 -18.5q-10 -33 -22.5 -63.5t-22.5 -63.5q-10 -14 -22.5 -18t-22 0t-14.5 15t-1 30zM117 1252.5 q8 50.5 53 66.5q4 6 17 14q68 31 118 23t78 -41q16 10 32 22.5t34 8.5q63 -10 92 -58.5t25 -103t-40 -99.5t-100 -51q-61 -6 -98 35q-16 -12 -38.5 -20.5t-47.5 -14.5q-37 -10 -69.5 28t-48 89t-7.5 101.5zM164.5 1187.5q5.5 -38.5 27 -67t56.5 -38t72 25.5q8 29 31 33 q29 37 28.5 64.5t-17.5 45t-47 24.5t-59 5q-4 -14 -15 -24.5t-30 -10.5q-8 4 -17 10t-15 -2q-20 -27 -14.5 -65.5zM385 1122q10 -10 26.5 -19t36 -12.5t39 6t36.5 40.5q10 23 8 51.5t-16.5 50t-40 28t-58.5 -13.5q6 -33 -1 -66.5t-30 -64.5z" />
<glyph unicode="&#xfd;" horiz-adv-x="897" d="M-16 380.5q4 16.5 14 26t23.5 9.5t23.5 -19q29 -23 47.5 -36t38 -21t46 -8t69.5 6q16 10 28 4q4 2 9.5 2t11.5 2q18 -4 23.5 -14t3 -22.5t-11.5 -24t-21 -17.5h-6q-8 -25 -15.5 -46t-10.5 -42.5t2 -45t24 -54.5q20 -35 66 -55.5t95.5 -21.5t87 21.5t43.5 75.5 q4 33 -2 59.5t-18 49t-28.5 46.5t-32.5 50l-2 2q-12 8 -15.5 21.5t2.5 27t18.5 21.5t28.5 4q45 -10 81 -22.5t68 -16.5t65.5 3t76.5 36q63 45 92 116.5t24 146.5t-40 144.5t-96 112.5q-25 18 -65 33.5t-87 28t-100 19.5t-109 7q-18 -109 -15 -219.5t11 -239.5q0 -14 -8 -26 t-18.5 -17.5t-21.5 -1.5t-19 21q4 123 8 242.5t20 240.5q-61 -2 -118.5 -14t-103.5 -37t-77 -62.5t-37 -93.5q-4 -14 -15 -23t-22.5 -10t-20.5 7t-9 26q14 82 53 132.5t95.5 77t124 35.5t138.5 9q10 66 25.5 129.5t40.5 128.5q8 18 21.5 24.5t23.5 1.5t15 -19.5t-1 -32.5 q-31 -61 -50 -118.5t-32 -113.5q45 -2 87 -4t81 -4q29 0 54.5 -10t51 -24.5t50.5 -29t49 -26.5q20 -10 35.5 -25.5t29 -35t26 -39t26.5 -37.5q25 -29 34 -75t8 -95t-11.5 -95.5t-24.5 -74.5q-16 -35 -43 -65.5t-51 -61.5q-12 -16 -31.5 -26.5t-41 -16.5t-43 -10.5 t-42.5 -12.5q-23 -10 -46.5 -7t-47.5 11q23 -45 35 -94t-8 -88q-10 -18 -19.5 -38.5t-26.5 -37.5q-31 -31 -77.5 -44t-96 -10t-92.5 23.5t-67 59.5q-27 43 -36 71.5t-7 52t9 47.5t11 58q-43 2 -72.5 12.5t-54 22.5t-49.5 24.5t-57 18.5q-6 14 -2 30.5zM274 1104q10 41 34 82 t46 74q25 35 54.5 70.5t70.5 51.5t67.5 -2t36 -54t0 -77t-35.5 -71q-29 -31 -63 -54.5t-75 -44.5q-25 -12 -51 -24.5t-55 -7.5q-15 8 -23 22q-2 6 -2 16q-4 6 -4 19zM346 1139q2 -4 2 -15q29 6 61.5 17.5t61.5 29t51.5 43t32.5 64.5q-4 59 -33 61t-62.5 -28.5t-66.5 -79.5 t-47 -92z" />
<glyph unicode="&#xfe;" horiz-adv-x="770" d="M-14 88q0 14 6 27.5t16 20.5t21.5 6t21.5 -17q6 -23 8 -46.5t13 -45.5q27 -57 96.5 -99.5t151 -60.5t161.5 -9t127 54q27 27 29 56.5t-6 60.5t-21.5 60.5t-19.5 56.5q-10 4 -18.5 7t-14.5 7q-10 12 -11 25.5t5 25.5t17.5 18.5t27.5 2.5q33 -23 123 -15q33 4 59.5 6 t50 8.5t45 18.5t46.5 37q35 35 52 89t14 111.5t-26.5 107.5t-70.5 77q-18 10 -46 14t-58.5 3t-60.5 -8t-52 -21q-2 -12 -4 -24.5t-2 -23.5q-4 -14 -15.5 -23t-23 -10t-20.5 6t-9 25q-12 6 -16 22.5t6 37.5q14 18 30 31q12 41 26.5 86t25 86t14.5 77.5t-4 61.5 q-14 45 -49 67.5t-81 30.5t-98.5 4t-98.5 -15t-83 -26.5t-53 -27.5q-12 -10 -36.5 -32t-47 -48.5t-35 -52.5t-0.5 -44q8 -14 6 -30.5t-11 -26.5t-22.5 -12t-25.5 12q-20 33 -19 62.5t15 57.5t36.5 52.5t45.5 46.5q55 53 105.5 80t104.5 36t113.5 6t131.5 -11q45 -4 86 -33 t57 -72q23 -59 8.5 -138t-37.5 -156q61 20 125 7.5t114 -51t76.5 -102t12.5 -145.5q-10 -57 -20.5 -106.5t-55.5 -94.5q-29 -29 -53.5 -45t-50 -25.5t-55 -15.5t-68.5 -14q-12 -4 -26.5 -5t-31.5 -4q6 -41 15.5 -68.5t12.5 -54t-5 -57t-39 -80.5q-12 -18 -38.5 -31.5 t-58.5 -21.5t-62.5 -11t-49.5 -3q-51 2 -111.5 10t-116.5 25.5t-105.5 48t-80.5 82.5q-14 25 -19 51t-15 51zM567 469q0 16 9.5 30.5t21.5 20.5t22.5 1t14.5 -27q-14 -57 -12 -83t30 -53q2 -12 -2 -26.5t-13 -23.5t-20.5 -10t-23.5 13q-12 41 -11.5 80t-15.5 78z" />
</font>
</defs>
</svg>
